<svg version="1.1" xmlns="http://www.w3.org/2000/svg" xmlns:xlink="http://www.w3.org/1999/xlink" width="34.17311" height="34.17311" viewBox="0,0,34.17311,34.17311"><g transform="translate(-222.91347,-162.9135)"><g data-paper-data="{&quot;isPaintingLayer&quot;:true}" stroke-miterlimit="10" stroke-dasharray="" stroke-dashoffset="0" style="mix-blend-mode: normal"><path d="M229.98313,162.9135h20.03379c3.9166,0 7.06966,3.15307 7.06966,7.06966v20.03379c0,3.91659 -3.15306,7.06966 -7.06966,7.06966h-20.03379c-3.91659,0 -7.06966,-3.15307 -7.06966,-7.06966v-20.03379c0,-3.91659 3.15307,-7.06966 7.06966,-7.06966z" fill="#808080" fill-rule="evenodd" stroke="none" stroke-width="4.43922" stroke-linecap="round" stroke-linejoin="round"/><g fill-rule="nonzero" stroke="#000000" stroke-width="0.5" stroke-linecap="butt" stroke-linejoin="miter"><path d="M244.8902,179.07004c1.54486,-1.65264 10.68278,-5.12471 10.68278,-5.12471c0,0 -2.84889,9.35098 -4.39375,11.00361c-0.56384,0.60317 -1.72069,-1.23287 -2.48254,-1.06455c-1.32556,0.29285 -2.35637,2.14837 -3.4592,1.11747c-1.73667,-1.62341 -1.89216,-4.27918 -0.3473,-5.93181z" data-paper-data="{&quot;index&quot;:null}" fill="#666666"/><path d="M234.7625,185.00185c-1.0009,0.93563 -2.30856,-1.56474 -3.53267,-1.71984c-0.89985,-0.11402 -1.75456,2.36709 -2.40906,1.66693c-1.54486,-1.65264 -4.39375,-11.00361 -4.39375,-11.00361c0,0 9.13792,3.47207 10.68278,5.12471c1.54486,1.65264 1.38937,4.3084 -0.3473,5.93181z" data-paper-data="{&quot;index&quot;:null}" fill="#666666"/><path d="M228.23773,186.05467c0,-6.14664 5.30831,-11.12947 11.85645,-11.12947c6.54814,0 11.85645,4.98283 11.85645,11.12947" fill="#808080"/></g></g></g></svg>