<svg version="1.1" xmlns="http://www.w3.org/2000/svg" xmlns:xlink="http://www.w3.org/1999/xlink" width="504.61175" height="387.02703" viewBox="0,0,504.61175,387.02703"><defs><radialGradient cx="240.00003" cy="114.90985" r="251.08029" gradientUnits="userSpaceOnUse" id="color-1"><stop offset="0" stop-color="#6257ff"/><stop offset="1" stop-color="#000000"/></radialGradient></defs><g transform="translate(13.0566,12.01201)"><g data-paper-data="{&quot;isPaintingLayer&quot;:true}" fill-rule="nonzero" stroke-miterlimit="10" stroke-dasharray="" stroke-dashoffset="0" style="mix-blend-mode: normal"><path d="M-13.0566,375.015v-387.02701h504.61175v387.02703z" data-paper-data="{&quot;index&quot;:null}" fill="url(#color-1)" stroke="none" stroke-width="NaN" stroke-linecap="butt" stroke-linejoin="miter"/><g data-paper-data="{&quot;index&quot;:null}" fill="#ffffff" stroke="none" stroke-width="1.20157" stroke-linecap="round" stroke-linejoin="round"><path d="M138.7176,262.74294c0.27828,-1.04357 0.98559,-1.56534 2.12192,-1.56534h2.08713c0.55657,0 0.96239,0.2203 1.21749,0.66093c0.27828,0.41743 0.33626,0.9392 0.17392,1.56534l-12.17491,47.79531c-0.27828,1.04357 -0.98559,1.56534 -2.12192,1.56534h-2.08713c-0.55657,0 -0.96239,-0.20873 -1.21749,-0.62616c-0.27827,-0.44064 -0.34786,-0.96239 -0.20873,-1.56534z"/><path d="M150.61427,296.58925l7.40933,-12.24452c1.57693,-2.57412 3.18867,-4.5105 4.83519,-5.80917c1.6697,-1.29865 3.09592,-1.94802 4.27863,-1.94802h1.49577c0.76526,0 1.35665,0.12753 1.77408,0.38264c0.44064,0.25508 0.78847,0.83484 1.04357,1.73928c0.27826,0.90442 0.15073,2.23786 -0.38263,4.00035l-7.9659,29.04591c-0.13915,0.6725 -0.52177,1.00876 -1.14792,1.00876h-3.72204c-0.69571,0 -0.88123,-0.56816 -0.55657,-1.70448l7.47889,-24.45424c0.37104,-1.27548 0.55656,-2.11033 0.55656,-2.50457c0,-0.41743 -0.16234,-0.62614 -0.48699,-0.62614c-0.32467,0 -0.71891,0.2203 -1.18269,0.66093c-0.44064,0.41743 -1.04357,1.19432 -1.80885,2.33063c-0.90442,1.29865 -1.99437,2.97997 -3.26984,5.04389c-1.27548,2.06394 -2.88719,4.61489 -4.83519,7.65283c-3.66407,5.58886 -6.26139,9.78632 -7.79197,12.59235c-0.37104,0.6725 -0.9392,1.00876 -1.70449,1.00876h-1.98278c-0.27828,0 -0.51019,-0.18552 -0.69571,-0.55656c-0.20871,-0.39422 -0.2435,-0.82324 -0.10435,-1.28706l8.6268,-32.48967c0.2319,-1.22909 0.7073,-1.84362 1.4262,-1.84362h2.92199c1.13634,0 1.51896,0.68411 1.14792,2.05233z"/><path d="M195.10495,280.5531c0.76526,0.81166 0.85805,1.55375 0.27828,2.22629l-1.18269,1.35663c-0.81166,0.90442 -1.53058,1.02037 -2.15669,0.34785l-0.76526,-0.86964c-1.7161,-1.73928 -3.07273,-2.49298 -4.06992,-2.26105c-1.71607,0.32466 -3.52493,2.15669 -5.42656,5.49611c-1.90161,3.31624 -3.26984,6.7484 -4.1047,10.2965c-0.81166,3.52492 -1.00876,6.47009 -0.59136,8.83553c0.09274,0.57977 0.53337,1.11314 1.32185,1.60012c0.78847,0.46381 1.39142,0.64935 1.80885,0.55657c1.43779,-0.76526 3.02633,-2.19149 4.76561,-4.27863c0.53339,-0.71891 1.29864,-0.76526 2.29584,-0.13913l1.07836,0.6957c1.50738,0.90442 0.2203,3.00314 -3.86119,6.29618c-1.7161,1.46099 -3.04953,2.31904 -4.00035,2.57412c-0.95082,0.27826 -2.38859,-0.06957 -4.3134,-1.04357c-1.90161,-0.974 -3.07273,-1.93639 -3.51334,-2.88719c-1.32185,-2.8988 -1.34504,-7.01508 -0.06957,-12.34887c1.27548,-5.35695 2.84082,-9.45005 4.69604,-12.27929c1.85521,-2.82923 3.67566,-4.97433 5.46131,-6.43532c1.78565,-1.48419 3.71046,-2.12192 5.77441,-1.91318c2.06393,0.18553 4.25543,1.57694 6.57447,4.17425z"/><path d="M205.19278,286.11882c1.50738,-2.45815 2.8988,-4.49893 4.17426,-6.12225c1.29865,-1.62333 2.23786,-2.63211 2.81761,-3.02634c0.60295,-0.41743 1.64651,-0.62614 3.1307,-0.62614h0.69571c1.39142,0 1.86683,0.53339 1.4262,1.60012c-0.2319,0.55656 -0.81167,1.2523 -1.73928,2.08713c-0.92763,0.83486 -2.1915,2.26105 -3.79162,4.27863c-1.57693,2.01756 -2.36542,3.32781 -2.36542,3.93076c0,1.25229 0.59136,2.4234 1.77406,3.51335c0.27826,0.2319 0.35944,0.48699 0.24349,0.76526c-0.11597,0.25508 -0.35948,0.42901 -0.73048,0.52177l-2.71327,0.48699c-0.76529,0.13916 -1.35664,0.05804 -1.77407,-0.24349c-0.39422,-0.30145 -1.08995,-1.37982 -2.08713,-3.23505l-5.46132,21.14957c-0.30149,1.04357 -1.02039,1.56535 -2.15669,1.56535h-2.05233c-1.34504,0 -1.86683,-0.54498 -1.56535,-1.63493l8.69637,-33.1158c0.2319,-0.95081 0.89284,-1.4262 1.98278,-1.4262h2.1915c0.62614,0 1.04357,0.10435 1.25229,0.31306c0.20871,0.20871 0.24347,0.60295 0.10433,1.1827z"/><path d="M218.23733,302.92017c-0.64935,3.47854 0,5.40335 1.94802,5.77438c1.73928,-0.64935 3.89597,-2.4234 6.47009,-5.32218c0.44064,-0.39422 0.91601,-0.44062 1.4262,-0.13914l1.35664,0.83486c0.62614,0.48699 0.83486,1.00876 0.62614,1.56534c-0.90442,1.7161 -2.57412,3.53654 -5.00911,5.46131c-2.43499,1.9248 -4.39458,2.74804 -5.87876,2.46977c-3.36258,-0.85804 -5.33379,-2.62052 -5.91353,-5.2874c-0.6725,-3.57132 -0.0811,-8.47606 1.77406,-14.71427c1.85521,-6.23821 4.44096,-10.94585 7.75716,-14.12293c1.1595,-1.06675 2.59732,-1.85521 4.3134,-2.36542c1.73928,-0.53339 3.57131,-0.39422 5.49611,0.41742c1.9248,0.81166 2.8756,3.1307 2.85243,6.95711c-0.02335,3.82642 -1.70463,7.4441 -5.04389,10.85309c-3.31621,3.38578 -7.37452,5.92512 -12.17491,7.618zM219.10696,298.29372c2.22629,-0.95081 4.12789,-2.06394 5.70483,-3.3394c1.60012,-1.27548 2.91038,-2.82923 3.93075,-4.66127c1.04357,-1.83206 1.56534,-3.71045 1.56534,-5.63527c0,-1.9248 -0.55656,-2.88719 -1.6697,-2.88719c-2.17988,0 -4.0931,1.78566 -5.7396,5.35699c-1.62332,3.54814 -2.88719,7.27018 -3.79163,11.16615z"/><path d="M255.17955,281.97933c-2.36542,-1.32185 -4.34821,-1.41463 -5.94833,-0.27828c-1.57693,1.13633 -3.09591,3.66407 -4.5569,7.58323c-1.43779,3.91917 -2.49297,7.36293 -3.16548,10.33129c-0.64935,2.96835 -0.74211,5.02071 -0.27828,6.15704c0.48699,1.13633 1.27546,1.37982 2.36542,0.73048c2.22629,-1.43779 4.22066,-4.0815 5.98312,-7.9311c1.78565,-3.87277 3.65247,-9.40368 5.60047,-16.59269zM266.58915,260.34272l-13.53155,46.99524c1.36822,-1.08995 2.79444,-2.65532 4.27863,-4.69605c0.51018,-0.76526 1.10153,-0.92762 1.77406,-0.48699l1.70448,1.14792c0.76526,0.51018 0.88121,1.10153 0.34785,1.77408c-1.94802,2.27265 -3.74524,4.04672 -5.39176,5.32218c-1.62332,1.25229 -3.54815,2.13351 -5.77438,2.64371c-0.6725,0.13916 -1.10152,-0.11595 -1.28706,-0.76526l-1.35664,-3.93076c-0.95082,1.32185 -1.95958,2.42339 -3.02633,3.30461c-1.06675,0.88121 -1.93639,1.32185 -2.60889,1.32185h-0.13914c-0.90442,0 -2.11033,-0.7769 -3.61769,-2.33061c-1.48419,-1.57693 -2.24946,-3.26984 -2.29584,-5.07869c-0.04632,-3.71046 0.99721,-8.53404 3.13071,-14.47075c2.15669,-5.93673 4.16267,-9.8211 6.01788,-11.65316c1.87841,-1.85521 4.19745,-2.75964 6.95711,-2.71327c1.57693,0 3.07274,0.42901 4.48733,1.28706l4.76561,-17.74061c0.30145,-1.04357 1.02037,-1.56534 2.15669,-1.56534h1.84362c1.36822,0 1.89004,0.54498 1.56534,1.63493z"/><path d="M275.14641,265.73447h0.66093c0.78846,0 1.51895,0.35946 2.19149,1.07836c0.6725,0.71891 1.00876,1.54216 1.00876,2.46977c0,0.92762 -0.34786,1.72768 -1.04357,2.40021c-0.69571,0.64935 -1.56535,0.974 -2.6089,0.974h-0.55656c-0.81166,0 -1.54215,-0.33626 -2.19149,-1.00876c-0.62614,-0.69571 -0.9392,-1.50738 -0.9392,-2.435c0,-0.92762 0.32466,-1.73928 0.974,-2.435c0.6725,-0.69571 1.50738,-1.04357 2.50457,-1.04357zM276.43341,278.08331l-8.6268,33.1158c-0.27826,1.04357 -0.98559,1.56535 -2.12192,1.56535h-2.08713c-1.32185,0 -1.84361,-0.54498 -1.56534,-1.63493l8.69636,-33.1158c0.2319,-0.95081 0.89285,-1.4262 1.98279,-1.4262h2.36541c0.62614,0 1.04357,0.10435 1.2523,0.31306c0.20871,0.20871 0.24347,0.60295 0.10433,1.1827z"/><path d="M282.76445,307.79017c2.27265,1.36822 4.23223,1.46099 5.87875,0.27828c1.66971,-1.1827 3.28143,-3.90758 4.83519,-8.1746c1.57693,-4.2902 2.58572,-7.64121 3.02633,-10.053c0.46381,-2.435 0.66093,-4.0815 0.59136,-4.93956c-0.06957,-0.85804 -0.49856,-1.48419 -1.28706,-1.87842c-0.76526,-0.39422 -2.05233,0.42901 -3.86119,2.46977c-1.80885,2.04077 -3.37419,4.74244 -4.69604,8.10503c-1.29865,3.36259 -2.72487,7.87314 -4.27863,13.53156zM286.17341,313.04278c-1.57693,0 -3.09592,-0.4522 -4.55691,-1.35664c-0.39422,0.71891 -1.03195,1.07837 -1.91318,1.07837h-1.21747c-1.66971,0 -2.36542,-0.76526 -2.08713,-2.29584l13.04455,-50.1955c0.27826,-1.04357 0.99718,-1.56534 2.15669,-1.56534h1.63493c1.32185,0 1.84362,0.54498 1.56535,1.63493l-6.19182,24.28028l1.04357,-1.77405c0.99721,-1.66971 2.13352,-3.09593 3.40899,-4.27863c1.29865,-1.1827 2.35381,-1.77407 3.16548,-1.77407h0.13917c0.37104,0 0.96239,0.27828 1.77405,0.83486c0.81166,0.53339 1.60013,1.28706 2.36542,2.26105c0.78846,0.974 1.32185,1.99437 1.60012,3.06113c0.30145,1.06675 0.23188,3.01473 -0.20873,5.84398c-0.41743,2.82923 -1.53058,6.7136 -3.3394,11.65316c-1.80885,4.93956 -3.64089,8.27893 -5.49612,10.01821c-1.83206,1.71607 -4.12789,2.57412 -6.88752,2.57412z"/><path d="M303.2531,302.43318c0.20871,-6.35415 1.79726,-12.37205 4.76562,-18.05368c2.96835,-5.68162 6.7484,-8.47606 11.34007,-8.38331c2.38859,0.13916 4.24384,1.33346 5.56567,3.5829c0.99721,1.55376 1.403,4.18587 1.21747,7.89632c-0.18553,7.02668 -2.11033,13.53155 -5.7744,19.51468c-2.52774,4.38297 -5.92513,6.49329 -10.19217,6.33098c-1.50738,-0.04632 -2.91038,-0.70729 -4.20902,-1.98278c-1.94802,-1.85521 -2.85243,-4.8236 -2.71328,-8.9051zM315.39323,305.28562c3.22345,-5.07869 4.92794,-10.76033 5.11347,-17.04491c0.04632,-2.78285 -0.10435,-4.64965 -0.45221,-5.60047c-0.32466,-0.95081 -1.02038,-1.4378 -2.08713,-1.461c-1.06675,-0.02335 -2.04076,0.47527 -2.92197,1.49577c-0.88123,1.02039 -1.73928,2.435 -2.57412,4.24385c-2.11033,4.22066 -3.25825,9.1602 -3.44376,14.81863c-0.09274,4.267 0.64936,6.47009 2.22629,6.60924c1.36822,0.04632 2.74805,-0.974 4.13946,-3.06113z"/><path d="M323.08087,310.99045c5.75122,-6.9803 10.05303,-12.44162 12.90544,-16.38398c-1.1827,-4.98592 -2.56254,-10.12258 -4.13946,-15.40999c-0.60295,-1.73928 -0.2203,-2.6089 1.14792,-2.6089h1.98278c1.04357,0 1.73928,0.54495 2.08713,1.63491c1.27548,4.40618 2.34224,8.3949 3.20028,11.9662c2.08713,-3.03795 4.71924,-7.27018 7.89632,-12.69672c0.32466,-0.60295 0.96239,-0.90442 1.91318,-0.90442h2.435c1.27548,0 1.39142,0.84645 0.34785,2.53933c-2.55094,4.42935 -6.29617,10.01822 -11.23572,16.76662c1.08995,4.84677 2.06393,9.97186 2.92197,15.37518c0.13916,0.95081 -0.24348,1.4494 -1.14792,1.49579l-2.15669,0.20873c-0.64935,0.09274 -1.10153,-0.00002 -1.35664,-0.27828c-0.2319,-0.27826 -0.46379,-0.91599 -0.69571,-1.91318c-0.46381,-3.24665 -1.07836,-6.62085 -1.84362,-10.12259c-3.26984,4.17426 -5.43811,6.89915 -6.5049,8.1746c-1.04357,1.25229 -1.65811,1.99437 -1.84362,2.22629c-0.18553,0.2319 -0.30147,0.38263 -0.34785,0.45218c-0.04632,0.06957 -0.15073,0.20871 -0.31306,0.41741c-0.16234,0.18553 -0.31308,0.30147 -0.45222,0.34785c-0.11597,0.04632 -0.26671,0.11595 -0.45221,0.20873c-0.27826,0.18553 -0.66092,0.27828 -1.14792,0.27828h-2.05233c-0.6725,0 -1.11315,-0.19713 -1.32185,-0.59136c-0.20871,-0.41743 -0.15072,-0.81166 0.17394,-1.18269z"/></g><text transform="translate(112.56245,339.90895) scale(0.68866,0.68866)" font-size="40" xml:space="preserve" fill="#ffffff" fill-rule="nonzero" stroke="#ffffff" stroke-width="0" stroke-linecap="butt" stroke-linejoin="miter" stroke-miterlimit="10" stroke-dasharray="" stroke-dashoffset="0" font-family="Sans Serif" font-weight="normal" text-anchor="start" style="mix-blend-mode: normal"><tspan x="0" dy="0">FANMADE VERSION</tspan></text><path d="M145.24876,116.9065c0,0 13.6505,-13.1158 13.9347,-15.03324c0.74537,-5.029 -0.37155,-88.97575 79.66159,-92.07792c98.8608,-2.02348 86.41039,78.29053 91.98283,93.44331c7.64067,20.77675 13.63576,38.53798 13.63576,38.53798c0,0 -6.12868,-4.54813 -9.03573,-6.94114c-2.71136,-2.23192 -8.41942,-6.96744 -8.41942,-6.96744c0,0 6.84622,22.91903 2.90344,45.83536c-3.46019,20.99852 -16.16326,38.15098 -16.16326,38.15098l-2.55858,-5.19894c0,0 -2.26498,4.868 -4.7841,7.38137c-2.51912,2.51334 -7.61611,6.45113 -7.61611,6.45113l-0.20389,-8.2041c0,0 -15.63675,24.40263 -53.93198,24.07836c-36.11518,-0.56581 -57.74333,-23.6435 -57.74333,-23.6435l-0.25737,5.87995c0,0 -8.62617,-7.29283 -13.69069,-21.50031c-6.03635,-16.93366 -7.17476,-27.1164 -7.17476,-27.1164c0,0 -5.18061,4.20627 -12.66213,6.14476c-9.37479,2.42905 -15.38547,0.76468 -15.38547,0.76468c0,0 7.99089,-6.01801 12.36739,-10.56438c3.89821,-4.04955 5.86167,-7.4799 5.86167,-7.4799c0,0 -4.66788,2.4024 -9.37476,3.58344c-4.91108,1.23232 -8.92584,1.17591 -8.92584,1.17591c0,0 11.01849,-11.1566 15.57173,-24.08444c4.29898,-12.20597 4.65047,-24.26831 4.65047,-24.26831c0,0 -3.01578,1.46537 -7.3756,1.76105c-2.76354,0.18743 -5.26648,-0.10831 -5.26648,-0.10831z" data-paper-data="{&quot;index&quot;:null}" fill="#000000" stroke="none" stroke-width="1.5" stroke-linecap="butt" stroke-linejoin="miter"/><path d="M182.42625,141.98165c-1.27814,-16.1531 0.74197,-37.99382 0.74197,-37.99382c0,0 7.55378,-0.09135 30.81744,-6.96388c17.87258,-5.27996 45.50831,-21.01236 45.50831,-21.01236c0,0 -4.7841,6.65555 -7.54765,9.87836c-2.93796,3.42622 -8.84355,10.10609 -8.84355,10.10609c0,0 17.35964,-3.69342 32.50175,-10.4745c18.97728,-7.831 23.46037,-13.40644 28.68266,-10.17195c6.16358,3.81749 2.28139,51.34519 1.59126,63.65489c-0.93383,12.5562 -5.6107,21.03996 -6.97733,27.73054c-1.36662,6.69057 -0.90718,13.59142 -4.88635,35.52482c-2.48325,13.68795 -9.21764,19.76639 -22.19107,32.47084c-12.97343,12.70448 -20.05235,20.49304 -28.82257,20.64584c-8.44012,0.14704 -19.79073,-11.29595 -30.86425,-22.99508c-11.79146,-12.45771 -19.65614,-18.7752 -21.51797,-33.5316c-1.67676,-13.2897 -1.71988,-21.94547 -2.48648,-33.77213c-0.56029,-8.64378 -5.0081,-14.2745 -5.70613,-23.09601z" data-paper-data="{&quot;index&quot;:null}" fill="#ffffff" stroke="#000000" stroke-width="3" stroke-linecap="butt" stroke-linejoin="miter"/><path d="M288.89194,108.49303c0,0 3.376,0.70447 9.42576,2.45909c5.52576,1.60265 9.85445,3.86269 9.85445,3.86269l0.43211,2.59209c0,0 -16.05651,-6.93228 -33.47857,-5.47189c-13.93023,1.16774 -22.06653,6.2289 -22.06653,6.2289l0.10134,-9.25087c0,0 6.92676,-3.7745 17.41647,-4.10972c10.86203,-0.3471 17.91965,1.30948 17.91965,1.30948z" data-paper-data="{&quot;index&quot;:null}" fill="#000000" stroke="none" stroke-width="1.5" stroke-linecap="butt" stroke-linejoin="miter"/><g data-paper-data="{&quot;index&quot;:null}" fill="#ffffff" stroke="#000000" stroke-linecap="butt" stroke-linejoin="miter"><path d="M260.09223,203.94482c1.27194,0.47242 6.8761,3.1206 13.43268,5.78856c6.6088,2.68921 16.08578,5.11306 16.04229,5.48671c-0.05521,0.47419 -23.26867,0.50606 -30.50386,1.40984c-6.06319,0.75737 -14.91517,1.57352 -14.91517,1.57352c0,0 -15.84136,-2.59047 -29.59624,-5.45262c-11.02406,-2.29389 -21.40561,-9.94783 -21.42938,-10.1564c-0.03208,-0.28126 24.22554,-3.29983 24.22554,-3.29983c0,0 12.38907,2.50272 18.30373,4.413c6.33748,2.04686 6.32283,5.4534 6.87505,5.5058c0,0 2.64102,-3.90085 5.28236,-4.69311c2.64136,-0.79225 11.33285,-0.92838 12.283,-0.57549z" stroke-width="2.5"/><path d="M263.91952,216.90861c4.59345,-0.48157 25.01074,-2.21553 25.10944,-1.38428c0.09651,0.81274 -20.1388,28.76665 -47.15844,27.75608c-30.70493,-0.97176 -51.4321,-39.99487 -51.34773,-40.37202c0.04356,-0.19471 8.51093,5.7404 21.08656,9.93402c6.88304,2.2953 15.27958,3.94448 21.36783,5.02714c1.90184,0.3382 9.28839,1.457 16.10642,1.01445c7.22484,-0.46895 13.87028,-1.87416 14.83593,-1.9754z" stroke-width="3"/></g><path d="M243.62608,207.15699c-2.28956,0 -7.8362,-7.22119 -8.38679,-11.87955c-0.49264,-4.16796 2.91273,-8.47824 8.38679,-8.47824c5.47409,0 9.30684,1.08696 8.92565,9.27677c-0.32353,6.95047 -3.45158,11.08103 -8.92565,11.08103z" data-paper-data="{&quot;index&quot;:null}" fill="#ffffff" stroke="#000000" stroke-width="2.5" stroke-linecap="butt" stroke-linejoin="miter"/><path d="M251.60404,140.50523c0,0 0.22726,8.79225 0.01277,15.78406c-0.42466,13.84503 -2.39525,61.48455 -2.39525,61.48455l-6.60381,0.01914c0,0 -1.77836,-9.24181 -2.48771,-21.04019c-0.96018,-15.97016 -0.99556,-36.0863 -1.69088,-43.48171c-0.65908,-7.01016 -1.98431,-12.65657 -1.98431,-12.65657" data-paper-data="{&quot;index&quot;:null}" fill="#ffffff" stroke="#000000" stroke-width="2.5" stroke-linecap="round" stroke-linejoin="miter"/><path d="M186.19062,164.40264c0,0 -10.92365,-7.78959 -13.65244,-19.87794c-2.87118,-12.71928 -3.23622,-21.55626 1.0634,-22.13017c4.29962,-0.57397 5.98708,5.26442 8.26702,18.50623c2.27992,13.24182 4.32205,23.50189 4.32205,23.50189z" data-paper-data="{&quot;index&quot;:null}" fill="#ffffff" stroke="#000000" stroke-width="1" stroke-linecap="butt" stroke-linejoin="miter"/><path d="M185.74194,155.65955c0,0 -7.89324,-6.47473 -9.56388,-18.71645c-0.93197,-6.82885 4.77679,-5.05012 4.77679,-5.05012" data-paper-data="{&quot;index&quot;:null}" fill="none" stroke="#000000" stroke-width="0.5" stroke-linecap="round" stroke-linejoin="miter"/><path d="M192.41602,140.91802c0.1571,-10.83458 10.71597,-19.7917 22.61619,-19.6192c11.9002,0.17252 19.99358,9.40938 19.83652,20.24398c-0.1571,10.83458 -9.1328,19.47786 -21.03302,19.30534c-11.9002,-0.17253 -21.5768,-9.09552 -21.41969,-19.93011z" data-paper-data="{&quot;index&quot;:null}" fill="#ffffff" stroke="#000000" stroke-width="3" stroke-linecap="butt" stroke-linejoin="miter"/><path d="M202.24452,141.17924c0.08858,-6.10939 5.113,-10.99016 11.22233,-10.90158c6.10939,0.08858 10.99016,5.113 10.90158,11.22233c-0.08858,6.10939 -5.11299,10.99016 -11.22233,10.90157c-6.10939,-0.08858 -10.99014,-5.113 -10.90157,-11.22232z" data-paper-data="{&quot;index&quot;:null}" fill="#000000" stroke="none" stroke-width="1.5" stroke-linecap="butt" stroke-linejoin="miter"/><path d="M252.34041,140.91965c0.45079,-10.82635 9.86173,-19.61979 21.63971,-19.61979c11.77796,0 20.54128,8.78407 20.54128,19.61979c0,10.83572 -8.6064,20.09059 -21.48282,20.24748c-12.24782,0.14926 -21.16893,-8.941 -20.69817,-20.24748z" data-paper-data="{&quot;index&quot;:null}" fill="#ffffff" stroke="#000000" stroke-width="3" stroke-linecap="butt" stroke-linejoin="miter"/><path d="M262.53459,141.10911c0,-6.24232 5.06038,-11.30269 11.30271,-11.30269c6.24232,0 11.3027,5.06038 11.3027,11.3027c0,6.24232 -5.06036,11.3027 -11.3027,11.3027c-6.24232,0 -11.30271,-5.06038 -11.30271,-11.30269z" data-paper-data="{&quot;index&quot;:null}" fill="#000000" stroke="none" stroke-width="1.5" stroke-linecap="butt" stroke-linejoin="miter"/><path d="M192.26447,139.73937c0,0 0.14078,-19.96672 23.47939,-19.54543c20.97644,0.36735 21.16367,20.83519 21.16367,20.83519c0,0 -12.43027,-4.94806 -22.75376,-5.24077c-10.66055,-0.30227 -21.8893,3.95101 -21.8893,3.95101z" data-paper-data="{&quot;index&quot;:null}" fill="#ffffff" stroke="#000000" stroke-width="2.5" stroke-linecap="butt" stroke-linejoin="miter"/><path d="M251.50399,140.02927c0,0 -0.54673,-20.94808 24.80168,-20.16183c21.51522,0.73857 21.14425,21.37796 21.14425,21.37796c0,0 -12.1705,-5.86942 -23.06723,-6.27609c-11.53267,-0.43041 -22.8787,5.05996 -22.8787,5.05996z" data-paper-data="{&quot;index&quot;:null}" fill="#ffffff" stroke="#000000" stroke-width="2.5" stroke-linecap="butt" stroke-linejoin="miter"/><path d="M200.08239,117.56547c0,0 7.46308,-4.02874 17.7903,-5.0537c11.44386,-1.13581 17.20512,-0.14679 17.20512,-0.14679l0.65355,9.1637c0,0 -8.49499,-1.5075 -17.75822,-1.15421c-12.38843,0.47249 -14.71711,3.17367 -24.13635,4.18861c-8.07093,0.86966 -14.92167,0.3518 -14.92167,0.3518l-0.05734,-2.72764c0,0 7.9626,0.16385 11.59165,-0.15142c2.99528,-0.26023 8.80541,-2.07767 8.80541,-2.07767z" data-paper-data="{&quot;index&quot;:null}" fill="#000000" stroke="none" stroke-width="1.5" stroke-linecap="butt" stroke-linejoin="miter"/><path d="M306.30652,140.9007c2.27992,-13.2418 3.96738,-19.08017 8.26702,-18.50621c4.29962,0.57394 3.93458,9.4109 1.06339,22.13018c-2.72877,12.08833 -13.65244,19.87793 -13.65244,19.87793c0,0 2.0421,-10.26008 4.32204,-23.5019z" data-paper-data="{&quot;index&quot;:null}" fill="#ffffff" stroke="#000000" stroke-width="1" stroke-linecap="butt" stroke-linejoin="miter"/><path d="M307.22028,131.89296c0,0 5.70875,-1.77875 4.77679,5.05013c-1.67064,12.24174 -9.5639,18.71645 -9.5639,18.71645" data-paper-data="{&quot;index&quot;:null}" fill="none" stroke="#000000" stroke-width="0.5" stroke-linecap="round" stroke-linejoin="miter"/><g fill="#ffffff" stroke="none" stroke-width="0" stroke-linecap="butt" stroke-linejoin="miter"><path d="M26.41613,38.15426c3.25174,0 16.07295,-0.36443 16.07295,-0.36443c0,0 15.64991,-16.70028 20.02051,-20.55107c1.73,-1.52423 3.62221,-1.24421 3.62221,2.03211c0,15.73858 0,62.14829 0,70.71927c0,2.66264 -1.90102,3.07581 -3.60267,1.3348c-4.13571,-4.23149 -20.7341,-21.22728 -20.7341,-21.22728c0,0 -11.83998,0 -15.3448,0c-1.76304,0 -4.33906,-2.17308 -4.33906,-4.40322c0,-6.26317 0,-17.99508 0,-22.06343c0,-2.50952 2.47023,-5.47676 4.30503,-5.47676z" data-paper-data="{&quot;index&quot;:null}"/><path d="M106.57506,73.55517c-6.47306,-6.47306 -21.83748,-21.83755 -25.90007,-25.90007c-2.03645,-2.03645 -1.35335,-5.69411 -0.30425,-6.74321c1.40997,-1.40997 4.6011,-2.37146 6.77234,-0.20016c4.1804,4.1804 20.03884,20.03884 26.37527,26.37527c2.04782,2.04782 0.52672,5.2214 -0.61226,6.36023c-1.0945,1.0945 -4.41821,2.02082 -6.33124,0.10786z" data-paper-data="{&quot;index&quot;:null}"/><path d="M80.98208,73.44717c-1.13898,-1.13898 -2.65994,-4.31249 -0.61226,-6.3603c6.3365,-6.3365 22.19495,-22.19495 26.37527,-26.37527c2.17124,-2.17131 5.36236,-1.20989 6.77241,0.20016c1.04917,1.04917 1.73227,4.70683 -0.30418,6.74328c-4.06259,4.06259 -19.42708,19.42715 -25.90007,25.90007c-1.91296,1.91296 -5.23667,0.9865 -6.33124,-0.10786z" data-paper-data="{&quot;index&quot;:null}"/></g><g fill="#ffffff" stroke="none" stroke-width="0" stroke-linecap="butt" stroke-linejoin="miter"><path d="M390.00302,87.25079c-2.37011,-6.36195 -4.70022,-16.44495 -6.08222,-20.15447c-1.05053,-2.81999 1.39799,-7.10157 3.27908,-7.78912c1.58578,-0.57969 5.78119,-1.82776 5.78119,-1.82776c0,0 -4.66731,-16.91798 1.91752,-26.2804c2.65176,-3.77022 6.59238,-7.80311 10.63975,-9.74477c7.86308,-3.77234 16.9195,-2.78078 16.9195,-2.78078l0.51475,7.27643c0,0 -8.59182,-0.94971 -14.72724,2.85772c-3.54408,2.1993 -7.10813,6.33223 -7.89219,11.15814c-1.195,7.35536 0.46473,16.0104 0.46473,16.0104l8.35183,31.04536c0,0 -5.67433,1.94809 -10.92219,3.33507c-4.81743,1.27314 -6.98648,0.27078 -8.24444,-3.10588z" data-paper-data="{&quot;index&quot;:null}"/><path d="M452.35508,87.25079c-1.25802,3.37665 -3.42694,4.37909 -8.24436,3.10588c-5.24793,-1.38698 -10.92226,-3.33506 -10.92226,-3.33506l9.12687,-31.04522c0,0 0.88476,-8.6551 -0.31025,-16.01046c-0.78413,-4.82585 -4.34812,-8.95884 -7.89213,-11.15814c-6.13548,-3.80743 -14.46369,-2.85773 -14.46369,-2.85773l0.25114,-7.27642c0,0 9.0565,-0.99156 16.91951,2.78078c4.04736,1.94179 7.98805,5.97455 10.63975,9.74477c6.58489,9.36229 1.91757,26.28033 1.91757,26.28033c0,0 4.19541,1.248 5.78112,1.82769c1.8811,0.68755 4.32968,4.96913 3.27902,7.78912c-1.382,3.70959 -3.71211,13.79246 -6.08222,20.15447z" data-paper-data="{&quot;index&quot;:null}"/></g><g fill="#ffffff" stroke="none" stroke-width="0" stroke-linecap="butt" stroke-linejoin="miter"><path d="M27.11213,328.27001c7.39383,-7.39377 42.69905,-42.69905 47.33952,-47.33952c2.32609,-2.32609 6.50403,-1.54581 7.70253,-0.3475c1.61058,1.61058 2.70873,5.25551 0.22861,7.73564c-4.775,4.775 -40.64455,40.64455 -47.88226,47.88226c-2.33907,2.33913 -5.964,0.60162 -7.26494,-0.69931c-1.25016,-1.25016 -2.30836,-5.04666 -0.12333,-7.23176z" data-paper-data="{&quot;index&quot;:null}"/><path d="M74.92241,336.54519c-7.39383,-7.39377 -42.69898,-42.69898 -47.33952,-47.33952c-2.32609,-2.32609 -1.54581,-6.50409 -0.3475,-7.70253c1.61058,-1.61058 5.25551,-2.70879 7.73564,-0.22867c4.775,4.775 40.64455,40.64455 47.88239,47.88239c2.33907,2.33913 0.60162,5.964 -0.69931,7.26487c-1.25016,1.25016 -5.04666,2.30836 -7.23176,0.12333z" data-paper-data="{&quot;index&quot;:null}"/></g><g fill="#ffffff" stroke="none" stroke-width="0" stroke-linecap="butt" stroke-linejoin="miter"><path d="M400.03666,328.98185c7.39383,-7.39377 42.69905,-42.69905 47.33952,-47.33952c2.32609,-2.32609 6.50403,-1.54581 7.70253,-0.3475c1.61058,1.61058 2.70873,5.25551 0.22861,7.73564c-4.775,4.775 -40.64455,40.64455 -47.88226,47.88226c-2.33907,2.33913 -5.964,0.60162 -7.26494,-0.69931c-1.25016,-1.25016 -2.30836,-5.04666 -0.12333,-7.23176z" data-paper-data="{&quot;index&quot;:null}"/><path d="M447.84694,337.25703c-7.39383,-7.39377 -42.69898,-42.69898 -47.33952,-47.33952c-2.32609,-2.32609 -1.54581,-6.50409 -0.3475,-7.70253c1.61058,-1.61058 5.25551,-2.70879 7.73564,-0.22867c4.775,4.775 40.64455,40.64455 47.88239,47.88239c2.33907,2.33913 0.60162,5.964 -0.69931,7.26487c-1.25016,1.25016 -5.04666,2.30836 -7.23176,0.12333z" data-paper-data="{&quot;index&quot;:null}"/></g></g></g></svg>