<svg version="1.1" xmlns="http://www.w3.org/2000/svg" xmlns:xlink="http://www.w3.org/1999/xlink" width="175" height="296" viewBox="0,0,175,296"><g transform="translate(-152.5,-32)"><g data-paper-data="{&quot;isPaintingLayer&quot;:true}" fill-rule="nonzero" stroke-linecap="butt" stroke-linejoin="miter" stroke-miterlimit="10" stroke-dasharray="" stroke-dashoffset="0" style="mix-blend-mode: normal"><path d="M152.5,328v-296h175v296z" fill="none" stroke="#000000" stroke-width="0"/><path d="M307.15506,145.2987c3.16787,25.2547 -3.79332,35.45607 -3.79332,35.45607c0,0 -12.10918,-21.47411 -19.77288,-32.6764c-7.92295,-11.58124 -27.01293,-35.71203 -27.01293,-35.71203l31.81283,-16.85064c0,0 15.26168,21.8436 18.7663,49.783z" data-paper-data="{&quot;index&quot;:null}" fill="#b3946b" stroke="#000000" stroke-width="2"/><g stroke="#000000"><path d="M206.75007,307.50005l15.14285,-131.8421l37.78325,-0.15789l13.57389,132z" fill="#e6be8a" stroke-width="2"/><path d="M219.7003,204.1127l3.12142,-26.32765l35.83075,-0.14203l2.76735,26.1059c0,0 -7.51543,4.19603 -21.55904,4.50964c-12.48458,0.27879 -20.16049,-4.14586 -20.16049,-4.14586z" fill="#cca97a" stroke-width="0"/></g><path d="M192.83529,95.51574l31.81283,16.85064c0,0 -19.08998,24.13078 -27.01292,35.71203c-7.6637,11.20229 -19.77288,32.6764 -19.77288,32.6764c0,0 -6.96119,-10.20136 -3.79332,-35.45607c3.50463,-27.9394 18.7663,-49.783 18.7663,-49.783z" data-paper-data="{&quot;index&quot;:null}" fill="#b3946b" stroke="#000000" stroke-width="2"/><path d="M178.40899,314.61251v-267.22501h123.18203v267.22501z" fill-opacity="0.01" fill="#000000" stroke="none" stroke-width="0"/><path d="M293.33655,190.81035c-9.02164,23.80012 -19.94816,29.5566 -19.94816,29.5566c0,0 -0.6493,-24.64443 -2.17813,-38.13095c-1.58056,-13.94275 -7.1552,-44.20238 -7.1552,-44.20238h36c0,0 3.26217,26.44655 -6.71851,52.77673z" data-paper-data="{&quot;index&quot;:null}" fill="#b3946b" stroke="#000000" stroke-width="2"/><path d="M179.89814,138.03358h36c0,0 -5.57464,30.25964 -7.1552,44.20238c-1.52884,13.48652 -2.17814,38.13095 -2.17814,38.13095c0,0 -10.92652,-5.75649 -19.94816,-29.5566c-9.98068,-26.33018 -6.71851,-52.77673 -6.71851,-52.77673z" fill="#b3946b" stroke="#000000" stroke-width="2"/><path d="M175.83998,138.84623c0,-33.30185 28.7599,-60.29833 64.23702,-60.29833c35.47712,0 64.23702,26.99649 64.23702,60.29833c0,33.30185 -28.7599,60.29833 -64.23702,60.29833c-35.47712,0 -64.23702,-26.99649 -64.23702,-60.29833z" fill="#e6be8a" stroke="#000000" stroke-width="2"/><path d="M176.56304,138.90004c0,-0.72799 5.20666,55.91939 63.36046,56.93429c55.56352,0.9697 63.51358,-57.95314 63.51358,-56.93429c0,32.80479 -28.40173,59.39833 -63.43702,59.39833c-35.03529,0 -63.43702,-26.59354 -63.43702,-59.39833z" fill="#cca97a" stroke="#000000" stroke-width="0"/><path d="M189.39019,139.27568c0,-12.968 10.51265,-23.48065 23.48065,-23.48065c12.968,0 23.48065,10.51265 23.48065,23.48065c0,12.968 -10.51265,23.48065 -23.48065,23.48065c-12.968,0 -23.48065,-10.51265 -23.48065,-23.48065z" fill="#ffffff" stroke="#000000" stroke-width="2"/><path d="M196.45558,139.00006c0,-9.12808 7.39976,-16.52784 16.52783,-16.52784c9.12808,0 16.52784,7.39977 16.52784,16.52784c0,9.12808 -7.39977,16.52784 -16.52784,16.52784c-9.12808,0 -16.52783,-7.39977 -16.52783,-16.52784z" fill="#000000" stroke="none" stroke-width="0"/><path d="M267.12928,162.75633c-12.968,0 -23.48065,-10.51265 -23.48065,-23.48065c0,-12.968 10.51265,-23.48065 23.48065,-23.48065c12.968,0 23.48065,10.51265 23.48065,23.48065c0,12.968 -10.51265,23.48065 -23.48065,23.48065z" data-paper-data="{&quot;index&quot;:null}" fill="#ffffff" stroke="#000000" stroke-width="2"/><path d="M267.01671,155.52791c-9.12807,0 -16.52783,-7.39977 -16.52783,-16.52784c0,-9.12808 7.39977,-16.52784 16.52783,-16.52784c9.12807,0 16.52783,7.39977 16.52783,16.52784c0,9.12808 -7.39977,16.52784 -16.52783,16.52784z" data-paper-data="{&quot;index&quot;:null}" fill="#000000" stroke="none" stroke-width="0"/><path d="M202.02786,110.46722c0,0 6.70895,-5.16922 11.79721,-6.36355c5.08827,-1.19433 12.33413,0.69937 12.33413,0.69937c0,0 -8.03812,-0.06028 -11.96762,0.86207c-4.10648,0.96389 -12.16372,4.80211 -12.16372,4.80211z" fill="#000000" stroke="none" stroke-width="0"/><path d="M265.96236,105.66511c-3.9295,-0.92235 -11.96762,-0.86207 -11.96762,-0.86207c0,0 7.24586,-1.8937 12.33413,-0.69937c5.08826,1.19433 11.79721,6.36355 11.79721,6.36355c0,0 -8.05724,-3.83822 -12.16372,-4.80211z" data-paper-data="{&quot;index&quot;:null}" fill="#000000" stroke="none" stroke-width="0"/><path d="M189.56261,139.31571c0,-12.96801 10.51265,-23.48065 23.48066,-23.48065c12.96801,0 23.48065,10.51264 23.48065,23.48065c0,0 -5.87479,9.18483 -24.09973,9.79454c-16.46595,0.55086 -22.86157,-9.17793 -22.86157,-9.79454z" fill="#e6be8a" stroke="#000000" stroke-width="2"/><path d="M243.72005,139.24427c0,-12.96801 10.51264,-23.48065 23.48065,-23.48065c12.96801,0 23.48066,10.51264 23.48066,23.48065c0,0.60606 -6.03889,9.90023 -23.59162,9.80233c-17.30256,-0.0965 -23.36969,-9.80233 -23.36969,-9.80233z" data-paper-data="{&quot;index&quot;:null}" fill="#e6be8a" stroke="#000000" stroke-width="2"/><path d="M183.59625,100.76238c0,-29.37751 4.22233,-52.79352 55.83225,-53.19268c58.79142,-0.45471 55.83225,23.81518 55.83225,53.19268c0,0 -111.6645,1.21448 -111.6645,0z" fill="#804400" stroke="#000000" stroke-width="2"/><path d="M158.84721,105.60595l4.33333,-7.66667l155.5,0.33333l2.66667,7.33333z" fill="#804400" stroke="#000000" stroke-width="2"/><path d="M244.60834,182.00006c0,3.47061 -2.06323,6.28409 -4.60833,6.28409c-2.54511,0 -4.60833,-2.81348 -4.60833,-6.28409c0,-3.47061 2.06323,-6.28409 4.60833,-6.28409c2.54511,0 4.60833,2.81349 4.60833,6.28409z" fill="#000000" stroke="none" stroke-width="0"/></g></g></svg>