<svg version="1.1" xmlns="http://www.w3.org/2000/svg" xmlns:xlink="http://www.w3.org/1999/xlink" width="84.31513" height="30.05294" viewBox="0,0,84.31513,30.05294"><g transform="translate(-197.84243,-164.97353)"><g data-paper-data="{&quot;isPaintingLayer&quot;:true}" fill-rule="evenodd" stroke="none" stroke-linecap="round" stroke-linejoin="round" stroke-miterlimit="10" stroke-dasharray="" stroke-dashoffset="0" style="mix-blend-mode: normal"><path d="M282.15756,179.99999c0,8.32468 -6.70181,15.02648 -15.02647,15.02648h-54.2622c-8.32466,0 -15.02646,-6.70181 -15.02646,-15.02648c0,-8.32466 6.70179,-15.02646 15.02646,-15.02646h54.2622c8.32466,0 15.02647,6.70179 15.02647,15.02646z" fill="#808080" stroke-width="0.314"/><path d="M238.39157,179.99997c0,6.73986 -5.42596,12.16582 -12.16582,12.16582h-12.93946c-6.73986,0 -12.16582,-5.42596 -12.16582,-12.16582c0,-6.73986 5.42596,-12.16582 12.16582,-12.16582h12.93946c6.73986,0 12.16582,5.42596 12.16582,12.16582z" fill="#c92424" stroke-width="0.27619"/></g></g></svg>