<svg version="1.1" xmlns="http://www.w3.org/2000/svg" xmlns:xlink="http://www.w3.org/1999/xlink" width="273.28567" height="407.33209" viewBox="0,0,273.28567,407.33209"><g transform="translate(-106.67315,96.32757)"><g data-paper-data="{&quot;isPaintingLayer&quot;:true}" fill-rule="nonzero" stroke-linejoin="miter" stroke-miterlimit="10" stroke-dasharray="" stroke-dashoffset="0" style="mix-blend-mode: normal"><path d="M124.69443,33.5045c0,-64.42746 52.38269,-116.65623 117,-116.65623c64.61731,0 117,52.22877 117,116.65623c0,64.42746 -52.38269,116.65624 -117,116.65624c-64.61731,0 -117,-52.22878 -117,-116.65624z" fill="#004d06" stroke="#000000" stroke-width="2" stroke-linecap="butt"/><path d="M220.93004,42.97791c0,-38.7275 35.37595,-70.12235 79.01439,-70.12235c43.63844,0 79.01439,31.39485 79.01439,70.12235c0,38.72751 -35.37595,70.12236 -79.01439,70.12236c-43.63844,0 -79.01439,-31.39485 -79.01439,-70.12235z" fill="#00800b" stroke="#000000" stroke-width="2" stroke-linecap="butt"/><path d="M220.93004,42.97791c0,-38.7275 35.37595,-70.12235 79.01439,-70.12235c43.63844,0 79.01439,31.39485 79.01439,70.12235c0,38.72751 -35.37595,70.12236 -79.01439,70.12236c-43.63844,0 -79.01439,-31.39485 -79.01439,-70.12235z" fill="#00800b" stroke="#000000" stroke-width="2" stroke-linecap="butt"/><path d="M108.43004,44.52084c0,-38.7275 35.37595,-70.12235 79.01439,-70.12235c43.63844,0 79.0144,31.39484 79.0144,70.12235c0,38.72751 -35.37595,70.12236 -79.0144,70.12236c-43.63844,0 -79.01439,-31.39485 -79.01439,-70.12235z" fill="#00800b" stroke="#000000" stroke-width="2" stroke-linecap="butt"/><path d="M179.95906,310.0045c0,0 9.1249,-63.13361 13.73833,-109.20958c4.68242,-46.76501 1.94769,-170.34406 1.94769,-170.34406l90.51268,0.66642c0,0 -2.24627,117.81098 2.27994,168.30134c3.587,40.01343 14.00333,110.5859 14.00333,110.5859z" fill="#804400" stroke="#000000" stroke-width="2" stroke-linecap="butt"/><path d="M197.49159,140.0104c0.60672,-47.03602 -0.6017,-98.89288 -0.6017,-98.89288l88.0394,0.61557c0,0 -1.04541,52.06758 -0.23288,99.60614c0,0 -16.68826,13.14483 -44.00716,13.02148c-26.07236,-0.11772 -43.19765,-14.35031 -43.19765,-14.35031z" fill="#663600" stroke="#000000" stroke-width="0" stroke-linecap="butt"/><path d="M241.74975,196.97661c-6.44738,0 -12.24271,-28.81567 -12.24271,-28.81567h25.10959c0,0 -6.4195,28.81567 -12.86688,28.81567z" fill="#000000" stroke="#000000" stroke-width="2" stroke-linecap="round"/><path d="M207.46457,146.75451c0,-8.75833 5.86881,-15.85836 13.10835,-15.85836c7.23955,0 13.10836,7.10004 13.10836,15.85836c0,8.75833 -5.86881,15.85836 -13.10836,15.85836c-7.23955,0 -13.10835,-7.10004 -13.10835,-15.85836z" fill="#000000" stroke="none" stroke-width="0" stroke-linecap="butt"/><path d="M263.42716,162.61287c-7.23954,0 -13.10836,-7.10004 -13.10836,-15.85836c0,-8.75833 5.86882,-15.85836 13.10836,-15.85836c7.23955,0 13.10835,7.10004 13.10835,15.85836c0,8.75833 -5.86881,15.85836 -13.10835,15.85836z" data-paper-data="{&quot;index&quot;:null}" fill="#000000" stroke="none" stroke-width="0" stroke-linecap="butt"/><path d="M107.67315,5.58586c0,-55.73294 60.00336,-100.91343 134.02128,-100.91343c74.01791,0 134.02128,45.18048 134.02128,100.91343c0,55.73295 -60.00337,100.91343 -134.02128,100.91343c-74.01791,0 -134.02127,-45.18048 -134.02127,-100.91343z" fill="#00cc11" stroke="#000000" stroke-width="2" stroke-linecap="butt"/><path d="M160.07724,-28.41414c0,-30.07464 36.54126,-54.45495 81.61719,-54.45495c45.07593,0 81.6172,24.38031 81.6172,54.45495c0,30.07464 -36.54127,54.45495 -81.6172,54.45495c-45.07593,0 -81.61719,-24.38031 -81.61719,-54.45495z" fill="#00ff15" stroke="#000000" stroke-width="0" stroke-linecap="butt"/></g></g></svg>