<svg version="1.1" xmlns="http://www.w3.org/2000/svg" xmlns:xlink="http://www.w3.org/1999/xlink" width="163.15323" height="293.00512" viewBox="0,0,163.15323,293.00512"><defs><linearGradient x1="240.00008" y1="175.50001" x2="240.00008" y2="307.50001" gradientUnits="userSpaceOnUse" id="color-1"><stop offset="0" stop-color="#000000"/><stop offset="1" stop-color="#1f6625"/></linearGradient><linearGradient x1="227.2671" y1="75.26721" x2="243.33724" y2="204.26791" gradientUnits="userSpaceOnUse" id="color-2"><stop offset="0" stop-color="#071a09"/><stop offset="1" stop-color="#26802e"/></linearGradient><linearGradient x1="264.99928" y1="137.11004" x2="272.15679" y2="194.56594" gradientUnits="userSpaceOnUse" id="color-3"><stop offset="0" stop-color="#1a0000"/><stop offset="1" stop-color="#800000"/></linearGradient><linearGradient x1="207.26706" y1="140.60697" x2="214.85724" y2="201.53603" gradientUnits="userSpaceOnUse" id="color-4"><stop offset="0" stop-color="#1a0000"/><stop offset="1" stop-color="#800000"/></linearGradient><linearGradient x1="268.12508" y1="66.76916" x2="279.22092" y2="155.83933" gradientUnits="userSpaceOnUse" id="color-5"><stop offset="0" stop-color="#000000"/><stop offset="1" stop-color="#331b00"/></linearGradient><linearGradient x1="186.03872" y1="70.16832" x2="191.66963" y2="151.0321" gradientUnits="userSpaceOnUse" id="color-6"><stop offset="0" stop-color="#000000"/><stop offset="1" stop-color="#1a0e00"/></linearGradient><linearGradient x1="190.11368" y1="73.49675" x2="196.24055" y2="161.4829" gradientUnits="userSpaceOnUse" id="color-7"><stop offset="0" stop-color="#000000"/><stop offset="1" stop-color="#331b00"/></linearGradient><linearGradient x1="186.90327" y1="70.57043" x2="194.61073" y2="181.25485" gradientUnits="userSpaceOnUse" id="color-8"><stop offset="0" stop-color="#000000"/><stop offset="1" stop-color="#4d2900"/></linearGradient><linearGradient x1="235.25749" y1="77.03565" x2="237.88474" y2="114.76479" gradientUnits="userSpaceOnUse" id="color-9"><stop offset="0" stop-color="#000000"/><stop offset="1" stop-color="#1a0e00"/></linearGradient><linearGradient x1="264.82016" y1="68.52603" x2="269.29064" y2="132.72527" gradientUnits="userSpaceOnUse" id="color-10"><stop offset="0" stop-color="#000000"/><stop offset="1" stop-color="#4d2900"/></linearGradient><linearGradient x1="208.20803" y1="73.96653" x2="213.21424" y2="145.85915" gradientUnits="userSpaceOnUse" id="color-11"><stop offset="0" stop-color="#000000"/><stop offset="1" stop-color="#4d2900"/></linearGradient><linearGradient x1="256.58776" y1="101.28581" x2="263.34741" y2="155.54788" gradientUnits="userSpaceOnUse" id="color-12"><stop offset="0" stop-color="#000000" stop-opacity="0"/><stop offset="1" stop-color="#000000" stop-opacity="0.49989"/></linearGradient><radialGradient cx="264.33298" cy="44.09049" r="23.48065" gradientUnits="userSpaceOnUse" id="color-13"><stop offset="0" stop-color="#808080"/><stop offset="1" stop-color="#1a0000"/></radialGradient><linearGradient x1="206.57115" y1="116.05599" x2="212.28327" y2="161.90915" gradientUnits="userSpaceOnUse" id="color-14"><stop offset="0" stop-color="#010401" stop-opacity="0"/><stop offset="1" stop-color="#010401" stop-opacity="0.49989"/></linearGradient><radialGradient cx="173.96071" cy="74.99926" r="23.48065" gradientUnits="userSpaceOnUse" id="color-15"><stop offset="0" stop-color="#808080"/><stop offset="1" stop-color="#1a0000"/></radialGradient></defs><g transform="translate(-150.47761,-20.60738)"><g data-paper-data="{&quot;isPaintingLayer&quot;:true}" fill-rule="nonzero" stroke-linejoin="miter" stroke-miterlimit="10" stroke-dasharray="" stroke-dashoffset="0" style="mix-blend-mode: normal"><path d="M179.28377,313.61251v-267.22501h123.18203v267.22501z" fill-opacity="0.01" fill="#000000" stroke="none" stroke-width="0" stroke-linecap="butt"/><g fill="#000000" stroke="#000000" stroke-width="0" stroke-linecap="butt"><path d="M270.78526,220.23895c-12.97342,-0.30513 -18.28664,-121.45311 -18.28664,-121.45311l12.52052,-2.62799c0,0 18.35377,124.37717 5.76613,124.0811z" data-paper-data="{&quot;index&quot;:null}"/><path d="M197.53755,81.67742l12.7639,0.86732c0,0 12.77919,138.67168 -0.02673,140.77195c-12.42512,2.03782 -12.73717,-141.63926 -12.73717,-141.63926z"/><path d="M200.9995,214.71114c-12.95281,-0.79201 -11.85779,-105.1294 -11.85779,-105.1294l12.61035,-2.15605c0,0 11.81509,108.05393 -0.75256,107.28547z" data-paper-data="{&quot;index&quot;:null}"/><path d="M184.60342,205.07656c-11.96852,-1.18812 -5.98872,-97.58938 -5.98872,-97.58938l12.68295,-1.67699c0,0 5.8353,100.51018 -6.69424,99.26637z" data-paper-data="{&quot;index&quot;:null}"/><path d="M279.30877,208.28464c-12.97342,-0.30513 -16.40915,-108.8865 -16.40915,-108.8865l12.52051,-2.62799c0,0 16.47628,111.81057 3.88864,111.51451z" data-paper-data="{&quot;index&quot;:null}"/><path d="M292.0338,194.42598c-12.96551,0.54615 -24.44452,-77.64108 -24.44452,-77.64108l12.32126,-3.44327c0,0 24.70322,80.55444 12.12325,81.08435z" data-paper-data="{&quot;index&quot;:null}"/><path d="M294.40691,171.74558c-7.08303,-1.49653 1.85839,-14.76387 -2.78507,-26.90999c-3.98324,-10.41913 2.09905,-15.50572 6.08283,-5.0868c3.72256,9.73575 4.69868,33.68631 -3.29776,31.99679z" data-paper-data="{&quot;index&quot;:null}"/></g><path d="M206.75008,307.5l15.14285,-131.8421l37.78325,-0.15789l13.57389,132z" fill="url(#color-1)" stroke="#000000" stroke-width="0" stroke-linecap="butt"/><path d="M170.97679,143.04391c-4.11673,-33.04642 21.08531,-63.39109 56.29032,-67.77671c35.20501,-4.38563 67.08158,18.84854 71.1983,51.89494c4.11673,33.04642 -21.7453,72.66309 -51.15898,76.61014c-25.05335,3.36193 -72.21291,-27.68196 -76.32963,-60.72837z" fill="url(#color-2)" stroke="#000000" stroke-width="0" stroke-linecap="butt"/><path d="M264.99426,195.45821c0,0 -3.46091,-18.68169 -7.38534,-27.57743c-3.74371,-8.48611 -15.64463,-24.62605 -15.64463,-24.62605l43.26075,-8.66429c0,0 3.71195,9.2997 4.73802,13.73444c1.14421,4.94535 1.81155,14.57304 1.81155,14.57304l-5.66501,-12.93714c0,0 0.49672,2.28774 0.71265,4.61417c0.17158,1.84851 0.16589,3.72146 -0.40706,4.49063c-1.05056,1.41028 -1.39356,-1.06453 -2.2039,-3.21456c-0.59993,-1.59173 -1.83239,-2.89349 -1.83239,-2.89349c0,0 1.76723,4.02652 2.34394,7.647c0.46088,2.89335 -0.10749,5.45684 -0.96687,6.01789c-1.51267,0.98757 -1.83631,-1.93264 -2.59398,-4.0645c-0.50989,-1.43462 -1.52659,-2.4736 -2.06504,-1.8701c-1.33861,1.50029 -4.25646,-1.85483 -4.25646,-1.85483c0,0 2.73638,4.49847 4.26872,8.76738c2.10884,5.87493 3.18837,12.06011 3.06231,12.24318c-0.34526,0.50141 -2.0397,-4.49048 -4.0784,-7.3361c-0.96626,-1.3487 -2.43582,-2.05059 -3.08595,-1.76229c-0.85919,0.38099 -3.79304,-4.70011 -3.79304,-4.70011c0,0 -0.10758,2.74427 0.692,5.57589c0.86692,3.07007 0.96645,6.78853 -0.35331,7.05961c-2.6291,0.54003 -0.84866,-2.46285 -2.83216,-6.37963c-2.2523,-4.4476 -3.7369,-10.3058 -3.7369,-10.3058c0,0 -1.76356,10.997 -1.28907,18.04497c0.30919,4.59262 1.29957,15.41811 1.29957,15.41811z" fill="url(#color-3)" stroke="#000000" stroke-width="0" stroke-linecap="butt"/><path d="M197.46643,183.64866c0,0 -4.61968,-9.57116 -5.3651,-16.75364c-0.71796,-6.91785 -1.3528,-24.23026 -1.3528,-24.23026l36.1159,7.19056c0,0 -6.41006,12.09863 -6.59508,23.20946c-0.18739,11.25307 6.59884,26.975 6.59884,26.975c0,0 -5.14601,-10.38157 -6.69116,-14.27728c-0.77859,-1.96304 -1.98245,-7.59131 -1.98245,-7.59131c0,0 1.83116,11.74527 -0.42253,6.3481c-0.85258,-2.04174 -2.09074,-3.92832 -2.88781,-7.46028c-0.8597,-3.80953 -1.24692,-9.19897 -1.24692,-9.19897c0,0 0.19526,7.6257 -1.53742,6.84504c-6.7747,-3.05232 5.74062,22.41657 -0.83915,18.96407c-0.24094,-0.12643 -2.33096,-5.38169 -3.5697,-10.87497c-1.31925,-5.8503 -1.78396,-11.95676 -1.78396,-11.95676c0,0 -0.77928,1.38993 -1.01435,2.9668c-0.36585,2.45403 -0.35434,5.47801 -1.28722,5.32361c-1.02573,-0.16978 -1.58973,-2.65612 -1.98738,-5.9631c-0.45371,-3.77321 -0.666,-8.41504 -0.666,-8.41504c0,0 -0.59649,3.84947 -0.77647,7.55494c-0.17023,3.50469 0.10187,6.87188 -0.76915,7.02694c-0.50897,0.0906 -2.1817,-3.57363 -3.03708,-7.13839c-0.83711,-3.48861 -0.86256,-6.87844 -0.86256,-6.87844c0,0 -0.05937,4.12096 0.20225,6.56869c0.35978,3.36605 1.75736,11.76526 1.75736,11.76526z" fill="url(#color-4)" stroke="none" stroke-width="0" stroke-linecap="butt"/><path d="M184.30048,141.73294c-1.60309,-12.86853 7.52937,-24.6001 20.3979,-26.20319c12.86853,-1.60309 24.6001,7.52937 26.20319,20.3979c1.60309,12.86853 -7.52937,24.6001 -20.3979,26.20319c-12.86853,1.60309 -24.6001,-7.52937 -26.20319,-20.3979z" fill="#000000" stroke="#000000" stroke-width="0" stroke-linecap="butt"/><path d="M264.594,155.39259c-12.86853,1.60309 -24.6001,-7.52937 -26.20319,-20.3979c-1.60309,-12.86853 7.52937,-24.6001 20.3979,-26.20319c12.86853,-1.60309 24.6001,7.52937 26.20319,20.3979c1.60309,12.86853 -7.52937,24.6001 -20.3979,26.20319z" data-paper-data="{&quot;index&quot;:null}" fill="#000000" stroke="#000000" stroke-width="0" stroke-linecap="butt"/><path d="M180.31873,139.30659l3.8938,2.13503" fill="none" stroke="#000000" stroke-width="2" stroke-linecap="round"/><path d="M310.5552,141.76803c-12.59582,4.74894 -12.70128,-26.40756 -34.35518,-45.66545c-25.42765,-22.61407 -49.63208,-15.67864 -46.29101,-23.39974c4.22751,-9.76962 32.90525,-3.82194 51.83816,11.29637c12.77549,10.20148 41.2468,53.0791 28.80804,57.76882z" data-paper-data="{&quot;index&quot;:null}" fill="#000000" stroke="#000000" stroke-width="0" stroke-linecap="butt"/><path d="M287.96211,124.88931l-3.74748,3.89312" fill="none" stroke="#000000" stroke-width="2" stroke-linecap="round"/><path d="M307.25995,152.29687c-13.10506,3.0765 -9.17183,-27.83091 -28.14733,-49.73267c-22.28249,-25.71872 -47.18161,-21.9786 -42.86808,-29.2016c5.45798,-9.13936 33.12305,0.47473 49.937,17.91919c11.34567,11.77113 34.02004,57.97695 21.07841,61.01508z" data-paper-data="{&quot;index&quot;:null}" fill="url(#color-5)" stroke="#000000" stroke-width="0" stroke-linecap="butt"/><path d="M183.46967,130.13787c5.76769,-9.54769 10.85192,-3.46342 5.08473,6.08456c-6.72311,11.13058 -0.27525,25.77285 -7.5114,25.99005c-8.1693,0.2452 -2.96283,-23.15298 2.42667,-32.07461z" data-paper-data="{&quot;index&quot;:null}" fill="#4d2900" stroke="#000000" stroke-width="2" stroke-linecap="butt"/><path d="M242.69001,80.69692c0,0 18.87445,-15.07136 17.52145,-25.1457c-0.14432,-1.07459 2.07792,-2.67433 5.14334,-3.20369c2.39722,-0.41397 5.71158,-0.09286 6.15883,1.11393c4.51221,12.17486 -4.58893,34.73955 -4.58893,34.73955c0,0 -3.16732,4.65138 -14.17984,1.21058c-10.01453,-3.12899 -10.05484,-8.71468 -10.05484,-8.71468z" fill="#000000" stroke="#000000" stroke-width="0" stroke-linecap="butt"/><path d="M254.60283,169.4754c5.0146,11.01295 0.95133,26.99823 -5.18726,30.9932c-6.13858,3.99497 -18.99831,-6.45879 -24.0129,-17.47174c-5.01459,-11.01295 -0.28514,-18.41475 5.85344,-22.40971c6.13858,-3.99497 18.33212,-2.12469 23.34671,8.88826z" fill="#000000" stroke="#000000" stroke-width="2" stroke-linecap="butt"/><g stroke="#000000" stroke-width="0" stroke-linecap="butt"><path d="M166.41717,140.68387c8.4252,-7.3103 11.39112,0.043 2.9663,7.35374c-9.82125,8.52249 -8.19063,24.43829 -15.14266,22.41883c-7.84854,-2.27988 4.3036,-22.94162 12.17635,-29.77257z" data-paper-data="{&quot;index&quot;:null}" fill="#000000"/><path d="M175.24242,91.32365c16.04,-18.15865 43.26116,-28.96587 49.11114,-20.07232c4.62334,7.02872 -20.41479,4.37415 -41.55861,31.03688c-18.00583,22.70568 -12.73321,53.41296 -25.95957,50.90886c-13.06143,-2.47287 7.58361,-49.62037 18.40704,-61.87342z" fill="url(#color-6)"/><path d="M177.48758,99.81662c13.7261,-19.96527 39.44038,-33.98537 46.32302,-25.86462c5.43947,6.41797 -19.73591,6.81107 -37.49984,35.83528c-15.12757,24.71668 -6.17981,54.56087 -19.61194,53.67479c-13.26464,-0.87504 1.52669,-50.17332 10.78876,-63.64544z" fill="url(#color-7)"/><path d="M243.2879,69.97027c0.02753,2.92499 -6.86302,5.20541 -15.39049,5.09345c-8.52747,-0.11196 -15.46267,-2.57389 -15.49021,-5.49889c-0.02753,-2.92499 6.86302,-5.20541 15.39049,-5.09345c8.52747,0.11196 15.46267,2.57389 15.49021,5.49889z" fill="#000000"/><path d="M173.55163,127.85736c9.68849,-15.15777 18.61255,-27.48825 23.52144,-35.82879c6.15165,-10.45206 12.43196,-25.81764 19.7212,-23.08939c7.61192,2.84903 1.04653,20.61934 -5.30753,31.4153c-4.88822,8.30541 -19.78426,23.13395 -29.42777,38.22305c-12.08595,18.91078 -1.60044,44.45577 -14.09496,44.5145c-14.10579,0.0663 -4.10087,-40.07691 5.58763,-55.23468z" fill="url(#color-8)"/><path d="M180.23949,134.30976c8.15359,-16.03571 21.52239,-29.47215 25.58876,-38.25434c5.09581,-11.00551 9.83727,-26.91342 17.35914,-24.91396c7.85486,2.08797 3.06577,20.41699 -2.19771,31.78461c-4.04923,8.74519 -20.11338,21.02622 -28.22894,36.98916c-10.17101,20.00596 -2.92669,44.68756 -16.73634,41.81159c-10.85408,-2.26044 -3.93848,-31.38137 4.2151,-47.41707z" fill="#000000"/><path d="M236.67055,114.75708c-7.16073,-1.06435 0.95988,-14.84939 -4.41144,-26.69163c-4.6076,-10.15847 1.15512,-15.60446 5.76324,-5.44623c4.30597,9.49214 6.73235,33.33947 -1.35181,32.13786z" data-paper-data="{&quot;index&quot;:null}" fill="url(#color-9)"/><path d="M300.22068,129.24785c-11.99827,7.40778 -10.3773,-12.20558 -23.67583,-21.76521c-10.61102,-7.62773 -27.71939,-9.61623 -33.17112,-13.9518c-7.08656,-5.63568 -17.63635,-17.41334 -10.90298,-21.93371c6.44793,-4.32874 16.46609,5.82455 23.32692,11.28072c5.4748,4.3539 20.36115,8.19145 31.02151,15.85354c10.66035,7.66207 22.8319,24.69413 13.40152,30.51647z" data-paper-data="{&quot;index&quot;:null}" fill="url(#color-10)"/><path d="M192.41619,113.72472c7.65449,-10.66579 20.53523,-19.05728 24.3325,-24.93186c4.75863,-7.3618 9.04074,-18.2219 16.53357,-16.17951c7.82452,2.1328 3.55748,14.70199 -1.35771,22.30602c-3.78129,5.84983 -19.35824,13.19888 -26.97696,23.81637c-9.54835,13.30663 -1.74744,31.37475 -15.48336,28.1875c-10.79613,-2.5051 -4.70252,-22.53273 2.95197,-33.19852z" fill="url(#color-11)"/></g><path d="M264.594,155.39259c-5.84821,0.72853 -11.46161,-0.76017 -15.99623,-3.80914c-19.4922,-13.10606 2.8981,-27.03992 8.71421,-52.8544c5.66988,-25.16547 -5.85571,-54.19062 -5.85571,-54.19062l15.72047,14.72483c0,0 8.6697,18.10117 9.35614,36.42155c0.64234,17.14347 5.05378,49.07068 3.70384,50.80899c-3.69139,4.75341 -9.19863,8.09604 -15.64273,8.8988z" data-paper-data="{&quot;index&quot;:null}" fill="#0f3312" stroke="#000000" stroke-width="0" stroke-linecap="butt"/><path d="M265.09016,155.33077c-5.84821,0.72853 -11.46161,-0.76017 -15.99623,-3.80914c-16.58845,-11.15365 -2.8434,-22.90684 5.20475,-42.0721c6.44529,-15.34832 22.67107,-10.31712 24.24525,6.25498c1.40366,14.77692 3.09554,29.56003 2.18896,30.72745c-3.69139,4.75341 -9.19863,8.09604 -15.64273,8.8988z" data-paper-data="{&quot;index&quot;:null}" fill="url(#color-12)" stroke="#000000" stroke-width="0" stroke-linecap="butt"/><path d="M267.23563,67.39104c-12.86853,1.60309 -24.6001,-7.52937 -26.20319,-20.3979c-1.60309,-12.86853 7.52937,-24.6001 20.3979,-26.20319c12.86853,-1.60309 24.6001,7.52937 26.20319,20.3979c1.60309,12.86853 -7.52937,24.6001 -20.3979,26.20319z" data-paper-data="{&quot;index&quot;:null}" fill="url(#color-13)" stroke="#000000" stroke-width="0" stroke-linecap="butt"/><path d="M268.89917,55.36472c-9.05806,1.1284 -17.31581,-5.29987 -18.4442,-14.35793c-1.1284,-9.05807 5.29987,-17.31582 14.35791,-18.44421c9.05806,-1.1284 17.31581,5.29987 18.4442,14.35793c1.1284,9.05807 -5.29987,17.31582 -14.35791,18.44421z" data-paper-data="{&quot;index&quot;:null}" fill="#000000" stroke="none" stroke-width="0" stroke-linecap="butt"/><path d="M182.34328,85.73136l2.67762,-17.55604c0,0 21.93678,16.7522 32.61832,35.08229c12.30503,21.1161 13.3246,44.53056 8.77223,50.20541c-3.68825,4.59765 -9.10065,7.81984 -15.41163,8.60602c-6.54577,0.81543 -12.79735,-1.14684 -17.57138,-4.96561c-2.48915,-1.99109 7.58652,-25.26855 5.32315,-43.84175c-1.92974,-15.83551 -16.40834,-27.53029 -16.40834,-27.53029z" fill="#0f3312" stroke="#000000" stroke-width="0" stroke-linecap="butt"/><path d="M225.86562,124.33815c3.64639,13.66657 3.09361,25.3922 0.04967,29.18668c-3.68825,4.59765 -9.10065,7.81984 -15.41163,8.60602c-6.54577,0.81543 -12.79735,-1.14684 -17.57138,-4.96561c-2.32485,-1.85966 6.31115,-22.28841 5.61724,-40.10995c0,0 9.36738,-2.06509 13.8251,-0.8766c4.64031,1.23718 13.49101,8.15946 13.49101,8.15946z" fill="url(#color-14)" stroke="#000000" stroke-width="0" stroke-linecap="butt"/><path d="M171.05807,51.6987c12.86853,-1.60309 24.6001,7.52937 26.20319,20.3979c1.60309,12.86853 -7.52937,24.6001 -20.3979,26.20319c-12.86853,1.60309 -24.6001,-7.52937 -26.20319,-20.3979c-1.60309,-12.86853 7.52937,-24.6001 20.3979,-26.20319z" data-paper-data="{&quot;index&quot;:null}" fill="url(#color-15)" stroke="#000000" stroke-width="0" stroke-linecap="butt"/><path d="M168.40221,63.84864c9.05806,-1.1284 17.31581,5.29987 18.4442,14.35793c1.1284,9.05807 -5.29987,17.31582 -14.35791,18.44421c-9.05806,1.1284 -17.31581,-5.29987 -18.4442,-14.35793c-1.1284,-9.05807 5.29987,-17.31582 14.35791,-18.44421z" data-paper-data="{&quot;index&quot;:null}" fill="#000000" stroke="none" stroke-width="0" stroke-linecap="butt"/></g></g></svg>