<svg version="1.1" xmlns="http://www.w3.org/2000/svg" xmlns:xlink="http://www.w3.org/1999/xlink" width="34.17311" height="34.17311" viewBox="0,0,34.17311,34.17311"><g transform="translate(-222.91345,-162.91346)"><g data-paper-data="{&quot;isPaintingLayer&quot;:true}" stroke-miterlimit="10" stroke-dasharray="" stroke-dashoffset="0" style="mix-blend-mode: normal"><path d="M229.98312,162.91346h20.03379c3.9166,0 7.06966,3.15307 7.06966,7.06966v20.03379c0,3.91659 -3.15306,7.06966 -7.06966,7.06966h-20.03379c-3.91659,0 -7.06966,-3.15307 -7.06966,-7.06966v-20.03379c0,-3.91659 3.15307,-7.06966 7.06966,-7.06966z" fill="#babebf" fill-rule="evenodd" stroke="none" stroke-width="4.43922" stroke-linecap="round" stroke-linejoin="round"/><g stroke="#000000" stroke-width="0.5"><path d="M242.06593,192.081v-9.52947h-4.13186v9.52947z" fill="#a1a5a6" fill-rule="nonzero" stroke-linecap="butt" stroke-linejoin="miter"/><path d="M250.32966,194.56885l-1.66952,-3.31713h-17.82806l-1.72914,3.31713z" fill="#babebf" fill-rule="nonzero" stroke-linecap="butt" stroke-linejoin="miter"/><path d="M247.76965,165.43115h-15.5393c-2.59706,0 -4.68783,2.09078 -4.68783,4.68783v13.28423c0,2.59706 2.09077,4.68783 4.68783,4.68783h15.5393c2.59706,0 4.68783,-2.09078 4.68783,-4.68783v-13.28423c0,-2.59706 -2.09078,-4.68783 -4.68783,-4.68783z" fill="#babebf" fill-rule="evenodd" stroke-linecap="round" stroke-linejoin="round"/><path d="M246.3178,167.54827h-12.63562c-2.11178,0 -3.81186,1.70009 -3.81186,3.81186v10.80193c0,2.11177 1.70009,3.81186 3.81186,3.81186h12.63562c2.11177,0 3.81186,-1.70009 3.81186,-3.81186v-10.80193c0,-2.11177 -1.70009,-3.81186 -3.81186,-3.81186z" fill="#000000" fill-rule="evenodd" stroke-linecap="round" stroke-linejoin="round"/></g></g></g></svg>