<svg version="1.1" xmlns="http://www.w3.org/2000/svg" xmlns:xlink="http://www.w3.org/1999/xlink" width="171.24526" height="267.22501" viewBox="0,0,171.24526,267.22501"><g transform="translate(-155.16813,-46.35418)"><g data-paper-data="{&quot;isPaintingLayer&quot;:true}" fill-rule="nonzero" stroke-linejoin="miter" stroke-miterlimit="10" stroke-dasharray="" stroke-dashoffset="0" style="mix-blend-mode: normal"><path d="M179.28372,313.57919v-267.22501h123.18203v267.22501z" fill-opacity="0.01" fill="#000000" stroke="none" stroke-width="0" stroke-linecap="butt"/><path d="M266.98435,101.15801c8.3699,-8.95381 57.87822,-27.76515 57.87822,-27.76515c0,0 -15.43499,50.66262 -23.80489,59.61643c-8.3699,8.95381 -22.78262,9.08215 -32.19171,0.28667c-9.40909,-8.79548 -10.25152,-23.18413 -1.88162,-32.13794z" data-paper-data="{&quot;index&quot;:null}" fill="#666666" stroke="#000000" stroke-width="2" stroke-linecap="butt"/><path d="M212.71554,133.29596c-9.40909,8.79548 -23.82181,8.66714 -32.19171,-0.28667c-8.3699,-8.95381 -23.80489,-59.61643 -23.80489,-59.61643c0,0 49.50832,18.81134 57.87822,27.76515c8.3699,8.95381 7.52747,23.34246 -1.88162,32.13794z" data-paper-data="{&quot;index&quot;:null}" fill="#666666" stroke="#000000" stroke-width="2" stroke-linecap="butt"/><path d="M206.75,307.5l15.14285,-131.8421l37.78325,-0.15789l13.57389,132z" fill="#808080" stroke="#000000" stroke-width="2" stroke-linecap="butt"/><path d="M219.70025,204.11264l3.12142,-26.32765l35.83075,-0.14203l2.76735,26.1059c0,0 -7.51543,4.19603 -21.55904,4.50964c-12.48458,0.27879 -20.16049,-4.14586 -20.16049,-4.14586z" fill="#666666" stroke="#000000" stroke-width="0" stroke-linecap="butt"/><path d="M176.76298,139c0,-33.30185 28.7599,-60.29833 64.23702,-60.29833c35.47713,0 64.23702,26.99648 64.23702,60.29833c0,13.26154 -3.22743,25.52317 -10.95697,35.47823c-11.68057,15.0437 -31.9307,23.57011 -53.28005,23.57011c-21.82155,0 -42.43509,-8.96367 -54.04443,-24.57601c-7.26494,-9.76995 -10.19259,-21.65405 -10.19259,-34.47233z" fill="#808080" stroke="#000000" stroke-width="2" stroke-linecap="butt"/><path d="M190.39012,140.52563c0,-12.96801 10.51265,-23.48065 23.48066,-23.48065c12.96801,0 23.48065,10.51264 23.48065,23.48065c0,12.96801 -10.51264,23.48066 -23.48065,23.48066c-12.96801,0 -23.48066,-10.51265 -23.48066,-23.48066z" fill="#000000" stroke="#000000" stroke-width="2" stroke-linecap="butt"/><path d="M190.39012,139.27563c0,-12.96801 10.51265,-23.48065 23.48066,-23.48065c12.96801,0 23.48065,10.51264 23.48065,23.48065c0,12.96801 -10.51264,23.48066 -23.48065,23.48066c-12.96801,0 -23.48066,-10.51265 -23.48066,-23.48066z" fill="#ffffff" stroke="#000000" stroke-width="2" stroke-linecap="butt"/><path d="M197.25552,139c0,-9.12807 7.39976,-16.52784 16.52783,-16.52784c9.12807,0 16.52784,7.39977 16.52784,16.52785c0,9.12807 -7.39977,16.52785 -16.52784,16.52785c-9.12807,0 -16.52783,-7.39977 -16.52783,-16.52785z" fill="#1a1a1a" stroke="none" stroke-width="0" stroke-linecap="butt"/><path d="M204.85552,139c0,-4.93071 3.99713,-8.92784 8.92784,-8.92784c4.93071,0 8.92784,3.99713 8.92784,8.92785c0,4.93071 -3.99713,8.92785 -8.92784,8.92785c-4.93071,0 -8.92784,-3.99714 -8.92784,-8.92785z" fill="#ffffff" stroke="none" stroke-width="0" stroke-linecap="butt"/><path d="M258.11659,178.65644h-36.3596" fill="none" stroke="#000000" stroke-width="1" stroke-linecap="round"/><path d="M190.39012,139.27563c0,-12.96801 10.51265,-23.48065 23.48066,-23.48065c12.96801,0 23.48065,10.51264 23.48065,23.48065c0,0 -11.96395,-7.68625 -23.8145,-7.53384c-11.62799,0.14955 -23.1468,8.14378 -23.1468,7.53384z" fill="#000000" stroke="#000000" stroke-width="2" stroke-linecap="butt"/><path d="M268.12922,164.00629c-12.96801,0 -23.48065,-10.51265 -23.48065,-23.48066c0,-12.96801 10.51264,-23.48065 23.48065,-23.48065c12.96801,0 23.48066,10.51264 23.48066,23.48065c0,12.96801 -10.51265,23.48066 -23.48066,23.48066z" data-paper-data="{&quot;index&quot;:null}" fill="#000000" stroke="#000000" stroke-width="2" stroke-linecap="butt"/><path d="M268.12922,162.75629c-12.96801,0 -23.48065,-10.51265 -23.48065,-23.48066c0,-12.96801 10.51264,-23.48065 23.48065,-23.48065c12.96801,0 23.48066,10.51264 23.48066,23.48065c0,12.96801 -10.51265,23.48066 -23.48066,23.48066z" data-paper-data="{&quot;index&quot;:null}" fill="#ffffff" stroke="#000000" stroke-width="2" stroke-linecap="butt"/><path d="M284.74448,139c0,9.12808 -7.39976,16.52785 -16.52783,16.52785c-9.12807,0 -16.52784,-7.39978 -16.52784,-16.52785c0,-9.12808 7.39977,-16.52785 16.52784,-16.52785c9.12807,0 16.52783,7.39977 16.52783,16.52784z" data-paper-data="{&quot;index&quot;:null}" fill="#1a1a1a" stroke="none" stroke-width="0" stroke-linecap="butt"/><path d="M277.14448,139c0,4.93071 -3.99712,8.92785 -8.92783,8.92785c-4.93071,0 -8.92784,-3.99714 -8.92784,-8.92785c0,-4.93071 3.99714,-8.92785 8.92784,-8.92785c4.93071,0 8.92783,3.99713 8.92783,8.92784z" data-paper-data="{&quot;index&quot;:null}" fill="#ffffff" stroke="none" stroke-width="0" stroke-linecap="butt"/><path d="M244.64857,139.27563c0,-12.96801 10.51264,-23.48065 23.48065,-23.48065c12.96801,0 23.48066,10.51264 23.48066,23.48065c0,0.60858 -11.46752,-7.38431 -23.06905,-7.53284c-11.87591,-0.15204 -23.89225,7.53284 -23.89225,7.53284z" data-paper-data="{&quot;index&quot;:null}" fill="#000000" stroke="#000000" stroke-width="2" stroke-linecap="butt"/><path d="M202.28579,107.7341c0,0 7.66821,-3.59575 12.89435,-3.66124c5.22615,-0.0655 11.89088,3.35062 11.89088,3.35062c0,0 -7.8348,-1.79745 -11.87079,-1.74687c-4.21775,0.05287 -12.91446,2.05748 -12.91446,2.05748z" fill="#000000" stroke="none" stroke-width="0" stroke-linecap="butt"/><path d="M266.27637,105.68394c-4.03629,0.00949 -11.84347,1.92336 -11.84347,1.92336c0,0 6.61316,-3.51493 11.8397,-3.52723c5.22653,-0.0123 12.94741,3.46892 12.94741,3.46892c0,0 -8.72557,-1.87496 -12.94365,-1.86504z" data-paper-data="{&quot;index&quot;:null}" fill="#000000" stroke="none" stroke-width="0" stroke-linecap="butt"/><g fill="#000000" stroke="none" stroke-width="0.5" stroke-linecap="butt"><path d="M192.92222,165.91643c0,-0.41421 0.33579,-0.75 0.75,-0.75c0.41421,0 0.75,0.33579 0.75,0.75c0,0.41421 -0.33579,0.75 -0.75,0.75c-0.41421,0 -0.75,-0.33579 -0.75,-0.75z"/><path d="M203.72222,170.31643c0,-0.41421 0.33579,-0.75 0.75,-0.75c0.41421,0 0.75,0.33579 0.75,0.75c0,0.41421 -0.33579,0.75 -0.75,0.75c-0.41421,0 -0.75,-0.33579 -0.75,-0.75z"/><path d="M197.52222,175.11643c0,-0.41421 0.33579,-0.75 0.75,-0.75c0.41421,0 0.75,0.33579 0.75,0.75c0,0.41421 -0.33579,0.75 -0.75,0.75c-0.41421,0 -0.75,-0.33579 -0.75,-0.75z"/></g><g fill="#000000" stroke="none" stroke-width="0.5" stroke-linecap="butt"><path d="M288.32779,166.66643c-0.41422,0 -0.75,-0.33578 -0.75,-0.75c0,-0.41422 0.33578,-0.75 0.75,-0.75c0.41422,0 0.75,0.33578 0.75,0.75c0,0.41422 -0.33578,0.75 -0.75,0.75z" data-paper-data="{&quot;index&quot;:null}"/><path d="M277.52779,171.06643c-0.41422,0 -0.75,-0.33578 -0.75,-0.75c0,-0.41422 0.33578,-0.75 0.75,-0.75c0.41422,0 0.75,0.33578 0.75,0.75c0,0.41422 -0.33578,0.75 -0.75,0.75z" data-paper-data="{&quot;index&quot;:null}"/><path d="M283.72778,175.86643c-0.41422,0 -0.75,-0.33578 -0.75,-0.75c0,-0.41422 0.33578,-0.75 0.75,-0.75c0.41422,0 0.75,0.33578 0.75,0.75c0,0.41422 -0.33578,0.75 -0.75,0.75z" data-paper-data="{&quot;index&quot;:null}"/></g><path d="M177.56301,138.9c0,-0.72799 5.20666,54.91939 63.36046,55.93429c55.56352,0.9697 63.51358,-56.95314 63.51358,-55.93429c0,32.80479 -23.20348,57.94836 -63.43702,58.39833c-40.03478,0.44775 -63.43702,-25.59354 -63.43702,-58.39833z" fill="#666666" stroke="#000000" stroke-width="0" stroke-linecap="butt"/><path d="M213.53692,154.49839c11.62799,0.11668 23.8145,-12.09169 23.8145,-12.09169c0,10.1172 -10.51264,21.15213 -23.48065,21.15213c-12.96801,0 -23.48066,-11.03494 -23.48066,-21.15213c0,-0.47585 11.51881,11.97502 23.14681,12.09169z" data-paper-data="{&quot;index&quot;:null}" fill="#000000" stroke="#000000" stroke-width="2" stroke-linecap="butt"/><path d="M268.54083,154.49761c11.87591,-0.11862 23.06905,-12.06571 23.06905,-11.59091c0,10.1172 -10.51265,20.65213 -23.48066,20.65213c-12.96801,0 -23.48065,-10.53494 -23.48065,-20.65213c0,0 12.01634,11.70953 23.89225,11.59091z" data-paper-data="{&quot;index&quot;:null}" fill="#000000" stroke="#000000" stroke-width="2" stroke-linecap="butt"/></g></g></svg>