<svg version="1.1" xmlns="http://www.w3.org/2000/svg" xmlns:xlink="http://www.w3.org/1999/xlink" width="146.30867" height="375.39063" viewBox="0,0,146.30867,375.39063"><defs><linearGradient x1="239.75" y1="-60.57808" x2="239.75" y2="91.57815" gradientUnits="userSpaceOnUse" id="color-1"><stop offset="0" stop-color="#4d2a0f"/><stop offset="1" stop-color="#1a0b00"/></linearGradient><linearGradient x1="249.03889" y1="255.34762" x2="249.03889" y2="280.94759" gradientUnits="userSpaceOnUse" id="color-2"><stop offset="0" stop-color="#1a0c12"/><stop offset="1" stop-color="#4d2637"/></linearGradient><linearGradient x1="245.93889" y1="248.7976" x2="245.93889" y2="260.99761" gradientUnits="userSpaceOnUse" id="color-3"><stop offset="0" stop-color="#1a0c12"/><stop offset="1" stop-color="#4d2637"/></linearGradient><linearGradient x1="234.93889" y1="247.19762" x2="234.93889" y2="259.39761" gradientUnits="userSpaceOnUse" id="color-4"><stop offset="0" stop-color="#1a0c12"/><stop offset="1" stop-color="#4d2637"/></linearGradient><linearGradient x1="231.53889" y1="245.7976" x2="231.53889" y2="257.99761" gradientUnits="userSpaceOnUse" id="color-5"><stop offset="0" stop-color="#1a0c12"/><stop offset="1" stop-color="#4d2637"/></linearGradient><linearGradient x1="234.23889" y1="242.39761" x2="234.23889" y2="253.7976" gradientUnits="userSpaceOnUse" id="color-6"><stop offset="0" stop-color="#1a0c12"/><stop offset="1" stop-color="#4d2637"/></linearGradient><linearGradient x1="252.63889" y1="227.99762" x2="252.63889" y2="256.59762" gradientUnits="userSpaceOnUse" id="color-7"><stop offset="0" stop-color="#1a0c12"/><stop offset="1" stop-color="#4d2637"/></linearGradient><linearGradient x1="240.00004" y1="175.50004" x2="240.00004" y2="307.50001" gradientUnits="userSpaceOnUse" id="color-8"><stop offset="0" stop-color="#000000"/><stop offset="1" stop-color="#660000"/></linearGradient><linearGradient x1="241.1881" y1="77.67678" x2="241.1881" y2="192.01557" gradientUnits="userSpaceOnUse" id="color-9"><stop offset="0" stop-color="#1a1a1a"/><stop offset="1" stop-color="#808080"/></linearGradient><linearGradient x1="269.34487" y1="137.01286" x2="269.34487" y2="167.00903" gradientUnits="userSpaceOnUse" id="color-10"><stop offset="0" stop-color="#1a0000"/><stop offset="1" stop-color="#800000"/></linearGradient><linearGradient x1="239.33213" y1="171.66322" x2="239.33213" y2="186.8299" gradientUnits="userSpaceOnUse" id="color-11"><stop offset="0" stop-color="#1a1a1a"/><stop offset="1" stop-color="#808080"/></linearGradient><linearGradient x1="272.15353" y1="164.84627" x2="272.15353" y2="171.59088" gradientUnits="userSpaceOnUse" id="color-12"><stop offset="0" stop-color="#4d4d4d"/><stop offset="1" stop-color="#808080"/></linearGradient><linearGradient x1="269.42704" y1="164.19692" x2="269.42704" y2="172.25755" gradientUnits="userSpaceOnUse" id="color-13"><stop offset="0" stop-color="#4d4d4d"/><stop offset="1" stop-color="#808080"/></linearGradient><linearGradient x1="265.42382" y1="163.70993" x2="265.42382" y2="172.75755" gradientUnits="userSpaceOnUse" id="color-14"><stop offset="0" stop-color="#4d4d4d"/><stop offset="1" stop-color="#808080"/></linearGradient><linearGradient x1="259.91846" y1="162.89824" x2="259.91846" y2="173.59088" gradientUnits="userSpaceOnUse" id="color-15"><stop offset="0" stop-color="#4d4d4d"/><stop offset="1" stop-color="#808080"/></linearGradient><linearGradient x1="246.41204" y1="162.09088" x2="246.41204" y2="174.75755" gradientUnits="userSpaceOnUse" id="color-16"><stop offset="0" stop-color="#4d4d4d"/><stop offset="1" stop-color="#808080"/></linearGradient><linearGradient x1="253.5253" y1="162.24889" x2="253.5253" y2="174.25755" gradientUnits="userSpaceOnUse" id="color-17"><stop offset="0" stop-color="#4d4d4d"/><stop offset="1" stop-color="#808080"/></linearGradient><linearGradient x1="213.04129" y1="164.67961" x2="213.04129" y2="171.42421" gradientUnits="userSpaceOnUse" id="color-18"><stop offset="0" stop-color="#4d4d4d"/><stop offset="1" stop-color="#808080"/></linearGradient><linearGradient x1="215.76778" y1="164.03026" x2="215.76778" y2="172.09088" gradientUnits="userSpaceOnUse" id="color-19"><stop offset="0" stop-color="#4d4d4d"/><stop offset="1" stop-color="#808080"/></linearGradient><linearGradient x1="219.771" y1="163.54326" x2="219.771" y2="172.59088" gradientUnits="userSpaceOnUse" id="color-20"><stop offset="0" stop-color="#4d4d4d"/><stop offset="1" stop-color="#808080"/></linearGradient><linearGradient x1="225.27636" y1="162.73157" x2="225.27636" y2="173.42421" gradientUnits="userSpaceOnUse" id="color-21"><stop offset="0" stop-color="#4d4d4d"/><stop offset="1" stop-color="#808080"/></linearGradient><linearGradient x1="238.78278" y1="161.92421" x2="238.78278" y2="174.59088" gradientUnits="userSpaceOnUse" id="color-22"><stop offset="0" stop-color="#4d4d4d"/><stop offset="1" stop-color="#808080"/></linearGradient><linearGradient x1="231.66952" y1="162.08222" x2="231.66952" y2="174.09088" gradientUnits="userSpaceOnUse" id="color-23"><stop offset="0" stop-color="#4d4d4d"/><stop offset="1" stop-color="#808080"/></linearGradient><linearGradient x1="269.32433" y1="180.12042" x2="269.32433" y2="174.06588" gradientUnits="userSpaceOnUse" id="color-24"><stop offset="0" stop-color="#4d4d4d"/><stop offset="1" stop-color="#808080"/></linearGradient><linearGradient x1="266.87679" y1="182.16207" x2="266.87679" y2="174.92617" gradientUnits="userSpaceOnUse" id="color-25"><stop offset="0" stop-color="#4d4d4d"/><stop offset="1" stop-color="#808080"/></linearGradient><linearGradient x1="263.28315" y1="183.60916" x2="263.28315" y2="175.48722" gradientUnits="userSpaceOnUse" id="color-26"><stop offset="0" stop-color="#4d4d4d"/><stop offset="1" stop-color="#808080"/></linearGradient><linearGradient x1="258.34106" y1="185.3477" x2="258.34106" y2="175.74904" gradientUnits="userSpaceOnUse" id="color-27"><stop offset="0" stop-color="#4d4d4d"/><stop offset="1" stop-color="#808080"/></linearGradient><linearGradient x1="246.21651" y1="188.09225" x2="246.21651" y2="176.72154" gradientUnits="userSpaceOnUse" id="color-28"><stop offset="0" stop-color="#4d4d4d"/><stop offset="1" stop-color="#808080"/></linearGradient><linearGradient x1="252.60199" y1="187.05272" x2="252.60199" y2="176.2727" gradientUnits="userSpaceOnUse" id="color-29"><stop offset="0" stop-color="#4d4d4d"/><stop offset="1" stop-color="#808080"/></linearGradient><linearGradient x1="216.03716" y1="180.12042" x2="216.03716" y2="174.06588" gradientUnits="userSpaceOnUse" id="color-30"><stop offset="0" stop-color="#4d4d4d"/><stop offset="1" stop-color="#808080"/></linearGradient><linearGradient x1="218.4847" y1="182.16207" x2="218.4847" y2="174.92617" gradientUnits="userSpaceOnUse" id="color-31"><stop offset="0" stop-color="#4d4d4d"/><stop offset="1" stop-color="#808080"/></linearGradient><linearGradient x1="222.07834" y1="183.60916" x2="222.07834" y2="175.48722" gradientUnits="userSpaceOnUse" id="color-32"><stop offset="0" stop-color="#4d4d4d"/><stop offset="1" stop-color="#808080"/></linearGradient><linearGradient x1="227.02043" y1="185.3477" x2="227.02043" y2="175.74904" gradientUnits="userSpaceOnUse" id="color-33"><stop offset="0" stop-color="#4d4d4d"/><stop offset="1" stop-color="#808080"/></linearGradient><linearGradient x1="239.14498" y1="188.09225" x2="239.14498" y2="176.72154" gradientUnits="userSpaceOnUse" id="color-34"><stop offset="0" stop-color="#4d4d4d"/><stop offset="1" stop-color="#808080"/></linearGradient><linearGradient x1="232.7595" y1="187.05272" x2="232.7595" y2="176.2727" gradientUnits="userSpaceOnUse" id="color-35"><stop offset="0" stop-color="#4d4d4d"/><stop offset="1" stop-color="#808080"/></linearGradient><linearGradient x1="241.077" y1="74.54784" x2="241.077" y2="195.1445" gradientUnits="userSpaceOnUse" id="color-36"><stop offset="0" stop-color="#1a0000"/><stop offset="1" stop-color="#800000"/></linearGradient></defs><g transform="translate(-156.15714,60.57808)"><g data-paper-data="{&quot;isPaintingLayer&quot;:true}" fill-rule="nonzero" stroke-linecap="butt" stroke-linejoin="miter" stroke-miterlimit="10" stroke-dasharray="" stroke-dashoffset="0" style="mix-blend-mode: normal"><path d="M179.28378,314.81254v-267.22501h123.18203c0,0 0,122.70263 0,171.58786c0,36.55566 0,95.63716 0,95.63716z" fill-opacity="0.01" fill="#000000" stroke="none" stroke-width="0"/><path d="M234.75,91.57815v-152.15623h10v152.15623z" fill="url(#color-1)" stroke="#000000" stroke-width="0"/><path d="M228.18693,273.25001l-4.61603,-25.85409l-9.45109,13.99895l9.2363,-80.41638l34.73006,-0.14513l7.17315,69.75567l-9.60496,-11.2261l-4.34118,42.6371l-12.17506,-17.43613z" fill="#000000" stroke="#000000" stroke-width="0"/><path d="M246.23889,280.94759v-25.6h5.6v25.6z" fill="url(#color-2)" stroke="none" stroke-width="0"/><path d="M245.93889,248.7976c8.06336,0 14.6,2.73106 14.6,6.1c0,3.36894 -6.53664,6.1 -14.6,6.1c-8.06336,0 -14.6,-2.73106 -14.6,-6.1c0,-3.36894 6.53664,-6.1 14.6,-6.1z" fill="url(#color-3)" stroke="none" stroke-width="0"/><path d="M234.93889,247.19761c6.51696,0 11.8,-1.06894 11.8,2.3c0,3.36894 -5.48304,12.3 -12,12.3c-10.71696,0 -11.6,-5.13106 -11.6,-8.5c0,-3.36894 5.28304,-6.1 11.8,-6.1z" fill="url(#color-4)" stroke="none" stroke-width="0"/><path d="M231.53889,245.7976c8.06336,0 14.6,2.73107 14.6,6.1c0,3.36893 -6.53664,6.1 -14.6,6.1c-8.06336,0 -14.6,-2.73107 -14.6,-6.1c0,-3.36893 6.53664,-6.1 14.6,-6.1z" fill="url(#color-5)" stroke="none" stroke-width="0"/><path d="M234.23889,242.39761c6.12186,0 11.08461,2.55198 11.08461,5.7c0,3.14803 -4.96275,5.7 -11.08461,5.7c-6.12187,0 -11.08462,-2.55198 -11.08462,-5.7c0,-3.14802 4.96276,-5.7 11.08462,-5.7z" fill="url(#color-6)" stroke="none" stroke-width="0"/><path d="M252.63889,227.99761c6.68265,0 12.1,6.40233 12.1,14.3c0,7.89767 -5.41735,14.3 -12.1,14.3c-6.68265,0 -12.1,-6.40233 -12.1,-14.3c0,-7.89767 5.41735,-14.3 12.1,-14.3z" fill="url(#color-7)" stroke="none" stroke-width="0"/><path d="M213.08674,252.32929l8.80616,-76.67135l37.78325,-0.15789l6.61401,64.3183l-14.00235,20.63251l-10.20253,-12.73249l-15.56127,9.60404z" fill="url(#color-8)" stroke="#000000" stroke-width="0"/><path d="M272.16667,190.92503c0,5.24211 -14.40151,9.49166 -32.16667,9.49166c-17.76516,0 -32.16666,-4.24956 -32.16666,-9.49166c0,-5.24211 14.4015,-9.49167 32.16666,-9.49167c17.76516,0 32.16667,4.24956 32.16667,9.49167z" fill="#1a0e05" stroke="none" stroke-width="0"/><g><path d="M182.86977,120.14092c-5.30037,-6.29678 -26.71263,-53.62941 -26.71263,-53.62941c0,0 42.98645,29.17238 48.28682,35.46917c5.30037,6.29679 4.76763,15.46666 -1.18992,20.48147c-5.95755,5.01481 -15.0839,3.97556 -20.38427,-2.32122z" fill="#330000" stroke="#000000" stroke-width="0"/><path d="M180.28441,134.84618c0,-31.57378 27.26752,-57.16938 60.90369,-57.16938c33.63617,0 57.65369,20.09561 57.65369,51.66938c0,31.57378 -19.35085,37.66938 -57.65369,38.00271c-49.3021,0.42905 -60.90369,-0.92894 -60.90369,-32.50271z" fill="url(#color-9)" stroke="#000000" stroke-width="0"/><path d="M248.28441,139.84618l40.55738,-2.83333c0,0 5.37893,17.10774 -3.81666,22.6693c-0.36394,0.22011 0.0894,-10.26769 0.0894,-10.26769c0,0 -1.39895,8.24558 -2.36305,8.20011c-1.2805,-0.06039 -1.72234,-6.27668 -2.42664,-6.40228c-0.96802,-0.17263 -1.11315,7.47199 -2.28324,7.94621c-1.24561,0.50483 -2.12591,-4.54975 -3.37947,-4.21403c-0.72667,0.19461 -1.89792,9.5215 -2.65662,9.69542c-0.32399,0.07427 -1.02236,-4.35787 -2.20848,-4.8766c-0.69369,-0.30337 -1.9302,3.64562 -2.36071,2.90235c-1.15947,-2.0018 -0.59482,-5.939 -1.64357,-6.15997c-1.54118,-0.32473 -2.02632,7.00655 -3.44378,6.25136c-3.01736,-1.60756 -4.97215,-4.49848 -4.97215,-4.49848c0,0 -1.57903,8.60308 -4.34049,8.75047c0,0 -0.05411,-6.00616 -0.85419,-10.57962c-0.78353,-4.47884 -3.89771,-16.58321 -3.89771,-16.58321z" fill="url(#color-10)" stroke="#000000" stroke-width="0"/><path d="M272.58213,179.24656c0,4.18816 -14.88653,14.41667 -33.25,14.41667c-18.36347,0 -33.25,-10.22851 -33.25,-14.41667c0,-4.18816 15.5532,2.58333 33.91667,2.58333c18.36347,0 32.58333,-6.77149 32.58333,-2.58333z" fill="url(#color-11)" stroke="none" stroke-width="0"/><g stroke="none" stroke-width="0"><g><path d="M270.02368,171.59088c0,0 -0.58522,-6.83333 2.21862,-6.83333c2.80383,0 2.04112,6.83333 2.04112,6.83333z" fill="url(#color-12)"/><path d="M266.88158,172.25755c0,0 -0.69941,-8.16667 2.65152,-8.16667c3.35092,0 2.43939,8.16667 2.43939,8.16667z" fill="url(#color-13)"/><path d="M262.56667,172.75755c0,0 -0.78505,-9.16667 2.97619,-9.16667c3.76124,0 2.73809,9.16667 2.73809,9.16667z" fill="url(#color-14)"/><path d="M256.54185,173.59088c0,0 -0.92778,-10.83333 3.51732,-10.83333c4.4451,0 3.23593,10.83333 3.23593,10.83333z" fill="url(#color-15)"/><path d="M242.41204,174.75755c0,0 -1.09907,-12.83333 4.16667,-12.83333c5.26574,0 3.83333,12.83333 3.83333,12.83333z" fill="url(#color-16)"/><path d="M249.73309,174.25755c0,0 -1.04197,-12.16667 3.95022,-12.16667c4.99219,0 3.6342,12.16667 3.6342,12.16667z" fill="url(#color-17)"/></g><g data-paper-data="{&quot;index&quot;:null}"><path d="M210.9114,171.42421c0,0 -0.76271,-6.83333 2.04112,-6.83333c2.80384,0 2.21862,6.83333 2.21862,6.83333z" fill="url(#color-18)"/><path d="M213.22233,172.09088c0,0 -0.91153,-8.16667 2.43939,-8.16667c3.35093,0 2.65152,8.16667 2.65152,8.16667z" fill="url(#color-19)"/><path d="M216.91387,172.59088c0,0 -1.02315,-9.16667 2.73809,-9.16667c3.76124,0 2.97619,9.16667 2.97619,9.16667z" fill="url(#color-20)"/><path d="M221.89972,173.42421c0,0 -1.20917,-10.83333 3.23593,-10.83333c4.4451,0 3.51732,10.83333 3.51732,10.83333z" fill="url(#color-21)"/><path d="M234.78278,174.59088c0,0 -1.43241,-12.83333 3.83333,-12.83333c5.26574,0 4.16667,12.83333 4.16667,12.83333z" fill="url(#color-22)"/><path d="M227.87731,174.09088c0,0 -1.35799,-12.16667 3.6342,-12.16667c4.99219,0 3.95022,12.16667 3.95022,12.16667z" fill="url(#color-23)"/></g></g><g stroke="none" stroke-width="0"><g><path d="M271.2363,174.06588c0,0 0.68468,6.1342 -1.83229,6.1342c-2.51697,0 -1.99162,-6.1342 -1.99162,-6.1342z" fill="url(#color-24)"/><path d="M269.16182,174.92617c0,0 0.81827,7.33112 -2.18981,7.33112c-3.00808,0 -2.38024,-7.33112 -2.38024,-7.33112z" fill="url(#color-25)"/><path d="M265.84797,175.48722c0,0 0.91846,8.22881 -2.45795,8.22881c-3.37642,0 -2.67169,-8.22881 -2.67169,-8.22881z" fill="url(#color-26)"/><path d="M261.37222,175.74904c0,0 1.08546,9.72495 -2.90485,9.72495c-3.99031,0 -3.15746,-9.72495 -3.15746,-9.72495z" fill="url(#color-27)"/><path d="M249.80726,176.72154c0,0 1.28585,11.52033 -3.44114,11.52033c-4.72699,0 -3.74036,-11.52033 -3.74036,-11.52033z" fill="url(#color-28)"/><path d="M256.0062,176.2727c0,0 1.21906,10.92187 -3.26237,10.92187c-4.48143,0 -3.54606,-10.92187 -3.54606,-10.92187z" fill="url(#color-29)"/></g><g data-paper-data="{&quot;index&quot;:null}"><path d="M217.9491,174.06588c0,0 0.52535,6.1342 -1.99162,6.1342c-2.51697,0 -1.83229,-6.1342 -1.83229,-6.1342z" fill="url(#color-30)"/><path d="M220.76972,174.92617c0,0 0.62784,7.33112 -2.38024,7.33112c-3.00808,0 -2.18981,-7.33112 -2.18981,-7.33112z" fill="url(#color-31)"/><path d="M224.64316,175.48722c0,0 0.70473,8.22881 -2.67169,8.22881c-3.37641,0 -2.45795,-8.22881 -2.45795,-8.22881z" fill="url(#color-32)"/><path d="M230.05158,175.74904c0,0 0.83285,9.72495 -3.15746,9.72495c-3.99031,0 -2.90485,-9.72495 -2.90485,-9.72495z" fill="url(#color-33)"/><path d="M242.73573,176.72154c0,0 0.98663,11.52033 -3.74036,11.52033c-4.72699,0 -3.44114,-11.52033 -3.44114,-11.52033z" fill="url(#color-34)"/><path d="M236.16372,176.2727c0,0 0.93537,10.92187 -3.54606,10.92187c-4.48143,0 -3.26237,-10.92187 -3.26237,-10.92187z" fill="url(#color-35)"/></g></g><g fill="url(#color-36)" stroke="#000000" stroke-width="0"><path d="M176.83998,134.84618c0,-33.30185 28.7599,-60.29833 64.23702,-60.29833c0.28751,0 5.25881,10.01074 5.54253,16.56938c0.45162,10.44006 -4.4047,27.24641 -4.97142,43.72256c-0.41013,11.92347 2.72287,25.91735 2.90905,36.03328c0.13715,7.45205 -4.74397,11.07578 -5.4762,15.22323c-0.7689,4.35514 2.59216,9.04821 1.99605,9.04821c-35.47712,0 -64.23702,-26.99649 -64.23702,-60.29833z"/></g><path d="M190.3902,135.27566c0,-12.968 10.51265,-23.48065 23.48065,-23.48065c12.968,0 23.48065,10.51265 23.48065,23.48065c0,12.968 -10.51265,23.48065 -23.48065,23.48065c-12.968,0 -23.48065,-10.51265 -23.48065,-23.48065z" fill="#808080" stroke="#000000" stroke-width="0"/><path d="M195.45558,136.25001c0,-9.12808 7.39976,-16.52784 16.52783,-16.52784c9.12808,0 16.52784,7.39977 16.52784,16.52784c0,9.12808 -7.39977,16.52784 -16.52784,16.52784c-9.12808,0 -16.52783,-7.39977 -16.52783,-16.52784z" fill="#000000" stroke="none" stroke-width="0"/><path d="M268.12926,158.75628c-12.968,0 -23.48065,-10.51265 -23.48065,-23.48065c0,-12.968 10.51265,-23.48065 23.48065,-23.48065c12.968,0 23.48065,10.51265 23.48065,23.48065c0,12.968 -10.51265,23.48065 -23.48065,23.48065z" data-paper-data="{&quot;index&quot;:null}" fill="#000000" stroke="#000000" stroke-width="0.5"/><path d="M212.4712,92.33854c-4.62552,1.9655 -9.48845,0.93908 -10.86166,-2.29257c-1.37321,-3.23165 -1.34013,-26.42253 -1.34013,-26.42253c0,0 16.71739,16.07317 18.0906,19.30482c1.37321,3.23165 -1.2633,7.44477 -5.88881,9.41027z" data-paper-data="{&quot;index&quot;:null}" fill="#330000" stroke="#000000" stroke-width="0"/></g></g></g></svg>