<svg version="1.1" xmlns="http://www.w3.org/2000/svg" xmlns:xlink="http://www.w3.org/1999/xlink" width="157.27989" height="290.10262" viewBox="0,0,157.27989,290.10262"><defs><linearGradient x1="289.61742" y1="133.11918" x2="318.17998" y2="133.68424" gradientUnits="userSpaceOnUse" id="color-1"><stop offset="0" stop-color="#000000"/><stop offset="1" stop-color="#240033"/></linearGradient><linearGradient x1="160.97592" y1="130.57428" x2="189.53849" y2="131.13935" gradientUnits="userSpaceOnUse" id="color-2"><stop offset="0" stop-color="#240033"/><stop offset="1" stop-color="#000000"/></linearGradient><linearGradient x1="240.00004" y1="175.50004" x2="240.00004" y2="307.50004" gradientUnits="userSpaceOnUse" id="color-3"><stop offset="0" stop-color="#000000"/><stop offset="1" stop-color="#470066"/></linearGradient><linearGradient x1="242.26797" y1="78.52692" x2="239.8827" y2="199.10003" gradientUnits="userSpaceOnUse" id="color-4"><stop offset="0" stop-color="#12001a"/><stop offset="1" stop-color="#590080"/></linearGradient><linearGradient x1="215.122" y1="23.70798" x2="213.67442" y2="96.88212" gradientUnits="userSpaceOnUse" id="color-5"><stop offset="0" stop-color="#240033"/><stop offset="1" stop-color="#09000d"/></linearGradient><linearGradient x1="268.77816" y1="24.76945" x2="267.33056" y2="97.94361" gradientUnits="userSpaceOnUse" id="color-6"><stop offset="0" stop-color="#240033"/><stop offset="1" stop-color="#09000d"/></linearGradient></defs><g transform="translate(-160.72641,-23.5099)"><g data-paper-data="{&quot;isPaintingLayer&quot;:true}" fill-rule="nonzero" stroke-linecap="butt" stroke-linejoin="miter" stroke-miterlimit="10" stroke-dasharray="" stroke-dashoffset="0" style="mix-blend-mode: normal"><path d="M179.28374,313.61253v-267.22501h123.18203v267.22501z" fill-opacity="0.01" fill="#000000" stroke="none" stroke-width="0"/><path d="M303.40684,162.1906c-4.10929,-1.60205 -12.91577,-0.88196 -12.91577,-0.88196l-0.6594,-39.02068l22.6978,-25.88946c0,0 3.88878,3.26871 5.23307,33.44506c1.28795,28.91174 -2.94752,40.94804 -2.94752,40.94804c0,0 -7.41267,-7.04331 -11.40817,-8.60099z" data-paper-data="{&quot;index&quot;:null}" fill="url(#color-1)" stroke="#000000" stroke-width="0"/><path d="M162.87065,167.78573c0,0 -3.75612,-12.19439 -1.32571,-41.03258c2.5367,-30.09956 6.55171,-33.21191 6.55171,-33.21191l21.6561,26.7669l-2.20215,38.96407c0,0 -8.77112,-1.06782 -12.94055,0.37045c-4.05398,1.39845 -11.73941,8.14308 -11.73941,8.14308z" fill="url(#color-2)" stroke="#000000" stroke-width="0"/><path d="M206.75005,307.50001l15.14285,-131.8421l37.78325,-0.15789l13.57389,132z" fill="url(#color-3)" stroke="#000000" stroke-width="0"/><path d="M176.85088,137.54294c0.65868,-33.29534 29.94691,-59.71769 65.41709,-59.016c35.47018,0.7017 63.69049,28.26175 63.03182,61.55708c-0.30758,15.54759 -12.8026,34.72064 -25.28409,48.67164c-12.91234,14.43257 -23.26554,29.55133 -42.17256,29.17729c-19.47436,-0.38526 -28.14852,-16.2837 -39.61795,-30.7544c-13.88153,-17.51399 -21.67134,-34.62058 -21.3743,-49.63561z" fill="url(#color-4)" stroke="#000000" stroke-width="0"/><path d="M236.79437,213.8292c-8.37924,0.0404 -23.7341,-27.77403 -22.40233,-31.54786c0.85782,-2.43077 16.92569,-6.87795 25.30493,-6.91835c8.37924,-0.0404 21.2236,8.90596 22.33898,12.72988c1.11538,3.82392 -16.86234,25.69591 -25.24158,25.73633z" fill="#000000" stroke="#000000" stroke-width="2"/><path d="M188.89654,137.90706c0.25649,-12.96546 10.97502,-23.26813 23.94047,-23.01163c12.96546,0.25649 23.26813,10.97502 23.01163,23.94047c-0.25649,12.96546 -10.97502,23.26813 -23.94047,23.01163c-12.96546,-0.25649 -23.26813,-10.97502 -23.01163,-23.94047z" fill="#808080" stroke="#000000" stroke-width="0"/><path d="M193.62652,138.05836c0.20604,-10.41471 8.81584,-18.69046 19.23053,-18.48443c10.41471,0.20604 18.69046,8.81585 18.48443,19.23054c-0.20604,10.41471 -8.81585,18.69046 -19.23054,18.48443c-10.41471,-0.20604 -18.69045,-8.81585 -18.48442,-19.23054z" fill="#000000" stroke="none" stroke-width="0"/><path d="M266.14941,163.254c-12.96546,-0.25649 -23.26813,-10.97502 -23.01163,-23.94047c0.25649,-12.96546 10.97502,-23.26813 23.94047,-23.01163c12.96546,0.25649 23.26813,10.97502 23.01163,23.94047c-0.25649,12.96546 -10.97502,23.26813 -23.94047,23.01163z" data-paper-data="{&quot;index&quot;:null}" fill="#808080" stroke="#000000" stroke-width="0"/><path d="M266.1205,159.02415c-10.78281,-0.21332 -19.35108,-9.12745 -19.13777,-19.91026c0.21332,-10.78283 9.12745,-19.35109 19.91026,-19.13778c10.78281,0.21332 19.35108,9.12745 19.13777,19.91026c-0.21332,10.78283 -9.12745,19.35109 -19.91026,19.13778z" data-paper-data="{&quot;index&quot;:null}" fill="#000000" stroke="none" stroke-width="0"/><path d="M203.77482,87.99589c-0.79756,-5.65094 1.33446,-64.48598 1.33446,-64.48598c0,0 18.33185,55.94687 19.12941,61.5978c0.79756,5.65094 -3.1369,10.87846 -8.78783,11.67601c-5.65093,0.79756 -10.87846,-3.13689 -11.67601,-8.78783z" fill="url(#color-5)" stroke="#000000" stroke-width="0"/><path d="M265.55945,97.77502c-5.61497,-1.02043 -9.3396,-6.39947 -8.31917,-12.01443c1.02042,-5.61498 21.55063,-60.79303 21.55063,-60.79303c0,0 -0.1966,58.87333 -1.21702,64.48831c-1.02042,5.61498 -6.39947,9.33959 -12.01444,8.31917z" data-paper-data="{&quot;index&quot;:null}" fill="url(#color-6)" stroke="#000000" stroke-width="0"/></g></g></svg>