<svg version="1.1" xmlns="http://www.w3.org/2000/svg" xmlns:xlink="http://www.w3.org/1999/xlink" width="34.17311" height="34.17311" viewBox="0,0,34.17311,34.17311"><g transform="translate(-222.91346,-162.91346)"><g data-paper-data="{&quot;isPaintingLayer&quot;:true}" stroke-miterlimit="10" stroke-dasharray="" stroke-dashoffset="0" style="mix-blend-mode: normal"><path d="M229.98313,162.91346h20.03378c3.9166,0 7.06966,3.15307 7.06966,7.06966v20.03379c0,3.91659 -3.15306,7.06966 -7.06966,7.06966h-20.03378c-3.91659,0 -7.06967,-3.15307 -7.06967,-7.06966v-20.03379c0,-3.91659 3.15308,-7.06966 7.06967,-7.06966z" fill-opacity="0.09677" fill="#191919" fill-rule="evenodd" stroke="none" stroke-width="4.43922" stroke-linecap="round" stroke-linejoin="round"/><path d="M225.75138,192.70985c0,-7.3868 6.37934,-13.37499 14.24864,-13.37499c7.86931,0 14.24864,5.98819 14.24864,13.37499" fill="#808080" fill-rule="nonzero" stroke="#000000" stroke-width="0.5" stroke-linecap="butt" stroke-linejoin="miter"/><path d="M231.83758,181.5971c-0.20166,-1.24971 0.01303,-14.30692 0.01303,-14.30692c0,0 4.31091,12.32692 4.51257,13.57663c0.20166,1.24971 -0.64795,2.42628 -1.89765,2.62795c-1.24971,0.20166 -2.42628,-0.64794 -2.62795,-1.89765z" fill="#4d4d4d" fill-rule="nonzero" stroke="#000000" stroke-width="0.5" stroke-linecap="butt" stroke-linejoin="miter"/><path d="M245.58247,183.49475c-1.24971,-0.20167 -2.09932,-1.37824 -1.89765,-2.62794c0.20167,-1.24971 4.51257,-13.57663 4.51257,-13.57663c0,0 0.21469,13.05721 0.01303,14.30692c-0.20166,1.24971 -1.37824,2.09932 -2.62794,1.89765z" data-paper-data="{&quot;index&quot;:null}" fill="#4d4d4d" fill-rule="nonzero" stroke="#000000" stroke-width="0.5" stroke-linecap="butt" stroke-linejoin="miter"/></g></g></svg>