<svg version="1.1" xmlns="http://www.w3.org/2000/svg" xmlns:xlink="http://www.w3.org/1999/xlink" width="127.50098" height="267.22501" viewBox="0,0,127.50098,267.22501"><defs><linearGradient x1="237.00012" y1="186.50004" x2="237.00012" y2="296.50002" gradientUnits="userSpaceOnUse" id="color-1"><stop offset="0" stop-color="#000000"/><stop offset="1" stop-color="#4d0000"/></linearGradient><linearGradient x1="217.61308" y1="231.6687" x2="245.37922" y2="236.28818" gradientUnits="userSpaceOnUse" id="color-2"><stop offset="0" stop-color="#808080"/><stop offset="1" stop-color="#000000"/></linearGradient><linearGradient x1="217.61308" y1="219.66871" x2="245.37922" y2="224.28819" gradientUnits="userSpaceOnUse" id="color-3"><stop offset="0" stop-color="#808080"/><stop offset="1" stop-color="#000000"/></linearGradient><linearGradient x1="240.00012" y1="175.50004" x2="240.00012" y2="307.50002" gradientUnits="userSpaceOnUse" id="color-4"><stop offset="0" stop-color="#000000"/><stop offset="1" stop-color="#402200"/></linearGradient><linearGradient x1="240.99772" y1="83.67776" x2="240.99772" y2="190.51456" gradientUnits="userSpaceOnUse" id="color-5"><stop offset="0" stop-color="#000000"/><stop offset="1" stop-color="#4d0000"/></linearGradient><linearGradient x1="238.32706" y1="78.54783" x2="238.32706" y2="199.14449" gradientUnits="userSpaceOnUse" id="color-6"><stop offset="0" stop-color="#1a0e00"/><stop offset="1" stop-color="#593000"/></linearGradient><linearGradient x1="262.33889" y1="158.57569" x2="262.33889" y2="181.37569" gradientUnits="userSpaceOnUse" id="color-7"><stop offset="0" stop-color="#1a0000"/><stop offset="1" stop-color="#4d0000"/></linearGradient></defs><g transform="translate(-174.09004,-46.3875)"><g data-paper-data="{&quot;isPaintingLayer&quot;:true}" fill-rule="nonzero" stroke-width="0" stroke-linecap="butt" stroke-linejoin="miter" stroke-miterlimit="10" stroke-dasharray="" stroke-dashoffset="0" style="mix-blend-mode: normal"><path d="M178.40899,313.61251v-267.22501h123.18203v267.22501z" fill-opacity="0.01" fill="#000000" stroke="none"/><path d="M209.29178,296.50002l4.54893,-44.07657c0,0 1.01671,1.07278 5.61303,-1.42458c4.50505,-2.44778 2.66193,-7.31261 2.66193,-7.31261c0,0 3.24033,0.39703 3.74423,-5.16154c0.54565,-6.01913 -3.76251,-5.68843 -3.76251,-5.68843c0,0 1.27452,-4.03398 -0.40725,-7.91014c-1.27002,-2.92714 -4.58718,-2.85969 -4.58718,-2.85969l4.80787,-35.43486l31.48604,-0.13157l11.31158,110z" fill="url(#color-1)" stroke="#000000"/><path d="M226.11698,247.96845c-3.4667,-0.18308 -3.9511,-17.44286 0.35486,-20.74978c4.95451,-3.80499 29.67413,-3.61191 29.80876,2.64088c0.09041,4.19871 -16.89879,10.69688 -16.89879,10.69688c0,0 -11.56823,7.50162 -13.26484,7.41202z" fill="#1a000b" stroke="none"/><path d="M230.83596,233.77871c-9.68197,0.6546 -7.73771,-8.29223 -6.37233,-17.50873c1.41607,-9.55868 5.70506,-16.83207 9.86427,-16.83207c4.15921,0 5.86427,7.61171 5.86427,17.00122c0,9.38952 -1.84991,16.83208 -9.35621,17.33958z" fill="#330017" stroke="none"/><path d="M217.25916,233.82862l0.70784,-4.31983c0,0 9.71938,3.49776 14.47452,4.28888c4.48436,0.74607 13.29162,0.3306 13.29162,0.3306l-0.70783,4.31983c0,0 -8.71225,-0.02651 -13.19466,-0.77226c-4.75667,-0.79136 -14.57148,-3.84721 -14.57148,-3.84721z" fill="url(#color-2)" stroke="none"/><path d="M217.25916,221.82863l0.70784,-4.31983c0,0 9.71938,3.49776 14.47452,4.28888c4.48436,0.74607 13.29162,0.3306 13.29162,0.3306l-0.70783,4.31983c0,0 -8.71225,-0.02651 -13.19466,-0.77226c-4.75667,-0.79136 -14.57148,-3.84721 -14.57148,-3.84721z" fill="url(#color-3)" stroke="none"/><path d="M206.75012,307.50002l6.25871,-54.49188c0,0 1.3534,2.88734 6.86898,-0.1095c5.40606,-2.93732 3.59431,-6.6418 3.59431,-6.6418c0,0 4.02174,-1.39024 4.62641,-8.06052c0.65477,-7.22295 -3.31502,-7.49278 -3.31502,-7.49278c0,0 1.39609,-2.30745 -0.62204,-6.95883c-1.52402,-3.51257 -7.50462,-2.49829 -7.50462,-2.49829l5.23611,-45.5885l37.78325,-0.15789l13.57389,132z" fill="url(#color-4)" stroke="#000000"/><path d="M184.09004,137.09616c0,-29.50217 25.22845,-54.4184 56.65769,-54.4184c0.29874,0 -2.5731,3.03785 -1.31795,12.75427c0.99331,7.68939 4.9254,8.14895 4.9254,8.14895c0,0 -2.72624,5.45221 -1.37515,13.05292c1.62664,9.15083 4.41415,9.4248 4.41415,9.4248c0,0 -8.82563,10.81469 1.83536,24.33987c10.19615,12.93547 24.8292,5.96378 24.8292,5.96378c0,0 3.4406,3.51357 8.33346,4.77055c5.60386,1.43963 9.97092,-1.01328 9.93946,-0.95173c-9.17478,17.94414 -28.71301,30.33339 -51.33392,30.33339c-31.42924,0 -56.90769,-23.91624 -56.90769,-53.4184z" fill="url(#color-5)" stroke="#000000"/><path d="M174.09004,138.84616c0,-33.30185 28.7599,-60.29833 64.23702,-60.29833c0.33722,0 -3.1867,3.7113 -1.76989,14.67913c1.12124,8.67973 5.55976,10.04508 5.55976,10.04508c0,0 -3.07736,4.46123 -1.55226,13.04086c1.83614,10.3294 4.98266,10.35645 4.98266,10.35645c0,0 -9.96231,11.92535 2.07174,27.19248c11.50935,14.60147 28.02704,6.73188 28.02704,6.73188c0,0 3.88373,3.9661 9.40675,5.38496c6.3256,1.62505 11.25511,-1.14378 11.2196,-1.07431c-10.35643,20.25523 -32.41105,34.24013 -57.94539,34.24013c-35.47712,0 -64.23702,-26.99649 -64.23702,-60.29833z" fill="url(#color-6)" stroke="#000000"/><path d="M187.89027,138.77563c0,-12.968 10.51265,-23.48065 23.48065,-23.48065c12.968,0 23.48065,10.51265 23.48065,23.48065c0,12.968 -10.51265,23.48065 -23.48065,23.48065c-12.968,0 -23.48065,-10.51265 -23.48065,-23.48065z" fill="#808080" stroke="#000000"/><path d="M187.95564,141.25c0,-9.12808 7.39976,-16.52784 16.52783,-16.52784c9.12808,0 16.52784,7.39977 16.52784,16.52784c0,9.12808 -7.39977,16.52784 -16.52784,16.52784c-9.12808,0 -16.52783,-7.39977 -16.52783,-16.52784z" fill="#000000" stroke="none"/><path d="M200.02796,110.46716c0,0 6.70895,-5.16922 11.79721,-6.36355c5.08827,-1.19433 12.33413,0.69937 12.33413,0.69937c0,0 -8.03812,-0.06028 -11.96762,0.86207c-4.10648,0.96389 -12.16372,4.80211 -12.16372,4.80211z" fill="#000000" stroke="none"/><path d="M251.15323,157.41855c0,0 4.88967,3.65714 11.18572,3.65714c6.29604,0 11.61428,0.14286 11.61428,0.14286c0,0 -0.23267,18.1211 -4.81428,17.75714c-2.51763,-0.2 -3.55104,-10.76445 -6.72496,-11.43704c-0.62079,-0.13155 -0.86411,3.61948 -2.91434,3.24292c-2.03982,-0.37465 -3.06432,-4.31686 -4.55016,-7.28422c-1.75365,-3.50222 -3.79626,-6.07879 -3.79626,-6.07879z" fill="url(#color-7)" stroke="none"/><path d="M246.11957,184.76667c0,5.84377 -3.63519,10.58106 -8.11944,10.58106c-4.48424,0 -8.11944,-4.73731 -8.11944,-10.58106c0,-5.84377 3.63519,-10.58106 8.11944,-10.58106c4.48424,0 8.11944,4.73731 8.11944,10.58106z" fill="#000000" stroke="none"/></g></g></svg>