<svg version="1.1" xmlns="http://www.w3.org/2000/svg" xmlns:xlink="http://www.w3.org/1999/xlink" width="34.17311" height="34.17311" viewBox="0,0,34.17311,34.17311"><g transform="translate(-222.91348,-162.91347)"><g data-paper-data="{&quot;isPaintingLayer&quot;:true}" stroke-miterlimit="10" stroke-dasharray="" stroke-dashoffset="0" style="mix-blend-mode: normal"><path d="M229.98314,162.91348h20.03379c3.9166,0 7.06966,3.15307 7.06966,7.06966v20.03379c0,3.91659 -3.15306,7.06966 -7.06966,7.06966h-20.03379c-3.91659,0 -7.06966,-3.15307 -7.06966,-7.06966v-20.03379c0,-3.91659 3.15307,-7.06966 7.06966,-7.06966z" fill="#00ff15" fill-rule="evenodd" stroke="none" stroke-width="4.43922" stroke-linecap="round" stroke-linejoin="round"/><g fill-rule="nonzero" stroke="#000000" stroke-width="0.5" stroke-linecap="butt" stroke-linejoin="miter"><path d="M244.12898,173.44879c4.43769,3.1418 11.80716,13.24369 7.84989,14.83027c-3.50524,1.40534 -3.47606,-6.94061 -9.01213,-10.86047c-4.74893,-3.36252 -3.58688,-7.33208 1.16223,-3.96981z" data-paper-data="{&quot;index&quot;:null}" fill="#00ff15"/><path d="M245.75026,177.26207c2.96922,4.55497 6.1017,16.66054 1.83827,16.67868c-3.77643,0.01606 -0.67649,-7.73288 -4.38047,-13.41565c-3.17733,-4.87478 -0.63539,-8.13765 2.54219,-3.26304z" data-paper-data="{&quot;index&quot;:null}" fill="#00ff15"/><path d="M235.87105,173.44879c4.74911,-3.36227 5.91116,0.60729 1.16223,3.96981c-5.53607,3.91986 -5.50689,12.2658 -9.01213,10.86047c-3.95727,-1.58658 3.4122,-11.68847 7.84989,-14.83027z" data-paper-data="{&quot;index&quot;:null}" fill="#00ff15"/><path d="M234.24977,177.26207c3.17758,-4.87461 5.71952,-1.61174 2.54219,3.26303c-3.70397,5.68278 -0.60404,13.43171 -4.38047,13.41565c-4.26343,-0.01815 -1.13095,-12.12372 1.83827,-16.67869z" data-paper-data="{&quot;index&quot;:null}" fill="#00ff15"/><g><path d="M237.32879,168.50262c0.05282,-1.98343 1.34973,-2.48311 2.93201,-2.44098c1.58229,0.04214 2.85076,0.61014 2.79795,2.59357c-0.05282,1.98343 -1.40693,4.63119 -2.98921,4.58906c-1.58229,-0.04214 -2.79357,-2.75821 -2.74075,-4.74164z" fill="#ff80ee"/><path d="M242.69638,182.2632c-0.05282,1.98343 -1.34973,2.48312 -2.93201,2.44099c-1.58229,-0.04214 -2.85076,-0.61014 -2.79795,-2.59357c0.05282,-1.98343 1.40692,-4.63119 2.98921,-4.58906c1.58229,0.04214 2.79357,2.75821 2.74075,4.74164z" fill="#ff80ee"/><path d="M233.1323,178.06671c-1.98343,-0.05282 -2.48311,-1.34973 -2.44098,-2.93201c0.04214,-1.58229 0.61013,-2.85076 2.59356,-2.79795c1.98343,0.05282 4.63119,1.40692 4.58906,2.98921c-0.04214,1.58229 -2.75821,2.79357 -4.74164,2.74075z" fill="#ff80ee"/><path d="M246.89287,172.69911c1.98343,0.05282 2.48312,1.34973 2.44099,2.93201c-0.04214,1.58229 -0.61013,2.85076 -2.59357,2.79795c-1.98343,-0.05282 -4.63119,-1.40692 -4.58906,-2.98921c0.04214,-1.58229 2.75821,-2.79357 4.74164,-2.74075z" fill="#ff80ee"/><path d="M233.24976,172.41555c-1.36514,-1.43984 -0.80143,-2.71022 0.34721,-3.79927c1.14864,-1.08905 2.44722,-1.58437 3.81238,-0.14453c1.36514,1.43984 2.2799,4.26959 1.13127,5.35865c-1.14864,1.08905 -3.9257,0.025 -5.29085,-1.41484z" fill="#ff80ee"/><path d="M246.77542,178.35027c1.36514,1.43984 0.80143,2.71022 -0.34721,3.79927c-1.14864,1.08905 -2.44722,1.58437 -3.81238,0.14453c-1.36514,-1.43984 -2.2799,-4.26959 -1.13127,-5.35865c1.14864,-1.08905 3.92571,-0.025 5.29085,1.41484z" fill="#ff80ee"/><path d="M237.04522,182.14574c-1.43984,1.36514 -2.71023,0.80144 -3.79928,-0.34721c-1.08905,-1.14864 -1.58436,-2.44722 -0.14452,-3.81238c1.43984,-1.36514 4.26959,-2.2799 5.35865,-1.13127c1.08905,1.14864 0.025,3.92571 -1.41484,5.29085z" fill="#ff80ee"/><path d="M242.97994,168.62008c1.43984,-1.36514 2.71023,-0.80143 3.79927,0.34721c1.08905,1.14864 1.58437,2.44722 0.14453,3.81238c-1.43984,1.36514 -4.26959,2.2799 -5.35865,1.13127c-1.08905,-1.14864 -0.025,-3.9257 1.41484,-5.29085z" fill="#ff80ee"/><path d="M236.22167,175.20121c0.05578,-2.09485 1.79922,-3.74785 3.89407,-3.69207c2.09485,0.05578 3.74784,1.79922 3.69206,3.89407c-0.05578,2.09485 -1.79922,3.74784 -3.89407,3.69206c-2.09485,-0.05578 -3.74785,-1.79922 -3.69207,-3.89407z" fill="#ffe900"/></g></g></g></g></svg>