<svg version="1.1" xmlns="http://www.w3.org/2000/svg" xmlns:xlink="http://www.w3.org/1999/xlink" width="148.8333" height="274.97016" viewBox="0,0,148.8333,274.97016"><defs><linearGradient x1="240.08342" y1="175.50005" x2="240.08342" y2="307.50005" gradientUnits="userSpaceOnUse" id="color-1"><stop offset="0" stop-color="#000000"/><stop offset="1" stop-color="#3d4040"/></linearGradient><linearGradient x1="182.94065" y1="38.64237" x2="182.94065" y2="73.97571" gradientUnits="userSpaceOnUse" id="color-2"><stop offset="0" stop-color="#33270a"/><stop offset="1" stop-color="#99761f"/></linearGradient><linearGradient x1="296.44062" y1="38.64237" x2="296.44062" y2="73.97571" gradientUnits="userSpaceOnUse" id="color-3"><stop offset="0" stop-color="#33270a"/><stop offset="1" stop-color="#99761f"/></linearGradient><linearGradient x1="240.38886" y1="175.50004" x2="240.38886" y2="251.52582" gradientUnits="userSpaceOnUse" id="color-4"><stop offset="0" stop-color="#000000"/><stop offset="1" stop-color="#664f14"/></linearGradient><linearGradient x1="240.48306" y1="175.50004" x2="240.48306" y2="228.02466" gradientUnits="userSpaceOnUse" id="color-5"><stop offset="0" stop-color="#000000"/><stop offset="1" stop-color="#664f14"/></linearGradient><linearGradient x1="240.07706" y1="76.54784" x2="240.07706" y2="197.14455" gradientUnits="userSpaceOnUse" id="color-6"><stop offset="0" stop-color="#17181a"/><stop offset="1" stop-color="#5e6061"/></linearGradient><linearGradient x1="240.00007" y1="100.24681" x2="240.00007" y2="171.75327" gradientUnits="userSpaceOnUse" id="color-7"><stop offset="0" stop-color="#1a1405"/><stop offset="1" stop-color="#806319"/></linearGradient></defs><g transform="translate(-165.27399,-38.64237)"><g data-paper-data="{&quot;isPaintingLayer&quot;:true}" stroke-miterlimit="10" stroke-dasharray="" stroke-dashoffset="0" style="mix-blend-mode: normal"><path d="M178.40901,313.61253v-267.22501h123.18203v267.22501z" fill-opacity="0.01" fill="#000000" fill-rule="nonzero" stroke="none" stroke-width="0" stroke-linecap="butt" stroke-linejoin="miter"/><path d="M210.16676,307.50001l13.62477,-131.8421l33.99545,-0.15789l12.2131,132z" fill="url(#color-1)" fill-rule="nonzero" stroke="#000000" stroke-width="0" stroke-linecap="butt" stroke-linejoin="miter"/><g fill-rule="nonzero" stroke="#000000" stroke-width="0" stroke-linecap="butt" stroke-linejoin="miter"><path d="M179.27399,126.30904v-70l7.33332,0.00001v70z" fill="#4d4636"/><path d="M165.27399,56.30904c0,-9.75702 7.90964,-17.66667 17.66666,-17.66667c9.75702,0 17.66667,7.90964 17.66667,17.66667c0,9.75702 -7.90964,17.66667 -17.66667,17.66667c-9.75702,0 -17.66666,-7.90964 -17.66666,-17.66667z" fill="url(#color-2)"/></g><g fill-rule="nonzero" stroke="#000000" stroke-width="0" stroke-linecap="butt" stroke-linejoin="miter"><path d="M292.77396,126.30904v-70l7.33333,0.00001v70z" fill="#4d4636"/><path d="M278.77396,56.30904c0,-9.75702 7.90964,-17.66667 17.66666,-17.66667c9.75702,0 17.66667,7.90964 17.66667,17.66667c0,9.75702 -7.90965,17.66667 -17.66667,17.66667c-9.75702,0 -17.66666,-7.90964 -17.66666,-17.66667z" fill="url(#color-3)"/></g><path d="M215.12523,244.73923l7.58416,-69.08131l36.11546,-0.15789l6.82766,69.46209c0,0 -1.63411,6.69929 -25.4124,6.56159c-22.03251,-0.12759 -25.11488,-6.78449 -25.11488,-6.78449z" fill="url(#color-4)" fill-rule="nonzero" stroke="#000000" stroke-width="0" stroke-linecap="butt" stroke-linejoin="miter"/><path d="M216.61546,221.60688l5.27751,-45.94896l37.78325,-0.15789l4.67444,45.45686c0,0 -7.00642,7.16153 -24.11741,7.06682c-17.11099,-0.09472 -23.61779,-6.41683 -23.61779,-6.41683z" fill="url(#color-5)" fill-rule="nonzero" stroke="#000000" stroke-width="0" stroke-linecap="butt" stroke-linejoin="miter"/><path d="M175.84004,136.84617c0,-33.30185 28.7599,-60.29833 64.23702,-60.29833c35.47712,0 64.23702,26.99649 64.23702,60.29833c0,33.30185 -28.7599,60.29833 -64.23702,60.29833c-35.47712,0 -64.23702,-26.99649 -64.23702,-60.29833z" fill="url(#color-6)" fill-rule="nonzero" stroke="#000000" stroke-width="0" stroke-linecap="butt" stroke-linejoin="miter"/><path d="M219.82598,160.17467h40.34822c2.4445,0 4.41244,1.96795 4.41244,4.41244v18.32584c0,2.44449 -1.96795,4.41244 -4.41244,4.41244h-40.34821c-2.44449,0 -4.41245,-1.96795 -4.41245,-4.41244v-18.32584c0,-2.44449 1.96795,-4.41244 4.41245,-4.41244z" fill="#000000" fill-rule="evenodd" stroke="#000000" stroke-width="0" stroke-linecap="round" stroke-linejoin="round"/><path d="M186.86784,100.24681h106.26448c6.43804,0 11.62097,5.18296 11.62097,11.62098v48.26449c0,6.43802 -5.18296,11.62098 -11.62097,11.62098h-106.26447c-6.43802,0 -11.62099,-5.18296 -11.62099,-11.62098v-48.26449c0,-6.43801 5.18297,-11.62098 11.62099,-11.62098z" fill="url(#color-7)" fill-rule="evenodd" stroke="#000000" stroke-width="0" stroke-linecap="round" stroke-linejoin="round"/><path d="M194.79968,105.58422h90.40082c5.47694,0 9.88614,4.40922 9.88614,9.88614v41.05934c0,5.47692 -4.40922,9.88614 -9.88614,9.88614h-90.4008c-5.47692,0 -9.88616,-4.40922 -9.88616,-9.88614v-41.05934c0,-5.47692 4.40923,-9.88614 9.88616,-9.88614z" fill="#000000" fill-rule="evenodd" stroke="#000000" stroke-width="0" stroke-linecap="round" stroke-linejoin="round"/><path d="M224.56486,136.34839c0,12.05822 -3.28325,21.83333 -7.33333,21.83333c-4.05009,0 -7.33333,-9.77512 -7.33333,-21.83333c0,-12.05822 3.28325,-21.83333 7.33333,-21.83333c4.05009,0 7.33333,9.77512 7.33333,21.83333z" fill="#267b80" fill-rule="nonzero" stroke="none" stroke-width="0" stroke-linecap="butt" stroke-linejoin="miter"/><path d="M266.89815,136.3484c0,12.05821 -3.28325,21.83333 -7.33334,21.83333c-4.05009,0 -7.33334,-9.77511 -7.33334,-21.83333c0,-12.05822 3.28324,-21.83334 7.33334,-21.83334c4.05009,0 7.33334,9.77512 7.33334,21.83334z" fill="#267b80" fill-rule="nonzero" stroke="none" stroke-width="0" stroke-linecap="butt" stroke-linejoin="miter"/><path d="M224.53893,183.62985c0,0 3.52877,-8.46154 15.61438,-8.46154c14.55505,0 16.18562,8.8 16.18562,8.8" data-paper-data="{&quot;index&quot;:null}" fill="none" fill-rule="nonzero" stroke="#267b80" stroke-width="2" stroke-linecap="round" stroke-linejoin="miter"/></g></g></svg>