<svg version="1.1" xmlns="http://www.w3.org/2000/svg" xmlns:xlink="http://www.w3.org/1999/xlink" width="35.125" height="35.12434" viewBox="0,0,35.125,35.12434"><g transform="translate(-222.43752,-162.43783)"><g data-paper-data="{&quot;isPaintingLayer&quot;:true}" stroke-miterlimit="10" stroke-dasharray="" stroke-dashoffset="0" style="mix-blend-mode: normal"><path d="M257.56251,169.8317v20.49804c0,4.00745 -3.22497,7.23243 -7.23242,7.23243h-20.5c-3.66107,0 -6.66147,-2.69385 -7.1543,-6.21484c0.7952,3.03475 3.54108,5.26367 6.83204,5.26367h20.0332c3.9166,0 7.07032,-3.15372 7.07032,-7.07031v-20.03321c0,-3.2976 -2.23906,-6.0451 -5.28321,-6.83398c3.52994,0.48496 6.23438,3.49081 6.23438,7.15821z" fill-opacity="0.29839" fill="#000000" fill-rule="evenodd" stroke="none" stroke-width="4.54219" stroke-linecap="round" stroke-linejoin="round"/><path d="M229.50719,162.43783h20.03378c3.9166,0 7.06966,3.15307 7.06966,7.06966v20.03379c0,3.91659 -3.15307,7.06966 -7.06966,7.06966h-20.03378c-3.91659,0 -7.06967,-3.15307 -7.06967,-7.06966v-20.03379c0,-3.91659 3.15308,-7.06966 7.06967,-7.06966z" fill="#ffe900" fill-rule="evenodd" stroke="none" stroke-width="4.43922" stroke-linecap="round" stroke-linejoin="round"/><g fill-rule="nonzero" stroke="#000000" stroke-width="0.5" stroke-linejoin="miter"><g stroke-linecap="butt"><path d="M228.84051,186.10071v-12.28623l1.28712,0.00001v12.28623z" fill="#fff480"/><path d="M226.38326,173.81448c0,-1.71253 1.38828,-3.10081 3.10081,-3.10081c1.71253,0 3.10081,1.38828 3.10081,3.10081c0,1.71253 -1.38828,3.10081 -3.10081,3.10081c-1.71253,0 -3.10081,-1.38828 -3.10081,-3.10081z" fill="#ffe900"/></g><path d="M242.69492,187.00923c0.57101,-1.38894 1.93742,-2.3669 3.53224,-2.3669c2.10835,0 9.60959,3.81751 9.60959,3.81751" data-paper-data="{&quot;index&quot;:null}" fill="#ffe900" stroke-linecap="butt"/><g stroke-linecap="butt"><path d="M248.76175,186.10071v-12.28623l1.28713,0.00001v12.28623z" fill="#fff480"/><path d="M246.3045,173.81448c0,-1.71253 1.38828,-3.10081 3.10081,-3.10081c1.71253,0 3.10081,1.38828 3.10081,3.10081c0,1.71253 -1.38828,3.10081 -3.10081,3.10081c-1.71253,0 -3.10081,-1.38828 -3.10081,-3.10081z" fill="#ffe900"/></g><path d="M223.33676,188.45984c0,0 7.50124,-3.81751 9.60959,-3.81751c1.56941,0 2.91764,0.94705 3.50435,2.30084" data-paper-data="{&quot;index&quot;:null}" fill="none" stroke-linecap="butt"/><path d="M228.23778,187.83905c0,-5.84506 5.04787,-10.58341 11.27473,-10.58341c6.22686,0 11.27472,4.73836 11.27472,10.58341" fill="#ffe900" stroke-linecap="butt"/><path d="M235.66808,179.2057l5.83596,-3.42259l-0.57043,2.41336l3.94914,-1.0531l-2.545,2.72052" fill="#ffea00" stroke-linecap="round"/></g></g></g></svg>