<svg version="1.1" xmlns="http://www.w3.org/2000/svg" xmlns:xlink="http://www.w3.org/1999/xlink" width="189.57622" height="276.13682" viewBox="0,0,189.57622,276.13682"><g transform="translate(-145.71189,-37.64236)"><g data-paper-data="{&quot;isPaintingLayer&quot;:true}" fill-rule="nonzero" stroke-linejoin="miter" stroke-miterlimit="10" stroke-dasharray="" stroke-dashoffset="0" style="mix-blend-mode: normal"><g stroke="#000000" stroke-width="2" stroke-linecap="butt"><path d="M179.27396,126.30904v-70l7.33332,0.00001v70z" fill="#fff480"/><path d="M165.27396,56.30904c0,-9.75702 7.90964,-17.66667 17.66666,-17.66667c9.75702,0 17.66667,7.90964 17.66667,17.66667c0,9.75702 -7.90964,17.66667 -17.66667,17.66667c-9.75702,0 -17.66666,-7.90964 -17.66666,-17.66667z" fill="#ffe900"/></g><path d="M256.58333,139.75001c0,-12.0122 9.7378,-21.75 21.75,-21.75c12.01219,0 54.75,21.75 54.75,21.75c0,0 -42.73781,21.75 -54.75,21.75c-12.0122,0 -21.75,-9.73781 -21.75,-21.75z" data-paper-data="{&quot;index&quot;:null}" fill="#fce600" stroke="#000000" stroke-width="2" stroke-linecap="butt"/><g stroke="#000000" stroke-width="2" stroke-linecap="butt"><path d="M292.77396,126.30904v-70l7.33333,0.00001v70z" fill="#fff480"/><path d="M278.77396,56.30904c0,-9.75702 7.90964,-17.66667 17.66666,-17.66667c9.75702,0 17.66667,7.90964 17.66667,17.66667c0,9.75702 -7.90965,17.66667 -17.66667,17.66667c-9.75702,0 -17.66666,-7.90964 -17.66666,-17.66667z" fill="#ffe900"/></g><path d="M179.07567,313.77919v-267.22501h123.18203v267.22501z" fill-opacity="0.01" fill="#000000" stroke="none" stroke-width="0" stroke-linecap="butt"/><path d="M202.66668,161.50001c-12.01219,0 -54.75,-21.75 -54.75,-21.75c0,0 42.73781,-21.75 54.75,-21.75c12.0122,0 21.75,9.73781 21.75,21.75c0,12.0122 -9.7378,21.75 -21.75,21.75z" data-paper-data="{&quot;index&quot;:null}" fill="#fce600" stroke="#000000" stroke-width="2" stroke-linecap="butt"/><path d="M206.75008,307.50001l15.14285,-131.8421l37.78325,-0.15789l13.57389,132z" fill="#ffe900" stroke="#000000" stroke-width="2" stroke-linecap="butt"/><path d="M219.7003,204.11266l3.12142,-26.32765l35.83075,-0.14203l2.76735,26.1059c0,0 -7.51543,4.19603 -21.55904,4.50964c-12.48458,0.27879 -20.16049,-4.14586 -20.16049,-4.14586z" fill="#e6d200" stroke="#000000" stroke-width="0" stroke-linecap="butt"/><path d="M175.83998,136.84619c0,-33.30185 28.7599,-60.29833 64.23702,-60.29833c35.47712,0 64.23702,26.99649 64.23702,60.29833c0,33.30185 -28.7599,60.29833 -64.23702,60.29833c-35.47712,0 -64.23702,-26.99649 -64.23702,-60.29833z" fill="#ffe900" stroke="#000000" stroke-width="2" stroke-linecap="butt"/><path d="M176.56304,136.90003c0,-0.72799 5.20666,55.91939 63.36046,56.93429c55.56352,0.9697 63.51358,-57.95314 63.51358,-56.93429c0,32.80479 -28.40173,59.39833 -63.43702,59.39833c-35.03529,0 -63.43702,-26.59354 -63.43702,-59.39833z" fill="#e6d200" stroke="#000000" stroke-width="0" stroke-linecap="butt"/><path d="M189.3902,137.02566c0,-12.968 10.51265,-23.48065 23.48065,-23.48065c12.968,0 23.48065,10.51265 23.48065,23.48065c0,12.968 -10.51265,23.48065 -23.48065,23.48065c-12.968,0 -23.48065,-10.51265 -23.48065,-23.48065z" fill="#ffffff" stroke="#000000" stroke-width="2" stroke-linecap="butt"/><path d="M196.45558,137.00001c0,-9.12808 7.39976,-16.52784 16.52783,-16.52784c9.12808,0 16.52784,7.39977 16.52784,16.52784c0,9.12808 -7.39977,16.52784 -16.52784,16.52784c-9.12808,0 -16.52783,-7.39977 -16.52783,-16.52784z" fill="#000000" stroke="none" stroke-width="0" stroke-linecap="butt"/><path d="M239.69908,190.82313c-4.04708,0 -12.19201,-18.16667 -12.19201,-18.16667c0,0 7.1723,2.16667 12.03184,2.16667c4.43113,0 13.07775,-2.16667 13.07775,-2.16667c0,0 -8.61094,18.16667 -12.91758,18.16667z" fill="#000000" stroke="#000000" stroke-width="2" stroke-linecap="round"/><path d="M267.12926,160.50629c-12.968,0 -23.48065,-10.51265 -23.48065,-23.48065c0,-12.968 10.51265,-23.48065 23.48065,-23.48065c12.968,0 23.48065,10.51265 23.48065,23.48065c0,12.968 -10.51265,23.48065 -23.48065,23.48065z" data-paper-data="{&quot;index&quot;:null}" fill="#ffffff" stroke="#000000" stroke-width="2" stroke-linecap="butt"/><path d="M267.01671,153.52787c-9.12807,0 -16.52783,-7.39977 -16.52783,-16.52784c0,-9.12808 7.39977,-16.52784 16.52783,-16.52784c9.12807,0 16.52783,7.39977 16.52783,16.52784c0,9.12808 -7.39977,16.52784 -16.52783,16.52784z" data-paper-data="{&quot;index&quot;:null}" fill="#000000" stroke="none" stroke-width="0" stroke-linecap="butt"/><path d="M202.02787,108.46719c0,0 6.70895,-5.16922 11.79721,-6.36355c5.08827,-1.19433 12.33413,0.69937 12.33413,0.69937c0,0 -8.03812,-0.06028 -11.96762,0.86207c-4.10648,0.96389 -12.16372,4.80211 -12.16372,4.80211z" fill="#000000" stroke="none" stroke-width="0" stroke-linecap="butt"/><path d="M265.96236,103.66509c-3.9295,-0.92235 -11.96762,-0.86207 -11.96762,-0.86207c0,0 7.24586,-1.8937 12.33413,-0.69937c5.08826,1.19433 11.79721,6.36355 11.79721,6.36355c0,0 -8.05724,-3.83822 -12.16372,-4.80211z" data-paper-data="{&quot;index&quot;:null}" fill="#000000" stroke="none" stroke-width="0" stroke-linecap="butt"/><path d="M189.30684,137.36809c0,-12.96801 10.51265,-23.48065 23.48066,-23.48065c12.96801,0 23.48065,10.51264 23.48065,23.48065c0,0 -6.95852,-14.64634 -23.43307,-14.78879c-16.22494,-0.14029 -23.52823,15.4054 -23.52823,14.78879z" fill="#ffe900" stroke="#000000" stroke-width="2" stroke-linecap="butt"/><path d="M243.64863,137.26809c0,-12.96801 10.51264,-23.48065 23.48065,-23.48065c12.96801,0 23.48066,10.51264 23.48066,23.48065c0,0.60606 -7.87275,-14.38438 -22.92496,-14.781c-15.05221,-0.39662 -24.03635,14.781 -24.03635,14.781z" data-paper-data="{&quot;index&quot;:null}" fill="#ffe900" stroke="#000000" stroke-width="2" stroke-linecap="butt"/><path d="M218.17362,87.0252l33.25,-19.5l-3.25,13.75l22.5,-6l-14.5,15.5" fill="#ffea00" stroke="#000000" stroke-width="2" stroke-linecap="round"/></g></g></svg>