<svg version="1.1" xmlns="http://www.w3.org/2000/svg" xmlns:xlink="http://www.w3.org/1999/xlink" width="160.02191" height="279.94219" viewBox="0,0,160.02191,279.94219"><defs><linearGradient x1="240.00008" y1="175.50001" x2="240.00008" y2="307.50001" gradientUnits="userSpaceOnUse" id="color-1"><stop offset="0" stop-color="#000000"/><stop offset="1" stop-color="#1f6625"/></linearGradient><linearGradient x1="230.6178" y1="83.41578" x2="230.32774" y2="213.41327" gradientUnits="userSpaceOnUse" id="color-2"><stop offset="0" stop-color="#071a09"/><stop offset="1" stop-color="#26802e"/></linearGradient><linearGradient x1="260.26824" y1="149.51498" x2="260.13904" y2="207.41485" gradientUnits="userSpaceOnUse" id="color-3"><stop offset="0" stop-color="#1a0000"/><stop offset="1" stop-color="#800000"/></linearGradient><linearGradient x1="202.55487" y1="145.71955" x2="202.41788" y2="207.1194" gradientUnits="userSpaceOnUse" id="color-4"><stop offset="0" stop-color="#1a0000"/><stop offset="1" stop-color="#800000"/></linearGradient><linearGradient x1="272.22034" y1="80.12654" x2="272.02008" y2="169.88495" gradientUnits="userSpaceOnUse" id="color-5"><stop offset="0" stop-color="#000000"/><stop offset="1" stop-color="#331b00"/></linearGradient><linearGradient x1="183.03872" y1="80.16832" x2="188.66963" y2="161.0321" gradientUnits="userSpaceOnUse" id="color-6"><stop offset="0" stop-color="#000000"/><stop offset="1" stop-color="#1a0e00"/></linearGradient><linearGradient x1="187.11368" y1="83.49675" x2="193.24055" y2="171.4829" gradientUnits="userSpaceOnUse" id="color-7"><stop offset="0" stop-color="#000000"/><stop offset="1" stop-color="#331b00"/></linearGradient><linearGradient x1="183.90327" y1="80.57043" x2="191.61073" y2="191.25485" gradientUnits="userSpaceOnUse" id="color-8"><stop offset="0" stop-color="#000000"/><stop offset="1" stop-color="#4d2900"/></linearGradient><linearGradient x1="232.25749" y1="87.03565" x2="234.88474" y2="124.76479" gradientUnits="userSpaceOnUse" id="color-9"><stop offset="0" stop-color="#000000"/><stop offset="1" stop-color="#1a0e00"/></linearGradient><linearGradient x1="261.82016" y1="78.52603" x2="266.29064" y2="142.72527" gradientUnits="userSpaceOnUse" id="color-10"><stop offset="0" stop-color="#000000"/><stop offset="1" stop-color="#4d2900"/></linearGradient><linearGradient x1="205.20803" y1="83.96653" x2="210.21424" y2="155.85916" gradientUnits="userSpaceOnUse" id="color-11"><stop offset="0" stop-color="#000000"/><stop offset="1" stop-color="#4d2900"/></linearGradient><linearGradient x1="256.43142" y1="112.91706" x2="256.30941" y2="167.59842" gradientUnits="userSpaceOnUse" id="color-12"><stop offset="0" stop-color="#000000" stop-opacity="0"/><stop offset="1" stop-color="#000000" stop-opacity="0.49989"/></linearGradient><radialGradient cx="271.3121" cy="57.15096" r="23.48065" gradientUnits="userSpaceOnUse" id="color-13"><stop offset="0" stop-color="#808080"/><stop offset="1" stop-color="#1a0000"/></radialGradient><linearGradient x1="204.9538" y1="121.27614" x2="204.8507" y2="167.4836" gradientUnits="userSpaceOnUse" id="color-14"><stop offset="0" stop-color="#010401" stop-opacity="0"/><stop offset="1" stop-color="#010401" stop-opacity="0.49989"/></linearGradient><radialGradient cx="177.76882" cy="76.4423" r="23.48065" gradientUnits="userSpaceOnUse" id="color-15"><stop offset="0" stop-color="#808080"/><stop offset="1" stop-color="#1a0000"/></radialGradient></defs><g transform="translate(-148.70377,-33.67032)"><g data-paper-data="{&quot;isPaintingLayer&quot;:true}" fill-rule="nonzero" stroke-linejoin="miter" stroke-miterlimit="10" stroke-dasharray="" stroke-dashoffset="0" style="mix-blend-mode: normal"><path d="M179.28377,313.61251v-267.22501h123.18203v267.22501z" fill-opacity="0.01" fill="#000000" stroke="none" stroke-width="0" stroke-linecap="butt"/><g fill="#000000" stroke="#000000" stroke-width="0" stroke-linecap="butt"><path d="M266.78526,233.23895c-12.97342,-0.30513 -18.28664,-121.45311 -18.28664,-121.45311l12.52052,-2.62799c0,0 18.35377,124.37717 5.76613,124.0811z" data-paper-data="{&quot;index&quot;:null}"/><path d="M193.53755,94.67742l12.7639,0.86732c0,0 12.77919,138.67168 -0.02673,140.77195c-12.42512,2.03782 -12.73717,-141.63926 -12.73717,-141.63926z"/><path d="M196.9995,227.71114c-12.95281,-0.79201 -11.85779,-105.1294 -11.85779,-105.1294l12.61035,-2.15605c0,0 11.81509,108.05393 -0.75256,107.28547z" data-paper-data="{&quot;index&quot;:null}"/><path d="M180.60342,218.07656c-11.96852,-1.18812 -5.98872,-97.58938 -5.98872,-97.58938l12.68295,-1.67699c0,0 5.8353,100.51018 -6.69424,99.26637z" data-paper-data="{&quot;index&quot;:null}"/><path d="M275.30877,221.28464c-12.97342,-0.30513 -16.40915,-108.8865 -16.40915,-108.8865l12.52051,-2.62799c0,0 16.47628,111.81057 3.88864,111.51451z" data-paper-data="{&quot;index&quot;:null}"/><path d="M288.0338,207.42598c-12.96551,0.54615 -24.44452,-77.64108 -24.44452,-77.64108l12.32126,-3.44327c0,0 24.70322,80.55444 12.12325,81.08435z" data-paper-data="{&quot;index&quot;:null}"/><path d="M290.40691,184.74558c-7.08303,-1.49653 1.85839,-14.76387 -2.78507,-26.90999c-3.98324,-10.41913 2.09905,-15.50572 6.08283,-5.0868c3.72256,9.73575 4.69868,33.68631 -3.29776,31.99679z" data-paper-data="{&quot;index&quot;:null}"/></g><path d="M206.75008,307.5l15.14285,-131.8421l37.78325,-0.15789l13.57389,132z" fill="url(#color-1)" stroke="#000000" stroke-width="0" stroke-linecap="butt"/><path d="M166.2464,143.57062c0.0743,-33.30176 28.89436,-60.23401 64.37139,-60.15485c35.47703,0.07916 64.17663,27.13975 64.10232,60.4415c-0.0743,33.30176 -30.71582,69.34927 -60.39238,69.56375c-25.27725,0.18269 -68.15564,-36.54864 -68.08134,-69.85041z" fill="url(#color-2)" stroke="#000000" stroke-width="0" stroke-linecap="butt"/><path d="M252.92117,207.39874c0,0 -1.08264,-18.9687 -3.85651,-28.28755c-2.64613,-8.88974 -12.42152,-26.39891 -12.42152,-26.39891l44.00714,-3.15182c0,0 2.51224,9.69287 2.97212,14.22147c0.51283,5.05002 -0.03661,14.68515 -0.03661,14.68515l-3.99207,-13.54715c0,0 0.2049,2.33206 0.12638,4.66717c-0.06239,1.85541 -0.30371,3.71275 -0.96889,4.40371c-1.21967,1.26688 -1.24853,-1.23143 -1.78189,-3.46633c-0.39487,-1.65457 -1.45373,-3.10106 -1.45373,-3.10106c0,0 1.24652,4.21689 1.36307,7.88116c0.09314,2.92834 -0.79328,5.39994 -1.71643,5.84839c-1.62491,0.78938 -1.57852,-2.14835 -2.06192,-4.3586c-0.32531,-1.48738 -1.2032,-2.64603 -1.81331,-2.11508c-1.51675,1.31993 -3.98923,-2.37569 -3.98923,-2.37569c0,0 2.14857,4.80703 3.13158,9.23483c1.35282,6.0936 1.64547,12.36545 1.49738,12.5312c-0.40561,0.45398 -1.45844,-4.71145 -3.12287,-7.79098c-0.78887,-1.45957 -2.15843,-2.3408 -2.83967,-2.1366c-0.9003,0.26985 -3.17146,-5.14003 -3.17146,-5.14003c0,0 -0.45204,2.70892 -0.01513,5.61864c0.47372,3.15476 0.10456,6.85618 -1.23882,6.95904c-2.67616,0.20491 -0.53201,-2.55006 -2.00688,-6.6853c-1.67475,-4.69566 -2.41039,-10.6941 -2.41039,-10.6941c0,0 -3.13332,10.68768 -3.54946,17.73934c-0.27116,4.59502 -0.65086,15.45909 -0.65086,15.45909z" fill="url(#color-3)" stroke="#000000" stroke-width="0" stroke-linecap="butt"/><path d="M187.41611,187.18588c0,0 -3.3786,-10.07639 -3.21431,-17.29557c0.15824,-6.95321 1.7069,-24.20789 1.7069,-24.20789l34.92403,11.67795c0,0 -7.8815,11.19587 -9.46316,22.19511c-1.6019,11.14004 3.15206,27.59093 3.15206,27.59093c0,0 -3.79877,-10.94659 -4.84144,-15.00576c-0.52538,-2.04541 -1.01146,-7.78042 -1.01146,-7.78042c0,0 0.33867,11.88234 -1.21797,6.24447c-0.58888,-2.1328 -1.57981,-4.16017 -1.92611,-7.76437c-0.3735,-3.88743 -0.07949,-9.28275 -0.07949,-9.28275c0,0 -0.76585,7.58965 -2.38652,6.59717c-6.33677,-3.88053 2.87427,22.96074 -3.21878,18.70774c-0.22312,-0.15575 -1.63524,-5.63223 -2.17291,-11.23772c-0.57261,-5.9698 -0.26523,-12.0862 -0.26523,-12.0862c0,0 -0.94798,1.28082 -1.3796,2.81558c-0.67173,2.38849 -1.04084,5.38988 -1.94687,5.11932c-0.99622,-0.2975 -1.24287,-2.83505 -1.22124,-6.16578c0.02468,-3.80031 0.39818,-8.43196 0.39818,-8.43196c0,0 -1.07614,3.74381 -1.72096,7.39719c-0.60988,3.45541 -0.76365,6.83008 -1.64725,6.8743c-0.51632,0.02584 -1.71468,-3.81976 -2.1147,-7.46381c-0.39148,-3.56621 0.00983,-6.9323 0.00983,-6.9323c0,0 -0.57745,4.08073 -0.62591,6.54193c-0.06664,3.38457 0.26294,11.89287 0.26294,11.89287z" fill="url(#color-4)" stroke="none" stroke-width="0" stroke-linecap="butt"/><path d="M179.62915,143.94663c0.02893,-12.96796 10.56501,-23.45713 23.53298,-23.4282c12.96796,0.02893 23.45713,10.56501 23.4282,23.53298c-0.02893,12.96796 -10.56501,23.45713 -23.53298,23.4282c-12.96796,-0.02893 -23.45713,-10.56501 -23.4282,-23.53298z" fill="#000000" stroke="#000000" stroke-width="0" stroke-linecap="butt"/><path d="M257.56563,167.60122c-12.96796,-0.02893 -23.45713,-10.56501 -23.4282,-23.53298c0.02893,-12.96796 10.56501,-23.45713 23.53298,-23.4282c12.96796,0.02893 23.45713,10.56501 23.4282,23.53298c-0.02893,12.96796 -10.56501,23.45713 -23.53298,23.4282z" data-paper-data="{&quot;index&quot;:null}" fill="#000000" stroke="#000000" stroke-width="0" stroke-linecap="butt"/><path d="M175.98437,141.03854l3.59419,2.60803" fill="none" stroke="#000000" stroke-width="2" stroke-linecap="round"/><path d="M304.87593,159.86836c-13.09328,3.12623 -9.2774,-27.79589 -28.33592,-49.62547c-22.37996,-25.63394 -47.2647,-21.79934 -42.97863,-29.03865c5.42324,-9.16001 33.12463,0.34899 50.00468,17.72949c11.39027,11.72797 34.23989,57.84738 21.30987,60.93463z" data-paper-data="{&quot;index&quot;:null}" fill="#000000" stroke="#000000" stroke-width="0" stroke-linecap="butt"/><path d="M280.37874,143.67148l4.20758,-3.39063" fill="none" stroke="#000000" stroke-width="2" stroke-linecap="round"/><path d="M300.282,169.89886c-13.38801,1.40301 -5.5969,-28.76381 -21.66563,-52.87922c-18.86913,-28.31815 -44.04097,-27.74087 -38.85284,-34.36368c6.56462,-8.37992 32.80004,4.6389 47.28526,24.06045c9.7743,13.10522 26.45426,61.79694 13.2332,63.18245z" data-paper-data="{&quot;index&quot;:null}" fill="url(#color-5)" stroke="#000000" stroke-width="0" stroke-linecap="butt"/><path d="M180.26399,132.33918c6.92325,-8.74603 11.20147,-2.07037 4.27868,6.67603c-8.07026,10.19612 -3.51612,25.53336 -10.72208,24.8383c-8.13522,-0.78471 -0.02589,-23.34177 6.4434,-31.51431z" data-paper-data="{&quot;index&quot;:null}" fill="#4d2900" stroke="#000000" stroke-width="2" stroke-linecap="butt"/><path d="M245.23488,90.74304c0,0 20.62089,-12.57655 20.54632,-22.74106c-0.00795,-1.08421 2.39792,-2.3916 5.50558,-2.53103c2.43026,-0.10903 5.67787,0.62658 5.96971,1.88006c2.94435,12.64587 -8.92381,33.88599 -8.92381,33.88599c0,0 -3.72743,4.21586 -14.21946,-0.58332c-9.5412,-4.36427 -8.87833,-9.91064 -8.87833,-9.91064z" fill="#000000" stroke="#000000" stroke-width="0" stroke-linecap="butt"/><path d="M245.88181,180.31489c3.58895,11.55642 -2.45349,26.90334 -9.04597,30.09412c-6.59249,3.19078 -18.03458,-8.79805 -21.62352,-20.35447c-3.58894,-11.55641 2.03429,-18.30426 8.62678,-21.49503c6.59249,-3.19078 18.45376,0.19897 22.0427,11.75538z" fill="#000000" stroke="#000000" stroke-width="2" stroke-linecap="butt"/><g stroke="#000000" stroke-width="0" stroke-linecap="butt"><path d="M163.41717,150.68387c8.4252,-7.3103 11.39112,0.043 2.9663,7.35374c-9.82125,8.52249 -8.19063,24.43829 -15.14266,22.41883c-7.84854,-2.27988 4.3036,-22.94162 12.17635,-29.77257z" data-paper-data="{&quot;index&quot;:null}" fill="#000000"/><path d="M172.24242,101.32365c16.04,-18.15865 43.26116,-28.96587 49.11114,-20.07232c4.62334,7.02872 -20.41479,4.37415 -41.55861,31.03688c-18.00583,22.70568 -12.73321,53.41296 -25.95957,50.90886c-13.06143,-2.47287 7.58361,-49.62037 18.40704,-61.87342z" fill="url(#color-6)"/><path d="M174.48758,109.81662c13.7261,-19.96527 39.44038,-33.98537 46.32302,-25.86462c5.43947,6.41797 -19.73591,6.81107 -37.49984,35.83528c-15.12757,24.71668 -6.17981,54.56087 -19.61194,53.67479c-13.26464,-0.87504 1.52669,-50.17332 10.78876,-63.64544z" fill="url(#color-7)"/><path d="M240.2879,79.97027c0.02753,2.92499 -6.86302,5.20541 -15.39049,5.09345c-8.52747,-0.11196 -15.46267,-2.57389 -15.49021,-5.49889c-0.02753,-2.92499 6.86302,-5.20541 15.39049,-5.09345c8.52747,0.11196 15.46267,2.57389 15.49021,5.49889z" fill="#000000"/><path d="M170.55163,137.85736c9.68849,-15.15777 18.61255,-27.48825 23.52144,-35.82879c6.15165,-10.45206 12.43196,-25.81764 19.7212,-23.08939c7.61192,2.84903 1.04653,20.61934 -5.30753,31.4153c-4.88822,8.30541 -19.78426,23.13395 -29.42777,38.22305c-12.08595,18.91078 -1.60044,44.45577 -14.09496,44.5145c-14.10579,0.0663 -4.10087,-40.07691 5.58763,-55.23468z" fill="url(#color-8)"/><path d="M177.23949,144.30976c8.15359,-16.03571 21.52239,-29.47215 25.58876,-38.25434c5.09581,-11.00551 9.83727,-26.91342 17.35914,-24.91396c7.85486,2.08797 3.06577,20.41699 -2.19771,31.78461c-4.04923,8.74519 -20.11338,21.02622 -28.22894,36.98916c-10.17101,20.00596 -2.92669,44.68756 -16.73634,41.81159c-10.85408,-2.26044 -3.93848,-31.38137 4.2151,-47.41707z" fill="#000000"/><path d="M233.67055,124.75708c-7.16073,-1.06435 0.95988,-14.84939 -4.41144,-26.69163c-4.6076,-10.15847 1.15512,-15.60446 5.76324,-5.44623c4.30597,9.49214 6.73235,33.33947 -1.35181,32.13786z" data-paper-data="{&quot;index&quot;:null}" fill="url(#color-9)"/><path d="M297.22068,139.24785c-11.99827,7.40778 -10.3773,-12.20558 -23.67583,-21.76521c-10.61102,-7.62773 -27.71939,-9.61623 -33.17112,-13.9518c-7.08656,-5.63568 -17.63635,-17.41334 -10.90298,-21.93371c6.44793,-4.32874 16.46609,5.82455 23.32692,11.28072c5.4748,4.3539 20.36115,8.19145 31.02151,15.85354c10.66035,7.66207 22.8319,24.69413 13.40152,30.51647z" data-paper-data="{&quot;index&quot;:null}" fill="url(#color-10)"/><path d="M189.41619,123.72472c7.65449,-10.66579 20.53523,-19.05728 24.3325,-24.93186c4.75863,-7.3618 9.04074,-18.2219 16.53357,-16.17951c7.82452,2.1328 3.55748,14.70199 -1.35771,22.30602c-3.78129,5.84983 -19.35824,13.19888 -26.97696,23.81637c-9.54835,13.30663 -1.74744,31.37475 -15.48336,28.1875c-10.79613,-2.5051 -4.70252,-22.53273 2.95197,-33.19852z" fill="url(#color-11)"/></g><path d="M257.56563,167.60122c-5.8934,-0.01315 -11.27485,-2.19637 -15.38977,-5.79171c-17.6881,-15.45463 6.27756,-26.46032 15.29574,-51.33776c8.79144,-24.25199 1.00976,-54.49673 1.00976,-54.49673l13.74265,16.58594c0,0 6.32308,19.04822 4.69876,37.30936c-1.51996,17.08803 -1.16107,49.31657 -2.71901,50.8712c-4.26018,4.25113 -10.14426,6.87421 -16.63815,6.85971z" data-paper-data="{&quot;index&quot;:null}" fill="#0f3312" stroke="#000000" stroke-width="0" stroke-linecap="butt"/><path d="M258.06563,167.60233c-5.8934,-0.01315 -11.27485,-2.19637 -15.38977,-5.79171c-15.05311,-13.15236 0.06162,-23.08256 10.45741,-41.08276c8.32537,-14.4153 23.7891,-7.38236 23.26546,9.2561c-0.46691,14.83609 -0.64868,29.7146 -1.69495,30.75865c-4.26018,4.25113 -10.14426,6.87421 -16.63815,6.85971z" data-paper-data="{&quot;index&quot;:null}" fill="url(#color-12)" stroke="#000000" stroke-width="0" stroke-linecap="butt"/><path d="M271.25971,80.63156c-12.96796,-0.02893 -23.45713,-10.56501 -23.4282,-23.53298c0.02893,-12.96796 10.56501,-23.45713 23.53298,-23.4282c12.96796,0.02893 23.45713,10.56501 23.4282,23.53298c-0.02893,12.96796 -10.56501,23.45713 -23.53298,23.4282z" data-paper-data="{&quot;index&quot;:null}" fill="url(#color-13)" stroke="#000000" stroke-width="0" stroke-linecap="butt"/><path d="M274.42332,68.91015c-9.12805,-0.02037 -16.51128,-7.43663 -16.49091,-16.56468c0.02037,-9.12806 7.43663,-16.51129 16.56467,-16.49092c9.12805,0.02037 16.51128,7.43663 16.49091,16.56468c-0.02037,9.12806 -7.43663,16.51129 -16.56467,16.49092z" data-paper-data="{&quot;index&quot;:null}" fill="#000000" stroke="none" stroke-width="0" stroke-linecap="butt"/><path d="M184.73432,88.1439l4.86546,-17.07956c0,0 19.65445,19.3794 27.94457,38.90788c9.55014,22.49663 7.61531,45.85327 2.38504,50.91018c-4.23747,4.097 -10.0123,6.61252 -16.37205,6.59834c-6.59635,-0.01472 -12.55132,-2.74805 -16.80688,-7.13719c-2.21882,-2.28848 10.70582,-24.11308 10.79755,-42.82346c0.07821,-15.95246 -12.81372,-29.37617 -12.81372,-29.37617z" fill="#0f3312" stroke="#000000" stroke-width="0" stroke-linecap="butt"/><path d="M223.05274,131.92034c1.89771,14.01678 -0.12614,25.57965 -3.62335,28.96094c-4.23747,4.097 -10.0123,6.61252 -16.37205,6.59834c-6.59635,-0.01472 -12.55132,-2.74805 -16.80688,-7.13719c-2.07237,-2.13742 9.06559,-21.3171 10.61971,-39.0843c0,0 9.55278,-0.86995 13.82551,0.87002c4.44775,1.81125 12.35705,9.79221 12.35705,9.79221z" fill="url(#color-14)" stroke="#000000" stroke-width="0" stroke-linecap="butt"/><path d="M177.82121,52.9617c12.96796,0.02893 23.45713,10.56501 23.4282,23.53298c-0.02893,12.96796 -10.56501,23.45713 -23.53298,23.4282c-12.96796,-0.02893 -23.45713,-10.56501 -23.4282,-23.53298c0.02893,-12.96796 10.56501,-23.45713 23.53298,-23.4282z" data-paper-data="{&quot;index&quot;:null}" fill="url(#color-15)" stroke="#000000" stroke-width="0" stroke-linecap="butt"/><path d="M173.65761,64.68087c9.12805,0.02037 16.51128,7.43663 16.49091,16.56468c-0.02037,9.12806 -7.43663,16.51129 -16.56467,16.49092c-9.12805,-0.02037 -16.51128,-7.43663 -16.49091,-16.56468c0.02037,-9.12806 7.43663,-16.51129 16.56467,-16.49092z" data-paper-data="{&quot;index&quot;:null}" fill="#000000" stroke="none" stroke-width="0" stroke-linecap="butt"/></g></g></svg>