<svg version="1.1" xmlns="http://www.w3.org/2000/svg" xmlns:xlink="http://www.w3.org/1999/xlink" width="171.24526" height="267.22501" viewBox="0,0,171.24526,267.22501"><g transform="translate(-154.16813,-46.38751)"><g data-paper-data="{&quot;isPaintingLayer&quot;:true}" fill-rule="nonzero" stroke-linejoin="miter" stroke-miterlimit="10" stroke-dasharray="" stroke-dashoffset="0" style="mix-blend-mode: normal"><path d="M179.28372,313.61252v-267.22501h123.18203v267.22501z" fill-opacity="0.01" fill="#000000" stroke="none" stroke-width="0" stroke-linecap="butt"/><path d="M265.98435,99.15801c8.3699,-8.95381 57.87822,-27.76515 57.87822,-27.76515c0,0 -15.43499,50.66262 -23.80489,59.61643c-8.3699,8.95381 -22.78262,9.08215 -32.19171,0.28667c-9.40909,-8.79548 -10.25152,-23.18413 -1.88162,-32.13794z" data-paper-data="{&quot;index&quot;:null}" fill="#666666" stroke="#000000" stroke-width="2" stroke-linecap="butt"/><path d="M211.71554,131.29596c-9.40909,8.79548 -23.82181,8.66714 -32.19171,-0.28667c-8.3699,-8.95381 -23.80489,-59.61643 -23.80489,-59.61643c0,0 49.50832,18.81134 57.87822,27.76515c8.3699,8.95381 7.52747,23.34246 -1.88162,32.13794z" data-paper-data="{&quot;index&quot;:null}" fill="#666666" stroke="#000000" stroke-width="2" stroke-linecap="butt"/><path d="M206.75,307.5l15.14285,-131.8421l37.78325,-0.15789l13.57389,132z" fill="#808080" stroke="#000000" stroke-width="2" stroke-linecap="butt"/><path d="M219.70025,204.11264l3.12142,-26.32765l35.83075,-0.14203l2.76735,26.1059c0,0 -7.51543,4.19603 -21.55904,4.50964c-12.48458,0.27879 -20.16049,-4.14586 -20.16049,-4.14586z" fill="#666666" stroke="#000000" stroke-width="0" stroke-linecap="butt"/><path d="M175.76298,137c0,-33.30185 28.7599,-60.29833 64.23702,-60.29833c35.47713,0 64.23702,26.99648 64.23702,60.29833c0,33.30185 -28.75989,60.29834 -64.23702,60.29834c-35.47712,0 -64.23702,-26.99649 -64.23702,-60.29834z" fill="#808080" stroke="#000000" stroke-width="2" stroke-linecap="butt"/><path d="M189.39012,138.52563c0,-12.96801 10.51265,-23.48065 23.48066,-23.48065c12.96801,0 23.48065,10.51264 23.48065,23.48065c0,12.96801 -10.51264,23.48066 -23.48065,23.48066c-12.96801,0 -23.48066,-10.51265 -23.48066,-23.48066z" fill="#000000" stroke="#000000" stroke-width="2" stroke-linecap="butt"/><path d="M189.39012,137.27563c0,-12.96801 10.51265,-23.48065 23.48066,-23.48065c12.96801,0 23.48065,10.51264 23.48065,23.48065c0,12.96801 -10.51264,23.48066 -23.48065,23.48066c-12.96801,0 -23.48066,-10.51265 -23.48066,-23.48066z" fill="#ffffff" stroke="#000000" stroke-width="2" stroke-linecap="butt"/><path d="M196.25552,137c0,-9.12807 7.39976,-16.52784 16.52783,-16.52784c9.12807,0 16.52784,7.39977 16.52784,16.52785c0,9.12807 -7.39977,16.52785 -16.52784,16.52785c-9.12807,0 -16.52783,-7.39977 -16.52783,-16.52785z" fill="#1a1a1a" stroke="none" stroke-width="0" stroke-linecap="butt"/><path d="M203.85552,137c0,-4.93071 3.99713,-8.92784 8.92784,-8.92784c4.93071,0 8.92784,3.99713 8.92784,8.92785c0,4.93071 -3.99713,8.92785 -8.92784,8.92785c-4.93071,0 -8.92784,-3.99714 -8.92784,-8.92785z" fill="#ffffff" stroke="none" stroke-width="0" stroke-linecap="butt"/><path d="M252.61659,176.65644h-25.1096" fill="none" stroke="#000000" stroke-width="2" stroke-linecap="round"/><path d="M189.39012,137.27563c0,-12.96801 10.51265,-23.48065 23.48066,-23.48065c12.96801,0 23.48065,10.51264 23.48065,23.48065c0,0 -46.96131,1.23155 -46.96131,0z" fill="#000000" stroke="#000000" stroke-width="2" stroke-linecap="butt"/><path d="M267.12922,162.00629c-12.96801,0 -23.48065,-10.51265 -23.48065,-23.48066c0,-12.96801 10.51264,-23.48065 23.48065,-23.48065c12.96801,0 23.48066,10.51264 23.48066,23.48065c0,12.96801 -10.51265,23.48066 -23.48066,23.48066z" data-paper-data="{&quot;index&quot;:null}" fill="#000000" stroke="#000000" stroke-width="2" stroke-linecap="butt"/><path d="M267.12922,160.75629c-12.96801,0 -23.48065,-10.51265 -23.48065,-23.48066c0,-12.96801 10.51264,-23.48065 23.48065,-23.48065c12.96801,0 23.48066,10.51264 23.48066,23.48065c0,12.96801 -10.51265,23.48066 -23.48066,23.48066z" data-paper-data="{&quot;index&quot;:null}" fill="#ffffff" stroke="#000000" stroke-width="2" stroke-linecap="butt"/><path d="M283.74448,137c0,9.12808 -7.39976,16.52785 -16.52783,16.52785c-9.12807,0 -16.52784,-7.39978 -16.52784,-16.52785c0,-9.12808 7.39977,-16.52785 16.52784,-16.52785c9.12807,0 16.52783,7.39977 16.52783,16.52784z" data-paper-data="{&quot;index&quot;:null}" fill="#1a1a1a" stroke="none" stroke-width="0" stroke-linecap="butt"/><path d="M276.14448,137c0,4.93071 -3.99712,8.92785 -8.92783,8.92785c-4.93071,0 -8.92784,-3.99714 -8.92784,-8.92785c0,-4.93071 3.99714,-8.92785 8.92784,-8.92785c4.93071,0 8.92783,3.99713 8.92783,8.92784z" data-paper-data="{&quot;index&quot;:null}" fill="#ffffff" stroke="none" stroke-width="0" stroke-linecap="butt"/><path d="M176.56301,136.9c0,-0.72799 5.20666,55.91939 63.36046,56.93429c55.56352,0.9697 63.51358,-57.95314 63.51358,-56.93429c0,32.80479 -28.40173,59.39833 -63.43702,59.39833c-35.03529,0 -63.43702,-26.59354 -63.43702,-59.39833z" fill="#666666" stroke="#000000" stroke-width="0" stroke-linecap="butt"/><path d="M243.64857,137.27563c0,-12.96801 10.51264,-23.48065 23.48065,-23.48065c12.96801,0 23.48066,10.51264 23.48066,23.48065c0,1.23155 -46.96131,0 -46.96131,0z" data-paper-data="{&quot;index&quot;:null}" fill="#000000" stroke="#000000" stroke-width="2" stroke-linecap="butt"/><path d="M202.02782,108.46717c0,0 6.70895,-5.16922 11.79721,-6.36355c5.08827,-1.19433 12.33413,0.69937 12.33413,0.69937c0,0 -8.03812,-0.06028 -11.96762,0.86207c-4.10648,0.96389 -12.16372,4.80211 -12.16372,4.80211z" fill="#000000" stroke="none" stroke-width="0" stroke-linecap="butt"/><path d="M265.96236,103.66507c-3.9295,-0.92235 -11.96762,-0.86207 -11.96762,-0.86207c0,0 7.24586,-1.8937 12.33413,-0.69937c5.08826,1.19433 11.79721,6.36355 11.79721,6.36355c0,0 -8.05724,-3.83822 -12.16372,-4.80211z" data-paper-data="{&quot;index&quot;:null}" fill="#000000" stroke="none" stroke-width="0" stroke-linecap="butt"/><path d="M193.58889,163.91643c0,-0.41421 0.33579,-0.75 0.75,-0.75c0.41421,0 0.75,0.33579 0.75,0.75c0,0.41421 -0.33579,0.75 -0.75,0.75c-0.41421,0 -0.75,-0.33579 -0.75,-0.75z" fill="#000000" stroke="none" stroke-width="0.5" stroke-linecap="butt"/><path d="M204.38889,168.31643c0,-0.41421 0.33579,-0.75 0.75,-0.75c0.41421,0 0.75,0.33579 0.75,0.75c0,0.41421 -0.33579,0.75 -0.75,0.75c-0.41421,0 -0.75,-0.33579 -0.75,-0.75z" fill="#000000" stroke="none" stroke-width="0.5" stroke-linecap="butt"/><path d="M198.18889,173.11643c0,-0.41421 0.33579,-0.75 0.75,-0.75c0.41421,0 0.75,0.33579 0.75,0.75c0,0.41421 -0.33579,0.75 -0.75,0.75c-0.41421,0 -0.75,-0.33579 -0.75,-0.75z" fill="#000000" stroke="none" stroke-width="0.5" stroke-linecap="butt"/><path d="M285.66112,164.66643c-0.41422,0 -0.75,-0.33578 -0.75,-0.75c0,-0.41422 0.33578,-0.75 0.75,-0.75c0.41422,0 0.75,0.33578 0.75,0.75c0,0.41422 -0.33578,0.75 -0.75,0.75z" data-paper-data="{&quot;index&quot;:null}" fill="#000000" stroke="none" stroke-width="0.5" stroke-linecap="butt"/><path d="M274.86112,169.06643c-0.41422,0 -0.75,-0.33578 -0.75,-0.75c0,-0.41422 0.33578,-0.75 0.75,-0.75c0.41422,0 0.75,0.33578 0.75,0.75c0,0.41422 -0.33578,0.75 -0.75,0.75z" data-paper-data="{&quot;index&quot;:null}" fill="#000000" stroke="none" stroke-width="0.5" stroke-linecap="butt"/><path d="M281.06111,173.86643c-0.41422,0 -0.75,-0.33578 -0.75,-0.75c0,-0.41422 0.33578,-0.75 0.75,-0.75c0.41422,0 0.75,0.33578 0.75,0.75c0,0.41422 -0.33578,0.75 -0.75,0.75z" data-paper-data="{&quot;index&quot;:null}" fill="#000000" stroke="none" stroke-width="0.5" stroke-linecap="butt"/></g></g></svg>