<svg version="1.1" xmlns="http://www.w3.org/2000/svg" xmlns:xlink="http://www.w3.org/1999/xlink" width="183.85245" height="271.77377" viewBox="0,0,183.85245,271.77377"><defs><linearGradient x1="193.58741" y1="67.18629" x2="201.34296" y2="101.65795" gradientUnits="userSpaceOnUse" id="color-1"><stop offset="0" stop-color="#332f00"/><stop offset="1" stop-color="#998c00"/></linearGradient><linearGradient x1="240.16675" y1="175.50002" x2="240.16675" y2="307.50002" gradientUnits="userSpaceOnUse" id="color-2"><stop offset="0" stop-color="#000000"/><stop offset="1" stop-color="#665e00"/></linearGradient><linearGradient x1="287.62703" y1="149.66393" x2="362.26144" y2="132.87242" gradientUnits="userSpaceOnUse" id="color-3"><stop offset="0" stop-color="#000000"/><stop offset="1" stop-color="#4d4600"/></linearGradient><linearGradient x1="304.31951" y1="42.27339" x2="312.07506" y2="76.74508" gradientUnits="userSpaceOnUse" id="color-4"><stop offset="0" stop-color="#332f00"/><stop offset="1" stop-color="#998c00"/></linearGradient><linearGradient x1="181.61038" y1="173.5159" x2="256.2448" y2="156.72439" gradientUnits="userSpaceOnUse" id="color-5"><stop offset="0" stop-color="#4d4600"/><stop offset="1" stop-color="#000000"/></linearGradient><linearGradient x1="257.65054" y1="91.62613" x2="284.12112" y2="209.28182" gradientUnits="userSpaceOnUse" id="color-6"><stop offset="0" stop-color="#1a1700"/><stop offset="1" stop-color="#807500"/></linearGradient><linearGradient x1="259.91072" y1="81.86944" x2="265.01403" y2="104.55245" gradientUnits="userSpaceOnUse" id="color-7"><stop offset="0" stop-color="#4d4600"/><stop offset="1" stop-color="#1a1700"/></linearGradient><radialGradient cx="239.52509" cy="138.04782" r="23.48065" gradientUnits="userSpaceOnUse" id="color-8"><stop offset="0" stop-color="#403a00"/><stop offset="1" stop-color="#403a00" stop-opacity="0"/></radialGradient><radialGradient cx="293.1969" cy="125.76755" r="23.48065" gradientUnits="userSpaceOnUse" id="color-9"><stop offset="0" stop-color="#403a00"/><stop offset="1" stop-color="#403a00" stop-opacity="0"/></radialGradient><linearGradient x1="302.68286" y1="149.87789" x2="307.19091" y2="169.50776" gradientUnits="userSpaceOnUse" id="color-10"><stop offset="0" stop-color="#1a1a1a"/><stop offset="1" stop-color="#333333"/></linearGradient><linearGradient x1="298.0814" y1="150.38686" x2="302.25836" y2="174.28333" gradientUnits="userSpaceOnUse" id="color-11"><stop offset="0" stop-color="#333333"/><stop offset="1" stop-color="#4d4d4d"/></linearGradient><linearGradient x1="290.84387" y1="149.07799" x2="294.67214" y2="179.08259" gradientUnits="userSpaceOnUse" id="color-12"><stop offset="0" stop-color="#4d4d4d"/><stop offset="1" stop-color="#666666"/></linearGradient><linearGradient x1="278.24219" y1="151.19972" x2="285.28424" y2="182.50008" gradientUnits="userSpaceOnUse" id="color-13"><stop offset="0" stop-color="#666666"/><stop offset="1" stop-color="#808080"/></linearGradient><linearGradient x1="241.84287" y1="163.5686" x2="245.68936" y2="183.33876" gradientUnits="userSpaceOnUse" id="color-14"><stop offset="0" stop-color="#1a1a1a"/><stop offset="1" stop-color="#333333"/></linearGradient><linearGradient x1="244.97973" y1="161.93212" x2="251.70261" y2="185.24076" gradientUnits="userSpaceOnUse" id="color-15"><stop offset="0" stop-color="#333333"/><stop offset="1" stop-color="#4d4d4d"/></linearGradient><linearGradient x1="252.3534" y1="157.66904" x2="259.77628" y2="186.99192" gradientUnits="userSpaceOnUse" id="color-16"><stop offset="0" stop-color="#4d4d4d"/><stop offset="1" stop-color="#666666"/></linearGradient><linearGradient x1="263.86386" y1="154.43462" x2="270.90591" y2="185.73498" gradientUnits="userSpaceOnUse" id="color-17"><stop offset="0" stop-color="#666666"/><stop offset="1" stop-color="#808080"/></linearGradient><linearGradient x1="300.27039" y1="216.22807" x2="302.29701" y2="231.45939" gradientUnits="userSpaceOnUse" id="color-18"><stop offset="0" stop-color="#333333"/><stop offset="1" stop-color="#4d4d4d"/></linearGradient><linearGradient x1="296.54095" y1="216.91575" x2="298.77472" y2="235.9441" gradientUnits="userSpaceOnUse" id="color-19"><stop offset="0" stop-color="#4d4d4d"/><stop offset="1" stop-color="#666666"/></linearGradient><linearGradient x1="291.78555" y1="220.51512" x2="296.24601" y2="240.3408" gradientUnits="userSpaceOnUse" id="color-20"><stop offset="0" stop-color="#666666"/><stop offset="1" stop-color="#808080"/></linearGradient><linearGradient x1="273.87171" y1="222.71455" x2="279.12983" y2="237.15246" gradientUnits="userSpaceOnUse" id="color-21"><stop offset="0" stop-color="#333333"/><stop offset="1" stop-color="#4d4d4d"/></linearGradient><linearGradient x1="276.7552" y1="221.27673" x2="283.04636" y2="239.37338" gradientUnits="userSpaceOnUse" id="color-22"><stop offset="0" stop-color="#4d4d4d"/><stop offset="1" stop-color="#666666"/></linearGradient><linearGradient x1="282.67831" y1="222.5641" x2="287.13876" y2="242.38978" gradientUnits="userSpaceOnUse" id="color-23"><stop offset="0" stop-color="#666666"/><stop offset="1" stop-color="#808080"/></linearGradient></defs><g transform="translate(-178.40899,-41.83876)"><g data-paper-data="{&quot;isPaintingLayer&quot;:true}" fill-rule="nonzero" stroke-linejoin="miter" stroke-miterlimit="10" stroke-dasharray="" stroke-dashoffset="0" style="mix-blend-mode: normal"><path d="M178.40902,313.61252v-267.22501h123.18203v267.22501z" fill-opacity="0.01" fill="#000000" stroke="none" stroke-width="0" stroke-linecap="butt"/><path d="M178.40899,313.61251v-267.22501h123.18203v267.22501z" fill-opacity="0.01" fill="#000000" stroke="none" stroke-width="0" stroke-linecap="butt"/><g stroke="#000000" stroke-width="0" stroke-linecap="butt"><path d="M209.2527,153.51988l-15.36478,-68.29293l7.15448,-1.60964l15.36478,68.29293z" fill="#4d4926"/><path d="M180.22935,88.2999c-2.14163,-9.51908 3.83898,-18.97199 13.35804,-21.11361c9.51908,-2.14163 18.97199,3.83898 21.11361,13.35806c2.14163,9.51908 -3.83898,18.97199 -13.35806,21.11361c-9.51908,2.14163 -18.97196,-3.83898 -21.11361,-13.35806z" fill="url(#color-1)"/></g><path d="M206.91676,307.50001l15.14285,-131.8421l37.78325,-0.15789l13.57389,132z" fill="url(#color-2)" stroke="#000000" stroke-width="0" stroke-linecap="butt"/><path d="M287.62703,149.66393c-2.63664,-11.71926 4.72628,-23.35701 16.44553,-25.99364c11.71925,-2.63664 58.18888,9.20214 58.18888,9.20214c0,0 -36.92152,30.60039 -48.64076,33.23703c-11.71926,2.63664 -23.35701,-4.72628 -25.99364,-16.44553z" data-paper-data="{&quot;index&quot;:null}" fill="url(#color-3)" stroke="#000000" stroke-width="0" stroke-linecap="butt"/><g stroke="#000000" stroke-width="0" stroke-linecap="butt"><path d="M319.98479,128.60699l-15.36478,-68.29293l7.1545,-1.60963l15.36478,68.29293z" fill="#4d4926"/><path d="M290.96143,63.38702c-2.14163,-9.51908 3.83898,-18.97199 13.35804,-21.11361c9.51908,-2.14163 18.97199,3.83898 21.11361,13.35806c2.14163,9.51908 -3.83897,18.97198 -13.35806,21.11361c-9.51908,2.14163 -18.97196,-3.83898 -21.11361,-13.35806z" fill="url(#color-4)"/></g><path d="M239.79928,182.71803c-11.71925,2.63664 -58.18888,-9.20214 -58.18888,-9.20214c0,0 36.92152,-30.60039 48.64076,-33.23703c11.71926,-2.63664 23.35701,4.72628 25.99364,16.44553c2.63664,11.71926 -4.72628,23.35701 -16.44553,25.99364z" data-paper-data="{&quot;index&quot;:null}" fill="url(#color-5)" stroke="#000000" stroke-width="0" stroke-linecap="butt"/><path d="M208.21535,164.55381c-7.30965,-32.48972 14.82325,-65.14055 49.4352,-72.92767c34.61194,-7.78712 68.59613,12.23831 75.90578,44.72803c7.30965,32.48972 -14.82325,65.14055 -49.4352,72.92767c-34.61194,7.78712 -68.59613,-12.23831 -75.90578,-44.72803z" fill="url(#color-6)" stroke="#000000" stroke-width="0" stroke-linecap="butt"/><path d="M238.58106,106.65569l28.15895,-26.32273l-0.15266,14.12804l20.63432,-10.79236l-10.74419,18.30472" fill="url(#color-7)" stroke="#000000" stroke-width="0" stroke-linecap="round"/><path d="M217.95609,147.32788c-2.83334,-6.58537 4.52656,-16.07868 16.43877,-21.20389c11.91222,-5.12523 23.86589,-3.94157 26.69921,2.6438c2.83334,6.58537 -4.52656,16.07868 -16.43877,21.20389c-11.91222,5.12523 -23.86589,3.94157 -26.69921,-2.6438z" fill="url(#color-8)" stroke="#000000" stroke-width="0" stroke-linecap="butt"/><path d="M293.81919,138.73327c-12.9531,0.62168 -23.73226,-4.67932 -24.07593,-11.8401c-0.34368,-7.16077 9.8783,-13.46969 22.83138,-14.09137c12.9531,-0.62168 23.73226,4.67932 24.07593,11.8401c0.34368,7.16077 -9.8783,13.46969 -22.83138,14.09137z" data-paper-data="{&quot;index&quot;:null}" fill="url(#color-9)" stroke="#000000" stroke-width="0" stroke-linecap="butt"/><path d="M220.60697,137.54325c2.80616,-4.37308 8.08406,-8.6643 14.81574,-11.56059c6.86198,-2.95236 13.7377,-3.81125 18.87593,-2.7501" fill="none" stroke="#1a1700" stroke-width="0.5" stroke-linecap="butt"/><path d="M275.91107,118.00553c4.16536,-2.82012 10.28131,-4.75905 17.16961,-5.08965c6.79034,-0.3259 12.98327,0.97583 17.38858,3.31987" data-paper-data="{&quot;index&quot;:null}" fill="none" stroke="#1a1700" stroke-width="0.5" stroke-linecap="butt"/><path d="M222.36268,172.69055c9.89399,-5.66981 37.90561,20.03422 57.30115,16.04751c19.8138,-4.07268 36.76989,-40.77527 46.91452,-36.18269c5.89586,2.6691 -2.04103,20.01441 -10.29045,40.05375c-10.14392,24.64145 -7.49222,53.84492 -23.04633,56.57181c-12.02158,2.10759 -27.54583,-21.40108 -45.93264,-40.7128c-17.95435,-18.85752 -30.0976,-32.82552 -24.94626,-35.77756z" fill="#4d4600" stroke="none" stroke-width="0" stroke-linecap="butt"/><path d="M221.54681,173.8092c8.87018,-5.08313 28.31588,-20.40165 49.45907,-24.74761c21.14319,-4.34595 46.55253,-0.82338 55.43558,3.19807c5.28577,2.39292 -2.3834,22.27966 -9.77918,40.24536c-9.09426,22.09158 -10.08259,50.33216 -24.02716,52.77687c-10.7776,1.8895 -25.71943,-18.63211 -42.92886,-34.40389c-16.50357,-15.12492 -32.77775,-34.42222 -28.15945,-37.06877z" fill="#000000" stroke="none" stroke-width="0" stroke-linecap="butt"/><path d="M305.76591,227.81713c-3.01745,9.23597 -6.38458,16.01639 -12.94178,17.16598c-6.55719,1.1496 -11.87861,-2.5977 -18.28086,-9.53481c0,0 11.36794,0.51886 16.29195,-0.52133c5.21481,-1.10162 14.93068,-7.10982 14.93068,-7.10982z" fill="#330000" stroke="none" stroke-width="0" stroke-linecap="butt"/><path d="M270.6632,148.67745c22.2974,-4.80651 50.98679,2.30288 51.18091,2.12401c0.97323,-0.89673 -13.65466,-3.23513 -49.99054,5.98376c-38.52024,7.81184 -44.60875,13.2862 -44.60875,13.2862c0,0 26.59156,-17.76672 43.41836,-21.39398z" fill="#330000" stroke="none" stroke-width="0" stroke-linecap="butt"/><path d="M302.65572,169.72525l-3.56936,-16.41053c0,0 -0.12674,-1.24763 3.63893,-3.06939c3.52796,-1.70677 3.79879,-0.78577 3.79879,-0.78577l4.09012,16.29093c0,0 0.02481,1.81666 -2.39008,3.16188c-2.98906,1.66502 -5.56834,0.81286 -5.56834,0.81286z" fill="url(#color-10)" stroke="none" stroke-width="0" stroke-linecap="butt"/><path d="M296.7897,174.2572l-3.25218,-19.96475c0,0 -0.07329,-1.50868 4.57155,-3.46099c4.35166,-1.82908 4.61896,-0.70413 4.61896,-0.70413l3.88612,19.85393c0,0 -0.08539,2.18665 -3.07537,3.65146c-3.70081,1.81307 -6.74908,0.62446 -6.74908,0.62446z" fill="url(#color-11)" stroke="none" stroke-width="0" stroke-linecap="butt"/><path d="M287.86212,178.73553l-2.90249,-25.0542c0,0 -0.00451,-1.88335 5.89316,-4.04789c5.52542,-2.02792 5.79365,-0.61136 5.79365,-0.61136l3.69846,24.95263c0,0 -0.23214,2.71868 -4.04055,4.37121c-4.71384,2.04541 -8.44225,0.38961 -8.44225,0.38961z" fill="url(#color-12)" stroke="none" stroke-width="0" stroke-linecap="butt"/><path d="M277.52374,182.93475l-5.54634,-26.17083c0,0 -0.17443,-1.99245 6.32483,-4.9775c6.08903,-2.79663 6.52079,-1.32923 6.52079,-1.32923l6.44065,25.96961c0,0 -0.01909,2.90428 -4.19308,5.10147c-5.16633,2.71956 -9.54688,1.40644 -9.54688,1.40644z" fill="url(#color-13)" stroke="none" stroke-width="0" stroke-linecap="butt"/><path d="M244.50349,183.21391c-2.75305,-0.24938 -3.46764,-1.9198 -3.46764,-1.9198l-2.87336,-16.54892c0,0 -0.12628,-0.95165 3.79077,-0.82355c4.18094,0.13674 4.57146,1.32843 4.57146,1.32843l3.39783,16.44689c0,0 -2.01148,1.82562 -5.41905,1.51694z" data-paper-data="{&quot;index&quot;:null}" fill="url(#color-14)" stroke="none" stroke-width="0" stroke-linecap="butt"/><path d="M250.2666,185.21742c-3.3295,-0.00563 -4.36495,-1.93345 -4.36495,-1.93345l-5.21194,-19.54779c0,0 -0.25297,-1.12825 4.46007,-1.39225c5.03057,-0.28179 5.62615,1.10627 5.62615,1.10627l5.83027,19.36945c0,0 -2.21855,2.40474 -6.33961,2.39779z" data-paper-data="{&quot;index&quot;:null}" fill="url(#color-15)" stroke="none" stroke-width="0" stroke-linecap="butt"/><path d="M257.98768,186.90397c-4.14903,-0.14345 -5.3604,-2.58836 -5.3604,-2.58836l-5.69405,-24.57418c0,0 -0.26901,-1.4164 5.61521,-1.55227c6.28067,-0.14501 6.96601,1.60922 6.96601,1.60922l6.47196,24.37726c0,0 -2.86332,2.90588 -7.99872,2.72832z" data-paper-data="{&quot;index&quot;:null}" fill="url(#color-16)" stroke="none" stroke-width="0" stroke-linecap="butt"/><path d="M268.8755,185.62191c-4.71282,-0.19782 -5.97393,-2.81405 -5.97393,-2.81405l-5.30244,-26.22569c0,0 -0.2383,-1.51095 6.46175,-1.59164c7.15146,-0.08615 7.84719,1.78902 7.84719,1.78902l6.19675,26.02449c0,0 -3.39606,3.06273 -9.22932,2.81788z" data-paper-data="{&quot;index&quot;:null}" fill="url(#color-17)" stroke="none" stroke-width="0" stroke-linecap="butt"/><path d="M298.8367,231.30168l-1.54284,-12.71916c0,0 -0.00745,-0.95668 2.98257,-2.07235c2.80127,-1.04524 2.9414,-0.32638 2.9414,-0.32638l1.94689,12.66538c0,0 -0.11049,1.38166 -2.04059,2.23153c-2.38894,1.05189 -4.28745,0.22097 -4.28745,0.22097z" data-paper-data="{&quot;index&quot;:null}" fill="url(#color-18)" stroke="none" stroke-width="0" stroke-linecap="butt"/><path d="M294.46365,235.68096l-1.67891,-15.88703c0,0 0.00912,-1.19289 3.75831,-2.52632c3.51253,-1.24927 3.67342,-0.35036 3.67342,-0.35036l2.1837,15.82777c0,0 -0.16432,1.72046 -2.58698,2.74288c-2.99862,1.2655 -5.34955,0.19305 -5.34955,0.19305z" data-paper-data="{&quot;index&quot;:null}" fill="url(#color-19)" stroke="none" stroke-width="0" stroke-linecap="butt"/><path d="M291.33049,240.61612l-3.51306,-16.57664c0,0 -0.11047,-1.26202 4.00616,-3.15276c3.8568,-1.77139 4.13028,-0.84193 4.13028,-0.84193l4.07951,16.4492c0,0 -0.0121,1.83957 -2.65589,3.23128c-3.27236,1.72258 -6.047,0.89084 -6.047,0.89084z" data-paper-data="{&quot;index&quot;:null}" fill="url(#color-20)" stroke="none" stroke-width="0" stroke-linecap="butt"/><path d="M278.22137,237.19991c-2.1042,0.14069 -2.84205,-1.0327 -2.84205,-1.0327l-4.14038,-12.12681c0,0 -0.20874,-0.702 2.75807,-1.07302c3.1667,-0.396 3.60319,0.45533 3.60319,0.45533l4.5234,11.98732c0,0 -1.29776,1.61571 -3.90225,1.78985z" data-paper-data="{&quot;index&quot;:null}" fill="url(#color-21)" stroke="none" stroke-width="0" stroke-linecap="butt"/><path d="M281.91287,239.41591c-2.62598,0.13686 -3.5244,-1.33954 -3.5244,-1.33954l-4.93993,-15.19486c0,0 -0.24739,-0.87905 3.45827,-1.28727c3.95532,-0.43574 4.48392,0.63367 4.48392,0.63367l5.42,15.02797c0,0 -1.64757,1.99062 -4.89788,2.16003z" data-paper-data="{&quot;index&quot;:null}" fill="url(#color-22)" stroke="none" stroke-width="0" stroke-linecap="butt"/><path d="M285.85269,242.31816c-2.98512,-0.12529 -3.78392,-1.78243 -3.78392,-1.78243l-3.35858,-16.6114c0,0 -0.15095,-0.95703 4.09289,-1.00815c4.52974,-0.05456 4.97041,1.13316 4.97041,1.13316l3.92502,16.48395c0,0 -2.15107,1.93993 -5.84587,1.78484z" data-paper-data="{&quot;index&quot;:null}" fill="url(#color-23)" stroke="none" stroke-width="0" stroke-linecap="butt"/><path d="M260.42379,141.74175l1.6859,-3.13692l-1.48047,8.60591" fill="none" stroke="#1a1700" stroke-width="0.5" stroke-linecap="round"/><path d="M279.39208,143.13456l-5.94541,-7.44319l3.5329,2.03532" fill="none" stroke="#1a1700" stroke-width="0.5" stroke-linecap="round"/></g></g></svg>