<svg version="1.1" xmlns="http://www.w3.org/2000/svg" xmlns:xlink="http://www.w3.org/1999/xlink" width="149.33333" height="267.22501" viewBox="0,0,149.33333,267.22501"><g transform="translate(-164.89814,-46.38751)"><g data-paper-data="{&quot;isPaintingLayer&quot;:true}" fill-rule="nonzero" stroke-linejoin="miter" stroke-miterlimit="10" stroke-dasharray="" stroke-dashoffset="0" style="mix-blend-mode: normal"><path d="M179.45042,313.61252v-267.22501h123.18203v267.22501z" fill-opacity="0.01" fill="#000000" stroke="none" stroke-width="0" stroke-linecap="butt"/><path d="M270.5648,85.7743c0,-11.78208 9.55126,-21.33333 21.33334,-21.33333c11.78208,0 21.33333,9.55126 21.33333,21.33333c0,11.78208 -9.55126,21.33333 -21.33333,21.33333c-11.78208,0 -21.33334,-9.55125 -21.33334,-21.33333z" fill="#4df6ff" stroke="#000000" stroke-width="2" stroke-linecap="butt"/><path d="M277.5648,86.10763c0,-8.10018 6.5665,-14.66666 14.66667,-14.66666c8.10017,0 14.66667,6.56649 14.66667,14.66666c0,8.10018 -6.56649,14.66667 -14.66667,14.66667c-8.10017,0 -14.66667,-6.56649 -14.66667,-14.66667z" fill="#ccfcff" stroke="#000000" stroke-width="2" stroke-linecap="butt"/><path d="M165.89814,85.7743c0,-11.78208 9.55126,-21.33333 21.33333,-21.33333c11.78207,0 21.33334,9.55126 21.33334,21.33333c0,11.78208 -9.55126,21.33333 -21.33334,21.33333c-11.78207,0 -21.33333,-9.55125 -21.33333,-21.33333z" fill="#4df6ff" stroke="#000000" stroke-width="2" stroke-linecap="butt"/><path d="M172.89814,86.10763c0,-8.10018 6.56649,-14.66666 14.66667,-14.66666c8.10018,0 14.66666,6.56649 14.66666,14.66666c0,8.10018 -6.56649,14.66667 -14.66666,14.66667c-8.10018,0 -14.66667,-6.56649 -14.66667,-14.66667z" fill="#ccfcff" stroke="#000000" stroke-width="2" stroke-linecap="butt"/><path d="M206.75006,307.5l15.14285,-131.8421l37.78325,-0.15789l13.57389,132z" fill="#4df6ff" stroke="#000000" stroke-width="2" stroke-linecap="butt"/><path d="M219.70029,204.11263l3.12142,-26.32765l35.83075,-0.14203l2.76735,26.1059c0,0 -7.51543,4.19603 -21.55904,4.50964c-12.48458,0.27879 -20.16049,-4.14586 -20.16049,-4.14586z" fill="#45dde6" stroke="#000000" stroke-width="0" stroke-linecap="butt"/><path d="M175.83997,134.84616c0,-33.30185 28.7599,-60.29833 64.23702,-60.29833c35.47712,0 64.23702,26.99649 64.23702,60.29833c0,33.30185 -28.7599,60.29833 -64.23702,60.29833c-35.47712,0 -64.23702,-26.99649 -64.23702,-60.29833z" fill="#4df6ff" stroke="#000000" stroke-width="2" stroke-linecap="butt"/><path d="M176.56303,134.9c0,-0.72799 5.20666,55.91939 63.36046,56.93429c55.56352,0.9697 63.51358,-57.95314 63.51358,-56.93429c0,32.80479 -28.40173,59.39833 -63.43702,59.39833c-35.03529,0 -63.43702,-26.59354 -63.43702,-59.39833z" fill="#45dde6" stroke="#000000" stroke-width="0" stroke-linecap="butt"/><path d="M189.39018,135.27563c0,-12.968 10.51265,-23.48065 23.48065,-23.48065c12.968,0 23.48065,10.51265 23.48065,23.48065c0,12.968 -10.51265,23.48065 -23.48065,23.48065c-12.968,0 -23.48065,-10.51265 -23.48065,-23.48065z" fill="#ffffff" stroke="#000000" stroke-width="2" stroke-linecap="butt"/><path d="M196.45557,135c0,-9.12808 7.39976,-16.52784 16.52783,-16.52784c9.12808,0 16.52784,7.39977 16.52784,16.52784c0,9.12808 -7.39977,16.52784 -16.52784,16.52784c-9.12808,0 -16.52783,-7.39977 -16.52783,-16.52784z" fill="#000000" stroke="none" stroke-width="0" stroke-linecap="butt"/><path d="M267.12926,158.75627c-12.968,0 -23.48065,-10.51265 -23.48065,-23.48065c0,-12.968 10.51265,-23.48065 23.48065,-23.48065c12.968,0 23.48065,10.51265 23.48065,23.48065c0,12.968 -10.51265,23.48065 -23.48065,23.48065z" data-paper-data="{&quot;index&quot;:null}" fill="#ffffff" stroke="#000000" stroke-width="2" stroke-linecap="butt"/><path d="M267.0167,151.52784c-9.12807,0 -16.52783,-7.39977 -16.52783,-16.52784c0,-9.12808 7.39977,-16.52784 16.52783,-16.52784c9.12807,0 16.52783,7.39977 16.52783,16.52784c0,9.12808 -7.39977,16.52784 -16.52783,16.52784z" data-paper-data="{&quot;index&quot;:null}" fill="#000000" stroke="none" stroke-width="0" stroke-linecap="butt"/><path d="M202.02785,103.46716c0,0 6.70895,-5.16922 11.79721,-6.36355c5.08827,-1.19433 12.33413,0.69937 12.33413,0.69937c0,0 -8.03812,-0.06028 -11.96762,0.86207c-4.10648,0.96389 -12.16372,4.80211 -12.16372,4.80211z" fill="#000000" stroke="none" stroke-width="0" stroke-linecap="butt"/><path d="M265.96236,98.66506c-3.9295,-0.92235 -11.96762,-0.86207 -11.96762,-0.86207c0,0 7.24586,-1.8937 12.33413,-0.69937c5.08826,1.19433 11.79721,6.36355 11.79721,6.36355c0,0 -8.05724,-3.83822 -12.16372,-4.80211z" data-paper-data="{&quot;index&quot;:null}" fill="#000000" stroke="none" stroke-width="0" stroke-linecap="butt"/><path d="M236.07215,81.11018c0,0 -0.31681,-11.18942 4.28605,-18.88927c6.639,-11.106 14.33538,-7.43386 14.33538,-7.43386c0,0 -6.65329,6.79884 -8.98204,11.06679c-2.20558,4.04221 -2.19806,16.53467 -2.19806,16.53467" fill="#4df6ff" stroke="#000000" stroke-width="2" stroke-linecap="round"/><path d="M246.4,178c0,4.80488 -2.86538,8.7 -6.4,8.7c-3.53462,0 -6.4,-3.89512 -6.4,-8.7c0,-4.80488 2.86538,-8.7 6.4,-8.7c3.53462,0 6.4,3.89512 6.4,8.7z" fill="#000000" stroke="#000000" stroke-width="2" stroke-linecap="butt"/><path d="M189.4686,135.24181c0,-12.96801 10.51265,-23.48065 23.48066,-23.48065c12.96801,0 23.48065,10.51264 23.48065,23.48065c0,0 -11.70863,-8.35961 -23.43307,-8.20546c-11.75617,0.15456 -23.52823,8.82207 -23.52823,8.20546z" fill="#4df6ff" stroke="#000000" stroke-width="2" stroke-linecap="butt"/><path d="M243.78018,135.26807c0,-12.96801 10.51264,-23.48065 23.48065,-23.48065c12.96801,0 23.48066,10.51264 23.48066,23.48065c0,0.60606 -11.37275,-8.05105 -22.92496,-8.19767c-11.92261,-0.15132 -24.03635,8.19767 -24.03635,8.19767z" data-paper-data="{&quot;index&quot;:null}" fill="#4df6ff" stroke="#000000" stroke-width="2" stroke-linecap="butt"/></g></g></svg>