<svg version="1.1" xmlns="http://www.w3.org/2000/svg" xmlns:xlink="http://www.w3.org/1999/xlink" width="84.31513" height="30.05294" viewBox="0,0,84.31513,30.05294"><g transform="translate(-197.84243,-164.97353)"><g data-paper-data="{&quot;isPaintingLayer&quot;:true}" fill-rule="evenodd" stroke="none" stroke-linecap="round" stroke-linejoin="round" stroke-miterlimit="10" stroke-dasharray="" stroke-dashoffset="0" style="mix-blend-mode: normal"><path d="M282.15756,179.99999c0,8.32468 -6.70181,15.02648 -15.02647,15.02648h-54.2622c-8.32466,0 -15.02646,-6.70181 -15.02646,-15.02648c0,-8.32466 6.70179,-15.02646 15.02646,-15.02646h54.2622c8.32466,0 15.02647,6.70179 15.02647,15.02646z" fill="#666666" stroke-width="0.314"/><g fill="#ffffff" stroke-width="2.58387"><path d="M228.39841,182.92629c0,0.69058 -0.1784,1.2718 -0.53519,1.74368c-0.3568,0.46038 -0.84019,0.81142 -1.45019,1.05312c-0.5985,0.24171 -1.25454,0.36257 -1.96813,0.36257h-5.92165v-12.25763h6.56043c0.57547,0 1.07038,0.15538 1.48472,0.46614c0.42586,0.29924 0.74812,0.69056 0.9668,1.17396c0.23018,0.47189 0.34528,0.96681 0.34528,1.48474c0,0.58698 -0.14962,1.14519 -0.44886,1.67462c-0.29926,0.52944 -0.73662,0.92076 -1.31209,1.17398c0.70209,0.20717 1.25454,0.58122 1.65737,1.12217c0.41435,0.54095 0.62153,1.20851 0.62153,2.00266zM225.99867,182.47741c0,-0.31075 -0.0633,-0.58699 -0.1899,-0.82868c-0.12661,-0.2532 -0.29926,-0.44886 -0.51794,-0.58698c-0.20717,-0.14962 -0.44886,-0.22443 -0.7251,-0.22443h-3.66003v3.22841h3.53918c0.28774,0 0.5467,-0.06905 0.77688,-0.20716c0.24171,-0.14963 0.43162,-0.3453 0.56972,-0.587c0.13812,-0.2417 0.20718,-0.50641 0.20718,-0.79415zM220.90571,175.86519v3.09031h3.17664c0.26472,0 0.50641,-0.0633 0.7251,-0.1899c0.21868,-0.1266 0.39132,-0.305 0.51792,-0.53519c0.13812,-0.23018 0.20718,-0.50641 0.20718,-0.82868c0,-0.31075 -0.0633,-0.58123 -0.1899,-0.81141c-0.11509,-0.2302 -0.27623,-0.40859 -0.48341,-0.53519c-0.19566,-0.12661 -0.42009,-0.18992 -0.67329,-0.18992z"/><path d="M230.26295,186.08565v-12.25763h2.38246v10.16864h6.24967v2.08899z"/><path d="M245.21382,186.17197c-0.97831,0 -1.81275,-0.16113 -2.50331,-0.48339c-0.67907,-0.33378 -1.23153,-0.78841 -1.65737,-1.36388c-0.41435,-0.57547 -0.71936,-1.22577 -0.91502,-1.95087c-0.19566,-0.7366 -0.29349,-1.50198 -0.29349,-2.29613v-6.24967h2.38246v6.24967c0,0.50641 0.04602,1.00132 0.13805,1.48472c0.1036,0.47189 0.27048,0.89773 0.50067,1.27755c0.2302,0.37981 0.53519,0.67906 0.915,0.89774c0.37981,0.21868 0.85171,0.32802 1.41568,0.32802c0.57547,0 1.05312,-0.10934 1.43294,-0.32802c0.39132,-0.23018 0.69632,-0.53519 0.915,-0.915c0.2302,-0.37981 0.39709,-0.80567 0.50067,-1.27756c0.1036,-0.4834 0.15539,-0.97255 0.15539,-1.46745v-6.24967h2.36521v6.24967c0,0.84019 -0.10359,1.62859 -0.31076,2.36519c-0.19566,0.73661 -0.51217,1.3869 -0.94953,1.95087c-0.42586,0.55246 -0.97831,0.98981 -1.65737,1.31208c-0.67906,0.31075 -1.49048,0.46614 -2.43427,0.46614z"/><path d="M261.47675,183.99666v2.08899h-8.51127v-12.25763h8.3559v2.08897h-5.97344v2.95219h5.16201v1.9336h-5.16201v3.19388z"/></g></g></g></svg>