<svg version="1.1" xmlns="http://www.w3.org/2000/svg" xmlns:xlink="http://www.w3.org/1999/xlink" width="224" height="330" viewBox="0,0,224,330"><g transform="translate(-128,-15)"><g data-paper-data="{&quot;isPaintingLayer&quot;:true}" fill-rule="nonzero" stroke-linejoin="miter" stroke-miterlimit="10" stroke-dasharray="" stroke-dashoffset="0" style="mix-blend-mode: normal"><path d="M128,345v-330h224v330z" fill="none" stroke="none" stroke-width="0" stroke-linecap="butt"/><path d="M179.28376,313.61251v-267.22501h123.18203v267.22501z" fill-opacity="0.01" fill="#000000" stroke="none" stroke-width="0" stroke-linecap="butt"/><path d="M206.75007,307.50001l15.14285,-131.8421l37.78325,-0.15789l13.57389,132z" fill="#babebf" stroke="#000000" stroke-width="2" stroke-linecap="butt"/><path d="M219.7003,204.11264l3.12142,-26.32765l35.83075,-0.14203l2.76735,26.1059c0,0 -7.51543,4.19603 -21.55904,4.50964c-12.48458,0.27879 -20.16049,-4.14586 -20.16049,-4.14586z" fill="#a1a5a6" stroke="#000000" stroke-width="0" stroke-linecap="butt"/><path d="M177.83997,137.84617c0,-33.30185 28.7599,-60.29833 64.23702,-60.29833c35.47712,0 64.23702,26.99649 64.23702,60.29833c0,33.30185 -28.7599,60.29833 -64.23702,60.29833c-35.47712,0 -64.23702,-26.99649 -64.23702,-60.29833z" fill="#babebf" stroke="#000000" stroke-width="2" stroke-linecap="butt"/><path d="M178.56304,137.89999c0,-0.72799 5.20666,55.91939 63.36046,56.93429c55.56352,0.9697 63.51358,-57.95314 63.51358,-56.93429c0,32.80479 -28.40173,59.39833 -63.43702,59.39833c-35.03529,0 -63.43702,-26.59354 -63.43702,-59.39833z" fill="#a1a5a6" stroke="#000000" stroke-width="0" stroke-linecap="butt"/><path d="M191.3902,138.27564c0,-12.968 10.51265,-23.48065 23.48065,-23.48065c12.968,0 23.48065,10.51265 23.48065,23.48065c0,12.968 -10.51265,23.48065 -23.48065,23.48065c-12.968,0 -23.48065,-10.51265 -23.48065,-23.48065z" fill="#ffffff" stroke="#000000" stroke-width="2" stroke-linecap="butt"/><path d="M198.45558,134.39999c0,-9.12808 7.39976,-16.52784 16.52783,-16.52784c9.12808,0 16.52784,7.39977 16.52784,16.52784c0,9.12808 -7.39977,16.52784 -16.52784,16.52784c-9.12808,0 -16.52783,-7.39977 -16.52783,-16.52784z" fill="#000000" stroke="none" stroke-width="0" stroke-linecap="butt"/><path d="M251.21576,174.64271c3.01835,0.47109 3.4009,3.01373 3.4009,3.01373l-22.94292,0.83333c0,0 16.64904,-4.29858 19.54202,-3.84706z" fill="#000000" stroke="#000000" stroke-width="2" stroke-linecap="round"/><path d="M269.12926,161.75627c-12.968,0 -23.48065,-10.51265 -23.48065,-23.48065c0,-12.968 10.51265,-23.48065 23.48065,-23.48065c12.968,0 23.48065,10.51265 23.48065,23.48065c0,12.968 -10.51265,23.48065 -23.48065,23.48065z" data-paper-data="{&quot;index&quot;:null}" fill="#ffffff" stroke="#000000" stroke-width="2" stroke-linecap="butt"/><path d="M269.01671,150.92783c-9.12807,0 -16.52783,-7.39977 -16.52783,-16.52784c0,-9.12808 7.39977,-16.52784 16.52783,-16.52784c9.12807,0 16.52783,7.39977 16.52783,16.52784c0,9.12808 -7.39977,16.52784 -16.52783,16.52784z" data-paper-data="{&quot;index&quot;:null}" fill="#000000" stroke="none" stroke-width="0" stroke-linecap="butt"/><path d="M204.0279,106.46717c0,0 6.70895,-5.16922 11.79721,-6.36355c5.08827,-1.19433 12.33413,0.69937 12.33413,0.69937c0,0 -8.03812,-0.06028 -11.96762,0.86207c-4.10648,0.96389 -12.16372,4.80211 -12.16372,4.80211z" fill="#000000" stroke="none" stroke-width="0" stroke-linecap="butt"/><path d="M267.96236,101.66507c-3.9295,-0.92235 -11.96762,-0.86207 -11.96762,-0.86207c0,0 7.24586,-1.8937 12.33413,-0.69937c5.08826,1.19433 11.79721,6.36355 11.79721,6.36355c0,0 -8.05724,-3.83822 -12.16372,-4.80211z" data-paper-data="{&quot;index&quot;:null}" fill="#000000" stroke="none" stroke-width="0" stroke-linecap="butt"/><path d="M191.30685,138.36807c0,-12.96801 10.51265,-23.48065 23.48066,-23.48065c12.96801,0 23.48065,10.51264 23.48065,23.48065c0,0 -6.95852,-14.64634 -23.43307,-14.78879c-16.22494,-0.14029 -23.52823,15.4054 -23.52823,14.78879z" fill="#babebf" stroke="#000000" stroke-width="2" stroke-linecap="butt"/><path d="M245.64864,138.26807c0,-12.96801 10.51264,-23.48065 23.48065,-23.48065c12.96801,0 23.48066,10.51264 23.48066,23.48065c0,0.60606 -7.87275,-14.38438 -22.92496,-14.781c-15.05221,-0.39662 -24.03635,14.781 -24.03635,14.781z" data-paper-data="{&quot;index&quot;:null}" fill="#babebf" stroke="#000000" stroke-width="2" stroke-linecap="butt"/><path d="M180.54495,120.4773c7.94486,-24.83505 32.48735,-42.92946 61.53205,-42.92946c29.4708,0 54.30633,18.62922 61.87097,44.02681c0.54933,1.84433 1.98343,22.07236 -63.62097,21.81985c-61.22902,-0.23567 -59.78205,-22.9172 -59.78205,-22.9172z" fill-opacity="0.20156" fill="#000000" stroke="#000000" stroke-width="0" stroke-linecap="butt"/><g stroke="#000000" stroke-linecap="butt"><path d="M336.12559,99.29289c-0.61197,10.29114 -43.26806,16.12667 -95.27505,13.03402c-52.00699,-3.09264 -93.67087,-13.94234 -93.0589,-24.23347c0.61197,-10.29114 43.56487,-21.11784 95.57186,-18.0252c52.00699,3.09264 93.37408,18.93353 92.7621,29.22466z" fill="#babebf" stroke-width="2"/><path d="M244.32029,71.49733c7.19923,0.42811 13.90248,1.20576 19.5758,2.20027c0.66667,0.11686 -16.64087,9.33014 -16.64087,9.33014l-6.07569,-0.21254z" data-paper-data="{&quot;index&quot;:null}" fill="#ffffff" stroke-width="0"/><path d="M240.452,110.60559c-17.42938,-1.03647 -33.65789,-2.91913 -47.39301,-5.32684c-1.61404,-0.28294 40.28754,-22.58822 40.28754,-22.58822l14.70927,0.51459z" fill="#ffffff" stroke-width="0"/></g><path d="M235.37502,82.37501l2.86068,-40.04754c0,0 0.77342,-6.79148 -3.20744,-5.3051c-3.19631,1.19344 -10.92266,5.51814 -10.92266,5.51814c0,0 3.95548,-7.29662 8.98012,-9.95423c4.02875,-2.13086 9.17263,2.57207 9.17263,2.57207c0,0 4.73043,-4.16255 7.78452,-2.26642c4.01386,2.492 7.31197,9.83713 7.31197,9.83713c0,0 -5.97898,-3.40735 -8.62109,-4.74643c-2.91466,-1.4772 -3.20818,4.13691 -3.20818,4.13691l3.09945,40.25547c0,0 -2.43253,1.5 -6.67593,1.33334c-3.66806,-0.14407 -6.57407,-1.33334 -6.57407,-1.33334z" fill="#babebf" stroke="#000000" stroke-width="2" stroke-linecap="butt"/></g></g></svg>