<svg version="1.1" xmlns="http://www.w3.org/2000/svg" xmlns:xlink="http://www.w3.org/1999/xlink" width="34.17311" height="34.17311" viewBox="0,0,34.17311,34.17311"><g transform="translate(-222.91346,-162.91346)"><g data-paper-data="{&quot;isPaintingLayer&quot;:true}" stroke-miterlimit="10" stroke-dasharray="" stroke-dashoffset="0" style="mix-blend-mode: normal"><path d="M229.98313,162.91346h20.03378c3.9166,0 7.06966,3.15307 7.06966,7.06966v20.03379c0,3.91659 -3.15306,7.06966 -7.06966,7.06966h-20.03378c-3.91659,0 -7.06967,-3.15307 -7.06967,-7.06966v-20.03379c0,-3.91659 3.15308,-7.06966 7.06967,-7.06966z" fill-opacity="0.09677" fill="#191919" fill-rule="evenodd" stroke="none" stroke-width="4.43922" stroke-linecap="round" stroke-linejoin="round"/><path d="M226.46575,191.60705c0,-5.67222 4.8986,-10.27046 10.94133,-10.27046c6.04273,0 10.94133,4.59824 10.94133,10.27046" fill="#4d4d4d" fill-rule="nonzero" stroke="#000000" stroke-width="0.5" stroke-linecap="butt" stroke-linejoin="miter"/><path d="M236.49785,181.83301c0,-0.91586 0.90274,-6.47964 0.90274,-6.47964c0,0 0.90274,5.56378 0.90274,6.47964" fill="#804400" fill-rule="nonzero" stroke="#000000" stroke-width="0.5" stroke-linecap="butt" stroke-linejoin="miter"/><g fill-rule="nonzero" stroke="#000000" stroke-width="0.5" stroke-linejoin="miter"><path d="M248.3574,189.31184c0,0 -4.17629,-0.20806 -9.16967,-2.58517c-4.85785,-2.31259 -7.10295,-4.44532 -7.10295,-4.44532l9.36127,-15.70812c0,0 2.71965,-0.24998 6.70829,1.56114c3.87097,1.75769 5.37994,3.66151 5.37994,3.66151z" fill="#333333" stroke-linecap="butt"/><path d="M248.3574,189.31184c0,0 -4.17629,-0.20806 -9.16967,-2.58517c-4.85785,-2.31259 -7.10295,-4.44532 -7.10295,-4.44532l9.36127,-15.70812c0,0 3.75751,2.37077 5.75157,3.23229c2.03454,0.87901 6.33667,1.99036 6.33667,1.99036z" fill="#808080" stroke-linecap="butt"/><path d="M248.26693,189.16947c0,0 2.40887,4.03895 -3.18766,4.26469c-6.4119,0.25862 -13.05769,-11.14546 -13.05769,-11.14546" fill="none" stroke-linecap="round"/></g></g></g></svg>