<svg version="1.1" xmlns="http://www.w3.org/2000/svg" xmlns:xlink="http://www.w3.org/1999/xlink" width="346.23736" height="65.5518" viewBox="0,0,346.23736,65.5518"><g transform="translate(-66.88132,-147.2241)"><g data-paper-data="{&quot;isPaintingLayer&quot;:true}" fill="#ffffff" fill-rule="nonzero" stroke="none" stroke-width="1" stroke-linecap="butt" stroke-linejoin="miter" stroke-miterlimit="10" stroke-dasharray="" stroke-dashoffset="0" style="mix-blend-mode: normal"><path d="M72.34012,162.76613l-2.90039,5.90332c-0.21484,0.44922 -0.58594,0.64941 -1.11328,0.60059l-0.68848,-0.05859c-0.35156,-0.00977 -0.58106,-0.1416 -0.68848,-0.39551c-0.10742,-0.25391 -0.08789,-0.50293 0.05859,-0.74707l9.99023,-19.26269c0.41992,-0.80078 0.97168,-1.20117 1.65527,-1.20117l1.20117,-0.0293c0.36133,0 0.64453,0.12207 0.84961,0.36621c0.20508,0.24414 0.29297,0.60547 0.26367,1.08398l-1.05469,19.58496c-0.01953,0.43945 -0.31739,0.65918 -0.89355,0.65918l-1.02539,-0.0293c-0.48828,0 -0.71777,-0.26855 -0.68848,-0.80566l0.38086,-5.66894zM73.40944,160.59816h4.42383l0.68848,-10.42969z"/><path d="M87.57449,157.00928l2.44629,0.04395c1.42578,0.03906 2.43164,-0.88867 3.01758,-2.7832c0.43945,-1.40625 0.42969,-2.59766 -0.0293,-3.57422c-0.33203,-0.71289 -0.92773,-1.06934 -1.78711,-1.06934h-1.75781zM87.01785,149.62647h-0.74707c-0.26367,0 -0.49316,-0.07812 -0.68848,-0.23437c-0.19531,-0.16602 -0.26367,-0.35156 -0.20508,-0.55664l0.17578,-0.68848c0.03906,-0.17578 0.13183,-0.31738 0.27832,-0.4248c0.14648,-0.11719 0.2832,-0.17578 0.41016,-0.17578h4.98047c1.51367,0 2.6709,0.39551 3.47168,1.18652c0.80078,0.78125 1.20117,1.99707 1.20117,3.64746c0,1.64063 -0.45898,3.03223 -1.37695,4.17481c-0.64453,0.80078 -1.33301,1.36719 -2.06543,1.69922c0.48828,0.29297 0.88379,0.71777 1.18652,1.27441c0.3125,0.54687 0.40527,1.44531 0.27832,2.69531c-0.22461,2.23633 -1.21582,4.09668 -2.97363,5.58106c-1.12305,0.97656 -2.76856,1.46484 -4.93652,1.46484h-3.14941c-0.24414,0 -0.41992,-0.08789 -0.52734,-0.26367c-0.10742,-0.18555 -0.13183,-0.40527 -0.07324,-0.65918zM84.96707,167.21924l1.9043,-0.07324c1.01562,-0.0293 1.96289,-0.46387 2.8418,-1.30371c0.88867,-0.83984 1.45996,-1.88965 1.71387,-3.14941c0.35156,-1.40625 0.19043,-2.41211 -0.4834,-3.01758c-0.25391,-0.23437 -0.63965,-0.38086 -1.15723,-0.43945c-0.51758,-0.05859 -1.43555,-0.09277 -2.75391,-0.10254z"/><path d="M107.51101,148.00049c0.45898,0.33203 0.85449,0.9375 1.18652,1.81641c0.3418,0.86914 0.53223,1.62109 0.57129,2.25586c0.04883,0.63477 0.07812,1.01074 0.08789,1.12793c0.01953,0.26367 -0.18555,0.45898 -0.61523,0.58594l-0.83496,0.24902c-0.19531,0.04883 -0.40039,-0.00488 -0.61523,-0.16113c-0.21484,-0.16602 -0.32715,-0.38574 -0.33691,-0.65918c-0.15625,-1.5332 -0.49805,-2.62207 -1.02539,-3.2666c-0.26367,-0.09766 -0.55664,-0.14649 -0.87891,-0.14649c-0.97656,-0.04883 -1.95801,0.64453 -2.94434,2.08008c-0.98633,1.42578 -1.83105,3.37402 -2.53418,5.84473c-0.91797,3.13477 -1.11328,5.70312 -0.58594,7.70508c0.29297,1.11328 0.7373,1.74316 1.33301,1.88965c1.46484,-0.12695 2.67578,-1.20606 3.63281,-3.23731c0.0293,-0.05859 0.06836,-0.1416 0.11719,-0.24902c0.05859,-0.11719 0.09766,-0.19043 0.11719,-0.21973c0.01953,-0.03906 0.04883,-0.09765 0.08789,-0.17578c0.04883,-0.08789 0.08301,-0.13672 0.10254,-0.14648c0.01953,-0.01953 0.04883,-0.05371 0.08789,-0.10254c0.03906,-0.04883 0.07324,-0.07324 0.10254,-0.07324c0.03906,0 0.07812,-0.00488 0.11719,-0.01465c0.04883,-0.01953 0.09765,-0.01953 0.14648,0c0.05859,0.01953 0.12207,0.03906 0.19043,0.05859c0.06836,0.00977 0.1416,0.03418 0.21973,0.07324l0.95215,0.39551c0.18555,0.06836 0.27832,0.22461 0.27832,0.46875c0.00977,0.23438 -0.05371,0.47852 -0.19043,0.73242c-0.9375,1.69922 -1.85059,2.90527 -2.73926,3.61816c-0.88867,0.70313 -1.99219,1.05469 -3.31055,1.05469c-0.60547,0 -1.24512,-0.20996 -1.91894,-0.62988c-1.08398,-0.66406 -1.7334,-2.09473 -1.94824,-4.29199c-0.20508,-2.20703 0.04395,-4.69238 0.74707,-7.45606c0.44922,-1.82617 1.10352,-3.48145 1.96289,-4.96582c0.85938,-1.49414 1.85547,-2.67578 2.98828,-3.54492c1.14258,-0.86914 2.2998,-1.30371 3.47168,-1.30371c0.24414,0 0.57129,0.06836 0.98145,0.20508c0.41992,0.13672 0.75195,0.29785 0.99609,0.4834z"/><path d="M115.5823,149.43604c0,0 -1.51855,5.94238 -4.55566,17.82715c0.17578,0.01953 0.63477,0.0293 1.37695,0.0293c1.25977,0 2.42676,-0.72754 3.50098,-2.18262c1.07422,-1.45508 1.93848,-3.42773 2.59277,-5.91797c0.9082,-3.51563 0.97168,-6.09375 0.19043,-7.73437c-0.10742,-0.22461 -0.24414,-0.47852 -0.41016,-0.76172c-0.48828,-0.79102 -1.38672,-1.21094 -2.69531,-1.25977zM113.10672,149.50928l-1.53809,0.17578c-0.38086,0 -0.54199,-0.22949 -0.4834,-0.68848l0.11719,-0.84961c0.04883,-0.3125 0.21972,-0.50293 0.51269,-0.57129c0.80078,-0.15625 1.93848,-0.23437 3.41309,-0.23437c2.05078,0 3.59863,0.55176 4.64356,1.65527c1.04492,1.10352 1.61133,2.7002 1.69922,4.79004c0.11719,2.85156 -0.5127,5.92285 -1.88965,9.21387c-0.85938,2.04102 -1.86523,3.58398 -3.01758,4.62891c-1.2793,1.17187 -2.82715,1.75781 -4.64356,1.75781c-1.07422,0 -1.88477,-0.03906 -2.43164,-0.11719c-0.53711,-0.07813 -0.86914,-0.22949 -0.99609,-0.4541c-0.12695,-0.23437 -0.13184,-0.58105 -0.01465,-1.04004z"/><path d="M128.86844,169.27002c0,0 -2.39746,0 -7.19238,0c-0.24414,0 -0.41992,-0.08789 -0.52734,-0.26367c-0.10742,-0.18555 -0.13184,-0.40527 -0.07324,-0.65918l4.76074,-18.7207h-1.20117c-0.30273,0 -0.48828,-0.04395 -0.55664,-0.13184c-0.06836,-0.09766 -0.06348,-0.31738 0.01465,-0.65918l0.19043,-0.68848c0.06836,-0.26367 0.15137,-0.42969 0.24902,-0.49805c0.09766,-0.06836 0.2832,-0.10254 0.55664,-0.10254h9.78516c0.2832,0 0.46387,0.05371 0.54199,0.16113c0.08789,0.09766 0.09766,0.29297 0.0293,0.58594l-0.21973,0.76172c-0.08789,0.38086 -0.33691,0.57129 -0.74707,0.57129h-6.19629l-1.74316,6.84082h5.30273c0.17578,0 0.30273,0.06836 0.38086,0.20508c0.07813,0.12695 0.09277,0.28809 0.04395,0.4834l-0.21973,0.74707c-0.09766,0.41992 -0.39551,0.62988 -0.89355,0.62988h-5.1416l-2.21191,8.67188h5.75684c0.17578,0 0.30273,0.06836 0.38086,0.20508c0.07813,0.12695 0.09277,0.28809 0.04395,0.4834l-0.20508,0.74707c-0.09766,0.41992 -0.40039,0.62988 -0.9082,0.62988z"/><path d="M142.85769,160.11475c0,0 -1.76758,0 -5.30273,0l-2.16797,8.49609c-0.11719,0.43945 -0.41504,0.65918 -0.89355,0.65918h-0.86426c-0.24414,0 -0.41992,-0.08789 -0.52734,-0.26367c-0.10742,-0.18555 -0.13184,-0.40527 -0.07324,-0.65918l4.76074,-18.7207h-1.17187c-0.30273,0 -0.48828,-0.04395 -0.55664,-0.13184c-0.05859,-0.09766 -0.04883,-0.31738 0.0293,-0.65918l0.17578,-0.68848c0.06836,-0.26367 0.15137,-0.42969 0.24902,-0.49805c0.09766,-0.06836 0.2832,-0.10254 0.55664,-0.10254c0,0 3.26172,0 9.78516,0c0.2832,0 0.46387,0.05371 0.54199,0.16113c0.08789,0.09766 0.09766,0.29297 0.0293,0.58594l-0.21973,0.76172c-0.08789,0.38086 -0.33691,0.57129 -0.74707,0.57129h-6.22559l-2.15332,8.42285h5.46387c0.17578,0 0.30273,0.06836 0.38086,0.20508c0.07813,0.12695 0.09278,0.28809 0.04395,0.4834l-0.20508,0.74707c-0.09766,0.41992 -0.40039,0.62988 -0.9082,0.62988z"/><path d="M151.51492,159.07472c0,0 1.82129,0 5.46387,0c0.32227,0 0.41016,0.21973 0.26367,0.65918l-0.14648,0.51269c-0.01953,0.06836 -0.08301,0.26855 -0.19043,0.60059c-0.09766,0.32227 -0.29785,0.87402 -0.60059,1.65527c-0.30273,0.78125 -0.61035,1.50391 -0.92285,2.16797c-0.3125,0.66406 -0.67871,1.31348 -1.09863,1.94824c-0.41016,0.63477 -0.83496,1.14746 -1.27441,1.53809c-0.98633,0.85937 -2.15332,1.28906 -3.50098,1.28906c-0.76172,0 -1.48926,-0.22949 -2.18262,-0.68848c-1.28906,-0.84961 -1.93359,-2.83691 -1.93359,-5.96191c0,-1.64062 0.24902,-3.45215 0.74707,-5.43457c0.49805,-1.99219 1.16211,-3.72559 1.99219,-5.20019c0.83984,-1.48438 1.81641,-2.66113 2.92969,-3.53027c1.11328,-0.87891 2.25586,-1.31836 3.42773,-1.31836c0.78125,0 1.44531,0.21484 1.99219,0.64453c0.55664,0.41992 1.02051,1.18164 1.3916,2.28516c0.38086,1.10352 0.57129,1.93359 0.57129,2.49023c0,0.55664 -0.2002,0.9082 -0.60059,1.05469l-1.04004,0.30762c-0.20508,0.04883 -0.37598,0.01953 -0.5127,-0.08789c-0.12695,-0.11719 -0.20508,-0.4834 -0.23437,-1.09863c-0.0293,-0.625 -0.18555,-1.26465 -0.46875,-1.91894c-0.27344,-0.66406 -0.63965,-1.04981 -1.09863,-1.15723c-0.92773,-0.25391 -1.95312,0.35156 -3.07617,1.81641c-1.11328,1.45508 -2.02637,3.48145 -2.73926,6.0791c-0.86914,3.13477 -1.06445,5.71777 -0.58594,7.74902c0.26367,1.15234 0.66895,1.74805 1.21582,1.78711c1.04492,0.11719 1.95801,-0.40527 2.73926,-1.56738c0.88867,-1.30859 1.5625,-2.83691 2.02148,-4.58496h-2.87109c-0.39063,0 -0.5127,-0.27832 -0.36621,-0.83496l0.24902,-0.84961c0.03906,-0.14648 0.08789,-0.23926 0.14649,-0.27832c0.05859,-0.04883 0.15625,-0.07324 0.29297,-0.07324z"/><path d="M162.85281,148.20558c0.11719,-0.43945 0.41504,-0.65918 0.89355,-0.65918h0.87891c0.24414,0 0.41992,0.09277 0.52734,0.27832c0.10742,0.18555 0.13184,0.40527 0.07324,0.65918l-2.06543,8.07129h7.13379l2.12402,-8.34961c0.11719,-0.43945 0.41992,-0.65918 0.9082,-0.65918h0.86426c0.24414,0 0.41992,0.09277 0.52734,0.27832c0.10742,0.18555 0.13183,0.40527 0.07324,0.65918l-5.12695,20.12695c-0.11719,0.43945 -0.41992,0.65918 -0.9082,0.65918h-0.86426c-0.24414,0 -0.41992,-0.08789 -0.52734,-0.26367c-0.10742,-0.18555 -0.13184,-0.40527 -0.07324,-0.65918l2.47559,-9.72656h-7.13379l-2.54883,9.99023c-0.11719,0.43945 -0.41504,0.65918 -0.89355,0.65918h-0.86426c-0.24414,0 -0.41992,-0.08789 -0.52734,-0.26367c-0.10742,-0.18555 -0.13184,-0.40527 -0.07324,-0.65918z"/><path d="M178.79031,148.20558c0.11719,-0.43945 0.41504,-0.65918 0.89355,-0.65918h0.87891c0.24414,0 0.41504,0.09277 0.5127,0.27832c0.10742,0.18555 0.13184,0.40527 0.07324,0.65918l-5.12695,20.12695c-0.11719,0.43945 -0.41504,0.65918 -0.89355,0.65918h-0.87891c-0.24414,0 -0.41992,-0.08789 -0.52734,-0.26367c-0.10742,-0.18555 -0.13184,-0.40527 -0.07324,-0.65918z"/><path d="M186.53934,147.5464c0,0 0.30273,0 0.9082,0c0.24414,0 0.41992,0.09277 0.52734,0.27832c0.10742,0.17578 0.13183,0.38574 0.07324,0.62988l-5.00977,19.70215c-0.42969,1.66992 -1.15234,2.91016 -2.16797,3.7207c-0.83008,0.66406 -1.65039,1.10352 -2.46094,1.31836c-0.36133,0.11719 -0.60059,0.05859 -0.71777,-0.17578l-0.35156,-0.68848c-0.19531,-0.36133 -0.11719,-0.62012 0.23438,-0.77637c0.3418,-0.15625 0.63965,-0.31738 0.89355,-0.4834c0.24414,-0.15625 0.51758,-0.37598 0.82031,-0.65918c0.61523,-0.57617 1.07422,-1.43555 1.37695,-2.57812l5.00977,-19.62891c0.11719,-0.43945 0.40527,-0.65918 0.86426,-0.65918z"/><path d="M192.32547,148.20558c0.11719,-0.43945 0.41504,-0.65918 0.89355,-0.65918h0.87891c0.24414,0 0.41504,0.09277 0.5127,0.27832c0.10742,0.18555 0.13184,0.40527 0.07324,0.65918l-2.12402,8.32031l7.20703,-8.77441c0.25391,-0.32227 0.58105,-0.4834 0.98144,-0.4834h1.25977c0.26367,0 0.43457,0.08789 0.5127,0.26367c0.08789,0.17578 0.04883,0.37109 -0.11719,0.58594l-8.18848,9.71191l3.06152,10.26855c0.18555,0.5957 0.01465,0.89356 -0.5127,0.89356h-1.11328c-0.2832,0 -0.47363,-0.04883 -0.57129,-0.14648c-0.09766,-0.10742 -0.18555,-0.30762 -0.26367,-0.60059l-2.82715,-9.47754l-2.43164,9.56543c-0.11719,0.43945 -0.41504,0.65918 -0.89355,0.65918h-0.87891c-0.24414,0 -0.41992,-0.08789 -0.52734,-0.26367c-0.10742,-0.18555 -0.13184,-0.40527 -0.07324,-0.65918z"/><path d="M208.76101,169.27002c0,0 -2.73437,0 -8.20312,0c-0.24414,0 -0.41992,-0.08789 -0.52734,-0.26367c-0.10742,-0.18555 -0.13184,-0.40527 -0.07324,-0.65918l5.1416,-20.1416c0.11719,-0.43945 0.41504,-0.65918 0.89355,-0.65918h0.87891c0.24414,0 0.41504,0.09277 0.51269,0.27832c0.10742,0.18555 0.13184,0.40527 0.07324,0.65918l-4.77539,18.7207h6.79688c0.18555,0 0.31738,0.06836 0.39551,0.20508c0.07812,0.12695 0.09277,0.28809 0.04395,0.4834l-0.20508,0.74707c-0.09766,0.41992 -0.41504,0.62988 -0.95215,0.62988z"/><path d="M216.64187,148.20558c0.11719,-0.42969 0.40527,-0.64941 0.86426,-0.65918h0.9668c0.41992,0 0.65918,0.22949 0.71777,0.68848c0.54687,5.80078 0.71777,10.0293 0.51269,12.68555l7.67578,-12.80273c0.21484,-0.38086 0.5127,-0.57129 0.89356,-0.57129h0.99609v0c0.21484,0.01953 0.37109,0.11719 0.46875,0.29297c0.10742,0.17578 0.13182,0.39063 0.0732,0.64453l-5.12695,20.12695c-0.11719,0.43945 -0.41992,0.65918 -0.9082,0.65918h-0.86426c-0.24414,0 -0.41992,-0.08789 -0.52734,-0.26367c-0.10742,-0.18555 -0.13184,-0.40527 -0.07324,-0.65918l3.45703,-13.56445c-0.69336,1.2207 -1.66504,2.81738 -2.91504,4.79004c-1.25,1.96289 -2.04102,3.21289 -2.37305,3.75c-0.50781,0.81055 -1.01074,1.20117 -1.50879,1.17188l-0.60059,-0.0293c-0.54687,-0.0293 -0.7959,-0.42969 -0.74707,-1.20117c0.13672,-2.11914 0.07813,-5.01465 -0.17578,-8.68652l-3.57418,14.0332c-0.11719,0.43945 -0.41504,0.65918 -0.89355,0.65918h-0.87891c-0.24414,0 -0.41992,-0.08789 -0.52734,-0.26367c-0.10742,-0.18555 -0.13183,-0.40527 -0.07324,-0.65918z"/><path d="M233.80984,148.20558c0.11719,-0.42969 0.40527,-0.64941 0.86426,-0.65918h0.9082c0.40039,0 0.65918,0.3125 0.77637,0.9375l2.65137,15.19043l3.94043,-15.46875c0.11719,-0.43945 0.41992,-0.65918 0.9082,-0.65918h0.86426c0.24414,0 0.41992,0.09277 0.52734,0.27832c0.10743,0.18555 0.13183,0.40527 0.0732,0.65918l-5.12695,20.12695c-0.11719,0.43945 -0.41992,0.65918 -0.9082,0.65918h-1.06934c-0.25391,0 -0.41504,-0.11719 -0.4834,-0.35156c-0.03907,-0.14648 -0.06837,-0.26855 -0.0879,-0.36621c-0.00973,-0.09766 -0.0195,-0.16602 -0.0293,-0.20508l-2.65137,-15.13184l-3.92578,15.39551c-0.11719,0.43945 -0.41504,0.65918 -0.89355,0.65918h-0.87891c-0.24414,0 -0.41992,-0.08789 -0.52734,-0.26367c-0.10742,-0.18555 -0.13184,-0.40527 -0.07324,-0.65918z"/><path d="M247.55008,165.66651c0.33203,1.14258 0.86425,1.71387 1.59668,1.71387c1.06445,0 1.99707,-0.52246 2.79785,-1.56738c0.97656,-1.35742 1.91406,-3.49609 2.8125,-6.41602c0.84961,-2.76367 1.16211,-5.06836 0.9375,-6.91406c-0.10742,-0.83984 -0.32226,-1.49902 -0.64453,-1.97754c-0.32227,-0.48828 -0.73731,-0.73242 -1.24512,-0.73242c-1.10351,0 -2.08496,0.55664 -2.94434,1.66992c-1.04492,1.38672 -2.00683,3.60352 -2.88574,6.65039c-0.86914,3.03711 -1.01074,5.56152 -0.4248,7.57324zM244.73758,162.76613c0,-2.69531 0.63476,-5.52246 1.90429,-8.48145c1.39649,-3.22266 3.08594,-5.35645 5.06836,-6.40137c0.72266,-0.38086 1.46485,-0.57129 2.22657,-0.57129c0.76171,0 1.62597,0.27832 2.59277,0.83496c0.63477,0.38086 1.06934,0.98633 1.30371,1.81641c0.23437,0.83008 0.35156,2.04102 0.35156,3.63281c0,1.58203 -0.35156,3.70605 -1.05468,6.37207c-1.23047,4.69727 -3.13477,7.66113 -5.7129,8.8916c-0.76171,0.37109 -1.56738,0.55664 -2.41699,0.55664c-0.67383,0 -1.37207,-0.19043 -2.09472,-0.57129c-1.44531,-0.76172 -2.16797,-2.78809 -2.16797,-6.0791z"/><path d="M262.63797,158.22511l1.66992,-0.08789c1.59179,-0.05859 2.69531,-0.65918 3.31055,-1.80176c0.39062,-0.72266 0.68359,-1.54785 0.8789,-2.47559c0.20508,-0.9375 0.30762,-1.71875 0.30762,-2.34375c0,-1.18164 -0.67871,-1.80176 -2.03613,-1.86035c-0.43945,-0.01953 -1.08399,-0.03418 -1.9336,-0.04395zM262.40359,149.59718c-0.33203,0 -0.64941,0 -0.95215,0c-0.29297,0 -0.49804,-0.08301 -0.61523,-0.24902c-0.11719,-0.17578 -0.14649,-0.37598 -0.0879,-0.60059l0.17578,-0.60059c0.03907,-0.17578 0.13184,-0.31738 0.27832,-0.4248c0.14649,-0.11719 0.28321,-0.17578 0.41016,-0.17578h4.70215c1.61133,0 2.83203,0.33691 3.6621,1.01074c0.83985,0.67383 1.25977,1.77734 1.25977,3.31055c0,1.13281 -0.24414,2.38281 -0.73242,3.75c-0.47852,1.36719 -1.05469,2.30957 -1.72852,2.82715c-0.33203,0.25391 -0.5664,0.42969 -0.70312,0.52734c-0.12695,0.08789 -0.43945,0.24902 -0.9375,0.4834c-0.49805,0.23437 -0.99121,0.40039 -1.47949,0.49805c-1.02539,0.20508 -2.20704,0.31738 -3.54493,0.33691l-2.12402,8.32031c-0.11719,0.43945 -0.41504,0.65918 -0.89355,0.65918h-0.86426c-0.24414,0 -0.41992,-0.08789 -0.52735,-0.26367c-0.10742,-0.18555 -0.13182,-0.40527 -0.0732,-0.65918z"/><path d="M273.65359,170.73488c0,0 0.06836,-0.22949 0.20508,-0.68848c0.0488,-0.22461 0.16599,-0.40039 0.35156,-0.52734c0.18555,-0.12695 0.39551,-0.22461 0.62989,-0.29297c-0.37109,-0.09766 -0.71777,-0.23437 -1.04004,-0.41016c-0.70313,-0.36133 -1.23535,-1.07422 -1.59668,-2.13867c-0.36133,-1.06445 -0.542,-2.43652 -0.542,-4.11621c0,-2.55859 0.63477,-5.31738 1.9043,-8.27637c1.39649,-3.22266 3.08594,-5.35645 5.06836,-6.40137c0.72266,-0.38086 1.46485,-0.57129 2.22656,-0.57129c0.76172,0 1.62598,0.27832 2.59278,0.83496c0.63477,0.38086 1.06934,0.98633 1.30371,1.81641c0.23437,0.83008 0.35156,2.04102 0.35156,3.63281c0,1.58203 -0.35156,3.70605 -1.05469,6.37207c-1.23047,4.69727 -3.13476,7.66113 -5.71289,8.8916c-0.33203,0.16602 -0.67382,0.29297 -1.02539,0.38086c0.14649,0.04883 0.29297,0.10742 0.43945,0.17578c1.11329,0.50781 2.31446,0.50781 3.60352,0c0.20508,-0.08789 0.36133,-0.04883 0.46875,0.11719c0.10742,0.17578 0.13182,0.39551 0.0732,0.65918l-0.17578,0.76172c-0.02927,0.20508 -0.08786,0.35156 -0.17578,0.43945c-0.07813,0.08789 -0.28809,0.21484 -0.62988,0.38086c-0.3418,0.16602 -0.80079,0.25879 -1.37696,0.27832c-0.57617,0.01953 -1.18163,-0.10742 -1.8164,-0.38086c-1.15235,-0.58594 -2.36328,-0.58594 -3.63281,0c-0.22461,0.08789 -0.37598,0.04394 -0.45411,-0.13184c-0.06836,-0.17578 -0.06346,-0.44434 0.0147,-0.80566zM274.4739,165.66651c0.35157,1.14258 0.88868,1.71387 1.61133,1.71387c1.05469,0 1.98242,-0.52246 2.78321,-1.56738c0.99609,-1.37695 1.93847,-3.51563 2.82714,-6.41602c0.84961,-2.76367 1.15723,-5.06836 0.92286,-6.91406c-0.09766,-0.83984 -0.31251,-1.49902 -0.64454,-1.97754c-0.32226,-0.48828 -0.7373,-0.73242 -1.24511,-0.73242c-1.10352,0 -2.08497,0.55664 -2.94434,1.66992c-1.04492,1.38672 -2.00683,3.6084 -2.88574,6.66504c-0.86914,3.04688 -1.01074,5.56641 -0.42481,7.55859z"/><path d="M290.07449,157.71241l1.875,-0.08789c1.35742,-0.05859 2.39746,-0.64453 3.12012,-1.75781c0.69336,-1.06445 1.04004,-2.51465 1.04004,-4.35058c0,-0.51758 -0.17578,-0.95215 -0.52735,-1.30371c-0.34179,-0.35156 -0.82031,-0.53223 -1.43554,-0.54199c-0.61524,-0.00977 -1.28419,-0.01953 -2.00684,-0.0293zM289.69362,149.62647c-0.3125,0 -0.61523,0 -0.9082,0c-0.29297,0 -0.49805,-0.08301 -0.61524,-0.24902c-0.11719,-0.17578 -0.14649,-0.37598 -0.0879,-0.60059l0.14649,-0.62988c0.03907,-0.17578 0.13184,-0.31738 0.27832,-0.4248c0.14648,-0.11719 0.2832,-0.17578 0.41015,-0.17578h5.09766c1.37695,0 2.48047,0.34668 3.31055,1.04004c0.83007,0.68359 1.24511,1.69922 1.24511,3.04688c0,1.34766 -0.25879,2.6123 -0.77636,3.79394c-0.50781,1.18164 -1.06934,2.02637 -1.68457,2.53418c-0.60547,0.49805 -1.06934,0.83008 -1.3916,0.99609c-0.32227,0.15625 -0.67383,0.29785 -1.05469,0.4248l1.37695,8.8623c0.10742,0.68359 -0.11231,1.02539 -0.65918,1.02539h-1.02539c-0.26367,0 -0.4541,-0.07812 -0.57129,-0.23437c-0.10742,-0.15625 -0.18554,-0.42969 -0.23437,-0.82031l-1.12793,-8.4668l-1.875,0.0293l-2.25586,8.83301c-0.11719,0.43945 -0.41504,0.65918 -0.89356,0.65918h-0.86425c-0.24415,0 -0.41993,-0.08789 -0.52735,-0.26367c-0.10742,-0.18555 -0.13182,-0.40527 -0.0732,-0.65918z"/><path d="M308.48758,147.22413c1.29883,0 2.21679,0.53223 2.7539,1.59668c0.53711,1.06445 0.80567,2.59277 0.80567,4.58496c0,0.49805 -0.16602,0.7959 -0.49805,0.89355l-1.05469,0.33691c-0.16601,0.04883 -0.32715,0.01953 -0.4834,-0.08789c-0.15625,-0.10742 -0.23437,-0.28809 -0.23437,-0.54199c0,-2.64648 -0.42969,-4.16992 -1.28906,-4.57031c-0.40039,-0.20508 -0.87891,-0.1709 -1.43555,0.10254c-0.55664,0.26367 -1.12305,0.9082 -1.69922,1.93359c-0.57617,1.01563 -0.88379,2.17773 -0.92285,3.48633c-0.01953,0.52734 0.06836,0.93262 0.26367,1.21582c0.19531,0.27344 0.57617,0.50781 1.14258,0.70313l1.23047,0.4248c1.18164,0.40039 1.95801,0.88867 2.3291,1.46484c0.33203,0.52734 0.49805,1.38184 0.49805,2.56348c0,1.17187 -0.31738,2.43164 -0.95215,3.7793c-0.625,1.34766 -1.47461,2.46094 -2.54883,3.33984c-1.07422,0.86914 -2.19727,1.30371 -3.36914,1.30371c-2.36328,0 -3.54492,-1.91895 -3.54492,-5.75684v-0.10254c0,-0.76172 0.15137,-1.18164 0.4541,-1.25977l1.11328,-0.35156c0.19531,-0.07812 0.35645,-0.06347 0.4834,0.04395c0.13672,0.10742 0.20508,0.2832 0.20508,0.52734c0,1.57227 0.09277,2.75879 0.27832,3.55957c0.18555,0.79102 0.49316,1.29395 0.92285,1.50879c0.30273,0.06836 0.69336,0 1.17187,-0.20508c0.81055,-0.36133 1.53809,-1.1084 2.18262,-2.24121c0.79101,-1.36719 1.17187,-2.91504 1.14258,-4.64355c-0.0098,-0.52734 -0.30277,-0.94727 -0.87891,-1.25977c-0.29297,-0.14648 -0.708,-0.30273 -1.24511,-0.46875l-1.25977,-0.39551c-0.56641,-0.16602 -1.05469,-0.4834 -1.46484,-0.95215c-0.41016,-0.46875 -0.61524,-1.10352 -0.61524,-1.9043c0,-0.80078 0.16113,-1.70898 0.4834,-2.72461c0.33203,-1.02539 0.77149,-1.97754 1.31836,-2.85645c0.55664,-0.87891 1.25,-1.60645 2.08008,-2.18262c0.83984,-0.57617 1.71875,-0.86426 2.63672,-0.86426z"/><path d="M326.095,149.71437c0,0 -1.5332,0 -4.59961,0l-4.83399,18.89648c-0.11719,0.43945 -0.41504,0.65918 -0.89355,0.65918h-0.86426c-0.24414,0 -0.41992,-0.08789 -0.52734,-0.26367c-0.10742,-0.18555 -0.13182,-0.40527 -0.0732,-0.65918l4.74609,-18.63281h-4.74609c-0.56641,0 -0.78613,-0.22949 -0.65918,-0.68848l0.20507,-0.87891c0.0586,-0.25391 0.14649,-0.41504 0.26368,-0.4834c0.12695,-0.07812 0.33691,-0.11719 0.62988,-0.11719h11.7041c0.60547,0 0.84472,0.2832 0.71777,0.84961l-0.14648,0.68848c-0.07813,0.41992 -0.38574,0.62988 -0.92285,0.62988z"/><path d="M326.81277,168.40576c-1.39648,-1.48438 -1.63574,-3.98438 -0.71777,-7.5l3.2373,-12.7002c0.11719,-0.43945 0.41992,-0.65918 0.90821,-0.65918h0.86425c0.24415,0 0.41993,0.09277 0.52735,0.27832c0.10742,0.18555 0.13182,0.40527 0.0732,0.65918l-3.38379,13.37402c-0.96679,3.7793 -0.28808,5.66895 2.03613,5.66895c0.9668,0 1.81641,-0.39551 2.54883,-1.18652c0.73242,-0.80078 1.35254,-2.18262 1.86035,-4.14551l3.57422,-13.98926c0.11719,-0.43945 0.41504,-0.65918 0.89356,-0.65918h0.74707c0.24414,0 0.41504,0.09277 0.51269,0.27832c0.09766,0.18555 0.11719,0.40527 0.0586,0.65918l-3.50098,13.91602c-0.76172,3.10547 -2.00195,5.1709 -3.7207,6.19629c-0.98633,0.58594 -2.14844,0.87891 -3.48633,0.87891c-1.32813,0 -2.33887,-0.35645 -3.03223,-1.06934z"/><path d="M344.34695,147.60498c0.52735,0 0.75684,0.27344 0.68848,0.82031l-1.21582,18.20801l9.06738,-18.45703c0.21485,-0.44922 0.59571,-0.64941 1.14258,-0.60059l0.65918,0.05859c0.66406,0.04883 0.87402,0.42969 0.62988,1.14258l-10.01953,19.29199c-0.38086,0.77148 -0.98145,1.17187 -1.80176,1.20117l-0.92285,0.0293c-0.40039,0.00977 -0.70801,-0.13672 -0.92285,-0.43945c-0.21485,-0.30273 -0.30762,-0.70801 -0.27832,-1.21582l1.05469,-19.37988c0.0488,-0.43945 0.34665,-0.65918 0.89355,-0.65918z"/><path d="M359.80105,147.5464c0.52735,0 0.60547,0.39063 0.23438,1.17188c-0.54687,0.97656 -1.08887,2.50488 -1.62598,4.58496c-0.53711,2.08008 -0.91308,4.22363 -1.12793,6.43066c-0.21484,2.20703 -0.16113,4.11621 0.16113,5.72754c1.37695,-1.50391 2.75391,-3.71582 4.13086,-6.63574c1.38672,-2.92969 2.32422,-5.61035 2.8125,-8.04199l0.0586,-0.04395c0.16601,-0.86914 0.32715,-1.5625 0.4834,-2.08008c0.15625,-0.51758 0.3125,-0.83008 0.46875,-0.9375c0.15625,-0.11719 0.38085,-0.17578 0.67382,-0.17578h1.08399c0.46875,0 0.5957,0.30273 0.38086,0.9082c-0.78125,2.30469 -1.30371,4.80957 -1.56738,7.51465c-0.25391,2.70508 -0.30274,4.80957 -0.14649,6.31348c0.16601,1.49414 0.34668,2.66113 0.54199,3.50098c0.79102,-0.87891 1.58692,-2.02637 2.3877,-3.44238c0.81055,-1.41602 1.51367,-2.96387 2.10937,-4.64356c1.2793,-3.56445 1.98243,-6.70898 2.10938,-9.43359c0.01953,-0.32227 0.07813,-0.52246 0.17578,-0.60059c0.09765,-0.07812 0.23925,-0.11719 0.4248,-0.11719h1.20118c0.33203,0 0.5371,0.04883 0.61523,0.14648c0.08789,0.09766 0.11229,0.52734 0.0732,1.28906c-0.02927,0.76172 -0.20016,1.89453 -0.51269,3.39844c-0.30273,1.49414 -0.74219,3.06152 -1.31836,4.70215c-0.57617,1.64062 -1.24512,3.21777 -2.00684,4.73144c-0.76172,1.51367 -1.66504,2.93457 -2.70996,4.26269c-1.03515,1.32813 -2.12402,2.39258 -3.2666,3.19336h-0.35156c-0.36133,0 -0.61523,-0.2002 -0.76172,-0.60059c-0.74219,-2.12891 -1.0791,-5.1709 -1.01074,-9.12598c-0.72266,1.69922 -1.70411,3.44238 -2.94434,5.22949c-1.23047,1.78711 -2.39258,3.28613 -3.48633,4.49707h-0.74707c-0.35156,0 -0.60058,-0.2002 -0.74707,-0.60059c-0.42969,-1.28906 -0.69824,-2.8418 -0.80566,-4.6582c-0.09766,-1.82617 -0.04883,-3.67676 0.14648,-5.55176c0.42969,-4.0918 1.33789,-7.58789 2.72461,-10.48828c0.14649,-0.2832 0.41992,-0.42481 0.82031,-0.42481z"/><path d="M381.68582,159.25049l1.96289,9.05273c0.0586,0.27344 0.04397,0.50293 -0.0439,0.68848c-0.08789,0.18555 -0.24902,0.27832 -0.48339,0.27832h-1.11329c-0.21484,0 -0.41503,-0.08301 -0.60058,-0.24902c-0.17578,-0.16602 -0.29785,-0.4248 -0.36621,-0.77637l-1.24512,-7.48535l-3.91113,7.82227c-0.20508,0.45898 -0.56641,0.68848 -1.08399,0.68848h-1.11328c-0.33203,0 -0.54687,-0.10254 -0.64453,-0.30762c-0.09765,-0.21484 -0.03906,-0.53223 0.17578,-0.95215l5.6836,-10.19531l-1.96289,-9.09668c-0.22461,-0.80078 0.03417,-1.20117 0.77636,-1.20117h0.71778c0.33203,0 0.58593,0.07813 0.76171,0.23438c0.18555,0.15625 0.3125,0.41992 0.38086,0.79102l1.36231,7.82227l4.24805,-8.33496c0.10742,-0.17578 0.22461,-0.30273 0.35156,-0.38086c0.12695,-0.08789 0.33691,-0.13184 0.62988,-0.13184h0.9668c0.3125,0 0.53223,0.06348 0.65918,0.19043c0.23437,0.22461 0.20507,0.58105 -0.0879,1.06934z"/><path d="M392.36453,158.00538c2.79297,-4.15039 4.79492,-7.50488 6.00586,-10.06348c0.12695,-0.29297 0.4248,-0.4248 0.89355,-0.39551l0.9375,0.11719c0.23438,0.01953 0.39063,0.12696 0.46875,0.32227c0.08789,0.19531 0.04883,0.44922 -0.11718,0.76172c-2.34375,4.11133 -4.92676,8.04199 -7.74903,11.79199l-2.06543,8.07129c-0.11719,0.43945 -0.41504,0.65918 -0.89355,0.65918h-0.86426c-0.24414,0 -0.41992,-0.08789 -0.52734,-0.26367c-0.10743,-0.18555 -0.13183,-0.40527 -0.0732,-0.65918l2.09473,-8.27637c0,-1.31836 -0.15625,-3.19336 -0.46875,-5.625c-0.30273,-2.44141 -0.5664,-4.0625 -0.79101,-4.86328c-0.22461,-0.81055 -0.26856,-1.34277 -0.13184,-1.59668c0.13672,-0.25391 0.35156,-0.39062 0.64453,-0.41016l0.83496,-0.11719c0.28321,-0.01953 0.4834,0.01465 0.60059,0.10254c0.12695,0.08789 0.21973,0.29297 0.27832,0.61523c0.625,3.70117 0.93262,6.97754 0.92285,9.8291z"/><path d="M402.75027,147.5464c0,0 3.26172,0 9.78516,0c0.26367,0 0.42969,0.05371 0.49805,0.16113c0.07812,0.10742 0.10252,0.26367 0.0732,0.46875l-0.17578,0.87891c-0.0586,0.25391 -0.15626,0.42969 -0.29297,0.52734c-0.12695,0.08789 -0.3125,0.13184 -0.55664,0.13184h-0.11719l-11.48438,17.40234h7.13379c0.58594,0 0.81543,0.26856 0.68848,0.80567l-0.14648,0.68848c-0.07813,0.43945 -0.41016,0.65918 -0.9961,0.65918h-8.81836c-0.34179,0 -0.60058,-0.06836 -0.77636,-0.20508c-0.18555,-0.13672 -0.27833,-0.30762 -0.27833,-0.5127c0,-0.20508 0.04395,-0.4248 0.13184,-0.65918l11.95313,-18.17871h-6.70899c-0.56641,0 -0.78613,-0.26367 -0.65918,-0.79102l0.27832,-0.95215c0.03907,-0.17578 0.09278,-0.28809 0.16113,-0.33691c0.06836,-0.05859 0.1709,-0.08789 0.30762,-0.08789z"/><path d="M77.08621,193.80616c-0.9668,-0.54688 -1.73828,-0.62501 -2.31445,-0.23438c-0.57617,0.38086 -1.12793,1.14746 -1.65527,2.29981c-0.89844,1.95312 -1.52344,3.87695 -1.875,5.77148c-0.15625,0.83985 -0.21973,1.44043 -0.19043,1.80176c0.03906,0.35156 0.19043,0.60058 0.4541,0.74707c0.26367,0.14648 0.61035,0.04394 1.04004,-0.30762c0.43945,-0.35156 0.89355,-0.88379 1.3623,-1.59668c0.47852,-0.71289 0.94238,-1.65039 1.3916,-2.8125c0.45898,-1.17187 1.05469,-3.06152 1.78711,-5.66894zM77.54031,192.12156c0.10742,-0.45898 0.33691,-0.68848 0.68848,-0.68848l0.68848,-0.0293c0.36133,0 0.61523,0.09766 0.76172,0.29297c0.14648,0.19531 0.16601,0.45898 0.05859,0.79101l-3.58887,11.99707c0.61523,-0.44921 1.23047,-1.10839 1.8457,-1.97754c0.21484,-0.3125 0.46387,-0.38086 0.74707,-0.20507l0.71777,0.4834c0.3125,0.20507 0.36133,0.4541 0.14648,0.74707c-0.81055,0.96679 -1.5625,1.71386 -2.25586,2.24121c-0.69336,0.51757 -1.50879,0.88867 -2.44629,1.11328c-0.12695,0.02927 -0.24414,0.00973 -0.35156,-0.0586c-0.09766,-0.06836 -0.16113,-0.15625 -0.19043,-0.26368l-0.57129,-1.66992c-0.3125,0.44922 -0.70312,0.88867 -1.17187,1.31836c-0.45898,0.42969 -0.85937,0.64453 -1.20117,0.64453h-0.05859c-0.15625,0 -0.40527,-0.1123 -0.74707,-0.33691c-0.33203,-0.23437 -0.5957,-0.46875 -0.79102,-0.70313c-0.18555,-0.23437 -0.31738,-0.40039 -0.39551,-0.49804c-0.06836,-0.09766 -0.14648,-0.21973 -0.23437,-0.36621c-0.08789,-0.15625 -0.15137,-0.30762 -0.19043,-0.4541c-0.03906,-0.14649 -0.07324,-0.31739 -0.10254,-0.5127c-0.05859,-0.3418 -0.04883,-0.84473 0.0293,-1.50879c0.21484,-1.63086 0.71777,-3.49121 1.50879,-5.58105c0.80078,-2.09961 1.58203,-3.50586 2.34375,-4.21875c0.76172,-0.72266 1.71875,-1.08398 2.87109,-1.08398c0.67383,0 1.30371,0.17578 1.88965,0.52734z"/><path d="M87.64773,184.69485c0,0 -0.86914,3.41309 -2.60742,10.23926l0.4541,-0.76172c0.41992,-0.69336 0.89844,-1.28906 1.43555,-1.78711c0.53711,-0.50781 0.97656,-0.76172 1.31836,-0.76172h0.05859c0.15625,0 0.40527,0.11719 0.74707,0.35156c0.3418,0.22461 0.66895,0.53223 0.98145,0.92285c0.32227,0.38086 0.54688,0.77637 0.67383,1.18653c0.12695,0.41015 0.10742,1.24511 -0.05859,2.50488c-0.15625,1.25977 -0.62988,2.94434 -1.4209,5.05371c-0.79102,2.09961 -1.56738,3.50097 -2.3291,4.2041c-0.76172,0.69336 -1.72363,1.04004 -2.88574,1.04004c-0.67383,0 -1.30859,-0.18066 -1.9043,-0.54199c-0.15625,0.2832 -0.42969,0.4248 -0.82031,0.4248h-0.5127c-0.36133,0 -0.61523,-0.08789 -0.76172,-0.26367c-0.13672,-0.18555 -0.1709,-0.41992 -0.10254,-0.70312l5.49316,-21.1377c0.11719,-0.43945 0.41504,-0.65918 0.89355,-0.65918h0.68848c0.54688,0 0.7666,0.22949 0.65918,0.68848zM82.57937,204.66066c0.97656,0.55664 1.75293,0.64453 2.3291,0.26367c0.57617,-0.39063 1.12793,-1.16699 1.65527,-2.3291c0.89844,-1.94336 1.51855,-3.86231 1.86035,-5.75684c0.15625,-0.83984 0.21973,-1.43554 0.19043,-1.78711c-0.0293,-0.36133 -0.17578,-0.61523 -0.43945,-0.76172c-0.26367,-0.14648 -0.61523,-0.04394 -1.05469,0.30762c-0.43945,0.35156 -0.89844,0.88379 -1.37695,1.59668c-0.46875,0.71289 -0.9375,1.66016 -1.40625,2.8418c-0.45898,1.18164 -1.01562,2.96875 -1.66992,5.36133z"/><path d="M95.36746,192.42919c0.41016,-0.38086 0.83984,-0.6543 1.28906,-0.82031c0.45898,-0.17578 0.89844,-0.23437 1.31836,-0.17578c0.42969,0.04883 0.84961,0.20019 1.25976,0.4541c0.56641,0.3418 1.04492,0.7373 1.43555,1.18652c0.39063,0.43945 0.46875,0.7959 0.23438,1.06934l-0.5127,0.57129c-0.3418,0.34179 -0.64453,0.39062 -0.9082,0.14648c-0.0293,-0.02927 -0.14649,-0.14645 -0.35156,-0.35156c-0.20508,-0.21484 -0.37598,-0.38574 -0.51269,-0.51269c-0.42969,-0.36133 -0.82031,-0.5127 -1.17187,-0.45411c-0.71289,0.13672 -1.46973,0.90332 -2.27051,2.29981c-0.79102,1.39649 -1.36719,2.83692 -1.72852,4.32129c-0.36133,1.48437 -0.44922,2.73437 -0.26367,3.75c0.03906,0.23437 0.22461,0.4541 0.55664,0.65918c0.3418,0.19531 0.5957,0.27832 0.76172,0.24902c0.61523,-0.34179 1.28906,-0.94238 2.02148,-1.80176c0.16602,-0.17578 0.3125,-0.25879 0.43945,-0.24902c0.12695,0 0.29785,0.06348 0.5127,0.19043l0.4541,0.29297c0.23438,0.13672 0.32227,0.30274 0.26367,0.49805c-0.16602,0.55664 -0.70312,1.21094 -1.61133,1.96289c-0.9082,0.74219 -1.5625,1.16699 -1.96289,1.27441c-0.40039,0.10742 -1.00098,-0.04395 -1.80176,-0.4541c-0.80078,-0.41016 -1.29883,-0.81055 -1.49414,-1.20117c-0.41016,-0.92774 -0.52246,-2.0752 -0.33691,-3.44239c0.17578,-1.37695 0.48828,-2.70508 0.9375,-3.98437c0.44922,-1.2793 0.88867,-2.23145 1.31836,-2.85645c0.42969,-0.63477 0.79102,-1.13281 1.08398,-1.49414c0.29297,-0.37109 0.63965,-0.74707 1.04004,-1.12793z"/><path d="M113.17996,184.69485c0,0 -1.89941,6.5918 -5.69824,19.77539c0.57617,-0.42969 1.17676,-1.08398 1.80176,-1.96289c0.21484,-0.3125 0.46387,-0.38086 0.74707,-0.20508l0.71777,0.4834c0.3125,0.20508 0.36133,0.4541 0.14648,0.74707c-0.81055,0.96679 -1.5625,1.71386 -2.25586,2.24121c-0.69336,0.51758 -1.50879,0.88867 -2.44629,1.11328c-0.12695,0.02927 -0.24414,0.00973 -0.35156,-0.0586c-0.09766,-0.06836 -0.16113,-0.15625 -0.19043,-0.26367l-0.57129,-1.65528c-0.3125,0.43945 -0.70312,0.87403 -1.17187,1.30372c-0.45898,0.42969 -0.85938,0.64453 -1.20117,0.64453h-0.05859c-0.39062,0 -0.89844,-0.32715 -1.52344,-0.98145c-0.61523,-0.66406 -0.9375,-1.37695 -0.9668,-2.13867c-0.03906,-1.54297 0.40039,-3.58887 1.31836,-6.1377c0.91797,-2.55859 1.77734,-4.19922 2.57813,-4.92187c0.80078,-0.72266 1.7627,-1.08398 2.88574,-1.08398c0.67383,0 1.30371,0.17578 1.88965,0.52734l2.00684,-7.45605c0.11719,-0.43945 0.41992,-0.65918 0.9082,-0.65918h0.77637c0.57617,0 0.7959,0.22949 0.65918,0.68848zM108.37527,193.80616c-0.9668,-0.54688 -1.77246,-0.60548 -2.41699,-0.17579c-1.00586,0.6836 -1.98242,2.69044 -2.92969,6.02051c-0.67383,2.41211 -0.80566,3.88184 -0.39551,4.40918c0.21484,0.28321 0.50293,0.30761 0.86426,0.0732c0.9375,-0.60547 1.77734,-1.72363 2.51953,-3.35449c0.75195,-1.64063 1.53809,-3.96485 2.3584,-6.97266z"/><path d="M114.20535,200.67626c2.03125,-0.87891 3.41309,-2.07031 4.14551,-3.57422c0.37109,-0.77148 0.55664,-1.52831 0.55664,-2.2705c0,-0.74219 -0.21484,-1.11328 -0.64453,-1.11328c-0.9375,0 -1.74805,0.73242 -2.43164,2.19726c-0.67383,1.46485 -1.21582,3.05176 -1.62598,4.76074zM113.82449,202.6538c-0.14648,0.83985 -0.13672,1.43067 0.0293,1.77246c0.16602,0.33203 0.42969,0.542 0.79102,0.62989c0.74219,-0.27344 1.65039,-1.02051 2.72461,-2.24121c0.18555,-0.18555 0.38574,-0.20509 0.60059,-0.0586l0.57129,0.35156c0.11719,0.06836 0.20019,0.17578 0.24902,0.32226c0.05859,0.13672 0.06348,0.24903 0.01465,0.33692c-0.37109,0.72265 -1.07422,1.49414 -2.10937,2.31445c-1.02539,0.81055 -1.85059,1.15234 -2.47559,1.02539c-1.41602,-0.34179 -2.24609,-1.08398 -2.49023,-2.22656c-0.18555,-0.90821 -0.15137,-2.12403 0.10254,-3.64746c0.26367,-1.52344 0.74707,-3.09571 1.4502,-4.7168c1.02539,-2.37305 2.21191,-3.87207 3.55957,-4.49707c1.06445,-0.49805 2.03613,-0.55176 2.91504,-0.16113c0.88867,0.39063 1.33301,1.36231 1.33301,2.91504c0,0.89843 -0.21973,1.78222 -0.65918,2.65136c-0.79102,1.55273 -2.1875,2.91504 -4.18945,4.08692c-0.78125,0.45898 -1.58691,0.83984 -2.41699,1.14258z"/><path d="M123.41922,206.77001c0,0 -0.25879,0 -0.77637,0c-0.25391,0 -0.43945,-0.06348 -0.55664,-0.19043c-0.11719,-0.12695 -0.15137,-0.29297 -0.10254,-0.49804l3.2666,-12.45118h-1.68457c-0.20508,0 -0.3418,-0.04883 -0.41016,-0.14648c-0.05859,-0.10742 -0.05371,-0.29785 0.01465,-0.57129l0.21973,-0.80566c0.07813,-0.38086 0.29785,-0.57129 0.65918,-0.57129h1.75781l0.36621,-1.3916c0.73242,-2.75391 1.82617,-4.65332 3.28125,-5.69824c0.36133,-0.25391 0.75195,-0.43945 1.17188,-0.55664c0.41992,-0.12695 0.71777,-0.1709 0.89355,-0.13184c0.18555,0.03906 0.32227,0.06836 0.41016,0.08789l1.83105,0.4834c0.64453,0.16602 0.80566,0.53711 0.4834,1.11328l-0.38086,0.71777c-0.13672,0.2832 -0.48828,0.33203 -1.05469,0.14649l-1.93359,-0.65918c-1.01562,0.82031 -1.81152,2.31934 -2.3877,4.49707l-0.36621,1.3916h2.16797c0.22461,0 0.37109,0.04883 0.43945,0.14648c0.06836,0.09766 0.07324,0.26855 0.01465,0.5127l-0.21973,0.77637c-0.12695,0.43945 -0.39551,0.65917 -0.80566,0.65917h-2.15332l-3.28125,12.48047c-0.11719,0.43945 -0.40527,0.65918 -0.86426,0.65918z"/><path d="M139.0784,191.56494c0,0 0.29297,-0.00977 0.87891,-0.0293c0.49805,-0.01953 0.69336,0.23926 0.58594,0.77637c-0.88867,3.47657 -1.8457,7.00195 -2.87109,10.57617c-1.02539,3.57422 -1.53809,5.36621 -1.53809,5.37598c-0.51758,1.86523 -1.30371,3.08594 -2.3584,3.66211c-0.47852,0.25391 -0.80078,0.41016 -0.9668,0.46875c-0.40039,0.15625 -0.99121,0.00977 -1.77246,-0.43945l-3.06152,-1.72852c-0.26367,-0.11719 -0.40527,-0.28808 -0.4248,-0.51269c-0.01953,-0.22461 0.04395,-0.41504 0.19043,-0.57129l0.4541,-0.62988c0.32227,-0.35157 0.64941,-0.43458 0.98145,-0.24903l3.33984,2.05078c0.45898,0.20508 0.78613,-0.06836 0.98145,-0.82031l1.4502,-5.25879c-0.44922,0.74219 -0.94238,1.36719 -1.47949,1.875c-0.53711,0.49805 -0.97656,0.74707 -1.31836,0.74707h-0.05859c-0.15625,0 -0.40527,-0.1123 -0.74707,-0.33691c-0.3418,-0.23437 -0.67383,-0.54199 -0.99609,-0.92285c-0.3125,-0.39063 -0.53223,-0.79102 -0.65918,-1.20117c-0.12695,-0.41016 -0.1123,-1.24512 0.04395,-2.50489c0.16602,-1.25977 0.64453,-2.93945 1.43555,-5.03906c0.79102,-2.10937 1.56738,-3.51074 2.3291,-4.2041c0.76172,-0.70312 1.72363,-1.05469 2.88574,-1.05469c0.68359,0 1.31836,0.18555 1.9043,0.55664c0.08789,-0.25391 0.1709,-0.41504 0.24902,-0.4834c0.08789,-0.06836 0.26855,-0.10254 0.54199,-0.10254zM137.81863,193.82079c-0.97656,-0.55664 -1.75293,-0.63965 -2.3291,-0.24902c-0.57617,0.38086 -1.13281,1.15234 -1.66992,2.31445c-0.88867,1.94336 -1.50391,3.86231 -1.8457,5.75684c-0.15625,0.83985 -0.21973,1.44043 -0.19043,1.80176c0.0293,0.35156 0.17578,0.60058 0.43945,0.74707c0.26367,0.14648 0.61523,0.04394 1.05469,-0.30762c0.43945,-0.35156 0.89355,-0.88379 1.3623,-1.59668c0.47852,-0.71289 0.94727,-1.66015 1.40625,-2.8418c0.46875,-1.18164 1.03027,-2.96875 1.68457,-5.36132z"/><path d="M141.64187,206.77001h-0.36621c-0.36133,0 -0.61523,-0.08789 -0.76172,-0.26367c-0.13672,-0.18555 -0.1709,-0.41992 -0.10254,-0.70312l5.49316,-21.1377c0.11719,-0.43945 0.41504,-0.65918 0.89355,-0.65918h0.68848c0.54688,0 0.7666,0.22949 0.65918,0.68848l-3.7207,14.63379l2.73926,-4.52637c0.64453,-1.08399 1.31836,-1.89942 2.02148,-2.44629c0.71289,-0.54687 1.31836,-0.82031 1.81641,-0.82031h0.62988c0.84961,0 1.25,0.41016 1.20117,1.23047c-0.01953,0.33203 -0.08301,0.78125 -0.19043,1.34765l-3.35449,12.23145c-0.05859,0.2832 -0.21973,0.4248 -0.4834,0.4248h-1.55273c-0.10742,0 -0.19531,-0.05859 -0.26367,-0.17578c-0.05859,-0.11719 -0.05371,-0.29785 0.01465,-0.54199l3.16406,-10.29785c0.14648,-0.52735 0.21973,-0.87891 0.21973,-1.05469c0,-0.17578 -0.06836,-0.26367 -0.20508,-0.26367c-0.13672,0 -0.30273,0.09277 -0.49805,0.27832c-0.18555,0.18555 -0.44434,0.51269 -0.77637,0.98144c-0.40039,0.59571 -0.91797,1.40626 -1.55274,2.43165c-0.625,1.01562 -1.51855,2.44628 -2.68066,4.29199c-1.16211,1.8457 -1.86523,2.97363 -2.10937,3.38379c-0.24414,0.41015 -0.38086,0.63964 -0.41016,0.68847c-0.0293,0.03907 -0.0586,0.07325 -0.08789,0.10254c-0.02929,0.02927 -0.05859,0.05367 -0.08789,0.0732c-0.02929,0.01953 -0.05859,0.03417 -0.08789,0.0439c-0.06836,0.03907 -0.15137,0.0586 -0.24902,0.0586z"/><path d="M158.10672,189.88039c-0.35156,0 -0.65918,-0.1416 -0.92285,-0.4248c-0.26367,-0.29297 -0.39551,-0.63477 -0.39551,-1.02539c0,-0.40039 0.1416,-0.74219 0.42481,-1.02539c0.2832,-0.29297 0.62988,-0.43945 1.04004,-0.43945h0.27832c0.33203,0 0.63965,0.15137 0.92285,0.4541c0.2832,0.30273 0.4248,0.64941 0.4248,1.04004c0,0.38086 -0.15137,0.71289 -0.4541,0.99609c-0.29297,0.2832 -0.6543,0.4248 -1.08398,0.4248zM158.79519,192.16552l-3.63281,13.94531c-0.11719,0.43945 -0.41504,0.65918 -0.89355,0.65918h-0.87891c-0.54688,0 -0.7666,-0.22949 -0.65918,-0.68847l3.66211,-13.94532c0.10742,-0.40039 0.39063,-0.60059 0.84961,-0.60059h0.98145c0.26367,0 0.43945,0.04883 0.52734,0.14648c0.08789,0.08789 0.10254,0.24902 0.04395,0.4834z"/><path d="M164.15651,189.88039c-0.35156,0 -0.65918,-0.1416 -0.92285,-0.4248c-0.26367,-0.29297 -0.39551,-0.63477 -0.39551,-1.02539c0,-0.40039 0.1416,-0.74219 0.4248,-1.02539c0.29297,-0.29297 0.64453,-0.43945 1.05469,-0.43945h0.26367c0.33203,0 0.63965,0.15137 0.92285,0.4541c0.2832,0.30273 0.4248,0.64941 0.4248,1.04004c0,0.38086 -0.14648,0.71289 -0.43945,0.99609c-0.29297,0.2832 -0.6543,0.4248 -1.08398,0.4248zM163.32156,191.53566h0.9375c0.47852,0 0.66895,0.20996 0.57129,0.62988l-3.66211,13.94531c-0.55664,2.09961 -1.68945,3.75977 -3.39844,4.98047c-0.77148,0.54687 -1.53809,0.9375 -2.2998,1.17188c-0.41016,0.11719 -0.72266,0.03418 -0.9375,-0.24903l-0.23437,-0.35156c-0.12695,-0.16601 -0.1709,-0.35156 -0.13184,-0.55664c0.0293,-0.20508 0.15137,-0.35156 0.36621,-0.43945c0.87891,-0.3418 1.75293,-0.94727 2.62207,-1.81641c0.85938,-0.86914 1.46484,-1.97266 1.81641,-3.31055l3.54492,-13.40332c0.10742,-0.40039 0.37598,-0.60059 0.80566,-0.60059z"/><path d="M172.40359,184.69485c0,0 -1.09375,4.29199 -3.28125,12.87597l4.54102,-5.71289c0.17578,-0.21484 0.44434,-0.32227 0.80566,-0.32227h1.11328c0.3125,0 0.47852,0.10742 0.49805,0.32227c0.0293,0.20508 -0.07812,0.44434 -0.32227,0.71777l-5.1416,6.0498l2.3291,7.33887c0.08789,0.29297 0.08301,0.50293 -0.01465,0.62988c-0.08789,0.11719 -0.29297,0.17578 -0.61523,0.17578h-0.80566c-0.30273,0 -0.5127,-0.03906 -0.62988,-0.11718c-0.10742,-0.08789 -0.2002,-0.26856 -0.27832,-0.542l-1.94824,-6.69433l-1.71387,6.69433c-0.11719,0.43945 -0.41504,0.65918 -0.89355,0.65918h-0.5127c-0.36133,0 -0.61035,-0.08789 -0.74707,-0.26367c-0.14648,-0.18555 -0.18555,-0.41992 -0.11719,-0.70312l5.47852,-21.1377c0.11719,-0.43945 0.41992,-0.65918 0.9082,-0.65918h0.68848c0.54687,0 0.7666,0.22949 0.65918,0.68848z"/><path d="M183.30203,184.6948c0,0 -1.82129,7.13867 -5.46387,21.41601c-0.11719,0.43945 -0.41504,0.65918 -0.89356,0.65918h-0.51269c-0.36133,0 -0.61035,-0.08789 -0.74707,-0.26367c-0.14648,-0.18555 -0.18555,-0.41992 -0.11719,-0.70312l5.47852,-21.1377c0.11719,-0.43945 0.41992,-0.65918 0.9082,-0.65918h0.68848c0.54688,0 0.7666,0.22949 0.65918,0.68848z"/><path d="M191.31473,194.6997c0,-0.17578 -0.06836,-0.26367 -0.20508,-0.26367c-0.13672,0 -0.30273,0.09277 -0.49805,0.27832c-0.18555,0.18555 -0.44434,0.51269 -0.77637,0.98144c-0.40039,0.59571 -0.86914,1.32325 -1.40625,2.18262c-0.52734,0.84961 -1.19629,1.90429 -2.00684,3.16406c-1.49414,2.32422 -2.41699,3.80371 -2.76855,4.43848c-0.35156,0.625 -0.54199,0.96191 -0.57129,1.01074c-0.0293,0.03907 -0.0586,0.07325 -0.08789,0.10254c-0.0293,0.02927 -0.0586,0.05367 -0.08789,0.0732c-0.0293,0.01953 -0.0586,0.03907 -0.08789,0.0586c-0.0293,0.0098 -0.0586,0.01957 -0.08789,0.0293c-0.01953,0.0098 -0.04395,0.0147 -0.07324,0.0147c-0.35156,0 -0.64453,0 -0.87891,0c-0.46875,0 -0.63477,-0.25879 -0.49805,-0.77637l3.63281,-13.68166c0.00977,-0.01953 0.01953,-0.06348 0.0293,-0.13184c0.01953,-0.06836 0.0293,-0.1123 0.0293,-0.13184c0.03906,-0.13672 0.06347,-0.20996 0.07324,-0.21973c0.00977,-0.01953 0.02442,-0.04883 0.04395,-0.08789c0.01953,-0.03906 0.03418,-0.06347 0.04395,-0.07324c0.01953,-0.00977 0.04395,-0.02442 0.07324,-0.04395c0.0293,-0.02929 0.0586,-0.04882 0.08789,-0.05859c0.05859,-0.01953 0.13184,-0.0293 0.21973,-0.0293h1.23047c0.25391,0 0.41504,0.05859 0.4834,0.17578c0.07813,0.11719 0.07324,0.34668 -0.01465,0.68848l-2.24121,7.55859l3.12012,-5.15625c0.60547,-1.00586 1.27441,-1.80176 2.00684,-2.3877c0.74219,-0.58594 1.35254,-0.87891 1.83106,-0.87891h0.62988c1.10352,0 1.44531,0.85937 1.02539,2.57812l-1.55273,5.625l2.90039,-4.96582c0.61523,-1.07422 1.2793,-1.87988 1.99219,-2.41699c0.72266,-0.54687 1.33789,-0.82031 1.8457,-0.82031h0.62988c0.84961,0 1.25,0.41016 1.20117,1.23047c-0.01953,0.33203 -0.08301,0.78125 -0.19043,1.34765l-3.35449,12.23145c-0.05859,0.2832 -0.21973,0.4248 -0.4834,0.4248h-1.55274c-0.10742,0 -0.19531,-0.05859 -0.26367,-0.17578c-0.05859,-0.11719 -0.05371,-0.29785 0.01465,-0.54199l3.14941,-10.29785c0.14648,-0.52735 0.21973,-0.87891 0.21973,-1.05469c0,-0.17578 -0.07812,-0.26367 -0.23437,-0.26367c-0.14648,0 -0.38086,0.19043 -0.70312,0.57129c-0.32227,0.37109 -0.81543,1.08887 -1.47949,2.15332c-0.6543,1.05469 -1.33789,2.13867 -2.05078,3.25195c-0.70313,1.10351 -1.19141,1.875 -1.46484,2.31445c-0.87891,1.41602 -1.54297,2.62208 -1.99219,3.61817c-0.11719,0.2832 -0.28809,0.4248 -0.5127,0.4248h-1.52344c-0.24414,0 -0.32227,-0.23926 -0.23437,-0.71777l3.14941,-10.29785c0.14648,-0.52735 0.21973,-0.87891 0.21973,-1.05469z"/><path d="M210.82644,194.6997c0,-0.17578 -0.06836,-0.26367 -0.20508,-0.26367c-0.13672,0 -0.30273,0.09277 -0.49805,0.27832c-0.18555,0.18555 -0.44434,0.51269 -0.77637,0.98144c-0.40039,0.59571 -0.86914,1.32325 -1.40625,2.18262c-0.52734,0.84961 -1.19629,1.90429 -2.00684,3.16406c-1.49414,2.32422 -2.41699,3.80371 -2.76856,4.43848c-0.35156,0.625 -0.54199,0.96191 -0.57129,1.01074c-0.02929,0.03907 -0.05859,0.07325 -0.08789,0.10254c-0.0293,0.02927 -0.0586,0.05367 -0.08789,0.0732c-0.0293,0.01953 -0.0586,0.03907 -0.08789,0.0586c-0.02929,0.0098 -0.05859,0.01957 -0.08789,0.0293c-0.01953,0.0098 -0.04395,0.0147 -0.07324,0.0147c-0.35156,0 -0.64453,0 -0.87891,0c-0.46875,0 -0.63477,-0.25879 -0.49805,-0.77637l3.63281,-13.68163c0.04883,-0.27344 0.1123,-0.46875 0.19043,-0.58594c0.08789,-0.12695 0.22461,-0.19043 0.41016,-0.19043h1.23047c0.25391,0 0.41504,0.05859 0.4834,0.17578c0.06836,0.11719 0.06348,0.34668 -0.01465,0.68848l-2.24121,7.55859l3.12012,-5.15625c0.64453,-1.08399 1.31836,-1.89942 2.02148,-2.44629c0.71289,-0.54687 1.31836,-0.82031 1.81641,-0.82031h0.62988c1.10352,0 1.44531,0.85937 1.02539,2.57812l-3.36914,12.23145c-0.05859,0.2832 -0.21973,0.4248 -0.4834,0.4248h-1.55274c-0.24414,0 -0.32227,-0.23926 -0.23437,-0.71777l3.14941,-10.29785c0.14648,-0.52735 0.21973,-0.87891 0.21973,-1.05469z"/><path d="M218.78055,203.62063c1.37695,-2.16797 2.09961,-4.56055 2.16797,-7.17774c0.0293,-1.17187 -0.03418,-1.958 -0.19043,-2.35839c-0.14648,-0.40039 -0.44434,-0.60547 -0.89355,-0.61524c-0.44922,-0.01953 -0.85937,0.19043 -1.23047,0.62988c-0.36133,0.42969 -0.71289,1.00098 -1.05469,1.71387c-0.9082,1.875 -1.39648,3.97949 -1.46484,6.31348c-0.03906,1.80664 0.27344,2.73437 0.9375,2.7832c0.58594,0.01953 1.16211,-0.41015 1.72852,-1.28906zM213.68289,202.41944c0.09766,-2.69531 0.6543,-5.01465 1.66992,-6.95801c0.43945,-0.85937 0.80078,-1.47949 1.08399,-1.86035c0.2832,-0.39063 0.625,-0.77637 1.02539,-1.15723c0.83008,-0.79102 1.83105,-1.17676 3.00293,-1.15723c1.00586,0.04883 1.78711,0.55176 2.34375,1.50879c0.41016,0.6543 0.58594,1.74805 0.52734,3.28125c-0.04883,1.52344 -0.30762,3.01758 -0.77637,4.48242c-0.45898,1.45508 -0.97656,2.6709 -1.55273,3.64747c-1.15234,1.92383 -2.62207,2.85644 -4.40918,2.79785c-0.6543,-0.02933 -1.24512,-0.30765 -1.77246,-0.83496c-0.35156,-0.33203 -0.63965,-0.82032 -0.86426,-1.46485c-0.21484,-0.65429 -0.30762,-1.41601 -0.27832,-2.28515z"/><path d="M229.25418,192.19485c0,0 -0.22461,0.88379 -0.67383,2.65137l0.39551,-0.67383c0.41992,-0.69336 0.89844,-1.28906 1.43555,-1.78711c0.54687,-0.50781 0.99121,-0.76172 1.333,-0.76172h0.0586c0.15625,0 0.40527,0.11719 0.74707,0.35156c0.34179,0.22461 0.66894,0.53223 0.98144,0.92285c0.32227,0.38086 0.54688,0.77637 0.67383,1.18653c0.12695,0.41015 0.10742,1.24511 -0.0586,2.50488c-0.15625,1.25977 -0.62989,2.94434 -1.4209,5.05371c-0.79102,2.09961 -1.56739,3.50097 -2.3291,4.2041c-0.76172,0.69336 -1.72363,1.04004 -2.88574,1.04004c-0.67383,0 -1.29883,-0.17578 -1.875,-0.52734l-1.47949,5.75683c-0.11719,0.43945 -0.41992,0.65918 -0.9082,0.65918h-0.54199c-0.32227,0 -0.54688,-0.09277 -0.67383,-0.27832c-0.12695,-0.18555 -0.16113,-0.41504 -0.10254,-0.68847l5.03906,-19.64356c0.10742,-0.41992 0.38086,-0.62988 0.82031,-0.62988h0.86426c0.50781,0 0.70801,0.21973 0.60059,0.65918zM226.07547,204.66066c0.97656,0.55664 1.75293,0.64453 2.3291,0.26367c0.57617,-0.39063 1.12793,-1.16699 1.65527,-2.3291c0.89844,-1.94336 1.51856,-3.86231 1.86035,-5.75684c0.15625,-0.83984 0.21973,-1.43554 0.19043,-1.78711c-0.02927,-0.36133 -0.17575,-0.61523 -0.43945,-0.76172c-0.26367,-0.14648 -0.61523,-0.04394 -1.05468,0.30762c-0.43945,0.35156 -0.89844,0.88379 -1.37696,1.59668c-0.46875,0.71289 -0.9375,1.66016 -1.40625,2.8418c-0.45898,1.18164 -1.01563,2.96875 -1.66992,5.36133z"/><path d="M243.30203,192.13623c0.09765,-0.40039 0.36621,-0.60059 0.80566,-0.60059h0.87891c0.48828,0 0.67871,0.22949 0.57129,0.68848l-5.11231,19.89258c-0.11719,0.43945 -0.41504,0.65918 -0.89355,0.65918h-0.54199c-0.32227,0 -0.54688,-0.09277 -0.67383,-0.27832c-0.12695,-0.18555 -0.16113,-0.41504 -0.10254,-0.68847l2.09473,-8.12989l-0.38086,0.62989c-0.41992,0.69335 -0.90332,1.29394 -1.4502,1.80175c-0.53711,0.49805 -0.97656,0.74707 -1.31836,0.74707h-0.0586c-0.15625,0 -0.40528,-0.1123 -0.74707,-0.33691c-0.3418,-0.23437 -0.67383,-0.54199 -0.99609,-0.92285c-0.3125,-0.39063 -0.53223,-0.79102 -0.65918,-1.20117c-0.12695,-0.41016 -0.11232,-1.24512 0.0439,-2.50489c0.16601,-1.25976 0.64453,-2.93945 1.43555,-5.03906c0.79101,-2.10937 1.56738,-3.51074 2.3291,-4.2041c0.76172,-0.70312 1.72363,-1.05469 2.88574,-1.05469c0.67383,0 1.30371,0.18066 1.88965,0.54199zM242.84793,193.80616c-0.99609,-0.53711 -1.77734,-0.61524 -2.34375,-0.23438c-0.56641,0.38086 -1.11816,1.15234 -1.65527,2.31445c-0.88867,1.94336 -1.50391,3.86231 -1.84571,5.75684c-0.15625,0.83985 -0.21972,1.44043 -0.19043,1.80176c0.02927,0.35156 0.17575,0.60058 0.43946,0.74707c0.26367,0.14648 0.61523,0.04394 1.05468,-0.30762c0.43945,-0.35156 0.89356,-0.88379 1.36231,-1.59668c0.47851,-0.71289 0.94726,-1.66016 1.40625,-2.8418c0.46875,-1.18164 1.03027,-2.96875 1.68457,-5.36132z"/><path d="M250.46512,195.56396c1.29883,-2.10938 2.30468,-3.40332 3.01757,-3.88184c0.23438,-0.16602 0.6543,-0.24902 1.25977,-0.24902h0.29297c0.57617,0 0.77637,0.22461 0.60058,0.67383c-0.08789,0.24414 -0.33203,0.54688 -0.73242,0.9082c-0.40039,0.35156 -0.93261,0.94726 -1.59668,1.78711c-0.66406,0.83985 -0.99609,1.38672 -0.99609,1.64062c0,0.52735 0.24902,1.02051 0.74707,1.4795c0.11719,0.09765 0.15137,0.20507 0.10254,0.32226c-0.03907,0.11719 -0.14161,0.19043 -0.30762,0.21973l-1.14258,0.20508c-0.32227,0.0488 -0.56641,0.01462 -0.73242,-0.10254c-0.16601,-0.12695 -0.37597,-0.42969 -0.62988,-0.9082l-0.24902,-0.45411l-2.31446,8.90625c-0.11719,0.43945 -0.41992,0.65918 -0.9082,0.65918h-0.86426c-0.54687,0 -0.7666,-0.22949 -0.65918,-0.68847l3.66211,-13.94532c0.10742,-0.40039 0.38574,-0.60059 0.83496,-0.60059h0.92285c0.26367,0 0.43946,0.04883 0.52735,0.14648c0.08789,0.08789 0.10252,0.24902 0.0439,0.4834z"/><path d="M259.81082,191.34521c0,0 0.15137,0 0.4541,0c0.67383,0 1.29883,0.25879 1.875,0.77637c0.58594,0.51758 1.05957,1.16211 1.4209,1.93359c0.06836,0.12695 0.08789,0.29297 0.0586,0.49805c-0.01953,0.20507 -0.10742,0.35644 -0.26367,0.4541l-0.89355,0.51269c-0.16602,0.12695 -0.33692,0.18067 -0.5127,0.16114c-0.17578,-0.01953 -0.29297,-0.08789 -0.35156,-0.20508c-0.0586,-0.11719 -0.15626,-0.33691 -0.29297,-0.65918c-0.13672,-0.32227 -0.25391,-0.55664 -0.35156,-0.70313c-0.08789,-0.15625 -0.24414,-0.32226 -0.46875,-0.49804c-0.21485,-0.18555 -0.45899,-0.29297 -0.73242,-0.32227c-0.48829,0.09766 -0.95704,0.42969 -1.40625,0.99609c-0.43945,0.56641 -0.65918,1.35742 -0.65918,2.37305c0,0.43945 0.10254,0.74707 0.30761,0.92285c0.20508,0.17578 0.58106,0.31738 1.12793,0.42481l0.84961,0.17578c1.22071,0.26367 1.83106,1.27442 1.83106,3.03223c0,1.03515 -0.39551,2.23632 -1.18653,3.60351c-0.38086,0.64453 -0.89355,1.18653 -1.53808,1.62598c-0.63477,0.43945 -1.32813,0.65918 -2.08008,0.65918h-0.20508c-0.76172,0 -1.44531,-0.26367 -2.05078,-0.79102c-0.5957,-0.53711 -1.01074,-1.0791 -1.24512,-1.62597c-0.24414,-0.55665 -0.24904,-0.97169 -0.0147,-1.24512l0.65918,-0.54199c0.21485,-0.20508 0.43946,-0.29297 0.67383,-0.26368c0.23437,0.01953 0.39062,0.19532 0.46875,0.52735c0.08789,0.33203 0.33203,0.72753 0.73242,1.18652c0.41016,0.45899 0.78614,0.70313 1.12793,0.73242c0.60547,-0.09765 1.12794,-0.44921 1.56739,-1.05468c0.43945,-0.61524 0.65918,-1.31348 0.65918,-2.09473c0,-0.79101 -0.07813,-1.29883 -0.23438,-1.52344c-0.15625,-0.22461 -0.48828,-0.3955 -0.99609,-0.51269l-0.65918,-0.14649c-0.79102,-0.18555 -1.34766,-0.50781 -1.66992,-0.9668c-0.3125,-0.45898 -0.46875,-1.08886 -0.46875,-1.88964c0,-0.81055 0.20996,-1.65039 0.62988,-2.51953c0.41992,-0.86915 0.98144,-1.5918 1.68457,-2.16797c0.70313,-0.57617 1.4209,-0.86426 2.15332,-0.86426z"/><path d="M270.95828,186.90674c0,0 -0.39551,1.54297 -1.18652,4.62891h1.58203c0.22461,0 0.37109,0.04883 0.43945,0.14648c0.06836,0.09766 0.06836,0.26855 0,0.5127l-0.20508,0.77637c-0.12695,0.43945 -0.38574,0.65917 -0.77636,0.65917h-1.56739l-3.17871,12.48047c-0.11719,0.43945 -0.41504,0.65918 -0.89355,0.65918h-0.57129c-0.32227,0 -0.55176,-0.09277 -0.68848,-0.27832c-0.12695,-0.18555 -0.16113,-0.41504 -0.10254,-0.68847l3.10547,-12.17286h-1.17187c-0.20508,0 -0.3418,-0.04883 -0.41016,-0.14648c-0.0586,-0.10742 -0.05373,-0.29785 0.0146,-0.57129l0.23437,-0.80566c0.10743,-0.38086 0.32715,-0.57129 0.65918,-0.57129h1.21582l1.18653,-4.6582c0.11719,-0.43945 0.41992,-0.65918 0.9082,-0.65918h0.74707c0.54687,0 0.7666,0.22949 0.65918,0.68848z"/><path d="M278.83913,198.88917l-2.73926,4.61426c-0.64453,1.10352 -1.29395,1.92383 -1.94824,2.46094c-0.6543,0.53711 -1.23535,0.80566 -1.74316,0.80566h-0.17579c-0.61523,0 -1.09863,-0.33691 -1.45019,-1.01074c-0.35157,-0.68359 -0.38087,-1.56738 -0.0879,-2.65137l3.06152,-11.16211c0.0586,-0.27344 0.21973,-0.41016 0.4834,-0.41016h1.55273c0.10743,0 0.19044,0.05859 0.24903,0.17578c0.06836,0.11719 0.06836,0.29785 0,0.54199l-3.03223,10.40039c-0.20508,0.82031 -0.17578,1.24512 0.0879,1.27442c0.29297,0.02927 0.79101,-0.48343 1.49414,-1.53809c0.70313,-1.06445 1.875,-3.09082 3.51563,-6.0791c1.64062,-2.98828 2.48535,-4.50684 2.53418,-4.55567c0.0488,-0.05859 0.08786,-0.10254 0.11718,-0.13184c0.03907,-0.02929 0.0879,-0.04882 0.14649,-0.05859c0.0586,-0.01953 0.09766,-0.0293 0.11719,-0.0293h1.34765c0.11719,0 0.21484,0.07813 0.29297,0.23438c0.08789,0.14648 0.10253,0.32715 0.0439,0.54199l-3.63282,13.68165c-0.0488,0.27343 -0.11716,0.47363 -0.20507,0.60058c-0.07813,0.11719 -0.20996,0.17578 -0.39551,0.17578h-1.23047c-0.25391,0 -0.41992,-0.05859 -0.49805,-0.17578c-0.06836,-0.11719 -0.06349,-0.34668 0.0146,-0.68848z"/><path d="M286.99832,203.94289c1.81641,-3.01757 3.35449,-7.00683 4.61426,-11.96777c0.09765,-0.41992 0.38086,-0.61035 0.84961,-0.57129l0.83496,0.07324c0.23437,0.0293 0.41015,0.11231 0.52734,0.24902c0.12695,0.13672 0.16113,0.30273 0.10254,0.49805c-1.5918,5.35157 -3.41309,9.62891 -5.46387,12.83203c-0.76172,1.17188 -1.41113,1.74317 -1.94824,1.71387l-0.83496,-0.0586c-0.26367,-0.01953 -0.47852,-0.15137 -0.64453,-0.39551c-0.15625,-0.24414 -0.21973,-0.60058 -0.19043,-1.06933c0.22461,-3.64258 0.19043,-7.84668 -0.10254,-12.61231c-0.0488,-0.73242 0.19534,-1.09863 0.73242,-1.09863h0.83496c0.43945,0 0.67871,0.22949 0.71778,0.68848c0.29297,4.38476 0.2832,8.29101 -0.0293,11.71875z"/><path d="M297.76492,203.98684c0.54687,-0.85937 1.17187,-2.05078 1.875,-3.57422c0.71289,-1.52343 1.32813,-3.0957 1.8457,-4.7168c0.52735,-1.63085 0.81055,-2.82714 0.84961,-3.58886c0.02927,-0.38086 0.26853,-0.57129 0.71778,-0.57129h0.96679c0.38086,0 0.60059,0.22949 0.65918,0.68848c0.32227,4.14062 0.3125,8.05664 -0.0293,11.74805c1.83593,-3.01758 3.38378,-7.0166 4.64355,-11.99707c0.09766,-0.41992 0.38086,-0.61035 0.84961,-0.57129l0.83496,0.07324c0.23437,0.01953 0.41015,0.10254 0.52734,0.24902c0.12695,0.13672 0.16113,0.30273 0.10254,0.49805c-1.59179,5.35157 -3.41308,9.62891 -5.46386,12.83203c-0.73243,1.17188 -1.36231,1.74317 -1.88965,1.71387l-0.89356,-0.0586c-0.26367,-0.01953 -0.47851,-0.15137 -0.64453,-0.39551c-0.16601,-0.24414 -0.23437,-0.60058 -0.20508,-1.06933c0.10743,-2.39258 0.15137,-4.66797 0.13184,-6.82617c-0.74219,1.91406 -1.875,4.12597 -3.39844,6.63574c-0.70312,1.17187 -1.31347,1.74316 -1.83105,1.71387l-0.92285,-0.0586c-0.26367,-0.01953 -0.47852,-0.15137 -0.64453,-0.39551c-0.16602,-0.24414 -0.23438,-0.60059 -0.20508,-1.06934c0.25391,-4.78515 0.29785,-9.13574 0.13183,-13.05176c-0.02927,-0.22461 0.02445,-0.39062 0.16114,-0.49805c0.14648,-0.10742 0.33203,-0.16113 0.55664,-0.16113h0.89355c0.42969,0 0.65918,0.22949 0.68848,0.68848c0.13672,4.0918 0.03418,8.0127 -0.30762,11.7627z"/><path d="M309.87918,206.02294c2.24609,-2.73437 4.05762,-5.04394 5.43457,-6.92871c-0.49805,-2.06055 -1.0791,-4.21387 -1.74317,-6.45996c-0.26367,-0.73242 -0.10253,-1.09863 0.4834,-1.09863h0.83496c0.43945,0 0.72754,0.22949 0.86426,0.68848c0.51758,1.80664 0.97168,3.48145 1.36231,5.02442c0.9082,-1.35742 1.7041,-2.6123 2.38769,-3.76465c0.68359,-1.15234 1.04492,-1.74805 1.08399,-1.78711c0.10742,-0.10742 0.32715,-0.16113 0.65918,-0.16113h1.02539c0.53711,0 0.58593,0.35645 0.14648,1.06934c-1.06445,1.82617 -2.6416,4.18457 -4.73144,7.0752c0.45898,2.01172 0.86425,4.16504 1.21582,6.45996c0.0586,0.39063 -0.09765,0.60059 -0.46875,0.62988l-0.90821,0.0879c-0.2832,0.03907 -0.47363,0.00001 -0.57129,-0.11718c-0.09765,-0.11719 -0.19531,-0.38574 -0.29297,-0.80567c-0.21484,-1.37695 -0.47363,-2.80273 -0.77636,-4.27734c-1.55273,1.97265 -2.50977,3.17382 -2.8711,3.60351c-0.35156,0.42969 -0.5664,0.69825 -0.64453,0.80567c-0.07812,0.09765 -0.13183,0.16113 -0.16113,0.19043c-0.01953,0.02927 -0.06836,0.08298 -0.14648,0.16113c-0.06836,0.06836 -0.12696,0.11719 -0.17579,0.14649c-0.03907,0.02927 -0.09766,0.06344 -0.17578,0.10253c-0.13672,0.06836 -0.29785,0.10254 -0.4834,0.10254h-0.86425c-0.28321,0 -0.46875,-0.08301 -0.55664,-0.24902c-0.09766,-0.16601 -0.07326,-0.33203 0.0732,-0.49805z"/><path d="M332.46707,191.53566h1.30371c0.11719,0 0.21484,0.07813 0.29297,0.23438c0.08789,0.14648 0.10252,0.32715 0.0439,0.54199c-0.74219,2.8125 -1.65039,6.12793 -2.72461,9.94628c-1.07421,3.8086 -1.67968,5.97657 -1.8164,6.50391c-0.13672,0.52735 -0.41992,1.11817 -0.84961,1.77246c-0.43945,0.68359 -0.97168,1.18652 -1.59668,1.50879c-0.37109,0.20508 -0.64941,0.33203 -0.83496,0.38086c-0.40039,0.11719 -0.9668,-0.03906 -1.69922,-0.46875l-3.04688,-1.72852c-0.26367,-0.11719 -0.40527,-0.29297 -0.4248,-0.52734c-0.02927,-0.23437 0.02933,-0.41992 0.17578,-0.55664l0.4541,-0.62988c0.17578,-0.18555 0.33203,-0.29785 0.46875,-0.33692c0.13672,-0.03907 0.30762,-0.00977 0.5127,0.0879l3.33984,2.05079c0.18555,0.09765 0.36621,0.08302 0.54199,-0.0439c0.18555,-0.11719 0.33203,-0.37598 0.43946,-0.77637l2.91504,-10.2832l-0.68848,1.31835l-1.77246,2.97364c-0.64453,1.10351 -1.29395,1.92383 -1.94824,2.46094c-0.6543,0.53711 -1.23536,0.80566 -1.74317,0.80566h-0.17578c-0.41992,0 -0.77148,-0.15137 -1.05469,-0.4541c-0.69336,-0.77149 -0.85449,-1.84082 -0.48339,-3.20801l3.06152,-11.16211c0.07813,-0.27344 0.23926,-0.41016 0.4834,-0.41016h1.56742c0.24414,0 0.32226,0.23926 0.23437,0.71777l-3.03222,10.40039c-0.20508,0.81055 -0.17578,1.23047 0.0879,1.25976c0.30273,0.02933 0.80078,-0.48336 1.49414,-1.53808c0.70313,-1.05469 1.875,-3.07617 3.51562,-6.06446c1.64063,-2.98828 2.48535,-4.50683 2.53418,-4.55566c0.04887,-0.05859 0.09281,-0.10254 0.13184,-0.13184c0.0586,-0.05859 0.15626,-0.08789 0.29297,-0.08789z"/><path d="M335.9241,204.8511h4.32129l0.49805,-1.91895c0.08789,-0.40039 0.3955,-0.62011 0.92285,-0.65918l0.62988,-0.0586c0.26367,-0.01953 0.4541,0.03418 0.57129,0.16114c0.11719,0.12695 0.14649,0.31249 0.0879,0.55664l-0.83496,3.17871c-0.11719,0.43945 -0.41504,0.65918 -0.89356,0.65918h-7.11914c-0.40039,0 -0.69335,-0.10742 -0.8789,-0.32227c-0.19531,-0.21484 -0.27344,-0.46875 -0.23438,-0.76172c0.02927,-0.29297 0.15134,-0.56152 0.36621,-0.80566l9.4043,-11.42578h-4.2041l-0.49805,1.91894c-0.08789,0.40039 -0.3955,0.62012 -0.92285,0.65918l-0.65918,0.0586c-0.26367,0.01953 -0.4541,-0.03418 -0.57129,-0.16113c-0.11719,-0.12695 -0.14649,-0.3125 -0.0879,-0.55664l0.86426,-3.23731c0.11719,-0.40039 0.41016,-0.60059 0.87891,-0.60059h6.73828c0.3125,0 0.5957,0.10742 0.84961,0.32226c0.25391,0.20508 0.39551,0.4834 0.4248,0.83496c0.03907,0.35156 -0.1416,0.76172 -0.54199,1.23047z"/></g></g></svg>