<svg version="1.1" xmlns="http://www.w3.org/2000/svg" xmlns:xlink="http://www.w3.org/1999/xlink" width="224" height="330" viewBox="0,0,224,330"><g transform="translate(-128,-15)"><g data-paper-data="{&quot;isPaintingLayer&quot;:true}" fill-rule="nonzero" stroke-linejoin="miter" stroke-miterlimit="10" stroke-dasharray="" stroke-dashoffset="0" style="mix-blend-mode: normal"><path d="M128,345v-330h224v330z" fill="none" stroke="none" stroke-width="0" stroke-linecap="butt"/><path d="M179.28374,313.61252v-267.22501h123.18203v267.22501z" fill-opacity="0.01" fill="#000000" stroke="none" stroke-width="0" stroke-linecap="butt"/><path d="M206.75006,307.5l15.14285,-131.8421l37.78325,-0.15789l13.57389,132z" fill="#babebf" stroke="#000000" stroke-width="2" stroke-linecap="butt"/><path d="M219.70028,204.11263l3.12142,-26.32765l35.83075,-0.14203l2.76735,26.1059c0,0 -7.51543,4.19603 -21.55904,4.50964c-12.48458,0.27879 -20.16049,-4.14586 -20.16049,-4.14586z" fill="#a1a5a6" stroke="#000000" stroke-width="0" stroke-linecap="butt"/><path d="M172.83996,139.84616c0,-33.30185 28.7599,-60.29833 64.23702,-60.29833c35.47712,0 64.23702,26.99649 64.23702,60.29833c0,33.30185 -28.7599,60.29833 -64.23702,60.29833c-35.47712,0 -64.23702,-26.99649 -64.23702,-60.29833z" fill="#babebf" stroke="#000000" stroke-width="2" stroke-linecap="butt"/><path d="M173.56302,139.9c0,-0.72799 5.20666,55.91939 63.36046,56.93429c55.56352,0.9697 63.51358,-57.95314 63.51358,-56.93429c0,32.80479 -28.40173,59.39833 -63.43702,59.39833c-35.03529,0 -63.43702,-26.59354 -63.43702,-59.39833z" fill="#a1a5a6" stroke="#000000" stroke-width="0" stroke-linecap="butt"/><path d="M186.39019,140.27563c0,-12.968 10.51265,-23.48065 23.48065,-23.48065c12.968,0 23.48065,10.51265 23.48065,23.48065c0,12.968 -10.51265,23.48065 -23.48065,23.48065c-12.968,0 -23.48065,-10.51265 -23.48065,-23.48065z" fill="#ffffff" stroke="#000000" stroke-width="2" stroke-linecap="butt"/><path d="M193.45556,136.4c0,-9.12808 7.39976,-16.52784 16.52783,-16.52784c9.12808,0 16.52784,7.39977 16.52784,16.52784c0,9.12808 -7.39977,16.52784 -16.52784,16.52784c-9.12808,0 -16.52783,-7.39977 -16.52783,-16.52784z" fill="#000000" stroke="none" stroke-width="0" stroke-linecap="butt"/><path d="M246.61574,174.44271c3.01835,0.47109 3.0009,5.21373 3.0009,5.21373l-22.94292,0.83333c0,0 17.04904,-6.49858 19.94202,-6.04706z" fill="#000000" stroke="#000000" stroke-width="2" stroke-linecap="round"/><path d="M264.12926,163.75627c-12.968,0 -23.48065,-10.51265 -23.48065,-23.48065c0,-12.968 10.51265,-23.48065 23.48065,-23.48065c12.968,0 23.48065,10.51265 23.48065,23.48065c0,12.968 -10.51265,23.48065 -23.48065,23.48065z" data-paper-data="{&quot;index&quot;:null}" fill="#ffffff" stroke="#000000" stroke-width="2" stroke-linecap="butt"/><path d="M264.0167,152.92784c-9.12807,0 -16.52783,-7.39977 -16.52783,-16.52784c0,-9.12808 7.39977,-16.52784 16.52783,-16.52784c9.12807,0 16.52783,7.39977 16.52783,16.52784c0,9.12808 -7.39977,16.52784 -16.52783,16.52784z" data-paper-data="{&quot;index&quot;:null}" fill="#000000" stroke="none" stroke-width="0" stroke-linecap="butt"/><path d="M199.02788,108.46716c0,0 6.70895,-5.16922 11.79721,-6.36355c5.08827,-1.19433 12.33413,0.69937 12.33413,0.69937c0,0 -8.03812,-0.06028 -11.96762,0.86207c-4.10648,0.96389 -12.16372,4.80211 -12.16372,4.80211z" fill="#000000" stroke="none" stroke-width="0" stroke-linecap="butt"/><path d="M262.96236,103.66506c-3.9295,-0.92235 -11.96762,-0.86207 -11.96762,-0.86207c0,0 7.24586,-1.8937 12.33413,-0.69937c5.08826,1.19433 11.79721,6.36355 11.79721,6.36355c0,0 -8.05724,-3.83822 -12.16372,-4.80211z" data-paper-data="{&quot;index&quot;:null}" fill="#000000" stroke="none" stroke-width="0" stroke-linecap="butt"/><path d="M186.30683,140.36806c0,-12.96801 10.51265,-23.48065 23.48066,-23.48065c12.96801,0 23.48065,10.51264 23.48065,23.48065c0,0 -6.95852,-14.64634 -23.43307,-14.78879c-16.22494,-0.14029 -23.52823,15.4054 -23.52823,14.78879z" fill="#babebf" stroke="#000000" stroke-width="2" stroke-linecap="butt"/><path d="M240.64862,140.26806c0,-12.96801 10.51264,-23.48065 23.48065,-23.48065c12.96801,0 23.48066,10.51264 23.48066,23.48065c0,0.60606 -7.87275,-14.38438 -22.92496,-14.781c-15.05221,-0.39662 -24.03635,14.781 -24.03635,14.781z" data-paper-data="{&quot;index&quot;:null}" fill="#babebf" stroke="#000000" stroke-width="2" stroke-linecap="butt"/><path d="M175.54493,122.47729c7.94486,-24.83505 32.48735,-42.92946 61.53205,-42.92946c29.4708,0 54.30633,18.62922 61.87097,44.02681c0.54933,1.84433 1.98343,22.07236 -63.62097,21.81985c-61.22902,-0.23567 -59.78205,-22.9172 -59.78205,-22.9172z" fill-opacity="0.20156" fill="#000000" stroke="#000000" stroke-width="0" stroke-linecap="butt"/><g stroke="#000000" stroke-linecap="butt"><path d="M333.248,78.9971c1.77882,10.15469 -38.38018,25.67404 -89.69765,34.66343c-51.31746,8.9894 -94.3605,8.04474 -96.13932,-2.10995c-1.77882,-10.15469 37.51746,-30.59904 88.83492,-39.58844c51.31746,-8.9894 95.22323,-3.11973 97.00205,7.03496z" fill="#babebf" stroke-width="2"/><path d="M237.50665,73.13193c7.10379,-1.24439 13.8056,-2.03423 19.55532,-2.37545c0.67565,-0.0401 -14.03937,12.91766 -14.03937,12.91766l-5.96082,1.19492z" data-paper-data="{&quot;index&quot;:null}" fill="#ffffff" stroke-width="0"/><path d="M242.76544,112.07759c-17.1983,3.01266 -33.42336,4.92488 -47.34341,5.75097c-1.63577,0.09707 33.98931,-31.27364 33.98931,-31.27364l14.43116,-2.89289z" fill="#ffffff" stroke-width="0"/></g><path d="M230.375,84.375l2.86068,-40.04754c0,0 0.77342,-6.79148 -3.20744,-5.3051c-3.19631,1.19344 -10.92266,5.51814 -10.92266,5.51814c0,0 3.95548,-7.29662 8.98012,-9.95423c4.02875,-2.13086 9.17263,2.57207 9.17263,2.57207c0,0 4.73043,-4.16255 7.78452,-2.26642c4.01386,2.492 7.31197,9.83713 7.31197,9.83713c0,0 -5.97898,-3.40735 -8.62109,-4.74643c-2.91466,-1.4772 -3.20818,4.13691 -3.20818,4.13691l3.09945,40.25547c0,0 -2.43253,1.5 -6.67593,1.33334c-3.66806,-0.14407 -6.57407,-1.33334 -6.57407,-1.33334z" fill="#babebf" stroke="#000000" stroke-width="2" stroke-linecap="butt"/></g></g></svg>