<svg version="1.1" xmlns="http://www.w3.org/2000/svg" xmlns:xlink="http://www.w3.org/1999/xlink" width="152.68278" height="302.14437" viewBox="0,0,152.68278,302.14437"><defs><linearGradient x1="240.00004" y1="175.50005" x2="240.00004" y2="307.50005" gradientUnits="userSpaceOnUse" id="color-1"><stop offset="0" stop-color="#000000"/><stop offset="1" stop-color="#65325d"/></linearGradient><linearGradient x1="207.39579" y1="6.77532" x2="186.4301" y2="111.42482" gradientUnits="userSpaceOnUse" id="color-2"><stop offset="0" stop-color="#000000"/><stop offset="1" stop-color="#4c2646"/></linearGradient><linearGradient x1="297.10389" y1="24.74763" x2="276.1382" y2="129.39712" gradientUnits="userSpaceOnUse" id="color-3"><stop offset="0" stop-color="#000000"/><stop offset="1" stop-color="#4c2647"/></linearGradient><linearGradient x1="237.86692" y1="82.12948" x2="214.17708" y2="200.37646" gradientUnits="userSpaceOnUse" id="color-4"><stop offset="0" stop-color="#1b0d19"/><stop offset="1" stop-color="#804076"/></linearGradient><linearGradient x1="225.15287" y1="67.48767" x2="220.69017" y2="89.76308" gradientUnits="userSpaceOnUse" id="color-5"><stop offset="0" stop-color="#33002b"/><stop offset="1" stop-color="#990085"/></linearGradient><linearGradient x1="258.98066" y1="74.26479" x2="254.51797" y2="96.54018" gradientUnits="userSpaceOnUse" id="color-6"><stop offset="0" stop-color="#33002b"/><stop offset="1" stop-color="#990085"/></linearGradient><linearGradient x1="241.11084" y1="74.97449" x2="238.06603" y2="90.1725" gradientUnits="userSpaceOnUse" id="color-7"><stop offset="0" stop-color="#1a0016"/><stop offset="1" stop-color="#80006e"/></linearGradient><linearGradient x1="280.18579" y1="79.63039" x2="261.88896" y2="170.95835" gradientUnits="userSpaceOnUse" id="color-8"><stop offset="0" stop-color="#1a0d17"/><stop offset="1" stop-color="#66335d"/></linearGradient><linearGradient x1="247.91603" y1="75.20512" x2="224.31144" y2="193.02654" gradientUnits="userSpaceOnUse" id="color-9"><stop offset="0" stop-color="#4c0000"/><stop offset="1" stop-color="#650000"/></linearGradient><radialGradient cx="233.91591" cy="134.31409" r="34.54447" gradientUnits="userSpaceOnUse" id="color-10"><stop offset="0" stop-color="#330000"/><stop offset="1" stop-color="#330000" stop-opacity="0"/></radialGradient><radialGradient cx="203.80962" cy="136.17248" r="23.48065" gradientUnits="userSpaceOnUse" id="color-11"><stop offset="0" stop-color="#808080"/><stop offset="1" stop-color="#804040"/></radialGradient><radialGradient cx="262.29294" cy="137.01051" r="23.48065" gradientUnits="userSpaceOnUse" id="color-12"><stop offset="0" stop-color="#808080"/><stop offset="1" stop-color="#804040"/></radialGradient><linearGradient x1="216.83964" y1="190.31284" x2="220.86181" y2="183.32746" gradientUnits="userSpaceOnUse" id="color-13"><stop offset="0" stop-color="#4d4d4d"/><stop offset="1" stop-color="#808080"/></linearGradient><linearGradient x1="239.66862" y1="171.35791" x2="243.24148" y2="182.04443" gradientUnits="userSpaceOnUse" id="color-14"><stop offset="0" stop-color="#4d4d4d"/><stop offset="1" stop-color="#808080"/></linearGradient><linearGradient x1="260.33001" y1="163.73611" x2="261.18208" y2="172.91391" gradientUnits="userSpaceOnUse" id="color-15"><stop offset="0" stop-color="#4d4d4d"/><stop offset="1" stop-color="#808080"/></linearGradient></defs><g transform="translate(-161.92092,-5.35568)"><g data-paper-data="{&quot;isPaintingLayer&quot;:true}" fill-rule="nonzero" stroke-width="0" stroke-linejoin="miter" stroke-miterlimit="10" stroke-dasharray="" stroke-dashoffset="0" style="mix-blend-mode: normal"><path d="M206.75005,307.50004l15.14285,-131.8421l37.78325,-0.15789l13.57389,132z" fill="url(#color-1)" stroke="none" stroke-linecap="butt"/><g><path d="M176.41355,109.41808c0,0 -8.55813,-106.67965 23.48936,-104.01324c32.73199,2.72334 14.47775,80.92048 14.47775,80.92048" fill="url(#color-2)" stroke="none" stroke-linecap="round"/><path d="M260.01364,95.46752c0,0 13.27784,-79.19412 44.53281,-69.09819c30.60135,9.88479 -18.3917,105.03452 -18.3917,105.03452" data-paper-data="{&quot;index&quot;:null}" fill="url(#color-3)" stroke="none" stroke-linecap="round"/><path d="M163.03656,128.63434c6.54176,-32.653 40.04447,-53.47393 74.83035,-46.50485c34.78589,6.96908 57.68228,39.08913 51.14051,71.74212c-6.54176,32.653 -40.04447,53.47393 -74.83035,46.50485c-34.78589,-6.96908 -57.68228,-39.08913 -51.14051,-71.74212z" fill="url(#color-4)" stroke="none" stroke-linecap="butt"/><g stroke="#000000" stroke-linecap="butt"><path d="M209.92593,85.54932c-1.70993,-7.53239 4.70704,-8.31064 4.70704,-8.31064c0,0 -4.26806,-3.06293 -1.67339,-9.3771c3.33446,-8.11444 22.58299,10.30185 22.58299,10.30185l-1.64718,7.37338c0,0 -22.39809,6.93459 -23.96948,0.0125z" fill="url(#color-5)"/><path d="M243.95991,87.55316l1.32033,-7.43887c0,0 24.85735,-9.58003 24.80861,-0.80732c-0.03793,6.82638 -5.1565,8.00877 -5.1565,8.00877c0,0 5.62193,3.19015 1.14233,9.48251c-4.11665,5.78253 -22.11478,-9.24512 -22.11478,-9.24512z" data-paper-data="{&quot;index&quot;:null}" fill="url(#color-6)"/><path d="M231.98943,81.0511c0.8408,-4.1968 4.92459,-6.9174 9.12141,-6.0766c4.1968,0.8408 6.9174,4.92459 6.0766,9.12141c-0.8408,4.1968 -4.92459,6.9174 -9.12141,6.0766c-4.1968,-0.8408 -6.9174,-4.92459 -6.0766,-9.12141z" fill="url(#color-7)"/></g><path d="M239.2257,100.90583l22.60874,-13.41108l4.91441,4.99925l18.78837,-11.79149l2.61049,13.16473l21.00814,-4.08955l-12.70766,21.10524l12.8624,6.54742l-11.48858,14.03437l2.12976,16.05863l-12.31413,10.25861l-10.83929,16.16337l-3.75407,-3.62088z" fill="url(#color-8)" stroke="none" stroke-linecap="butt"/><path d="M198.91298,169.75597c0,0 -5.37485,1.45837 -8.0601,1.87043c-2.77243,0.42544 -8.32135,0.64336 -8.32135,0.64336c0,0 4.05807,-5.90276 5.32988,-9.05718c1.02088,-2.53199 1.715,-8.41584 1.715,-8.41584c0,0 -7.44232,0.56643 -11.08806,-0.79385c-3.35348,-1.25124 -9.98296,-7.0681 -9.98296,-7.0681c0,0 3.4061,-7.32939 5.44443,-10.18229c1.74899,-2.44791 6.05091,-5.90691 6.05091,-5.90691c0,0 -1.07494,-3.38934 -2.50095,-4.92733c-1.43404,-1.54661 -6.07931,-4.32661 -6.07931,-4.32661c0,0 7.97507,-7.09017 11.59143,-9.39516c3.69002,-2.35196 10.3322,-4.5785 10.3322,-4.5785l-4.42343,-3.01114c0,0 7.4269,0.61529 10.08545,0.20491c2.64635,-0.40848 5.82937,-2.66153 5.82937,-2.66153c0,0 4.12961,-4.8172 6.14868,-6.68291c1.64903,-1.52375 5.08193,-3.69457 5.08193,-3.69457c0,0 -0.61106,2.70044 -0.41099,4.26912c0.22283,1.74724 1.68708,5.73651 1.68708,5.73651c0,0 10.12178,-5.54292 14.18202,-7.12809c2.91491,-1.13801 7.9031,-1.4942 7.9031,-1.4942c0,0 -1.25656,3.20143 -1.26422,4.33675c-0.00858,1.26961 1.21519,2.92318 1.21519,2.92318l22.14185,-11.35246l5.07123,5.23465l18.35687,-11.67397l2.29686,12.69394l18.92924,-3.89412l-12.04043,19.81109l12.4309,6.66495l-10.74313,13.36782l2.28691,15.27421l-11.8044,10.76868l-9.50585,16.63449l-3.75407,-3.62088l-19.37289,14.98932l-1.55592,-5.82695l-18.33572,15.43661l-2.2842,-8.78105l-29.44322,1.9517c0,0 -0.11283,-6.19023 -0.64503,-9.29902c-0.51358,-3.00003 -2.49432,-9.0391 -2.49432,-9.0391z" fill="url(#color-9)" stroke="none" stroke-linecap="butt"/><path d="M214.22203,165.59948l-3.05791,-60.42267l42.44568,-2.1481l3.05791,60.42267z" fill="url(#color-10)" stroke="none" stroke-linecap="butt"/><path d="M205.32264,162.18599c7.43055,-4.84271 13.0356,10.9784 26.53193,12.46167c9.61693,1.05692 27.51306,-12.31915 35.54603,-11.08797c9.58069,1.46838 5.7744,6.96091 5.7744,6.96091l-19.64824,17.38185l-1.59521,-5.63084l-18.88474,15.12266l-3.53939,-8.62457l-27.40272,-0.81567c0,0 0.28687,-4.75125 -0.16826,-8.28106c-0.43308,-3.3588 -2.97283,-13.34258 3.38621,-17.48697z" fill="#190000" stroke="none" stroke-linecap="butt"/><path d="M180.78647,131.55996c2.54742,-12.71533 14.92032,-20.95807 27.63566,-18.41065c12.71533,2.54742 20.95807,14.92032 18.41065,27.63566c-2.54742,12.71533 -14.92032,20.95807 -27.63566,18.41065c-12.71533,-2.54742 -20.95807,-14.92032 -18.41065,-27.63566z" fill="url(#color-11)" stroke="none" stroke-linecap="butt"/><path d="M194.47447,136.84154c0.78054,-3.89601 4.57161,-6.42159 8.4676,-5.64106c3.89601,0.78054 6.42159,4.57161 5.64105,8.46761c-0.78054,3.89601 -4.5716,6.42159 -8.46761,5.64105c-3.89601,-0.78054 -6.42158,-4.57161 -5.64104,-8.46761z" fill="#000000" stroke="none" stroke-linecap="butt"/><path d="M257.68043,160.03365c-12.71533,-2.54742 -20.95807,-14.92032 -18.41065,-27.63566c2.54742,-12.71533 14.92032,-20.95807 27.63566,-18.41065c12.71533,2.54742 20.95807,14.92032 18.41065,27.63566c-2.54742,12.71533 -14.92032,20.95807 -27.63566,18.41065z" data-paper-data="{&quot;index&quot;:null}" fill="url(#color-12)" stroke="none" stroke-linecap="butt"/><path d="M262.32072,143.13317c-3.26422,-0.65396 -5.38025,-3.83026 -4.72628,-7.09448c0.65396,-3.26422 3.83026,-5.38025 7.09448,-4.72628c3.26422,0.65396 5.38025,3.83026 4.72628,7.09448c-0.65396,3.26422 -3.83026,5.38025 -7.09448,4.72628z" data-paper-data="{&quot;index&quot;:null}" fill="#000000" stroke="none" stroke-linecap="butt"/><path d="M224.69962,168.34666c0,0 -0.27941,-3.99433 -0.12831,-6.13891c0.14667,-2.08169 4.30695,-6.39739 4.30695,-6.39739l4.66116,12.61504c0,0 -2.81996,0.89935 -3.93963,0.87028c-1.14014,-0.02961 -4.90018,-0.94901 -4.90018,-0.94901z" fill="#190000" stroke="none" stroke-linecap="butt"/><path d="M243.48667,167.01444c-1.53234,1.24437 -7.56276,-0.16619 -7.56276,-0.16619l-4.11667,-12.80819c0,0 5.18606,3.91314 6.89053,5.11722c1.75597,1.24044 9.08422,3.59421 9.08422,3.59421c0,0 -2.76297,3.0186 -4.29531,4.26297z" data-paper-data="{&quot;index&quot;:null}" fill="#190000" stroke="none" stroke-linecap="butt"/><path d="M223.06772,184.59762c0,0 -1.04913,2.00067 -2.38738,3.70792c-0.12398,0.15818 -4.99732,0.08177 -4.98205,-0.11253c0.20163,-2.56395 2.95762,-6.13571 2.95762,-6.13571z" fill="url(#color-13)" stroke="none" stroke-linecap="butt"/><path d="M239.8668,183.17271c0,0 -4.54714,-10.51712 -0.10457,-12.00241c4.44256,-1.4853 6.85395,9.74587 6.85395,9.74587z" fill="url(#color-14)" stroke="none" stroke-linecap="butt"/><path d="M258.28383,173.18299c0,0 -1.65961,-9.22462 2.15574,-9.57883c3.81535,-0.35422 3.64077,9.04068 3.64077,9.04068z" fill="url(#color-15)" stroke="none" stroke-linecap="butt"/></g></g></g></svg>