<svg version="1.1" xmlns="http://www.w3.org/2000/svg" xmlns:xlink="http://www.w3.org/1999/xlink" width="84.31513" height="30.05294" viewBox="0,0,84.31513,30.05294"><g transform="translate(-197.84243,-164.97353)"><g data-paper-data="{&quot;isPaintingLayer&quot;:true}" fill-rule="evenodd" stroke="none" stroke-linecap="round" stroke-linejoin="round" stroke-miterlimit="10" stroke-dasharray="" stroke-dashoffset="0" style="mix-blend-mode: normal"><path d="M282.15756,179.99999c0,8.32468 -6.70181,15.02648 -15.02647,15.02648h-54.2622c-8.32466,0 -15.02646,-6.70181 -15.02646,-15.02648c0,-8.32466 6.70179,-15.02646 15.02646,-15.02646h54.2622c8.32466,0 15.02647,6.70179 15.02647,15.02646z" fill="#666666" stroke-width="0.314"/><g fill="#ffffff" stroke-width="2.58387"><path d="M207.73309,186.08566v-12.25763h5.19655c0.56396,0 1.08189,0.11509 1.55378,0.34528c0.47189,0.2302 0.88048,0.54095 1.22576,0.93227c0.3568,0.39133 0.63302,0.82869 0.82868,1.31209c0.19566,0.4834 0.29349,0.97831 0.29349,1.48472c0,0.69058 -0.16113,1.34661 -0.48339,1.96813c-0.32227,0.62152 -0.76539,1.12793 -1.32935,1.51925c-0.56397,0.39132 -1.23153,0.58698 -2.00266,0.58698h-2.9004v4.10891zM210.11556,179.88777h2.76229c0.28774,0 0.5467,-0.08057 0.7769,-0.24169c0.23018,-0.16114 0.41433,-0.39133 0.55245,-0.69058c0.13812,-0.31075 0.20718,-0.6618 0.20718,-1.05312c0,-0.42586 -0.08057,-0.78841 -0.2417,-1.08764c-0.14962,-0.29926 -0.35104,-0.52369 -0.60425,-0.67331c-0.2417,-0.14962 -0.50641,-0.22443 -0.79415,-0.22443h-2.6587z"/><path d="M223.68527,186.17197c-0.97831,0 -1.81275,-0.16114 -2.50333,-0.48341c-0.67906,-0.33377 -1.23151,-0.78839 -1.65737,-1.36386c-0.41434,-0.57547 -0.71934,-1.22577 -0.915,-1.95087c-0.19566,-0.7366 -0.29349,-1.50198 -0.29349,-2.29613v-6.24967h2.38246v6.24967c0,0.50641 0.04602,1.00132 0.13805,1.48472c0.1036,0.47189 0.27048,0.89773 0.50067,1.27755c0.23018,0.37981 0.53519,0.67906 0.915,0.89774c0.37981,0.21868 0.85171,0.32802 1.41566,0.32802c0.57547,0 1.05312,-0.10934 1.43294,-0.32802c0.39133,-0.23018 0.69633,-0.53519 0.91502,-0.915c0.23018,-0.37981 0.39707,-0.80567 0.50067,-1.27756c0.1036,-0.4834 0.15539,-0.97255 0.15539,-1.46745v-6.24967h2.36521v6.24967c0,0.84019 -0.10359,1.62859 -0.31076,2.36519c-0.19566,0.73661 -0.51217,1.3869 -0.94953,1.95086c-0.42586,0.55247 -0.97831,0.98983 -1.65737,1.31209c-0.67907,0.31075 -1.49049,0.46614 -2.43427,0.46614z"/><path d="M231.43691,186.08566v-12.25763h5.42098c0.56397,0 1.0819,0.11509 1.55378,0.34528c0.4834,0.2302 0.89774,0.54095 1.24303,0.93227c0.3568,0.39133 0.62727,0.82869 0.81141,1.31209c0.19567,0.4834 0.29351,0.97831 0.29351,1.48472c0,0.51793 -0.09208,1.01859 -0.27623,1.502c-0.17264,0.47189 -0.42585,0.88622 -0.75963,1.24302c-0.33378,0.3568 -0.7251,0.63302 -1.17398,0.82868l2.79682,4.60957h-2.62417l-2.52058,-4.10891h-2.38246v4.10891zM233.8194,179.88777h2.98672c0.29924,0 0.56396,-0.08632 0.79415,-0.25896c0.23018,-0.18415 0.41433,-0.42586 0.55245,-0.7251c0.13812,-0.29926 0.20718,-0.63303 0.20718,-1.00133c0,-0.39132 -0.08057,-0.73085 -0.2417,-1.01859c-0.16114,-0.29926 -0.36831,-0.5352 -0.62151,-0.70784c-0.2417,-0.17264 -0.50641,-0.25896 -0.79415,-0.25896h-2.88313z"/><path d="M242.91768,186.08566v-12.25763h5.19654c0.56397,0 1.0819,0.11509 1.55378,0.34528c0.47189,0.2302 0.88048,0.54095 1.22576,0.93227c0.3568,0.39133 0.63302,0.82869 0.82868,1.31209c0.19567,0.4834 0.29351,0.97831 0.29351,1.48472c0,0.69058 -0.16114,1.34661 -0.48341,1.96813c-0.32226,0.62152 -0.76537,1.12793 -1.32935,1.51925c-0.56396,0.39132 -1.23151,0.58698 -2.00264,0.58698h-2.9004v4.10891zM245.30015,179.88777h2.76229c0.28774,0 0.5467,-0.08057 0.77688,-0.24169c0.2302,-0.16114 0.41435,-0.39133 0.55247,-0.69058c0.13811,-0.31075 0.20716,-0.6618 0.20716,-1.05312c0,-0.42586 -0.08057,-0.78841 -0.24169,-1.08764c-0.14963,-0.29926 -0.35105,-0.52369 -0.60425,-0.67331c-0.2417,-0.14962 -0.50641,-0.22443 -0.79415,-0.22443h-2.6587z"/><path d="M253.6733,186.08566v-12.25763h2.38246v10.16864h6.24967v2.08899z"/><path d="M272.26691,183.99667v2.08899h-8.51127v-12.25763h8.3559v2.08897h-5.97344v2.95219h5.16201v1.9336h-5.16201v3.19388z"/></g></g></g></svg>