<svg version="1.1" xmlns="http://www.w3.org/2000/svg" xmlns:xlink="http://www.w3.org/1999/xlink" width="181.90278" height="267.22501" viewBox="0,0,181.90278,267.22501"><g transform="translate(-135.9121,-46.38752)"><g data-paper-data="{&quot;isPaintingLayer&quot;:true}" fill-rule="nonzero" stroke-linecap="butt" stroke-linejoin="miter" stroke-miterlimit="10" stroke-dasharray="" stroke-dashoffset="0" style="mix-blend-mode: normal"><path d="M179.28373,313.61253v-267.22501h123.18203v267.22501z" fill-opacity="0.01" fill="#000000" stroke="none" stroke-width="0"/><g><path d="M138.41779,182.74612c0,0 29.78094,-40.9609 39.11115,-61.88363c8.49273,-19.04467 14.59431,-58.5492 14.59431,-58.5492c0,0 32.9549,28.8606 53.21552,36.39984c20.91393,7.78234 70.37032,9.58802 70.37032,9.58802c0,0 -28.51841,33.34788 -37.27451,52.98317c-9.13007,20.4739 -16.43096,67.44965 -16.43096,67.44965c0,0 -34.14651,-28.91471 -54.4761,-36.47961c-20.85242,-7.75945 -69.10974,-9.50825 -69.10974,-9.50825z" fill="#ff6f00" stroke="#000000" stroke-width="2"/><path d="M190.70178,234.52584c0,0 -7.90543,-50.02204 -16.10257,-71.41409c-7.46135,-19.47187 -31.0808,-51.72027 -31.0808,-51.72027c0,0 43.71017,-2.89511 63.36763,-11.89048c20.29133,-9.28543 56.53908,-42.97957 56.53908,-42.97957c0,0 3.41495,43.74607 11.10771,63.82181c8.0213,20.93316 36.07567,59.31255 36.07567,59.31255c0,0 -44.59102,3.69945 -64.31539,12.72544c-20.23165,9.25813 -55.59132,42.14462 -55.59132,42.14462z" fill="#ff6f00" stroke="#000000" stroke-width="2"/><path d="M167.37498,170.58693c-12.893,-30.70478 3.1722,-66.73048 35.88262,-80.46565c32.71041,-13.73517 69.6793,0.02143 82.57229,30.7262c12.893,30.70478 -3.1722,66.73048 -35.88262,80.46565c-32.71041,13.73517 -69.6793,-0.02143 -82.57229,-30.7262z" fill="#ffe900" stroke="#000000" stroke-width="2"/><path d="M205.07102,167.01832c-0.59282,-1.41181 51.00782,-23.68116 51.81559,-21.75747c5.63977,13.43115 -1.38761,29.18984 -15.69609,35.198c-14.30847,6.00816 -30.47973,-0.00937 -36.1195,-13.44053z" fill="#000000" stroke="#000000" stroke-width="2"/><path d="M187.48265,151.52306c-2.39975,-5.71501 0.28781,-12.29332 6.00282,-14.69306c5.71502,-2.39975 12.29333,0.2878 14.69307,6.00282c2.39975,5.71501 -0.28782,12.29332 -6.00283,14.69307c-5.71502,2.39975 -12.29331,-0.28782 -14.69305,-6.00283z" fill="#000000" stroke="none" stroke-width="0"/><path d="M251.86684,136.30089c-5.54618,2.32885 -11.93017,-0.27931 -14.25902,-5.82549c-2.32886,-5.54619 0.27931,-11.93017 5.82549,-14.25902c5.54618,-2.32885 11.93016,0.27931 14.25901,5.8255c2.32886,5.54619 -0.27931,11.93018 -5.82548,14.25903z" data-paper-data="{&quot;index&quot;:null}" fill="#000000" stroke="none" stroke-width="0"/></g></g></g></svg>