<svg version="1.1" xmlns="http://www.w3.org/2000/svg" xmlns:xlink="http://www.w3.org/1999/xlink" width="148.85895" height="307.64219" viewBox="0,0,148.85895,307.64219"><defs><linearGradient x1="240.00004" y1="175.50005" x2="240.00004" y2="307.50005" gradientUnits="userSpaceOnUse" id="color-1"><stop offset="0" stop-color="#000000"/><stop offset="1" stop-color="#65325d"/></linearGradient><linearGradient x1="187.45881" y1="8.21543" x2="196.58745" y2="114.55332" gradientUnits="userSpaceOnUse" id="color-2"><stop offset="0" stop-color="#000000"/><stop offset="1" stop-color="#4c2646"/></linearGradient><linearGradient x1="278.61425" y1="0.39015" x2="287.74287" y2="106.72804" gradientUnits="userSpaceOnUse" id="color-3"><stop offset="0" stop-color="#000000"/><stop offset="1" stop-color="#4c2647"/></linearGradient><linearGradient x1="237.78256" y1="72.04536" x2="248.09731" y2="192.20011" gradientUnits="userSpaceOnUse" id="color-4"><stop offset="0" stop-color="#1b0d19"/><stop offset="1" stop-color="#804076"/></linearGradient><linearGradient x1="221.48192" y1="61.54208" x2="223.42501" y2="84.17687" gradientUnits="userSpaceOnUse" id="color-5"><stop offset="0" stop-color="#33002b"/><stop offset="1" stop-color="#990085"/></linearGradient><linearGradient x1="255.85548" y1="58.59126" x2="257.79858" y2="81.22602" gradientUnits="userSpaceOnUse" id="color-6"><stop offset="0" stop-color="#33002b"/><stop offset="1" stop-color="#990085"/></linearGradient><linearGradient x1="238.8967" y1="64.26877" x2="240.22243" y2="79.71197" gradientUnits="userSpaceOnUse" id="color-7"><stop offset="0" stop-color="#1a0016"/><stop offset="1" stop-color="#80006e"/></linearGradient><linearGradient x1="277.71511" y1="57.81429" x2="285.6817" y2="150.6157" gradientUnits="userSpaceOnUse" id="color-8"><stop offset="0" stop-color="#1a0d17"/><stop offset="1" stop-color="#66335d"/></linearGradient><linearGradient x1="245.495" y1="62.58758" x2="255.77262" y2="182.30988" gradientUnits="userSpaceOnUse" id="color-9"><stop offset="0" stop-color="#4c0000"/><stop offset="1" stop-color="#650000"/></linearGradient><radialGradient cx="248.57906" cy="123.25357" r="34.54447" gradientUnits="userSpaceOnUse" id="color-10"><stop offset="0" stop-color="#330000"/><stop offset="1" stop-color="#330000" stop-opacity="0"/></radialGradient><radialGradient cx="220.19294" cy="133.45505" r="23.48065" gradientUnits="userSpaceOnUse" id="color-11"><stop offset="0" stop-color="#808080"/><stop offset="1" stop-color="#804040"/></radialGradient><radialGradient cx="276.57832" cy="117.90871" r="23.48065" gradientUnits="userSpaceOnUse" id="color-12"><stop offset="0" stop-color="#808080"/><stop offset="1" stop-color="#804040"/></radialGradient><linearGradient x1="247.84008" y1="181.7934" x2="249.74884" y2="173.96205" gradientUnits="userSpaceOnUse" id="color-13"><stop offset="0" stop-color="#4d4d4d"/><stop offset="1" stop-color="#808080"/></linearGradient><linearGradient x1="264.45919" y1="157.21176" x2="270.87734" y2="166.47321" gradientUnits="userSpaceOnUse" id="color-14"><stop offset="0" stop-color="#4d4d4d"/><stop offset="1" stop-color="#808080"/></linearGradient><linearGradient x1="282.1657" y1="144.11733" x2="285.54975" y2="152.69091" gradientUnits="userSpaceOnUse" id="color-15"><stop offset="0" stop-color="#4d4d4d"/><stop offset="1" stop-color="#808080"/></linearGradient></defs><g transform="translate(-167.38774,0.14214)"><g data-paper-data="{&quot;isPaintingLayer&quot;:true}" fill-rule="nonzero" stroke-width="0" stroke-linejoin="miter" stroke-miterlimit="10" stroke-dasharray="" stroke-dashoffset="0" style="mix-blend-mode: normal"><path d="M206.75005,307.50004l15.14285,-131.8421l37.78325,-0.15789l13.57389,132z" fill="url(#color-1)" stroke="none" stroke-linecap="butt"/><path d="M186.4093,115.42707c0,0 -38.04268,-100.03271 -6.52772,-106.43257c32.18809,-6.53657 36.52441,73.64576 36.52441,73.64576" fill="url(#color-2)" stroke="none" stroke-linecap="round"/><path d="M262.77519,78.65965c0,0 -9.393,-79.74823 23.4382,-78.79328c32.14464,0.93498 11.70763,105.98791 11.70763,105.98791" data-paper-data="{&quot;index&quot;:null}" fill="url(#color-3)" stroke="none" stroke-linecap="round"/><path d="M178.93831,137.61698c-2.84834,-33.17981 23.49713,-62.53723 58.84425,-65.57162c35.34712,-3.03439 66.31066,21.40331 69.15899,54.58311c2.84834,33.17981 -23.49713,62.53723 -58.84425,65.57162c-35.34712,3.03439 -66.31066,-21.40331 -69.15899,-54.58311z" fill="url(#color-4)" stroke="none" stroke-linecap="butt"/><g stroke="#000000" stroke-linecap="butt"><path d="M211.91194,83.14066c-3.74767,-6.75394 2.19582,-9.29524 2.19582,-9.29524c0,0 -4.9542,-1.7475 -4.22832,-8.53529c0.93283,-8.72312 24.56264,3.5772 24.56264,3.5772l0.47998,7.53987c0,0 -19.56609,12.92019 -23.01011,6.71347z" fill="url(#color-5)"/><path d="M245.14895,75.54926l-0.8121,-7.51136c0,0 21.18766,-16.14769 23.59357,-7.7112c1.87213,6.56476 -2.71175,9.13107 -2.71175,9.13107c0,0 6.28964,1.49114 3.74793,8.78499c-2.33578,6.70287 -23.81766,-2.69351 -23.81766,-2.69351z" data-paper-data="{&quot;index&quot;:null}" fill="url(#color-6)"/><path d="M231.83797,72.65324c-0.36609,-4.26451 2.79422,-8.01838 7.05873,-8.38446c4.26451,-0.36609 8.01838,2.79422 8.38446,7.05873c0.36609,4.26451 -2.79422,8.01838 -7.05873,8.38446c-4.26451,0.36609 -8.01838,-2.79422 -8.38446,-7.05873z" fill="url(#color-7)"/></g><path d="M244.33671,89.69304l17.95762,-19.19729l6.11614,3.42591l14.74241,-16.57418l6.18702,11.90989l19.02699,-9.79999l-6.30022,23.81644l14.18002,2.69021l-7.10666,16.68672l6.53455,14.82278l-8.95493,13.29233l-5.88802,18.54928l-4.61669,-2.42691z" fill="url(#color-8)" stroke="none" stroke-linecap="butt"/><path d="M224.88094,167.0683c0,0 -4.75277,2.90293 -7.21574,4.04932c-2.54292,1.1836 -7.80963,2.94422 -7.80963,2.94422c0,0 2.24592,-6.80193 2.5851,-10.18614c0.27225,-2.71644 -0.70631,-8.55972 -0.70631,-8.55972c0,0 -6.98716,2.62459 -10.86783,2.33784c-3.56959,-0.26376 -11.56098,-3.99517 -11.56098,-3.99517c0,0 1.2211,-7.98939 2.38052,-11.29841c0.99484,-2.83929 4.15814,-7.36308 4.15814,-7.36308c0,0 -1.97968,-2.95365 -3.77881,-4.03161c-1.80925,-1.08401 -7.04653,-2.45439 -7.04653,-2.45439c0,0 5.67475,-9.03712 8.50245,-12.26126c2.88532,-3.28983 8.64009,-7.28463 8.64009,-7.28463l-5.0889,-1.65435c0,0 7.30276,-1.48569 9.74055,-2.62298c2.4266,-1.13207 4.85278,-4.18519 4.85278,-4.18519c0,0 2.61811,-5.77967 4.03505,-8.13547c1.15724,-1.92403 3.84633,-4.96805 3.84633,-4.96805c0,0 0.16831,2.7636 0.79896,4.21379c0.70245,1.61527 3.22363,5.03607 3.22363,5.03607c0,0 8.16843,-8.15175 11.62357,-10.80888c2.48049,-1.90759 7.17018,-3.64419 7.17018,-3.64419c0,0 -0.31138,3.42508 -0.00132,4.51727c0.34673,1.22138 1.984,2.46685 1.984,2.46685l18.08492,-17.09023l6.33251,3.60807l14.36098,-16.3407l5.75428,11.54557l17.08564,-9.03113l-6.02143,22.38736l13.79859,2.92368l-6.57728,15.83833l6.46613,14.02571l-8.32292,13.63955l-4.47604,18.6288l-4.61669,-2.42691l-14.40956,19.8079l-3.12298,-5.15957l-13.28869,19.94739l-4.64815,-7.79225l-27.72341,10.1057c0,0 -1.83902,-5.91183 -3.21917,-8.74785c-1.33187,-2.7368 -4.92203,-7.98126 -4.92203,-7.98126z" fill="url(#color-9)" stroke="none" stroke-linecap="butt"/><path d="M238.41741,158.79742l-19.82913,-57.15816l40.15243,-13.92955l19.82913,57.15816z" fill="url(#color-10)" stroke="none" stroke-linecap="butt"/><path d="M228.91856,158.00818c5.78028,-6.72706 15.58514,6.89606 28.95794,4.54683c9.52892,-1.67396 22.97165,-19.52007 31.02849,-20.58387c9.60916,-1.26878 7.49027,5.06889 7.49027,5.06889l-14.00502,22.182l-3.10588,-4.9603l-13.90361,19.79944l-5.80953,-7.29109l-26.53798,6.8782c0,0 -1.05294,-4.64198 -2.4768,-7.90378c-1.35487,-3.10378 -6.58463,-11.97935 -1.6379,-17.73634z" fill="#190000" stroke="none" stroke-linecap="butt"/><path d="M196.79833,135.46337c-1.10916,-12.92048 8.4658,-24.29377 21.38628,-25.40293c12.92048,-1.10916 24.29377,8.4658 25.40293,21.38628c1.10916,12.92048 -8.4658,24.29377 -21.38628,25.40293c-12.92048,1.10916 -24.29377,-8.4658 -25.40293,-21.38628z" fill="url(#color-11)" stroke="none" stroke-linecap="butt"/><path d="M278.58664,141.3033c-12.92048,1.10916 -24.29377,-8.4658 -25.40293,-21.38628c-1.10916,-12.92048 8.4658,-24.29377 21.38628,-25.40293c12.92048,-1.10916 24.29377,8.4658 25.40293,21.38628c1.10916,12.92048 -8.4658,24.29377 -21.38628,25.40293z" data-paper-data="{&quot;index&quot;:null}" fill="url(#color-12)" stroke="none" stroke-linecap="butt"/><path d="M249.24523,158.50568c0,0 -1.38502,-3.75692 -1.83953,-5.85823c-0.44118,-2.03969 2.34659,-7.34643 2.34659,-7.34643l8.00224,10.80879c0,0 -2.45606,1.65191 -3.53922,1.93703c-1.10296,0.29033 -4.97009,0.45884 -4.97009,0.45884z" fill="#190000" stroke="none" stroke-linecap="butt"/><path d="M266.91061,151.97404c-1.12333,1.62315 -7.30763,1.95486 -7.30763,1.95486l-7.53347,-11.14647c0,0 6.0733,2.30715 8.04643,2.98667c2.03274,0.70003 9.72683,0.91109 9.72683,0.91109c0,0 -1.80884,3.6707 -2.93217,5.29386z" data-paper-data="{&quot;index&quot;:null}" fill="#190000" stroke="none" stroke-linecap="butt"/><path d="M252.22191,174.56483c0,0 -0.44793,2.2142 -1.25549,4.22752c-0.07482,0.18653 -4.77519,1.47569 -4.81484,1.28485c-0.52325,-2.51807 1.12423,-6.71792 1.12423,-6.71792z" fill="url(#color-13)" stroke="none" stroke-linecap="butt"/><path d="M267.95269,168.5c0,0 -7.30621,-8.82641 -3.45607,-11.49455c3.85013,-2.66814 9.30542,7.44096 9.30542,7.44096z" fill="url(#color-14)" stroke="none" stroke-linecap="butt"/><path d="M282.84231,153.75956c0,0 -4.17248,-8.39274 -0.60831,-9.79955c3.56416,-1.4068 6.0232,7.66226 6.0232,7.66226z" fill="url(#color-15)" stroke="none" stroke-linecap="butt"/><path d="M216.58064,136.52693c-0.21389,-2.49158 1.63253,-4.6848 4.12411,-4.89869c2.49158,-0.21389 4.68479,1.63254 4.89869,4.12412c0.21389,2.49158 -1.63253,4.6848 -4.12412,4.89869c-2.49158,0.21389 -4.68479,-1.63254 -4.89868,-4.12412z" fill="#000000" stroke="none" stroke-linecap="butt"/><path d="M277.70741,122.51994c-2.39983,0.20601 -4.51229,-1.57243 -4.7183,-3.97226c-0.20601,-2.39983 1.57243,-4.51229 3.97226,-4.71831c2.39983,-0.20601 4.51229,1.57243 4.7183,3.97226c0.20601,2.39983 -1.57243,4.51229 -3.97226,4.71831z" data-paper-data="{&quot;index&quot;:null}" fill="#000000" stroke="none" stroke-linecap="butt"/></g></g></svg>