<svg version="1.1" xmlns="http://www.w3.org/2000/svg" xmlns:xlink="http://www.w3.org/1999/xlink" width="84.31513" height="30.05294" viewBox="0,0,84.31513,30.05294"><g transform="translate(-197.84243,-164.97353)"><g data-paper-data="{&quot;isPaintingLayer&quot;:true}" fill-rule="evenodd" stroke="none" stroke-linecap="round" stroke-linejoin="round" stroke-miterlimit="10" stroke-dasharray="" stroke-dashoffset="0" style="mix-blend-mode: normal"><path d="M282.15756,179.99999c0,8.32468 -6.70181,15.02648 -15.02647,15.02648h-54.2622c-8.32466,0 -15.02646,-6.70181 -15.02646,-15.02648c0,-8.32466 6.70179,-15.02646 15.02646,-15.02646h54.2622c8.32466,0 15.02647,6.70179 15.02647,15.02646z" fill="#666666" stroke-width="0.314"/><g fill="#ffffff" stroke-width="2.58387"><path d="M218.42828,178.25631v7.87251h-2.38246v-12.25763h1.89906l6.33598,8.07967v-8.06241h2.38248v12.24038h-1.98539z"/><path d="M234.44953,186.21513c-0.89775,0 -1.71493,-0.17264 -2.45154,-0.51792c-0.7251,-0.34529 -1.35236,-0.81143 -1.8818,-1.39841c-0.51792,-0.5985 -0.92075,-1.26605 -1.20849,-2.00266c-0.28774,-0.74812 -0.43161,-1.5135 -0.43161,-2.29615c0,-0.81718 0.14962,-1.59407 0.44886,-2.33068c0.31075,-0.74812 0.73085,-1.40991 1.26029,-1.98539c0.54095,-0.58698 1.17398,-1.04736 1.89907,-1.38113c0.73661,-0.34529 1.54227,-0.51794 2.41699,-0.51794c0.88624,0 1.6919,0.1784 2.41699,0.53519c0.73661,0.3568 1.36389,0.83444 1.88182,1.43294c0.51792,0.5985 0.92075,1.26605 1.20849,2.00266c0.28774,0.73661 0.43161,1.49624 0.43161,2.27888c0,0.80567 -0.14962,1.58256 -0.44886,2.33068c-0.29926,0.73661 -0.71935,1.39841 -1.26029,1.98539c-0.52944,0.57547 -1.16246,1.0301 -1.89907,1.36388c-0.7251,0.33378 -1.51925,0.50067 -2.38246,0.50067zM230.89309,180c0,0.52944 0.08057,1.04161 0.24169,1.53652c0.16114,0.49492 0.39133,0.93803 0.69058,1.32935c0.31075,0.37981 0.68482,0.68482 1.12217,0.915c0.44887,0.21868 0.95529,0.32802 1.51925,0.32802c0.57547,0 1.08765,-0.11509 1.53652,-0.34528c0.44887,-0.2417 0.82293,-0.55822 1.12217,-0.94954c0.29926,-0.40283 0.52369,-0.84593 0.67331,-1.32933c0.16112,-0.49492 0.24169,-0.98982 0.24169,-1.48474c0,-0.52944 -0.08632,-1.03585 -0.25896,-1.51925c-0.16112,-0.49492 -0.39707,-0.93227 -0.70782,-1.31208c-0.29926,-0.39133 -0.67332,-0.69633 -1.12219,-0.91502c-0.43736,-0.23018 -0.93226,-0.34528 -1.48472,-0.34528c-0.58698,0 -1.10491,0.12085 -1.55378,0.36255c-0.43736,0.23018 -0.80566,0.54094 -1.10492,0.93227c-0.29924,0.39132 -0.52943,0.82868 -0.69057,1.31208c-0.14962,0.4834 -0.22443,0.97831 -0.22443,1.48472z"/><path d="M244.65272,178.25631v7.87251h-2.38246v-12.25763h1.89906l6.336,8.07967v-8.06241h2.38246v12.24038h-1.98539z"/><path d="M263.95418,184.03985v2.08897h-8.51129v-12.25763h8.35592v2.08897h-5.97344v2.95219h5.16201v1.9336h-5.16201v3.19389z"/></g></g></g></svg>