<svg version="1.1" xmlns="http://www.w3.org/2000/svg" xmlns:xlink="http://www.w3.org/1999/xlink" width="206.51413" height="267.43552" viewBox="0,0,206.51413,267.43552"><defs><linearGradient x1="240.00007" y1="175.50002" x2="240.00007" y2="307.50002" gradientUnits="userSpaceOnUse" id="color-1"><stop offset="0" stop-color="#000000"/><stop offset="1" stop-color="#1f6266"/></linearGradient><linearGradient x1="240.68849" y1="191.31124" x2="240.68849" y2="227.70022" gradientUnits="userSpaceOnUse" id="color-2"><stop offset="0" stop-color="#1a0000"/><stop offset="1" stop-color="#800000"/></linearGradient><linearGradient x1="232.44908" y1="234.31308" x2="232.44908" y2="246.14641" gradientUnits="userSpaceOnUse" id="color-3"><stop offset="0" stop-color="#1a0000"/><stop offset="1" stop-color="#800000"/></linearGradient><linearGradient x1="226.58133" y1="233.77547" x2="235.7355" y2="233.77547" gradientUnits="userSpaceOnUse" id="color-4"><stop offset="0" stop-color="#1a0000" stop-opacity="0"/><stop offset="1" stop-color="#1a0000"/></linearGradient><linearGradient x1="177.67069" y1="172.70245" x2="192.65934" y2="172.70245" gradientUnits="userSpaceOnUse" id="color-5"><stop offset="0" stop-color="#1a0000" stop-opacity="0"/><stop offset="1" stop-color="#1a0000"/></linearGradient><linearGradient x1="291.89815" y1="69.44097" x2="291.89815" y2="112.10764" gradientUnits="userSpaceOnUse" id="color-6"><stop offset="0" stop-color="#000000"/><stop offset="1" stop-color="#1f6266"/></linearGradient><linearGradient x1="292.23149" y1="76.44097" x2="292.23149" y2="105.77431" gradientUnits="userSpaceOnUse" id="color-7"><stop offset="0" stop-color="#14191a"/><stop offset="1" stop-color="#657e80"/></linearGradient><linearGradient x1="187.2315" y1="69.44097" x2="187.2315" y2="112.10764" gradientUnits="userSpaceOnUse" id="color-8"><stop offset="0" stop-color="#000000"/><stop offset="1" stop-color="#1f6266"/></linearGradient><linearGradient x1="187.56483" y1="76.44097" x2="187.56483" y2="105.77431" gradientUnits="userSpaceOnUse" id="color-9"><stop offset="0" stop-color="#14191a"/><stop offset="1" stop-color="#657e80"/></linearGradient><radialGradient cx="241.23149" cy="180.88466" r="22.7341" gradientUnits="userSpaceOnUse" id="color-10"><stop offset="0" stop-color="#1a0000"/><stop offset="1" stop-color="#330000"/></radialGradient><linearGradient x1="244.55687" y1="201.97408" x2="244.55687" y2="215.3944" gradientUnits="userSpaceOnUse" id="color-11"><stop offset="0" stop-color="#1a0000"/><stop offset="1" stop-color="#1a0000" stop-opacity="0"/></linearGradient><linearGradient x1="230.44716" y1="66.47111" x2="230.40209" y2="82.88632" gradientUnits="userSpaceOnUse" id="color-12"><stop offset="0" stop-color="#1a0000" stop-opacity="0"/><stop offset="1" stop-color="#1a0000"/></linearGradient><linearGradient x1="182.93318" y1="96.43511" x2="201.60043" y2="96.43511" gradientUnits="userSpaceOnUse" id="color-13"><stop offset="0" stop-color="#1a0101" stop-opacity="0"/><stop offset="1" stop-color="#1a0101"/></linearGradient><linearGradient x1="240.07701" y1="80.04784" x2="240.07701" y2="200.6445" gradientUnits="userSpaceOnUse" id="color-14"><stop offset="0" stop-color="#08191a"/><stop offset="1" stop-color="#267b80"/></linearGradient><linearGradient x1="211.51668" y1="146.35347" x2="211.51668" y2="182.15347" gradientUnits="userSpaceOnUse" id="color-15"><stop offset="0" stop-color="#1a0000"/><stop offset="1" stop-color="#800000"/></linearGradient><radialGradient cx="212.87085" cy="140.27564" r="23.48065" gradientUnits="userSpaceOnUse" id="color-16"><stop offset="0" stop-color="#808080"/><stop offset="1" stop-color="#804040"/></radialGradient><radialGradient cx="266.46261" cy="140.27561" r="23.48065" gradientUnits="userSpaceOnUse" id="color-17"><stop offset="0" stop-color="#1a0000"/><stop offset="1" stop-color="#4d0000"/></radialGradient><linearGradient x1="245.38057" y1="59.20521" x2="245.38057" y2="87.38852" gradientUnits="userSpaceOnUse" id="color-18"><stop offset="0" stop-color="#0f3133"/><stop offset="1" stop-color="#08191a"/></linearGradient><linearGradient x1="262.15029" y1="139.15496" x2="275.7621" y2="139.15496" gradientUnits="userSpaceOnUse" id="color-19"><stop offset="0" stop-color="#1a0000"/><stop offset="1" stop-color="#1a0000" stop-opacity="0"/></linearGradient><radialGradient cx="312.96261" cy="123.92563" r="23.48065" gradientUnits="userSpaceOnUse" id="color-20"><stop offset="0" stop-color="#808080"/><stop offset="1" stop-color="#804040"/></radialGradient><linearGradient x1="313.92607" y1="118.50149" x2="328.29402" y2="118.50149" gradientUnits="userSpaceOnUse" id="color-21"><stop offset="0" stop-color="#1a0000"/><stop offset="1" stop-color="#1a0000" stop-opacity="0"/></linearGradient><linearGradient x1="193.80556" y1="93.87946" x2="193.80556" y2="118.02232" gradientUnits="userSpaceOnUse" id="color-22"><stop offset="0" stop-color="#1a0000"/><stop offset="1" stop-color="#800000"/></linearGradient></defs><g transform="translate(-143.67945,-46.01033)"><g data-paper-data="{&quot;isPaintingLayer&quot;:true}" fill-rule="nonzero" stroke-width="0" stroke-linejoin="miter" stroke-miterlimit="10" stroke-dasharray="" stroke-dashoffset="0" style="mix-blend-mode: normal"><path d="M179.1171,313.44585v-267.22501h123.18203v267.22501z" fill-opacity="0.01" fill="#000000" stroke="none" stroke-linecap="butt"/><g stroke-linecap="butt"><path d="M227.81488,230.99778l40.80732,-7.97155c0,0 0.9434,-0.29407 1.695,1.92102c0.8429,2.48416 -0.52432,2.69797 -0.52432,2.69797l-40.32375,9.76912z" fill="#332626" stroke="none"/><path d="M206.75008,307.50001l15.14285,-131.8421l37.78325,-0.15789l13.57389,132z" fill="url(#color-1)" stroke="#000000"/><path d="M223.10516,191.31124c0,0 12.08001,9.33334 18.01059,9.33334c5.78818,0 17.15608,-9.33334 17.15608,-9.33334c0,0 1.76242,17.00746 -0.66666,16.90857c-4.09294,-0.16663 -2.10574,35.6755 -4.269,35.74718c-2.79963,0.09278 -2.27579,-35.28034 -4.07553,-35.65772c-2.82686,-0.59276 -1.52244,27.45279 -3.86422,27.67023c-2.47839,0.23011 0.69545,-18.34439 -1.32923,-17.88259c-2.14049,0.48821 -1.90442,-8.39463 -3.86613,-8.72342c-2.04007,-0.34191 -1.1244,19.22985 -3.31191,18.97269c-1.98094,-0.23288 -0.78364,-11.77588 -2.72968,-12.39717c-1.7978,-0.57396 -0.9038,22.91934 -2.63549,22.95414c-2.25727,0.04536 -2.68934,-26.96426 -3.54055,-27.38845c-1.46383,-0.72949 -1.32353,11.06781 -4.04494,11.39754c-2.72141,0.32972 -0.83333,-31.60099 -0.83333,-31.60099z" fill="url(#color-2)" stroke="none"/><path d="M231.44908,239.14641c-3.07182,-0.51466 -1.83333,-4.83333 -1.83333,-4.83333h5.66667c0,0 2.03301,11.5574 -0.83334,11.83333c-2.12502,0.20457 -1.15477,-6.69084 -3,-7z" fill="url(#color-3)" stroke="none"/><path d="M211.69147,234.0641l20.56617,-4.01752c0,0 2.31455,-0.91035 3.30956,2.56735c0.89803,3.13872 -2.09033,3.74614 -2.09033,3.74614l-20.43393,4.95047c0,0 -1.07442,0.84401 -1.88463,-3.15959c-0.75032,-3.70763 0.53316,-4.08686 0.53316,-4.08686z" fill="#5d5f60" stroke="none"/><path d="M226.58133,231.15542l5.67631,-1.10884c0,0 2.31455,-0.91035 3.30956,2.56735c0.89803,3.13872 -2.09033,3.74614 -2.09033,3.74614l-5.16694,1.25178c0,0 -0.02081,-2.23445 -0.32712,-3.37853c-0.26339,-0.98378 -1.40148,-3.0779 -1.40148,-3.0779z" fill="url(#color-4)" stroke="none"/></g><g><path d="M158.87097,179.07387l121.39588,-48.42016c0,0 3.68311,-0.17224 4.43382,1.70707c0.75071,1.8793 -2.00835,5.19923 -2.00835,5.19923l-123.66393,49.42758c0,0 -1.59925,0.17478 -1.85269,-3.60319c-0.26953,-4.01796 1.69527,-4.31053 1.69527,-4.31053z" fill="#5d5f60" stroke="none" stroke-linecap="butt"/><path d="M177.67069,171.57538l12.16078,-4.85047l2.82787,6.82063l-12.84596,5.13444z" fill="url(#color-5)" stroke="none" stroke-linecap="butt"/><path d="M270.5648,90.77431c0,-11.78208 9.55126,-21.33333 21.33334,-21.33333c11.78208,0 21.33333,9.55126 21.33333,21.33333c0,11.78208 -9.55126,21.33333 -21.33333,21.33333c-11.78208,0 -21.33334,-9.55125 -21.33334,-21.33333z" fill="url(#color-6)" stroke="#000000" stroke-linecap="butt"/><path d="M277.5648,91.10764c0,-8.10018 6.5665,-14.66666 14.66667,-14.66666c8.10017,0 14.66667,6.56649 14.66667,14.66666c0,8.10018 -6.56649,14.66667 -14.66667,14.66667c-8.10017,0 -14.66667,-6.56649 -14.66667,-14.66667z" fill="url(#color-7)" stroke="#000000" stroke-linecap="butt"/><path d="M165.89816,90.77431c0,-11.78208 9.55126,-21.33333 21.33333,-21.33333c11.78207,0 21.33334,9.55126 21.33334,21.33333c0,11.78208 -9.55126,21.33333 -21.33334,21.33333c-11.78207,0 -21.33333,-9.55125 -21.33333,-21.33333z" fill="url(#color-8)" stroke="#000000" stroke-linecap="butt"/><path d="M172.89816,91.10764c0,-8.10018 6.56649,-14.66666 14.66667,-14.66666c8.10018,0 14.66666,6.56649 14.66666,14.66666c0,8.10018 -6.56649,14.66667 -14.66666,14.66667c-8.10018,0 -14.66667,-6.56649 -14.66667,-14.66667z" fill="url(#color-9)" stroke="#000000" stroke-linecap="butt"/><path d="M223.89815,192.21875l2.6,-26.73334c0,0 5.82767,-6.20201 9.48657,-7.1833c5.90937,-1.58484 10.1801,9.7833 10.1801,9.7833c0,0 8.33496,5.32289 10.02583,8.61372c2.26963,4.41723 2.37417,15.51962 2.37417,15.51962c0,0 -9.96966,11.4 -15.93334,11.4c-5.56415,0 -18.73333,-11.4 -18.73333,-11.4z" fill="url(#color-10)" stroke="none" stroke-linecap="butt"/><path d="M242.51912,224.42757l-18.50701,-174.71829c0,0 -0.3616,-2.99239 3.36559,-3.62367c3.71935,-0.62995 3.9079,2.90052 3.9079,2.90052l18.61888,175.18924c0,0 0.8843,2.704 -3.19481,2.98434c-3.77755,0.2596 -4.19056,-2.73213 -4.19056,-2.73213z" fill="#5d5f60" stroke="none" stroke-linecap="butt"/><path d="M241.56229,215.3944l-1.29359,-12.21231l7.27626,-1.20801l1.30009,12.23284z" fill="url(#color-11)" stroke="none" stroke-linecap="butt"/><path d="M240.29776,203.45647l-5.04245,-47.60402l8.43891,9.88914l3.91542,36.84112z" fill="#332626" stroke="none" stroke-linecap="butt"/><path d="M227.57245,82.87855l-1.5943,-15.4562l7.25974,-0.94358l1.63235,15.77103z" fill="url(#color-12)" stroke="none" stroke-linecap="butt"/><path d="M248.47274,144.22399l-103.62612,-79.64356c0,0 -2.41449,-1.80427 -0.29802,-4.93653c2.11201,-3.12566 4.7963,-0.82472 4.7963,-0.82472l104.04406,79.88776c0,0 2.56671,1.22704 -0.0466,4.3716c-2.42012,2.9121 -4.86962,1.14546 -4.86962,1.14546z" fill="#5d5f60" stroke="none" stroke-linecap="butt"/><path d="M197.75163,105.24145l-14.81844,-11.38896l3.9327,-6.2237l14.73455,11.57827z" fill="url(#color-13)" stroke="none" stroke-linecap="butt"/><path d="M175.83999,140.34617c0,-33.30185 28.7599,-60.29833 64.23702,-60.29833c35.47712,0 64.23702,26.99649 64.23702,60.29833c0,33.30185 -32.02588,63.73352 -63.98702,64.79833c-24.97452,0.83204 -64.48702,-31.49649 -64.48702,-64.79833zM242.86491,202.62721c5.52285,0 12.58334,-17.47715 12.58334,-23c0,-2.64974 -5.7836,-5.87385 -10.41387,-9.89851c-5.02059,-4.36394 -8.91947,-9.43482 -8.91947,-9.43482c0,0 -8.66666,15.06049 -8.66666,20.58334c0,5.52285 4.89381,21.75 15.41666,21.75z" fill="url(#color-14)" stroke="#000000" stroke-linecap="butt"/><path d="M196.98334,173.4868c-1.97987,0.2087 -2.06558,-6.31866 -2.59492,-10.23577c-0.66268,-4.9038 -1.07174,-16.89756 -1.07174,-16.89756h36.4c0,0 -5.18578,15.84705 -6.20614,22.92893c-1.03499,7.18335 -0.02168,10.67525 -2.12719,10.7044c-0.86837,0.01202 -1.82876,-5.19987 -2.41587,-10.47788c-0.61767,-5.55265 -0.85781,-11.19626 -1.62156,-11.64665c-0.89622,-0.52851 -3.43604,6.38832 -4.28614,13.51807c-0.86811,7.28079 -0.05264,14.78361 -1.57521,14.80662c-1.95124,0.02948 -2.85822,-7.51725 -3.00706,-14.66068c-0.11241,-5.39515 0.63723,-10.56027 -0.73598,-12.05765c-1.85188,-2.01933 -2.70466,7.06293 -5.84064,7.09728c-4.38003,0.04799 -2.38928,6.65439 -4.91754,6.92089z" fill="url(#color-15)" stroke="none" stroke-linecap="butt"/><path d="M189.3902,140.27564c0,-12.968 10.51265,-23.48065 23.48065,-23.48065c12.968,0 23.48065,10.51265 23.48065,23.48065c0,12.968 -10.51265,23.48065 -23.48065,23.48065c-12.968,0 -23.48065,-10.51265 -23.48065,-23.48065z" fill="url(#color-16)" stroke="#000000" stroke-linecap="butt"/><path d="M197.45559,142.75c0,-9.12808 7.39976,-16.52784 16.52783,-16.52784c9.12808,0 16.52784,7.39977 16.52784,16.52784c0,9.12808 -7.39977,16.52784 -16.52784,16.52784c-9.12808,0 -16.52783,-7.39977 -16.52783,-16.52784z" fill="#000000" stroke="none" stroke-linecap="butt"/><path d="M266.46261,163.75627c-12.968,0 -23.48065,-10.51265 -23.48065,-23.48065c0,-12.968 10.51265,-23.48065 23.48065,-23.48065c12.968,0 23.48065,10.51265 23.48065,23.48065c0,12.968 -10.51265,23.48065 -23.48065,23.48065z" data-paper-data="{&quot;index&quot;:null}" fill="url(#color-17)" stroke="#000000" stroke-linecap="butt"/><path d="M202.02787,111.46717c0,0 6.70895,-5.16922 11.79721,-6.36355c5.08827,-1.19433 12.33413,0.69937 12.33413,0.69937c0,0 -8.03812,-0.06028 -11.96762,0.86207c-4.10648,0.96389 -12.16372,4.80211 -12.16372,4.80211z" fill="#000000" stroke="none" stroke-linecap="butt"/><path d="M265.96236,106.66507c-3.9295,-0.92235 -11.96762,-0.86207 -11.96762,-0.86207c0,0 7.24586,-1.8937 12.33413,-0.69937c5.08826,1.19433 11.79721,6.36355 11.79721,6.36355c0,0 -8.05724,-3.83822 -12.16372,-4.80211z" data-paper-data="{&quot;index&quot;:null}" fill="#000000" stroke="none" stroke-linecap="butt"/><path d="M236.07217,86.11019c0,0 -0.31681,-11.18942 4.28605,-18.88927c6.639,-11.106 14.33538,-7.43386 14.33538,-7.43386c0,0 -6.65329,6.79884 -8.98204,11.06679c-2.20558,4.04221 -2.19806,16.53467 -2.19806,16.53467" fill="url(#color-18)" stroke="#000000" stroke-linecap="round"/><path d="M263.87095,137.07387l52.72922,-20.42016c0,0 4.01644,0.1611 4.76715,2.0404c0.75071,1.8793 -2.00835,4.86589 -2.00835,4.86589l-55.3306,21.42759c0,0 -1.59925,0.17478 -1.85269,-3.60319c-0.26954,-4.01796 1.69527,-4.31053 1.69527,-4.31053z" fill="#5d5f60" stroke="none" stroke-linecap="butt"/><path d="M263.87095,137.07387l9.69053,-3.7528c0,0 -0.49068,2.64846 -0.18258,3.64565c0.40078,1.29716 2.38319,3.47681 2.38319,3.47681l-11.73372,4.54406c0,0 -1.59925,0.17478 -1.85269,-3.60319c-0.26954,-4.01796 1.69527,-4.31053 1.69527,-4.31053z" fill="url(#color-19)" stroke="none" stroke-linecap="butt"/><path d="M312.96261,147.40626c-12.968,0 -23.48065,-10.51265 -23.48065,-23.48065c0,-12.968 10.51265,-23.48065 23.48065,-23.48065c12.968,0 23.48065,10.51265 23.48065,23.48065c0,12.968 -10.51265,23.48065 -23.48065,23.48065z" data-paper-data="{&quot;index&quot;:null}" fill="url(#color-20)" stroke="#000000" stroke-linecap="butt"/><path d="M318.01671,137.17783c-9.12807,0 -16.52783,-7.39977 -16.52783,-16.52784c0,-9.12808 7.39977,-16.52784 16.52783,-16.52784c9.12807,0 16.52783,7.39977 16.52783,16.52784c0,9.12808 -7.39977,16.52784 -16.52783,16.52784z" data-paper-data="{&quot;index&quot;:null}" fill="#000000" stroke="none" stroke-linecap="butt"/><path d="M315.38745,117.12336l32.57018,-12.61328c0,0 1.79147,-0.38127 2.18602,3.43653c0.42731,4.13474 -2.0286,4.47719 -2.0286,4.47719l-29.8391,11.55563c0,0 -3.39911,-0.59408 -4.17527,-2.43637c-0.77616,-1.8423 1.28678,-4.4197 1.28678,-4.4197z" fill="#5d5f60" stroke="none" stroke-linecap="butt"/><path d="M315.38745,117.12336l10.5866,-4.09982c0,0 -0.19186,2.70239 0.13975,3.71386c0.42043,1.28238 2.18023,3.36238 2.18023,3.36238l-10.01807,3.87965c0,0 -3.39911,-0.59408 -4.17527,-2.43637c-0.77616,-1.8423 1.28678,-4.4197 1.28678,-4.4197z" fill="url(#color-21)" stroke="none" stroke-linecap="butt"/><path d="M192.59128,110.16518c-3.59844,-0.21645 -3.85714,-6.85714 -3.85714,-6.85714c0,0 2.65723,-4.31518 4.31681,-5.80641c1.62542,-1.46052 5.54033,-3.62217 5.54033,-3.62217c0,0 4.38738,7.42606 1.31484,8.29516c-1.88292,0.5326 0.12064,17.22971 -2.45769,17.27627c-2.42902,0.04386 -2.56506,-9.14784 -4.85715,-9.28571z" fill="url(#color-22)" stroke="none" stroke-linecap="butt"/></g></g></g></svg>