<svg version="1.1" xmlns="http://www.w3.org/2000/svg" xmlns:xlink="http://www.w3.org/1999/xlink" width="144.18749" height="298.8048" viewBox="0,0,144.18749,298.8048"><defs><linearGradient x1="194.30184" y1="8.69521" x2="194.30184" y2="115.4242" gradientUnits="userSpaceOnUse" id="color-1"><stop offset="0" stop-color="#000000"/><stop offset="1" stop-color="#4c2646"/></linearGradient><linearGradient x1="240.00004" y1="175.50005" x2="240.00004" y2="307.50005" gradientUnits="userSpaceOnUse" id="color-2"><stop offset="0" stop-color="#000000"/><stop offset="1" stop-color="#65325d"/></linearGradient><linearGradient x1="285.79254" y1="8.69521" x2="285.79254" y2="115.4242" gradientUnits="userSpaceOnUse" id="color-3"><stop offset="0" stop-color="#000000"/><stop offset="1" stop-color="#4c2647"/></linearGradient><linearGradient x1="238.98174" y1="76.59547" x2="238.98174" y2="197.19214" gradientUnits="userSpaceOnUse" id="color-4"><stop offset="0" stop-color="#1b0d19"/><stop offset="1" stop-color="#804076"/></linearGradient><linearGradient x1="223.63919" y1="64.73647" x2="223.63919" y2="87.45451" gradientUnits="userSpaceOnUse" id="color-5"><stop offset="0" stop-color="#33002b"/><stop offset="1" stop-color="#990085"/></linearGradient><linearGradient x1="258.13918" y1="64.73646" x2="258.13918" y2="87.45448" gradientUnits="userSpaceOnUse" id="color-6"><stop offset="0" stop-color="#33002b"/><stop offset="1" stop-color="#990085"/></linearGradient><linearGradient x1="240.75694" y1="68.94267" x2="240.75694" y2="84.44267" gradientUnits="userSpaceOnUse" id="color-7"><stop offset="0" stop-color="#1a0016"/><stop offset="1" stop-color="#80006e"/></linearGradient><linearGradient x1="279.98516" y1="65.83202" x2="279.98516" y2="158.97475" gradientUnits="userSpaceOnUse" id="color-8"><stop offset="0" stop-color="#1a0d17"/><stop offset="1" stop-color="#66335d"/></linearGradient><linearGradient x1="247.47485" y1="67.832" x2="247.47485" y2="187.99464" gradientUnits="userSpaceOnUse" id="color-9"><stop offset="0" stop-color="#4c0000"/><stop offset="1" stop-color="#650000"/></linearGradient><radialGradient cx="245.35879" cy="128.53946" r="34.54447" gradientUnits="userSpaceOnUse" id="color-10"><stop offset="0" stop-color="#330000"/><stop offset="1" stop-color="#330000" stop-opacity="0"/></radialGradient><radialGradient cx="216.20415" cy="136.27567" r="23.48065" gradientUnits="userSpaceOnUse" id="color-11"><stop offset="0" stop-color="#808080"/><stop offset="1" stop-color="#804040"/></radialGradient><radialGradient cx="273.7126" cy="125.60899" r="23.48065" gradientUnits="userSpaceOnUse" id="color-12"><stop offset="0" stop-color="#808080"/><stop offset="1" stop-color="#804040"/></radialGradient><linearGradient x1="239.61555" y1="186.80157" x2="242.18715" y2="179.16218" gradientUnits="userSpaceOnUse" id="color-13"><stop offset="0" stop-color="#4d4d4d"/><stop offset="1" stop-color="#808080"/></linearGradient><linearGradient x1="258.27625" y1="163.73146" x2="263.87875" y2="173.50792" gradientUnits="userSpaceOnUse" id="color-14"><stop offset="0" stop-color="#4d4d4d"/><stop offset="1" stop-color="#808080"/></linearGradient><linearGradient x1="277.03786" y1="152.19947" x2="279.6762" y2="161.03107" gradientUnits="userSpaceOnUse" id="color-15"><stop offset="0" stop-color="#4d4d4d"/><stop offset="1" stop-color="#808080"/></linearGradient></defs><g transform="translate(-171.78038,-8.69525)"><g data-paper-data="{&quot;isPaintingLayer&quot;:true}" fill-rule="nonzero" stroke-width="0" stroke-linejoin="miter" stroke-miterlimit="10" stroke-dasharray="" stroke-dashoffset="0" style="mix-blend-mode: normal"><path d="M184.08626,115.4242c0,0 -29.34739,-102.91997 2.59948,-106.60088c32.62921,-3.75954 30.09158,76.49985 30.09158,76.49985" fill="url(#color-1)" stroke="none" stroke-linecap="round"/><path d="M206.75005,307.50004l15.14285,-131.8421l37.78325,-0.15789l13.57389,132z" fill="url(#color-2)" stroke="none" stroke-linecap="butt"/><path d="M263.31706,85.32317c0,0 -2.53764,-80.25939 30.09158,-76.49985c31.94687,3.68091 2.59948,106.60088 2.59948,106.60088" data-paper-data="{&quot;index&quot;:null}" fill="url(#color-3)" stroke="none" stroke-linecap="round"/><path d="M174.74472,136.8938c0,-33.30185 28.7599,-60.29833 64.23702,-60.29833c35.47712,0 64.23702,26.99649 64.23702,60.29833c0,33.30185 -28.7599,60.29833 -64.23702,60.29833c-35.47712,0 -64.23702,-26.99649 -64.23702,-60.29833z" fill="url(#color-4)" stroke="none" stroke-linecap="butt"/><g stroke="#000000" stroke-linecap="butt"><path d="M212.25694,85.43737c-3.15626,-7.04973 2.9828,-9.07336 2.9828,-9.07336c0,0 -4.78658,-2.16484 -3.4828,-8.86567c1.67551,-8.61136 24.16667,5.66496 24.16667,5.66496l-0.16667,7.55329c0,0 -20.59947,11.19933 -23.5,4.72079z" fill="url(#color-5)"/><path d="M246.02144,80.71658l-0.16667,-7.55329c0,0 22.49115,-14.27632 24.16666,-5.66496c1.30378,6.70083 -3.4828,8.86567 -3.4828,8.86567c0,0 6.13906,2.02363 2.9828,9.07336c-2.90053,6.47853 -23.5,-4.72079 -23.5,-4.72079z" data-paper-data="{&quot;index&quot;:null}" fill="url(#color-6)"/><path d="M233.00694,76.69267c0,-4.2802 3.4698,-7.75 7.75,-7.75c4.2802,0 7.75,3.4698 7.75,7.75c0,4.2802 -3.4698,7.75 -7.75,7.75c-4.2802,0 -7.75,-3.4698 -7.75,-7.75z" fill="url(#color-7)"/></g><path d="M244.00245,94.73907l19.53378,-17.59101l5.80071,3.93647l16.10599,-15.25251l5.14569,12.39543l19.79547,-8.13668l-8.31418,23.1903l13.89796,3.89318l-8.50785,16.01773l5.2428,15.32737l-10.05902,12.4777l-7.45298,17.9777l-4.3922,-2.81289z" fill="url(#color-8)" stroke="none" stroke-linecap="butt"/><path d="M218,170.16671c0,0 -4.98364,2.48578 -7.53564,3.41731c-2.63484,0.96177 -8.03283,2.26546 -8.03283,2.26546c0,0 2.81947,-6.58491 3.44686,-9.92771c0.5036,-2.6832 0.0284,-8.58876 0.0284,-8.58876c0,0 -7.18604,2.01736 -11.02796,1.39974c-3.53394,-0.56811 -11.1769,-4.96935 -11.1769,-4.96935c0,0 1.89996,-7.85567 3.33816,-11.0534c1.23404,-2.74379 4.77267,-6.98045 4.77267,-6.98045c0,0 -1.71979,-3.11215 -3.42014,-4.34004c-1.7099,-1.23478 -6.81078,-3.04809 -6.81078,-3.04809c0,0 6.4269,-8.51864 9.52001,-11.48911c3.15612,-3.03099 9.23149,-6.51894 9.23149,-6.51894l-4.92875,-2.08355c0,0 7.40307,-0.85563 9.9292,-1.78025c2.51454,-0.92037 5.19296,-3.75479 5.19296,-3.75479c0,0 3.10286,-5.53456 4.7161,-7.76054c1.31757,-1.818 4.25716,-4.62087 4.25716,-4.62087c0,0 -0.06868,2.76786 0.43563,4.26668c0.56172,1.66943 2.78108,5.29334 2.78108,5.29334c0,0 8.83572,-7.42323 12.50547,-9.7751c2.63456,-1.68844 7.4556,-3.01756 7.4556,-3.01756c0,0 -0.60319,3.38589 -0.38768,4.5006c0.24099,1.24656 1.76573,2.62751 1.76573,2.62751l19.48039,-15.48078l6.00071,4.13647l15.70599,-15.05251l4.74569,11.99543l17.79547,-7.53668l-7.91418,21.7903l13.49796,4.09318l-7.90785,15.21773l5.2428,14.52737l-9.45902,12.8777l-6.05298,18.1777l-4.3922,-2.81289l-16.05095,18.50285l-2.67024,-5.40777l-14.94612,18.7377l-3.96463,-8.16126l-28.48617,7.69746c0,0 -1.32664,-6.04745 -2.45916,-8.99113c-1.0929,-2.84069 -4.22135,-8.373 -4.22135,-8.373z" fill="url(#color-9)" stroke="none" stroke-linecap="butt"/><path d="M232.19428,163.08393l-14.86767,-58.64471l41.1967,-10.44423l14.86767,58.64471z" fill="url(#color-10)" stroke="none" stroke-linecap="butt"/><path d="M222.79774,161.48513c6.33447,-6.20801 14.9382,8.2038 28.46293,7.00697c9.63718,-0.85281 24.55704,-17.48375 32.67535,-17.85455c9.68247,-0.44225 7.02928,5.69097 7.02928,5.69097l-15.85095,20.90285l-2.67024,-5.20777l-15.54612,18.5377l-5.16463,-7.76126l-27.02903,4.58317c0,0 -0.65205,-4.71503 -1.7917,-8.08666c-1.08444,-3.20829 -5.5359,-12.49864 -0.11489,-17.81143z" fill="#190000" stroke="none" stroke-linecap="butt"/><path d="M192.7235,136.27567c0,-12.968 10.51265,-23.48065 23.48065,-23.48065c12.968,0 23.48065,10.51265 23.48065,23.48065c0,12.968 -10.51265,23.48065 -23.48065,23.48065c-12.968,0 -23.48065,-10.51265 -23.48065,-23.48065z" fill="url(#color-11)" stroke="none" stroke-linecap="butt"/><path d="M209.37223,138.6667c0,-3.97342 3.22109,-7.19451 7.1945,-7.19451c3.97342,0 7.19451,3.22109 7.19451,7.19451c0,3.97342 -3.22108,7.19451 -7.19451,7.19451c-3.97342,0 -7.1945,-3.22109 -7.1945,-7.19451z" fill="#000000" stroke="none" stroke-linecap="butt"/><path d="M273.7126,149.08963c-12.968,0 -23.48065,-10.51265 -23.48065,-23.48065c0,-12.968 10.51265,-23.48065 23.48065,-23.48065c12.968,0 23.48065,10.51265 23.48065,23.48065c0,12.968 -10.51265,23.48065 -23.48065,23.48065z" data-paper-data="{&quot;index&quot;:null}" fill="url(#color-12)" stroke="none" stroke-linecap="butt"/><path d="M277.10004,132.19454c-3.32908,0 -6.02783,-2.69875 -6.02783,-6.02783c0,-3.32908 2.69875,-6.02783 6.02783,-6.02783c3.32908,0 6.02783,2.69875 6.02783,6.02783c0,3.32908 -2.69875,6.02783 -6.02783,6.02783z" data-paper-data="{&quot;index&quot;:null}" fill="#000000" stroke="none" stroke-linecap="butt"/><path d="M243.00737,163.71937c0,0 -1.05861,-3.86162 -1.33173,-5.9941c-0.26511,-2.06995 2.96634,-7.1188 2.96634,-7.1188l7.04843,11.45362c0,0 -2.58835,1.43579 -3.69192,1.62722c-1.12375,0.19493 -4.99112,0.03206 -4.99112,0.03206z" fill="#190000" stroke="none" stroke-linecap="butt"/><path d="M261.16668,158.7226c-1.25804,1.52113 -7.44805,1.32267 -7.44805,1.32267l-6.55249,-11.74997c0,0 5.85371,2.81815 7.76149,3.66394c1.96542,0.87133 9.61326,1.73969 9.61326,1.73969c0,0 -2.11617,3.50254 -3.37421,5.02367z" data-paper-data="{&quot;index&quot;:null}" fill="#190000" stroke="none" stroke-linecap="butt"/><path d="M244.59959,179.97427c0,0 -0.63568,2.16778 -1.61248,4.10465c-0.0905,0.17945 -4.8839,1.06185 -4.90709,0.86833c-0.30596,-2.5536 1.6947,-6.59715 1.6947,-6.59715z" fill="url(#color-13)" stroke="none" stroke-linecap="butt"/><path d="M260.79145,175.27713c0,0 -6.52451,-9.41897 -2.46027,-11.74802c4.06423,-2.32905 8.63488,8.2096 8.63488,8.2096z" fill="url(#color-14)" stroke="none" stroke-linecap="butt"/><path d="M276.88728,161.86423c0,0 -3.43935,-8.71887 0.23208,-9.81567c3.67143,-1.0968 5.34577,8.14935 5.34577,8.14935z" fill="url(#color-15)" stroke="none" stroke-linecap="butt"/></g></g></svg>