<svg version="1.1" xmlns="http://www.w3.org/2000/svg" xmlns:xlink="http://www.w3.org/1999/xlink" width="35.125" height="35.12434" viewBox="0,0,35.125,35.12434"><g transform="translate(-222.43752,-162.43783)"><g data-paper-data="{&quot;isPaintingLayer&quot;:true}" stroke-miterlimit="10" stroke-dasharray="" stroke-dashoffset="0" style="mix-blend-mode: normal"><path d="M257.56251,169.8317v20.49804c0,4.00745 -3.22497,7.23243 -7.23242,7.23243h-20.5c-3.66107,0 -6.66147,-2.69385 -7.1543,-6.21484c0.7952,3.03475 3.54108,5.26367 6.83204,5.26367h20.0332c3.9166,0 7.07032,-3.15372 7.07032,-7.07031v-20.03321c0,-3.2976 -2.23906,-6.0451 -5.28321,-6.83398c3.52994,0.48496 6.23438,3.49081 6.23438,7.15821z" fill-opacity="0.29839" fill="#000000" fill-rule="evenodd" stroke="none" stroke-width="4.54219" stroke-linecap="round" stroke-linejoin="round"/><path d="M229.50719,162.43783h20.03378c3.9166,0 7.06966,3.15307 7.06966,7.06966v20.03379c0,3.91659 -3.15307,7.06966 -7.06966,7.06966h-20.03378c-3.91659,0 -7.06967,-3.15307 -7.06967,-7.06966v-20.03379c0,-3.91659 3.15308,-7.06966 7.06967,-7.06966z" fill="#ffe900" fill-rule="evenodd" stroke="none" stroke-width="4.43922" stroke-linecap="round" stroke-linejoin="round"/><g fill-rule="nonzero" stroke="#000000" stroke-width="0.5" stroke-linecap="butt" stroke-linejoin="miter"><path d="M223.79728,179.5312c0,0 7.0888,-4.29364 9.82224,-6.85949c2.48809,-2.33553 5.91168,-7.90971 5.91168,-7.90971c0,0 3.14395,6.44268 5.72336,8.86394c2.66259,2.49933 10.01056,5.90526 10.01056,5.90526c0,0 -6.41595,3.22492 -8.9812,5.63288c-2.67481,2.5108 -6.75272,9.13631 -6.75272,9.13631c0,0 -3.32031,-6.52634 -5.90851,-8.95584c-2.65475,-2.49198 -9.82541,-5.81335 -9.82541,-5.81335z" fill="#ff6f00"/><path d="M228.40564,190.65676c0,0 1.97647,-8.04861 2.09498,-11.79577c0.10788,-3.41081 -1.41282,-9.77319 -1.41282,-9.77319c0,0 6.77877,2.33256 10.31477,2.22073c3.65003,-0.11544 11.25418,-2.90289 11.25418,-2.90289c0,0 -2.25639,6.81713 -2.36762,10.33372c-0.11597,3.66678 1.68545,11.23524 1.68545,11.23524c0,0 -6.96264,-2.26701 -10.51068,-2.15479c-3.6393,0.1151 -11.05828,2.83696 -11.05828,2.83696z" fill="#ff6f00"/><path d="M228.93696,179.5312c0,-5.44986 4.70657,-9.86785 10.51242,-9.86785c5.80585,0 10.51242,4.41799 10.51242,9.86785c0,5.44986 -4.70657,9.86785 -10.51242,9.86785c-5.80585,0 -10.51242,-4.41799 -10.51242,-9.86785z" fill="#ffe900"/></g></g></g></svg>