<svg version="1.1" xmlns="http://www.w3.org/2000/svg" xmlns:xlink="http://www.w3.org/1999/xlink" width="135.88809" height="267.22501" viewBox="0,0,135.88809,267.22501"><g transform="translate(-173.1673,-46.18751)"><g data-paper-data="{&quot;isPaintingLayer&quot;:true}" fill-rule="nonzero" stroke-linejoin="miter" stroke-miterlimit="10" stroke-dasharray="" stroke-dashoffset="0" style="mix-blend-mode: normal"><path d="M179.28372,313.41252v-267.22501h123.18203v267.22501z" fill-opacity="0.01" fill="#000000" stroke="none" stroke-width="0" stroke-linecap="butt"/><path d="M206.75,307.5l15.14285,-131.8421l37.78325,-0.15789l13.57389,132z" fill="#808080" stroke="#000000" stroke-width="2" stroke-linecap="butt"/><path d="M219.70025,204.11264l3.12142,-26.32765l35.83075,-0.14203l2.76735,26.1059c0,0 -7.51543,4.19603 -21.55904,4.50964c-12.48458,0.27879 -20.16049,-4.14586 -20.16049,-4.14586z" fill="#666666" stroke="#000000" stroke-width="0" stroke-linecap="butt"/><g><path d="M260.51557,109.83254c5.46155,-10.97257 47.52788,-43.14966 47.52788,-43.14966c0,0 -0.31068,52.96077 -5.77223,63.93335c-5.46155,10.97257 -19.23634,15.21501 -30.76684,9.47576c-11.5305,-5.73925 -16.45036,-19.28687 -10.98881,-30.25944z" data-paper-data="{&quot;index&quot;:null}" fill="#666666" stroke="#000000" stroke-width="2" stroke-linecap="butt"/><path d="M208.55438,140.56156c-11.70419,5.37618 -25.3397,0.70542 -30.45575,-10.43244c-5.11605,-11.13786 -3.77182,-64.08248 -3.77182,-64.08248c0,0 41.04042,33.47573 46.15647,44.61359c5.11605,11.13786 -0.2247,24.52515 -11.92889,29.90132z" data-paper-data="{&quot;index&quot;:null}" fill="#666666" stroke="#000000" stroke-width="2" stroke-linecap="butt"/><path d="M175.76298,140c0,-33.30185 28.7599,-60.29833 64.23702,-60.29833c35.47713,0 64.23702,26.99648 64.23702,60.29833c0,13.26154 -3.22743,25.52317 -10.95697,35.47823c-11.68057,15.0437 -31.9307,23.57011 -53.28005,23.57011c-21.82155,0 -42.43509,-8.96367 -54.04443,-24.57601c-7.26494,-9.76995 -10.19259,-21.65405 -10.19259,-34.47233z" fill="#808080" stroke="#000000" stroke-width="2" stroke-linecap="butt"/><path d="M189.39012,141.52563c0,-12.96801 10.51265,-23.48065 23.48066,-23.48065c12.96801,0 23.48065,10.51264 23.48065,23.48065c0,12.96801 -10.51264,23.48066 -23.48065,23.48066c-12.96801,0 -23.48066,-10.51265 -23.48066,-23.48066z" fill="#000000" stroke="#000000" stroke-width="2" stroke-linecap="butt"/><path d="M189.39012,140.27563c0,-12.96801 10.51265,-23.48065 23.48066,-23.48065c12.96801,0 23.48065,10.51264 23.48065,23.48065c0,12.96801 -10.51264,23.48066 -23.48065,23.48066c-12.96801,0 -23.48066,-10.51265 -23.48066,-23.48066z" fill="#ffffff" stroke="#000000" stroke-width="2" stroke-linecap="butt"/><path d="M196.25552,140c0,-9.12807 7.39976,-16.52784 16.52783,-16.52784c9.12807,0 16.52784,7.39977 16.52784,16.52785c0,9.12807 -7.39977,16.52785 -16.52784,16.52785c-9.12807,0 -16.52783,-7.39977 -16.52783,-16.52785z" fill="#1a1a1a" stroke="none" stroke-width="0" stroke-linecap="butt"/><path d="M203.85552,140c0,-4.93071 3.99713,-8.92784 8.92784,-8.92784c4.93071,0 8.92784,3.99713 8.92784,8.92785c0,4.93071 -3.99713,8.92785 -8.92784,8.92785c-4.93071,0 -8.92784,-3.99714 -8.92784,-8.92785z" fill="#ffffff" stroke="none" stroke-width="0" stroke-linecap="butt"/><path d="M263.31659,179.65644h-45.9596" fill="none" stroke="#000000" stroke-width="0.5" stroke-linecap="round"/><path d="M189.64012,140.52563c0,-12.96801 10.51265,-23.48065 23.48066,-23.48065c12.96801,0 23.48065,10.51264 23.48065,23.48065c0,0 -12.37529,0.64039 -24.09973,0.79454c-11.75617,0.15456 -22.86157,-0.17793 -22.86157,-0.79454z" fill="#000000" stroke="#000000" stroke-width="2" stroke-linecap="butt"/><path d="M267.12922,165.00629c-12.96801,0 -23.48065,-10.51265 -23.48065,-23.48066c0,-12.96801 10.51264,-23.48065 23.48065,-23.48065c12.96801,0 23.48066,10.51264 23.48066,23.48065c0,12.96801 -10.51265,23.48066 -23.48066,23.48066z" data-paper-data="{&quot;index&quot;:null}" fill="#000000" stroke="#000000" stroke-width="2" stroke-linecap="butt"/><path d="M267.12922,163.75629c-12.96801,0 -23.48065,-10.51265 -23.48065,-23.48066c0,-12.96801 10.51264,-23.48065 23.48065,-23.48065c12.96801,0 23.48066,10.51264 23.48066,23.48065c0,12.96801 -10.51265,23.48066 -23.48066,23.48066z" data-paper-data="{&quot;index&quot;:null}" fill="#ffffff" stroke="#000000" stroke-width="2" stroke-linecap="butt"/><path d="M283.74448,140c0,9.12808 -7.39976,16.52785 -16.52783,16.52785c-9.12807,0 -16.52784,-7.39978 -16.52784,-16.52785c0,-9.12808 7.39977,-16.52785 16.52784,-16.52785c9.12807,0 16.52783,7.39977 16.52783,16.52784z" data-paper-data="{&quot;index&quot;:null}" fill="#1a1a1a" stroke="none" stroke-width="0" stroke-linecap="butt"/><path d="M276.14448,140c0,4.93071 -3.99712,8.92785 -8.92783,8.92785c-4.93071,0 -8.92784,-3.99714 -8.92784,-8.92785c0,-4.93071 3.99714,-8.92785 8.92784,-8.92785c4.93071,0 8.92783,3.99713 8.92783,8.92784z" data-paper-data="{&quot;index&quot;:null}" fill="#ffffff" stroke="none" stroke-width="0" stroke-linecap="butt"/><path d="M243.64857,140.02563c0,-12.96801 10.51264,-23.48065 23.48065,-23.48065c12.96801,0 23.48066,10.51264 23.48066,23.48065c0,0.60606 -12.03941,0.94895 -23.59162,0.80233c-11.92261,-0.15132 -23.36969,-0.80233 -23.36969,-0.80233z" data-paper-data="{&quot;index&quot;:null}" fill="#000000" stroke="#000000" stroke-width="2" stroke-linecap="butt"/><path d="M201.48598,106.71564c0,0 8.14697,-2.31467 13.31552,-1.53816c5.16855,0.7765 11.19657,5.22078 11.19657,5.22078c0,0 -7.44336,-3.03503 -11.43487,-3.6347c-4.17127,-0.62667 -13.07724,-0.04792 -13.07724,-0.04792z" fill="#000000" stroke="none" stroke-width="0" stroke-linecap="butt"/><path d="M265.59083,106.77738c-3.97882,0.67877 -11.36047,3.86094 -11.36047,3.86094c0,0 5.93863,-4.56303 11.09075,-5.44197c5.15211,-0.87894 13.34342,1.27358 13.34342,1.27358c0,0 -8.91569,-0.40188 -13.07371,0.30746z" data-paper-data="{&quot;index&quot;:null}" fill="#000000" stroke="none" stroke-width="0" stroke-linecap="butt"/><g fill="#000000" stroke="none" stroke-width="0.5" stroke-linecap="butt"><path d="M191.92222,166.91643c0,-0.41421 0.33579,-0.75 0.75,-0.75c0.41421,0 0.75,0.33579 0.75,0.75c0,0.41421 -0.33579,0.75 -0.75,0.75c-0.41421,0 -0.75,-0.33579 -0.75,-0.75z"/><path d="M202.72222,171.31643c0,-0.41421 0.33579,-0.75 0.75,-0.75c0.41421,0 0.75,0.33579 0.75,0.75c0,0.41421 -0.33579,0.75 -0.75,0.75c-0.41421,0 -0.75,-0.33579 -0.75,-0.75z"/><path d="M196.52222,176.11643c0,-0.41421 0.33579,-0.75 0.75,-0.75c0.41421,0 0.75,0.33579 0.75,0.75c0,0.41421 -0.33579,0.75 -0.75,0.75c-0.41421,0 -0.75,-0.33579 -0.75,-0.75z"/></g><g fill="#000000" stroke="none" stroke-width="0.5" stroke-linecap="butt"><path d="M287.32779,167.66643c-0.41422,0 -0.75,-0.33578 -0.75,-0.75c0,-0.41422 0.33578,-0.75 0.75,-0.75c0.41422,0 0.75,0.33578 0.75,0.75c0,0.41422 -0.33578,0.75 -0.75,0.75z" data-paper-data="{&quot;index&quot;:null}"/><path d="M276.52779,172.06643c-0.41422,0 -0.75,-0.33578 -0.75,-0.75c0,-0.41422 0.33578,-0.75 0.75,-0.75c0.41422,0 0.75,0.33578 0.75,0.75c0,0.41422 -0.33578,0.75 -0.75,0.75z" data-paper-data="{&quot;index&quot;:null}"/><path d="M282.72778,176.86643c-0.41422,0 -0.75,-0.33578 -0.75,-0.75c0,-0.41422 0.33578,-0.75 0.75,-0.75c0.41422,0 0.75,0.33578 0.75,0.75c0,0.41422 -0.33578,0.75 -0.75,0.75z" data-paper-data="{&quot;index&quot;:null}"/></g><path d="M176.56301,139.9c0,-0.72799 5.20666,54.91939 63.36046,55.93429c55.56352,0.9697 63.51358,-56.95314 63.51358,-55.93429c0,32.80479 -23.20348,57.94836 -63.43702,58.39833c-40.03478,0.44775 -63.43702,-25.59354 -63.43702,-58.39833z" fill="#666666" stroke="#000000" stroke-width="0" stroke-linecap="butt"/></g></g></g></svg>