<svg version="1.1" xmlns="http://www.w3.org/2000/svg" xmlns:xlink="http://www.w3.org/1999/xlink" width="189.80947" height="267.22501" viewBox="0,0,189.80947,267.22501"><g transform="translate(-136.75804,-46.38752)"><g data-paper-data="{&quot;isPaintingLayer&quot;:true}" fill-rule="nonzero" stroke-linecap="butt" stroke-linejoin="miter" stroke-miterlimit="10" stroke-dasharray="" stroke-dashoffset="0" style="mix-blend-mode: normal"><path d="M179.28373,313.61253v-267.22501h123.18203v267.22501z" fill-opacity="0.01" fill="#000000" stroke="none" stroke-width="0"/><g><path d="M138.77789,167.69143c0,0 34.93698,-36.66207 46.95255,-56.16692c10.93705,-17.75406 22.21008,-56.1045 22.21008,-56.1045c0,0 28.84814,32.96582 47.93358,43.11857c19.70087,10.48014 68.48392,18.81129 68.48392,18.81129c0,0 -32.6786,29.28292 -43.95483,47.58759c-11.75783,19.08644 -25.2078,64.68383 -25.2078,64.68383c0,0 -30.02212,-33.17705 -49.17253,-43.36437c-19.64292,-10.44932 -67.24497,-18.56549 -67.24497,-18.56549z" fill="#ff6f00" stroke="#000000" stroke-width="2"/><path d="M183.7539,225.93156c0,0 -1.21983,-50.62817 -6.51554,-72.91648c-4.82036,-20.28767 -23.96698,-55.37677 -23.96698,-55.37677c0,0 43.70907,2.91164 64.3836,-3.40472c21.3412,-6.52003 61.72703,-35.12385 61.72703,-35.12385c0,0 -2.40111,43.81341 2.56875,64.73026c5.18211,21.81019 27.91377,63.56299 27.91377,63.56299c0,0 -44.68857,-2.23087 -65.43347,4.10699c-21.27843,6.50086 -60.67716,34.42159 -60.67716,34.42159z" fill="#ff6f00" stroke="#000000" stroke-width="2"/><path d="M169.0889,159.46909c-8.71857,-32.14031 11.97041,-65.72465 46.21013,-75.01272c34.23971,-9.28807 69.06429,9.23734 77.78286,41.37765c8.71857,32.14031 -11.97041,65.72465 -46.21013,75.01272c-34.23971,9.28807 -69.06429,-9.23734 -77.78286,-41.37765z" fill="#ffe900" stroke="#000000" stroke-width="2"/><path d="M206.92576,160.91768c-0.40088,-1.47781 53.69187,-16.72657 54.2381,-14.71295c3.81375,14.05909 -5.2362,28.74986 -20.21364,32.81273c-14.97743,4.06287 -30.21071,-4.04068 -34.02446,-18.09978z" fill="#000000" stroke="#000000" stroke-width="2"/><path d="M191.54138,143.23223c-1.62277,-5.98221 1.91125,-12.14725 7.89346,-13.77002c5.98222,-1.62277 12.14726,1.91125 13.77003,7.89345c1.62277,5.98221 -1.91126,12.14725 -7.89347,13.77002c-5.98222,1.62277 -12.14724,-1.91126 -13.77001,-7.89346z" fill="#000000" stroke="none" stroke-width="0"/><path d="M257.37328,136.65955c-5.80548,1.57483 -11.78841,-1.8548 -13.36324,-7.66028c-1.57483,-5.80549 1.8548,-11.78841 7.66028,-13.36324c5.80548,-1.57483 11.7884,1.8548 13.36323,7.66028c1.57483,5.80549 -1.85479,11.78842 -7.66027,13.36325z" data-paper-data="{&quot;index&quot;:null}" fill="#000000" stroke="none" stroke-width="0"/></g></g></g></svg>