<svg version="1.1" xmlns="http://www.w3.org/2000/svg" xmlns:xlink="http://www.w3.org/1999/xlink" width="149.82395" height="299.41517" viewBox="0,0,149.82395,299.41517"><defs><linearGradient x1="240.00005" y1="175.50005" x2="240.00005" y2="307.50005" gradientUnits="userSpaceOnUse" id="color-1"><stop offset="0" stop-color="#000000"/><stop offset="1" stop-color="#65325d"/></linearGradient><linearGradient x1="188.82397" y1="18.26342" x2="199.92131" y2="124.4139" gradientUnits="userSpaceOnUse" id="color-2"><stop offset="0" stop-color="#000000"/><stop offset="1" stop-color="#4c2646"/></linearGradient><linearGradient x1="279.81877" y1="8.7505" x2="290.91611" y2="114.90099" gradientUnits="userSpaceOnUse" id="color-3"><stop offset="0" stop-color="#000000"/><stop offset="1" stop-color="#4c2647"/></linearGradient><linearGradient x1="240.32175" y1="81.14996" x2="252.86102" y2="201.09296" gradientUnits="userSpaceOnUse" id="color-4"><stop offset="0" stop-color="#1b0d19"/><stop offset="1" stop-color="#804076"/></linearGradient><linearGradient x1="223.82929" y1="70.95051" x2="226.19145" y2="93.5454" gradientUnits="userSpaceOnUse" id="color-5"><stop offset="0" stop-color="#33002b"/><stop offset="1" stop-color="#990085"/></linearGradient><linearGradient x1="258.14229" y1="67.3633" x2="260.50444" y2="89.95818" gradientUnits="userSpaceOnUse" id="color-6"><stop offset="0" stop-color="#33002b"/><stop offset="1" stop-color="#990085"/></linearGradient><linearGradient x1="241.29161" y1="73.35405" x2="242.90325" y2="88.77004" gradientUnits="userSpaceOnUse" id="color-7"><stop offset="0" stop-color="#1a0016"/><stop offset="1" stop-color="#80006e"/></linearGradient><linearGradient x1="279.98377" y1="66.18145" x2="289.66846" y2="158.81931" gradientUnits="userSpaceOnUse" id="color-8"><stop offset="0" stop-color="#1a0d17"/><stop offset="1" stop-color="#66335d"/></linearGradient><linearGradient x1="247.85763" y1="71.5509" x2="260.35176" y2="191.06223" gradientUnits="userSpaceOnUse" id="color-9"><stop offset="0" stop-color="#4c0000"/><stop offset="1" stop-color="#650000"/></linearGradient><radialGradient cx="252.06521" cy="132.14933" r="34.54447" gradientUnits="userSpaceOnUse" id="color-10"><stop offset="0" stop-color="#330000"/><stop offset="1" stop-color="#330000" stop-opacity="0"/></radialGradient><radialGradient cx="223.87298" cy="142.87502" r="23.48065" gradientUnits="userSpaceOnUse" id="color-11"><stop offset="0" stop-color="#808080"/><stop offset="1" stop-color="#804040"/></radialGradient><radialGradient cx="279.96063" cy="126.28661" r="23.48065" gradientUnits="userSpaceOnUse" id="color-12"><stop offset="0" stop-color="#808080"/><stop offset="1" stop-color="#804040"/></radialGradient><linearGradient x1="252.41101" y1="190.69281" x2="254.17435" y2="182.82744" gradientUnits="userSpaceOnUse" id="color-13"><stop offset="0" stop-color="#4d4d4d"/><stop offset="1" stop-color="#808080"/></linearGradient><linearGradient x1="268.5718" y1="165.80746" x2="275.16047" y2="174.9484" gradientUnits="userSpaceOnUse" id="color-14"><stop offset="0" stop-color="#4d4d4d"/><stop offset="1" stop-color="#808080"/></linearGradient><linearGradient x1="286.03266" y1="152.38721" x2="289.57498" y2="160.89662" gradientUnits="userSpaceOnUse" id="color-15"><stop offset="0" stop-color="#4d4d4d"/><stop offset="1" stop-color="#808080"/></linearGradient></defs><g transform="translate(-169.21817,-8.08488)"><g data-paper-data="{&quot;isPaintingLayer&quot;:true}" fill-rule="nonzero" stroke-width="0" stroke-linejoin="miter" stroke-miterlimit="10" stroke-dasharray="" stroke-dashoffset="0" style="mix-blend-mode: normal"><path d="M206.75006,307.50004l15.14285,-131.8421l37.78325,-0.15789l13.57389,132z" fill="url(#color-1)" stroke="none" stroke-linecap="butt"/><g><path d="M189.76111,125.47608c0,0 -39.88962,-99.31067 -8.49863,-106.29336c32.06145,-7.13184 37.88269,72.95637 37.88269,72.95637" fill="url(#color-2)" stroke="none" stroke-linecap="round"/><path d="M265.43264,87.30004c0,0 -10.869,-79.56051 21.97426,-79.21403c32.15644,0.33922 13.66941,105.75279 13.66941,105.75279" data-paper-data="{&quot;index&quot;:null}" fill="url(#color-3)" stroke="none" stroke-linecap="round"/><path d="M182.70255,147.80062c-3.46263,-33.12135 22.33438,-62.96186 57.6192,-66.65066c35.28482,-3.6888 66.69584,20.171 70.15847,53.29234c3.46263,33.12135 -22.33438,62.96186 -57.6192,66.65066c-35.28482,3.6888 -66.69584,-20.171 -70.15847,-53.29234z" fill="url(#color-4)" stroke="none" stroke-linecap="butt"/><g stroke="#000000" stroke-linecap="butt"><path d="M214.66115,92.72269c-3.87216,-6.68334 2.02322,-9.33432 2.02322,-9.33432c0,0 -4.98573,-1.65541 -4.38575,-8.45548c0.77105,-8.7389 24.6247,3.12148 24.6247,3.12148l0.6196,7.52968c0,0 -19.32335,13.28049 -22.88177,7.13865z" fill="url(#color-5)"/><path d="M247.75179,84.51676l-0.95113,-7.49502c0,0 20.88484,-16.5375 23.44665,-8.14703c1.99344,6.52894 -2.5421,9.17975 -2.5421,9.17975c0,0 6.3162,1.37434 3.91005,8.71404c-2.21119,6.745 -23.86347,-2.25175 -23.86347,-2.25175z" data-paper-data="{&quot;index&quot;:null}" fill="url(#color-6)"/><path d="M234.38944,81.86787c-0.44505,-4.257 2.64517,-8.06877 6.90218,-8.51382c4.257,-0.44505 8.06877,2.64517 8.51382,6.90218c0.44505,4.257 -2.64517,8.06877 -6.90218,8.51382c-4.257,0.44505 -8.06877,-2.64517 -8.51382,-6.90218z" fill="url(#color-7)"/></g><path d="M247.20176,98.67318l17.59885,-19.52673l6.17857,3.312l14.43278,-16.84449l6.40664,11.79321l18.84215,-10.15084l-5.85786,23.92908l14.22742,2.42701l-6.79626,16.81553l6.80807,14.69916l-8.7071,13.45597l-5.54332,18.65519l-4.66087,-2.34096z" fill="url(#color-8)" stroke="none" stroke-linecap="butt"/><path d="M229.18298,176.39563c0,0 -4.69816,2.9905 -7.13947,4.18232c-2.52056,1.23052 -7.75374,3.08841 -7.75374,3.08841c0,0 2.1195,-6.84237 2.39592,-10.2323c0.22187,-2.72102 -0.86479,-8.54516 -0.86479,-8.54516c0,0 -6.93734,2.75361 -10.82265,2.5388c-3.57386,-0.19758 -11.63301,-3.78027 -11.63301,-3.78027c0,0 1.07286,-8.01064 2.17076,-11.34058c0.94206,-2.85723 4.021,-7.43886 4.021,-7.43886c0,0 -2.03406,-2.91646 -3.85287,-3.9609c-1.82902,-1.0503 -7.09079,-2.3234 -7.09079,-2.3234c0,0 5.50632,-9.14072 8.2738,-12.4167c2.82387,-3.34273 8.50364,-7.44347 8.50364,-7.44347l-5.11867,-1.55978c0,0 7.27398,-1.62074 9.69027,-2.80301c2.40521,-1.17684 4.7744,-4.27438 4.7744,-4.27438c0,0 2.51057,-5.82719 3.88362,-8.20884c1.12139,-1.94515 3.75363,-5.03847 3.75363,-5.03847c0,0 0.21948,2.76 0.8769,4.19825c0.73225,1.60198 3.31639,4.97549 3.31639,4.97549c0,0 8.01598,-8.3017 11.4213,-11.0224c2.44472,-1.95322 7.10144,-3.77641 7.10144,-3.77641c0,0 -0.24786,3.43025 0.08238,4.51652c0.3693,1.21474 2.02937,2.42967 2.02937,2.42967l17.76516,-17.42238l6.39828,3.49012l14.05575,-16.60398l5.96722,11.43697l16.91538,-9.34615l-5.60559,22.49508l13.85039,2.66752l-6.2827,15.95748l6.72489,13.9035l-8.06877,13.79141l-4.13011,18.70854l-4.66087,-2.34096l-14.04008,20.07148l-3.21805,-5.10081l-12.91682,20.19019l-4.79172,-7.7048l-27.53141,10.61764c0,0 -1.94825,-5.87673 -3.3807,-8.6867c-1.38234,-2.71166 -5.06906,-7.88869 -5.06906,-7.88869z" fill="url(#color-9)" stroke="none" stroke-linecap="butt"/><path d="M242.56388,167.87536l-20.88478,-56.78094l39.88744,-14.67113l20.88478,56.78095z" fill="url(#color-10)" stroke="none" stroke-linecap="butt"/><path d="M233.05203,167.26226c5.65465,-6.83299 15.71023,6.6061 29.03722,4.0095c9.49627,-1.85023 22.60603,-19.94234 30.64178,-21.15525c9.584,-1.4466 7.58291,4.92924 7.58291,4.92924l-13.59162,22.43769l-3.19726,-4.9019l-13.53436,20.05366l-5.94363,-7.18219l-26.40598,7.36872c0,0 -1.13877,-4.62168 -2.62281,-7.85654c-1.41215,-3.07815 -6.80546,-11.85529 -1.96625,-17.70294z" fill="#190000" stroke="none" stroke-linecap="butt"/><path d="M200.5196,145.31646c-1.34838,-12.89771 8.01422,-24.44645 20.91194,-25.79483c12.89771,-1.34838 24.44645,8.01422 25.79483,20.91194c1.34838,12.89771 -8.01422,24.44645 -20.91194,25.79483c-12.89771,1.34838 -24.44645,-8.01422 -25.79483,-20.91194z" fill="url(#color-11)" stroke="none" stroke-linecap="butt"/><path d="M218.66004,145.96345c-0.41315,-3.95189 2.45557,-7.49043 6.40744,-7.90357c3.95189,-0.41315 7.49043,2.45557 7.90357,6.40745c0.41315,3.95189 -2.45556,7.49043 -6.40745,7.90357c-3.95189,0.41315 -7.49042,-2.45557 -7.90356,-6.40745z" fill="#000000" stroke="none" stroke-linecap="butt"/><path d="M282.40208,149.63997c-12.89771,1.34838 -24.44645,-8.01422 -25.79483,-20.91194c-1.34838,-12.89771 8.01422,-24.44645 20.91194,-25.79483c12.89771,-1.34838 24.44645,8.01422 25.79483,20.91194c1.34838,12.89771 -8.01422,24.44645 -20.91194,25.79483z" data-paper-data="{&quot;index&quot;:null}" fill="url(#color-12)" stroke="none" stroke-linecap="butt"/><path d="M285.01445,132.48425c-3.31104,0.34615 -6.27577,-2.05737 -6.62191,-5.3684c-0.34615,-3.31104 2.05737,-6.27577 5.3684,-6.62191c3.31104,-0.34615 6.27577,2.05737 6.62191,5.3684c0.34615,3.31104 -2.05737,6.27577 -5.3684,6.62191z" data-paper-data="{&quot;index&quot;:null}" fill="#000000" stroke="none" stroke-linecap="butt"/><path d="M253.38443,167.38305c0,0 -1.45439,-3.73061 -1.94776,-5.82314c-0.4789,-2.03116 2.21008,-7.38864 2.21008,-7.38864l8.20114,10.65866c0,0 -2.42503,1.69714 -3.50272,2.00227c-1.09739,0.31072 -4.96073,0.55084 -4.96073,0.55084z" fill="#190000" stroke="none" stroke-linecap="butt"/><path d="M270.92575,160.52522c-1.09306,1.64369 -7.27015,2.08993 -7.27015,2.08993l-7.7387,-11.00497c0,0 6.115,2.19423 8.10039,2.83707c2.04537,0.66225 9.74204,0.73071 9.74204,0.73071c0,0 -1.74051,3.70359 -2.83357,5.34728z" data-paper-data="{&quot;index&quot;:null}" fill="#190000" stroke="none" stroke-linecap="butt"/><path d="M256.65815,183.38429c0,0 -0.40683,2.22213 -1.17695,4.25006c-0.07135,0.18789 -4.74702,1.5639 -4.79021,1.37385c-0.56982,-2.50795 0.99956,-6.7376 0.99956,-6.7376z" fill="url(#color-13)" stroke="none" stroke-linecap="butt"/><path d="M272.27386,177.02903c0,0 -7.4685,-8.68952 -3.66845,-11.42853c3.80004,-2.73901 9.44168,7.26727 9.44168,7.26727z" fill="url(#color-14)" stroke="none" stroke-linecap="butt"/><path d="M286.88781,162.01524c0,0 -4.32727,-8.314 -0.78978,-9.7866c3.53749,-1.4726 6.16414,7.54934 6.16414,7.54934z" fill="url(#color-15)" stroke="none" stroke-linecap="butt"/></g></g></g></svg>