<svg version="1.1" xmlns="http://www.w3.org/2000/svg" xmlns:xlink="http://www.w3.org/1999/xlink" width="148" height="287.83823" viewBox="0,0,148,287.83823"><defs><linearGradient x1="240.00007" y1="234.25214" x2="240.00007" y2="307.83335" gradientUnits="userSpaceOnUse" id="color-1"><stop offset="0" stop-color="#1a0000"/><stop offset="1" stop-color="#330000"/></linearGradient><linearGradient x1="240.00007" y1="175.50004" x2="240.00007" y2="307.50004" gradientUnits="userSpaceOnUse" id="color-2"><stop offset="0" stop-color="#000000"/><stop offset="1" stop-color="#426600"/></linearGradient><linearGradient x1="240.07699" y1="79.04784" x2="240.07699" y2="194.6445" gradientUnits="userSpaceOnUse" id="color-3"><stop offset="0" stop-color="#000000"/><stop offset="1" stop-color="#1a0000"/></linearGradient><linearGradient x1="271.15353" y1="166.84626" x2="271.15353" y2="173.59087" gradientUnits="userSpaceOnUse" id="color-4"><stop offset="0" stop-color="#4d4d4d"/><stop offset="1" stop-color="#808080"/></linearGradient><linearGradient x1="268.42704" y1="166.19691" x2="268.42704" y2="174.25754" gradientUnits="userSpaceOnUse" id="color-5"><stop offset="0" stop-color="#4d4d4d"/><stop offset="1" stop-color="#808080"/></linearGradient><linearGradient x1="264.42382" y1="165.70992" x2="264.42382" y2="174.75754" gradientUnits="userSpaceOnUse" id="color-6"><stop offset="0" stop-color="#4d4d4d"/><stop offset="1" stop-color="#808080"/></linearGradient><linearGradient x1="258.91846" y1="164.89823" x2="258.91846" y2="175.59087" gradientUnits="userSpaceOnUse" id="color-7"><stop offset="0" stop-color="#4d4d4d"/><stop offset="1" stop-color="#808080"/></linearGradient><linearGradient x1="245.41204" y1="164.09087" x2="245.41204" y2="176.75754" gradientUnits="userSpaceOnUse" id="color-8"><stop offset="0" stop-color="#4d4d4d"/><stop offset="1" stop-color="#808080"/></linearGradient><linearGradient x1="252.5253" y1="164.24888" x2="252.5253" y2="176.25754" gradientUnits="userSpaceOnUse" id="color-9"><stop offset="0" stop-color="#4d4d4d"/><stop offset="1" stop-color="#808080"/></linearGradient><linearGradient x1="212.04129" y1="166.6796" x2="212.04129" y2="173.4242" gradientUnits="userSpaceOnUse" id="color-10"><stop offset="0" stop-color="#4d4d4d"/><stop offset="1" stop-color="#808080"/></linearGradient><linearGradient x1="214.76778" y1="166.03025" x2="214.76778" y2="174.09087" gradientUnits="userSpaceOnUse" id="color-11"><stop offset="0" stop-color="#4d4d4d"/><stop offset="1" stop-color="#808080"/></linearGradient><linearGradient x1="218.771" y1="165.54325" x2="218.771" y2="174.59087" gradientUnits="userSpaceOnUse" id="color-12"><stop offset="0" stop-color="#4d4d4d"/><stop offset="1" stop-color="#808080"/></linearGradient><linearGradient x1="224.27636" y1="164.73155" x2="224.27636" y2="175.4242" gradientUnits="userSpaceOnUse" id="color-13"><stop offset="0" stop-color="#4d4d4d"/><stop offset="1" stop-color="#808080"/></linearGradient><linearGradient x1="237.78278" y1="163.9242" x2="237.78278" y2="176.59087" gradientUnits="userSpaceOnUse" id="color-14"><stop offset="0" stop-color="#4d4d4d"/><stop offset="1" stop-color="#808080"/></linearGradient><linearGradient x1="230.66952" y1="164.0822" x2="230.66952" y2="176.09087" gradientUnits="userSpaceOnUse" id="color-15"><stop offset="0" stop-color="#4d4d4d"/><stop offset="1" stop-color="#808080"/></linearGradient><linearGradient x1="268.32433" y1="182.12041" x2="268.32433" y2="176.06587" gradientUnits="userSpaceOnUse" id="color-16"><stop offset="0" stop-color="#4d4d4d"/><stop offset="1" stop-color="#808080"/></linearGradient><linearGradient x1="265.87679" y1="184.16206" x2="265.87679" y2="176.92616" gradientUnits="userSpaceOnUse" id="color-17"><stop offset="0" stop-color="#4d4d4d"/><stop offset="1" stop-color="#808080"/></linearGradient><linearGradient x1="262.28315" y1="185.60915" x2="262.28315" y2="177.48721" gradientUnits="userSpaceOnUse" id="color-18"><stop offset="0" stop-color="#4d4d4d"/><stop offset="1" stop-color="#808080"/></linearGradient><linearGradient x1="257.34106" y1="187.34769" x2="257.34106" y2="177.74903" gradientUnits="userSpaceOnUse" id="color-19"><stop offset="0" stop-color="#4d4d4d"/><stop offset="1" stop-color="#808080"/></linearGradient><linearGradient x1="245.21651" y1="190.09224" x2="245.21651" y2="178.72153" gradientUnits="userSpaceOnUse" id="color-20"><stop offset="0" stop-color="#4d4d4d"/><stop offset="1" stop-color="#808080"/></linearGradient><linearGradient x1="251.60199" y1="189.05271" x2="251.60199" y2="178.27269" gradientUnits="userSpaceOnUse" id="color-21"><stop offset="0" stop-color="#4d4d4d"/><stop offset="1" stop-color="#808080"/></linearGradient><linearGradient x1="215.03716" y1="182.12041" x2="215.03716" y2="176.06587" gradientUnits="userSpaceOnUse" id="color-22"><stop offset="0" stop-color="#4d4d4d"/><stop offset="1" stop-color="#808080"/></linearGradient><linearGradient x1="217.4847" y1="184.16206" x2="217.4847" y2="176.92616" gradientUnits="userSpaceOnUse" id="color-23"><stop offset="0" stop-color="#4d4d4d"/><stop offset="1" stop-color="#808080"/></linearGradient><linearGradient x1="221.07834" y1="185.60915" x2="221.07834" y2="177.48721" gradientUnits="userSpaceOnUse" id="color-24"><stop offset="0" stop-color="#4d4d4d"/><stop offset="1" stop-color="#808080"/></linearGradient><linearGradient x1="226.02043" y1="187.34769" x2="226.02043" y2="177.74903" gradientUnits="userSpaceOnUse" id="color-25"><stop offset="0" stop-color="#4d4d4d"/><stop offset="1" stop-color="#808080"/></linearGradient><linearGradient x1="238.14498" y1="190.09224" x2="238.14498" y2="178.72153" gradientUnits="userSpaceOnUse" id="color-26"><stop offset="0" stop-color="#4d4d4d"/><stop offset="1" stop-color="#808080"/></linearGradient><linearGradient x1="231.7595" y1="189.05271" x2="231.7595" y2="178.27269" gradientUnits="userSpaceOnUse" id="color-27"><stop offset="0" stop-color="#4d4d4d"/><stop offset="1" stop-color="#808080"/></linearGradient><linearGradient x1="240.07699" y1="76.54784" x2="240.07699" y2="197.14451" gradientUnits="userSpaceOnUse" id="color-28"><stop offset="0" stop-color="#111a00"/><stop offset="1" stop-color="#538000"/></linearGradient><linearGradient x1="242.89814" y1="25.77431" x2="242.89814" y2="146.77433" gradientUnits="userSpaceOnUse" id="color-29"><stop offset="0" stop-color="#000000"/><stop offset="1" stop-color="#324d00"/></linearGradient></defs><g transform="translate(-168.89814,-25.77428)"><g data-paper-data="{&quot;isPaintingLayer&quot;:true}" fill-rule="nonzero" stroke-linejoin="miter" stroke-miterlimit="10" stroke-dasharray="" stroke-dashoffset="0" style="mix-blend-mode: normal"><path d="M179.28375,313.61251v-267.22501h123.18203v267.22501z" fill-opacity="0.01" fill="#000000" stroke="none" stroke-width="0" stroke-linecap="butt"/><path d="M208.08341,307.83333l8.11234,-73.5812l48.55552,0.98938l7.16546,72.59183z" data-paper-data="{&quot;index&quot;:null}" fill="url(#color-1)" stroke="#000000" stroke-width="0" stroke-linecap="butt"/><path d="M211.71054,233.38739l10.18238,-57.72947l37.78325,-0.15789l8.66729,58.11186l0.65332,5.16028c0,0 -3.39972,-2.76518 -8.52575,-1.43368c-3.6132,0.93854 -6.50085,7.05588 -6.50085,7.05588c0,0 -3.22409,-6.32102 -11.05472,-5.60092c-7.61174,0.69998 -10.58945,6.29819 -10.58945,6.29819c0,0 -0.4742,-7.12314 -5.41843,-8.80255c-5.67753,-1.92849 -15.01279,3.47861 -15.01279,3.47861z" fill="url(#color-2)" stroke="#000000" stroke-width="0" stroke-linecap="butt"/><path d="M293.16794,166.13977c-10.7049,17.05821 -30.47388,28.50473 -53.09095,28.50473c-23.55237,0 -44.01621,-12.4128 -54.37207,-30.64935c-4.5965,-8.09439 107.46302,2.14463 107.46302,2.14463z" fill="url(#color-3)" stroke="#000000" stroke-width="0" stroke-linecap="butt"/><path d="M214.53889,180.33125l-2.8,-11h60.4l-3,11.2z" fill="#000000" stroke="none" stroke-width="0" stroke-linecap="butt"/><g stroke="none" stroke-width="0" stroke-linecap="butt"><g><path d="M269.02368,173.59087c0,0 -0.58522,-6.83333 2.21862,-6.83333c2.80383,0 2.04112,6.83333 2.04112,6.83333z" fill="url(#color-4)"/><path d="M265.88158,174.25754c0,0 -0.69941,-8.16667 2.65152,-8.16667c3.35092,0 2.43939,8.16667 2.43939,8.16667z" fill="url(#color-5)"/><path d="M261.56667,174.75754c0,0 -0.78505,-9.16667 2.97619,-9.16667c3.76124,0 2.73809,9.16667 2.73809,9.16667z" fill="url(#color-6)"/><path d="M255.54185,175.59087c0,0 -0.92778,-10.83333 3.51732,-10.83333c4.4451,0 3.23593,10.83333 3.23593,10.83333z" fill="url(#color-7)"/><path d="M241.41204,176.75754c0,0 -1.09907,-12.83333 4.16667,-12.83333c5.26574,0 3.83333,12.83333 3.83333,12.83333z" fill="url(#color-8)"/><path d="M248.73309,176.25754c0,0 -1.04197,-12.16667 3.95022,-12.16667c4.99219,0 3.6342,12.16667 3.6342,12.16667z" fill="url(#color-9)"/></g><g data-paper-data="{&quot;index&quot;:null}"><path d="M209.9114,173.4242c0,0 -0.76271,-6.83333 2.04112,-6.83333c2.80384,0 2.21862,6.83333 2.21862,6.83333z" fill="url(#color-10)"/><path d="M212.22233,174.09087c0,0 -0.91153,-8.16667 2.43939,-8.16667c3.35093,0 2.65152,8.16667 2.65152,8.16667z" fill="url(#color-11)"/><path d="M215.91387,174.59087c0,0 -1.02315,-9.16667 2.73809,-9.16667c3.76124,0 2.97619,9.16667 2.97619,9.16667z" fill="url(#color-12)"/><path d="M220.89972,175.4242c0,0 -1.20917,-10.83333 3.23593,-10.83333c4.4451,0 3.51732,10.83333 3.51732,10.83333z" fill="url(#color-13)"/><path d="M233.78278,176.59087c0,0 -1.43241,-12.83333 3.83333,-12.83333c5.26574,0 4.16667,12.83333 4.16667,12.83333z" fill="url(#color-14)"/><path d="M226.87731,176.09087c0,0 -1.35799,-12.16667 3.6342,-12.16667c4.99219,0 3.95022,12.16667 3.95022,12.16667z" fill="url(#color-15)"/></g></g><g stroke="none" stroke-width="0" stroke-linecap="butt"><g><path d="M270.2363,176.06587c0,0 0.68468,6.1342 -1.83229,6.1342c-2.51697,0 -1.99162,-6.1342 -1.99162,-6.1342z" fill="url(#color-16)"/><path d="M268.16182,176.92616c0,0 0.81827,7.33112 -2.18981,7.33112c-3.00808,0 -2.38024,-7.33112 -2.38024,-7.33112z" fill="url(#color-17)"/><path d="M264.84797,177.48721c0,0 0.91846,8.22881 -2.45795,8.22881c-3.37642,0 -2.67169,-8.22881 -2.67169,-8.22881z" fill="url(#color-18)"/><path d="M260.37222,177.74903c0,0 1.08546,9.72495 -2.90485,9.72495c-3.99031,0 -3.15746,-9.72495 -3.15746,-9.72495z" fill="url(#color-19)"/><path d="M248.80726,178.72153c0,0 1.28585,11.52033 -3.44114,11.52033c-4.72699,0 -3.74036,-11.52033 -3.74036,-11.52033z" fill="url(#color-20)"/><path d="M255.0062,178.27269c0,0 1.21906,10.92187 -3.26237,10.92187c-4.48143,0 -3.54606,-10.92187 -3.54606,-10.92187z" fill="url(#color-21)"/></g><g data-paper-data="{&quot;index&quot;:null}"><path d="M216.9491,176.06587c0,0 0.52535,6.1342 -1.99162,6.1342c-2.51697,0 -1.83229,-6.1342 -1.83229,-6.1342z" fill="url(#color-22)"/><path d="M219.76972,176.92616c0,0 0.62784,7.33112 -2.38024,7.33112c-3.00808,0 -2.18981,-7.33112 -2.18981,-7.33112z" fill="url(#color-23)"/><path d="M223.64316,177.48721c0,0 0.70473,8.22881 -2.67169,8.22881c-3.37641,0 -2.45795,-8.22881 -2.45795,-8.22881z" fill="url(#color-24)"/><path d="M229.05158,177.74903c0,0 0.83285,9.72495 -3.15746,9.72495c-3.99031,0 -2.90485,-9.72495 -2.90485,-9.72495z" fill="url(#color-25)"/><path d="M241.73573,178.72153c0,0 0.98663,11.52033 -3.74036,11.52033c-4.72699,0 -3.44114,-11.52033 -3.44114,-11.52033z" fill="url(#color-26)"/><path d="M235.16372,178.27269c0,0 0.93537,10.92187 -3.54606,10.92187c-4.48143,0 -3.26237,-10.92187 -3.26237,-10.92187z" fill="url(#color-27)"/></g></g><path d="M175.83997,136.84617c0,-33.30185 28.7599,-60.29833 64.23702,-60.29833c35.47712,0 64.23702,26.99649 64.23702,60.29833c0,11.81143 -3.61789,22.82967 -9.87019,32.13153c-0.08301,0.12349 0.60375,5.4363 0.60375,5.4363c0,0 -14.9648,-8.14841 -19.85399,-8.24479c-6.94902,-0.13698 -12.2168,3.76487 -12.2168,3.76487c0,0 -19.59432,-7.01071 -23.79762,-7.08469c-5.98583,-0.10535 -23.59598,9.05635 -23.59598,9.05635c0,0 -6.30551,-6.1738 -11.62653,-4.71168c-7.52336,2.06728 -18.93728,6.47032 -18.93728,6.47032c0,0 -0.54383,-6.60024 -0.68035,-6.8233c-5.40701,-8.83413 -8.49903,-19.07557 -8.49903,-29.9949z" fill="url(#color-28)" stroke="#000000" stroke-width="0" stroke-linecap="butt"/><path d="M176.56481,132.47797l-7.66667,-49.33333l21.66667,9.62963l24.66667,-43.33333l14.33333,22.66667l39,-46.33333l2.33333,55.66667l37.33333,-26l-8.33333,58.66667l17,-6l-17.33333,38.66667" fill="url(#color-29)" stroke="#000000" stroke-width="0" stroke-linecap="round"/><path d="M189.39012,138.52566c0,-12.96801 10.51265,-23.48065 23.48066,-23.48065c12.96801,0 23.48065,10.51264 23.48065,23.48065c0,12.96801 -10.51264,23.48066 -23.48065,23.48066c-12.96801,0 -23.48066,-10.51265 -23.48066,-23.48066z" fill="#000000" stroke="#000000" stroke-width="2" stroke-linecap="butt"/><path d="M267.12922,162.00632c-12.96801,0 -23.48065,-10.51265 -23.48065,-23.48066c0,-12.96801 10.51264,-23.48065 23.48065,-23.48065c12.96801,0 23.48066,10.51264 23.48066,23.48065c0,12.96801 -10.51265,23.48066 -23.48066,23.48066z" data-paper-data="{&quot;index&quot;:null}" fill="#000000" stroke="#000000" stroke-width="2" stroke-linecap="butt"/><path d="M189.39019,137.27566c0,-12.968 10.51265,-23.48065 23.48065,-23.48065c12.968,0 23.48065,10.51265 23.48065,23.48065c0,12.968 -10.51265,23.48065 -23.48065,23.48065c-12.968,0 -23.48065,-10.51265 -23.48065,-23.48065z" fill="#808080" stroke="#000000" stroke-width="2" stroke-linecap="butt"/><path d="M193.70558,137c0,-10.64686 8.63098,-19.27784 19.27783,-19.27784c10.64686,0 19.27784,8.63099 19.27784,19.27784c0,10.64686 -8.63099,19.27784 -19.27784,19.27784c-10.64686,0 -19.27783,-8.63099 -19.27783,-19.27784z" fill="#000000" stroke="none" stroke-width="0" stroke-linecap="butt"/><path d="M267.12927,160.75627c-12.968,0 -23.48065,-10.51265 -23.48065,-23.48065c0,-12.968 10.51265,-23.48065 23.48065,-23.48065c12.968,0 23.48065,10.51265 23.48065,23.48065c0,12.968 -10.51265,23.48065 -23.48065,23.48065z" data-paper-data="{&quot;index&quot;:null}" fill="#808080" stroke="#000000" stroke-width="2" stroke-linecap="butt"/><path d="M267.01671,151.02785c-7.74736,0 -14.02783,-6.28048 -14.02783,-14.02784c0,-7.74737 6.28048,-14.02784 14.02783,-14.02784c7.74736,0 14.02783,6.28048 14.02783,14.02784c0,7.74737 -6.28048,14.02784 -14.02783,14.02784z" data-paper-data="{&quot;index&quot;:null}" fill="#000000" stroke="none" stroke-width="0" stroke-linecap="butt"/><path d="M230.53889,158.70904l5.6,-17.6" fill="none" stroke="#000000" stroke-width="2" stroke-linecap="round"/><path d="M247.33889,159.709l-3.6,-20.4" fill="none" stroke="#000000" stroke-width="2" stroke-linecap="round"/></g></g></svg>