<svg version="1.1" xmlns="http://www.w3.org/2000/svg" xmlns:xlink="http://www.w3.org/1999/xlink" width="9.18607" height="9.18552" viewBox="0,0,9.18607,9.18552"><g transform="translate(-235.40696,-175.40724)"><g data-paper-data="{&quot;isPaintingLayer&quot;:true}" fill="#acacac" fill-rule="nonzero" stroke="none" stroke-width="0" stroke-linecap="butt" stroke-linejoin="miter" stroke-miterlimit="10" stroke-dasharray="" stroke-dashoffset="0" style="mix-blend-mode: normal"><path d="M235.60643,183.15808c1.1679,-1.16789 6.74457,-6.74457 7.47756,-7.47756c0.36742,-0.36742 1.02735,-0.24417 1.21666,-0.05489c0.2544,0.2544 0.42786,0.83014 0.03611,1.22189c-0.75424,0.75424 -6.42005,6.42005 -7.56329,7.56329c-0.36947,0.36948 -0.94205,0.09503 -1.14754,-0.11046c-0.19747,-0.19747 -0.36462,-0.79715 -0.01948,-1.1423z" data-paper-data="{&quot;index&quot;:null}"/><path d="M243.15835,184.36796c-1.1679,-1.16789 -6.74456,-6.74456 -7.47756,-7.47756c-0.36742,-0.36742 -0.24417,-1.02736 -0.05489,-1.21666c0.2544,-0.2544 0.83014,-0.42787 1.22189,-0.03612c0.75424,0.75424 6.42005,6.42005 7.56331,7.56331c0.36947,0.36948 0.09503,0.94205 -0.11046,1.14753c-0.19747,0.19747 -0.79715,0.36462 -1.1423,0.01948z" data-paper-data="{&quot;index&quot;:null}"/></g></g></svg>