<svg version="1.1" xmlns="http://www.w3.org/2000/svg" xmlns:xlink="http://www.w3.org/1999/xlink" width="35.12501" height="35.12434" viewBox="0,0,35.12501,35.12434"><g transform="translate(-222.43752,-162.43783)"><g data-paper-data="{&quot;isPaintingLayer&quot;:true}" stroke-miterlimit="10" stroke-dasharray="" stroke-dashoffset="0" style="mix-blend-mode: normal"><path d="M257.56251,169.8317v20.49804c0,4.00745 -3.22497,7.23243 -7.23242,7.23243h-20.5c-3.66107,0 -6.66147,-2.69385 -7.1543,-6.21484c0.7952,3.03475 3.54108,5.26367 6.83204,5.26367h20.0332c3.9166,0 7.07032,-3.15372 7.07032,-7.07031v-20.03321c0,-3.2976 -2.23906,-6.0451 -5.28321,-6.83398c3.52994,0.48496 6.23438,3.49081 6.23438,7.15821z" fill-opacity="0.29839" fill="#000000" fill-rule="evenodd" stroke="none" stroke-width="4.54219" stroke-linecap="round" stroke-linejoin="round"/><path d="M229.50719,162.43783h20.03378c3.9166,0 7.06966,3.15307 7.06966,7.06966v20.03379c0,3.91659 -3.15307,7.06966 -7.06966,7.06966h-20.03378c-3.91659,0 -7.06967,-3.15307 -7.06967,-7.06966v-20.03379c0,-3.91659 3.15308,-7.06966 7.06967,-7.06966z" fill="#b100ff" fill-rule="evenodd" stroke="none" stroke-width="4.43922" stroke-linecap="round" stroke-linejoin="round"/><path d="M225.21908,192.17755c0,-7.3868 6.37933,-13.37499 14.24864,-13.37499c7.8693,0 14.24864,5.98819 14.24864,13.37499" fill="#b100ff" fill-rule="nonzero" stroke="#000000" stroke-width="0.5" stroke-linecap="butt" stroke-linejoin="miter"/><path d="M231.30528,181.06479c-0.20166,-1.24971 0.01303,-14.30692 0.01303,-14.30692c0,0 4.31091,12.32692 4.51257,13.57663c0.20166,1.24971 -0.64795,2.42629 -1.89766,2.62795c-1.24971,0.20166 -2.42629,-0.64794 -2.62795,-1.89765z" fill="#7d00b3" fill-rule="nonzero" stroke="#000000" stroke-width="0.5" stroke-linecap="butt" stroke-linejoin="miter"/><path d="M245.05017,182.96244c-1.24971,-0.20166 -2.09932,-1.37823 -1.89766,-2.62794c0.20166,-1.24971 4.51257,-13.57663 4.51257,-13.57663c0,0 0.21469,13.05721 0.01302,14.30692c-0.20166,1.24971 -1.37823,2.09932 -2.62794,1.89765z" data-paper-data="{&quot;index&quot;:null}" fill="#7d00b3" fill-rule="nonzero" stroke="#000000" stroke-width="0.5" stroke-linecap="butt" stroke-linejoin="miter"/></g></g></svg>