<svg version="1.1" xmlns="http://www.w3.org/2000/svg" xmlns:xlink="http://www.w3.org/1999/xlink" width="157.35014" height="290.532" viewBox="0,0,157.35014,290.532"><defs><linearGradient x1="290.56479" y1="130.53329" x2="319.11868" y2="129.63046" gradientUnits="userSpaceOnUse" id="color-1"><stop offset="0" stop-color="#000000"/><stop offset="1" stop-color="#240033"/></linearGradient><linearGradient x1="161.96239" y1="134.59947" x2="190.51628" y2="133.69665" gradientUnits="userSpaceOnUse" id="color-2"><stop offset="0" stop-color="#240033"/><stop offset="1" stop-color="#000000"/></linearGradient><linearGradient x1="240.00004" y1="175.50001" x2="240.00004" y2="307.50001" gradientUnits="userSpaceOnUse" id="color-3"><stop offset="0" stop-color="#000000"/><stop offset="1" stop-color="#470066"/></linearGradient><linearGradient x1="238.97568" y1="78.52229" x2="242.78683" y2="199.05871" gradientUnits="userSpaceOnUse" id="color-4"><stop offset="0" stop-color="#12001a"/><stop offset="1" stop-color="#590080"/></linearGradient><linearGradient x1="210.54776" y1="25.09299" x2="212.86071" y2="98.24488" gradientUnits="userSpaceOnUse" id="color-5"><stop offset="0" stop-color="#240033"/><stop offset="1" stop-color="#09000d"/></linearGradient><linearGradient x1="264.18762" y1="23.397" x2="266.50055" y2="96.5489" gradientUnits="userSpaceOnUse" id="color-6"><stop offset="0" stop-color="#240033"/><stop offset="1" stop-color="#09000d"/></linearGradient></defs><g transform="translate(-162.20051,-23.08052)"><g data-paper-data="{&quot;isPaintingLayer&quot;:true}" fill-rule="nonzero" stroke-linecap="butt" stroke-linejoin="miter" stroke-miterlimit="10" stroke-dasharray="" stroke-dashoffset="0" style="mix-blend-mode: normal"><path d="M179.28374,313.61252v-267.22501h123.18203v267.22501z" fill-opacity="0.01" fill="#000000" stroke="none" stroke-width="0"/><path d="M305.82929,158.85803c-4.18615,-1.38887 -12.94401,-0.21738 -12.94401,-0.21738l-2.66283,-38.93529l21.338,-27.02116c0,0 4.05155,3.06465 6.94408,33.13211c2.77132,28.80742 -0.84031,41.04539 -0.84031,41.04539c0,0 -7.76467,-6.65325 -11.8349,-8.00365z" data-paper-data="{&quot;index&quot;:null}" fill="url(#color-1)" stroke="#000000" stroke-width="0"/><path d="M165.76598,171.66444c0,0 -4.37753,-11.98536 -3.43161,-40.91031c0.9873,-30.19013 4.83712,-33.50461 4.83712,-33.50461l23.00241,25.61919l-0.19784,39.02575c0,0 -8.81439,-0.61588 -12.90444,1.03465c-3.97679,1.60484 -11.30564,8.73532 -11.30564,8.73532z" fill="url(#color-2)" stroke="#000000" stroke-width="0"/><path d="M206.75005,307.5l15.14285,-131.8421l37.78325,-0.15789l13.57389,132z" fill="url(#color-3)" stroke="#000000" stroke-width="0"/><path d="M176.67632,140.82055c-1.05243,-33.28522 26.83995,-61.1771 62.29936,-62.29826c35.45939,-1.12117 65.0581,24.95296 66.11051,58.23817c1.05243,33.28522 -26.77674,63.1761 -62.23616,64.29726c-35.45939,1.12117 -65.1213,-26.95195 -66.17371,-60.23716z" fill="url(#color-4)" stroke="#000000" stroke-width="0"/><path d="M263.3468,186.97954c1.31032,3.76157 -11.39145,9.46021 -19.75755,9.93096c-8.3661,0.47075 -22.71537,-8.78552 -21.57919,-12.62277c0.73183,-2.47162 12.50398,-8.53149 20.87007,-9.00223c8.3661,-0.47075 19.15634,7.93246 20.46667,11.69404z" fill="#000000" stroke="#000000" stroke-width="2"/><path d="M190.2228,140.48843c-0.40982,-12.96153 9.76535,-23.80114 22.72688,-24.21097c12.96153,-0.40982 23.80114,9.76535 24.21097,22.72688c0.40982,12.96153 -9.76535,23.80114 -22.72688,24.21097c-12.96153,0.40982 -23.80114,-9.76535 -24.21097,-22.72688z" fill="#808080" stroke="#000000" stroke-width="0"/><path d="M194.9543,140.39655c-0.32919,-10.41155 7.84416,-19.11861 18.25568,-19.44781c10.41155,-0.32919 19.11861,7.84417 19.44781,18.25569c0.32919,10.41155 -7.84417,19.11861 -18.25569,19.44781c-10.41155,0.32919 -19.1186,-7.84417 -19.4478,-18.25569z" fill="#000000" stroke="none" stroke-width="0"/><path d="M268.67564,161.83373c-12.96153,0.40982 -23.80114,-9.76535 -24.21097,-22.72688c-0.40982,-12.96153 9.76535,-23.80114 22.72688,-24.21097c12.96153,-0.40982 23.80114,9.76535 24.21097,22.72688c0.40982,12.96153 -9.76535,23.80114 -22.72688,24.21097z" data-paper-data="{&quot;index&quot;:null}" fill="#808080" stroke="#000000" stroke-width="0"/><path d="M268.4295,157.61099c-10.77953,0.34084 -19.79438,-8.12143 -20.13521,-18.90095c-0.34084,-10.77955 8.12142,-19.79439 18.90094,-20.13522c10.77953,-0.34084 19.79438,8.12143 20.13521,18.90095c0.34084,10.77955 -8.12142,19.79439 -18.90094,20.13522z" data-paper-data="{&quot;index&quot;:null}" fill="#000000" stroke="none" stroke-width="0"/><path d="M202.51773,89.87889c-1.08677,-5.60252 -1.97965,-64.46941 -1.97965,-64.46941c0,0 21.18137,54.93139 22.26815,60.53389c1.08677,5.60252 -2.57399,11.02523 -8.1765,12.11198c-5.60251,1.08677 -11.02523,-2.57398 -12.11198,-8.1765z" fill="url(#color-5)" stroke="#000000" stroke-width="0"/><path d="M264.72312,96.47152c-5.65996,-0.73068 -9.65598,-5.91128 -8.92533,-11.57125c0.73067,-5.65997 18.39954,-61.81974 18.39954,-61.81974c0,0 2.82771,58.80571 2.09706,64.4657c-0.73067,5.65997 -5.91128,9.65597 -11.57126,8.92533z" data-paper-data="{&quot;index&quot;:null}" fill="url(#color-6)" stroke="#000000" stroke-width="0"/></g></g></svg>