<svg version="1.1" xmlns="http://www.w3.org/2000/svg" xmlns:xlink="http://www.w3.org/1999/xlink" width="35.125" height="35.12434" viewBox="0,0,35.125,35.12434"><g transform="translate(-222.43752,-162.43783)"><g data-paper-data="{&quot;isPaintingLayer&quot;:true}" stroke-miterlimit="10" stroke-dasharray="" stroke-dashoffset="0" style="mix-blend-mode: normal"><path d="M257.56251,169.8317v20.49804c0,4.00745 -3.22497,7.23243 -7.23242,7.23243h-20.5c-3.66107,0 -6.66147,-2.69385 -7.1543,-6.21484c0.7952,3.03475 3.54108,5.26367 6.83204,5.26367h20.0332c3.9166,0 7.07032,-3.15372 7.07032,-7.07031v-20.03321c0,-3.2976 -2.23906,-6.0451 -5.28321,-6.83398c3.52994,0.48496 6.23438,3.49081 6.23438,7.15821z" fill-opacity="0.29839" fill="#000000" fill-rule="evenodd" stroke="none" stroke-width="4.54219" stroke-linecap="round" stroke-linejoin="round"/><path d="M229.50719,162.43783h20.03378c3.9166,0 7.06966,3.15307 7.06966,7.06966v20.03379c0,3.91659 -3.15307,7.06966 -7.06966,7.06966h-20.03378c-3.91659,0 -7.06967,-3.15307 -7.06967,-7.06966v-20.03379c0,-3.91659 3.15308,-7.06966 7.06967,-7.06966z" fill="#00ff15" fill-rule="evenodd" stroke="none" stroke-width="4.43922" stroke-linecap="round" stroke-linejoin="round"/><g fill-rule="nonzero" stroke="#000000" stroke-width="0.5" stroke-linecap="butt" stroke-linejoin="miter"><path d="M243.63239,172.95221c4.43769,3.1418 11.80715,13.24369 7.84989,14.83027c-3.50524,1.40534 -3.47606,-6.94061 -9.01213,-10.86047c-4.74893,-3.36252 -3.58687,-7.33208 1.16223,-3.96981z" data-paper-data="{&quot;index&quot;:null}" fill="#00ff15"/><path d="M245.25367,176.76549c2.96922,4.55497 6.1017,16.66054 1.83827,16.67869c-3.77643,0.01605 -0.67649,-7.73288 -4.38047,-13.41566c-3.17732,-4.87477 -0.63539,-8.13764 2.5422,-3.26304z" data-paper-data="{&quot;index&quot;:null}" fill="#00ff15"/><path d="M235.37446,172.9522c4.7491,-3.36227 5.91116,0.60729 1.16223,3.96981c-5.53607,3.91986 -5.50689,12.2658 -9.01213,10.86047c-3.95727,-1.58658 3.41221,-11.68848 7.8499,-14.83027z" data-paper-data="{&quot;index&quot;:null}" fill="#00ff15"/><path d="M233.75318,176.76548c3.17758,-4.87461 5.71952,-1.61174 2.54219,3.26304c-3.70397,5.68277 -0.60404,13.43171 -4.38047,13.41566c-4.26343,-0.01815 -1.13095,-12.12372 1.83827,-16.67869z" data-paper-data="{&quot;index&quot;:null}" fill="#00ff15"/><g><path d="M236.8322,168.00604c0.05282,-1.98343 1.34973,-2.48311 2.93201,-2.44098c1.58229,0.04214 2.85076,0.61014 2.79796,2.59357c-0.05282,1.98343 -1.40693,4.63119 -2.98922,4.58906c-1.58229,-0.04214 -2.79357,-2.75821 -2.74075,-4.74164z" fill="#ff80ee"/><path d="M242.1998,181.76661c-0.05282,1.98343 -1.34973,2.48311 -2.93201,2.44098c-1.58229,-0.04214 -2.85075,-0.61013 -2.79794,-2.59356c0.05282,-1.98343 1.40692,-4.63119 2.98921,-4.58906c1.58229,0.04214 2.79357,2.75821 2.74075,4.74164z" fill="#ff80ee"/><path d="M232.63571,177.57012c-1.98343,-0.05282 -2.48311,-1.34973 -2.44099,-2.93201c0.04214,-1.58229 0.61013,-2.85075 2.59357,-2.79794c1.98343,0.05282 4.63119,1.40692 4.58906,2.98921c-0.04214,1.58229 -2.75821,2.79357 -4.74164,2.74075z" fill="#ff80ee"/><path d="M246.39629,172.20253c1.98344,0.05282 2.48311,1.34973 2.44099,2.93201c-0.04214,1.58229 -0.61013,2.85075 -2.59357,2.79794c-1.98344,-0.05282 -4.63119,-1.40692 -4.58906,-2.98921c0.04214,-1.58229 2.75821,-2.79357 4.74164,-2.74075z" fill="#ff80ee"/><path d="M232.75317,171.91896c-1.36514,-1.43983 -0.80143,-2.71023 0.34721,-3.79927c1.14864,-1.08905 2.44722,-1.58436 3.81238,-0.14452c1.36514,1.43983 2.2799,4.26959 1.13127,5.35865c-1.14864,1.08905 -3.9257,0.02499 -5.29085,-1.41484z" fill="#ff80ee"/><path d="M246.27883,177.85368c1.36514,1.43983 0.80143,2.71023 -0.34721,3.79927c-1.14864,1.08905 -2.44723,1.58437 -3.81239,0.14453c-1.36514,-1.43983 -2.2799,-4.2696 -1.13127,-5.35865c1.14864,-1.08905 3.92571,-0.02499 5.29085,1.41485z" fill="#ff80ee"/><path d="M236.54863,181.64915c-1.43983,1.36514 -2.71023,0.80144 -3.79927,-0.3472c-1.08905,-1.14864 -1.58437,-2.44723 -0.14453,-3.81239c1.43983,-1.36514 4.26959,-2.2799 5.35865,-1.13127c1.08905,1.14864 0.02499,3.92571 -1.41484,5.29085z" fill="#ff80ee"/><path d="M242.48336,168.12349c1.43983,-1.36514 2.71023,-0.80143 3.79927,0.34721c1.08905,1.14864 1.58436,2.44722 0.14452,3.81238c-1.43983,1.36514 -4.26959,2.2799 -5.35865,1.13127c-1.08905,-1.14864 -0.02499,-3.9257 1.41484,-5.29085z" fill="#ff80ee"/><path d="M235.72508,174.70462c0.05578,-2.09485 1.79922,-3.74785 3.89407,-3.69207c2.09485,0.05578 3.74785,1.79922 3.69207,3.89407c-0.05578,2.09485 -1.79922,3.74784 -3.89407,3.69206c-2.09485,-0.05578 -3.74785,-1.79922 -3.69207,-3.89407z" fill="#ffe900"/></g></g></g></g></svg>