<svg version="1.1" xmlns="http://www.w3.org/2000/svg" xmlns:xlink="http://www.w3.org/1999/xlink" width="407" height="307.11249" viewBox="0,0,407,307.11249"><g transform="translate(-36.5,-46.38751)"><g data-paper-data="{&quot;isPaintingLayer&quot;:true}" fill-rule="nonzero" stroke-linejoin="miter" stroke-miterlimit="10" stroke-dasharray="" stroke-dashoffset="0" style="mix-blend-mode: normal"><path d="M179.28373,313.61252v-267.22501h123.18203v267.22501z" fill-opacity="0.01" fill="#000000" stroke="none" stroke-width="0" stroke-linecap="butt"/><path d="M276.591,99.478c0,0 5.33059,-27.0647 27.65224,-19.1066c25.70423,9.16406 -6.3189,38.1066 -6.3189,38.1066" data-paper-data="{&quot;index&quot;:null}" fill="#ecec68" stroke="#000000" stroke-width="2" stroke-linecap="round"/><path d="M181.89814,118.478c0,0 -32.02313,-28.94254 -6.3189,-38.1066c22.32164,-7.9581 27.65224,19.1066 27.65224,19.1066" fill="#ecec68" stroke="#000000" stroke-width="2" stroke-linecap="round"/><path d="M206.75005,307.5l15.14285,-131.8421l37.78325,-0.15789l13.57389,132z" fill="#ecec68" stroke="#000000" stroke-width="2" stroke-linecap="butt"/><path d="M219.70027,204.11263l3.12142,-26.32765l35.83075,-0.14203l2.76735,26.1059c0,0 -7.51543,4.19603 -21.55904,4.50964c-12.48458,0.27879 -20.16049,-4.14586 -20.16049,-4.14586z" fill="#c5c556" stroke="#000000" stroke-width="0" stroke-linecap="butt"/><path d="M217.06624,196.24391c0.52274,-10.43691 46.02934,-9.45471 47,-0.16667c0.88965,8.51286 -26,44.5 -26,44.5c0,0 -21.31841,-37.97585 -21,-44.33333z" fill="#9b9b44" stroke="none" stroke-width="0" stroke-linecap="butt"/><path d="M217.06624,196.24391c0.52274,-10.43691 46.02934,-9.45471 47,-0.16667c0,0 -11.92218,6.37512 -23.85388,6.57602c-11.57865,0.19495 -23.17793,-5.77415 -23.14612,-6.40935z" fill="#6e6e30" stroke="none" stroke-width="0" stroke-linecap="butt"/><path d="M175.83995,136.84616c0,-33.30185 28.7599,-60.29833 64.23702,-60.29833c35.47712,0 64.23702,26.99649 64.23702,60.29833c0,33.30185 -28.7599,60.29833 -64.23702,60.29833c-35.47712,0 -64.23702,-26.99649 -64.23702,-60.29833z" fill="#ecec68" stroke="#000000" stroke-width="2" stroke-linecap="butt"/><path d="M176.56301,136.9c0,-0.72799 5.20666,55.91939 63.36046,56.93429c55.56352,0.9697 63.51358,-57.95314 63.51358,-56.93429c0,32.80479 -28.40173,59.39833 -63.43702,59.39833c-35.03529,0 -63.43702,-26.59354 -63.43702,-59.39833z" fill="#c5c556" stroke="#000000" stroke-width="0" stroke-linecap="butt"/><path d="M189.39017,137.27563c0,-12.968 10.51265,-23.48065 23.48065,-23.48065c12.968,0 23.48065,10.51265 23.48065,23.48065c0,12.968 -10.51265,23.48065 -23.48065,23.48065c-12.968,0 -23.48065,-10.51265 -23.48065,-23.48065z" fill="#ffffff" stroke="#000000" stroke-width="2" stroke-linecap="butt"/><path d="M196.45555,137c0,-9.12808 7.39976,-16.52784 16.52783,-16.52784c9.12808,0 16.52784,7.39977 16.52784,16.52784c0,9.12808 -7.39977,16.52784 -16.52784,16.52784c-9.12808,0 -16.52783,-7.39977 -16.52783,-16.52784z" fill="#000000" stroke="none" stroke-width="0" stroke-linecap="butt"/><path d="M258.61663,166.15643c0,0 9.03356,6.82924 -19.49531,7.20932c-22.74084,0.30297 -17.11428,-7.45932 -17.11428,-7.45932" fill="none" stroke="#000000" stroke-width="2" stroke-linecap="round"/><path d="M267.12926,159.35627c-12.968,0 -23.48065,-9.11265 -23.48065,-22.08065c0,-12.968 10.51265,-23.48065 23.48065,-23.48065c12.968,0 23.48065,10.51265 23.48065,23.48065c0,12.968 -10.51265,22.08065 -23.48065,22.08065z" data-paper-data="{&quot;index&quot;:null}" fill="#ffffff" stroke="#000000" stroke-width="2" stroke-linecap="butt"/><path d="M267.01669,153.52784c-9.12807,0 -16.52783,-7.39977 -16.52783,-16.52784c0,-9.12808 7.39977,-16.52784 16.52783,-16.52784c9.12807,0 16.52783,7.39977 16.52783,16.52784c0,9.12808 -7.39977,16.52784 -16.52783,16.52784z" data-paper-data="{&quot;index&quot;:null}" fill="#000000" stroke="none" stroke-width="0" stroke-linecap="butt"/><path d="M197.02784,101.13383c0,0 6.70895,-5.16922 11.79721,-6.36355c5.08827,-1.19433 12.33413,0.69937 12.33413,0.69937c0,0 -8.03812,-0.06028 -11.96762,0.86207c-4.10648,0.96389 -12.16372,4.80211 -12.16372,4.80211z" fill="#000000" stroke="none" stroke-width="0" stroke-linecap="butt"/><path d="M267.62903,94.33173c-3.9295,-0.92235 -11.96762,-0.86207 -11.96762,-0.86207c0,0 7.24586,-1.8937 12.33413,-0.69937c5.08826,1.19433 11.79721,6.36355 11.79721,6.36355c0,0 -8.05724,-3.83822 -12.16372,-4.80211z" data-paper-data="{&quot;index&quot;:null}" fill="#000000" stroke="none" stroke-width="0" stroke-linecap="butt"/><text transform="translate(230.24614,209.46523) scale(0.15909,0.15909)" font-size="40" xml:space="preserve" fill="#6e6e30" fill-rule="nonzero" stroke="none" stroke-width="1" stroke-linecap="butt" stroke-linejoin="miter" stroke-miterlimit="10" stroke-dasharray="" stroke-dashoffset="0" font-family="Handwriting" font-weight="normal" text-anchor="start" style="mix-blend-mode: normal"><tspan x="0" dy="0">I love</tspan><tspan x="0" dy="46.150000000000006px">mustard</tspan><tspan x="0" dy="46.150000000000006px">!!!!!!!</tspan></text><path d="M177.27314,122.50677c0,0 -0.24327,-3.53364 0.10577,-5.27885c0.31388,-1.56942 1.89423,-4.72115 1.89423,-4.72115h122.5c0,0 1.90108,3.30352 2.45135,5.09189c0.40339,1.31101 0.54865,4.65811 0.54865,4.65811z" fill="#6e6e30" stroke="none" stroke-width="0" stroke-linecap="butt"/><path d="M177.17361,130.14554l126.8,-0.2l-0.29152,6.68315c0,0 -24.66354,18.8697 -63.30849,18.96685c-45.4579,0.11427 -64.22594,-19.14792 -64.22594,-19.14792z" fill-opacity="0.09672" fill="#000000" stroke="none" stroke-width="0" stroke-linecap="butt"/><path d="M159.89814,132.46102l27.33333,-20.79783c0,0 35.14306,0.87878 53,0.87878c18.24579,0 55.33334,-0.87878 55.33334,-0.87878l23.33333,18.4544c0,0 -52.50461,2.82924 -78.9721,3.21933c-26.53235,0.39104 -80.0279,-0.87591 -80.0279,-0.87591z" fill="#9b9b44" stroke="none" stroke-width="0" stroke-linecap="butt"/><path d="M159.89814,132.46102l27.33333,-20.79783c0,0 -21.60075,18.12231 53,17.12878c70.49568,-0.93886 55.33334,-17.12878 55.33334,-17.12878l23.33333,18.4544c0,0 -52.50461,2.82924 -78.9721,3.21933c-26.53235,0.39104 -80.0279,-0.87591 -80.0279,-0.87591z" fill="#6e6e30" stroke="none" stroke-width="0" stroke-linecap="butt"/><path d="M251.09027,83.08072c0,0 3.70129,15.3171 -3.75,16.10623c-6.62468,0.70158 -7,-9.48311 -7,-9.48311c0,0 -0.17828,6.56179 -5.5,6.17155c-7.79929,-0.57191 -8.5,-10.98836 -8.5,-10.98836" fill="#ecec68" stroke="#000000" stroke-width="2" stroke-linecap="round"/><path d="M36.5,353.5v-41h407v41z" fill="#666666" stroke="none" stroke-width="0" stroke-linecap="butt"/><text transform="translate(40.61257,343.01875) scale(0.78169,0.78169)" font-size="40" xml:space="preserve" fill="#ffffff" fill-rule="nonzero" stroke="none" stroke-width="1" stroke-linecap="butt" stroke-linejoin="miter" stroke-miterlimit="10" stroke-dasharray="" stroke-dashoffset="0" font-family="Sans Serif" font-weight="normal" text-anchor="start" style="mix-blend-mode: normal"><tspan x="0" dy="0">Mustard sprunki</tspan></text></g></g></svg>