<svg version="1.1" xmlns="http://www.w3.org/2000/svg" xmlns:xlink="http://www.w3.org/1999/xlink" width="38.19044" height="38.19044" viewBox="0,0,38.19044,38.19044"><g transform="translate(-220.9048,-160.90481)"><g data-paper-data="{&quot;isPaintingLayer&quot;:true}" stroke-miterlimit="10" stroke-dasharray="" stroke-dashoffset="0" style="mix-blend-mode: normal"><path d="M259.09524,180.00003c0,10.54601 -8.54924,19.09522 -19.09522,19.09522c-10.54601,0 -19.09522,-8.54922 -19.09522,-19.09522c0,-10.54601 8.54922,-19.09522 19.09522,-19.09522c10.54601,0 19.09522,8.54922 19.09522,19.09522" fill="#727272" fill-rule="evenodd" stroke="none" stroke-width="0.07853" stroke-linecap="round" stroke-linejoin="round"/><path d="M229.463,190.537v-21.074h21.074v21.074z" fill="#ffffff" fill-rule="nonzero" stroke="#ffffff" stroke-width="0" stroke-linecap="butt" stroke-linejoin="miter"/><path d="M230.79868,189.20132v-18.40265h18.40265v18.40265z" fill="#727272" fill-rule="nonzero" stroke="#ffffff" stroke-width="0" stroke-linecap="butt" stroke-linejoin="miter"/><g fill="#ffffff" fill-rule="nonzero" stroke="#000000" stroke-width="0" stroke-linecap="butt" stroke-linejoin="miter"><path d="M237.34439,189.84656l0.75802,-6.59978l4.10276,-0.01714l0.67725,6.58595z"/><path d="M233.10168,179.03235c0,-3.61614 3.12294,-6.5476 6.97529,-6.5476c3.85234,0 6.97529,2.93146 6.97529,6.5476c0,3.61614 -3.12294,6.5476 -6.97529,6.5476c-3.85234,0 -6.97529,-2.93146 -6.97529,-6.5476z"/></g></g></g></svg>