<svg version="1.1" xmlns="http://www.w3.org/2000/svg" xmlns:xlink="http://www.w3.org/1999/xlink" width="151.13634" height="290.45012" viewBox="0,0,151.13634,290.45012"><g transform="translate(-169.62837,-23.1624)"><g data-paper-data="{&quot;isPaintingLayer&quot;:true}" fill-rule="nonzero" stroke-linejoin="miter" stroke-miterlimit="10" stroke-dasharray="" stroke-dashoffset="0" style="mix-blend-mode: normal"><path d="M179.28375,313.61252v-267.22501h123.18203v267.22501z" fill-opacity="0.01" fill="#000000" stroke="none" stroke-width="0" stroke-linecap="butt"/><path d="M206.75007,307.83333l15.14285,-131.8421l37.78325,-0.15789l13.57389,132z" fill="#a5ff00" stroke="#000000" stroke-width="2" stroke-linecap="butt"/><path d="M219.70029,204.11263l3.12142,-26.32765l35.83075,-0.14203l2.76735,26.1059c0,0 -7.51543,4.19603 -21.55904,4.50964c-12.48458,0.27879 -20.16049,-4.14586 -20.16049,-4.14586z" fill="#95e600" stroke="#000000" stroke-width="0" stroke-linecap="butt"/><path d="M175.83997,136.84616c0,-33.30185 28.7599,-60.29833 64.23702,-60.29833c35.47712,0 64.23702,26.99649 64.23702,60.29833c0,33.30185 -28.7599,60.29833 -64.23702,60.29833c-35.47712,0 -64.23702,-26.99649 -64.23702,-60.29833z" fill="#a5ff00" stroke="#000000" stroke-width="2" stroke-linecap="butt"/><path d="M176.56303,136.9c0,-0.72799 5.20666,55.91939 63.36046,56.93429c55.56352,0.9697 63.51358,-57.95314 63.51358,-56.93429c0,32.80479 -28.40173,59.39833 -63.43702,59.39833c-35.03529,0 -63.43702,-26.59354 -63.43702,-59.39833z" fill="#95e600" stroke="#000000" stroke-width="0" stroke-linecap="butt"/><path d="M178.56481,132.47798l-7.66667,-49.33333l21.66667,9.62963l24.66667,-43.33333l14.33333,22.66667l39,-46.33333l2.33333,55.66667l37.33333,-26l-8.33333,58.66667l17,-6l-17.33333,38.66667" fill="#a5ff00" stroke="#000000" stroke-width="2" stroke-linecap="round"/><path d="M189.39012,138.52563c0,-12.96801 10.51265,-23.48065 23.48066,-23.48065c12.96801,0 23.48065,10.51264 23.48065,23.48065c0,12.96801 -10.51264,23.48066 -23.48065,23.48066c-12.96801,0 -23.48066,-10.51265 -23.48066,-23.48066z" fill="#000000" stroke="#000000" stroke-width="2" stroke-linecap="butt"/><path d="M267.12922,162.00629c-12.96801,0 -23.48065,-10.51265 -23.48065,-23.48066c0,-12.96801 10.51264,-23.48065 23.48065,-23.48065c12.96801,0 23.48066,10.51264 23.48066,23.48065c0,12.96801 -10.51265,23.48066 -23.48066,23.48066z" data-paper-data="{&quot;index&quot;:null}" fill="#000000" stroke="#000000" stroke-width="2" stroke-linecap="butt"/><path d="M189.39019,137.27563c0,-12.968 10.51265,-23.48065 23.48065,-23.48065c12.968,0 23.48065,10.51265 23.48065,23.48065c0,12.968 -10.51265,23.48065 -23.48065,23.48065c-12.968,0 -23.48065,-10.51265 -23.48065,-23.48065z" fill="#ffffff" stroke="#000000" stroke-width="2" stroke-linecap="butt"/><path d="M193.70558,137c0,-10.64686 8.63098,-19.27784 19.27783,-19.27784c10.64686,0 19.27784,8.63099 19.27784,19.27784c0,10.64686 -8.63099,19.27784 -19.27784,19.27784c-10.64686,0 -19.27783,-8.63099 -19.27783,-19.27784z" fill="#000000" stroke="none" stroke-width="0" stroke-linecap="butt"/><path d="M267.12927,160.75627c-12.968,0 -23.48065,-10.51265 -23.48065,-23.48065c0,-12.968 10.51265,-23.48065 23.48065,-23.48065c12.968,0 23.48065,10.51265 23.48065,23.48065c0,12.968 -10.51265,23.48065 -23.48065,23.48065z" data-paper-data="{&quot;index&quot;:null}" fill="#ffffff" stroke="#000000" stroke-width="2" stroke-linecap="butt"/><path d="M267.01671,151.02784c-7.74736,0 -14.02783,-6.28048 -14.02783,-14.02784c0,-7.74737 6.28048,-14.02784 14.02783,-14.02784c7.74736,0 14.02783,6.28048 14.02783,14.02784c0,7.74737 -6.28048,14.02784 -14.02783,14.02784z" data-paper-data="{&quot;index&quot;:null}" fill="#000000" stroke="none" stroke-width="0" stroke-linecap="butt"/><path d="M230.53889,158.70902l5.6,-17.6" fill="none" stroke="#000000" stroke-width="2" stroke-linecap="round"/><path d="M243.73889,139.30902l3.6,20.4" fill="none" stroke="#000000" stroke-width="2" stroke-linecap="round"/><path d="M212.10705,179.85643l58.70959,-6.4" fill="none" stroke="#000000" stroke-width="2" stroke-linecap="round"/></g></g></svg>