<svg version="1.1" xmlns="http://www.w3.org/2000/svg" xmlns:xlink="http://www.w3.org/1999/xlink" width="144" height="321.11249" viewBox="0,0,144,321.11249"><g transform="translate(-168,-46.38752)"><g data-paper-data="{&quot;isPaintingLayer&quot;:true}" stroke-miterlimit="10" stroke-dasharray="" stroke-dashoffset="0" style="mix-blend-mode: normal"><path d="M168,367.50002v-316h144v316z" fill="none" fill-rule="nonzero" stroke="none" stroke-width="0" stroke-linecap="butt" stroke-linejoin="miter"/><path d="M178.40908,313.61253v-267.22501h123.18203v267.22501z" fill-opacity="0.01" fill="#000000" fill-rule="nonzero" stroke="none" stroke-width="0" stroke-linecap="butt" stroke-linejoin="miter"/><path d="M232.04357,360.79703c0,0 -4.67938,-21.11975 1.4357,-46.3743c3.6733,-15.17028 18.69854,-35.02836 20.03884,-43.72523c2.35721,-15.29534 -2.13056,-43.75197 -2.13056,-43.75197l5.92999,0.91389c0,0 4.6573,30.36412 2.66854,43.26865c-1.51969,9.86086 -16.48135,27.03455 -20.87867,44.52962c-5.81091,23.11915 -1.13385,46.05324 -1.13385,46.05324z" fill="#000000" fill-rule="nonzero" stroke="#000000" stroke-width="2" stroke-linecap="butt" stroke-linejoin="miter"/><path d="M294.00005,355.50011h-11.66667v-130.33333h11.66667z" fill="#653600" fill-rule="nonzero" stroke="#000000" stroke-width="2" stroke-linecap="butt" stroke-linejoin="miter"/><path d="M199.00005,354.83346h-11.66666v-130.33333h11.66666z" fill="#653600" fill-rule="nonzero" stroke="#000000" stroke-width="2" stroke-linecap="butt" stroke-linejoin="miter"/><path d="M174.83341,235.66679v-19.33333h130.33333v19.33333z" fill="#804400" fill-rule="nonzero" stroke="#000000" stroke-width="2" stroke-linecap="butt" stroke-linejoin="miter"/><path d="M232.90004,210.65012v-32.75h14.2v32.75z" fill="#a1a5a6" fill-rule="nonzero" stroke="#000000" stroke-width="2" stroke-linecap="butt" stroke-linejoin="miter"/><path d="M204.50005,219.2001l5.73764,-11.4h61.26981l5.94255,11.4z" fill="#babebf" fill-rule="nonzero" stroke="#000000" stroke-width="2" stroke-linecap="butt" stroke-linejoin="miter"/><path d="M213.29805,119.0624h53.404c8.92534,0 16.1107,7.18538 16.1107,16.1107v45.654c0,8.92532 -7.18535,16.1107 -16.1107,16.1107h-53.404c-8.92532,0 -16.1107,-7.18538 -16.1107,-16.1107v-45.654c0,-8.92532 7.18538,-16.1107 16.1107,-16.1107z" fill="#babebf" fill-rule="evenodd" stroke="#000000" stroke-width="2" stroke-linecap="round" stroke-linejoin="round"/><path d="M218.28764,126.33833h43.4249c7.25755,0 13.10025,5.84271 13.10025,13.10025v37.12307c0,7.25753 -5.8427,13.10025 -13.10025,13.10025h-43.4249c-7.25753,0 -13.10025,-5.84271 -13.10025,-13.10025v-37.12307c0,-7.25753 5.84271,-13.10025 13.10025,-13.10025z" fill="#000000" fill-rule="evenodd" stroke="#000000" stroke-width="2" stroke-linecap="round" stroke-linejoin="round"/><g fill-rule="nonzero" stroke="#000000" stroke-width="2" stroke-linecap="butt" stroke-linejoin="miter"><path d="M240.67364,86.66413v-17.41667h5.25v17.41667z" fill="#fc0000"/><path d="M208.92366,118.09932c0,-14.77362 5.16976,-34.19218 33.875,-33.75c32.45864,0.5 33.875,18.97638 33.875,33.75c0,1.19809 -16.68356,5.25 -33.875,5.25c-17.13342,0 -33.875,-4.0061 -33.875,-5.25z" fill="#fce600"/><path d="M257.17364,102.84932c-3.11253,-16.2123 -16.09168,-18.52644 -14.375,-18.5c32.45864,0.5 33.875,18.97638 33.875,33.75c0,0.78948 -7.2443,2.81815 -17.10457,4.11006c0,0 -1.06283,-12.41891 -2.39543,-19.36006z" fill="#0b00ff"/><path d="M208.92366,118.09932c0,-14.77362 5.16976,-34.19218 33.875,-33.75c2.07952,0.03203 -11.936,5.5649 -13.375,20.5c-0.8378,8.69544 0.125,17.25 0.125,17.25c0,0 -20.625,-2.7561 -20.625,-4z" fill="#fc0000"/><path d="M183.92367,131.8493c0,0 10.83601,-8.1292 15.77482,-10.85247c3.21888,-1.7749 10.97518,-3.89753 10.97518,-3.89753c0,0 16.66216,-4.25 24.75,-4.25c9.94299,0 29.25,7.5 29.25,7.5c0,0 -7.79685,2.09852 -11.37552,3.77502c-5.11253,2.39505 -16.37448,9.22498 -16.37448,9.22498c0,0 -14.87504,-4.75 -23.75,-4.75c-9.49924,0 -29.25,3.25 -29.25,3.25z" fill="#00ff15"/><path d="M222.14056,78.68725c0,0 -0.75862,-1.98771 -0.75862,-3c0,-0.84695 0.75862,-2.66666 0.75862,-2.66666l21.11495,3.33334l21.49425,-3.33334c0,0 0.63218,1.91828 0.63218,2.83334c0,0.97056 -0.63218,2.83333 -0.63218,2.83333l-21.49425,-2.16666z" fill="#0b00ff"/></g><g fill-rule="nonzero" stroke-linejoin="miter"><path d="M245.42361,176.01129c0,3.1066 -4.2533,5.625 -9.5,5.625c-5.2467,0 -9.5,-2.5184 -9.5,-5.625c0,-3.1066 4.2533,-5.625 9.5,-5.625c5.2467,0 9.5,2.5184 9.5,5.625z" fill="#ffffff" stroke="none" stroke-width="0" stroke-linecap="butt"/><path d="M253.17361,145.13629c0,0 -3.63518,2.25655 -5.71794,2.51168c-2.10318,0.25763 -6.84049,-0.97331 -6.84049,-0.97331l2.05843,29.96164" fill="none" stroke="#ffffff" stroke-width="4" stroke-linecap="round"/></g><g fill-rule="nonzero" stroke-linejoin="miter"><path d="M222.76239,155.21807c0,1.56782 -2.14652,2.83879 -4.79439,2.83879c-2.64787,0 -4.79439,-1.27097 -4.79439,-2.83879c0,-1.56782 2.14652,-2.83879 4.79439,-2.83879c2.64787,0 4.79439,1.27097 4.79439,2.83879z" fill="#ffffff" stroke="none" stroke-width="0" stroke-linecap="butt"/><path d="M226.67361,139.63629c0,0 -1.83458,1.13882 -2.88569,1.26757c-1.06142,0.13002 -3.45221,-0.4912 -3.45221,-0.4912l1.03883,15.12083" fill="none" stroke="#ffffff" stroke-width="2" stroke-linecap="round"/></g><g fill-rule="nonzero" stroke-linejoin="miter"><path d="M263.30912,172.294c0,1.24845 -1.70927,2.26051 -3.81776,2.26051c-2.10849,0 -3.81776,-1.01207 -3.81776,-2.26051c0,-1.24845 1.70927,-2.26051 3.81776,-2.26051c2.10849,0 3.81776,1.01207 3.81776,2.26051z" fill="#ffffff" stroke="none" stroke-width="0" stroke-linecap="butt"/><path d="M266.42361,159.88629c0,0 -1.46087,0.90684 -2.29786,1.00937c-0.8452,0.10353 -2.74898,-0.39114 -2.74898,-0.39114l0.82722,12.04066" fill="none" stroke="#ffffff" stroke-width="1.5" stroke-linecap="round"/></g></g></g></svg>