<svg version="1.1" xmlns="http://www.w3.org/2000/svg" xmlns:xlink="http://www.w3.org/1999/xlink" width="151.13634" height="287.45012" viewBox="0,0,151.13634,287.45012"><g transform="translate(-169.62838,-26.16239)"><g data-paper-data="{&quot;isPaintingLayer&quot;:true}" fill-rule="nonzero" stroke-linejoin="miter" stroke-miterlimit="10" stroke-dasharray="" stroke-dashoffset="0" style="mix-blend-mode: normal"><path d="M179.28375,313.61251v-267.22501h123.18203v267.22501z" fill-opacity="0.01" fill="#000000" stroke="none" stroke-width="0" stroke-linecap="butt"/><path d="M206.75007,307.5l15.14285,-131.8421l37.78325,-0.15789l13.57389,132z" fill="#a5ff00" stroke="#000000" stroke-width="2" stroke-linecap="butt"/><path d="M219.70029,204.11263l3.12142,-26.32765l35.83075,-0.14203l2.76735,26.1059c0,0 -7.51543,4.19603 -21.55904,4.50964c-12.48458,0.27879 -20.16049,-4.14586 -20.16049,-4.14586z" fill="#95e600" stroke="#000000" stroke-width="0" stroke-linecap="butt"/><path d="M175.83997,139.84616c0,-33.30185 28.7599,-60.29833 64.23702,-60.29833c35.47712,0 64.23702,26.99649 64.23702,60.29833c0,33.30185 -28.7599,60.29833 -64.23702,60.29833c-35.47712,0 -64.23702,-26.99649 -64.23702,-60.29833z" fill="#a5ff00" stroke="#000000" stroke-width="2" stroke-linecap="butt"/><path d="M176.56303,139.89999c0,-0.72799 5.20666,55.91939 63.36046,56.93429c55.56352,0.9697 63.51358,-57.95314 63.51358,-56.93429c0,32.80479 -28.40173,59.39833 -63.43702,59.39833c-35.03529,0 -63.43702,-26.59354 -63.43702,-59.39833z" fill="#95e600" stroke="#000000" stroke-width="0" stroke-linecap="butt"/><path d="M178.56481,135.47797l-7.66667,-49.33333l21.66667,9.62963l24.66667,-43.33333l14.33333,22.66667l39,-46.33333l2.33333,55.66667l37.33333,-26l-8.33333,58.66667l17,-6l-17.33333,38.66667" fill="#a5ff00" stroke="#000000" stroke-width="2" stroke-linecap="round"/><path d="M189.39012,141.52563c0,-12.96801 10.51265,-23.48065 23.48066,-23.48065c12.96801,0 23.48065,10.51264 23.48065,23.48065c0,12.96801 -10.51264,23.48066 -23.48065,23.48066c-12.96801,0 -23.48066,-10.51265 -23.48066,-23.48066z" fill="#000000" stroke="#000000" stroke-width="2" stroke-linecap="butt"/><path d="M267.12922,165.00629c-12.96801,0 -23.48065,-10.51265 -23.48065,-23.48066c0,-12.96801 10.51264,-23.48065 23.48065,-23.48065c12.96801,0 23.48066,10.51264 23.48066,23.48065c0,12.96801 -10.51265,23.48066 -23.48066,23.48066z" data-paper-data="{&quot;index&quot;:null}" fill="#000000" stroke="#000000" stroke-width="2" stroke-linecap="butt"/><path d="M189.39019,140.27563c0,-12.968 10.51265,-23.48065 23.48065,-23.48065c12.968,0 23.48065,10.51265 23.48065,23.48065c0,12.968 -10.51265,23.48065 -23.48065,23.48065c-12.968,0 -23.48065,-10.51265 -23.48065,-23.48065z" fill="#ffffff" stroke="#000000" stroke-width="2" stroke-linecap="butt"/><path d="M193.70558,140c0,-10.64686 8.63098,-19.27784 19.27783,-19.27784c10.64686,0 19.27784,8.63099 19.27784,19.27784c0,10.64686 -8.63099,19.27784 -19.27784,19.27784c-10.64686,0 -19.27783,-8.63099 -19.27783,-19.27784z" fill="#000000" stroke="none" stroke-width="0" stroke-linecap="butt"/><path d="M267.12927,163.75627c-12.968,0 -23.48065,-10.51265 -23.48065,-23.48065c0,-12.968 10.51265,-23.48065 23.48065,-23.48065c12.968,0 23.48065,10.51265 23.48065,23.48065c0,12.968 -10.51265,23.48065 -23.48065,23.48065z" data-paper-data="{&quot;index&quot;:null}" fill="#ffffff" stroke="#000000" stroke-width="2" stroke-linecap="butt"/><path d="M267.01671,156.69451c-9.22012,0 -16.69449,-7.47439 -16.69449,-16.69451c0,-9.22013 7.47439,-16.69451 16.69449,-16.69451c9.22012,0 16.69449,7.47439 16.69449,16.69451c0,9.22013 -7.47439,16.69451 -16.69449,16.69451z" data-paper-data="{&quot;index&quot;:null}" fill="#000000" stroke="none" stroke-width="0" stroke-linecap="butt"/><path d="M236.13889,144.10902l-5.6,17.6" fill="none" stroke="#000000" stroke-width="2" stroke-linecap="round"/><path d="M247.33889,162.70901l-3.6,-20.4" fill="none" stroke="#000000" stroke-width="2" stroke-linecap="round"/><path d="M224.20139,196.44317c0,0 -10.33673,4.41262 -16.78218,-1.17095c-6.08563,-5.27186 -4.50354,-8.97191 -4.50354,-8.97191" fill="#95e600" stroke="#000000" stroke-width="2" stroke-linecap="round"/><path d="M276.9756,186.58602c0,0 2.58209,3.70005 -3.78925,8.6862c-6.34069,4.96216 -14.49647,1.02809 -14.49647,1.02809" data-paper-data="{&quot;index&quot;:null}" fill="#95e600" stroke="#000000" stroke-width="2" stroke-linecap="round"/><path d="M208.24231,192.21406c-6.34088,-5.87456 0.57347,-10.20209 1.15,-12.25c0.39867,-1.41616 -5.61058,-3.35077 -1.75,-9.75c3.58584,-5.9438 21.7774,3.5 32.75,3.5c10.5977,0 23.79921,-13.02959 32,-3.5c4.84876,5.63442 -1.76025,8.90894 -1.75,10.5c0.01504,2.33447 5.99727,4.11526 1.75,10.5c-4.90753,7.37729 -20.97924,-0.75 -31.75,-0.75c-10.81242,0 -24.14356,9.39926 -32.4,1.75z" fill="#ffffff" stroke="#000000" stroke-width="2" stroke-linecap="butt"/><path d="M270.51979,181.17605c0,0 -19.85999,1.11379 -29.99847,0.91988c-10.19454,-0.19498 -31.00153,-2.08655 -31.00153,-2.08655" fill="none" stroke="#000000" stroke-width="1" stroke-linecap="round"/></g></g></svg>