<svg version="1.1" xmlns="http://www.w3.org/2000/svg" xmlns:xlink="http://www.w3.org/1999/xlink" width="38.18851" height="38.1889" viewBox="0,0,38.18851,38.1889"><g transform="translate(-220.90574,-160.90555)"><g data-paper-data="{&quot;isPaintingLayer&quot;:true}" stroke-miterlimit="10" stroke-dasharray="" stroke-dashoffset="0" style="mix-blend-mode: normal"><path d="M253.32487,166.67494l-4.06518,4.0656c-2.45577,-2.45591 -5.78658,-3.83568 -9.25966,-3.83577v-5.74922c4.99779,0.00003 9.79088,1.98541 13.32485,5.51939z" fill="#a6a6a6" fill-rule="evenodd" stroke="#a6a6a6" stroke-width="0.5" stroke-linecap="round" stroke-linejoin="round"/><path d="M258.84424,180.00022h-5.74879c-0.00008,-3.4731 -1.37985,-6.8039 -3.83577,-9.25967l4.06518,-4.0656c3.53408,3.53408 5.51946,8.32734 5.51939,13.32527z" fill="#a6a6a6" fill-rule="evenodd" stroke="#a6a6a6" stroke-width="0.5" stroke-linecap="round" stroke-linejoin="round"/><path d="M258.84424,180.00022c-0.00004,4.99779 -1.98541,9.79088 -5.51939,13.32485l-4.06518,-4.06518c2.45591,-2.45577 3.83569,-5.78657 3.83577,-9.25966z" fill="#a6a6a6" fill-rule="evenodd" stroke="#a6a6a6" stroke-width="0.5" stroke-linecap="round" stroke-linejoin="round"/><path d="M253.32487,193.32506c-3.53397,3.53397 -8.32705,5.51935 -13.32485,5.51939v-5.74922c3.47303,0.00002 6.80383,-1.37958 9.25966,-3.83534z" fill="#a6a6a6" fill-rule="evenodd" stroke="#a6a6a6" stroke-width="0.5" stroke-linecap="round" stroke-linejoin="round"/><path d="M240.00002,166.90478c-3.47295,0.0002 -6.80356,1.37995 -9.25924,3.83577l-4.0656,-4.0656c3.53397,-3.53397 8.32706,-5.51935 13.32485,-5.51939z" fill="#727272" fill-rule="evenodd" stroke="#727272" stroke-width="0.5" stroke-linecap="round" stroke-linejoin="round"/><path d="M230.74078,170.74054c-2.45591,2.45577 -3.83568,5.78658 -3.83577,9.25967h-5.74922c-0.00008,-4.99794 1.98531,-9.7912 5.51939,-13.32527z" fill="#727272" fill-rule="evenodd" stroke="#727272" stroke-width="0.5" stroke-linecap="round" stroke-linejoin="round"/><path d="M226.90498,180.00022c-0.00002,3.47303 1.37958,6.80383 3.83533,9.25966l-4.06518,4.06518c-3.53397,-3.53397 -5.51935,-8.32705 -5.51939,-13.32485z" fill="#a6a6a6" fill-rule="evenodd" stroke="#a6a6a6" stroke-width="0.5" stroke-linecap="round" stroke-linejoin="round"/><path d="M240.00002,193.09523v5.74922c-4.99779,-0.00003 -9.79088,-1.98542 -13.32485,-5.51939l4.06518,-4.06518c2.45584,2.45576 5.78664,3.83538 9.25967,3.83534z" fill="#a6a6a6" fill-rule="evenodd" stroke="#a6a6a6" stroke-width="0.5" stroke-linecap="round" stroke-linejoin="round"/><path d="M253.09524,180c0,7.2323 -5.86294,13.09522 -13.09522,13.09522c-7.2323,0 -13.09522,-5.86293 -13.09522,-13.09522c0,-7.2323 5.86293,-13.09522 13.09522,-13.09522c7.2323,0 13.09522,5.86293 13.09522,13.09522" fill="#727272" fill-rule="evenodd" stroke="none" stroke-width="0.07853" stroke-linecap="round" stroke-linejoin="round"/><g fill-rule="nonzero" stroke-linejoin="miter"><path d="M243.85277,172.82498c0,0 4.74943,1.7262 4.46379,7.80688c-0.20838,4.43597 -3.33656,7.46047 -8.07188,7.85535c-4.09929,0.34183 -7.62256,-2.61704 -8.44306,-6.91596c-0.96059,-5.03289 3.69452,-8.24698 3.69452,-8.24698" fill="none" stroke="#ffffff" stroke-width="2" stroke-linecap="round"/><path d="M234.35751,170.45562c0,0 1.26233,-0.45227 3.31006,0.14245c1.75142,0.50869 3.20197,1.35249 3.20197,1.35249c0,0 -1.13071,0.48195 -2.36557,1.82324c-1.56265,1.6973 -2.14646,2.78306 -2.14646,2.78306z" fill="#ffffff" stroke="none" stroke-width="0" stroke-linecap="butt"/></g></g></g></svg>