<svg version="1.1" xmlns="http://www.w3.org/2000/svg" xmlns:xlink="http://www.w3.org/1999/xlink" width="188.66666" height="284.82023" viewBox="0,0,188.66666,284.82023"><defs><linearGradient x1="240.00006" y1="175.50003" x2="240.00006" y2="307.50003" gradientUnits="userSpaceOnUse" id="color-1"><stop offset="0" stop-color="#000000"/><stop offset="1" stop-color="#3e3f40"/></linearGradient><linearGradient x1="238.7302" y1="29.03229" x2="238.7302" y2="117.05464" gradientUnits="userSpaceOnUse" id="color-2"><stop offset="0" stop-color="#5d5f60"/><stop offset="1" stop-color="#19191a"/></linearGradient><linearGradient x1="240.07698" y1="74.54784" x2="240.07698" y2="195.14451" gradientUnits="userSpaceOnUse" id="color-3"><stop offset="0" stop-color="#18181a"/><stop offset="1" stop-color="#5d5f60"/></linearGradient><linearGradient x1="240.07698" y1="74.54784" x2="240.07698" y2="195.14451" gradientUnits="userSpaceOnUse" id="color-4"><stop offset="0" stop-color="#1a0000"/><stop offset="1" stop-color="#800000"/></linearGradient><radialGradient cx="212.87083" cy="135.27564" r="23.48065" gradientUnits="userSpaceOnUse" id="color-5"><stop offset="0" stop-color="#808080"/><stop offset="1" stop-color="#804040"/></radialGradient><linearGradient x1="239.68206" y1="182.04232" x2="239.68206" y2="195.72232" gradientUnits="userSpaceOnUse" id="color-6"><stop offset="0" stop-color="#1a0000"/><stop offset="1" stop-color="#800000"/></linearGradient><radialGradient cx="267.12927" cy="135.27561" r="23.48065" gradientUnits="userSpaceOnUse" id="color-7"><stop offset="0" stop-color="#808080"/><stop offset="1" stop-color="#804040"/></radialGradient><linearGradient x1="238.7302" y1="29.03229" x2="238.7302" y2="117.05464" gradientUnits="userSpaceOnUse" id="color-8"><stop offset="0" stop-color="#5d5f60"/><stop offset="1" stop-color="#19191a"/></linearGradient></defs><g transform="translate(-147.81482,-29.03229)"><g data-paper-data="{&quot;isPaintingLayer&quot;:true}" fill-rule="nonzero" stroke-linejoin="miter" stroke-miterlimit="10" stroke-dasharray="" stroke-dashoffset="0" style="mix-blend-mode: normal"><path d="M178.40899,313.85251v-267.22501h123.18203v267.22501z" fill-opacity="0.01" fill="#000000" stroke="none" stroke-width="0" stroke-linecap="butt"/><path d="M175.83996,132.34617c0,-0.59518 18.80391,-12.82481 64.28702,-13.29833c52.06799,-0.54206 64.18702,12.81194 64.18702,13.29833c0,33.30185 -28.7599,62.79833 -64.23702,62.79833c-35.47712,0 -64.23702,-29.49649 -64.23702,-62.79833z" fill="#1a0101" stroke="#000000" stroke-width="0" stroke-linecap="butt"/><path d="M206.75006,307.50002l15.14285,-131.8421l37.78325,-0.15789l13.57389,132z" fill="url(#color-1)" stroke="#000000" stroke-width="0" stroke-linecap="butt"/><path d="M245.23865,101.68008l1.38636,50.62829c0,0 -2.43253,1.5 -6.67593,1.33334c-3.66806,-0.14407 -6.57407,-1.33334 -6.57407,-1.33334l1.26514,-49.96608z" fill="url(#color-2)" stroke="#000000" stroke-width="0" stroke-linecap="butt"/><path d="M175.83996,132.34617c0,-0.59518 19.00391,8.42518 64.48702,7.95167c52.06799,-0.54207 63.98702,-8.43806 63.98702,-7.95167c0,33.30185 -28.7599,62.79833 -64.23702,62.79833c-35.47712,0 -64.23702,-29.49649 -64.23702,-62.79833z" fill="url(#color-3)" stroke="#000000" stroke-width="0" stroke-linecap="butt"/><path d="M181.50544,133.98534c8.60923,2.4342 27.39441,6.63968 58.82154,6.3125c32.51646,-0.33853 49.37481,-3.54508 57.45061,-5.78701c0.45345,-0.12589 -1.03194,22.9401 -4.52412,24.28442c-2.3903,0.92015 -1.43585,-19.87587 -5.62036,-18.21358c-0.65338,0.25956 -4.23364,0.10761 -5.13618,5.1987c-1.51873,8.56696 -0.47811,29.1537 -3.34054,29.08447c-3.9237,-0.09491 -2.44315,-9.74005 -7.6236,-9.70011c-4.22854,0.0326 -9.15074,-20.75741 -12.85699,-18.81507c-1.91793,1.00513 -8.13847,-5.18828 -10.04765,-2.22568c-2.34446,3.63806 -0.3887,16.42673 -2.89697,16.36844c-4.0031,-0.09302 -2.05596,-12.6698 -5.6464,-12.64745c-3.46309,0.02156 -1.03857,11.84656 -4.34114,11.96618c-3.32957,0.1206 -3.06737,-13.43973 -5.64388,-15.43385c-3.67153,-2.84162 -8.72843,5.36278 -12.80393,4.47295c-5.13902,-1.12204 -4.91812,17.27761 -9.21456,17.18644c-3.29409,-0.0699 -2.34813,-5.84422 -4.90115,-6.15599c-4.15791,-0.50776 -0.61009,11.9736 -3.99346,11.9576c-3.30479,-0.01563 -7.86909,-28.78098 -8.84569,-28.68551c-2.61337,0.25549 1.71268,14.51926 -2.10724,14.91396c-3.81992,0.3947 -6.72831,-24.08143 -6.72831,-24.08143z" fill="url(#color-4)" stroke="#000000" stroke-width="0" stroke-linecap="butt"/><path d="M189.39018,135.27564c0,-12.968 10.51265,-23.48065 23.48065,-23.48065c12.968,0 23.48065,10.51265 23.48065,23.48065c0,12.968 -10.51265,23.48065 -23.48065,23.48065c-12.968,0 -23.48065,-10.51265 -23.48065,-23.48065z" fill="url(#color-5)" stroke="#000000" stroke-width="0" stroke-linecap="butt"/><path d="M229.77178,189.84511c-0.92113,-0.11106 -1.36972,-7.80279 -1.36972,-7.80279l24.24,-0.12c0,0 0.62794,10.15153 -1.56,10.32c-2.2117,0.1703 -0.76333,-3.85755 -2.97919,-3.75664c-1.79697,-0.10249 -1.83455,2.16933 -3.14836,2.40227c-1.32147,0.08782 -1.85152,-7.54793 -4.19618,-7.69145c-2.52269,-0.15442 -8.05678,-0.64503 -8.05678,-0.64503c0,0 -1.60929,7.45283 -2.92977,7.29362z" fill="url(#color-6)" stroke="none" stroke-width="0" stroke-linecap="butt"/><path d="M267.12926,158.75627c-12.968,0 -23.48065,-10.51265 -23.48065,-23.48065c0,-12.968 10.51265,-23.48065 23.48065,-23.48065c12.968,0 23.48065,10.51265 23.48065,23.48065c0,12.968 -10.51265,23.48065 -23.48065,23.48065z" data-paper-data="{&quot;index&quot;:null}" fill="url(#color-7)" stroke="#000000" stroke-width="0" stroke-linecap="butt"/><path d="M240.07156,186.54982c-5.01054,-0.0941 -15.28584,-2.85044 -15.28584,-2.85044c0,0 1.07469,-14.5669 14.66029,-14.24683c14.01401,0.33016 15.76828,14.81826 15.76828,14.81826c0,0 -10.0132,2.37534 -15.14273,2.27901z" fill="#000000" stroke="#000000" stroke-width="2" stroke-linecap="round"/><path d="M196.45556,131.4c0,-9.12808 7.39976,-16.52784 16.52783,-16.52784c9.12808,0 16.52784,7.39977 16.52784,16.52784c0,9.12808 -7.39977,16.52784 -16.52784,16.52784c-9.12808,0 -16.52783,-7.39977 -16.52783,-16.52784z" fill="#000000" stroke="none" stroke-width="0" stroke-linecap="butt"/><path d="M267.0167,147.92784c-9.12807,0 -16.52783,-7.39977 -16.52783,-16.52784c0,-9.12808 7.39977,-16.52784 16.52783,-16.52784c9.12807,0 16.52783,7.39977 16.52783,16.52784c0,9.12808 -7.39977,16.52784 -16.52783,16.52784z" data-paper-data="{&quot;index&quot;:null}" fill="#000000" stroke="none" stroke-width="0" stroke-linecap="butt"/><path d="M336.48148,102.81137c0,10.30931 -42.23447,25.66666 -94.33333,25.66666c-52.09886,0 -94.33333,-15.35735 -94.33333,-25.66666c0,-10.30931 42.23447,-23.66666 94.33333,-23.66666c52.09886,0 94.33333,13.35735 94.33333,23.66666z" fill="#5d5f60" stroke="#000000" stroke-width="0" stroke-linecap="butt"/><path d="M236.23568,39.32749c0,0 0.77342,-6.79148 -3.20744,-5.3051c-3.19631,1.19344 -10.92266,5.51814 -10.92266,5.51814c0,0 3.95548,-7.29662 8.98012,-9.95423c4.02875,-2.13086 9.17263,2.57207 9.17263,2.57207c0,0 4.73043,-4.16255 7.78452,-2.26642c4.01386,2.492 7.31197,9.83713 7.31197,9.83713c0,0 -5.97898,-3.40735 -8.62109,-4.74643c-2.91466,-1.4772 -3.20818,4.13691 -3.20818,4.13691l1.74009,63.54642c0,0 -0.26329,2.30377 -5.31657,2.34044c-5.05314,0.03667 -5.32248,-2.12893 -5.32248,-2.12893z" fill="url(#color-8)" stroke="#000000" stroke-width="0" stroke-linecap="butt"/><path d="M227.7904,183.78694l0.72727,-1.90909c0,0 7.62133,1.82265 11.32876,1.92772c3.77616,0.10702 11.12578,-1.29136 11.12578,-1.29136l0.54545,2c0,0 -7.79291,1.76821 -11.67513,1.64922c-4.02193,-0.12328 -12.05215,-2.37649 -12.05215,-2.37649z" fill="#808080" stroke="none" stroke-width="0" stroke-linecap="butt"/></g></g></svg>