<svg version="1.1" xmlns="http://www.w3.org/2000/svg" xmlns:xlink="http://www.w3.org/1999/xlink" width="34.17311" height="34.17311" viewBox="0,0,34.17311,34.17311"><g transform="translate(-222.91346,-162.91346)"><g data-paper-data="{&quot;isPaintingLayer&quot;:true}" stroke-miterlimit="10" stroke-dasharray="" stroke-dashoffset="0" style="mix-blend-mode: normal"><path d="M229.98313,162.91346h20.03378c3.9166,0 7.06966,3.15307 7.06966,7.06966v20.03379c0,3.91659 -3.15306,7.06966 -7.06966,7.06966h-20.03378c-3.91659,0 -7.06967,-3.15307 -7.06967,-7.06966v-20.03379c0,-3.91659 3.15308,-7.06966 7.06967,-7.06966z" fill-opacity="0.09677" fill="#191919" fill-rule="evenodd" stroke="none" stroke-width="4.43922" stroke-linecap="round" stroke-linejoin="round"/><path d="M235.08591,195.71926c0,0 0.70774,-4.89679 1.06557,-8.47055c0.36318,-3.6272 0.15107,-13.21228 0.15107,-13.21228l7.02038,0.05169c0,0 -0.17423,9.13769 0.17683,13.05384c0.27821,3.10353 1.08613,8.5773 1.08613,8.5773z" fill="#4d4d4d" fill-rule="nonzero" stroke="#000000" stroke-width="0.5" stroke-linecap="butt" stroke-linejoin="miter"/><path d="M228.0036,173.44119c0,-5.05916 5.4468,-9.16041 12.16577,-9.16041c6.71898,0 12.16578,4.10126 12.16578,9.16042c0,5.05916 -5.44681,9.16041 -12.16578,9.16041c-6.71897,0 -12.16577,-4.10125 -12.16577,-9.16041z" fill="#cccccc" fill-rule="nonzero" stroke="#000000" stroke-width="0.5" stroke-linecap="butt" stroke-linejoin="miter"/></g></g></svg>