<svg version="1.1" xmlns="http://www.w3.org/2000/svg" xmlns:xlink="http://www.w3.org/1999/xlink" width="13.00659" height="10.69991" viewBox="0,0,13.00659,10.69991"><g transform="translate(-233.4967,-174.65004)"><g data-paper-data="{&quot;isPaintingLayer&quot;:true}" fill="#acacac" fill-rule="nonzero" stroke="none" stroke-width="0" stroke-linecap="butt" stroke-linejoin="miter" stroke-miterlimit="10" stroke-dasharray="" stroke-dashoffset="0" style="mix-blend-mode: normal"><path d="M234.10258,177.71905c0.45765,0 2.26211,-0.05129 2.26211,-0.05129c0,0 2.20257,-2.3504 2.81769,-2.89236c0.24348,-0.21452 0.50979,-0.17511 0.50979,0.286c0,2.21505 0,8.74676 0,9.95304c0,0.37474 -0.26755,0.43289 -0.50704,0.18786c-0.58206,-0.59554 -2.91812,-2.98753 -2.91812,-2.98753c0,0 -1.66636,0 -2.15963,0c-0.24813,0 -0.61068,-0.30584 -0.61068,-0.61971c0,-0.88148 0,-2.53263 0,-3.10521c0,-0.35319 0.34766,-0.7708 0.60589,-0.7708z" data-paper-data="{&quot;index&quot;:null}"/><path d="M245.38416,182.70138c-0.91102,-0.91102 -3.07341,-3.07342 -3.64518,-3.64518c-0.28661,-0.28661 -0.19047,-0.80139 -0.04282,-0.94904c0.19844,-0.19844 0.64756,-0.33376 0.95314,-0.02817c0.58835,0.58835 2.82027,2.82027 3.71206,3.71206c0.28821,0.28821 0.07413,0.73486 -0.08617,0.89514c-0.15404,0.15404 -0.62182,0.28441 -0.89106,0.01518z" data-paper-data="{&quot;index&quot;:null}"/><path d="M241.7822,182.68618c-0.1603,-0.1603 -0.37436,-0.60694 -0.08617,-0.89515c0.8918,-0.8918 3.12372,-3.12372 3.71206,-3.71206c0.30558,-0.30559 0.7547,-0.17028 0.95315,0.02817c0.14766,0.14766 0.2438,0.66244 -0.04281,0.94905c-0.57177,0.57177 -2.73417,2.73418 -3.64518,3.64518c-0.26923,0.26923 -0.73701,0.13884 -0.89106,-0.01518z" data-paper-data="{&quot;index&quot;:null}"/></g></g></svg>