<svg version="1.1" xmlns="http://www.w3.org/2000/svg" xmlns:xlink="http://www.w3.org/1999/xlink" width="186.75686" height="267.22501" viewBox="0,0,186.75686,267.22501"><g transform="translate(-147.0622,-46.38752)"><g data-paper-data="{&quot;isPaintingLayer&quot;:true}" fill-rule="nonzero" stroke-linejoin="miter" stroke-miterlimit="10" stroke-dasharray="" stroke-dashoffset="0" style="mix-blend-mode: normal"><path d="M179.28377,313.61253v-267.22501h123.18203v267.22501z" fill-opacity="0.01" fill="#000000" stroke="none" stroke-width="0" stroke-linecap="butt"/><g stroke="#000000" stroke-width="2" stroke-linecap="butt"><path d="M212.63362,117.52855l-49.49748,-49.49748l5.18545,-5.18544l49.49747,49.49748z" fill="#ffb780"/><path d="M153.23665,77.93057c-6.89926,-6.89926 -6.89926,-18.08518 0,-24.98444c6.89926,-6.89926 18.08518,-6.89926 24.98444,0c6.89926,6.89926 6.89926,18.08518 0,24.98444c-6.89926,6.89926 -18.08518,6.89926 -24.98444,0z" fill="#ff6f00"/></g><g data-paper-data="{&quot;index&quot;:null}" stroke="#000000" stroke-width="2" stroke-linecap="butt"><path d="M263.06219,112.34311l49.49748,-49.49747l5.18544,5.18544l-49.49747,49.49748z" fill="#ffb780"/><path d="M302.66017,77.93057c-6.89926,-6.89926 -6.89926,-18.08518 0,-24.98444c6.89926,-6.89926 18.08518,-6.89926 24.98444,0c6.89926,6.89926 6.89926,18.08518 0,24.98444c-6.89926,6.89926 -18.08518,6.89926 -24.98444,0z" fill="#ff6f00"/></g><path d="M206.75009,307.50001l15.14285,-131.8421l37.78325,-0.15789l13.57389,132z" fill="#ff6f00" stroke="#000000" stroke-width="2" stroke-linecap="butt"/><path d="M219.70031,204.11265l3.12142,-26.32765l35.83075,-0.14203l2.76735,26.1059c0,0 -7.51543,4.19603 -21.55904,4.50964c-12.48458,0.27879 -20.16049,-4.14586 -20.16049,-4.14586z" fill="#e46300" stroke="#000000" stroke-width="0" stroke-linecap="butt"/><path d="M175.83999,138.84617c0,-33.30185 28.7599,-60.29833 64.23702,-60.29833c35.47712,0 64.23702,26.99649 64.23702,60.29833c0,33.30185 -28.7599,60.29833 -64.23702,60.29833c-35.47712,0 -64.23702,-26.99649 -64.23702,-60.29833z" fill="#ff6f00" stroke="#000000" stroke-width="2" stroke-linecap="butt"/><path d="M176.56305,138.90002c0,-0.72799 5.20666,55.91939 63.36046,56.93429c55.56352,0.9697 63.51358,-57.95314 63.51358,-56.93429c0,32.80479 -28.40173,59.39833 -63.43702,59.39833c-35.03529,0 -63.43702,-26.59354 -63.43702,-59.39833z" fill="#e46300" stroke="#000000" stroke-width="0" stroke-linecap="butt"/><path d="M189.39021,139.27565c0,-12.968 10.51265,-23.48065 23.48065,-23.48065c12.968,0 23.48065,10.51265 23.48065,23.48065c0,12.968 -10.51265,23.48065 -23.48065,23.48065c-12.968,0 -23.48065,-10.51265 -23.48065,-23.48065z" fill="#ffffff" stroke="#000000" stroke-width="2" stroke-linecap="butt"/><path d="M196.45559,139.00001c0,-9.12808 7.39976,-16.52784 16.52783,-16.52784c9.12808,0 16.52784,7.39977 16.52784,16.52784c0,9.12808 -7.39977,16.52784 -16.52784,16.52784c-9.12808,0 -16.52783,-7.39977 -16.52783,-16.52784z" fill="#000000" stroke="none" stroke-width="0" stroke-linecap="butt"/><path d="M267.12926,162.75629c-12.968,0 -23.48065,-10.51265 -23.48065,-23.48065c0,-12.968 10.51265,-23.48065 23.48065,-23.48065c12.968,0 23.48065,10.51265 23.48065,23.48065c0,12.968 -10.51265,23.48065 -23.48065,23.48065z" data-paper-data="{&quot;index&quot;:null}" fill="#ffffff" stroke="#000000" stroke-width="2" stroke-linecap="butt"/><path d="M267.01671,155.52785c-9.12807,0 -16.52783,-7.39977 -16.52783,-16.52784c0,-9.12808 7.39977,-16.52784 16.52783,-16.52784c9.12807,0 16.52783,7.39977 16.52783,16.52784c0,9.12808 -7.39977,16.52784 -16.52783,16.52784z" data-paper-data="{&quot;index&quot;:null}" fill="#000000" stroke="none" stroke-width="0" stroke-linecap="butt"/><path d="M189.39021,139.27565c0,-12.968 10.51265,-23.48065 23.48065,-23.48065c12.968,0 23.48065,10.51265 23.48065,23.48065c0,0 -12.07985,1.81679 -23.98627,1.96836c-11.5694,0.14729 -22.97504,-1.36143 -22.97504,-1.96836z" fill="#ff6f00" stroke="#000000" stroke-width="2" stroke-linecap="butt"/><path d="M243.64865,139.27565c0,-12.968 10.51265,-23.48065 23.48065,-23.48065c12.968,0 23.48065,10.51265 23.48065,23.48065c0,0.62059 -12.2758,2.10659 -24.27477,1.94468c-11.46974,-0.15477 -22.68654,-1.94468 -22.68654,-1.94468z" data-paper-data="{&quot;index&quot;:null}" fill="#ff6f00" stroke="#000000" stroke-width="2" stroke-linecap="butt"/><path d="M174.61172,123.14468l-7.38022,3c0,0 -0.61983,-76.56595 73.48132,-76.66666c73.73495,-0.10021 72.51868,77.33333 72.51868,77.33333l-8.66374,-4c0,0 0.0045,-64.86172 -63.85494,-66.33334c-61.84366,-1.42516 -66.1011,66.66667 -66.1011,66.66667z" fill="#ffb780" stroke="#000000" stroke-width="2" stroke-linecap="butt"/><path d="M158.14816,139.32987c0,-12.51846 9.08054,-22.66667 20.28196,-22.66667c1.01424,0 1.18635,45.33333 0,45.33333c-11.20142,0 -20.28196,-10.14821 -20.28196,-22.66666z" fill="#ff6f00" stroke="#000000" stroke-width="2" stroke-linecap="butt"/><path d="M173.21879,163.32987v-48.33334h10.14098v48.33334z" fill="#ffb780" stroke="#000000" stroke-width="2" stroke-linecap="butt"/><path d="M302.45653,161.99654c-1.18635,0 -1.01423,-45.33333 0,-45.33333c11.20142,0 20.28197,10.14821 20.28197,22.66667c0,12.51845 -9.08055,22.66666 -20.28197,22.66666z" data-paper-data="{&quot;index&quot;:null}" fill="#ff6f00" stroke="#000000" stroke-width="2" stroke-linecap="butt"/><path d="M297.16436,163.32987v-48.33334h10.14098v48.33334z" fill="#ffb780" stroke="#000000" stroke-width="2" stroke-linecap="butt"/><path d="M257.61575,85.94272l4.83333,21.33333l-23.83333,-11.5l1.33333,11.33334l-23,-18" fill="none" stroke="#000000" stroke-width="2" stroke-linecap="round"/><path d="M202.02788,105.13384c0,0 6.70895,-5.16922 11.79721,-6.36355c5.08827,-1.19433 12.33413,0.69937 12.33413,0.69937c0,0 -8.03812,-0.06028 -11.96762,0.86207c-4.10648,0.96389 -12.16372,4.80211 -12.16372,4.80211z" fill="#000000" stroke="none" stroke-width="0" stroke-linecap="butt"/><path d="M265.96236,100.33174c-3.9295,-0.92235 -11.96762,-0.86207 -11.96762,-0.86207c0,0 7.24586,-1.8937 12.33413,-0.69937c5.08826,1.19433 11.79721,6.36355 11.79721,6.36355c0,0 -8.05724,-3.83822 -12.16372,-4.80211z" data-paper-data="{&quot;index&quot;:null}" fill="#000000" stroke="none" stroke-width="0" stroke-linecap="butt"/><path d="M247.22508,184.3c0,4.60279 -3.23474,8.3341 -7.225,8.3341c-3.99026,0 -7.225,-3.7313 -7.225,-8.3341c0,-4.60279 3.23474,-8.3341 7.225,-8.3341c3.99026,0 7.225,3.7313 7.225,8.3341z" fill="#000000" stroke="none" stroke-width="0" stroke-linecap="butt"/></g></g></svg>