<svg version="1.1" xmlns="http://www.w3.org/2000/svg" xmlns:xlink="http://www.w3.org/1999/xlink" width="194.68022" height="267.22501" viewBox="0,0,194.68022,267.22501"><defs><linearGradient x1="262.27618" y1="110.05702" x2="337.00259" y2="110.05702" gradientUnits="userSpaceOnUse" id="color-1"><stop offset="0" stop-color="#000000"/><stop offset="1" stop-color="#333333"/></linearGradient><linearGradient x1="142.32235" y1="113.0285" x2="218.34492" y2="113.0285" gradientUnits="userSpaceOnUse" id="color-2"><stop offset="0" stop-color="#333333"/><stop offset="1" stop-color="#000000"/></linearGradient><linearGradient x1="240" y1="175.50001" x2="240" y2="307.50001" gradientUnits="userSpaceOnUse" id="color-3"><stop offset="0" stop-color="#000000"/><stop offset="1" stop-color="#595959"/></linearGradient><linearGradient x1="240.00001" y1="76.70167" x2="240.00001" y2="197.29834" gradientUnits="userSpaceOnUse" id="color-4"><stop offset="0" stop-color="#1a1a1a"/><stop offset="1" stop-color="#404040"/></linearGradient></defs><g transform="translate(-142.32236,-46.38751)"><g data-paper-data="{&quot;isPaintingLayer&quot;:true}" fill-rule="nonzero" stroke-linejoin="miter" stroke-miterlimit="10" stroke-dasharray="" stroke-dashoffset="0" style="mix-blend-mode: normal"><path d="M179.28373,313.61252v-267.22501h123.18203v267.22501z" fill-opacity="0.01" fill="#000000" stroke="none" stroke-width="0" stroke-linecap="butt"/><path d="M273.40269,92.69087c10.70956,-5.96082 63.5999,-8.70888 63.5999,-8.70888c0,0 -30.20672,43.50281 -40.91628,49.46362c-10.70956,5.96082 -24.46927,1.66975 -30.73318,-9.58436c-6.26391,-11.2541 -2.66,-25.20956 8.04956,-31.17038z" data-paper-data="{&quot;index&quot;:null}" fill="url(#color-1)" stroke="#000000" stroke-width="0" stroke-linecap="butt"/><path d="M215.80982,124.58788c-5.71447,11.5428 -19.25149,16.49176 -30.23577,11.0538c-10.98428,-5.43796 -43.25168,-47.43505 -43.25168,-47.43505c0,0 52.96132,0.19688 63.94561,5.63484c10.98428,5.43796 15.25631,19.2036 9.54184,30.7464z" data-paper-data="{&quot;index&quot;:null}" fill="url(#color-2)" stroke="#000000" stroke-width="0" stroke-linecap="butt"/><path d="M206.75001,307.5l15.14285,-131.8421l37.78325,-0.15789l13.57389,132z" fill="url(#color-3)" stroke="#000000" stroke-width="0" stroke-linecap="butt"/><path d="M175.76299,137c0,-33.30185 28.7599,-60.29833 64.23702,-60.29833c35.47713,0 64.23702,26.99648 64.23702,60.29833c0,33.30185 -28.75989,60.29834 -64.23702,60.29834c-35.47712,0 -64.23702,-26.99649 -64.23702,-60.29834z" fill="url(#color-4)" stroke="#000000" stroke-width="0" stroke-linecap="butt"/><path d="M189.39013,138.52563c0,-12.96801 10.51265,-23.48065 23.48066,-23.48065c12.96801,0 23.48065,10.51264 23.48065,23.48065c0,12.96801 -10.51264,23.48066 -23.48065,23.48066c-12.96801,0 -23.48066,-10.51265 -23.48066,-23.48066z" fill="#000000" stroke="#000000" stroke-width="2" stroke-linecap="butt"/><path d="M189.39013,137.27563c0,-12.96801 10.51265,-23.48065 23.48066,-23.48065c12.96801,0 23.48065,10.51264 23.48065,23.48065c0,12.96801 -10.51264,23.48066 -23.48065,23.48066c-12.96801,0 -23.48066,-10.51265 -23.48066,-23.48066z" fill="#808080" stroke="#000000" stroke-width="2" stroke-linecap="butt"/><path d="M201.50553,137c0,-6.22858 5.04926,-11.27784 11.27784,-11.27784c6.22858,0 11.27784,5.04927 11.27784,11.27785c0,6.22858 -5.04927,11.27785 -11.27784,11.27785c-6.22858,0 -11.27784,-5.04927 -11.27784,-11.27785z" fill="#1a1a1a" stroke="none" stroke-width="0" stroke-linecap="butt"/><path d="M206.69142,137c0,-3.36449 2.72746,-6.09195 6.09195,-6.09195c3.36449,0 6.09195,2.72746 6.09195,6.09196c0,3.36449 -2.72746,6.09196 -6.09195,6.09196c-3.36449,0 -6.09195,-2.72747 -6.09195,-6.09196z" fill="#808080" stroke="none" stroke-width="0" stroke-linecap="butt"/><path d="M225.84033,176.65644c0,0 9.56166,-0.33334 13.60875,-0.33334c4.30663,0 14.00085,0.33334 14.00085,0.33334" fill="none" stroke="#000000" stroke-width="1.5" stroke-linecap="round"/><path d="M267.12923,162.00629c-12.96801,0 -23.48065,-10.51265 -23.48065,-23.48066c0,-12.96801 10.51264,-23.48065 23.48065,-23.48065c12.96801,0 23.48066,10.51264 23.48066,23.48065c0,12.96801 -10.51265,23.48066 -23.48066,23.48066z" data-paper-data="{&quot;index&quot;:null}" fill="#000000" stroke="#000000" stroke-width="2" stroke-linecap="butt"/><path d="M267.12923,160.75629c-12.96801,0 -23.48065,-10.51265 -23.48065,-23.48066c0,-12.96801 10.51264,-23.48065 23.48065,-23.48065c12.96801,0 23.48066,10.51264 23.48066,23.48065c0,12.96801 -10.51265,23.48066 -23.48066,23.48066z" data-paper-data="{&quot;index&quot;:null}" fill="#808080" stroke="#000000" stroke-width="2" stroke-linecap="butt"/><path d="M278.99449,137c0,6.50473 -5.27312,11.77785 -11.77784,11.77785c-6.50472,0 -11.77784,-5.27313 -11.77784,-11.77785c0,-6.50473 5.27312,-11.77785 11.77784,-11.77785c6.50472,0 11.77784,5.27312 11.77784,11.77784z" data-paper-data="{&quot;index&quot;:null}" fill="#1a1a1a" stroke="none" stroke-width="0" stroke-linecap="butt"/><path d="M273.57867,137c0,3.51365 -2.84837,6.36204 -6.36203,6.36204c-3.51365,0 -6.36204,-2.84839 -6.36204,-6.36204c0,-3.51365 2.84839,-6.36204 6.36204,-6.36204c3.51365,0 6.36203,2.84838 6.36203,6.36204z" data-paper-data="{&quot;index&quot;:null}" fill="#808080" stroke="none" stroke-width="0" stroke-linecap="butt"/><path d="M202.02783,102.71717c0,0 6.70895,-5.16922 11.79721,-6.36355c5.08827,-1.19433 12.33413,0.69937 12.33413,0.69937c0,0 -8.03812,-0.06028 -11.96762,0.86207c-4.10648,0.96389 -12.16372,4.80211 -12.16372,4.80211z" fill="#000000" stroke="none" stroke-width="0" stroke-linecap="butt"/><path d="M265.96236,98.16507c-3.9295,-0.92235 -11.96762,-0.86207 -11.96762,-0.86207c0,0 7.24586,-1.8937 12.33413,-0.69937c5.08826,1.19433 11.79721,6.36355 11.79721,6.36355c0,0 -8.05724,-3.83822 -12.16372,-4.80211z" data-paper-data="{&quot;index&quot;:null}" fill="#000000" stroke="none" stroke-width="0" stroke-linecap="butt"/><path d="M193.5889,163.91643c0,-0.41421 0.33579,-0.75 0.75,-0.75c0.41421,0 0.75,0.33579 0.75,0.75c0,0.41421 -0.33579,0.75 -0.75,0.75c-0.41421,0 -0.75,-0.33579 -0.75,-0.75z" fill="#000000" stroke="none" stroke-width="0.5" stroke-linecap="butt"/><path d="M204.3889,168.31643c0,-0.41421 0.33579,-0.75 0.75,-0.75c0.41421,0 0.75,0.33579 0.75,0.75c0,0.41421 -0.33579,0.75 -0.75,0.75c-0.41421,0 -0.75,-0.33579 -0.75,-0.75z" fill="#000000" stroke="none" stroke-width="0.5" stroke-linecap="butt"/><path d="M198.1889,173.11643c0,-0.41421 0.33579,-0.75 0.75,-0.75c0.41421,0 0.75,0.33579 0.75,0.75c0,0.41421 -0.33579,0.75 -0.75,0.75c-0.41421,0 -0.75,-0.33579 -0.75,-0.75z" fill="#000000" stroke="none" stroke-width="0.5" stroke-linecap="butt"/><path d="M285.66113,164.66643c-0.41422,0 -0.75,-0.33578 -0.75,-0.75c0,-0.41422 0.33578,-0.75 0.75,-0.75c0.41422,0 0.75,0.33578 0.75,0.75c0,0.41422 -0.33578,0.75 -0.75,0.75z" data-paper-data="{&quot;index&quot;:null}" fill="#000000" stroke="none" stroke-width="0.5" stroke-linecap="butt"/><path d="M274.86113,169.06643c-0.41422,0 -0.75,-0.33578 -0.75,-0.75c0,-0.41422 0.33578,-0.75 0.75,-0.75c0.41422,0 0.75,0.33578 0.75,0.75c0,0.41422 -0.33578,0.75 -0.75,0.75z" data-paper-data="{&quot;index&quot;:null}" fill="#000000" stroke="none" stroke-width="0.5" stroke-linecap="butt"/><path d="M281.06111,173.86643c-0.41422,0 -0.75,-0.33578 -0.75,-0.75c0,-0.41422 0.33578,-0.75 0.75,-0.75c0.41422,0 0.75,0.33578 0.75,0.75c0,0.41422 -0.33578,0.75 -0.75,0.75z" data-paper-data="{&quot;index&quot;:null}" fill="#000000" stroke="none" stroke-width="0.5" stroke-linecap="butt"/><path d="M189.30684,137.36806c0,-12.96801 10.51265,-23.48065 23.48066,-23.48065c12.96801,0 23.48065,10.51264 23.48065,23.48065c0,0 -6.95852,-14.64634 -23.43307,-14.78879c-16.22494,-0.14029 -23.52823,15.4054 -23.52823,14.78879z" fill="#000000" stroke="#000000" stroke-width="2" stroke-linecap="butt"/><path d="M243.64863,137.26806c0,-12.96801 10.51264,-23.48065 23.48065,-23.48065c12.96801,0 23.48066,10.51264 23.48066,23.48065c0,0.60606 -7.87275,-14.38438 -22.92496,-14.781c-15.05221,-0.39662 -24.03635,14.781 -24.03635,14.781z" data-paper-data="{&quot;index&quot;:null}" fill="#000000" stroke="#000000" stroke-width="2" stroke-linecap="butt"/></g></g></svg>