<svg version="1.1" xmlns="http://www.w3.org/2000/svg" xmlns:xlink="http://www.w3.org/1999/xlink" width="166.71598" height="297.35278" viewBox="0,0,166.71598,297.35278"><defs><linearGradient x1="240.00008" y1="175.50001" x2="240.00008" y2="307.50001" gradientUnits="userSpaceOnUse" id="color-1"><stop offset="0" stop-color="#000000"/><stop offset="1" stop-color="#1f6625"/></linearGradient><linearGradient x1="227.40178" y1="73.16471" x2="251.45832" y2="200.91727" gradientUnits="userSpaceOnUse" id="color-2"><stop offset="0" stop-color="#071a09"/><stop offset="1" stop-color="#26802e"/></linearGradient><linearGradient x1="268.90458" y1="132.54291" x2="279.61917" y2="189.4429" gradientUnits="userSpaceOnUse" id="color-3"><stop offset="0" stop-color="#1a0000"/><stop offset="1" stop-color="#800000"/></linearGradient><linearGradient x1="211.50131" y1="139.62118" x2="222.86359" y2="199.96071" gradientUnits="userSpaceOnUse" id="color-4"><stop offset="0" stop-color="#1a0000"/><stop offset="1" stop-color="#800000"/></linearGradient><linearGradient x1="267.65261" y1="62.14375" x2="284.26276" y2="150.35211" gradientUnits="userSpaceOnUse" id="color-5"><stop offset="0" stop-color="#000000"/><stop offset="1" stop-color="#331b00"/></linearGradient><linearGradient x1="189.03872" y1="69.66832" x2="194.66963" y2="150.5321" gradientUnits="userSpaceOnUse" id="color-6"><stop offset="0" stop-color="#000000"/><stop offset="1" stop-color="#1a0e00"/></linearGradient><linearGradient x1="193.11368" y1="72.99675" x2="199.24055" y2="160.9829" gradientUnits="userSpaceOnUse" id="color-7"><stop offset="0" stop-color="#000000"/><stop offset="1" stop-color="#331b00"/></linearGradient><linearGradient x1="189.90327" y1="70.07043" x2="197.61073" y2="180.75485" gradientUnits="userSpaceOnUse" id="color-8"><stop offset="0" stop-color="#000000"/><stop offset="1" stop-color="#4d2900"/></linearGradient><linearGradient x1="238.25749" y1="76.53565" x2="240.88474" y2="114.26479" gradientUnits="userSpaceOnUse" id="color-9"><stop offset="0" stop-color="#000000"/><stop offset="1" stop-color="#1a0e00"/></linearGradient><linearGradient x1="267.82016" y1="68.02603" x2="272.29064" y2="132.22527" gradientUnits="userSpaceOnUse" id="color-10"><stop offset="0" stop-color="#000000"/><stop offset="1" stop-color="#4d2900"/></linearGradient><linearGradient x1="211.20803" y1="73.46653" x2="216.21424" y2="145.35916" gradientUnits="userSpaceOnUse" id="color-11"><stop offset="0" stop-color="#000000"/><stop offset="1" stop-color="#4d2900"/></linearGradient><linearGradient x1="258.28282" y1="97.31072" x2="268.40182" y2="151.04778" gradientUnits="userSpaceOnUse" id="color-12"><stop offset="0" stop-color="#000000" stop-opacity="0"/><stop offset="1" stop-color="#000000" stop-opacity="0.49989"/></linearGradient><radialGradient cx="262.45835" cy="39.7446" r="23.48065" gradientUnits="userSpaceOnUse" id="color-13"><stop offset="0" stop-color="#808080"/><stop offset="1" stop-color="#1a0000"/></radialGradient><linearGradient x1="209.28088" y1="115.16091" x2="217.83176" y2="160.57041" gradientUnits="userSpaceOnUse" id="color-14"><stop offset="0" stop-color="#010401" stop-opacity="0"/><stop offset="1" stop-color="#010401" stop-opacity="0.49989"/></linearGradient><radialGradient cx="174.18178" cy="76.2103" r="23.48065" gradientUnits="userSpaceOnUse" id="color-15"><stop offset="0" stop-color="#808080"/><stop offset="1" stop-color="#1a0000"/></radialGradient></defs><g transform="translate(-150.69691,-16.25973)"><g data-paper-data="{&quot;isPaintingLayer&quot;:true}" fill-rule="nonzero" stroke-linejoin="miter" stroke-miterlimit="10" stroke-dasharray="" stroke-dashoffset="0" style="mix-blend-mode: normal"><path d="M179.28377,313.61251v-267.22501h123.18203v267.22501z" fill-opacity="0.01" fill="#000000" stroke="none" stroke-width="0" stroke-linecap="butt"/><g fill="#000000" stroke="#000000" stroke-width="0" stroke-linecap="butt"><path d="M274.28526,218.23895c-12.97342,-0.30513 -18.28664,-121.45311 -18.28664,-121.45311l12.52052,-2.62799c0,0 18.35377,124.37717 5.76613,124.0811z" data-paper-data="{&quot;index&quot;:null}"/><path d="M201.03755,79.67742l12.7639,0.86732c0,0 12.77919,138.67168 -0.02673,140.77195c-12.42512,2.03782 -12.73717,-141.63926 -12.73717,-141.63926z"/><path d="M204.4995,212.71114c-12.95281,-0.79201 -11.85779,-105.1294 -11.85779,-105.1294l12.61035,-2.15605c0,0 11.81509,108.05393 -0.75256,107.28547z" data-paper-data="{&quot;index&quot;:null}"/><path d="M188.10342,203.07656c-11.96852,-1.18812 -5.98872,-97.58938 -5.98872,-97.58938l12.68295,-1.67699c0,0 5.8353,100.51018 -6.69424,99.26637z" data-paper-data="{&quot;index&quot;:null}"/><path d="M282.80877,206.28464c-12.97342,-0.30513 -16.40915,-108.8865 -16.40915,-108.8865l12.52051,-2.62799c0,0 16.47628,111.81057 3.88864,111.51451z" data-paper-data="{&quot;index&quot;:null}"/><path d="M295.5338,192.42598c-12.96551,0.54615 -24.44452,-77.64108 -24.44452,-77.64108l12.32126,-3.44327c0,0 24.70322,80.55444 12.12325,81.08435z" data-paper-data="{&quot;index&quot;:null}"/><path d="M297.90691,169.74558c-7.08303,-1.49653 1.85839,-14.76387 -2.78507,-26.90999c-3.98324,-10.41913 2.09905,-15.50572 6.08283,-5.0868c3.72256,9.73575 4.69868,33.68631 -3.29776,31.99679z" data-paper-data="{&quot;index&quot;:null}"/></g><path d="M206.75008,307.5l15.14285,-131.8421l37.78325,-0.15789l13.57389,132z" fill="url(#color-1)" stroke="#000000" stroke-width="0" stroke-linecap="butt"/><path d="M175.43265,144.30887c-6.16263,-32.72667 17.10475,-64.579 51.96913,-71.14416c34.86438,-6.56516 68.12334,14.64294 74.28596,47.3696c6.16263,32.72667 -17.1872,73.8741 -46.29872,79.6416c-24.79597,4.91251 -73.79376,-23.14037 -79.95637,-55.86704z" fill="url(#color-2)" stroke="#000000" stroke-width="0" stroke-linecap="butt"/><path d="M272.52595,190.77859c0,0 -4.6153,-18.43048 -9.08502,-27.06512c-4.26389,-8.23703 -17.14491,-23.60612 -17.14491,-23.60612l42.63862,-11.33622c0,0 4.28276,9.05103 5.58246,13.41342c1.44936,4.86468 2.71377,14.43227 2.71377,14.43227l-6.45811,-12.56004c0,0 0.63794,2.25245 0.99805,4.56096c0.28613,1.83428 0.39686,3.70395 -0.12718,4.50724c-0.96088,1.47285 -1.45703,-0.97587 -2.39943,-3.07137c-0.69769,-1.55137 -2.00868,-2.77401 -2.00868,-2.77401c0,0 2.01407,3.9089 2.81468,7.48654c0.63981,2.85911 0.23186,5.45297 -0.59098,6.06635c-1.44837,1.07967 -1.95287,-1.81478 -2.84158,-3.89542c-0.59807,-1.40016 -1.67737,-2.37393 -2.17728,-1.73814c-1.24277,1.58059 -4.36351,-1.5867 -4.36351,-1.5867c0,0 3.01067,4.3197 4.80537,8.48512c2.46989,5.73251 3.93174,11.83863 3.81731,12.02919c-0.31343,0.5219 -2.31484,-4.35503 -4.52646,-7.06844c-1.04822,-1.28604 -2.55856,-1.89524 -3.18951,-1.56709c-0.83385,0.43365 -4.07782,-4.45528 -4.07782,-4.45528c0,0 0.06319,2.74565 1.0372,5.5221c1.05605,3.01026 1.3865,6.71534 0.08614,7.06792c-2.59046,0.70238 -1.00009,-2.40534 -3.22318,-6.19128c-2.52437,-4.29902 -4.37018,-10.05362 -4.37018,-10.05362c0,0 -1.07668,11.08535 -0.16507,18.09021c0.59403,4.56453 2.2553,15.30753 2.2553,15.30753z" fill="url(#color-3)" stroke="#000000" stroke-width="0" stroke-linecap="butt"/><path d="M204.39469,183.18877c0,0 -5.2056,-9.26554 -6.39598,-16.3878c-1.14652,-6.85986 -2.85611,-24.09934 -2.85611,-24.09934l36.49298,4.93203c0,0 -5.64573,12.47363 -5.13985,23.57448c0.51235,11.24296 8.2626,26.51273 8.2626,26.51273c0,0 -5.78129,-10.04167 -7.56557,-13.83382c-0.89908,-1.91086 -2.45042,-7.45342 -2.45042,-7.45342c0,0 2.5576,11.60876 -0.02718,6.36208c-0.97782,-1.98481 -2.33085,-3.79078 -3.34589,-7.26638c-1.0948,-3.74874 -1.81624,-9.10369 -1.81624,-9.10369c0,0 0.66883,7.59882 -1.10902,6.92735c-6.95131,-2.62536 7.12273,22.01645 0.3411,18.97956c-0.24833,-0.11121 -2.66093,-5.22642 -4.23869,-10.63209c-1.6803,-5.757 -2.52363,-11.82277 -2.52363,-11.82277c0,0 -0.69139,1.43568 -0.828,3.0241c-0.21262,2.47202 -0.0132,5.48944 -0.95387,5.39332c-1.0343,-0.1057 -1.75174,-2.55218 -2.35415,-5.82805c-0.68734,-3.73772 -1.18771,-8.35738 -1.18771,-8.35738c0,0 -0.35609,3.8791 -0.30543,7.58859c0.04791,3.50849 0.52876,6.85226 -0.33093,7.06116c-0.50235,0.12206 -2.39958,-3.43113 -3.47486,-6.93583c-1.05231,-3.42983 -1.28839,-6.81153 -1.28839,-6.81153c0,0 0.19686,4.11668 0.6101,6.54342c0.56829,3.33719 2.48518,11.63329 2.48518,11.63329z" fill="url(#color-4)" stroke="none" stroke-width="0" stroke-linecap="butt"/><path d="M188.6491,142.17236c-2.39977,-12.74402 5.9859,-25.0205 18.72992,-27.42028c12.74402,-2.39977 25.0205,5.9859 27.42028,18.72992c2.39977,12.74402 -5.9859,25.0205 -18.72992,27.42028c-12.74402,2.39977 -25.0205,-5.9859 -27.42028,-18.72992z" fill="#000000" stroke="#000000" stroke-width="0" stroke-linecap="butt"/><path d="M269.63635,150.81531c-12.74402,2.39977 -25.0205,-5.9859 -27.42028,-18.72992c-2.39977,-12.74402 5.9859,-25.0205 18.72992,-27.42028c12.74402,-2.39977 25.0205,5.9859 27.42028,18.72992c2.39977,12.74402 -5.9859,25.0205 -18.72992,27.42028z" data-paper-data="{&quot;index&quot;:null}" fill="#000000" stroke="#000000" stroke-width="0" stroke-linecap="butt"/><path d="M184.52426,139.99818l4.01897,1.8889" fill="none" stroke="#000000" stroke-width="2" stroke-linecap="round"/><path d="M314.66192,134.36057c-12.27632,5.5226 -14.31797,-25.56711 -37.1269,-43.44197c-26.78397,-20.99001 -50.51057,-12.56367 -47.65583,-20.47749c3.61215,-10.01347 32.6041,-5.85963 52.44002,8.05275c13.38482,9.38776 44.46596,50.41297 32.34271,55.86671z" data-paper-data="{&quot;index&quot;:null}" fill="#000000" stroke="#000000" stroke-width="0" stroke-linecap="butt"/><path d="M291.0635,118.91864l-3.49828,4.11851" fill="none" stroke="#000000" stroke-width="2" stroke-linecap="round"/><path d="M312.02742,145.07385c-12.88851,3.88504 -10.88381,-27.20707 -31.18383,-47.88715c-23.83785,-24.28413 -48.45638,-19.00374 -44.6001,-26.48087c4.87941,-9.46091 33.08852,-1.58481 50.95415,14.78094c12.05532,11.04323 37.55758,55.7505 24.82979,59.58709z" data-paper-data="{&quot;index&quot;:null}" fill="url(#color-5)" stroke="#000000" stroke-width="0" stroke-linecap="butt"/><path d="M187.09926,130.65134c5.16315,-9.88769 10.61568,-4.13118 5.45306,5.75678c-6.01834,11.52691 1.32708,25.74014 -5.88158,26.40665c-8.13826,0.75245 -4.39608,-22.92408 0.42852,-32.16342z" data-paper-data="{&quot;index&quot;:null}" fill="#4d2900" stroke="#000000" stroke-width="2" stroke-linecap="butt"/><path d="M243.13233,77.62539c0,0 17.90126,-16.21528 15.92475,-26.18605c-0.21082,-1.06354 1.90769,-2.7983 4.93428,-3.51716c2.36686,-0.56216 5.69477,-0.44766 6.21615,0.729c5.26016,11.87088 -2.42098,34.9576 -2.42098,34.9576c0,0 -2.87211,4.83924 -14.07719,2.08953c-10.18963,-2.50053 -10.57703,-8.07292 -10.57703,-8.07292z" fill="#000000" stroke="#000000" stroke-width="0" stroke-linecap="butt"/><path d="M260.53976,165.49185c5.68936,10.68 2.62744,26.88691 -3.25098,31.25567c-5.87843,4.36876 -19.363,-5.26555 -25.05235,-15.94555c-5.68935,-10.68 -1.42908,-18.36142 4.44935,-22.73018c5.87843,-4.36876 18.16463,-3.25994 23.85398,7.42007z" fill="#000000" stroke="#000000" stroke-width="2" stroke-linecap="butt"/><g stroke="#000000" stroke-width="0" stroke-linecap="butt"><path d="M169.41717,140.18387c8.4252,-7.3103 11.39112,0.043 2.9663,7.35374c-9.82125,8.52249 -8.19063,24.43829 -15.14266,22.41883c-7.84854,-2.27988 4.3036,-22.94162 12.17635,-29.77257z" data-paper-data="{&quot;index&quot;:null}" fill="#000000"/><path d="M178.24242,90.82365c16.04,-18.15865 43.26116,-28.96587 49.11114,-20.07232c4.62334,7.02872 -20.41479,4.37415 -41.55861,31.03688c-18.00583,22.70568 -12.73321,53.41296 -25.95957,50.90886c-13.06143,-2.47287 7.58361,-49.62037 18.40704,-61.87342z" fill="url(#color-6)"/><path d="M180.48758,99.31662c13.7261,-19.96527 39.44038,-33.98537 46.32302,-25.86462c5.43947,6.41797 -19.73591,6.81107 -37.49984,35.83528c-15.12757,24.71668 -6.17981,54.56087 -19.61194,53.67479c-13.26464,-0.87504 1.52669,-50.17332 10.78876,-63.64544z" fill="url(#color-7)"/><path d="M246.2879,69.47027c0.02753,2.92499 -6.86302,5.20541 -15.39049,5.09345c-8.52747,-0.11196 -15.46267,-2.57389 -15.49021,-5.49889c-0.02753,-2.92499 6.86302,-5.20541 15.39049,-5.09345c8.52747,0.11196 15.46267,2.57389 15.49021,5.49889z" fill="#000000"/><path d="M176.55163,127.35736c9.68849,-15.15777 18.61255,-27.48825 23.52144,-35.82879c6.15165,-10.45206 12.43196,-25.81764 19.7212,-23.08939c7.61192,2.84903 1.04653,20.61934 -5.30753,31.4153c-4.88822,8.30541 -19.78426,23.13395 -29.42777,38.22305c-12.08595,18.91078 -1.60044,44.45577 -14.09496,44.5145c-14.10579,0.0663 -4.10087,-40.07691 5.58763,-55.23468z" fill="url(#color-8)"/><path d="M183.23949,133.80976c8.15359,-16.03571 21.52239,-29.47215 25.58876,-38.25434c5.09581,-11.00551 9.83727,-26.91342 17.35914,-24.91396c7.85486,2.08797 3.06577,20.41699 -2.19771,31.78461c-4.04923,8.74519 -20.11338,21.02622 -28.22894,36.98916c-10.17101,20.00596 -2.92669,44.68756 -16.73634,41.81159c-10.85408,-2.26044 -3.93848,-31.38137 4.2151,-47.41707z" fill="#000000"/><path d="M239.67055,114.25708c-7.16073,-1.06435 0.95988,-14.84939 -4.41144,-26.69163c-4.6076,-10.15847 1.15512,-15.60446 5.76324,-5.44623c4.30597,9.49214 6.73235,33.33947 -1.35181,32.13786z" data-paper-data="{&quot;index&quot;:null}" fill="url(#color-9)"/><path d="M303.22068,128.74785c-11.99827,7.40778 -10.3773,-12.20558 -23.67583,-21.76521c-10.61102,-7.62773 -27.71939,-9.61623 -33.17112,-13.9518c-7.08656,-5.63568 -17.63635,-17.41334 -10.90298,-21.93371c6.44793,-4.32874 16.46609,5.82455 23.32692,11.28072c5.4748,4.3539 20.36115,8.19145 31.02151,15.85354c10.66035,7.66207 22.8319,24.69413 13.40152,30.51647z" data-paper-data="{&quot;index&quot;:null}" fill="url(#color-10)"/><path d="M195.41619,113.22472c7.65449,-10.66579 20.53523,-19.05728 24.3325,-24.93186c4.75863,-7.3618 9.04074,-18.2219 16.53357,-16.17951c7.82452,2.1328 3.55748,14.70199 -1.35771,22.30602c-3.78129,5.84983 -19.35824,13.19888 -26.97696,23.81637c-9.54835,13.30663 -1.74744,31.37475 -15.48336,28.1875c-10.79613,-2.5051 -4.70252,-22.53273 2.95197,-33.19852z" fill="url(#color-11)"/></g><path d="M269.63635,150.81531c-5.79163,1.09059 -11.48669,-0.04635 -16.20205,-2.8076c-20.26907,-11.86927 1.21195,-27.16776 5.41243,-53.29382c4.09487,-25.46921 -9.21237,-53.72192 -9.21237,-53.72192l16.60523,13.71933c0,0 9.77794,17.52735 11.60167,35.76965c1.70658,17.0704 8.09378,48.66172 6.85449,50.48057c-3.38883,4.97364 -8.67767,8.65209 -15.05942,9.8538z" data-paper-data="{&quot;index&quot;:null}" fill="#0f3312" stroke="#000000" stroke-width="0" stroke-linecap="butt"/><path d="M270.12771,150.72277c-5.79163,1.09059 -11.48669,-0.04635 -16.20205,-2.8076c-17.24959,-10.10111 -4.26158,-22.68584 2.57988,-42.31424c5.47892,-15.71923 21.98603,-11.70619 24.58713,4.73604c2.31934,14.66111 4.92673,29.3105 4.09445,30.532c-3.38883,4.97364 -8.67767,8.65209 -15.05942,9.8538z" data-paper-data="{&quot;index&quot;:null}" fill="url(#color-12)" stroke="#000000" stroke-width="0" stroke-linecap="butt"/><path d="M266.80353,62.81971c-12.74402,2.39977 -25.0205,-5.9859 -27.42028,-18.72992c-2.39977,-12.74402 5.9859,-25.0205 18.72992,-27.42028c12.74402,-2.39977 25.0205,5.9859 27.42028,18.72992c2.39977,12.74402 -5.9859,25.0205 -18.72992,27.42028z" data-paper-data="{&quot;index&quot;:null}" fill="url(#color-13)" stroke="#000000" stroke-width="0" stroke-linecap="butt"/><path d="M267.7164,50.71324c-8.97042,1.68918 -17.61172,-4.21343 -19.3009,-13.18385c-1.68918,-8.97043 4.21343,-17.61173 13.18384,-19.30091c8.97042,-1.68918 17.61172,4.21343 19.3009,13.18385c1.68918,8.97043 -4.21343,17.61173 -13.18384,19.30091z" data-paper-data="{&quot;index&quot;:null}" fill="#000000" stroke="none" stroke-width="0" stroke-linecap="butt"/><path d="M183.21516,86.40068l1.58133,-17.68852c0,0 22.93553,15.35643 34.73564,32.98722c13.59362,20.31051 16.06644,43.61634 11.87556,49.56315c-3.39537,4.81798 -8.59705,8.37033 -14.84697,9.54723c-6.48244,1.22068 -12.84389,-0.34926 -17.84603,-3.86394c-2.60809,-1.83254 6.0014,-25.69121 2.58807,-44.08784c-2.9102,-15.68496 -18.08764,-26.45728 -18.08764,-26.45728z" fill="#0f3312" stroke="#000000" stroke-width="0" stroke-linecap="butt"/><path d="M229.05279,122.2279c4.48873,13.41353 4.66577,25.15084 1.86355,29.12716c-3.39537,4.81798 -8.59705,8.37033 -14.84697,9.54723c-6.48244,1.22068 -12.84389,-0.34926 -17.84603,-3.86394c-2.43594,-1.71158 4.91371,-22.63756 3.11352,-40.38152c0,0 9.22093,-2.64328 13.74389,-1.73414c4.70823,0.94639 13.97205,7.30521 13.97205,7.30521z" fill="url(#color-14)" stroke="#000000" stroke-width="0" stroke-linecap="butt"/><path d="M169.83661,53.1352c12.74402,-2.39977 25.0205,5.9859 27.42028,18.72992c2.39977,12.74402 -5.9859,25.0205 -18.72992,27.42028c-12.74402,2.39977 -25.0205,-5.9859 -27.42028,-18.72992c-2.39977,-12.74402 5.9859,-25.0205 18.72992,-27.42028z" data-paper-data="{&quot;index&quot;:null}" fill="url(#color-15)" stroke="#000000" stroke-width="0" stroke-linecap="butt"/><path d="M167.94101,65.42671c8.97042,-1.68918 17.61172,4.21343 19.3009,13.18385c1.68918,8.97043 -4.21343,17.61173 -13.18384,19.30091c-8.97042,1.68918 -17.61172,-4.21343 -19.3009,-13.18385c-1.68918,-8.97043 4.21343,-17.61173 13.18384,-19.30091z" data-paper-data="{&quot;index&quot;:null}" fill="#000000" stroke="none" stroke-width="0" stroke-linecap="butt"/></g></g></svg>