<svg version="1.1" xmlns="http://www.w3.org/2000/svg" xmlns:xlink="http://www.w3.org/1999/xlink" width="34.17311" height="34.17311" viewBox="0,0,34.17311,34.17311"><g transform="translate(-222.91346,-162.91346)"><g data-paper-data="{&quot;isPaintingLayer&quot;:true}" stroke-miterlimit="10" stroke-dasharray="" stroke-dashoffset="0" style="mix-blend-mode: normal"><path d="M229.98313,162.91346h20.03378c3.9166,0 7.06966,3.15307 7.06966,7.06966v20.03379c0,3.91659 -3.15306,7.06966 -7.06966,7.06966h-20.03378c-3.91659,0 -7.06967,-3.15307 -7.06967,-7.06966v-20.03379c0,-3.91659 3.15308,-7.06966 7.06967,-7.06966z" fill-opacity="0.09677" fill="#191919" fill-rule="evenodd" stroke="none" stroke-width="4.43922" stroke-linecap="round" stroke-linejoin="round"/><path d="M246.36528,178.34592c0,-2.41923 1.96118,-4.38041 4.38041,-4.38041c2.41923,0 4.38041,1.96118 4.38041,4.38041c0,2.41923 -1.96118,4.38041 -4.38041,4.38041c-2.41923,0 -4.38041,-1.96117 -4.38041,-4.38041z" fill="#cccccc" fill-rule="nonzero" stroke="#000000" stroke-width="0.5" stroke-linecap="butt" stroke-linejoin="miter"/><path d="M247.8026,178.41436c0,-1.66322 1.34831,-3.01153 3.01153,-3.01153c1.66322,0 3.01153,1.34831 3.01153,3.01153c0,1.66322 -1.34831,3.01153 -3.01153,3.01153c-1.66322,0 -3.01153,-1.34831 -3.01153,-3.01153z" fill="#ffffff" fill-rule="nonzero" stroke="#000000" stroke-width="0.5" stroke-linecap="butt" stroke-linejoin="miter"/><path d="M224.87391,178.34592c0,-2.41923 1.96118,-4.38041 4.38041,-4.38041c2.41923,0 4.38041,1.96118 4.38041,4.38041c0,2.41923 -1.96118,4.38041 -4.38041,4.38041c-2.41923,0 -4.38041,-1.96117 -4.38041,-4.38041z" fill="#cccccc" fill-rule="nonzero" stroke="#000000" stroke-width="0.5" stroke-linecap="butt" stroke-linejoin="miter"/><path d="M226.31123,178.41436c0,-1.66322 1.34831,-3.01153 3.01153,-3.01153c1.66322,0 3.01153,1.34831 3.01153,3.01153c0,1.66322 -1.34831,3.01153 -3.01153,3.01153c-1.66322,0 -3.01153,-1.34831 -3.01153,-3.01153z" fill="#ffffff" fill-rule="nonzero" stroke="#000000" stroke-width="0.5" stroke-linecap="butt" stroke-linejoin="miter"/><path d="M226.91528,188.13621c0,-6.83792 5.90532,-12.38115 13.18989,-12.38115c7.28457,0 13.18989,5.54323 13.18989,12.38115" fill="#cccccc" fill-rule="nonzero" stroke="#000000" stroke-width="0.5" stroke-linecap="butt" stroke-linejoin="miter"/><path d="M239.28285,177.38823c0,0 -0.06505,-2.29754 0.88006,-3.87856c1.3632,-2.28041 2.94351,-1.52641 2.94351,-1.52641c0,0 -1.36613,1.39602 -1.8443,2.27236c-0.45288,0.82999 -0.45133,3.39509 -0.45133,3.39509" fill="#cccccc" fill-rule="nonzero" stroke="#000000" stroke-width="0.5" stroke-linecap="round" stroke-linejoin="miter"/></g></g></svg>