<svg version="1.1" xmlns="http://www.w3.org/2000/svg" xmlns:xlink="http://www.w3.org/1999/xlink" width="143.87659" height="300.584" viewBox="0,0,143.87659,300.584"><defs><linearGradient x1="240.00004" y1="175.50005" x2="240.00004" y2="307.50005" gradientUnits="userSpaceOnUse" id="color-1"><stop offset="0" stop-color="#000000"/><stop offset="1" stop-color="#65325d"/></linearGradient><linearGradient x1="199.24756" y1="7.35699" x2="191.52907" y2="113.80652" gradientUnits="userSpaceOnUse" id="color-2"><stop offset="0" stop-color="#000000"/><stop offset="1" stop-color="#4c2646"/></linearGradient><linearGradient x1="290.4987" y1="13.97347" x2="282.78021" y2="120.423" gradientUnits="userSpaceOnUse" id="color-3"><stop offset="0" stop-color="#000000"/><stop offset="1" stop-color="#4c2647"/></linearGradient><linearGradient x1="238.90002" y1="78.31065" x2="230.17863" y2="198.59154" gradientUnits="userSpaceOnUse" id="color-4"><stop offset="0" stop-color="#1b0d19"/><stop offset="1" stop-color="#804076"/></linearGradient><linearGradient x1="224.45527" y1="65.37314" x2="222.81233" y2="88.0317" gradientUnits="userSpaceOnUse" id="color-5"><stop offset="0" stop-color="#33002b"/><stop offset="1" stop-color="#990085"/></linearGradient><linearGradient x1="258.86492" y1="67.86813" x2="257.22199" y2="90.52666" gradientUnits="userSpaceOnUse" id="color-6"><stop offset="0" stop-color="#33002b"/><stop offset="1" stop-color="#990085"/></linearGradient><linearGradient x1="241.22401" y1="70.80626" x2="240.10307" y2="86.26568" gradientUnits="userSpaceOnUse" id="color-7"><stop offset="0" stop-color="#1a0016"/><stop offset="1" stop-color="#80006e"/></linearGradient><linearGradient x1="280.57447" y1="70.54069" x2="273.83852" y2="163.43953" gradientUnits="userSpaceOnUse" id="color-8"><stop offset="0" stop-color="#1a0d17"/><stop offset="1" stop-color="#66335d"/></linearGradient><linearGradient x1="248.00465" y1="70.18433" x2="239.31465" y2="190.03234" gradientUnits="userSpaceOnUse" id="color-9"><stop offset="0" stop-color="#4c0000"/><stop offset="1" stop-color="#650000"/></linearGradient><radialGradient cx="241.50385" cy="130.5798" r="34.54447" gradientUnits="userSpaceOnUse" id="color-10"><stop offset="0" stop-color="#330000"/><stop offset="1" stop-color="#330000" stop-opacity="0"/></radialGradient><radialGradient cx="211.86608" cy="136.18733" r="23.48065" gradientUnits="userSpaceOnUse" id="color-11"><stop offset="0" stop-color="#808080"/><stop offset="1" stop-color="#804040"/></radialGradient><radialGradient cx="269.99535" cy="129.70752" r="23.48065" gradientUnits="userSpaceOnUse" id="color-12"><stop offset="0" stop-color="#808080"/><stop offset="1" stop-color="#804040"/></radialGradient><linearGradient x1="231.56221" y1="188.27402" x2="234.67955" y2="180.8406" gradientUnits="userSpaceOnUse" id="color-13"><stop offset="0" stop-color="#4d4d4d"/><stop offset="1" stop-color="#808080"/></linearGradient><linearGradient x1="251.84245" y1="166.61383" x2="256.72326" y2="176.76986" gradientUnits="userSpaceOnUse" id="color-14"><stop offset="0" stop-color="#4d4d4d"/><stop offset="1" stop-color="#808080"/></linearGradient><linearGradient x1="271.38891" y1="156.46885" x2="273.38166" y2="165.46813" gradientUnits="userSpaceOnUse" id="color-15"><stop offset="0" stop-color="#4d4d4d"/><stop offset="1" stop-color="#808080"/></linearGradient></defs><g transform="translate(-170.31975,-6.91604)"><g data-paper-data="{&quot;isPaintingLayer&quot;:true}" fill-rule="nonzero" stroke-width="0" stroke-linejoin="miter" stroke-miterlimit="10" stroke-dasharray="" stroke-dashoffset="0" style="mix-blend-mode: normal"><path d="M206.75005,307.50004l15.14285,-131.8421l37.78325,-0.15789l13.57389,132z" fill="url(#color-1)" stroke="none" stroke-linecap="butt"/><g><path d="M181.34024,113.06774c0,0 -21.82751,-104.77285 10.3019,-106.13376c32.81566,-1.39 24.48042,78.47572 24.48042,78.47572" fill="url(#color-2)" stroke="none" stroke-linecap="round"/><path d="M262.54044,88.77539c0,0 3.27325,-80.23276 35.54515,-74.12336c31.59702,5.98163 -5.11656,106.50974 -5.11656,106.50974" data-paper-data="{&quot;index&quot;:null}" fill="url(#color-3)" stroke="none" stroke-linecap="round"/><path d="M170.4705,133.80556c2.40834,-33.21465 33.04529,-58.06057 68.42951,-55.49491c35.38423,2.56566 62.11647,31.57134 59.70813,64.78598c-2.40834,33.21465 -33.04529,58.06057 -68.42951,55.49491c-35.38423,-2.56566 -62.11647,-31.57134 -59.70813,-64.78598z" fill="url(#color-4)" stroke="none" stroke-linecap="butt"/><g stroke="#000000" stroke-linecap="butt"><path d="M211.60576,85.19669c-2.63817,-7.25953 3.63116,-8.83389 3.63116,-8.83389c0,0 -4.61749,-2.50533 -2.83253,-9.09433c2.29388,-8.46764 23.69371,7.39783 23.69371,7.39783l-0.71248,7.52146c0,0 -21.35545,9.68028 -23.77987,3.00894z" fill="url(#color-5)"/><path d="M245.62325,82.93007l0.38001,-7.54557c0,0 23.4647,-12.61241 24.51306,-3.90243c0.81577,6.77757 -4.11483,8.59058 -4.11483,8.59058c0,0 5.97664,2.4623 2.31882,9.26531c-3.36145,6.2518 -23.09707,-6.40792 -23.09707,-6.40792z" data-paper-data="{&quot;index&quot;:null}" fill="url(#color-6)"/><path d="M232.93383,77.9755c0.30954,-4.26899 4.02118,-7.47878 8.29018,-7.16924c4.26899,0.30954 7.47878,4.02118 7.16924,8.29018c-0.30954,4.26899 -4.02118,7.47878 -8.29018,7.16924c-4.26899,-0.30954 -7.47878,-4.02118 -7.16924,-8.29018z" fill="url(#color-7)"/></g><path d="M242.59546,96.76983l20.75479,-16.13229l5.50084,4.34566l17.16686,-14.04781l4.2358,12.7351l20.33207,-6.68379l-9.9695,22.52831l13.58002,4.88807l-9.64395,15.36051l4.12062,15.66639l-10.93505,11.71757l-8.73359,17.39164l-4.17728,-3.12316z" fill="url(#color-8)" stroke="none" stroke-linecap="butt"/><path d="M211.20627,170.11951c0,0 -5.15036,2.11886 -7.76304,2.86339c-2.69749,0.7687 -8.17563,1.6786 -8.17563,1.6786c0,0 3.2883,-6.36377 4.15579,-9.65244c0.69633,-2.63975 0.64945,-8.56422 0.64945,-8.56422c0,0 -7.31312,1.49239 -11.10031,0.59855c-3.4836,-0.82219 -10.78826,-5.76464 -10.78826,-5.76464c0,0 2.4631,-7.6977 4.12879,-10.78305c1.42924,-2.64736 5.26499,-6.61702 5.26499,-6.61702c0,0 -1.49022,-3.22837 -3.09732,-4.57602c-1.61613,-1.3552 -6.57251,-3.53266 -6.57251,-3.53266c0,0 7.02613,-8.03155 10.32596,-10.77055c3.36705,-2.79481 9.67876,-5.83426 9.67876,-5.83426l-4.76516,-2.43453c0,0 7.44556,-0.31801 10.03195,-1.05752c2.57452,-0.73611 5.4509,-3.36941 5.4509,-3.36941c0,0 3.49499,-5.29567 5.26498,-7.39916c1.4456,-1.71795 4.58019,-4.3009 4.58019,-4.3009c0,0 -0.26867,2.75565 0.12593,4.28701c0.43952,1.70568 2.39099,5.4806 2.39099,5.4806c0,0 9.34942,-6.76481 13.17965,-8.84513c2.74977,-1.49349 7.6543,-2.47048 7.6543,-2.47048c0,0 -0.84647,3.3334 -0.71214,4.46078c0.15021,1.26072 1.57109,2.74833 1.57109,2.74833l20.54893,-14.03145l5.68585,4.5596l16.75344,-13.87726l3.86577,12.30722l18.29392,-6.23l-9.4693,21.1609l13.1666,5.05862l-8.98767,14.606l4.17847,14.86848l-10.36555,12.15992l-7.35172,17.69236l-4.17728,-3.12316l-17.34702,17.29362l-2.27217,-5.58672l-16.26207,17.60775l-3.36404,-8.42661l-28.96825,5.61722c0,0 -0.88582,-6.12756 -1.80249,-9.14543c-0.8846,-2.91229 -3.60477,-8.65636 -3.60477,-8.65636z" fill="url(#color-9)" stroke="none" stroke-linecap="butt"/><path d="M225.8756,164.08178l-10.58764,-59.56636l41.84414,-7.43759l10.58764,59.56636z" fill="url(#color-10)" stroke="none" stroke-linecap="butt"/><path d="M216.61929,161.80762c6.76684,-5.73365 14.3058,9.26263 27.88167,9.04702c9.67362,-0.15363 25.75714,-15.66204 33.88101,-15.44476c9.6891,0.25913 6.59931,6.18442 6.59931,6.18442l-17.32111,19.7018l-2.28663,-5.38724l-16.84603,17.36489l-4.58982,-8.11444l-27.28971,2.61647c0,0 -0.30936,-4.74984 -1.20219,-8.19506c-0.84958,-3.27831 -4.61752,-12.86626 1.17351,-17.7731z" fill="#190000" stroke="none" stroke-linecap="butt"/><path d="M188.44691,134.48924c0.93783,-12.93404 12.18321,-22.65891 25.11726,-21.72108c12.93404,0.93783 22.65891,12.18321 21.72108,25.11726c-0.93783,12.93404 -12.18321,22.65891 -25.11726,21.72108c-12.93404,-0.93783 -22.65891,-12.18321 -21.72108,-25.11726z" fill="url(#color-11)" stroke="none" stroke-linecap="butt"/><path d="M204.87913,138.07803c0.28735,-3.96302 3.73295,-6.94273 7.69596,-6.65538c3.96302,0.28735 6.94273,3.73295 6.65537,7.69597c-0.28735,3.96302 -3.73294,6.94273 -7.69597,6.65537c-3.96302,-0.28735 -6.94272,-3.73295 -6.65536,-7.69597z" fill="#000000" stroke="none" stroke-linecap="butt"/><path d="M268.29726,153.12667c-12.93404,-0.93783 -22.65891,-12.18321 -21.72108,-25.11726c0.93783,-12.93404 12.18321,-22.65891 25.11726,-21.72108c12.93404,0.93783 22.65891,12.18321 21.72108,25.11726c-0.93783,12.93404 -12.18321,22.65891 -25.11726,21.72108z" data-paper-data="{&quot;index&quot;:null}" fill="url(#color-12)" stroke="none" stroke-linecap="butt"/><path d="M272.89766,136.5208c-3.32036,-0.24075 -5.81688,-3.12761 -5.57612,-6.44797c0.24075,-3.32036 3.12761,-5.81688 6.44797,-5.57612c3.32036,0.24075 5.81688,3.12761 5.57612,6.44797c-0.24075,3.32036 -3.12761,5.81688 -6.44797,5.57612z" data-paper-data="{&quot;index&quot;:null}" fill="#000000" stroke="none" stroke-linecap="butt"/><path d="M236.61443,165.49755c0,0 -0.77657,-3.92807 -0.89476,-6.07471c-0.11472,-2.0837 3.47339,-6.88564 3.47339,-6.88564l6.20166,11.93336c0,0 -2.68541,1.24484 -3.79993,1.35596c-1.1349,0.11315 -4.98037,-0.32897 -4.98037,-0.32897z" fill="#190000" stroke="none" stroke-linecap="butt"/><path d="M255.08755,161.82712c-1.36475,1.42617 -7.5242,0.78057 -7.5242,0.78057l-5.68559,-12.19307c0,0 5.63458,3.2341 7.4762,4.21565c1.89726,1.01118 9.46228,2.43035 9.46228,2.43035c0,0 -2.36393,3.34033 -3.72868,4.7665z" data-paper-data="{&quot;index&quot;:null}" fill="#190000" stroke="none" stroke-linecap="butt"/><path d="M237.02694,181.82503c0,0 -0.79079,2.11613 -1.9051,3.97729c-0.10324,0.17244 -4.9479,0.70587 -4.95704,0.51118c-0.12049,-2.56904 2.16736,-6.45732 2.16736,-6.45732z" fill="url(#color-13)" stroke="none" stroke-linecap="butt"/><path d="M253.5161,178.31116c0,0 -5.82626,-9.86615 -1.60423,-11.89518c4.22202,-2.02903 8.01856,8.81257 8.01856,8.81257z" fill="url(#color-14)" stroke="none" stroke-linecap="butt"/><path d="M270.53978,166.09741c0,0 -2.79981,-8.94477 0.94133,-9.77318c3.74114,-0.82842 4.74242,8.51461 4.74242,8.51461z" fill="url(#color-15)" stroke="none" stroke-linecap="butt"/></g></g></g></svg>