<svg version="1.1" xmlns="http://www.w3.org/2000/svg" xmlns:xlink="http://www.w3.org/1999/xlink" width="160.35394" height="297.56273" viewBox="0,0,160.35394,297.56273"><g transform="translate(-163.33563,-16.04979)"><g data-paper-data="{&quot;isPaintingLayer&quot;:true}" fill-rule="nonzero" stroke-linejoin="miter" stroke-miterlimit="10" stroke-dasharray="" stroke-dashoffset="0" style="mix-blend-mode: normal"><path d="M179.28376,313.61251v-267.22501h123.18203v267.22501z" fill-opacity="0.01" fill="#000000" stroke="none" stroke-width="0" stroke-linecap="butt"/><g stroke="#000000" stroke-width="2" stroke-linecap="butt"><path d="M273.52373,228.85811c-12.92088,-1.20561 -9.80557,-122.43002 -9.80557,-122.43002l12.67283,-1.75189c0,0 9.66941,125.35168 -2.86725,124.18191z" data-paper-data="{&quot;index&quot;:null}" fill="#006609"/><path d="M282.85706,217.52477c-12.92088,-1.20561 -8.80557,-109.76335 -8.80557,-109.76335l12.67282,-1.75189c0,0 8.66941,112.68501 -3.86725,111.51525z" data-paper-data="{&quot;index&quot;:null}" fill="#00800b"/><path d="M209.61425,85.00953l12.67282,1.75189c0,0 3.11531,139.22441 -9.80557,140.43003c-12.53666,1.16977 -2.86725,-142.18191 -2.86725,-142.18191z" fill="#006609"/><path d="M203.82647,217.96237c-12.8665,-1.68988 -4.5262,-105.69916 -4.5262,-105.69916l12.72966,-1.27485c0,0 4.28044,108.61365 -8.20346,106.97402z" data-paper-data="{&quot;index&quot;:null}" fill="#00800b"/><path d="M188.13928,207.21209c-11.85707,-2.01666 0.80492,-97.76965 0.80492,-97.76965l12.76881,-0.7919c0,0 -1.16086,100.67273 -13.57373,98.56155z" data-paper-data="{&quot;index&quot;:null}" fill="#006609"/><path d="M296.51406,204.58355c-12.97213,-0.35584 -18.99203,-79.15159 -18.99203,-79.15159l12.53069,-2.57904c0,0 19.04773,82.07589 6.46134,81.73063z" data-paper-data="{&quot;index&quot;:null}" fill="#006609"/><path d="M300.45696,182.12279c-6.96196,-1.98495 2.87949,-14.59911 -0.90901,-27.03845c-3.24984,-10.67066 3.1711,-15.32245 6.4215,-4.65196c3.03726,9.97082 2.34727,33.93133 -5.51249,31.69041z" data-paper-data="{&quot;index&quot;:null}" fill="#006609"/></g><path d="M206.75007,307.5l15.14285,-131.8421l37.78325,-0.15789l13.57389,132z" fill="#4dff5b" stroke="#000000" stroke-width="2" stroke-linecap="butt"/><path d="M219.70029,204.11263l3.12142,-26.32765l35.83075,-0.14203l2.76735,26.1059c0,0 -7.51543,4.19603 -21.55904,4.50964c-12.48458,0.27879 -20.16049,-4.14586 -20.16049,-4.14586z" fill="#45e652" stroke="#000000" stroke-width="0" stroke-linecap="butt"/><path d="M182.42227,128.92568c4.56279,-32.98779 36.75033,-55.78918 71.89288,-50.92836c35.14254,4.86083 59.93233,35.5432 55.36955,68.53098c-4.56279,32.98779 -36.75033,55.78918 -71.89288,50.92836c-35.14254,-4.86083 -59.93233,-35.5432 -55.36955,-68.53098z" fill="#4dff5b" stroke="#000000" stroke-width="2" stroke-linecap="butt"/><path d="M183.13113,129.07808c0.09974,-0.72113 -2.50413,56.10542 54.96218,65.07857c54.90665,8.57348 70.85494,-48.7044 70.71535,-47.69516c-4.49469,32.49543 -36.27224,54.94674 -70.97711,50.14646c-34.70488,-4.80029 -59.19509,-35.03444 -54.70042,-67.52987z" fill="#45e652" stroke="#000000" stroke-width="0" stroke-linecap="butt"/><path d="M195.72558,131.45029c1.77678,-12.84569 13.63067,-21.81885 26.47636,-20.04204c12.84569,1.77678 21.81885,13.63067 20.04204,26.47636c-1.77678,12.84569 -13.63067,21.81885 -26.47636,20.04204c-12.84569,-1.77678 -21.81885,-13.63067 -20.04204,-26.47636z" fill="#ffffff" stroke="#000000" stroke-width="2" stroke-linecap="butt"/><path d="M209.22237,133.10268c1.25067,-9.04199 9.5945,-15.35811 18.6365,-14.10744c9.04199,1.25067 15.3581,9.59451 14.10743,18.63651c-1.25067,9.04199 -9.59451,15.3581 -18.63651,14.10743c-9.04199,-1.25067 -15.35809,-9.59451 -14.10742,-18.6365z" fill="#000000" stroke="none" stroke-width="0" stroke-linecap="butt"/><path d="M269.82228,165.1524c-12.84569,-1.77678 -21.81885,-13.63067 -20.04204,-26.47636c1.77678,-12.84569 13.63067,-21.81885 26.47636,-20.04204c12.84569,1.77678 21.81885,13.63067 20.04204,26.47636c-1.77678,12.84569 -13.63067,21.81885 -26.47636,20.04204z" data-paper-data="{&quot;index&quot;:null}" fill="#ffffff" stroke="#000000" stroke-width="2" stroke-linecap="butt"/><path d="M276.85354,159.14246c-9.04198,-1.25067 -15.35809,-9.59451 -14.10742,-18.6365c1.25067,-9.04199 9.59451,-15.3581 18.6365,-14.10744c9.04198,1.25067 15.35809,9.59451 14.10742,18.6365c-1.25067,9.04199 -9.59451,15.3581 -18.6365,14.10744z" data-paper-data="{&quot;index&quot;:null}" fill="#000000" stroke="none" stroke-width="0" stroke-linecap="butt"/><path d="M195.61795,131.56898c1.77678,-12.84569 13.63067,-21.81885 26.47636,-20.04204c12.84569,1.77678 21.81885,13.63067 20.04204,26.47636c0,0 -46.68716,-5.21438 -46.51843,-6.43432z" fill="#00cc11" stroke="#000000" stroke-width="2" stroke-linecap="butt"/><path d="M249.5326,138.64179c1.77678,-12.84569 13.63067,-21.81885 26.47636,-20.04204c12.84569,1.77678 21.81885,13.63067 20.04204,26.47636c-0.1663,1.20235 -46.51843,-6.43432 -46.51843,-6.43432z" data-paper-data="{&quot;index&quot;:null}" fill="#00cc11" stroke="#000000" stroke-width="2" stroke-linecap="butt"/><path d="M212.25149,104.40241c0,0 7.35393,-4.20126 12.55784,-4.68717c5.20392,-0.4859 12.12199,2.38271 12.12199,2.38271c0,0 -7.95405,-1.16104 -11.97288,-0.78579c-4.19982,0.39215 -12.70695,3.09023 -12.70695,3.09023z" fill="#000000" stroke="none" stroke-width="0" stroke-linecap="butt"/><path d="M276.241,108.40546c-3.76606,-1.45204 -11.73664,-2.49366 -11.73664,-2.49366c0,0 7.43699,-0.88307 12.31364,0.99717c4.87665,1.88021 10.81406,7.91991 10.81406,7.91991c0,0 -7.45537,-4.90597 -11.39105,-6.42342z" data-paper-data="{&quot;index&quot;:null}" fill="#000000" stroke="none" stroke-width="0" stroke-linecap="butt"/><path d="M195.77618,130.90353l-3.20982,-3.06872" fill="none" stroke="#000000" stroke-width="2" stroke-linecap="round"/><path d="M317.74315,163.86766c-13.3952,1.33269 -5.44576,-28.7928 -21.38764,-52.99226c-18.72015,-28.41686 -43.89468,-27.97178 -38.67185,-34.56723c6.60854,-8.34533 32.77522,4.8111 47.15828,24.30843c9.70535,13.15636 26.12937,61.935 12.90121,63.25106z" data-paper-data="{&quot;index&quot;:null}" fill="#00b30f" stroke="#000000" stroke-width="2" stroke-linecap="butt"/><path d="M295.65296,144.51634l4.62623,-2.79248" fill="none" stroke="#000000" stroke-width="2" stroke-linecap="round"/><path d="M257.04325,176.96496c0,0 -8.63326,8.8493 -17.94854,7.61013c-9.31528,-1.23917 -13.82398,-12.25722 -13.82398,-12.25722z" fill="#000000" stroke="#000000" stroke-width="2" stroke-linecap="round"/><path d="M311.83902,173.18735c-13.45494,-0.41454 -1.66838,-29.25575 -14.33961,-55.31715c-14.87954,-30.60329 -39.89943,-33.4245 -33.86589,-39.28748c7.63434,-7.41851 31.87531,9.0181 43.61025,30.21502c7.91848,14.30321 17.88241,64.79898 4.59525,64.38962z" data-paper-data="{&quot;index&quot;:null}" fill="#00e613" stroke="#000000" stroke-width="2" stroke-linecap="butt"/><path d="M267.96476,87.33353c0,0 22.12803,-9.68201 23.42434,-19.76381c0.74087,-5.76201 -7.23933,-15.91872 -7.09027,-26.17868c0.19646,-13.5227 14.63112,-22.80118 14.63112,-22.80118c0,0 -4.04575,10.03541 -4.52629,22.56672c-0.38296,9.98645 7.20538,14.11521 8.44374,27.31502c1.21278,12.92735 -13.41029,32.37374 -13.41029,32.37374c0,0 -4.26173,3.67491 -14.01104,-2.4948c-8.8658,-5.61061 -7.46131,-11.017 -7.46131,-11.017z" fill="#004d05" stroke="#000000" stroke-width="2" stroke-linecap="butt"/><g stroke="#000000" stroke-width="2" stroke-linecap="butt"><path d="M182.5563,137.04758c9.3597,-6.06797 11.27453,1.62624 1.91513,7.69472c-10.91072,7.07432 -11.50864,23.06225 -18.1124,20.0959c-7.45536,-3.34888 7.45128,-22.12053 16.19727,-27.79061z" data-paper-data="{&quot;index&quot;:null}" fill="#006609"/><g><path d="M198.19316,88.89486c18.40876,-15.75233 46.86805,-22.67015 51.42478,-13.04966c3.60127,7.60323 -20.82466,1.49348 -45.46995,24.95774c-20.98765,19.9819 -20.03534,51.124 -32.78513,46.80541c-12.5908,-4.26474 14.40849,-48.08418 26.83029,-58.71349z" fill="#00cc11"/><path d="M199.23577,97.61749c16.36851,-17.86311 43.78222,-28.17209 49.46902,-19.17333c4.4944,7.11188 -20.49117,4.00112 -42.11771,30.27382c-18.41693,22.37353 -13.70517,53.17186 -26.88367,50.42696c-13.01418,-2.71066 8.48727,-49.47383 19.53236,-61.52744z" fill="#00e613"/><path d="M268.5465,77.20895c-0.37939,2.90041 -7.52005,4.20072 -15.94915,2.9043c-8.4291,-1.29642 -14.95467,-4.69862 -14.57529,-7.59903c0.37939,-2.90041 7.52005,-4.20072 15.94915,-2.9043c8.4291,1.29642 14.95467,4.69862 14.57529,7.59903z" fill="#00ff15"/><g><path d="M183.50262,107.71577c0.21628,-3.08668 2.27067,-3.77761 4.73307,-3.60507c2.46241,0.17254 4.40037,1.14321 4.18409,4.22988c-0.21628,3.08668 -2.50491,7.12052 -4.96732,6.94798c-2.46241,-0.17254 -4.16613,-4.48611 -3.94986,-7.5728z" fill="#ff80ee"/><path d="M190.93589,129.51784c-0.21628,3.08668 -2.27066,3.77761 -4.73307,3.60507c-2.46241,-0.17254 -4.40037,-1.14321 -4.18409,-4.22988c0.21628,-3.08668 2.50492,-7.12052 4.96732,-6.94798c2.46241,0.17254 4.16613,4.48611 3.94986,7.5728z" fill="#ff80ee"/><path d="M176.31822,122.33345c-3.08668,-0.21628 -3.77761,-2.27067 -3.60507,-4.73307c0.17254,-2.46241 1.14321,-4.40037 4.22988,-4.18409c3.08668,0.21628 7.12052,2.50492 6.94798,4.96732c-0.17254,2.46241 -4.48611,4.16613 -7.5728,3.94986z" fill="#ff80ee"/><path d="M198.12029,114.90016c3.08668,0.21628 3.77761,2.27067 3.60507,4.73307c-0.17254,2.46241 -1.14321,4.40037 -4.22988,4.18409c-3.08668,-0.21628 -7.12052,-2.50492 -6.94798,-4.96732c0.17254,-2.46241 4.48611,-4.16613 7.5728,-3.94986z" fill="#ff80ee"/><path d="M176.883,113.53668c-2.02968,-2.33555 -1.06556,-4.27677 0.79763,-5.89596c1.86319,-1.61919 3.9199,-2.30317 5.94958,0.03238c2.02968,2.33555 3.26371,6.8062 1.40053,8.42539c-1.86319,1.61919 -6.11807,-0.22627 -8.14775,-2.5618z" fill="#ff80ee"/><path d="M197.55551,123.69694c2.02968,2.33555 1.06555,4.27677 -0.79764,5.89596c-1.86319,1.61918 -3.9199,2.30317 -5.94958,-0.03238c-2.02968,-2.33555 -3.26371,-6.8062 -1.40053,-8.42539c1.86319,-1.61919 6.11807,0.22627 8.14776,2.5618z" fill="#ff80ee"/><path d="M182.13912,128.95307c-2.33554,2.02968 -4.27678,1.06555 -5.89596,-0.79764c-1.61918,-1.8632 -2.30316,-3.91989 0.03239,-5.94958c2.33554,-2.02969 6.8062,-3.26372 8.42538,-1.40053c1.61918,1.8632 -0.22628,6.11807 -2.5618,8.14776z" fill="#ff80ee"/><path d="M192.2994,108.28056c2.33554,-2.02969 4.27678,-1.06555 5.89596,0.79764c1.61918,1.8632 2.30317,3.91989 -0.03238,5.94958c-2.33554,2.02969 -6.8062,3.26372 -8.42539,1.40053c-1.61918,-1.8632 0.22628,-6.11807 2.5618,-8.14776z" fill="#ff80ee"/><path d="M181.32515,118.07759c0.22843,-3.26009 3.05644,-5.71774 6.31653,-5.48931c3.2601,0.22843 5.71774,3.05644 5.48931,6.31653c-0.22843,3.26009 -3.05644,5.71774 -6.31653,5.48931c-3.2601,-0.22843 -5.71774,-3.05644 -5.48931,-6.31653z" fill="#ffe900"/></g><path d="M200.84945,126.75624c7.49926,-8.25747 11.3159,-1.30759 3.81709,6.95027c-8.74175,9.62661 -5.23598,25.23688 -12.37838,24.05577c-8.06346,-1.33344 1.55377,-23.29002 8.56128,-31.00603z" data-paper-data="{&quot;index&quot;:null}" fill="#00ff15"/><path d="M191.46295,124.50621c11.70173,-13.66362 22.25337,-24.63367 28.27415,-32.21075c7.54502,-9.49533 15.90056,-23.83855 22.73971,-20.12339c7.14191,3.87961 -1.83027,20.5646 -9.62352,30.37233c-5.99542,7.54516 -22.80836,20.15877 -34.45598,33.76063c-14.59767,17.04686 -7.76541,43.80155 -20.14675,42.12263c-13.97802,-1.89541 1.51069,-40.25784 13.21242,-53.92146z" fill="#00ff15"/><g><path d="M193.17075,136.62535c0.15183,-2.16687 1.59403,-2.65189 3.32266,-2.53077c1.72864,0.12113 3.08909,0.80253 2.93725,2.9694c-0.15183,2.16687 -1.75846,4.99864 -3.48707,4.87751c-1.72864,-0.12113 -2.92466,-3.14928 -2.77281,-5.31614z" fill="#ff80ee"/><path d="M198.38896,151.93052c-0.15183,2.16687 -1.59403,2.65189 -3.32265,2.53077c-1.72864,-0.12113 -3.0891,-0.80253 -2.93726,-2.9694c0.15183,-2.16687 1.75846,-4.99864 3.48708,-4.87751c1.72864,0.12113 2.92465,3.14928 2.7728,5.31614z" fill="#ff80ee"/><path d="M188.12726,146.88705c-2.16687,-0.15183 -2.65189,-1.59403 -2.53077,-3.32266c0.12113,-1.72864 0.80253,-3.0891 2.9694,-2.93726c2.16687,0.15183 4.99864,1.75846 4.87751,3.48708c-0.12113,1.72864 -3.14928,2.92466 -5.31614,2.77281z" fill="#ff80ee"/><path d="M203.43244,141.66883c2.16687,0.15183 2.65189,1.59403 2.53077,3.32266c-0.12113,1.72864 -0.80253,3.0891 -2.9694,2.93726c-2.16687,-0.15183 -4.99864,-1.75846 -4.87751,-3.48708c0.12113,-1.72864 3.14928,-2.92466 5.31614,-2.77281z" fill="#ff80ee"/><path d="M188.52376,140.71166c-1.42486,-1.63957 -0.74802,-3.00232 0.55995,-4.139c1.30798,-1.13667 2.7518,-1.61684 4.17664,0.02274c1.42486,1.63957 2.29117,4.778 0.98318,5.91467c-1.30798,1.13667 -4.29491,-0.15884 -5.71977,-1.7984z" fill="#ff80ee"/><path d="M203.03597,147.84422c1.42486,1.63957 0.74802,3.00232 -0.55995,4.139c-1.30798,1.13667 -2.7518,1.61684 -4.17664,-0.02274c-1.42486,-1.63957 -2.29117,-4.778 -0.98318,-5.91467c1.30798,-1.13667 4.29491,0.15884 5.71977,1.7984z" fill="#ff80ee"/><path d="M192.21357,151.53405c-1.63957,1.42486 -3.00232,0.74802 -4.139,-0.55995c-1.13667,-1.30798 -1.61684,-2.7518 0.02274,-4.17664c1.63957,-1.42486 4.778,-2.29117 5.91467,-0.98318c1.13667,1.30798 -0.15884,4.29491 -1.7984,5.71977z" fill="#ff80ee"/><path d="M199.34614,137.02184c1.63957,-1.42486 3.00232,-0.74802 4.139,0.55995c1.13667,1.30798 1.61684,2.7518 -0.02274,4.17664c-1.63957,1.42486 -4.778,2.29117 -5.91467,0.98318c-1.13667,-1.30798 0.15884,-4.29491 1.7984,-5.71977z" fill="#ff80ee"/><path d="M191.64214,143.89941c0.16037,-2.28861 2.14563,-4.01388 4.43424,-3.85352c2.28861,0.16037 4.01388,2.14564 3.85352,4.43424c-0.16037,2.28861 -2.14564,4.01388 -4.43424,3.85352c-2.28861,-0.16037 -4.01388,-2.14563 -3.85352,-4.43424z" fill="#ffe900"/></g><path d="M202.85063,136.95886c8.32403,-15.94789 21.83529,-29.24109 25.99504,-37.97943c5.21282,-10.95057 10.12357,-26.80705 17.6237,-24.72753c7.83216,2.17156 2.848,20.44852 -2.53635,31.75938c-4.14222,8.70154 -20.33634,20.81066 -28.62158,36.6862c-10.38367,19.89642 -3.40282,44.65383 -17.18103,41.63084c-10.82937,-2.37599 -3.6038,-31.42156 4.72025,-47.36945z" fill="#00b30f"/><path d="M255.76689,120.64085c-6.94322,-2.04954 3.01501,-14.57174 -0.65776,-27.04573c-3.15057,-10.70039 3.31331,-15.29232 6.46445,-4.5921c2.9445,9.99861 2.03192,33.95167 -5.80668,31.63782z" data-paper-data="{&quot;index&quot;:null}" fill="#00cc11"/><path d="M316.68527,143.826c-12.91163,5.66776 -8.57964,-13.52976 -20.41997,-24.84539c-9.44752,-9.02887 -26.11328,-13.37655 -30.90931,-18.42796c-6.23423,-6.56616 -15.04418,-19.69615 -7.74774,-23.23651c6.98713,-3.39027 15.49642,8.0572 21.53208,14.41421c4.81634,5.07276 19.0246,10.94263 28.5162,20.01238c9.4916,9.06974 19.17705,27.62854 9.02879,32.08329z" data-paper-data="{&quot;index&quot;:null}" fill="#00ff15"/><path d="M219.15895,121.76305c6.39934,-11.46293 18.24856,-21.25712 21.35719,-27.5234c3.89565,-7.85268 6.92227,-19.12733 14.59799,-17.94531c8.01551,1.23434 5.19712,14.20543 1.1733,22.31647c-3.09556,6.2399 -17.74159,15.30321 -24.11084,26.71411c-7.98243,14.30099 1.81155,31.37111 -12.19669,29.75752c-11.01016,-1.26823 -7.2203,-21.85645 -0.82097,-33.31939z" fill="#00ff15"/><g><path d="M222.25226,78.92073c0.26586,-3.79423 2.79118,-4.64353 5.81802,-4.43144c3.02686,0.2121 5.40905,1.40526 5.1432,5.1995c-0.26586,3.79423 -3.07911,8.75272 -6.10597,8.54063c-3.02686,-0.2121 -5.12112,-5.51446 -4.85526,-9.30868z" fill="#ff80ee"/><path d="M231.38943,105.72042c-0.26586,3.79423 -2.79118,4.64353 -5.81802,4.43144c-3.02686,-0.2121 -5.40905,-1.40526 -5.1432,-5.1995c0.26586,-3.79423 3.07911,-8.75272 6.10597,-8.54063c3.02686,0.2121 5.12112,5.51446 4.85526,9.30868z" fill="#ff80ee"/><path d="M213.421,96.88916c-3.79424,-0.26586 -4.64353,-2.79118 -4.43144,-5.81802c0.2121,-3.02686 1.40525,-5.40905 5.1995,-5.1432c3.79424,0.26586 8.75272,3.07911 8.54063,6.10597c-0.2121,3.02686 -5.51445,5.12113 -9.30868,4.85526z" fill="#ff80ee"/><path d="M240.2207,87.75198c3.79424,0.26586 4.64353,2.79118 4.43144,5.81802c-0.2121,3.02686 -1.40525,5.40905 -5.1995,5.1432c-3.79424,-0.26586 -8.75272,-3.07911 -8.54063,-6.10597c0.2121,-3.02686 5.51445,-5.12113 9.30868,-4.85526z" fill="#ff80ee"/><path d="M214.11525,86.07594c-2.49491,-2.87092 -1.3098,-5.25712 0.98048,-7.24747c2.29028,-1.99035 4.81844,-2.83112 7.31338,0.0398c2.49491,2.87092 4.01185,8.36635 1.72158,10.35671c-2.29028,1.99035 -7.52049,-0.27813 -10.01542,-3.14905z" fill="#ff80ee"/><path d="M239.52645,98.56521c2.49491,2.87092 1.3098,5.25712 -0.98048,7.24747c-2.29028,1.99035 -4.81844,2.83112 -7.31338,-0.0398c-2.49491,-2.87092 -4.01185,-8.36635 -1.72158,-10.35671c2.29028,-1.99035 7.5205,0.27813 10.01542,3.14905z" fill="#ff80ee"/><path d="M220.57621,105.02619c-2.87092,2.49491 -5.25713,1.30981 -7.24747,-0.98048c-1.99035,-2.29028 -2.83112,-4.81844 0.0398,-7.31338c2.87092,-2.49491 8.36635,-4.01185 10.35671,-1.72158c1.99035,2.29028 -0.27813,7.5205 -3.14905,10.01542z" fill="#ff80ee"/><path d="M233.06548,79.61497c2.87092,-2.49491 5.25713,-1.30981 7.24747,0.98048c1.99035,2.29028 2.83112,4.81844 -0.0398,7.31338c-2.87092,2.49491 -8.36635,4.01185 -10.35671,1.72158c-1.99035,-2.29028 0.27813,-7.52049 3.14905,-10.01542z" fill="#ff80ee"/><path d="M219.57564,91.65776c0.28079,-4.00739 3.75705,-7.02838 7.76444,-6.74759c4.00739,0.28079 7.02838,3.75705 6.74759,7.76444c-0.28079,4.00739 -3.75705,7.02838 -7.76444,6.74759c-4.00739,-0.28079 -7.02838,-3.75705 -6.74759,-7.76444z" fill="#ffe900"/></g><g><path d="M302.39574,103.8465c0.15183,-2.16687 1.59403,-2.65189 3.32266,-2.53077c1.72864,0.12113 3.0891,0.80253 2.93726,2.9694c-0.15183,2.16687 -1.75846,4.99864 -3.48708,4.87751c-1.72864,-0.12113 -2.92466,-3.14928 -2.77281,-5.31614z" fill="#ff80ee"/><path d="M307.61397,119.15169c-0.15183,2.16687 -1.59403,2.65189 -3.32266,2.53077c-1.72864,-0.12113 -3.0891,-0.80253 -2.93726,-2.9694c0.15183,-2.16687 1.75846,-4.99863 3.48708,-4.8775c1.72864,0.12113 2.92466,3.14928 2.77281,5.31613z" fill="#ff80ee"/><path d="M297.35227,114.10821c-2.16687,-0.15183 -2.65189,-1.59403 -2.53077,-3.32266c0.12113,-1.72864 0.80253,-3.0891 2.9694,-2.93726c2.16687,0.15183 4.99864,1.75846 4.87751,3.48708c-0.12113,1.72864 -3.14928,2.92466 -5.31614,2.77281z" fill="#ff80ee"/><path d="M312.65746,108.88999c2.16687,0.15183 2.65189,1.59403 2.53077,3.32266c-0.12113,1.72864 -0.80253,3.0891 -2.9694,2.93726c-2.16687,-0.15183 -4.99864,-1.75846 -4.87751,-3.48708c0.12113,-1.72864 3.14928,-2.92466 5.31614,-2.77281z" fill="#ff80ee"/><path d="M297.74874,107.93281c-1.42485,-1.63957 -0.74802,-3.00232 0.55995,-4.139c1.30798,-1.13667 2.7518,-1.61684 4.17664,0.02273c1.42485,1.63957 2.29117,4.778 0.98318,5.91467c-1.30798,1.13667 -4.29491,-0.15884 -5.71977,-1.7984z" fill="#ff80ee"/><path d="M312.26097,115.06539c1.42485,1.63957 0.74801,3.00232 -0.55996,4.139c-1.30798,1.13667 -2.7518,1.61684 -4.17664,-0.02274c-1.42485,-1.63957 -2.29117,-4.778 -0.98318,-5.91467c1.30798,-1.13667 4.29492,0.15884 5.71977,1.7984z" fill="#ff80ee"/><path d="M301.43857,118.7552c-1.63956,1.42486 -3.00232,0.74802 -4.139,-0.55995c-1.13667,-1.30798 -1.61684,-2.7518 0.02274,-4.17664c1.63956,-1.42486 4.77799,-2.29116 5.91467,-0.98318c1.13667,1.30798 -0.15884,4.29491 -1.7984,5.71977z" fill="#ff80ee"/><path d="M308.57115,104.24298c1.63956,-1.42486 3.00232,-0.74801 4.139,0.55996c1.13667,1.30798 1.61683,2.75179 -0.02273,4.17664c-1.63956,1.42486 -4.77799,2.29116 -5.91467,0.98318c-1.13667,-1.30798 0.15884,-4.29491 1.7984,-5.71977z" fill="#ff80ee"/><path d="M300.86716,111.12056c0.16037,-2.2886 2.14564,-4.01388 4.43424,-3.85352c2.28861,0.16037 4.01388,2.14564 3.85352,4.43424c-0.16037,2.2886 -2.14564,4.01388 -4.43424,3.85352c-2.28861,-0.16037 -4.01388,-2.14564 -3.85352,-4.43424z" fill="#ffe900"/></g></g></g></g></g></svg>