<svg version="1.1" xmlns="http://www.w3.org/2000/svg" xmlns:xlink="http://www.w3.org/1999/xlink" width="11.30971" height="10.9044" viewBox="0,0,11.30971,10.9044"><g transform="translate(-234.34515,-174.5478)"><g data-paper-data="{&quot;isPaintingLayer&quot;:true}" fill="#acacac" fill-rule="nonzero" stroke="none" stroke-width="0" stroke-linecap="butt" stroke-linejoin="miter" stroke-miterlimit="10" stroke-dasharray="" stroke-dashoffset="0" style="mix-blend-mode: normal"><path d="M235.30012,184.90376c-0.3573,-0.95908 -0.70857,-2.47912 -0.91691,-3.03834c-0.15837,-0.42512 0.21075,-1.07058 0.49433,-1.17423c0.23906,-0.08739 0.87153,-0.27554 0.87153,-0.27554c0,0 -0.70361,-2.55043 0.28907,-3.96184c0.39976,-0.56837 0.99382,-1.17634 1.60397,-1.46905c1.18538,-0.56869 2.55066,-0.41921 2.55066,-0.41921l0.0776,1.09694c0,0 -1.29524,-0.14317 -2.22017,0.43081c-0.53428,0.33155 -1.07157,0.9546 -1.18977,1.68212c-0.18015,1.10884 0.07006,2.41361 0.07006,2.41361l1.25906,4.68017c0,0 -0.85542,0.29368 -1.64655,0.50277c-0.72624,0.19193 -1.05323,0.04082 -1.24287,-0.46822z" data-paper-data="{&quot;index&quot;:null}"/><path d="M244.69986,184.90376c-0.18965,0.50904 -0.51662,0.66016 -1.24286,0.46822c-0.79114,-0.20909 -1.64656,-0.50277 -1.64656,-0.50277l1.3759,-4.68015c0,0 0.13338,-1.30478 -0.04677,-2.41362c-0.11821,-0.72751 -0.65549,-1.35057 -1.18976,-1.68212c-0.92494,-0.57398 -2.18044,-0.43081 -2.18044,-0.43081l0.03786,-1.09694c0,0 1.36529,-0.14948 2.55066,0.41921c0.61015,0.29273 1.20422,0.90068 1.60397,1.46905c0.99269,1.41139 0.28908,3.96183 0.28908,3.96183c0,0 0.63247,0.18814 0.87152,0.27553c0.28358,0.10365 0.65271,0.74911 0.49432,1.17423c-0.20834,0.55923 -0.55961,2.07925 -0.91691,3.03834z" data-paper-data="{&quot;index&quot;:null}"/></g></g></svg>