<svg version="1.1" xmlns="http://www.w3.org/2000/svg" xmlns:xlink="http://www.w3.org/1999/xlink" width="146.50943" height="302.71409" viewBox="0,0,146.50943,302.71409"><defs><linearGradient x1="240.00004" y1="175.50005" x2="240.00004" y2="307.50005" gradientUnits="userSpaceOnUse" id="color-1"><stop offset="0" stop-color="#000000"/><stop offset="1" stop-color="#65325d"/></linearGradient><linearGradient x1="190.41283" y1="8.84549" x2="194.86571" y2="115.48155" gradientUnits="userSpaceOnUse" id="color-2"><stop offset="0" stop-color="#000000"/><stop offset="1" stop-color="#4c2646"/></linearGradient><linearGradient x1="281.82387" y1="5.02838" x2="286.27674" y2="111.66444" gradientUnits="userSpaceOnUse" id="color-3"><stop offset="0" stop-color="#000000"/><stop offset="1" stop-color="#4c2647"/></linearGradient><linearGradient x1="237.88672" y1="74.82252" x2="242.91817" y2="195.31419" gradientUnits="userSpaceOnUse" id="color-4"><stop offset="0" stop-color="#1b0d19"/><stop offset="1" stop-color="#804076"/></linearGradient><linearGradient x1="222.06275" y1="63.61396" x2="223.01058" y2="86.31222" gradientUnits="userSpaceOnUse" id="color-5"><stop offset="0" stop-color="#33002b"/><stop offset="1" stop-color="#990085"/></linearGradient><linearGradient x1="256.5327" y1="62.17457" x2="257.48053" y2="84.8728" gradientUnits="userSpaceOnUse" id="color-6"><stop offset="0" stop-color="#33002b"/><stop offset="1" stop-color="#990085"/></linearGradient><linearGradient x1="239.34109" y1="67.10232" x2="239.98777" y2="82.58883" gradientUnits="userSpaceOnUse" id="color-7"><stop offset="0" stop-color="#1a0016"/><stop offset="1" stop-color="#80006e"/></linearGradient><linearGradient x1="278.40537" y1="62.35773" x2="282.29141" y2="155.41936" gradientUnits="userSpaceOnUse" id="color-8"><stop offset="0" stop-color="#1a0d17"/><stop offset="1" stop-color="#66335d"/></linearGradient><linearGradient x1="246.00681" y1="65.71234" x2="251.02015" y2="185.77035" gradientUnits="userSpaceOnUse" id="color-9"><stop offset="0" stop-color="#4c0000"/><stop offset="1" stop-color="#650000"/></linearGradient><radialGradient cx="246.42539" cy="126.45523" r="34.54447" gradientUnits="userSpaceOnUse" id="color-10"><stop offset="0" stop-color="#330000"/><stop offset="1" stop-color="#330000" stop-opacity="0"/></radialGradient><radialGradient cx="217.6189" cy="135.40107" r="23.48065" gradientUnits="userSpaceOnUse" id="color-11"><stop offset="0" stop-color="#808080"/><stop offset="1" stop-color="#804040"/></radialGradient><radialGradient cx="274.63225" cy="122.34435" r="23.48065" gradientUnits="userSpaceOnUse" id="color-12"><stop offset="0" stop-color="#808080"/><stop offset="1" stop-color="#804040"/></radialGradient><linearGradient x1="243.11792" y1="184.90622" x2="245.36855" y2="177.16619" gradientUnits="userSpaceOnUse" id="color-13"><stop offset="0" stop-color="#4d4d4d"/><stop offset="1" stop-color="#808080"/></linearGradient><linearGradient x1="260.79986" y1="161.07765" x2="266.80536" y2="170.61185" gradientUnits="userSpaceOnUse" id="color-14"><stop offset="0" stop-color="#4d4d4d"/><stop offset="1" stop-color="#808080"/></linearGradient><linearGradient x1="279.064" y1="148.77294" x2="282.06851" y2="157.48678" gradientUnits="userSpaceOnUse" id="color-15"><stop offset="0" stop-color="#4d4d4d"/><stop offset="1" stop-color="#808080"/></linearGradient></defs><g transform="translate(-169.15496,-4.78596)"><g data-paper-data="{&quot;isPaintingLayer&quot;:true}" fill-rule="nonzero" stroke-width="0" stroke-linejoin="miter" stroke-miterlimit="10" stroke-dasharray="" stroke-dashoffset="0" style="mix-blend-mode: normal"><path d="M206.75005,307.50004l15.14285,-131.8421l37.78325,-0.15789l13.57389,132z" fill="url(#color-1)" stroke="none" stroke-linecap="butt"/><g><path d="M184.65902,115.90776c0,0 -33.61579,-101.60594 -1.85031,-106.61651c32.44395,-5.1176 33.25705,75.17778 33.25705,75.17778" fill="url(#color-2)" stroke="none" stroke-linecap="round"/><path d="M262.56498,82.52732c0,0 -5.88396,-80.08363 26.8737,-77.6887c32.07263,2.34484 7.04475,106.39961 7.04475,106.39961" data-paper-data="{&quot;index&quot;:null}" fill="url(#color-3)" stroke="none" stroke-linecap="round"/><path d="M176.22136,137.7484c-1.3894,-33.27285 26.21913,-61.44573 61.66536,-62.92588c35.44623,-1.48015 65.30742,24.29293 66.69681,57.56577c1.3894,33.27285 -26.21913,61.44573 -61.66536,62.92588c-35.44623,1.48015 -65.30742,-24.29293 -66.69681,-57.56577z" fill="url(#color-4)" stroke="none" stroke-linecap="butt"/><g stroke="#000000" stroke-linecap="butt"><path d="M211.55408,84.77172c-3.44764,-6.91191 2.60165,-9.18991 2.60165,-9.18991c0,0 -4.87273,-1.96325 -3.84965,-8.71264c1.31477,-8.67377 24.38198,4.65176 24.38198,4.65176l0.14861,7.55367c0,0 -20.11428,12.04902 -23.28258,5.69713z" fill="url(#color-5)"/><path d="M245.09223,78.64634l-0.48166,-7.53976c0,0 21.87594,-15.20225 23.90927,-6.66829c1.58221,6.6406 -3.10988,9.00326 -3.10988,9.00326c0,0 6.21814,1.76574 3.35876,8.94101c-2.62771,6.5939 -23.6765,-3.73623 -23.6765,-3.73623z" data-paper-data="{&quot;index&quot;:null}" fill="url(#color-6)"/><path d="M231.92118,75.16892c-0.17858,-4.27647 3.14344,-7.88802 7.41991,-8.06659c4.27647,-0.17858 7.88802,3.14344 8.06659,7.41991c0.17858,4.27647 -3.14344,7.88802 -7.41991,8.06659c-4.27647,0.17858 -7.88802,-3.14344 -8.06659,-7.41991z" fill="url(#color-7)"/></g><path d="M243.66003,92.74085l18.78285,-18.39067l5.95989,3.69103l15.45561,-15.91119l5.65836,12.16995l19.43876,-8.95549l-7.33941,23.51699l14.04829,3.30995l-7.83216,16.35874l5.87771,15.09529l-9.52968,12.88651l-6.69644,18.27299l-4.50573,-2.62719z" fill="url(#color-8)" stroke="none" stroke-linecap="butt"/><path d="M220.82716,169.18768c0,0 -4.87559,2.69154 -7.3865,3.72873c-2.59242,1.07086 -7.93132,2.59863 -7.93132,2.59863c0,0 2.54228,-6.69681 3.02966,-10.06287c0.39121,-2.70187 -0.32996,-8.58247 -0.32996,-8.58247c0,0 -7.09562,2.31541 -10.95996,1.85862c-3.55457,-0.42017 -11.3745,-4.49871 -11.3745,-4.49871c0,0 1.57056,-7.9281 2.87409,-11.18305c1.11849,-2.79289 4.47728,-7.17349 4.47728,-7.17349c0,0 -1.84814,-3.03769 -3.59823,-4.19357c-1.75993,-1.16237 -6.93202,-2.76128 -6.93202,-2.76128c0,0 6.0659,-8.77936 9.03238,-11.87629c3.02692,-3.16003 8.95147,-6.89841 8.95147,-6.89841l-5.01139,-1.8761c0,0 7.36093,-1.16375 9.84628,-2.19296c2.47395,-1.02448 5.03178,-3.96818 5.03178,-3.96818c0,0 2.86925,-5.6592 4.38821,-7.95054c1.24057,-1.87139 4.06066,-4.79446 4.06066,-4.79446c0,0 0.04686,2.76832 0.61326,4.24479c0.63088,1.64454 2.9995,5.1727 2.9995,5.1727c0,0 8.51832,-7.7854 12.08675,-10.28833c2.56182,-1.79689 7.32321,-3.32599 7.32321,-3.32599c0,0 -0.4614,3.40811 -0.19957,4.51286c0.29279,1.23542 1.87382,2.55155 1.87382,2.55155l18.81755,-16.28005l6.16806,3.88251l15.0643,-15.69468l5.24202,11.78699l17.46554,-8.27257l-6.99817,22.10152l13.65698,3.52646l-7.26606,15.53441l5.84434,14.29598l-8.91351,13.26113l-5.28931,18.41441l-4.50573,-2.62719l-15.26501,19.15641l-2.89353,-5.29166l-14.15134,19.34496l-4.30168,-7.98874l-28.14022,8.87924c0,0 -1.57779,-5.98684 -2.83214,-8.8807c-1.21047,-2.79262 -4.56701,-8.18959 -4.56701,-8.18959z" fill="url(#color-9)" stroke="none" stroke-linecap="butt"/><path d="M234.71358,161.51886l-17.30146,-57.97335l40.72508,-12.15392l17.30146,57.97335z" fill="url(#color-10)" stroke="none" stroke-linecap="butt"/><path d="M225.25852,160.31349c6.06995,-6.46689 15.26747,7.57342 28.73049,5.81336c9.59321,-1.25414 23.80621,-18.49308 31.90198,-19.20226c9.65559,-0.84583 7.26059,5.39274 7.26059,5.39274l-14.96505,21.54597l-2.88519,-5.09183l-14.75917,19.17016l-5.48394,-7.53903l-26.81428,5.70687c0,0 -0.8482,-4.68372 -2.12753,-8.00487c-1.21735,-3.16025 -6.05254,-12.25679 -0.85791,-17.79113z" fill="#190000" stroke="none" stroke-linecap="butt"/><path d="M194.15869,136.38071c-0.54104,-12.95671 9.52385,-23.89881 22.48056,-24.43985c12.95671,-0.54104 23.89881,9.52385 24.43985,22.48056c0.54104,12.95671 -9.52385,23.89881 -22.48056,24.43985c-12.95671,0.54104 -23.89881,-9.52385 -24.43985,-22.48056z" fill="url(#color-11)" stroke="none" stroke-linecap="butt"/><path d="M210.89268,138.07505c-0.16578,-3.96996 2.91812,-7.32263 6.88807,-7.48841c3.96996,-0.16578 7.32263,2.91812 7.48841,6.88808c0.16578,3.96996 -2.91811,7.32263 -6.88808,7.48841c-3.96996,0.16578 -7.32262,-2.91812 -7.4884,-6.88808z" fill="#000000" stroke="none" stroke-linecap="butt"/><path d="M275.61189,145.80454c-12.95671,0.54104 -23.89881,-9.52385 -24.43985,-22.48056c-0.54104,-12.95671 9.52385,-23.89881 22.48056,-24.43985c12.95671,-0.54104 23.89881,9.52385 24.43985,22.48056c0.54104,12.95671 -9.52385,23.89881 -22.48056,24.43985z" data-paper-data="{&quot;index&quot;:null}" fill="url(#color-12)" stroke="none" stroke-linecap="butt"/><path d="M278.29149,128.78284c-3.32618,0.13889 -6.13518,-2.44491 -6.27407,-5.77109c-0.13889,-3.32618 2.44491,-6.13518 5.77109,-6.27407c3.32618,-0.13889 6.13518,2.44491 6.27407,5.77109c0.13889,3.32618 -2.44491,6.13518 -5.77109,6.27407z" data-paper-data="{&quot;index&quot;:null}" fill="#000000" stroke="none" stroke-linecap="butt"/><path d="M245.54377,161.70261c0,0 -1.2188,-3.81409 -1.58065,-5.93332c-0.35124,-2.05709 2.66675,-7.23636 2.66675,-7.23636l7.52015,11.14958c0,0 -2.52619,1.54253 -3.62082,1.77983c-1.11464,0.24164 -4.98544,0.24027 -4.98544,0.24027z" fill="#190000" stroke="none" stroke-linecap="butt"/><path d="M263.47879,155.95256c-1.19348,1.57229 -7.38638,1.63226 -7.38638,1.63226l-7.03701,-11.46636c0,0 5.96619,2.57147 7.9076,3.33693c2.00006,0.78857 9.67747,1.3371 9.67747,1.3371c0,0 -1.9682,3.58778 -3.16168,5.16007z" data-paper-data="{&quot;index&quot;:null}" fill="#190000" stroke="none" stroke-linecap="butt"/><path d="M247.81278,177.87693c0,0 -0.54468,2.19241 -1.43982,4.16835c-0.08293,0.18307 -4.83535,1.26469 -4.86659,1.0723c-0.41223,-2.53861 1.41798,-6.66211 1.41798,-6.66211z" fill="url(#color-13)" stroke="none" stroke-linecap="butt"/><path d="M263.79457,172.50833c0,0 -6.9118,-9.13856 -2.94827,-11.63515c3.96352,-2.49659 8.96988,7.84219 8.96988,7.84219z" fill="url(#color-14)" stroke="none" stroke-linecap="butt"/><path d="M279.31678,158.43557c0,0 -3.80012,-8.56778 -0.17764,-9.81681c3.62247,-1.24902 5.68112,7.91922 5.68112,7.91922z" fill="url(#color-15)" stroke="none" stroke-linecap="butt"/></g></g></g></svg>