<svg version="1.1" xmlns="http://www.w3.org/2000/svg" xmlns:xlink="http://www.w3.org/1999/xlink" width="206.51413" height="267.22501" viewBox="0,0,206.51413,267.22501"><defs><linearGradient x1="240.00006" y1="175.50003" x2="240.00006" y2="307.50003" gradientUnits="userSpaceOnUse" id="color-1"><stop offset="0" stop-color="#000000"/><stop offset="1" stop-color="#1f6266"/></linearGradient><linearGradient x1="240.68848" y1="191.31125" x2="240.68848" y2="227.70023" gradientUnits="userSpaceOnUse" id="color-2"><stop offset="0" stop-color="#1a0000"/><stop offset="1" stop-color="#800000"/></linearGradient><linearGradient x1="232.44907" y1="234.31309" x2="232.44907" y2="246.14642" gradientUnits="userSpaceOnUse" id="color-3"><stop offset="0" stop-color="#1a0000"/><stop offset="1" stop-color="#800000"/></linearGradient><linearGradient x1="226.9691" y1="235.84996" x2="236.02307" y2="234.49922" gradientUnits="userSpaceOnUse" id="color-4"><stop offset="0" stop-color="#1a0000" stop-opacity="0"/><stop offset="1" stop-color="#1a0000"/></linearGradient><linearGradient x1="177.67068" y1="174.70246" x2="192.65933" y2="174.70246" gradientUnits="userSpaceOnUse" id="color-5"><stop offset="0" stop-color="#1a0000" stop-opacity="0"/><stop offset="1" stop-color="#1a0000"/></linearGradient><linearGradient x1="291.89815" y1="71.44097" x2="291.89815" y2="114.10765" gradientUnits="userSpaceOnUse" id="color-6"><stop offset="0" stop-color="#000000"/><stop offset="1" stop-color="#1f6266"/></linearGradient><linearGradient x1="292.23148" y1="78.44097" x2="292.23148" y2="107.77432" gradientUnits="userSpaceOnUse" id="color-7"><stop offset="0" stop-color="#14191a"/><stop offset="1" stop-color="#657e80"/></linearGradient><linearGradient x1="187.23149" y1="71.44097" x2="187.23149" y2="114.10765" gradientUnits="userSpaceOnUse" id="color-8"><stop offset="0" stop-color="#000000"/><stop offset="1" stop-color="#1f6266"/></linearGradient><linearGradient x1="187.56482" y1="78.44097" x2="187.56482" y2="107.77432" gradientUnits="userSpaceOnUse" id="color-9"><stop offset="0" stop-color="#14191a"/><stop offset="1" stop-color="#657e80"/></linearGradient><radialGradient cx="241.23148" cy="182.88467" r="22.7341" gradientUnits="userSpaceOnUse" id="color-10"><stop offset="0" stop-color="#1a0000"/><stop offset="1" stop-color="#330000"/></radialGradient><linearGradient x1="244.55686" y1="203.97409" x2="244.55686" y2="217.39441" gradientUnits="userSpaceOnUse" id="color-11"><stop offset="0" stop-color="#1a0000"/><stop offset="1" stop-color="#1a0000" stop-opacity="0"/></linearGradient><linearGradient x1="230.44715" y1="68.47112" x2="230.40208" y2="84.88633" gradientUnits="userSpaceOnUse" id="color-12"><stop offset="0" stop-color="#1a0000" stop-opacity="0"/><stop offset="1" stop-color="#1a0000"/></linearGradient><linearGradient x1="182.93317" y1="98.43512" x2="201.60042" y2="98.43512" gradientUnits="userSpaceOnUse" id="color-13"><stop offset="0" stop-color="#1a0101" stop-opacity="0"/><stop offset="1" stop-color="#1a0101"/></linearGradient><linearGradient x1="240.077" y1="82.04784" x2="240.077" y2="202.6445" gradientUnits="userSpaceOnUse" id="color-14"><stop offset="0" stop-color="#08191a"/><stop offset="1" stop-color="#267b80"/></linearGradient><linearGradient x1="211.51667" y1="148.35348" x2="211.51667" y2="184.15348" gradientUnits="userSpaceOnUse" id="color-15"><stop offset="0" stop-color="#1a0000"/><stop offset="1" stop-color="#800000"/></linearGradient><radialGradient cx="212.87084" cy="142.27565" r="23.48065" gradientUnits="userSpaceOnUse" id="color-16"><stop offset="0" stop-color="#808080"/><stop offset="1" stop-color="#804040"/></radialGradient><radialGradient cx="266.4626" cy="142.27562" r="23.48065" gradientUnits="userSpaceOnUse" id="color-17"><stop offset="0" stop-color="#1a0000"/><stop offset="1" stop-color="#4d0000"/></radialGradient><linearGradient x1="245.38056" y1="61.20522" x2="245.38056" y2="89.38853" gradientUnits="userSpaceOnUse" id="color-18"><stop offset="0" stop-color="#0f3133"/><stop offset="1" stop-color="#08191a"/></linearGradient><linearGradient x1="262.15028" y1="141.15497" x2="275.76209" y2="141.15497" gradientUnits="userSpaceOnUse" id="color-19"><stop offset="0" stop-color="#1a0000"/><stop offset="1" stop-color="#1a0000" stop-opacity="0"/></linearGradient><radialGradient cx="312.9626" cy="125.92564" r="23.48065" gradientUnits="userSpaceOnUse" id="color-20"><stop offset="0" stop-color="#808080"/><stop offset="1" stop-color="#804040"/></radialGradient><linearGradient x1="313.92606" y1="120.5015" x2="328.29401" y2="120.5015" gradientUnits="userSpaceOnUse" id="color-21"><stop offset="0" stop-color="#1a0000"/><stop offset="1" stop-color="#1a0000" stop-opacity="0"/></linearGradient><linearGradient x1="193.80555" y1="95.87947" x2="193.80555" y2="120.02233" gradientUnits="userSpaceOnUse" id="color-22"><stop offset="0" stop-color="#1a0000"/><stop offset="1" stop-color="#800000"/></linearGradient></defs><g transform="translate(-143.67944,-46.3875)"><g data-paper-data="{&quot;isPaintingLayer&quot;:true}" fill-rule="nonzero" stroke-width="0" stroke-linejoin="miter" stroke-miterlimit="10" stroke-dasharray="" stroke-dashoffset="0" style="mix-blend-mode: normal"><path d="M178.40899,313.61251v-267.22501h123.18203v267.22501z" fill-opacity="0.01" fill="#000000" stroke="none" stroke-linecap="butt"/><path d="M227.77928,232.92066l39.18439,-13.90562c0,0 0.88968,-0.43005 1.9599,1.64989c1.20022,2.33259 -0.12048,2.7458 -0.12048,2.7458l-38.44088,15.61216z" fill="#332626" stroke="none" stroke-linecap="butt"/><path d="M206.75007,307.50001l15.14285,-131.8421l37.78325,-0.15789l13.57389,132z" fill="url(#color-1)" stroke="#000000" stroke-linecap="butt"/><path d="M223.10515,191.31125c0,0 12.08001,9.33334 18.01059,9.33334c5.78818,0 17.15608,-9.33334 17.15608,-9.33334c0,0 1.76242,17.00746 -0.66666,16.90857c-4.09294,-0.16663 -2.10574,35.6755 -4.269,35.74718c-2.79963,0.09278 -2.27579,-35.28034 -4.07553,-35.65772c-2.82686,-0.59276 -1.52244,27.45279 -3.86422,27.67023c-2.47839,0.23011 0.69545,-18.34439 -1.32923,-17.88259c-2.14049,0.48821 -1.90442,-8.39463 -3.86613,-8.72342c-2.04007,-0.34191 -1.1244,19.22985 -3.31191,18.97269c-1.98094,-0.23288 -0.78364,-11.77588 -2.72968,-12.39717c-1.7978,-0.57396 -0.9038,22.91934 -2.63549,22.95414c-2.25727,0.04536 -2.68934,-26.96426 -3.54055,-27.38845c-1.46383,-0.72949 -1.32353,11.06781 -4.04494,11.39754c-2.72141,0.32972 -0.83333,-31.60099 -0.83333,-31.60099z" fill="url(#color-2)" stroke="none" stroke-linecap="butt"/><path d="M231.44907,239.14642c-3.07182,-0.51466 -1.83333,-4.83333 -1.83333,-4.83333h5.66667c0,0 2.03301,11.5574 -0.83334,11.83333c-2.12502,0.20457 -1.15477,-6.69084 -3,-7z" fill="url(#color-3)" stroke="none" stroke-linecap="butt"/><path d="M212.28481,238.33251l19.74824,-7.00819c0,0 2.15489,-1.24191 3.65216,2.05091c1.35133,2.97185 -1.51469,4.01357 -1.51469,4.01357l-19.47979,7.91141c0,0 -0.93812,0.99331 -2.33021,-2.84692c-1.28919,-3.55633 -0.07571,-4.1208 -0.07571,-4.1208z" fill="#5d5f60" stroke="none" stroke-linecap="butt"/><path d="M226.5825,233.25859l5.45056,-1.93427c0,0 2.15489,-1.24191 3.65216,2.05091c1.35133,2.97185 -1.51469,4.01357 -1.51469,4.01357l-4.92568,2.00049c0,0 -0.35029,-2.20692 -0.82206,-3.29328c-0.40567,-0.93415 -1.8403,-2.83741 -1.8403,-2.83741z" fill="url(#color-4)" stroke="none" stroke-linecap="butt"/><g><path d="M158.87096,181.07388l121.39588,-48.42016c0,0 3.68311,-0.17224 4.43382,1.70707c0.75071,1.8793 -2.00835,5.19923 -2.00835,5.19923l-123.66393,49.42758c0,0 -1.59925,0.17478 -1.85269,-3.60319c-0.26953,-4.01796 1.69527,-4.31053 1.69527,-4.31053z" fill="#5d5f60" stroke="none" stroke-linecap="butt"/><path d="M177.67068,173.57539l12.16078,-4.85047l2.82787,6.82063l-12.84596,5.13444z" fill="url(#color-5)" stroke="none" stroke-linecap="butt"/><path d="M270.5648,92.77432c0,-11.78208 9.55126,-21.33333 21.33334,-21.33333c11.78208,0 21.33333,9.55126 21.33333,21.33333c0,11.78208 -9.55126,21.33333 -21.33333,21.33333c-11.78208,0 -21.33334,-9.55125 -21.33334,-21.33333z" fill="url(#color-6)" stroke="#000000" stroke-linecap="butt"/><path d="M277.5648,93.10765c0,-8.10018 6.5665,-14.66666 14.66667,-14.66666c8.10017,0 14.66667,6.56649 14.66667,14.66666c0,8.10018 -6.56649,14.66667 -14.66667,14.66667c-8.10017,0 -14.66667,-6.56649 -14.66667,-14.66667z" fill="url(#color-7)" stroke="#000000" stroke-linecap="butt"/><path d="M165.89815,92.77432c0,-11.78208 9.55126,-21.33333 21.33333,-21.33333c11.78207,0 21.33334,9.55126 21.33334,21.33333c0,11.78208 -9.55126,21.33333 -21.33334,21.33333c-11.78207,0 -21.33333,-9.55125 -21.33333,-21.33333z" fill="url(#color-8)" stroke="#000000" stroke-linecap="butt"/><path d="M172.89815,93.10765c0,-8.10018 6.56649,-14.66666 14.66667,-14.66666c8.10018,0 14.66666,6.56649 14.66666,14.66666c0,8.10018 -6.56649,14.66667 -14.66666,14.66667c-8.10018,0 -14.66667,-6.56649 -14.66667,-14.66667z" fill="url(#color-9)" stroke="#000000" stroke-linecap="butt"/><path d="M223.89814,194.21876l2.6,-26.73334c0,0 5.82767,-6.20201 9.48657,-7.1833c5.90937,-1.58484 10.1801,9.7833 10.1801,9.7833c0,0 8.33496,5.32289 10.02583,8.61372c2.26963,4.41723 2.37417,15.51962 2.37417,15.51962c0,0 -9.96966,11.4 -15.93334,11.4c-5.56415,0 -18.73333,-11.4 -18.73333,-11.4z" fill="url(#color-10)" stroke="none" stroke-linecap="butt"/><path d="M242.51911,226.42758l-18.50701,-174.71829c0,0 -0.3616,-2.99239 3.36559,-3.62367c3.71935,-0.62995 3.9079,2.90052 3.9079,2.90052l18.61888,175.18924c0,0 0.8843,2.704 -3.19481,2.98434c-3.77755,0.2596 -4.19056,-2.73213 -4.19056,-2.73213z" fill="#5d5f60" stroke="none" stroke-linecap="butt"/><path d="M241.56228,217.39441l-1.29359,-12.21231l7.27626,-1.20801l1.30009,12.23284z" fill="url(#color-11)" stroke="none" stroke-linecap="butt"/><path d="M240.29775,205.45648l-5.04245,-47.60402l8.43891,9.88914l3.91542,36.84112z" fill="#332626" stroke="none" stroke-linecap="butt"/><path d="M227.57244,84.87856l-1.5943,-15.4562l7.25974,-0.94358l1.63235,15.77103z" fill="url(#color-12)" stroke="none" stroke-linecap="butt"/><path d="M248.47273,146.224l-103.62612,-79.64356c0,0 -2.41449,-1.80427 -0.29802,-4.93653c2.11201,-3.12566 4.7963,-0.82472 4.7963,-0.82472l104.04406,79.88776c0,0 2.56671,1.22704 -0.0466,4.3716c-2.42012,2.9121 -4.86962,1.14546 -4.86962,1.14546z" fill="#5d5f60" stroke="none" stroke-linecap="butt"/><path d="M197.75162,107.24146l-14.81844,-11.38896l3.9327,-6.2237l14.73455,11.57827z" fill="url(#color-13)" stroke="none" stroke-linecap="butt"/><path d="M175.83998,142.34618c0,-33.30185 28.7599,-60.29833 64.23702,-60.29833c35.47712,0 64.23702,26.99649 64.23702,60.29833c0,33.30185 -32.02588,63.73352 -63.98702,64.79833c-24.97452,0.83204 -64.48702,-31.49649 -64.48702,-64.79833zM242.8649,204.62721c5.52285,0 12.58334,-17.47715 12.58334,-23c0,-2.64974 -5.7836,-5.87385 -10.41387,-9.89851c-5.02059,-4.36394 -8.91947,-9.43482 -8.91947,-9.43482c0,0 -8.66666,15.06049 -8.66666,20.58334c0,5.52285 4.89381,21.75 15.41666,21.75z" fill="url(#color-14)" stroke="#000000" stroke-linecap="butt"/><path d="M196.98333,175.48681c-1.97987,0.2087 -2.06558,-6.31866 -2.59492,-10.23577c-0.66268,-4.9038 -1.07174,-16.89756 -1.07174,-16.89756h36.4c0,0 -5.18578,15.84705 -6.20614,22.92893c-1.03499,7.18335 -0.02168,10.67525 -2.12719,10.7044c-0.86837,0.01202 -1.82876,-5.19987 -2.41587,-10.47788c-0.61767,-5.55265 -0.85781,-11.19626 -1.62156,-11.64665c-0.89622,-0.52851 -3.43604,6.38832 -4.28614,13.51807c-0.86811,7.28079 -0.05264,14.78361 -1.57521,14.80662c-1.95124,0.02948 -2.85822,-7.51725 -3.00706,-14.66068c-0.11241,-5.39515 0.63723,-10.56027 -0.73598,-12.05765c-1.85188,-2.01933 -2.70466,7.06293 -5.84064,7.09728c-4.38003,0.04799 -2.38928,6.65439 -4.91754,6.92089z" fill="url(#color-15)" stroke="none" stroke-linecap="butt"/><path d="M189.39019,142.27565c0,-12.968 10.51265,-23.48065 23.48065,-23.48065c12.968,0 23.48065,10.51265 23.48065,23.48065c0,12.968 -10.51265,23.48065 -23.48065,23.48065c-12.968,0 -23.48065,-10.51265 -23.48065,-23.48065z" fill="url(#color-16)" stroke="#000000" stroke-linecap="butt"/><path d="M197.45558,146.75c0,-9.12808 7.39976,-16.52784 16.52783,-16.52784c9.12808,0 16.52784,7.39977 16.52784,16.52784c0,9.12808 -7.39977,16.52784 -16.52784,16.52784c-9.12808,0 -16.52783,-7.39977 -16.52783,-16.52784z" fill="#000000" stroke="none" stroke-linecap="butt"/><path d="M266.4626,165.75628c-12.968,0 -23.48065,-10.51265 -23.48065,-23.48065c0,-12.968 10.51265,-23.48065 23.48065,-23.48065c12.968,0 23.48065,10.51265 23.48065,23.48065c0,12.968 -10.51265,23.48065 -23.48065,23.48065z" data-paper-data="{&quot;index&quot;:null}" fill="url(#color-17)" stroke="#000000" stroke-linecap="butt"/><path d="M202.02786,113.46718c0,0 6.70895,-5.16922 11.79721,-6.36355c5.08827,-1.19433 12.33413,0.69937 12.33413,0.69937c0,0 -8.03812,-0.06028 -11.96762,0.86207c-4.10648,0.96389 -12.16372,4.80211 -12.16372,4.80211z" fill="#000000" stroke="none" stroke-linecap="butt"/><path d="M265.96236,108.66508c-3.9295,-0.92235 -11.96762,-0.86207 -11.96762,-0.86207c0,0 7.24586,-1.8937 12.33413,-0.69937c5.08826,1.19433 11.79721,6.36355 11.79721,6.36355c0,0 -8.05724,-3.83822 -12.16372,-4.80211z" data-paper-data="{&quot;index&quot;:null}" fill="#000000" stroke="none" stroke-linecap="butt"/><path d="M236.07216,88.1102c0,0 -0.31681,-11.18942 4.28605,-18.88927c6.639,-11.106 14.33538,-7.43386 14.33538,-7.43386c0,0 -6.65329,6.79884 -8.98204,11.06679c-2.20558,4.04221 -2.19806,16.53467 -2.19806,16.53467" fill="url(#color-18)" stroke="#000000" stroke-linecap="round"/><path d="M263.87095,139.07387l52.72922,-20.42016c0,0 4.01644,0.1611 4.76715,2.0404c0.75071,1.8793 -2.00835,4.86589 -2.00835,4.86589l-55.3306,21.42759c0,0 -1.59925,0.17478 -1.85269,-3.60319c-0.26954,-4.01796 1.69527,-4.31053 1.69527,-4.31053z" fill="#5d5f60" stroke="none" stroke-linecap="butt"/><path d="M263.87095,139.07387l9.69053,-3.7528c0,0 -0.49068,2.64846 -0.18258,3.64565c0.40078,1.29716 2.38319,3.47681 2.38319,3.47681l-11.73372,4.54406c0,0 -1.59925,0.17478 -1.85269,-3.60319c-0.26954,-4.01796 1.69527,-4.31053 1.69527,-4.31053z" fill="url(#color-19)" stroke="none" stroke-linecap="butt"/><path d="M312.9626,149.40627c-12.968,0 -23.48065,-10.51265 -23.48065,-23.48065c0,-12.968 10.51265,-23.48065 23.48065,-23.48065c12.968,0 23.48065,10.51265 23.48065,23.48065c0,12.968 -10.51265,23.48065 -23.48065,23.48065z" data-paper-data="{&quot;index&quot;:null}" fill="url(#color-20)" stroke="#000000" stroke-linecap="butt"/><path d="M318.01671,139.17784c-9.12807,0 -16.52783,-7.39977 -16.52783,-16.52784c0,-9.12808 7.39977,-16.52784 16.52783,-16.52784c9.12807,0 16.52783,7.39977 16.52783,16.52784c0,9.12808 -7.39977,16.52784 -16.52783,16.52784z" data-paper-data="{&quot;index&quot;:null}" fill="#000000" stroke="none" stroke-linecap="butt"/><path d="M315.38744,119.12337l32.57018,-12.61328c0,0 1.79147,-0.38127 2.18602,3.43653c0.42731,4.13474 -2.0286,4.47719 -2.0286,4.47719l-29.8391,11.55563c0,0 -3.39911,-0.59408 -4.17527,-2.43637c-0.77616,-1.8423 1.28678,-4.4197 1.28678,-4.4197z" fill="#5d5f60" stroke="none" stroke-linecap="butt"/><path d="M315.38744,119.12337l10.5866,-4.09982c0,0 -0.19186,2.70239 0.13975,3.71386c0.42043,1.28238 2.18023,3.36238 2.18023,3.36238l-10.01807,3.87965c0,0 -3.39911,-0.59408 -4.17527,-2.43637c-0.77616,-1.8423 1.28678,-4.4197 1.28678,-4.4197z" fill="url(#color-21)" stroke="none" stroke-linecap="butt"/><path d="M192.59127,112.16519c-3.59844,-0.21645 -3.85714,-6.85714 -3.85714,-6.85714c0,0 2.65723,-4.31518 4.31681,-5.80641c1.62542,-1.46052 5.54033,-3.62217 5.54033,-3.62217c0,0 4.38738,7.42606 1.31484,8.29516c-1.88292,0.5326 0.12064,17.22971 -2.45769,17.27627c-2.42902,0.04386 -2.56506,-9.14784 -4.85715,-9.28571z" fill="url(#color-22)" stroke="none" stroke-linecap="butt"/></g></g></g></svg>