<svg version="1.1" xmlns="http://www.w3.org/2000/svg" xmlns:xlink="http://www.w3.org/1999/xlink" width="35.125" height="35.12434" viewBox="0,0,35.125,35.12434"><g transform="translate(-222.43752,-162.43783)"><g data-paper-data="{&quot;isPaintingLayer&quot;:true}" stroke-miterlimit="10" stroke-dasharray="" stroke-dashoffset="0" style="mix-blend-mode: normal"><path d="M257.56251,169.8317v20.49804c0,4.00745 -3.22497,7.23243 -7.23242,7.23243h-20.5c-3.66107,0 -6.66147,-2.69385 -7.1543,-6.21484c0.7952,3.03475 3.54108,5.26367 6.83204,5.26367h20.0332c3.9166,0 7.07032,-3.15372 7.07032,-7.07031v-20.03321c0,-3.2976 -2.23906,-6.0451 -5.28321,-6.83398c3.52994,0.48496 6.23438,3.49081 6.23438,7.15821z" fill-opacity="0.29839" fill="#000000" fill-rule="evenodd" stroke="none" stroke-width="4.54219" stroke-linecap="round" stroke-linejoin="round"/><path d="M229.50719,162.43783h20.03378c3.9166,0 7.06966,3.15307 7.06966,7.06966v20.03379c0,3.91659 -3.15307,7.06966 -7.06966,7.06966h-20.03378c-3.91659,0 -7.06967,-3.15307 -7.06967,-7.06966v-20.03379c0,-3.91659 3.15308,-7.06966 7.06967,-7.06966z" fill="#804400" fill-rule="evenodd" stroke="none" stroke-width="4.43922" stroke-linecap="round" stroke-linejoin="round"/><path d="M226.03734,191.17863c0,-5.67222 4.8986,-10.27045 10.94133,-10.27045c6.04273,0 10.94133,4.59823 10.94133,10.27045" fill="#804400" fill-rule="nonzero" stroke="#000000" stroke-width="0.5" stroke-linecap="butt" stroke-linejoin="miter"/><path d="M236.06944,181.4046c0,-0.91586 0.90273,-6.47964 0.90273,-6.47964c0,0 0.90274,5.56378 0.90274,6.47964" fill="#804400" fill-rule="nonzero" stroke="#000000" stroke-width="0.5" stroke-linecap="butt" stroke-linejoin="miter"/><g fill-rule="nonzero" stroke="#000000" stroke-width="0.5" stroke-linejoin="miter"><path d="M247.92898,188.88343c0,0 -4.17628,-0.20806 -9.16967,-2.58516c-4.85786,-2.31259 -7.10296,-4.44532 -7.10296,-4.44532l9.36127,-15.70812c0,0 2.71965,-0.24999 6.70829,1.56114c3.87097,1.75769 5.37994,3.66151 5.37994,3.66151z" fill="#333333" stroke-linecap="butt"/><path d="M247.92898,188.88343c0,0 -4.17628,-0.20806 -9.16967,-2.58516c-4.85786,-2.31259 -7.10296,-4.44532 -7.10296,-4.44532l9.36127,-15.70812c0,0 3.75751,2.37077 5.75157,3.23229c2.03454,0.87901 6.33667,1.99035 6.33667,1.99035z" fill="#808080" stroke-linecap="butt"/><path d="M247.83851,188.74106c0,0 2.40887,4.03895 -3.18766,4.26469c-6.4119,0.25862 -13.05769,-11.14545 -13.05769,-11.14545" fill="none" stroke-linecap="round"/></g></g></g></svg>