<svg version="1.1" xmlns="http://www.w3.org/2000/svg" xmlns:xlink="http://www.w3.org/1999/xlink" width="164.52117" height="304.82884" viewBox="0,0,164.52117,304.82884"><g transform="translate(-154.98539,-8.78367)"><g data-paper-data="{&quot;isPaintingLayer&quot;:true}" fill-rule="nonzero" stroke-linejoin="miter" stroke-miterlimit="10" stroke-dasharray="" stroke-dashoffset="0" style="mix-blend-mode: normal"><path d="M179.28376,313.61251v-267.22501h123.18203v267.22501z" fill-opacity="0.01" fill="#000000" stroke="none" stroke-width="0" stroke-linecap="butt"/><path d="M271.52373,223.85811c-12.92088,-1.20561 -9.80557,-122.43002 -9.80557,-122.43002l12.67283,-1.75189c0,0 9.66941,125.35168 -2.86725,124.18191z" data-paper-data="{&quot;index&quot;:null}" fill="#006609" stroke="#000000" stroke-width="2" stroke-linecap="butt"/><path d="M280.85706,212.52477c-12.92088,-1.20561 -8.80557,-109.76335 -8.80557,-109.76335l12.67282,-1.75189c0,0 8.66941,112.68501 -3.86725,111.51525z" data-paper-data="{&quot;index&quot;:null}" fill="#00800b" stroke="#000000" stroke-width="2" stroke-linecap="butt"/><path d="M207.61425,80.00953l12.67282,1.75189c0,0 3.11531,139.22441 -9.80557,140.43003c-12.53666,1.16977 -2.86725,-142.18191 -2.86725,-142.18191z" fill="#006609" stroke="#000000" stroke-width="2" stroke-linecap="butt"/><path d="M201.82647,212.96237c-12.8665,-1.68988 -4.5262,-105.69916 -4.5262,-105.69916l12.72966,-1.27485c0,0 4.28044,108.61365 -8.20346,106.97402z" data-paper-data="{&quot;index&quot;:null}" fill="#00800b" stroke="#000000" stroke-width="2" stroke-linecap="butt"/><path d="M206.75007,307.5l15.14285,-131.8421l37.78325,-0.15789l13.57389,132z" fill="#4dff5b" stroke="#000000" stroke-width="2" stroke-linecap="butt"/><path d="M186.13928,202.21209c-11.85707,-2.01666 0.80492,-97.76965 0.80492,-97.76965l12.76881,-0.7919c0,0 -1.16086,100.67273 -13.57373,98.56155z" data-paper-data="{&quot;index&quot;:null}" fill="#006609" stroke="#000000" stroke-width="2" stroke-linecap="butt"/><path d="M294.51406,199.58355c-12.97213,-0.35584 -18.99203,-79.15159 -18.99203,-79.15159l12.53069,-2.57904c0,0 19.04773,82.07589 6.46134,81.73063z" data-paper-data="{&quot;index&quot;:null}" fill="#006609" stroke="#000000" stroke-width="2" stroke-linecap="butt"/><path d="M219.70029,204.11263l3.12142,-26.32765l35.83075,-0.14203l2.76735,26.1059c0,0 -7.51543,4.19603 -21.55904,4.50964c-12.48458,0.27879 -20.16049,-4.14586 -20.16049,-4.14586z" fill="#45e652" stroke="#000000" stroke-width="0" stroke-linecap="butt"/><path d="M298.45696,177.12279c-6.96196,-1.98495 2.87949,-14.59911 -0.90901,-27.03845c-3.24984,-10.67066 3.1711,-15.32245 6.4215,-4.65196c3.03726,9.97082 2.34727,33.93133 -5.51249,31.69041z" data-paper-data="{&quot;index&quot;:null}" fill="#006609" stroke="#000000" stroke-width="2" stroke-linecap="butt"/><path d="M175.83997,136.84616c0,-33.30185 28.7599,-60.29833 64.23702,-60.29833c35.47712,0 64.23702,26.99649 64.23702,60.29833c0,33.30185 -28.7599,60.29833 -64.23702,60.29833c-35.47712,0 -64.23702,-26.99649 -64.23702,-60.29833z" fill="#4dff5b" stroke="#000000" stroke-width="2" stroke-linecap="butt"/><path d="M189.3902,137.27563c0,-12.968 10.51265,-23.48065 23.48065,-23.48065c12.968,0 23.48065,10.51265 23.48065,23.48065c0,12.968 -10.51265,23.48065 -23.48065,23.48065c-12.968,0 -23.48065,-10.51265 -23.48065,-23.48065z" fill="#ffffff" stroke="#000000" stroke-width="2" stroke-linecap="butt"/><path d="M196.45557,137c0,-9.12808 7.39976,-16.52784 16.52783,-16.52784c9.12808,0 16.52784,7.39977 16.52784,16.52784c0,9.12808 -7.39977,16.52784 -16.52784,16.52784c-9.12808,0 -16.52783,-7.39977 -16.52783,-16.52784z" fill="#000000" stroke="none" stroke-width="0" stroke-linecap="butt"/><path d="M267.37926,160.75627c-12.968,0 -23.48065,-10.51265 -23.48065,-23.48065c0,-12.968 10.51265,-23.48065 23.48065,-23.48065c12.968,0 23.48065,10.51265 23.48065,23.48065c0,12.968 -10.51265,23.48065 -23.48065,23.48065z" data-paper-data="{&quot;index&quot;:null}" fill="#ffffff" stroke="#000000" stroke-width="2" stroke-linecap="butt"/><path d="M267.01671,153.52784c-9.12807,0 -16.52783,-7.39977 -16.52783,-16.52784c0,-9.12808 7.39977,-16.52784 16.52783,-16.52784c9.12807,0 16.52783,7.39977 16.52783,16.52784c0,9.12808 -7.39977,16.52784 -16.52783,16.52784z" data-paper-data="{&quot;index&quot;:null}" fill="#000000" stroke="none" stroke-width="0" stroke-linecap="butt"/><path d="M189.30686,137.27563c0,-12.968 10.51265,-23.48065 23.48065,-23.48065c12.968,0 23.48065,10.51265 23.48065,23.48065c0,0 -46.96131,1.23155 -46.96131,0z" fill="#00cc11" stroke="#000000" stroke-width="2" stroke-linecap="butt"/><path d="M243.64863,137.27563c0,-12.968 10.51265,-23.48065 23.48065,-23.48065c12.968,0 23.48065,10.51265 23.48065,23.48065c0,1.2138 -46.96131,0 -46.96131,0z" data-paper-data="{&quot;index&quot;:null}" fill="#00cc11" stroke="#000000" stroke-width="2" stroke-linecap="butt"/><path d="M202.02787,108.46716c0,0 6.70895,-5.16922 11.79721,-6.36355c5.08827,-1.19433 12.33413,0.69937 12.33413,0.69937c0,0 -8.03812,-0.06028 -11.96762,0.86207c-4.10648,0.96389 -12.16372,4.80211 -12.16372,4.80211z" fill="#000000" stroke="none" stroke-width="0" stroke-linecap="butt"/><path d="M176.56303,136.89998c0,-0.72799 5.20666,55.91939 63.36046,56.93429c55.56352,0.9697 63.51358,-57.95314 63.51358,-56.93429c0,32.80479 -28.40173,59.39833 -63.43702,59.39833c-35.03529,0 -63.43702,-26.59354 -63.43702,-59.39833z" fill="#45e652" stroke="#000000" stroke-width="0" stroke-linecap="butt"/><path d="M265.96236,103.66506c-3.9295,-0.92235 -11.96762,-0.86207 -11.96762,-0.86207c0,0 7.24586,-1.8937 12.33413,-0.69937c5.08826,1.19433 11.79721,6.36355 11.79721,6.36355c0,0 -8.05724,-3.83822 -12.16372,-4.80211z" data-paper-data="{&quot;index&quot;:null}" fill="#000000" stroke="none" stroke-width="0" stroke-linecap="butt"/><path d="M172.47008,136.71162c8.91267,-6.70737 11.36062,0.8342 2.4483,7.54203c-10.38955,7.81966 -9.86848,23.81028 -16.66343,21.31277c-7.67121,-2.81958 5.88687,-22.58725 14.21513,-28.8548z" data-paper-data="{&quot;index&quot;:null}" fill="#006609" stroke="#000000" stroke-width="2" stroke-linecap="butt"/><path d="M189.33894,136.97569l-3.6,-2.6" fill="none" stroke="#000000" stroke-width="2" stroke-linecap="round"/><path d="M184.70289,88.0837c17.26267,-17.00054 45.16881,-25.8907 50.38685,-16.61226c4.12391,7.33291 -20.66933,2.94544 -43.61423,28.07498c-19.53961,21.40003 -16.41285,52.3994 -29.43331,48.98256c-12.8581,-3.37423 11.01223,-48.9737 22.66069,-60.44528z" fill="#00cc11" stroke="#000000" stroke-width="2" stroke-linecap="butt"/><path d="M186.35265,96.71212c15.07986,-18.96354 41.70594,-31.1635 48.00784,-22.58425c4.9805,6.78033 -20.16137,5.42364 -39.8986,33.14374c-16.808,23.60612 -9.95502,53.99978 -23.29315,52.18276c-13.17181,-1.79437 5.00836,-49.94606 15.18391,-62.74224z" fill="#00e613" stroke="#000000" stroke-width="2" stroke-linecap="butt"/><path d="M254.06733,71.50877c-0.17572,2.91984 -7.20804,4.71609 -15.70713,4.01203c-8.49909,-0.70406 -15.24652,-3.64181 -15.0708,-6.56165c0.17572,-2.91984 7.20804,-4.71609 15.70713,-4.01203c8.49909,0.70406 15.24652,3.64181 15.0708,6.56165z" fill="#00ff15" stroke="#000000" stroke-width="2" stroke-linecap="butt"/><path d="M314.67218,152.91787c-13.08627,3.15544 -9.3394,-27.77512 -28.44657,-49.56212c-22.4371,-25.58395 -47.31322,-21.69383 -43.04331,-28.94269c5.40279,-9.17209 33.12532,0.27508 50.04411,17.61788c11.41641,11.70253 34.36887,57.77084 21.44578,60.88693z" data-paper-data="{&quot;index&quot;:null}" fill="#00b30f" stroke="#000000" stroke-width="2" stroke-linecap="butt"/><path d="M294.33893,133.37569l-4.2,3.4" fill="none" stroke="#000000" stroke-width="2" stroke-linecap="round"/><path d="M256.36663,174.40644c0,0 -6.79576,2.20117 -16.19298,2.25c-9.39722,0.04883 -15.91662,-2.5 -15.91662,-2.5" fill="none" stroke="#000000" stroke-width="2" stroke-linecap="round"/><path d="M310.10065,162.9586c-13.38485,1.43288 -5.66106,-28.75125 -21.78356,-52.83075c-18.93227,-28.27598 -44.10275,-27.64254 -38.92941,-34.2769c6.54591,-8.39455 32.81031,4.56571 47.33883,23.95489c9.80352,13.08338 26.59208,61.73776 13.37414,63.15277z" data-paper-data="{&quot;index&quot;:null}" fill="#00e613" stroke="#000000" stroke-width="2" stroke-linecap="butt"/><g stroke="#000000" stroke-width="2" stroke-linecap="butt"><path d="M171.36383,107.88542c0,-3.09425 2.00108,-3.92708 4.46952,-3.92708c2.46845,0 4.46952,0.83283 4.46952,3.92708c0,3.09425 -2.00107,7.27819 -4.46952,7.27819c-2.46845,0 -4.46952,-4.18394 -4.46952,-7.27819z" fill="#ff80ee"/><path d="M180.30286,129.11459c0,3.09425 -2.00107,3.92708 -4.46952,3.92708c-2.46845,0 -4.46952,-0.83283 -4.46952,-3.92708c0,-3.09425 2.00108,-7.27819 4.46952,-7.27819c2.46845,0 4.46952,4.18394 4.46952,7.27819z" fill="#ff80ee"/><path d="M165.21875,122.96952c-3.09425,0 -3.92708,-2.00108 -3.92708,-4.46952c0,-2.46845 0.83283,-4.46952 3.92708,-4.46952c3.09425,0 7.27819,2.00108 7.27819,4.46952c0,2.46845 -4.18394,4.46952 -7.27819,4.46952z" fill="#ff80ee"/><path d="M186.44793,114.03048c3.09425,0 3.92708,2.00108 3.92708,4.46952c0,2.46845 -0.83283,4.46952 -3.92708,4.46952c-3.09425,0 -7.27819,-2.00108 -7.27819,-4.46952c0,-2.46845 4.18394,-4.46952 7.27819,-4.46952z" fill="#ff80ee"/><path d="M165.16726,114.15478c-2.18796,-2.18797 -1.3619,-4.19183 0.38356,-5.93729c1.74545,-1.74546 3.74933,-2.57153 5.93729,-0.38357c2.18796,2.18797 3.73148,6.56143 1.98603,8.30689c-1.74545,1.74546 -6.11892,0.20194 -8.30688,-1.98603z" fill="#ff80ee"/><path d="M186.49942,122.84522c2.18796,2.18797 1.36189,4.19183 -0.38357,5.93729c-1.74545,1.74545 -3.74933,2.57153 -5.93729,0.38357c-2.18796,-2.18797 -3.73148,-6.56143 -1.98603,-8.30689c1.74545,-1.74546 6.11892,-0.20194 8.30689,1.98603z" fill="#ff80ee"/><path d="M171.48812,129.16608c-2.18796,2.18796 -4.19184,1.36189 -5.93729,-0.38357c-1.74545,-1.74546 -2.57152,-3.74932 -0.38356,-5.93729c2.18796,-2.18797 6.56143,-3.73149 8.30688,-1.98603c1.74545,1.74546 0.20193,6.11892 -1.98603,8.30689z" fill="#ff80ee"/><path d="M180.17857,107.83393c2.18796,-2.18797 4.19184,-1.36189 5.93729,0.38357c1.74545,1.74546 2.57153,3.74932 0.38357,5.93729c-2.18796,2.18797 -6.56143,3.73149 -8.30689,1.98603c-1.74545,-1.74546 -0.20193,-6.11892 1.98603,-8.30689z" fill="#ff80ee"/><path d="M169.91595,118.3741c0,-3.26808 2.6493,-5.91739 5.91739,-5.91739c3.26809,0 5.91739,2.6493 5.91739,5.91739c0,3.26808 -2.6493,5.91739 -5.91739,5.91739c-3.26809,0 -5.91739,-2.6493 -5.91739,-5.91739z" fill="#ffe900"/></g><path d="M189.99913,125.6668c6.90372,-8.76146 11.19683,-2.09536 4.29357,6.66646c-8.04749,10.2141 -3.45915,25.54115 -10.66664,24.86216c-8.13695,-0.76656 -0.07797,-23.34165 6.37307,-31.52861z" data-paper-data="{&quot;index&quot;:null}" fill="#00ff15" stroke="#000000" stroke-width="2" stroke-linecap="butt"/><path d="M180.47832,124.07837c10.71804,-14.44813 20.47709,-26.1289 25.95351,-34.10829c6.86286,-9.99948 14.19538,-24.89167 21.27749,-21.66365c7.39562,3.37092 -0.38835,20.64223 -7.47701,30.97072c-5.45336,7.94578 -21.3435,21.70373 -32.01189,36.08648c-13.37042,18.02553 -4.68475,44.2372 -17.15317,43.42784c-14.07632,-0.91374 -1.30697,-40.26497 9.41108,-54.7131z" fill="#00ff15" stroke="#000000" stroke-width="2" stroke-linecap="butt"/><g stroke="#000000" stroke-width="2" stroke-linecap="butt"><path d="M183.02905,136.0485c0,-2.17218 1.40476,-2.75683 3.13763,-2.75683c1.73287,0 3.13762,0.58465 3.13762,2.75683c0,2.17218 -1.40476,5.10933 -3.13762,5.10933c-1.73287,0 -3.13763,-2.93715 -3.13763,-5.10933z" fill="#ff80ee"/><path d="M189.30431,150.9515c0,2.17218 -1.40476,2.75683 -3.13762,2.75683c-1.73287,0 -3.13763,-0.58465 -3.13763,-2.75683c0,-2.17218 1.40476,-5.10933 3.13763,-5.10933c1.73287,0 3.13762,2.93715 3.13762,5.10933z" fill="#ff80ee"/><path d="M178.71518,146.63763c-2.17218,0 -2.75683,-1.40476 -2.75683,-3.13763c0,-1.73287 0.58465,-3.13763 2.75683,-3.13763c2.17218,0 5.10933,1.40476 5.10933,3.13763c0,1.73287 -2.93715,3.13763 -5.10933,3.13763z" fill="#ff80ee"/><path d="M193.61818,140.36237c2.17218,0 2.75683,1.40476 2.75683,3.13763c0,1.73287 -0.58465,3.13763 -2.75683,3.13763c-2.17218,0 -5.10933,-1.40476 -5.10933,-3.13763c0,-1.73287 2.93715,-3.13763 5.10933,-3.13763z" fill="#ff80ee"/><path d="M178.67904,140.44963c-1.53597,-1.53597 -0.95606,-2.94269 0.26926,-4.16801c1.22532,-1.22532 2.63205,-1.80523 4.16801,-0.26926c1.53597,1.53597 2.61953,4.60616 1.3942,5.83148c-1.22532,1.22532 -4.29551,0.14176 -5.83148,-1.3942z" fill="#ff80ee"/><path d="M193.65433,146.55037c1.53597,1.53597 0.95606,2.94269 -0.26926,4.16801c-1.22532,1.22532 -2.63205,1.80523 -4.16801,0.26926c-1.53597,-1.53597 -2.61953,-4.60616 -1.3942,-5.83148c1.22532,-1.22532 4.29551,-0.14176 5.83148,1.3942z" fill="#ff80ee"/><path d="M183.11631,150.98764c-1.53597,1.53597 -2.94269,0.95606 -4.16801,-0.26926c-1.22532,-1.22532 -1.80523,-2.63205 -0.26926,-4.16801c1.53597,-1.53597 4.60616,-2.61953 5.83148,-1.3942c1.22532,1.22532 0.14176,4.29551 -1.3942,5.83148z" fill="#ff80ee"/><path d="M189.21705,136.01236c1.53597,-1.53597 2.94269,-0.95606 4.16801,0.26926c1.22532,1.22532 1.80523,2.63205 0.26926,4.16801c-1.53597,1.53597 -4.60616,2.61953 -5.83148,1.3942c-1.22532,-1.22532 -0.14176,-4.29551 1.3942,-5.83148z" fill="#ff80ee"/><path d="M182.01264,143.41162c0,-2.29422 1.85982,-4.15404 4.15404,-4.15404c2.29422,0 4.15404,1.85983 4.15404,4.15404c0,2.29422 -1.85983,4.15404 -4.15404,4.15404c-2.29422,0 -4.15404,-1.85982 -4.15404,-4.15404z" fill="#ffe900"/></g><path d="M254.87706,83.9258c0,0 20.59278,-12.62253 20.49553,-22.78685c-0.05559,-5.80918 -9.35213,-14.77672 -10.61022,-24.96033c-1.65819,-13.42209 11.36908,-24.59081 11.36908,-24.59081c0,0 -2.63261,10.4951 -1.39167,22.97406c0.98893,9.94474 9.07141,12.99485 12.10662,25.90051c2.97256,12.63927 -8.84819,33.90582 -8.84819,33.90582c0,0 -3.71802,4.22417 -14.22073,-0.55159c-9.55091,-4.34297 -8.90042,-9.8908 -8.90042,-9.8908z" fill="#004d05" stroke="#000000" stroke-width="2" stroke-linecap="butt"/><path d="M192.70857,135.7046c7.18894,-16.49072 19.73798,-30.69582 23.27674,-39.70355c4.43464,-11.28816 8.22503,-27.4491 15.85217,-25.89892c7.96479,1.6188 4.27034,20.19942 -0.31022,31.85899c-3.52385,8.96979 -18.83197,22.18123 -25.98726,38.59707c-8.96753,20.57356 -0.27326,44.78246 -14.22908,42.72994c-10.96897,-1.61323 -5.79129,-31.09281 1.39765,-47.58353z" fill="#00b30f" stroke="#000000" stroke-width="2" stroke-linecap="butt"/><path d="M244.35479,115.72771c-7.0695,-1.55921 1.98909,-14.74684 -2.54661,-26.9336c-3.8908,-10.454 2.23631,-15.48652 6.12765,-5.03272c3.63618,9.76833 4.40012,33.7266 -3.58104,31.96632z" data-paper-data="{&quot;index&quot;:null}" fill="#00cc11" stroke="#000000" stroke-width="2" stroke-linecap="butt"/><path d="M306.74478,134.59807c-12.48388,6.55641 -9.50436,-12.89697 -22.10669,-23.3573c-10.05552,-8.34641 -26.98442,-11.51856 -32.12181,-16.22237c-6.67795,-6.11434 -16.38411,-18.59641 -9.35299,-22.63811c6.73306,-3.87037 16.0217,6.95432 22.48694,12.8739c5.15913,4.7237 19.74293,9.58608 29.84528,17.97019c10.10234,8.3841 21.06134,26.22052 11.24928,31.37371z" data-paper-data="{&quot;index&quot;:null}" fill="#00ff15" stroke="#000000" stroke-width="2" stroke-linecap="butt"/><path d="M207.91484,119.40601c5.58244,-11.8822 16.71809,-22.48068 19.38112,-28.94892c3.33723,-8.10577 5.56837,-19.5644 13.30793,-18.9218c8.08218,0.67105 6.17735,13.80741 2.73032,22.17988c-2.65182,6.441 -16.62851,16.50589 -22.18459,28.33408c-6.96329,14.82397 3.99991,31.16776 -10.08684,30.53728c-11.07187,-0.49554 -8.73038,-21.29831 -3.14794,-33.18051z" fill="#00ff15" stroke="#000000" stroke-width="2" stroke-linecap="butt"/><g stroke="#000000" stroke-width="2" stroke-linecap="butt"><path d="M208.00596,76.45227c0,-3.80353 2.45977,-4.82727 5.49405,-4.82727c3.03428,0 5.49405,1.02374 5.49405,4.82727c0,3.80353 -2.45977,8.94654 -5.49405,8.94654c-3.03428,0 -5.49405,-5.14301 -5.49405,-8.94654z" fill="#ff80ee"/><path d="M218.99406,102.54773c0,3.80353 -2.45977,4.82727 -5.49405,4.82727c-3.03428,0 -5.49405,-1.02374 -5.49405,-4.82727c0,-3.80353 2.45977,-8.94654 5.49405,-8.94654c3.03428,0 5.49405,5.14301 5.49405,8.94654z" fill="#ff80ee"/><path d="M200.45228,94.99405c-3.80354,0 -4.82727,-2.45977 -4.82727,-5.49405c0,-3.03428 1.02373,-5.49405 4.82727,-5.49405c3.80354,0 8.94654,2.45977 8.94654,5.49405c0,3.03428 -5.143,5.49405 -8.94654,5.49405z" fill="#ff80ee"/><path d="M226.54774,84.00595c3.80354,0 4.82727,2.45977 4.82727,5.49405c0,3.03428 -1.02373,5.49405 -4.82727,5.49405c-3.80354,0 -8.94654,-2.45977 -8.94654,-5.49405c0,-3.03428 5.143,-5.49405 8.94654,-5.49405z" fill="#ff80ee"/><path d="M200.38899,84.15874c-2.6895,-2.6895 -1.67407,-5.15271 0.47149,-7.29827c2.14556,-2.14556 4.60877,-3.16099 7.29827,-0.47149c2.6895,2.6895 4.58684,8.06548 2.44128,10.21104c-2.14556,2.14556 -7.52153,0.24822 -10.21104,-2.44128z" fill="#ff80ee"/><path d="M226.61103,94.84126c2.6895,2.6895 1.67407,5.15271 -0.47149,7.29827c-2.14556,2.14556 -4.60877,3.16099 -7.29827,0.47149c-2.6895,-2.6895 -4.58684,-8.06548 -2.44128,-10.21104c2.14556,-2.14556 7.52154,-0.24822 10.21104,2.44128z" fill="#ff80ee"/><path d="M208.15875,102.61102c-2.6895,2.6895 -5.15272,1.67408 -7.29827,-0.47149c-2.14556,-2.14556 -3.16099,-4.60877 -0.47149,-7.29827c2.6895,-2.6895 8.06548,-4.58684 10.21104,-2.44128c2.14556,2.14556 0.24822,7.52154 -2.44128,10.21104z" fill="#ff80ee"/><path d="M218.84127,76.38898c2.6895,-2.6895 5.15272,-1.67408 7.29827,0.47149c2.14556,2.14556 3.16099,4.60877 0.47149,7.29827c-2.6895,2.6895 -8.06548,4.58684 -10.21104,2.44128c-2.14556,-2.14556 -0.24822,-7.52153 2.44128,-10.21104z" fill="#ff80ee"/><path d="M206.2262,89.34524c0,-4.01721 3.2566,-7.27381 7.27381,-7.27381c4.01721,0 7.27381,3.2566 7.27381,7.27381c0,4.01721 -3.2566,7.27381 -7.27381,7.27381c-4.01721,0 -7.27381,-3.2566 -7.27381,-7.27381z" fill="#ffe900"/></g><g stroke="#000000" stroke-width="2" stroke-linecap="butt"><path d="M289.6957,95.71517c0,-2.17218 1.40476,-2.75683 3.13763,-2.75683c1.73287,0 3.13763,0.58465 3.13763,2.75683c0,2.17218 -1.40476,5.10933 -3.13763,5.10933c-1.73287,0 -3.13763,-2.93715 -3.13763,-5.10933z" fill="#ff80ee"/><path d="M295.97096,110.61817c0,2.17218 -1.40476,2.75683 -3.13763,2.75683c-1.73287,0 -3.13763,-0.58465 -3.13763,-2.75683c0,-2.17218 1.40476,-5.10932 3.13763,-5.10932c1.73287,0 3.13763,2.93715 3.13763,5.10932z" fill="#ff80ee"/><path d="M285.38184,106.3043c-2.17218,0 -2.75683,-1.40476 -2.75683,-3.13763c0,-1.73287 0.58465,-3.13763 2.75683,-3.13763c2.17218,0 5.10933,1.40476 5.10933,3.13763c0,1.73287 -2.93715,3.13763 -5.10933,3.13763z" fill="#ff80ee"/><path d="M300.28485,100.02904c2.17218,0 2.75683,1.40476 2.75683,3.13763c0,1.73287 -0.58465,3.13763 -2.75683,3.13763c-2.17218,0 -5.10933,-1.40476 -5.10933,-3.13763c0,-1.73287 2.93715,-3.13763 5.10933,-3.13763z" fill="#ff80ee"/><path d="M285.34569,100.1163c-1.53596,-1.53597 -0.95606,-2.94269 0.26926,-4.16801c1.22532,-1.22532 2.63205,-1.80523 4.16801,-0.26927c1.53596,1.53597 2.61953,4.60616 1.3942,5.83148c-1.22532,1.22532 -4.29551,0.14176 -5.83148,-1.3942z" fill="#ff80ee"/><path d="M300.32099,106.21704c1.53596,1.53597 0.95605,2.94269 -0.26927,4.16801c-1.22532,1.22532 -2.63205,1.80523 -4.16801,0.26926c-1.53596,-1.53597 -2.61953,-4.60616 -1.3942,-5.83148c1.22532,-1.22532 4.29552,-0.14176 5.83148,1.3942z" fill="#ff80ee"/><path d="M289.78297,110.65431c-1.53596,1.53597 -2.94269,0.95606 -4.16801,-0.26926c-1.22532,-1.22532 -1.80523,-2.63205 -0.26926,-4.16801c1.53596,-1.53597 4.60616,-2.61952 5.83148,-1.3942c1.22532,1.22532 0.14176,4.29551 -1.3942,5.83148z" fill="#ff80ee"/><path d="M295.88372,95.67902c1.53596,-1.53597 2.94269,-0.95605 4.16801,0.26927c1.22532,1.22532 1.80523,2.63204 0.26927,4.16801c-1.53596,1.53597 -4.60616,2.61952 -5.83148,1.3942c-1.22532,-1.22532 -0.14176,-4.29551 1.3942,-5.83148z" fill="#ff80ee"/><path d="M288.6793,103.07828c0,-2.29421 1.85983,-4.15404 4.15404,-4.15404c2.29422,0 4.15404,1.85983 4.15404,4.15404c0,2.29421 -1.85983,4.15404 -4.15404,4.15404c-2.29422,0 -4.15404,-1.85983 -4.15404,-4.15404z" fill="#ffe900"/></g></g></g></svg>