<svg version="1.1" xmlns="http://www.w3.org/2000/svg" xmlns:xlink="http://www.w3.org/1999/xlink" width="185.16666" height="275.88684" viewBox="0,0,185.16666,275.88684"><defs><linearGradient x1="183.60731" y1="37.97568" x2="183.60731" y2="73.30902" gradientUnits="userSpaceOnUse" id="color-1"><stop offset="0" stop-color="#332f00"/><stop offset="1" stop-color="#998c00"/></linearGradient><linearGradient x1="240.16675" y1="175.50002" x2="240.16675" y2="307.50002" gradientUnits="userSpaceOnUse" id="color-2"><stop offset="0" stop-color="#000000"/><stop offset="1" stop-color="#665e00"/></linearGradient><linearGradient x1="257.25002" y1="139.08334" x2="333.75002" y2="139.08334" gradientUnits="userSpaceOnUse" id="color-3"><stop offset="0" stop-color="#000000"/><stop offset="1" stop-color="#4d4600"/></linearGradient><linearGradient x1="297.10731" y1="37.97568" x2="297.10731" y2="73.30902" gradientUnits="userSpaceOnUse" id="color-4"><stop offset="0" stop-color="#332f00"/><stop offset="1" stop-color="#998c00"/></linearGradient><linearGradient x1="148.58336" y1="139.08334" x2="225.08336" y2="139.08334" gradientUnits="userSpaceOnUse" id="color-5"><stop offset="0" stop-color="#4d4600"/><stop offset="1" stop-color="#000000"/></linearGradient><linearGradient x1="240.74368" y1="75.88117" x2="240.74368" y2="196.47783" gradientUnits="userSpaceOnUse" id="color-6"><stop offset="0" stop-color="#1a1700"/><stop offset="1" stop-color="#807500"/></linearGradient><linearGradient x1="245.0903" y1="66.85851" x2="245.0903" y2="90.10851" gradientUnits="userSpaceOnUse" id="color-7"><stop offset="0" stop-color="#4d4600"/><stop offset="1" stop-color="#1a1700"/></linearGradient><radialGradient cx="212.87084" cy="137.02564" r="23.48065" gradientUnits="userSpaceOnUse" id="color-8"><stop offset="0" stop-color="#403a00"/><stop offset="1" stop-color="#403a00" stop-opacity="0"/></radialGradient><radialGradient cx="267.12926" cy="137.02563" r="23.48065" gradientUnits="userSpaceOnUse" id="color-9"><stop offset="0" stop-color="#403a00"/><stop offset="1" stop-color="#403a00" stop-opacity="0"/></radialGradient><linearGradient x1="270.44921" y1="162.33066" x2="273.85906" y2="182.18078" gradientUnits="userSpaceOnUse" id="color-10"><stop offset="0" stop-color="#1a1a1a"/><stop offset="1" stop-color="#333333"/></linearGradient><linearGradient x1="265.82426" y1="165.49346" x2="267.60468" y2="189.68684" gradientUnits="userSpaceOnUse" id="color-11"><stop offset="0" stop-color="#333333"/><stop offset="1" stop-color="#4d4d4d"/></linearGradient><linearGradient x1="259.06901" y1="169.14394" x2="259.52123" y2="199.38838" gradientUnits="userSpaceOnUse" id="color-12"><stop offset="0" stop-color="#4d4d4d"/><stop offset="1" stop-color="#666666"/></linearGradient><linearGradient x1="247.75694" y1="173.72176" x2="247.75694" y2="205.80451" gradientUnits="userSpaceOnUse" id="color-13"><stop offset="0" stop-color="#666666"/><stop offset="1" stop-color="#808080"/></linearGradient><linearGradient x1="210.32695" y1="162.33066" x2="206.9171" y2="182.18078" gradientUnits="userSpaceOnUse" id="color-14"><stop offset="0" stop-color="#1a1a1a"/><stop offset="1" stop-color="#333333"/></linearGradient><linearGradient x1="214.55189" y1="165.49346" x2="212.77147" y2="189.68684" gradientUnits="userSpaceOnUse" id="color-15"><stop offset="0" stop-color="#333333"/><stop offset="1" stop-color="#4d4d4d"/></linearGradient><linearGradient x1="221.70715" y1="169.14394" x2="221.25492" y2="199.38838" gradientUnits="userSpaceOnUse" id="color-16"><stop offset="0" stop-color="#4d4d4d"/><stop offset="1" stop-color="#666666"/></linearGradient><linearGradient x1="233.01921" y1="173.72176" x2="233.01921" y2="205.80451" gradientUnits="userSpaceOnUse" id="color-17"><stop offset="0" stop-color="#666666"/><stop offset="1" stop-color="#808080"/></linearGradient><linearGradient x1="254.97443" y1="206.79938" x2="253.6084" y2="222.1041" gradientUnits="userSpaceOnUse" id="color-18"><stop offset="0" stop-color="#333333"/><stop offset="1" stop-color="#4d4d4d"/></linearGradient><linearGradient x1="251.18499" y1="206.65169" x2="249.18763" y2="225.7063" gradientUnits="userSpaceOnUse" id="color-19"><stop offset="0" stop-color="#4d4d4d"/><stop offset="1" stop-color="#666666"/></linearGradient><linearGradient x1="245.75553" y1="209.11949" x2="245.75553" y2="229.44075" gradientUnits="userSpaceOnUse" id="color-20"><stop offset="0" stop-color="#666666"/><stop offset="1" stop-color="#808080"/></linearGradient><linearGradient x1="227.79579" y1="207.33326" x2="229.7566" y2="222.5732" gradientUnits="userSpaceOnUse" id="color-21"><stop offset="0" stop-color="#333333"/><stop offset="1" stop-color="#4d4d4d"/></linearGradient><linearGradient x1="230.92455" y1="206.56341" x2="233.09012" y2="225.59964" gradientUnits="userSpaceOnUse" id="color-22"><stop offset="0" stop-color="#4d4d4d"/><stop offset="1" stop-color="#666666"/></linearGradient><linearGradient x1="236.42063" y1="209.11949" x2="236.42063" y2="229.44075" gradientUnits="userSpaceOnUse" id="color-23"><stop offset="0" stop-color="#666666"/><stop offset="1" stop-color="#808080"/></linearGradient></defs><g transform="translate(-148.58336,-37.97568)"><g data-paper-data="{&quot;isPaintingLayer&quot;:true}" fill-rule="nonzero" stroke-linejoin="miter" stroke-miterlimit="10" stroke-dasharray="" stroke-dashoffset="0" style="mix-blend-mode: normal"><path d="M178.40902,313.61252v-267.22501h123.18203v267.22501z" fill-opacity="0.01" fill="#000000" stroke="none" stroke-width="0" stroke-linecap="butt"/><path d="M178.40902,313.86252v-267.22501h123.18203v267.22501z" fill-opacity="0.01" fill="#000000" stroke="none" stroke-width="0" stroke-linecap="butt"/><g stroke="#000000" stroke-width="0" stroke-linecap="butt"><path d="M179.94064,125.64235v-70l7.33332,0.00001v70z" fill="#4d4926"/><path d="M165.94063,55.64235c0,-9.75702 7.90964,-17.66667 17.66666,-17.66667c9.75702,0 17.66667,7.90964 17.66667,17.66667c0,9.75702 -7.90964,17.66667 -17.66667,17.66667c-9.75702,0 -17.66666,-7.90964 -17.66666,-17.66667z" fill="url(#color-1)"/></g><path d="M206.91676,307.50001l15.14285,-131.8421l37.78325,-0.15789l13.57389,132z" fill="url(#color-2)" stroke="#000000" stroke-width="0" stroke-linecap="butt"/><path d="M257.25002,139.08334c0,-12.0122 9.7378,-21.75 21.75,-21.75c12.01219,0 54.75,21.75 54.75,21.75c0,0 -42.73781,21.75 -54.75,21.75c-12.0122,0 -21.75,-9.73781 -21.75,-21.75z" data-paper-data="{&quot;index&quot;:null}" fill="url(#color-3)" stroke="#000000" stroke-width="0" stroke-linecap="butt"/><g stroke="#000000" stroke-width="0" stroke-linecap="butt"><path d="M293.44061,125.64235v-70l7.33333,0.00001v70z" fill="#4d4926"/><path d="M279.44061,55.64235c0,-9.75702 7.90964,-17.66667 17.66666,-17.66667c9.75702,0 17.66667,7.90964 17.66667,17.66667c0,9.75702 -7.90965,17.66667 -17.66667,17.66667c-9.75702,0 -17.66666,-7.90964 -17.66666,-17.66667z" fill="url(#color-4)"/></g><path d="M203.33336,160.83334c-12.01219,0 -54.75,-21.75 -54.75,-21.75c0,0 42.73781,-21.75 54.75,-21.75c12.0122,0 21.75,9.73781 21.75,21.75c0,12.0122 -9.7378,21.75 -21.75,21.75z" data-paper-data="{&quot;index&quot;:null}" fill="url(#color-5)" stroke="#000000" stroke-width="0" stroke-linecap="butt"/><path d="M176.50666,136.1795c0,-33.30185 28.7599,-60.29833 64.23702,-60.29833c35.47712,0 64.23702,26.99649 64.23702,60.29833c0,33.30185 -28.7599,60.29833 -64.23702,60.29833c-35.47712,0 -64.23702,-26.99649 -64.23702,-60.29833z" fill="url(#color-6)" stroke="#000000" stroke-width="0" stroke-linecap="butt"/><path d="M218.8403,86.35851l33.25,-19.5l-3.25,13.75l22.5,-6l-14.5,15.5" fill="url(#color-7)" stroke="#000000" stroke-width="0" stroke-linecap="round"/><path d="M189.39019,137.02564c0,-12.968 10.51265,-23.48065 23.48065,-23.48065c12.968,0 23.48065,10.51265 23.48065,23.48065c0,12.968 -10.51265,23.48065 -23.48065,23.48065c-12.968,0 -23.48065,-10.51265 -23.48065,-23.48065z" fill="url(#color-8)" stroke="#000000" stroke-width="0" stroke-linecap="butt"/><path d="M267.12926,160.50627c-12.968,0 -23.48065,-10.51265 -23.48065,-23.48065c0,-12.968 10.51265,-23.48065 23.48065,-23.48065c12.968,0 23.48065,10.51265 23.48065,23.48065c0,12.968 -10.51265,23.48065 -23.48065,23.48065z" data-paper-data="{&quot;index&quot;:null}" fill="url(#color-9)" stroke="#000000" stroke-width="0" stroke-linecap="butt"/><path d="M195.69232,122.6624c4.30604,-5.26026 10.85023,-8.61742 18.17851,-8.61742c7.47015,0 14.12555,3.48839 18.42606,8.92503" fill="none" stroke="#1a1700" stroke-width="0.5" stroke-linecap="butt"/><path d="M250.23539,121.50215c4.29576,-4.73421 10.49763,-7.70718 17.39386,-7.70718c6.79816,0 12.92157,2.88901 17.20944,7.50627" data-paper-data="{&quot;index&quot;:null}" fill="none" stroke="#1a1700" stroke-width="0.5" stroke-linecap="butt"/><path d="M188.52299,147.22311c10.89722,-3.35986 32.58377,27.86581 52.38139,28.23357c20.22454,0.37569 44.82322,-31.71001 53.71241,-25.00272c5.16622,3.89813 -6.38435,19.07832 -18.83117,36.81824c-15.30527,21.81395 -19.12831,50.88729 -34.90163,50.13361c-12.19102,-0.5825 -22.17661,-26.9254 -35.87616,-49.80202c-13.37733,-22.33856 -22.15852,-38.63135 -16.48484,-40.38067z" fill="#4d4600" stroke="none" stroke-width="0" stroke-linecap="butt"/><path d="M187.48148,148.13541c9.7696,-3.01219 35.93597,24.9823 53.68495,25.31201c18.13173,0.33681 46.01236,-29.32523 53.98172,-23.312c4.63162,3.49477 -7.81559,21.21318 -18.97443,37.1174c-13.7215,19.55668 -20.88446,46.89162 -35.02557,46.21594c-10.92951,-0.52223 -21.00253,-23.82305 -34.33041,-42.98765c-12.78123,-18.37856 -24.42284,-40.77738 -19.33626,-42.34569z" fill="#000000" stroke="none" stroke-width="0" stroke-linecap="butt"/><path d="M257.79219,219.31207c-4.97113,8.34842 -9.74442,14.22441 -16.39405,13.90668c-6.64963,-0.31773 -11.01874,-5.14166 -15.74219,-13.31487c0,0 10.97683,3.00143 16.00907,3.0674c5.32945,0.06987 16.12716,-3.6592 16.12716,-3.6592z" fill="#330000" stroke="none" stroke-width="0" stroke-linecap="butt"/><path d="M199.06098,151.53947c12.22255,7.08695 29.18409,21.42257 41.85545,21.65795c12.22063,0.22701 28.86984,-13.17339 40.86656,-20.09374c1.14632,-0.66126 -3.41158,24.84661 -40.88484,25.86507c-39.29553,-0.83372 -41.83716,-27.42928 -41.83716,-27.42928z" fill="#330000" stroke="none" stroke-width="0" stroke-linecap="butt"/><path d="M269.31878,182.14581l-2.65158,-16.58357c0,0 -0.05719,-1.25275 3.80392,-2.86235c3.61739,-1.508 3.83659,-0.57337 3.83659,-0.57337l3.17818,16.4931c0,0 -0.07621,1.81525 -2.56218,3.02414c-3.07699,1.49629 -5.60492,0.50205 -5.60492,0.50205z" fill="url(#color-10)" stroke="none" stroke-width="0" stroke-linecap="butt"/><path d="M262.16571,189.11714l-1.2511,-20.18917c0,0 0.07707,-1.50848 4.893,-2.98931c4.51195,-1.38736 4.66608,-0.24141 4.66608,-0.24141l1.89291,20.14193c0,0 -0.30238,2.16733 -3.42317,3.32761c-3.86273,1.43613 -6.77772,-0.04966 -6.77772,-0.04966z" fill="url(#color-11)" stroke="none" stroke-width="0" stroke-linecap="butt"/><path d="M252.79262,198.28269l-0.08529,-25.22161c0,0 0.20591,-1.87206 6.30849,-3.36418c5.71738,-1.39793 5.82569,0.03972 5.82569,0.03972l0.88763,25.20961c0,0 -0.5344,2.67573 -4.50359,3.89245c-4.91283,1.50598 -8.43293,-0.55598 -8.43293,-0.55598z" fill="url(#color-12)" stroke="none" stroke-width="0" stroke-linecap="butt"/><path d="M240.09028,204.52517l0.33333,-26.75c0,0 0.26716,-1.98215 7.26313,-3.46783c6.55438,-1.39191 6.65354,0.13449 6.65354,0.13449l0.58333,26.75c0,0 -0.6561,2.82925 -5.21058,4.05669c-5.63726,1.51925 -9.62276,-0.72336 -9.62276,-0.72336z" fill="url(#color-13)" stroke="none" stroke-width="0" stroke-linecap="butt"/><path d="M205.85246,181.64376c-2.48597,-1.20889 -2.56218,-3.02414 -2.56218,-3.02414l3.17817,-16.4931c0,0 0.21919,-0.93463 3.83659,0.57337c3.86111,1.6096 3.80392,2.86235 3.80392,2.86235l-2.65158,16.58357c0,0 -2.52793,0.99424 -5.60492,-0.50205z" data-paper-data="{&quot;index&quot;:null}" fill="url(#color-14)" stroke="none" stroke-width="0" stroke-linecap="butt"/><path d="M211.43273,189.1668c-3.12079,-1.16028 -3.42317,-3.32761 -3.42317,-3.32761l1.89291,-20.14193c0,0 0.15413,-1.14595 4.66608,0.24141c4.81593,1.48083 4.893,2.98931 4.893,2.98931l-1.2511,20.18917c0,0 -2.91499,1.48578 -6.77772,0.04966z" data-paper-data="{&quot;index&quot;:null}" fill="url(#color-15)" stroke="none" stroke-width="0" stroke-linecap="butt"/><path d="M219.55061,198.83866c-3.9692,-1.21672 -4.5036,-3.89245 -4.5036,-3.89245l0.88764,-25.20961c0,0 0.1083,-1.43765 5.82568,-0.03972c6.10258,1.49212 6.30849,3.36418 6.30849,3.36418l-0.08529,25.22161c0,0 -3.52009,2.06195 -8.43292,0.55598z" data-paper-data="{&quot;index&quot;:null}" fill="url(#color-16)" stroke="none" stroke-width="0" stroke-linecap="butt"/><path d="M231.06312,205.24853c-4.55447,-1.22744 -5.21058,-4.05669 -5.21058,-4.05669l0.58333,-26.75c0,0 0.09915,-1.5264 6.65353,-0.13449c6.99597,1.48568 7.26314,3.46783 7.26314,3.46783l0.33333,26.75c0,0 -3.9855,2.24261 -9.62276,0.72336z" data-paper-data="{&quot;index&quot;:null}" fill="url(#color-17)" stroke="none" stroke-width="0" stroke-linecap="butt"/><path d="M250.26709,221.19071l1.28661,-12.74762c0,0 0.20273,-0.93499 3.3647,-1.36715c2.96239,-0.40488 2.94131,0.3272 2.94131,0.3272l-0.8806,12.78385c0,0 -0.41107,1.32372 -2.48064,1.72921c-2.56158,0.50188 -4.23139,-0.72549 -4.23139,-0.72549z" data-paper-data="{&quot;index&quot;:null}" fill="url(#color-18)" stroke="none" stroke-width="0" stroke-linecap="butt"/><path d="M245.03947,224.50331l1.84918,-15.86811c0,0 0.27073,-1.16179 4.22117,-1.63977c3.70109,-0.44781 3.66074,0.46449 3.66074,0.46449l-1.34369,15.9211c0,0 -0.53795,1.64243 -3.12594,2.10816c-3.20326,0.57645 -5.26146,-0.98586 -5.26146,-0.98586z" data-paper-data="{&quot;index&quot;:null}" fill="url(#color-19)" stroke="none" stroke-width="0" stroke-linecap="butt"/><path d="M240.89945,228.63042l0.21113,-16.94349c0,0 0.16923,-1.25549 4.60048,-2.19653c4.15156,-0.88164 4.21436,0.08519 4.21436,0.08519l0.36948,16.94349c0,0 -0.41558,1.79206 -3.30039,2.56952c-3.57065,0.9623 -6.09507,-0.45818 -6.09507,-0.45818z" data-paper-data="{&quot;index&quot;:null}" fill="url(#color-20)" stroke="none" stroke-width="0" stroke-linecap="butt"/><path d="M228.85988,222.4201c-2.08378,-0.32461 -2.54607,-1.63132 -2.54607,-1.63132l-1.37761,-12.73988c0,0 -0.04956,-0.7307 2.92634,-0.44146c3.17639,0.30873 3.41537,1.23512 3.41537,1.23512l1.78191,12.68786c0,0 -1.62076,1.29145 -4.19994,0.88967z" data-paper-data="{&quot;index&quot;:null}" fill="url(#color-21)" stroke="none" stroke-width="0" stroke-linecap="butt"/><path d="M231.97494,225.39235c-2.592,-0.44286 -3.14443,-2.08047 -3.14443,-2.08047l-1.48424,-15.90861c0,0 -0.04841,-0.91191 3.65649,-0.4968c3.95451,0.44307 4.23548,1.60243 4.23548,1.60243l1.98925,15.85116c0,0 -2.04432,1.58043 -5.25255,1.03229z" data-paper-data="{&quot;index&quot;:null}" fill="url(#color-22)" stroke="none" stroke-width="0" stroke-linecap="butt"/><path d="M235.18164,229.08859c-2.88481,-0.77746 -3.30039,-2.56952 -3.30039,-2.56952l0.36948,-16.94349c0,0 0.0628,-0.96683 4.21436,-0.08519c4.43125,0.94103 4.60048,2.19653 4.60048,2.19653l0.21113,16.94349c0,0 -2.52442,1.42047 -6.09507,0.45818z" data-paper-data="{&quot;index&quot;:null}" fill="url(#color-23)" stroke="none" stroke-width="0" stroke-linecap="butt"/><path d="M232.44907,150.90566l2.33333,-6.33333l-3.33333,19" fill="none" stroke="#1a1700" stroke-width="0.5" stroke-linecap="round"/><path d="M252.44907,163.90567l-4.16667,-20.16667l3,6.5" fill="none" stroke="#1a1700" stroke-width="0.5" stroke-linecap="round"/></g></g></svg>