<svg version="1.1" xmlns="http://www.w3.org/2000/svg" xmlns:xlink="http://www.w3.org/1999/xlink" width="457.54109" height="232.65727" viewBox="0,0,457.54109,232.65727"><g transform="translate(-10.20417,-64.92461)"><g data-paper-data="{&quot;isPaintingLayer&quot;:true}" fill-rule="nonzero" stroke-linejoin="miter" stroke-miterlimit="10" stroke-dasharray="" stroke-dashoffset="0" style="mix-blend-mode: normal"><g fill="#ffffff" stroke="#000000" stroke-linecap="butt"><path d="M42.15251,68.28589c0.5704,0.21186 3.08357,1.39942 6.02385,2.59586c2.9637,1.20597 7.21362,2.29294 7.19412,2.4605c-0.02476,0.21265 -10.43477,0.22694 -13.67937,0.63224c-2.71902,0.33964 -6.68867,0.70564 -6.68867,0.70564c0,0 -7.10401,-1.16169 -13.27235,-2.44521c-4.94371,-1.02869 -10.39929,-1.66108 -10.40995,-1.75461c-0.01439,-0.12613 3.86835,-0.71071 6.82417,-1.39467c1.14585,-0.49661 5.43971,-1.48513 5.43971,-1.48513c0,0 4.95585,-0.27766 7.60826,0.579c2.84203,0.91791 2.83546,2.44556 3.0831,2.46906c0,0 1.18436,-1.74932 2.36886,-2.10461c1.18451,-0.35528 5.08219,-0.41633 5.50828,-0.25808z" stroke-width="1.4"/><path d="M23.50452,72.83946c5.09114,1.02674 11.91756,2.80736 11.91756,2.80736c0,0 5.78976,-1.55585 8.44678,-1.8344c2.05992,-0.21596 11.216,-0.70654 11.26026,-0.33377c0.04328,0.36447 -9.03119,12.90033 -21.14808,12.44714c-13.76954,-0.43578 -22.86459,-15.13559 -22.82675,-15.30472c0.03784,-0.16913 7.2591,1.19165 12.35024,2.2184z" stroke-width="1.9"/></g><g stroke="#000000" stroke-linecap="butt"><path d="M163.13479,138.47467c0,1.62454 -4.32791,2.9415 -9.66666,2.9415c-5.33875,0 -9.66666,-1.31696 -9.66666,-2.9415c0,-1.62454 4.32791,-2.9415 9.66666,-2.9415c5.33876,0 9.66666,1.31696 9.66666,2.9415z" fill="#000000" stroke-width="1.5"/><path d="M152.98406,134.7493c0.24666,0.01582 0.6086,0.20173 2.34631,-0.23323c1.67939,-0.42035 3.57183,-1.5815 5.03919,-1.46714c1.61805,0.36853 11.1326,4.15867 11.1326,4.15867c0,0 -7.95924,-0.50188 -11.17295,-0.23038c-2.69313,0.22751 -7.62499,1.22329 -7.62499,1.22329l-21.10897,-2.45562c0,0 9.63843,-2.9392 10.61949,-3.02508c2.33124,-0.20409 5.0884,0.97827 7.71556,1.55212c2.81497,0.61487 2.80847,0.46161 3.05375,0.47735z" fill="#ffffff" stroke-width="1.25"/><path d="M130.96059,135.72353c0,0 7.40776,-0.04346 10.78376,0.5176c3.48786,0.57965 6.20039,3.22742 10.81875,3.36523c4.61836,0.13781 6.71999,-2.56857 9.35172,-2.76335c2.04031,-0.151 9.69913,0.61489 9.69913,0.61489c0,0 -2.43389,4.20491 -7.31596,6.54318c-3.82021,1.82968 -9.97946,1.92341 -12.07503,1.897c-1.85711,-0.02341 -7.65393,-0.50956 -11.39652,-2.38881c-5.87761,-2.95131 -9.86583,-7.78573 -9.86583,-7.78573z" fill="#ffffff" stroke-width="1.9"/></g><g fill="#ffffff" stroke="#000000" stroke-linecap="butt"><path d="M199.96935,134.79693c0.24666,0.02613 0.6086,0.3332 2.34631,-0.38524c1.67939,-0.69432 4.7385,-1.25185 6.20585,-1.06295c1.61805,0.60873 9.96594,5.50874 9.96594,5.50874c0,0 -7.95924,-0.82899 -11.17295,-0.38054c-2.69313,0.3758 -7.62499,2.0206 -7.62499,2.0206l-21.10897,-4.05612c0,0 9.63843,-4.07749 10.61949,-4.21935c2.33124,-0.3371 5.0884,0.83849 7.71556,1.78637c2.81497,1.01563 2.80847,0.76247 3.05375,0.78847z" stroke-width="1.25"/><path d="M177.94589,136.4061c0,0 7.40776,-0.0718 10.78376,0.85495c3.48786,0.95745 6.46932,2.72051 10.81875,2.9349c4.34943,0.21437 6.71999,-1.619 9.35172,-1.94072c2.04031,-0.24942 9.69913,1.01564 9.69913,1.01564c0,0 0.28353,5.30092 -6.80479,11.37048c-2.69148,2.30464 -7.81258,2.6701 -12.58621,2.57074c-4.77363,-0.09936 -9.72244,-1.02687 -12.60467,-3.08122c-5.5651,-3.96659 -8.65769,-13.72477 -8.65769,-13.72477z" stroke-width="1.9"/></g><g stroke-linecap="butt"><path d="M56.31364,238.15524c-0.08178,3.45501 -11.83967,11.93018 -19.86406,11.77674c-8.02441,-0.15344 -18.78915,-10.17341 -18.70737,-13.62842c0.08179,-3.45501 12.06069,-1.46672 20.08506,-1.31328c8.02441,0.15344 18.56816,-0.29005 18.48637,3.16496z" fill="#000000" stroke="none" stroke-width="0"/><path d="M54.5738,235.96086c0,0 -3.28099,4.16792 -17.17576,3.81713c-15.06726,0.22958 -16.84802,-3.9055 -16.84802,-3.9055z" fill="#ffffff" stroke="none" stroke-width="0"/><path d="M46.96671,230.74587c2.96854,1.00785 10.31644,6.3411 10.31644,6.3411c0,0 -4.64409,2.01243 -7.81782,1.75954c-4.49194,-0.35792 -4.69688,-1.64224 -11.93838,-1.78937c-6.2337,-0.12666 -7.53249,1.36967 -12.56349,1.355c-5.031,-0.01467 -8.92108,-2.49585 -8.92108,-2.49585c0,0 7.40343,-4.48786 11.35855,-5.26696c3.86909,-0.76216 9.98953,1.81284 10.25479,1.83047c0,0 6.34243,-2.7418 9.31097,-1.73395z" fill="#ffffff" stroke="#000000" stroke-width="1.25"/><path d="M50.12386,242.27139c0,0 -2.17909,10.01657 -14.11343,9.70591c-10.49291,-0.27315 -12.35071,-9.78417 -12.35071,-9.78417c0,0 1.55329,1.41101 4.71161,2.7296c2.09566,0.87493 4.74531,1.84252 8.26944,1.84787c3.14442,0.00477 5.89183,-0.80197 7.92981,-1.5363c3.68837,-1.329 5.55327,-2.96291 5.55327,-2.96291z" fill="#ffffff" stroke="none" stroke-width="0"/><path d="M30.74402,249.01097c2.66288,1.15918 10.6858,0.99115 13.11979,-0.32353c2.35713,-1.27317 3.35205,-5.29524 5.27628,-7.51253c3.29609,-3.79811 8.14093,-3.32354 8.14093,-3.32354c0,0 -2.45489,11.67826 -5.73358,15.46712c-4.01936,4.64479 -8.65722,4.69774 -13.9042,4.78272c-5.96057,0.09654 -10.55685,-0.58944 -14.36465,-4.06639c-3.8078,-3.47696 -7.24043,-17.33784 -7.24043,-17.33784c0,0 5.4336,0.95479 8.08521,4.78381c2.65161,3.82902 3.78936,6.29769 6.62063,7.53017z" fill="#ffffff" stroke="#000000" stroke-width="1.9"/></g><g stroke-linecap="butt"><path d="M344.13191,209.83734c-0.06836,3.59054 -7.75846,10.7774 -14.4668,10.61795c-6.70836,-0.15947 -13.85375,-8.95171 -13.78539,-12.54225c0.06837,-3.59054 8.2288,-5.08992 14.93713,-4.93046c6.70836,0.15947 13.38343,3.26423 13.31505,6.85477z" fill="#000000" stroke="none" stroke-width="0"/><path d="M338.49125,200.48734c1.10866,0.38115 9.09318,8.01424 9.09318,8.01424c0,0 -4.80943,0.18952 -7.68077,-0.04215c-4.06396,-0.3279 -3.11461,-0.3632 -9.66615,-0.49798c-5.63977,-0.11603 -7.10142,0.31623 -11.65307,0.30279c-4.55165,-0.01344 -7.85906,-0.83513 -7.85906,-0.83513c0,0 8.84592,-6.78717 10.0643,-7.0302c3.50045,-0.69823 9.03775,1.66077 9.27774,1.67693c0,0 5.73814,-2.51181 8.42384,-1.5885z" fill="#ffffff" stroke="#000000" stroke-width="1.25"/><path d="M329.35963,218.33564c-9.49316,-0.20093 -13.02526,-3.78407 -13.02526,-3.78407c0,0 9.76384,-0.82861 12.9522,-0.82467c2.84483,0.00351 12.72814,1.50234 12.72814,1.50234c0,0 -1.85782,3.33491 -12.65508,3.1064z" fill="#ffffff" stroke="none" stroke-width="0"/><path d="M347.92451,209.46767c0,0 -1.47458,6.80127 -4.44087,9.73926c-3.6364,3.6017 -8.68053,4.88769 -13.42758,4.95359c-8.14914,0.07486 -9.97509,-1.47739 -13.42009,-4.1735c-3.445,-2.69613 -6.08548,-11.41448 -6.08548,-11.41448c0,0 7.25644,-0.53329 9.65541,2.43583c1.18483,1.46644 2.42712,5.02262 9.20545,5.24661c7.65487,0.25297 5.30534,-2.71098 9.22185,-5.48864c2.99608,-2.12488 9.29132,-1.29867 9.29132,-1.29867z" fill="#ffffff" stroke="#000000" stroke-width="1.9"/></g><g fill="#ffffff" stroke="#000000" stroke-linecap="butt"><path d="M291.98407,136.29522c0.24666,0.02241 0.6086,0.28574 2.34631,-0.33037c1.67939,-0.59543 4.7385,-1.07355 6.20585,-0.91156c1.61805,0.52203 9.96594,4.72415 9.96594,4.72415c0,0 -7.95924,-0.71092 -11.17295,-0.32634c-2.69313,0.32228 -7.62499,1.73281 -7.62499,1.73281l-21.10897,-3.47842c0,0 9.63843,-3.49675 10.61949,-3.6184c2.33124,-0.28909 5.0884,0.71907 7.71556,1.53194c2.81497,0.87098 2.80847,0.65387 3.05375,0.67617z" stroke-width="1.25"/><path d="M269.96058,137.6752c0,0 7.40776,-0.06157 10.78376,0.73318c3.48786,0.82108 6.46932,2.33304 10.81875,2.51689c4.34943,0.18384 6.71999,-1.38841 9.35172,-1.66431c2.04031,-0.2139 9.69913,0.87099 9.69913,0.87099c0,0 0.28353,4.54593 -6.80479,9.75102c-2.69148,1.9764 -7.81258,2.28981 -12.58621,2.2046c-4.77363,-0.08521 -9.72244,-0.88062 -12.60467,-2.64237c-5.5651,-3.40164 -8.65769,-11.77 -8.65769,-11.77z" stroke-width="1.9"/></g><g stroke-linecap="butt"><path d="M416.65158,249.45088c-0.08368,3.61231 -11.60306,12.47334 -19.81383,12.31291c-8.21079,-0.16043 -19.22557,-10.63658 -19.14189,-14.24889c0.08369,-3.61231 12.34082,-1.5335 20.55158,-1.37307c8.21079,0.16043 18.48783,-0.30326 18.40414,3.30905z" fill="#000000" stroke="none" stroke-width="0"/><path d="M410.18296,247.48987c0,0 1.8428,3.35768 -12.3747,2.99092c-15.41723,0.24003 -15.03935,-4.08331 -15.03935,-4.08331z" fill="#ffffff" stroke="none" stroke-width="0"/><path d="M410.82962,253.84033c0,0 -2.2297,11.82493 -14.44124,11.45819c-10.73663,-0.32246 -12.63758,-11.55057 -12.63758,-11.55057c0,0 1.58937,1.66575 4.82105,3.22239c2.14434,1.03289 4.85553,0.84183 8.46151,0.84815c3.21746,0.00563 6.02868,0.38658 8.114,-0.48033c3.77404,-1.56893 5.68226,-3.49783 5.68226,-3.49783z" fill="#ffffff" stroke="none" stroke-width="0"/><path d="M415.15737,248.00979c0,0 -5.42078,1.76153 -8.66823,1.49713c-4.59627,-0.37422 -1.1393,-1.05034 -8.549,-1.20417c-6.37849,-0.13243 -4.37412,1.43203 -9.52197,1.41669c-5.14785,-0.01534 -8.79495,-2.78073 -8.79495,-2.78073c0,0 8.98841,-7.09967 10.62237,-6.66883c4.733,1.248 7.5549,3.71493 7.82632,3.73337c0,0 4.38278,-2.68025 7.52724,-2.96579c3.07401,-0.27914 9.55822,6.97232 9.55822,6.97232z" fill="#ffffff" stroke="#000000" stroke-width="1.25"/><path d="M403.19362,260.53406c2.39313,-1.53194 3.06991,-5.03814 5.02352,-7.70608c3.34643,-4.57005 7.09096,-3.33236 7.09096,-3.33236c0,0 -1.71808,11.58513 -5.04683,16.14406c-4.08074,5.58882 -6.92275,4.11919 -12.24986,4.22144c-6.0516,0.11616 -9.31806,1.4241 -13.18401,-2.75952c-3.86595,-4.18363 -6.21766,-18.99499 -6.21766,-18.99499c0,0 6.18325,0.14885 8.87535,4.7561c2.6921,4.60725 1.84723,6.24433 4.72174,7.72731c0,0 8.51563,1.52593 10.98679,-0.05596z" fill="#ffffff" stroke="#000000" stroke-width="1.9"/></g><g stroke-linecap="butt"><path d="M103.65158,241.45388c-0.08368,3.61231 -11.60306,12.47334 -19.81383,12.31291c-8.21079,-0.16043 -19.22557,-10.63658 -19.14189,-14.24889c0.08369,-3.61231 12.34082,-1.5335 20.55158,-1.37307c8.21079,0.16043 18.48783,-0.30326 18.40414,3.30905z" fill="#000000" stroke="none" stroke-width="0"/><path d="M102.38296,239.15956c0,0 -3.3572,4.35768 -17.5747,3.99092c-15.41723,0.24003 -17.23935,-4.08331 -17.23935,-4.08331z" fill="#ffffff" stroke="none" stroke-width="0"/><path d="M97.82961,246.51002c0,0 -2.2297,11.82493 -14.44124,11.45819c-10.73663,-0.32246 -12.63758,-11.55057 -12.63758,-11.55057c0,0 1.58937,1.66575 4.82105,3.22239c2.14434,1.03289 4.85553,2.17516 8.46151,2.18148c3.21746,0.00563 6.02868,-0.94675 8.114,-1.81366c3.77404,-1.56893 5.68226,-3.49783 5.68226,-3.49783z" fill="#ffffff" stroke="none" stroke-width="0"/><path d="M94.59915,233.70719c3.03749,1.05374 9.55822,6.30565 9.55822,6.30565c0,0 -3.75411,2.4282 -7.00156,2.1638c-4.59627,-0.37422 -4.80597,-1.71701 -12.21567,-1.87084c-6.37849,-0.13243 -7.70745,1.43203 -12.8553,1.41669c-5.14785,-0.01534 -9.12829,-2.4474 -9.12829,-2.4474c0,0 7.57539,-4.85426 11.62238,-5.66883c3.95896,-0.79686 10.22156,2.3816 10.49298,2.40004c0,0 6.48975,-3.35286 9.52724,-2.29912z" fill="#ffffff" stroke="#000000" stroke-width="1.25"/><path d="M78.2068,254.25972c2.70354,1.39477 10.84898,1.1926 13.32014,-0.38929c2.39313,-1.53194 3.40324,-6.37147 5.35685,-9.03941c3.34643,-4.57005 7.75762,-3.99903 7.75762,-3.99903c0,0 -1.98475,14.0518 -5.3135,18.61073c-4.08074,5.58882 -8.78942,5.65253 -14.11653,5.75478c-6.0516,0.11616 -10.71806,-0.70924 -14.58401,-4.89286c-3.86595,-4.18363 -7.35099,-20.86166 -7.35099,-20.86166c0,0 5.51658,1.14885 8.20868,5.7561c2.6921,4.60725 3.84723,7.57766 6.72174,9.06064z" fill="#ffffff" stroke="#000000" stroke-width="1.9"/></g><g stroke-linecap="butt"><path d="M391.2099,211.4751c-0.08023,3.40092 -9.10499,10.20823 -16.97761,10.0572c-7.87264,-0.15105 -16.25817,-8.47896 -16.17794,-11.87988c0.08024,-3.40092 9.65697,-4.82111 17.52957,-4.67008c7.87264,0.15105 15.70622,3.09184 15.62597,6.49276z" fill="#000000" stroke="none" stroke-width="0"/><path d="M389.25973,208.63451c0,0 0.18909,3.35021 -13.70568,3.01794c-15.06726,0.21746 -16.84802,-3.69924 -16.84802,-3.69924z" fill="#ffffff" stroke="none" stroke-width="0"/><path d="M384.32062,202.61885c1.20224,0.36102 9.86071,7.591 9.86071,7.591c0,0 -5.21538,0.17951 -8.32908,-0.03992c-4.40698,-0.31058 -3.3775,-0.34402 -10.48204,-0.47168c-6.1158,-0.1099 -7.70083,0.29953 -12.63667,0.2868c-4.93584,-0.01273 -8.52242,-0.79103 -8.52242,-0.79103c0,0 9.59257,-6.42873 10.91379,-6.65892c3.79591,-0.66136 9.8006,1.57306 10.06084,1.58837c0,0 6.22248,-2.37916 9.13487,-1.50461z" fill="#ffffff" stroke="#000000" stroke-width="1.25"/><path d="M374.41825,219.52462c-10.29445,-0.19032 -14.12468,-3.58423 -14.12468,-3.58423c0,0 10.58797,-0.78485 14.04545,-0.78112c3.08495,0.00332 13.80248,1.423 13.80248,1.423c0,0 -2.01463,3.15879 -13.72325,2.94235z" fill="#ffffff" stroke="none" stroke-width="0"/><path d="M394.55009,210.56298c0,0 -1.59904,6.70216 -4.81571,9.59734c-3.94334,3.54922 -9.41322,4.81647 -14.56096,4.88141c-8.83698,0.07377 -10.81705,-1.45586 -14.55283,-4.11268c-3.73578,-2.65684 -6.59914,-11.24815 -6.59914,-11.24815c0,0 7.86893,-0.52552 10.47039,2.40034c1.28484,1.44507 2.63199,4.94943 9.98245,5.17016c8.30099,0.24928 5.75315,-2.67148 10.00023,-5.40866c3.24897,-2.09392 10.07557,-1.27975 10.07557,-1.27975z" fill="#ffffff" stroke="#000000" stroke-width="1.9"/></g><g stroke-linecap="butt"><path d="M443.65159,210.12008c-0.08368,3.00959 -11.60306,10.39215 -19.81383,10.25849c-8.21079,-0.13366 -19.22557,-8.86186 -19.14189,-11.87145c0.08369,-3.00959 12.34082,-1.27763 20.55158,-1.14397c8.21079,0.13366 18.48783,-0.25266 18.40414,2.75693z" fill="#000000" stroke="none" stroke-width="0"/><path d="M442.38299,208.21561c0,0 -3.3572,3.96231 -17.5747,3.62883c-15.41723,0.21825 -17.23935,-3.71284 -17.23935,-3.71284z" fill="#ffffff" stroke="none" stroke-width="0"/><path d="M440.8422,211.79818c0,0 -2.69287,10.81102 -17.44107,10.47572c-12.96692,-0.2948 -15.26275,-10.56017 -15.26275,-10.56017c0,0 1.91952,1.52291 5.82251,2.94609c2.58978,0.94432 5.86415,1.98866 10.21919,1.99443c3.88581,0.00515 7.281,-0.86558 9.7995,-1.65815c4.55801,-1.4344 6.86262,-3.19792 6.86262,-3.19792z" fill="#ffffff" stroke="none" stroke-width="0"/><path d="M434.59922,203.07767c3.03749,0.87793 9.55822,5.84179 9.55822,5.84179c0,0 -3.75411,2.02305 -7.00156,1.80277c-4.59627,-0.31178 -4.80597,-0.68053 -12.21567,-0.80869c-6.37849,-0.11033 -7.70745,0.44309 -12.8553,0.43032c-5.14785,-0.01278 -9.12829,-2.03905 -9.12829,-2.03905c0,0 7.57539,-4.63256 11.62238,-5.31122c3.95896,-0.6639 10.22156,2.57246 10.49298,2.58783c0,0 6.48975,-3.38167 9.52724,-2.50375z" fill="#ffffff" stroke="#000000" stroke-width="1.25"/><path d="M436.88387,212.38019c3.34643,-3.33801 7.75762,-2.92093 7.75762,-2.92093c0,0 -1.98475,10.26357 -5.3135,13.59346c-4.08074,4.08213 -9.37766,5.01102 -14.70477,5.08571c-6.0516,0.08485 -10.12982,-1.40039 -13.99577,-4.45615c-3.86595,-3.05577 -7.35099,-15.23756 -7.35099,-15.23756c0,0 5.51658,0.83913 8.20868,4.20431c2.6921,3.36518 3.3405,7.07534 13.78056,6.61798c10.69884,-0.4687 9.66456,-4.93813 11.61817,-6.88682z" fill="#ffffff" stroke="#000000" stroke-width="1.9"/></g><g stroke-linecap="butt"><path d="M251.2656,207.26159c0,2.58979 -6.47404,8.56422 -10.91367,8.56422c-4.43964,0 -8.03867,-2.09943 -8.03867,-4.68922c0,-2.58979 3.59903,-4.68922 8.03867,-4.68922c4.43964,0 10.91367,-1.77557 10.91367,0.81422z" fill="#000000" stroke="none" stroke-width="0"/><path d="M233.0397,206.35155c0.24666,0.0234 0.6086,-1.44147 2.34631,-2.08459c1.67939,-0.62153 4.26323,-1.19031 5.73058,-1.02122c1.61805,0.54491 13.29122,1.97932 13.29122,1.97932c0,0 -10.80924,4.01929 -14.02295,4.42073c-2.69313,0.33641 -7.62499,1.1275 -7.62499,1.1275l-19.46059,-2.49704c0,0 2.61459,-1.32023 5.03611,-2.68798c1.8116,-1.02326 3.51514,-2.18319 3.935,-2.23754c2.33124,-0.30176 5.0884,-0.29325 7.71556,0.55526c2.81497,0.90917 2.80847,2.42228 3.05375,2.44555z" fill="#ffffff" stroke="#000000" stroke-width="1.25"/><path d="M240.37281,221.54189c-19.78631,1.15685 -27.15983,-13.09674 -27.15983,-13.09674c0,0 8.38779,1.07758 15.08052,1.64437c3.59634,0.30456 6.01905,0.39609 7.51599,0.669c4.15804,0.75804 6.21907,2.82998 8.82232,2.3651c2.85956,-0.51066 2.4888,-3.5808 4.67081,-4.97671c1.84667,-1.18138 4.96695,-2.75896 4.96695,-2.75896c0,0 0.70168,15.30043 -13.89676,16.15395z" fill="#ffffff" stroke="#000000" stroke-width="1.9"/></g><g stroke-linecap="butt"><path d="M203.2656,207.92825c0,2.58979 -6.47404,8.56422 -10.91367,8.56422c-4.43964,0 -8.03867,-2.09943 -8.03867,-4.68922c0,-2.58979 3.59903,-4.68922 8.03867,-4.68922c4.43964,0 10.91367,-1.77557 10.91367,0.81422z" fill="#000000" stroke="none" stroke-width="0"/><path d="M185.03969,207.01819c0.24666,0.0234 0.6086,-1.44147 2.34631,-2.08459c1.67939,-0.62153 4.26323,-1.19031 5.73058,-1.02122c1.61805,0.54491 13.29122,1.97932 13.29122,1.97932c0,0 -10.80924,4.01929 -14.02295,4.42073c-2.69313,0.33641 -7.62499,1.1275 -7.62499,1.1275l-19.46059,-2.49704c0,0 2.61459,-1.32023 5.03611,-2.68798c1.8116,-1.02326 3.51514,-2.18319 3.935,-2.23754c2.33124,-0.30176 5.0884,-0.29325 7.71556,0.55526c2.81497,0.90917 2.80847,2.42228 3.05375,2.44555z" fill="#ffffff" stroke="#000000" stroke-width="1.25"/><path d="M190.37279,222.06573c-19.78631,1.15685 -25.15983,-12.95388 -25.15983,-12.95388c0,0 8.38779,1.07758 15.08052,1.64437c3.59634,0.30456 6.44762,0.25323 7.94456,0.52614c4.15804,0.75804 4.50479,1.02998 7.10804,0.5651c2.85956,-0.51066 2.43165,-1.06652 4.61366,-2.46243c1.84667,-1.18138 6.30981,-3.33039 6.30981,-3.33039c0,0 -1.29832,15.15757 -15.89676,16.01109z" fill="#ffffff" stroke="#000000" stroke-width="1.9"/></g><g stroke-linecap="butt"><path d="M450.88805,175.66703c-0.07608,3.55453 -10.54672,13.1414 -18.01,12.98354c-7.46328,-0.15786 -17.4753,-11.33402 -17.39924,-14.88855c0.07608,-3.55453 11.21731,-0.6414 18.68058,-0.48354c7.46328,0.15786 16.80472,-1.16598 16.72865,2.38855z" fill="#000000" stroke="none" stroke-width="0"/><path d="M447.91156,174.27698c0,0 -3.96323,5.39498 -15.06303,5.03409c-9.75915,-0.31731 -13.23875,-5.125 -13.23875,-5.125z" fill="#ffffff" stroke="none" stroke-width="0"/><path d="M433.17849,184.72523c4.56531,0.01467 12.39823,-1.9573 12.39823,-1.9573c0,0 -1.83972,6.72831 -12.93951,6.36742c-9.75915,-0.3173 -11.67405,-6.45833 -11.67405,-6.45833c0,0 7.3641,2.03263 12.21534,2.04821z" fill="#ffffff" stroke="none" stroke-width="0"/><path d="M434.26722,172.66222c0.24811,0.01825 0.61218,-1.12423 2.36011,-1.62581c1.68927,-0.48474 4.09577,-1.05969 5.57174,-0.92781c1.62757,0.42498 10.86933,3.11614 10.86933,3.11614c0,0 -4.57455,1.82353 -8.90292,2.55731c-4.32837,0.73378 -7.77275,1.00334 -10.39207,0.9016c-3.32068,-0.12898 -8.80222,-0.84184 -12.30295,-1.6155c-3.50073,-0.77365 -8.98224,-4.08814 -8.98224,-4.08814c0,0 7.01755,-0.96521 9.689,-1.60133c2.24645,-0.53492 6.37567,0.71443 9.01828,1.37619c2.83152,0.70908 2.82498,1.88918 3.0717,1.90733z" fill="#ffffff" stroke="#000000" stroke-width="1.25"/><path d="M411.52368,171.65674c0,0 3.88657,1.52494 6.51851,2.99199c3.91011,2.17951 5.81481,9.49733 10.14352,11.91494c2.4574,1.37247 9.2389,1.18571 11.48507,-0.37087c3.46487,-2.40111 4.13533,-8.48525 8.04749,-10.40662c3.76386,-1.84853 6.57605,-2.07786 6.57605,-2.07786c0,0 -1.14715,4.1065 -2.23579,8.22227c-1.75824,6.64733 -5.38627,14.52521 -18.91365,14.19148c-13.00127,-0.32076 -17.18,-8.38303 -19.24677,-15.28846c-1.41463,-4.72655 -2.37444,-9.17687 -2.37444,-9.17687z" fill="#ffffff" stroke="#000000" stroke-width="1.9"/></g><g><path d="M267.43699,76.63498c0,4.01748 -5.83501,7.27427 -13.03287,7.27427c-7.19786,0 -13.03287,-3.2568 -13.03287,-7.27427c0,-4.01748 5.69216,-4.84571 12.89002,-4.84571c7.19786,0 13.17573,0.82824 13.17573,4.84571z" fill="#ffffff" stroke="none" stroke-width="NaN" stroke-linecap="butt"/><path d="M259.04256,71.72663c0.24666,0.02641 0.6086,-1.62699 2.34631,-2.35288c1.67939,-0.70152 4.07183,-0.47938 5.53918,-0.28853c1.61805,0.61504 10.03261,5.09465 10.03261,5.09465c0,0 -6.35924,-0.0911 -9.57295,0.362c-2.69313,0.37971 -14.82476,-0.66433 -18.02124,-1.45574c-1.49167,-0.36932 -3.67129,0.50065 -5.67569,0.32552c-2.6745,-0.23368 -6.60846,-1.87291 -6.60846,-1.87291c0,0 7.6019,-5.78777 8.55758,-5.93574c4.65641,-0.72094 13.15736,6.09735 13.40264,6.12361z" fill="#ffffff" stroke="#000000" stroke-width="1.25" stroke-linecap="butt"/><path d="M270.89736,76.25012c0,0 -4.84153,1.66172 -11.79029,1.29699c-5.33676,-0.28011 -18.20971,-3.05735 -18.20971,-3.05735" fill="none" stroke="#000000" stroke-width="0.5" stroke-linecap="round"/><path d="M256.37678,88.9969c-16.27509,-0.75991 -18.7577,-16.86746 -18.7577,-16.86746c0,0 2.63751,0.0298 5.05334,1.46116c2.12793,1.26078 2.74938,4.96601 5.93042,5.38612c3.18105,0.4201 16.93874,-3.16583 19.57047,-3.47724c2.04031,-0.24143 9.09913,-0.5971 9.09913,-0.5971c0,0 -6.27707,14.51703 -20.89566,14.09453z" fill="#ffffff" stroke="#000000" stroke-width="1.9" stroke-linecap="butt"/></g><g stroke-linecap="butt"><path d="M400.06197,175.69412c-0.07563,3.55453 -10.48508,13.1414 -17.90473,12.98354c-7.41965,-0.15786 -17.37315,-11.33402 -17.29753,-14.88855c0.07563,-3.55453 11.15175,-0.6414 18.57139,-0.48354c7.41965,0.15786 16.70649,-1.16598 16.63086,2.38855z" fill="#000000" stroke="none" stroke-width="0"/><path d="M397.10288,174.30414c0,0 -3.94007,5.39498 -14.97499,5.03409c-9.70211,-0.31731 -13.16137,-5.125 -13.16137,-5.125z" fill="#ffffff" stroke="none" stroke-width="0"/><path d="M382.65592,182.35234c4.53863,0.01467 12.32576,-1.9573 12.32576,-1.9573c0,0 -1.82896,6.72831 -12.86388,6.36742c-9.70211,-0.3173 -11.60582,-6.45833 -11.60582,-6.45833c0,0 7.32106,2.03263 12.14394,2.04821z" fill="#ffffff" stroke="none" stroke-width="0"/><path d="M383.53829,172.68931c0.24666,0.01825 0.6086,-1.12423 2.34631,-1.62581c1.67939,-0.48474 4.07183,-1.05969 5.53918,-0.92781c1.61805,0.42498 11.90761,3.11614 11.90761,3.11614c0,0 -5.64963,1.82353 -9.9527,2.55731c-4.30307,0.73378 -7.72731,1.00334 -10.33132,0.9016c-3.30127,-0.12898 -8.75077,-0.84184 -12.23104,-1.6155c-3.48027,-0.77365 -9.54185,-3.23117 -9.54185,-3.23117c0,0 7.58865,-1.82218 10.24449,-2.4583c2.23332,-0.53492 6.3384,0.71443 8.96556,1.37619c2.81497,0.70908 2.80847,1.88918 3.05375,1.90733z" fill="#ffffff" stroke="#000000" stroke-width="1.25"/><path d="M361.53981,171.68387c0,0 4.30888,1.8678 6.92543,3.33485c3.88726,2.17951 4.72368,6.35447 9.02709,8.77208c2.44304,1.37247 8.3849,1.58571 10.61794,0.02913c3.44461,-2.40111 4.51116,-5.59954 8.40045,-7.52091c3.74186,-1.84853 7.18246,-2.56357 7.18246,-2.56357c0,0 -5.04867,19.98303 -21.52066,19.61375c-16.47199,-0.36928 -20.63271,-21.66533 -20.63271,-21.66533z" fill="#ffffff" stroke="#000000" stroke-width="1.9"/></g><g stroke-linecap="butt"><path d="M220.06423,118.82618c-12.62708,-0.3058 -18.40476,-12.99582 -18.40476,-16.30953c0,-3.31371 11.95358,-0.2381 18.85714,-0.2381c6.90356,0 18.7619,-1.09942 18.7619,2.21429c0,3.31371 -6.31779,14.64566 -19.21429,14.33334z" fill="#000000" stroke="none" stroke-width="0"/><path d="M218.82614,118.54048c-9.19746,-0.18114 -17.6277,-16.36223 -17.6277,-16.36223l5.88336,-1.15834c0,0 4.04419,12.42721 12.89416,12.38141c10.47488,-0.05421 14.27875,-10.28941 14.27875,-10.28941l5.80101,1.46535c0,0 -5.0356,14.28217 -21.22958,13.96322z" fill="#ffffff" stroke="none" stroke-width="0"/><path d="M222.07175,101.48034c0.24666,0.0234 0.6086,-1.44147 2.34631,-2.08459c1.67939,-0.62153 4.07183,-0.42472 5.53918,-0.25563c1.61805,0.54491 10.03261,4.51373 10.03261,4.51373c0,0 -7.35924,0.71929 -10.57295,1.12073c-2.69313,0.33641 -7.62499,1.1275 -7.62499,1.1275l-20.10897,-4.41101c0,0 1.85053,-0.41485 4.59385,-1.34455c3.16904,-1.07398 4.04458,-1.54001 5.02564,-1.667c2.33124,-0.30176 5.0884,-0.29325 7.71556,0.55526c2.81497,0.90917 2.80847,2.42228 3.05375,2.44555z" fill="#ffffff" stroke="#000000" stroke-width="1.25"/><path d="M220.39645,124.83003c-20.14274,0.36386 -19.94817,-23.17 -19.94817,-23.17c0,0 3.74023,-0.19345 5.59805,3.29985c1.95451,3.67511 5.03118,11.26507 14.15209,11.46926c8.25391,0.18479 11.15973,-4.45993 14.51838,-9.54526c2.17091,-3.28697 5.38484,-2.76711 5.38484,-2.76711c0,0 1.58265,20.3287 -19.70519,20.71325z" fill="#ffffff" stroke="#000000" stroke-width="1.9"/></g><g stroke-linecap="butt"><path d="M347.06499,142.84604c0,2.52443 -4.23651,4.57088 -9.46252,4.57088c-5.226,0 -9.46252,-2.04645 -9.46252,-4.57088c0,-2.52443 4.23651,-4.57088 9.46252,-4.57088c5.226,0 9.46252,2.04645 9.46252,4.57088z" fill="#000000" stroke="none" stroke-width="0"/><path d="M338.38334,137.8267c0.24666,0.0234 0.6086,-1.44147 2.34631,-2.08459c1.67939,-0.62153 4.07183,-0.42472 5.53918,-0.25563c1.61805,0.54491 10.03261,4.51373 10.03261,4.51373c0,0 -7.35924,0.71929 -10.57295,1.12073c-2.69313,0.33641 -7.62499,1.1275 -7.62499,1.1275l-20.10897,-4.41101c0,0 1.85053,-0.41485 4.59385,-1.34455c3.16904,-1.07398 4.04458,-1.54001 5.02564,-1.667c2.33124,-0.30176 5.0884,-0.29325 7.71556,0.55526c2.81497,0.90917 2.80847,2.42228 3.05375,2.44555z" fill="#ffffff" stroke="#000000" stroke-width="1.25"/><path d="M336.8572,152.30535c-13.27509,-0.33993 -20.09732,-14.29896 -20.09732,-14.29896c0,0 7.00776,1.33843 10.38376,2.13318c3.48786,0.82108 6.30894,4.09724 10.65837,4.28109c4.34943,0.18384 6.88037,-3.15261 9.5121,-3.42851c2.04031,-0.2139 9.09913,-0.52901 9.09913,-0.52901c0,0 -4.93745,12.21654 -19.55604,11.84221z" fill="#ffffff" stroke="#000000" stroke-width="1.9"/></g><g stroke-linecap="butt"><path d="M393.62751,144.90877c0,2.52443 -4.11151,6.07088 -9.33752,6.07088c-5.226,0 -9.58752,-3.54645 -9.58752,-6.07088c0,-2.52443 4.23651,-4.57088 9.46252,-4.57088c5.226,0 9.46252,2.04645 9.46252,4.57088z" fill="#000000" stroke="none" stroke-width="0"/><path d="M384.94586,139.88942c0.24666,0.0234 0.6086,-1.44147 2.34631,-2.08459c1.67939,-0.62153 4.07183,-0.42472 5.53918,-0.25563c1.61805,0.54491 10.03261,4.51373 10.03261,4.51373c0,0 -7.35924,0.71929 -10.57295,1.12073c-2.69313,0.33641 -7.62499,1.1275 -7.62499,1.1275l-20.10897,-4.41101c0,0 1.85053,-0.41485 4.59385,-1.34455c3.16904,-1.07398 4.04458,-1.54001 5.02564,-1.667c2.33124,-0.30176 5.0884,-0.29325 7.71556,0.55526c2.81497,0.90917 2.80847,2.42228 3.05375,2.44555z" fill="#ffffff" stroke="#000000" stroke-width="1.25"/><path d="M383.91972,156.58354c-18.48767,-0.38653 -20.59732,-16.51444 -20.59732,-16.51444c0,0 7.00776,1.33843 10.38376,2.13318c3.48786,0.82108 3.80894,5.59724 10.40837,6.03109c6.59943,0.43385 7.13037,-4.90261 9.7621,-5.17851c2.04031,-0.2139 9.09913,-0.52901 9.09913,-0.52901c0,0 -1.15174,14.43202 -19.05604,14.05769z" fill="#ffffff" stroke="#000000" stroke-width="1.9"/></g><g><path d="M137.74681,76.23873c0,3.55938 -5.83501,6.44482 -13.03287,6.44482c-7.19786,0 -13.03287,-2.88544 -13.03287,-6.44482c0,-3.55938 7.50167,-3.44483 14.69953,-3.44483c7.19786,0 11.3662,-0.11455 11.3662,3.44483z" fill="#ffffff" stroke="none" stroke-width="NaN" stroke-linecap="butt"/><path d="M129.35238,71.89007c0.24666,0.0234 0.6086,-1.44147 2.34631,-2.08459c1.67939,-0.62153 4.07183,-0.42472 5.53918,-0.25563c1.61805,0.54491 10.03261,4.51373 10.03261,4.51373c0,0 -7.35924,0.71929 -10.57295,1.12073c-2.69313,0.33641 -7.62499,1.1275 -7.62499,1.1275c0,0 -6.19977,-2.51608 -9.39625,-3.21725c-1.49167,-0.32721 -3.67129,0.44356 -5.67569,0.2884c-2.6745,-0.20703 -5.60846,-1.48216 -5.60846,-1.48216c0,0 1.75529,-1.91485 4.49861,-2.84455c3.16904,-1.07398 4.87791,-1.37334 5.85897,-1.50033c2.33124,-0.30176 4.92173,1.04008 7.54889,1.88859c2.81497,0.90917 2.80847,2.42228 3.05375,2.44555z" fill="#ffffff" stroke="#000000" stroke-width="1.25" stroke-linecap="butt"/><path d="M141.20718,76.09779c0,0 -6.04153,0.80907 -12.99029,0.48593c-5.33676,-0.24817 -17.00971,-3.48593 -17.00971,-3.48593" fill="none" stroke="#000000" stroke-width="0.5" stroke-linecap="round"/><path d="M126.4866,85.90644c-16.27509,-0.67326 -18.7577,-13.83667 -18.7577,-13.83667c0,0 2.63751,0.0264 5.05334,1.29455c2.12793,1.11702 2.74938,4.39976 5.93042,4.77196c3.18105,0.3722 5.86932,-1.60029 10.21875,-1.41644c4.34943,0.18384 6.71999,-1.38841 9.35172,-1.66431c2.04031,-0.2139 9.09913,-0.52901 9.09913,-0.52901c0,0 -6.27707,11.75425 -20.89566,11.37992z" fill="#ffffff" stroke="#000000" stroke-width="1.9" stroke-linecap="butt"/></g><g><path d="M223.29329,76.52603c0,3.55938 -5.83501,6.44482 -13.03287,6.44482c-7.19786,0 -13.03287,-2.88545 -13.03287,-6.44482c0,-3.55938 5.83501,-6.44483 13.03287,-6.44483c7.19786,0 13.03287,2.88545 13.03287,6.44483z" fill="#ffffff" stroke="none" stroke-width="NaN" stroke-linecap="butt"/><path d="M227.60806,76.84515c0,0 -6.5572,1.15086 -13.18488,0.82533c-5.09017,-0.25001 -16.11019,-3.70364 -16.11019,-3.70364" fill="none" stroke="#000000" stroke-width="0.5" stroke-linecap="round"/><path d="M220.51123,70.15421c1.60179,-0.62614 2.83971,-0.77105 4.20742,-0.43354c2.11676,0.52236 8.67252,5.70019 8.67252,5.70019c0,0 -7.01919,0.09962 -10.08441,0.50403c-1.00062,0.13202 -4.25902,0.32822 -6.8801,-0.1196c-4.10755,-0.70178 -8.03851,-2.274 -9.89966,-2.7052c-3.04878,-0.70637 -4.31918,0.87859 -6.23096,0.72228c-2.55092,-0.20856 -4.53177,-1.63706 -4.53177,-1.63706c0,0 2.08787,-1.67153 3.19126,-2.95748c1.17988,-1.3751 2.23922,-3.17467 5.04552,-3.2425c3.88431,-0.0939 8.31594,3.12645 10.8217,3.98125c2.6849,0.91591 4.11311,2.44022 4.34706,2.46366c0,0 -0.316,-1.62814 1.34142,-2.27603z" fill="#ffffff" stroke="#000000" stroke-width="1.25" stroke-linecap="butt"/><path d="M211.8849,89.83738c-17.51543,-0.92487 -16.20819,-17.05011 -16.20819,-17.05011c0,0 2.67628,1.43774 4.12178,2.7418c1.95619,1.76477 2.42037,5.04759 6.05924,5.66629c3.34483,0.5687 7.08513,-2.54675 10.43884,-3.33014c1.61966,-0.37834 4.27097,-0.58587 6.81455,-0.84716c2.45826,-0.25252 4.82532,-0.56468 5.52902,-0.59556c2.6288,-0.11535 5.60768,0.08972 5.60768,0.08972c0,0 -4.82875,14.25103 -22.36291,13.32517z" fill="#ffffff" stroke="#000000" stroke-width="1.9" stroke-linecap="butt"/></g><g><path d="M314.40889,78.29738c0,3.55938 -5.83501,6.44482 -13.03287,6.44482c-7.19786,0 -13.03287,-2.88545 -13.03287,-6.44482c0,-3.55938 5.83501,-6.44482 13.03287,-6.44482c7.19786,0 13.03287,2.88545 13.03287,6.44482z" fill="#ffffff" stroke="none" stroke-width="NaN" stroke-linecap="butt"/><path d="M316.66802,75.68299c0,0 -8.93226,1.91642 -15.15089,1.74338c-6.21863,-0.17304 -16.64078,-3.03153 -16.64078,-3.03153" fill="none" stroke="#000000" stroke-width="0.5" stroke-linecap="round"/><path d="M302.37047,72.05963c0.24666,0.02192 0.6086,-1.35042 2.34631,-1.95292c1.67939,-0.58227 4.07183,-0.39789 5.53918,-0.23948c1.61805,0.51049 9.65761,5.86809 9.65761,5.86809c0,0 -4.06425,0.44496 -8.5777,0.07183c-3.33217,-0.27548 -6.45231,-0.36979 -9.05632,-0.492c-3.30127,-0.15493 -8.40077,-0.31122 -12.63104,-0.36553c-4.18383,-0.05371 -7.91685,-1.00627 -7.91685,-1.00627c0,0 4.21365,-3.8138 6.86949,-4.5779c2.23332,-0.64254 8.0884,-0.39183 10.71556,0.40308c2.81497,0.85174 2.80847,2.26928 3.05375,2.29108z" fill="#ffffff" stroke="#000000" stroke-width="1.25" stroke-linecap="butt"/><path d="M281.372,73.86741c0,0 3.79943,0.5903 7.17543,1.33485c3.48786,0.76922 1.78044,2.86471 9.73542,4.66097c8.04598,1.8168 12.01166,-3.33053 14.64339,-3.589c2.04031,-0.20039 7.09913,-0.10524 7.09913,-0.10524c0,0 -4.20207,12.31444 -18.82066,11.96375c-14.61859,-0.35069 -19.83271,-14.26533 -19.83271,-14.26533z" fill="#ffffff" stroke="#000000" stroke-width="1.9" stroke-linecap="butt"/></g><g><path d="M358.44063,77.57736c0,3.55938 -5.83502,6.44482 -13.03287,6.44482c-7.19786,0 -13.03287,-2.88545 -13.03287,-6.44482c0,-3.55938 5.83501,-6.44483 13.03287,-6.44483c7.19786,0 13.03287,2.88545 13.03287,6.44483z" fill="#ffffff" stroke="none" stroke-width="NaN" stroke-linecap="butt"/><path d="M361.71896,75.23592c0,0 -9.499,2.23761 -15.93214,2.05888c-6.43314,-0.17873 -16.95617,-3.38936 -16.95617,-3.38936" fill="none" stroke="#000000" stroke-width="0.5" stroke-linecap="round"/><path d="M346.92821,71.49345c0.25517,0.02264 0.62959,-1.39479 2.42724,-2.01709c1.73732,-0.6014 4.21229,-0.41096 5.73025,-0.24735c1.67386,0.52726 9.99075,6.06091 9.99075,6.06091c0,0 -4.20444,0.45958 -8.87359,0.07419c-3.44711,-0.28453 -7.08868,-1.4148 -9.78251,-1.54103c-3.41514,-0.16002 -8.27675,0.71141 -12.65294,0.65532c-4.32815,-0.05547 -8.18994,-1.03933 -8.18994,-1.03933c0,0 4.359,-3.93912 7.10645,-4.72832c2.31036,-0.66365 8.36741,-0.40471 11.08519,0.41632c2.91207,0.87973 2.90535,2.34385 3.15909,2.36636z" fill="#ffffff" stroke="#000000" stroke-width="1.25" stroke-linecap="butt"/><path d="M332.62832,74.98937c3.60818,0.7945 1.58324,4.50813 9.81262,6.36341c8.32352,1.8765 12.68462,-4.98925 15.40713,-5.25622c2.11069,-0.20697 7.34401,-0.1087 7.34401,-0.1087c0,0 -5.01254,14.70686 -20.1354,14.34465c-15.12285,-0.36221 -19.8513,-16.72186 -19.8513,-16.72186c0,0 3.93048,0.60971 7.42294,1.37872z" fill="#ffffff" stroke="#000000" stroke-width="1.9" stroke-linecap="butt"/></g><g stroke-linecap="butt"><path d="M156.59893,206.26159c0,2.58979 -6.47404,8.56422 -10.91367,8.56422c-4.43964,0 -8.03867,-2.09943 -8.03867,-4.68922c0,-2.58979 3.59903,-4.68922 8.03867,-4.68922c4.43964,0 10.91367,-1.77557 10.91367,0.81422z" fill="#000000" stroke="none" stroke-width="0"/><path d="M138.37302,205.35154c0.24666,0.0234 0.6086,-1.44147 2.34631,-2.08459c1.67939,-0.62153 4.26323,-1.19031 5.73058,-1.02122c1.61805,0.54491 13.29122,1.97932 13.29122,1.97932c0,0 -10.80924,4.01929 -14.02295,4.42073c-2.69313,0.33641 -7.62499,1.1275 -7.62499,1.1275l-19.46059,-2.49704c0,0 2.61459,-1.32023 5.03611,-2.68798c1.8116,-1.02326 3.51514,-2.18319 3.935,-2.23754c2.33124,-0.30176 5.0884,-0.29325 7.71556,0.55526c2.81497,0.90917 2.80847,2.42228 3.05375,2.44555z" fill="#ffffff" stroke="#000000" stroke-width="1.25"/><path d="M145.70612,220.54192c-19.78631,1.15685 -27.15983,-13.09674 -27.15983,-13.09674c0,0 8.38779,1.07758 15.08052,1.64437c3.59634,0.30456 5.51905,-0.10391 7.01599,0.169c1.51745,0.27664 11.64445,-1.7157 13.82646,-3.11161c1.84667,-1.18138 5.13362,-1.75896 5.13362,-1.75896c0,0 0.70168,15.30043 -13.89676,16.15395z" fill="#ffffff" stroke="#000000" stroke-width="1.9"/></g><g stroke="#000000" stroke-linecap="butt"><path d="M246.38017,171.35215c0,1.20935 -4.00257,2.18973 -8.93999,2.18973c-4.93742,0 -8.93999,-0.98037 -8.93999,-2.18973c0,-1.20935 4.00257,-2.18972 8.93999,-2.18972c4.93742,0 8.93999,0.98037 8.93999,2.18972z" fill="#000000" stroke-width="1.9"/><g fill="#ffffff"><path d="M238.14146,166.76329c0.24666,0.02427 0.6086,0.30945 2.34631,-0.35778c1.67939,-0.64483 4.7385,-1.16261 6.20585,-0.98718c1.61805,0.56534 9.96594,5.11605 9.96594,5.11605c0,0 -7.95924,-0.7699 -11.17295,-0.35341c-2.69313,0.34901 -7.62499,0.74108 -7.62499,0.74108l-21.10897,-2.63149c0,0 9.63843,-3.78683 10.61949,-3.91858c2.33124,-0.31307 5.0884,0.77872 7.71556,1.65903c2.81497,0.94323 2.80847,0.70812 3.05375,0.73226z" stroke-width="1.25"/><path d="M216.118,168.25774c0,0 7.40776,-0.06668 10.78376,0.79401c3.48786,0.8892 5.98027,4.57046 10.3297,4.76957c4.34943,0.19909 7.20904,-3.54747 9.84077,-3.84626c2.04031,-0.23164 9.69913,0.94324 9.69913,0.94324c0,0 0.28353,4.92305 -6.80479,10.55994c-2.69148,2.14035 -7.81258,2.47976 -12.58621,2.38749c-4.77363,-0.09228 -9.72244,-0.95367 -12.60467,-2.86158c-5.5651,-3.68383 -8.65769,-12.74641 -8.65769,-12.74641z" stroke-width="1.9"/></g></g><g stroke="#000000" stroke-linecap="butt"><path d="M200.04828,171.05392c0,2.13804 -4.34284,3.87125 -9.7,3.87125c-5.35716,0 -9.7,-1.73322 -9.7,-3.87125c0,-2.13804 4.34284,-3.87125 9.7,-3.87125c5.35716,0 9.7,1.73322 9.7,3.87125z" fill="#000000" stroke-width="1.9"/><g fill="#ffffff"><path d="M189.58381,164.84604c0.24666,0.02248 5.22164,-2.16087 8.55216,-1.53261c3.33052,0.62826 9.96594,5.02581 9.96594,5.02581c0,0 -7.95924,-0.71316 -11.17295,-0.32737c-2.69313,0.3233 -7.62499,1.73828 -7.62499,1.73828l-21.10897,-3.4894c0,0 7.14127,-3.86303 12.28616,-4.20334c5.14489,-0.34031 8.85736,2.76623 9.10264,2.7886z" stroke-width="1.25"/><path d="M177.8776,168.13208c1.86256,0.43985 4.90635,0.96955 4.90635,0.96955c0,0 3.50353,2.71204 6.37888,2.47798c2.87535,-0.23406 6.71999,-3.24847 9.35172,-3.52524c2.04031,-0.21457 9.69913,0.64049 9.69913,0.64049c0,0 2.18344,5.16082 -4.90488,10.38234c-2.69148,1.98263 -9.71249,3.02981 -14.48612,2.94434c-4.77363,-0.08548 -10.58929,-1.51609 -13.47152,-3.28341c-5.5651,-3.41237 -7.79084,-12.50777 -7.79084,-12.50777c0,0 6.94127,1.10444 10.31727,1.90171z" stroke-width="1.9"/></g></g><g fill="#ffffff" stroke="#000000" stroke-linecap="butt"><path d="M291.61064,108.21096c-0.02476,0.15294 -10.43477,0.16322 -13.67937,0.45471c-2.71902,0.24427 -6.68867,0.5075 -6.68867,0.5075c0,0 -7.10401,-0.8355 -13.27235,-1.75861c-4.94371,-0.73983 -10.39929,-1.19465 -10.40995,-1.26191c-0.01439,-0.09071 8.18169,-4.60172 13.88852,-4.57163c5.70682,0.03009 8.81908,4.67576 9.06672,4.69266c0,0 4.63045,-3.08099 7.87714,-2.78282c3.24669,0.29817 13.23746,4.5996 13.21796,4.72011z" stroke-width="1.4"/><path d="M259.74467,107.33249c5.09114,1.02674 11.91756,2.80736 11.91756,2.80736c0,0 5.78976,-1.55585 8.44678,-1.8344c2.05992,-0.21596 11.216,-0.70654 11.26026,-0.33377c0.02922,0.24607 -5.47626,4.8324 -9.55272,6.58938c-4.07646,1.75698 -7.36747,2.547 -11.30357,2.39978c-4.20682,-0.13314 -7.01661,-1.05256 -11.26842,-3.23134c-4.25181,-2.17878 -11.87641,-8.49795 -11.85012,-8.61539c0.03784,-0.16913 7.2591,1.19165 12.35024,2.2184z" stroke-width="1.9"/></g><g fill="#ffffff" stroke="#000000" stroke-linecap="butt"><path d="M326.42651,108.9818c-2.71902,0.24427 -6.98046,1.67465 -6.98046,1.67465c0,0 -6.81223,-2.00265 -12.98057,-2.92575c-4.94371,-0.73983 -10.39929,-1.19465 -10.40995,-1.26191c-0.01439,-0.09071 4.09667,-4.30993 9.8035,-4.27985c5.70682,0.03009 12.9041,3.8004 13.15174,3.8173c0,0 6.96475,-3.08099 10.21144,-2.78282c3.24669,0.29817 8.15388,3.52485 8.13438,3.64535c0,0 -8.5515,1.89934 -10.93009,2.11303z" stroke-width="1.4"/><path d="M319.5739,110.45597c0,0 6.95691,-3.01479 9.61393,-3.29334c0.87258,-0.09148 8.31688,-0.25684 8.34239,-0.04198c0.02922,0.24607 -3.55642,5.49813 -7.63288,7.25511c-4.07646,1.75698 -7.05031,2.2679 -10.98641,2.12068c-4.20682,-0.13314 -9.99548,-1.43376 -14.24729,-3.61254c-4.25181,-2.17878 -8.80026,-7.33622 -8.77397,-7.45366c0.03784,-0.16913 7.55088,0.0245 12.64202,1.05125c5.09114,1.02675 11.04219,3.97449 11.04219,3.97449z" stroke-width="1.9"/></g><g stroke="#000000"><path d="M50.08341,105.65036c0,2.8995 -6.7717,5.25 -15.125,5.25c-8.3533,0 -15.125,-2.3505 -15.125,-5.25c0,-2.8995 6.7717,-5.25 15.125,-5.25c8.3533,0 15.125,2.3505 15.125,5.25z" fill="#ffffff" stroke-width="1.4" stroke-linecap="butt"/><g><path d="M57.07454,104.14444c-0.01403,0.12047 -0.76747,0.70394 -5.82875,0.61964c-2.24534,-0.0374 -11.40569,-2.4294 -14.48394,-2.1852c-3.31795,0.26322 -15.64435,0.44941 -16.20272,0.33323c-4.94371,-1.02869 -7.52429,-1.53608 -7.53495,-1.62961c-0.01439,-0.12613 8.54861,-4.49761 15.03765,-4.45005c6.48904,0.04756 8.41995,2.84481 8.66759,2.86831c0,0 3.44733,-2.58005 6.92397,-2.13611c3.47663,0.44394 13.44064,6.41223 13.42114,6.57979z" fill="#ffffff" stroke-width="1.4" stroke-linecap="butt"/><path d="M36.75422,107.35379c6.31471,0.29111 12.31429,-2.1208 13.44369,-2.2392c2.05992,-0.21596 6.591,-1.20654 6.63526,-0.83377c0.04328,0.36447 -9.03119,13.77533 -21.14808,13.32214c-13.76954,-0.43578 -22.86459,-16.01059 -22.82675,-16.17972c0.03784,-0.16913 3.0091,1.31665 8.10024,2.3434c0,0 9.48093,3.29604 15.79564,3.58715z" fill="#ffffff" stroke-width="1.9" stroke-linecap="butt"/><path d="M48.24045,104.89402l-24.24457,-0.67975" fill="none" stroke-width="0.5" stroke-linecap="round"/></g></g><g stroke-linecap="butt"><path d="M145.66511,103.3748c0,3.31371 -7.59644,9.33333 -14.5,9.33333c-6.90356,0 -13.83333,-6.85296 -13.83333,-10.16667c0,-3.31371 7.09644,-1.66667 14,-1.66667c6.90356,0 14.33333,-0.81371 14.33333,2.5z" fill="#000000" stroke="none" stroke-width="0"/><path d="M130.08019,112.72207c-9.19746,-0.18114 -14.55389,-12.05889 -14.55389,-12.05889l4.96122,-1.7731c0,0 1.89252,8.73864 10.74249,8.69284c10.47488,-0.05421 9.01342,-6.71659 9.01342,-6.71659l8.45361,2.96431c0,0 -2.42286,9.21038 -18.61684,8.89143z" fill="#ffffff" stroke="none" stroke-width="0"/><path d="M132.88691,100.07656c0.24666,0.0234 0.6086,-1.44147 2.34631,-2.08459c1.67939,-0.62153 4.07183,-0.42472 5.53918,-0.25563c1.61805,0.54491 10.03261,4.51373 10.03261,4.51373c0,0 -7.35924,0.71929 -10.57295,1.12073c-2.69313,0.33641 -7.62499,1.1275 -7.62499,1.1275l-20.10897,-4.41101c0,0 1.85053,-0.41485 4.59385,-1.34455c3.16904,-1.07398 4.04458,-1.54001 5.02564,-1.667c2.33124,-0.30176 5.0884,-0.29325 7.71556,0.55526c2.81497,0.90917 2.80847,2.42228 3.05375,2.44555z" fill="#ffffff" stroke="#000000" stroke-width="1.4"/><path d="M131.35448,117.42625c-16.123,-0.06035 -20.09103,-17.17 -20.09103,-17.17c0,0 5.06333,0.62773 6.88376,1.29985c3.79964,1.40285 2.89818,7.71305 13.15209,8.18355c9.77022,0.44831 8.19271,-5.63244 13.51838,-6.83097c3.02688,-0.68119 6.09913,-0.19568 6.09913,-0.19568c0,0 -2.27673,14.77796 -19.56233,14.71325z" fill="#ffffff" stroke="#000000" stroke-width="1.9"/></g><g stroke-linecap="butt"><path d="M440.00486,148.84291c0,2.63378 -3.94877,6.33384 -8.96792,6.33384c-5.01914,0 -9.20802,-3.70006 -9.20802,-6.33384c0,-1.77848 -0.97807,-7.49624 1.77229,-8.31609c1.32269,-0.39429 4.85241,-0.78611 6.48234,-0.78611c1.84639,0 7.39752,2.78894 8.83146,3.28536c2.464,0.85301 1.08986,4.15196 1.08986,5.81685z" fill="#000000" stroke="none" stroke-width="0"/><path d="M448.87571,145.87381c0,0 -7.00882,-0.95747 -10.09532,-0.53863c-1.34506,0.18252 -4.90031,-1.80853 -8.35832,-1.92658c-3.19166,-0.10896 -6.30048,1.67388 -7.51222,1.38514c-3.55408,-0.84689 -10.93365,-1.42639 -10.93365,-1.42639c0,0 3.82771,-1.97758 6.8761,-3.76749c2.04596,-1.20132 2.91656,-2.45548 5.12593,-2.45671c5.50124,-0.00305 7.71961,4.32094 7.92426,4.34203c0,0 4.00054,-3.96323 6.86638,-3.22224c2.86584,0.74099 10.10683,7.61086 10.10683,7.61086z" fill="#ffffff" stroke="#000000" stroke-width="1.25"/><path d="M430.43133,160.0234c-17.75588,-0.40328 -18.78203,-15.97978 -18.78203,-15.97978c0,0 6.76668,0.3601 10.00905,1.18928c3.34981,0.85665 2.87187,5.37599 9.21008,5.82864c6.33821,0.45265 5.47211,-4.4547 7.99966,-4.74255c1.95955,-0.22316 10.115,0.0378 10.115,0.0378c0,0 -1.35615,14.05716 -18.55176,13.66661z" fill="#ffffff" stroke="#000000" stroke-width="1.9"/></g><g data-paper-data="{&quot;index&quot;:null}" fill="#ffffff" stroke="#000000" stroke-linecap="butt"><path d="M90.44405,69.50877c0.5704,0.21186 3.08357,1.39942 6.02385,2.59586c2.9637,1.20597 7.21362,2.29294 7.19412,2.4605c-0.02476,0.21265 -10.43477,0.22694 -13.67937,0.63224c-2.71902,0.33964 -6.68867,0.70564 -6.68867,0.70564c0,0 -7.10401,-1.16169 -13.27235,-2.44521c-4.94371,-1.02869 -9.59929,-4.46108 -9.60995,-4.55461c-0.01439,-0.12613 10.86388,-1.4798 10.86388,-1.4798c0,0 5.55585,1.12234 8.20826,1.979c2.84203,0.91791 2.83546,2.44556 3.0831,2.46906c0,0 1.18436,-1.74932 2.36886,-2.10461c1.18451,-0.35528 5.08219,-0.41633 5.50828,-0.25808z" stroke-width="1.4"/><path d="M71.79605,74.06238c5.09114,1.02674 11.91756,2.80736 11.91756,2.80736c0,0 5.78976,-1.55585 8.44678,-1.8344c2.05992,-0.21596 11.216,-0.70654 11.26026,-0.33377c0.04328,0.36447 -9.03119,12.90033 -21.14808,12.44714c-13.76954,-0.43578 -23.06459,-17.93559 -23.02675,-18.10472c0.03784,-0.16913 7.4591,3.99165 12.55024,5.0184z" stroke-width="1.9"/></g><g><path d="M349.5613,176.46007c0,3.11825 -6.57239,5.6461 -14.67985,5.6461c-8.10746,0 -14.67985,-2.52784 -14.67985,-5.6461c0,-3.11825 6.57239,-5.6461 14.67985,-5.6461c8.10746,0 14.67985,2.52784 14.67985,5.6461z" fill="#ffffff" stroke="none" stroke-width="NaN" stroke-linecap="butt"/><g stroke="#000000"><path d="M335.22114,169.59885c0.24666,0.01825 0.6086,-1.12423 2.34631,-1.62581c1.67939,-0.48474 4.07183,-1.05969 5.53918,-0.92781c1.61805,0.42498 10.80579,3.11614 10.80579,3.11614c0,0 -4.54781,1.82353 -8.85088,2.55731c-4.30307,0.73378 -7.72731,1.00334 -10.33132,0.9016c-3.30127,-0.12898 -8.75077,-0.84184 -12.23104,-1.6155c-3.48027,-0.77365 -8.92973,-4.08814 -8.92973,-4.08814c0,0 6.97653,-0.96521 9.63237,-1.60133c2.23332,-0.53492 6.3384,0.71443 8.96556,1.37619c2.81497,0.70908 2.80847,1.88918 3.05375,1.90733z" fill="#ffffff" stroke-width="1.4" stroke-linecap="butt"/><path d="M312.61054,168.59338c0,0 4.921,1.8678 7.53755,3.33485c3.88726,2.17951 4.72368,3.85447 9.02709,6.27208c2.44304,1.37247 8.3849,1.58571 10.61794,0.02913c3.44461,-2.40111 4.51116,-3.09954 8.40045,-5.02091c3.74186,-1.84853 6.93761,-2.56357 6.93761,-2.56357c0,0 -4.80382,17.23303 -21.27581,16.86375c-16.47199,-0.36928 -21.24483,-18.91533 -21.24483,-18.91533z" fill="#ffffff" stroke-width="1.9" stroke-linecap="butt"/><path d="M349.03655,171.95549c0,0 -8.33574,5.02531 -14.5747,4.49995c-7.21238,-0.60733 -13.56815,-4.64281 -13.56815,-4.64281" fill="none" stroke-width="0.5" stroke-linecap="round"/></g></g><g stroke-linecap="butt"><path d="M144.16637,246.42872c0,4.09899 -5.14173,7.42188 -11.48438,7.42188c-6.34265,0 -11.48438,-3.32289 -11.48438,-7.42187c0,-4.09899 5.14173,-7.42187 11.48438,-7.42187c6.34265,0 11.48438,3.32289 11.48438,7.42188z" fill="#000000" stroke="none" stroke-width="0"/><path d="M133.81056,240.80714c0.24666,0.0234 0.6086,-1.44147 2.34631,-2.08459c1.67939,-0.62153 4.07183,-0.42472 5.53918,-0.25563c1.61805,0.54491 10.03261,4.51373 10.03261,4.51373c0,0 -7.20299,0.56304 -10.4167,0.96448c-2.69313,0.33641 -4.6365,-1.26669 -7.78124,-1.3725c-3.14474,-0.10581 -5.02981,0.78805 -7.96412,0.58281c-6.18625,-0.43269 -12.14485,-2.33757 -12.14485,-2.33757c0,0 1.85053,-0.41485 4.59385,-1.34455c3.16904,-1.07398 4.04458,-1.54001 5.02564,-1.667c2.33124,-0.30176 5.0884,-0.29325 7.71556,0.55526c2.81497,0.90917 2.80847,2.42228 3.05375,2.44555z" fill="#ffffff" stroke="#000000" stroke-width="1.4"/><path d="M133.17396,256.40687c-13.27509,-0.33993 -20.5702,-15.00334 -20.5702,-15.00334c0,0 9.82026,1.80718 13.19626,2.60193c3.48786,0.82108 2.25057,2.90596 7.69375,3.08981c5.75568,0.34009 4.53249,-2.43008 7.16422,-2.70598c2.04031,-0.2139 11.59913,-0.52901 11.59913,-0.52901c0,0 -4.46457,12.92092 -19.08316,12.54659z" fill="#ffffff" stroke="#000000" stroke-width="1.9"/></g><g fill="#ffffff"><path d="M115.76887,138.32727c0,2.43926 -4.81294,4.41667 -10.75,4.41667c-5.93706,0 -10.75,-1.97741 -10.75,-4.41667c0,-2.43926 4.81294,-4.41666 10.75,-4.41666c5.93706,0 10.75,1.97741 10.75,4.41666z" stroke="none" stroke-width="NaN" stroke-linecap="butt"/><path d="M113.72852,139.39333c1.67573,-0.36111 3.1966,-1.10565 3.63279,-1.14672c2.05992,-0.19392 8.24457,0.30024 8.28883,0.63497c0.0151,0.11418 -3.65413,6.06495 -11.37051,8.02876c-5.37923,1.36901 -17.87566,0.23948 -18.38056,0.14111c-7.72626,-1.5053 -11.23824,-10.13891 -11.22376,-10.19707c0.03784,-0.15187 2.51624,-0.68911 7.60738,0.23286c0,0 3.7697,1.81511 5.63014,2.30096c0,0 13.91282,0.41519 15.81569,0.00513z" stroke="#000000" stroke-width="1.9" stroke-linecap="butt"/><path d="M112.86884,130.24461l12.29183,7.69919c0,0 -4.08857,-0.22302 -6.44501,-0.18242c-2.69581,0.04643 -3.47783,0.42494 -3.47783,0.42494c0,0 -6.28422,-2.25436 -8.58665,-2.32947c-3.41737,-0.11149 -11.04486,2.71479 -11.04486,2.71479l-10.89208,-1.89026l14.25284,-6.834c0,0 1.95325,0.72442 2.95848,1.12444c1.38618,0.5516 4.44646,2.59334 4.44646,2.59334c0,0 2.83819,-2.18902 4.16857,-2.72257c0.90827,-0.36425 2.32824,-0.59798 2.32824,-0.59798z" stroke="#000000" stroke-width="1.4" stroke-linecap="round"/></g><g stroke="#000000" stroke-linecap="butt"><path d="M105.36816,167.47456c0,2.43926 -4.77563,4.41666 -10.66667,4.41666c-5.89103,0 -10.66667,-1.97741 -10.66667,-4.41666c0,-2.43926 4.77564,-4.41666 10.66667,-4.41666c5.89103,0 10.66667,1.97741 10.66667,4.41666z" fill="#000000" stroke-width="1.9"/><g fill="#ffffff"><path d="M94.84356,162.22016c0.25696,0.02241 0.63401,0.28574 2.4443,-0.33037c1.74953,-0.59543 4.9364,-1.07355 6.46503,-0.91156c1.68562,0.52203 10.88215,3.72415 10.88215,3.72415c0,0 -8.79165,0.28908 -12.13957,0.67366c-2.8056,0.32228 -7.94344,1.73281 -7.94344,1.73281l-22.82389,-5.14509c0,0 10.8743,-1.83008 11.89633,-1.95173c2.4286,-0.28909 5.30091,0.71907 8.03779,1.53194c2.93253,0.87098 2.92577,0.65387 3.18129,0.67617z" stroke-width="1.25"/><path d="M95.6383,168.90508c2.8886,-0.07888 3.62309,-2.72251 6.28012,-3.00106c2.05992,-0.21596 13.54933,-0.87321 13.59359,-0.50044c0.04328,0.36447 -9.03119,12.90033 -21.14808,12.44714c-13.76954,-0.43578 -22.86459,-15.13559 -22.82675,-15.30472c0.03784,-0.16913 12.09243,2.69165 17.18357,3.7184c0,0 4.02895,2.71956 6.91755,2.64068z" stroke-width="1.9"/></g></g><g stroke="#000000" stroke-linecap="butt"><path d="M51.98378,165.83191c0,2.43926 -4.77563,4.41666 -10.66667,4.41666c-5.89103,0 -10.66667,-1.97741 -10.66667,-4.41666c0,-2.43926 4.77564,-4.41666 10.66667,-4.41666c5.89104,0 10.66667,1.97741 10.66667,4.41666z" fill="#000000" stroke-width="1.9"/><g fill="#ffffff"><path d="M41.45918,160.5775c0.25696,0.02241 0.63402,0.28574 2.4443,-0.33037c1.74953,-0.59543 4.9364,-1.07355 6.46503,-0.91156c1.68562,0.52203 10.88215,3.72415 10.88215,3.72415c0,0 -8.79165,0.28908 -12.13957,0.67366c-2.80561,0.32228 -7.94344,1.73281 -7.94344,1.73281l-22.82389,-5.14509c0,0 10.8743,-1.83008 11.89633,-1.95173c2.4286,-0.28909 5.30091,0.71907 8.03779,1.53194c2.93253,0.87098 2.92577,0.65387 3.18129,0.67617z" stroke-width="1.25"/><path d="M42.25392,167.26244c2.8886,-0.07888 3.62309,-2.72252 6.28012,-3.00107c2.05992,-0.21596 13.54933,-0.87321 13.59359,-0.50044c0.02269,0.19111 -2.46155,4.91207 -6.57683,8.34318c-3.73295,3.11234 -8.80795,4.98619 -14.57125,4.77063c-3.94362,-0.12481 -9.50382,-1.47432 -12.57584,-3.34076c-7.65425,-4.65042 -10.27791,-12.50993 -10.25091,-12.63062c0.03784,-0.16913 12.09243,2.69165 17.18357,3.7184c0,0 4.02895,2.71956 6.91755,2.64068z" stroke-width="1.9"/></g></g><g stroke-linecap="butt"><path d="M189.87249,248.66018c0,4.09899 -5.14173,7.42188 -11.48438,7.42188c-6.34265,0 -11.48438,-3.32289 -11.48438,-7.42187c0,-4.09899 5.14173,-7.42187 11.48438,-7.42187c6.34265,0 11.48438,3.32289 11.48438,7.42188z" fill="#000000" stroke="none" stroke-width="0"/><path d="M179.51668,243.03859c0.24666,0.0234 0.6086,-1.44147 2.34631,-2.08459c1.67939,-0.62153 4.07183,-0.42472 5.53918,-0.25563c1.61805,0.54491 10.03261,4.51373 10.03261,4.51373c0,0 -7.20299,0.56304 -10.4167,0.96448c-2.69313,0.33641 -4.6365,-1.26669 -7.78124,-1.3725c-3.14474,-0.10581 -5.02981,0.78805 -7.96412,0.58281c-6.18625,-0.43269 -12.14485,-2.33757 -12.14485,-2.33757c0,0 1.85053,-0.41485 4.59385,-1.34455c3.16904,-1.07398 4.04458,-1.54001 5.02564,-1.667c2.33124,-0.30176 5.0884,-0.29325 7.71556,0.55526c2.81497,0.90917 2.80847,2.42228 3.05375,2.44555z" fill="#ffffff" stroke="#000000" stroke-width="1.4"/><path d="M178.46341,259.05497c-13.27509,-0.33993 -20.5702,-15.83667 -20.5702,-15.83667c0,0 13.4127,1.12018 16.7887,1.91493c3.48786,0.82108 1.83615,2.70154 4.17432,2.82364c2.33817,0.1221 1.52897,-2.13541 4.1607,-2.41131c2.04031,-0.2139 14.52964,0.12949 14.52964,0.12949c0,0 -4.46457,13.75425 -19.08316,13.37992z" fill="#ffffff" stroke="#000000" stroke-width="1.9"/></g><g stroke-linecap="butt"><path d="M236.84546,249.93434c0,4.09899 -5.14173,7.42188 -11.48438,7.42188c-6.34265,0 -11.48438,-3.32289 -11.48438,-7.42187c0,-4.09899 5.14173,-7.42187 11.48438,-7.42187c6.34265,0 11.48438,3.32289 11.48438,7.42188z" fill="#000000" stroke="none" stroke-width="0"/><path d="M226.48965,244.31276c0.24666,0.0234 0.6086,-1.44147 2.34631,-2.08459c1.67939,-0.62153 4.07183,-0.42472 5.53918,-0.25563c1.61805,0.54491 10.03261,4.51373 10.03261,4.51373c0,0 -7.20299,0.56304 -10.4167,0.96448c-2.69313,0.33641 -4.6365,-1.26669 -7.78124,-1.3725c-3.14474,-0.10581 -5.02981,0.78805 -7.96412,0.58281c-6.18625,-0.43269 -12.14485,-2.33757 -12.14485,-2.33757c0,0 1.85053,-0.41485 4.59385,-1.34455c3.16904,-1.07398 4.04458,-1.54001 5.02564,-1.667c2.33124,-0.30176 5.0884,-0.29325 7.71556,0.55526c2.81497,0.90917 2.80847,2.42228 3.05375,2.44555z" fill="#ffffff" stroke="#000000" stroke-width="1.45"/><path d="M225.43639,260.32913c-13.27509,-0.33993 -20.5702,-15.83667 -20.5702,-15.83667c0,0 11.8762,1.99818 15.2522,2.79293c3.48786,0.82108 3.03685,4.89834 6.21082,4.98214c3.50791,0.09261 3.00446,-4.51341 5.63619,-4.78931c2.04031,-0.2139 12.55415,-0.52901 12.55415,-0.52901c0,0 -4.46457,13.75425 -19.08316,13.37992z" fill="#ffffff" stroke="#000000" stroke-width="1.9"/></g><g stroke-linecap="butt"><path d="M285.34545,249.80307c0,4.09899 -5.14173,7.42188 -11.48438,7.42188c-6.34265,0 -11.48438,-3.32289 -11.48438,-7.42187c0,-4.09899 5.14173,-7.42187 11.48438,-7.42187c6.34265,0 11.48438,3.32289 11.48438,7.42188z" fill="#000000" stroke="none" stroke-width="0"/><path d="M274.98966,244.18149c0.24666,0.0234 0.6086,-1.44147 2.34631,-2.08459c1.67939,-0.62153 4.07183,-0.42472 5.53918,-0.25563c1.61805,0.54491 10.03261,4.51373 10.03261,4.51373c0,0 -7.20299,0.56304 -10.4167,0.96448c-2.69313,0.33641 -4.6365,-1.26669 -7.78124,-1.3725c-3.14474,-0.10581 -5.02981,0.78805 -7.96412,0.58281c-6.18625,-0.43269 -12.14485,-2.33757 -12.14485,-2.33757c0,0 1.85053,-0.41485 4.59385,-1.34455c3.16904,-1.07398 4.04458,-1.54001 5.02564,-1.667c2.33124,-0.30176 5.0884,-0.29325 7.71556,0.55526c2.81497,0.90917 2.80847,2.42228 3.05375,2.44555z" fill="#ffffff" stroke="#000000" stroke-width="1.4"/><path d="M273.9364,260.64496c-13.27509,-0.34953 -20.5702,-16.28378 -20.5702,-16.28378c0,0 12.9737,2.05459 16.3497,2.87178c3.48786,0.84426 2.67477,3.09833 5.11332,3.14731c2.43855,0.04898 2.12646,-2.66535 4.75819,-2.94904c2.04031,-0.21994 13.43215,-0.54395 13.43215,-0.54395c0,0 -4.46457,14.14257 -19.08316,13.75767z" fill="#ffffff" stroke="#000000" stroke-width="1.9"/></g><g stroke-linecap="butt"><path d="M126.20239,187.80147v-20.75733h29.05697v20.75733z" fill="#000000" stroke="none" stroke-width="0"/><path d="M126.57623,185.17701c0,0 -2.19258,-16.90663 0.68857,-18.65256c0.70326,-0.42616 -0.87843,-1.81806 0.08734,0.54745c1.23485,3.02453 4.66316,10.49088 6.73672,12.94106c1.03331,1.22099 4.07411,1.54194 6.85756,1.53528c2.16988,-0.0052 4.54241,-0.13535 5.95085,-1.97821c2.03955,-2.66861 5.76554,-12.03554 6.83714,-13.06248c1.67699,-1.60708 2.17421,0.8945 2.17421,0.8945c0,0 -3.95383,14.32909 -6.36876,16.56188c-2.35768,2.17985 -8.77943,0.6166 -8.77943,0.6166l-14.18421,0.59647z" fill="#ffffff" stroke="none" stroke-width="0"/><path d="M159.70897,167.26308l-37.61462,-0.54534c0,0 4.65091,-5.37378 8.07128,-6.30946c3.42037,-0.93568 10.51958,3.48046 10.51958,3.48046c0,0 6.13587,-4.93859 10.25096,-3.81287c4.11508,1.12572 8.77281,7.18721 8.77281,7.18721z" fill="#ffffff" stroke="#000000" stroke-width="1.4"/><path d="M127.21072,188.71828c-3.60377,-2.68444 -4.38653,-7.15593 -5.14318,-10.97473c-0.75665,-3.8188 -0.61113,-10.57237 -0.61113,-10.57237l3.86669,0.13709c0,0 5.51154,14.55494 6.4128,15.34114c2.64869,2.31059 13.86159,2.54795 16.96798,-0.29721c2.14138,-1.9613 7.37183,-14.97372 7.37183,-14.97372l3.74277,-0.09897c0,0 -0.7249,6.71359 -1.57872,10.67651c-0.85382,3.96291 -0.68257,7.81185 -5.47495,10.99647c-2.30973,1.53486 -7.49179,3.43187 -12.64442,3.3665c-5.53839,-0.07026 -11.04275,-2.21006 -12.90966,-3.60071z" fill="#ffffff" stroke="#000000" stroke-width="1.9"/></g><g stroke-linecap="butt"><path d="M109.13805,195.91708c-0.07608,3.55453 -10.54672,16.8914 -18.01,16.73354c-7.46328,-0.15786 -17.4753,-15.08402 -17.39924,-18.63855c0.07608,-3.55453 11.21731,-0.6414 18.68058,-0.48354c7.46328,0.15786 16.80472,-1.16598 16.72865,2.38855z" fill="#000000" stroke="none" stroke-width="0"/><path d="M106.16156,194.52703c0,0 -3.96323,5.39498 -15.06303,5.03409c-9.75915,-0.31731 -13.23875,-5.125 -13.23875,-5.125z" fill="#ffffff" stroke="none" stroke-width="0"/><path d="M105.12672,209.16797c0,0 -3.63972,8.32831 -14.73951,7.96742c-9.75915,-0.3173 -12.07405,-8.25833 -12.07405,-8.25833c0,0 8.67102,1.79501 12.74153,2.10272c4.25883,0.32195 14.07203,-1.81181 14.07203,-1.81181z" fill="#ffffff" stroke="none" stroke-width="0"/><path d="M92.51722,192.91225c0.24811,0.01825 0.61218,-1.12423 2.36011,-1.62581c1.68927,-0.48474 4.09577,-1.05969 5.57174,-0.92781c1.62757,0.42498 10.86933,3.11614 10.86933,3.11614c0,0 -4.57455,1.82353 -8.90292,2.55731c-4.32837,0.73378 -19.19429,0.05976 -22.69502,-0.7139c-3.50073,-0.77365 -8.98224,-4.08814 -8.98224,-4.08814c0,0 7.01755,-0.96521 9.689,-1.60133c2.24645,-0.53492 6.37567,0.71443 9.01828,1.37619c2.83152,0.70908 2.82498,1.88918 3.0717,1.90733z" fill="#ffffff" stroke="#000000" stroke-width="1.25"/><path d="M69.77368,191.90678c0,0 3.88657,1.52494 6.51851,2.99199c3.91011,2.17951 4.56481,15.49733 8.89352,17.91494c2.4574,1.37247 9.9889,1.68571 12.23507,0.12913c3.46487,-2.40111 4.63533,-14.98525 8.54749,-16.90662c3.76386,-1.84853 6.57605,-2.07786 6.57605,-2.07786c0,0 -1.14715,4.1065 -2.23579,8.22227c-1.09307,4.13254 -2.1588,10.84339 -6.62649,14.68192c-2.71874,2.33587 -7.66954,5.13582 -12.78716,5.00956c-4.08386,-0.10075 -8.04724,-1.31067 -10.59809,-3.13703c-5.56998,-3.98797 -6.7311,-12.91509 -8.14868,-17.65143c-1.41463,-4.72655 -2.37444,-9.17687 -2.37444,-9.17687z" fill="#ffffff" stroke="#000000" stroke-width="1.9"/></g><g stroke-linecap="butt"><path d="M57.38805,195.16708c-0.07608,3.55453 -10.54672,13.1414 -18.01,12.98354c-7.46328,-0.15786 -17.4753,-11.33402 -17.39924,-14.88855c0.07608,-3.55453 11.21731,-0.6414 18.68058,-0.48354c7.46328,0.15786 16.80472,-1.16598 16.72865,2.38855z" fill="#000000" stroke="none" stroke-width="0"/><path d="M54.41157,193.77703c0,0 -3.96323,5.39498 -15.06303,5.03409c-9.75915,-0.31731 -13.23875,-5.125 -13.23875,-5.125z" fill="#ffffff" stroke="none" stroke-width="0"/><path d="M39.67849,207.02526c4.56531,0.01467 12.39823,-1.9573 12.39823,-1.9573c0,0 -1.83972,6.72831 -12.93951,6.36742c-9.75915,-0.3173 -11.67405,-6.45833 -11.67405,-6.45833c0,0 7.3641,2.03263 12.21534,2.04821z" fill="#ffffff" stroke="none" stroke-width="0"/><path d="M40.7672,192.16225c0.24811,0.01825 0.61218,-1.12423 2.36011,-1.62581c1.68927,-0.48474 4.09577,-1.05969 5.57174,-0.92781c1.62757,0.42498 10.86933,3.11614 10.86933,3.11614c0,0 -4.57455,1.82353 -8.90292,2.55731c-4.32837,0.73378 -19.19429,0.05976 -22.69502,-0.7139c-3.50073,-0.77365 -8.98224,-4.08814 -8.98224,-4.08814c0,0 7.01755,-0.96521 9.689,-1.60133c2.24645,-0.53492 6.37567,0.71443 9.01828,1.37619c2.83152,0.70908 2.82498,1.88918 3.0717,1.90733z" fill="#ffffff" stroke="#000000" stroke-width="1.25"/><path d="M18.02367,191.15678c0,0 3.88657,1.52494 6.51851,2.99199c3.91011,2.17951 6.61481,12.89733 10.94352,15.31494c2.4574,1.37247 8.4389,0.98571 10.68507,-0.57087c3.46487,-2.40111 4.13533,-11.68525 8.04749,-13.60662c3.76386,-1.84853 6.57605,-2.07786 6.57605,-2.07786c0,0 -1.14715,4.1065 -2.23579,8.22227c-1.75824,6.64733 -5.38627,16.52521 -18.91365,16.19148c-13.00127,-0.32076 -17.18,-10.38303 -19.24677,-17.28846c-1.41463,-4.72655 -2.37444,-9.17687 -2.37444,-9.17687z" fill="#ffffff" stroke="#000000" stroke-width="1.9"/></g><g><path d="M349.73027,118.91651v-16.56578h18.82474v16.56578z" fill="#000000" stroke="none" stroke-width="1.25" stroke-linecap="butt"/><path d="M360.33991,115.12606c-3.11898,0 -5.64742,-1.01137 -5.64742,-2.25897c0,-1.24759 2.52844,-2.25897 5.64742,-2.25897c3.11898,0 5.64742,1.01137 5.64742,2.25897c0,1.24759 -2.52845,2.25897 -5.64742,2.25897z" fill="#ffffff" stroke="#000000" stroke-width="1.25" stroke-linecap="butt"/><path d="M352.4665,108.67586c0,0 3.4135,4.87475 7.76203,5.25844c4.34853,0.38369 7.59896,-3.90305 7.59896,-3.90305l9.03588,-0.4518c0,0 -3.57948,11.63698 -16.61278,11.75381c-15.4722,0.13869 -18.17533,-13.10919 -18.17533,-13.10919z" fill="#ffffff" stroke="#000000" stroke-width="1.9" stroke-linecap="round"/><path d="M359.93991,108.61964c-3.11898,0 -5.64742,-1.01137 -5.64742,-2.25896c0,-1.24759 2.52844,-2.25897 5.64742,-2.25897c3.11898,0 5.64742,1.01137 5.64742,2.25897c0,1.24759 -2.52845,2.25896 -5.64742,2.25896z" fill="#ffffff" stroke="#000000" stroke-width="1.25" stroke-linecap="butt"/><path d="M342.52704,107.59469c0,0 6.51986,-4.41158 11.74664,-6.78533c4.89723,-2.22408 5.87332,1.13089 5.87332,1.13089c0,0 1.35681,-2.67792 3.61435,-1.88481c2.25753,0.79311 11.74664,8.67014 11.74664,8.67014c0,0 -5.30285,0.56365 -8.58408,0c-3.28123,-0.56365 -6.7769,-2.63874 -6.7769,-2.63874c0,0 -3.94326,2.01928 -6.7769,2.26177c-2.83364,0.24249 -10.84304,-0.75393 -10.84304,-0.75393z" fill="#ffffff" stroke="#000000" stroke-width="1.25" stroke-linecap="round"/></g><g stroke-linecap="butt"><path d="M300.26559,208.59492c0,2.58979 -6.47404,8.56422 -10.91367,8.56422c-4.43964,0 -8.03867,-2.09943 -8.03867,-4.68922c0,-2.58979 3.59903,-4.68922 8.03867,-4.68922c4.43964,0 10.91367,-1.77557 10.91367,0.81422z" fill="#000000" stroke="none" stroke-width="0"/><path d="M282.03969,207.6849c0.24666,0.0234 0.6086,-1.44147 2.34631,-2.08459c1.67939,-0.62153 4.26323,-1.19031 5.73058,-1.02122c1.61805,0.54491 13.29122,1.97932 13.29122,1.97932c0,0 -10.80924,4.01929 -14.02295,4.42073c-2.69313,0.33641 -7.62499,1.1275 -7.62499,1.1275l-19.46059,-2.49704c0,0 2.61459,-1.32023 5.03611,-2.68798c1.8116,-1.02326 3.51514,-2.18319 3.935,-2.23754c2.33124,-0.30176 5.0884,-0.29325 7.71556,0.55526c2.81497,0.90917 2.80847,2.42228 3.05375,2.44555z" fill="#ffffff" stroke="#000000" stroke-width="1.25"/><path d="M262.21296,209.77848c0,0 8.38779,1.07758 15.08052,1.64437c3.59634,0.30456 6.01905,0.39609 7.51599,0.669c4.15804,0.75804 6.21907,2.82998 8.82232,2.3651c2.85956,-0.51066 2.4888,-3.5808 4.67081,-4.97671c1.84667,-1.18138 4.96695,-2.75896 4.96695,-2.75896c0,0 -2.5608,14.27107 -13.89676,14.15395c-5.27248,-0.05447 -12.56193,-1.31923 -16.59976,-2.97679c-8.00827,-3.28744 -10.56007,-8.11996 -10.56007,-8.11996z" fill="#ffffff" stroke="#000000" stroke-width="1.9"/></g><g><path d="M26.16489,144.21335v-14.74541h14.36045v14.74541z" fill="#000000" stroke="none" stroke-width="1.25" stroke-linecap="butt"/><path d="M29.73704,135.09799c0,0 0.71231,3.50831 4.02959,3.84984c3.31728,0.34152 4.42193,-3.53349 4.42193,-3.53349l8.67481,0.48795c0,0 -2.12032,11.96043 -12.06277,12.06442c-11.80296,0.12345 -14.47533,-13.27086 -14.47533,-13.27086z" fill="#ffffff" stroke="#000000" stroke-width="1.9" stroke-linecap="round"/><path d="M20.6699,133.89155c0,0 1.81849,-1.99762 3.64199,-3.55376c1.71814,-1.46624 3.05129,-2.45638 4.98561,-3.68489c2.40252,-1.706 4.31379,2.20645 4.31379,2.20645c0,0 2.20171,-3.69016 3.92387,-2.84407c0.96398,0.4736 4.06806,2.72666 6.32088,5.20571c1.77188,1.94982 2.22337,4.12701 2.22337,4.12701c0,0 -4.29528,0.3513 -6.79836,-0.25c-2.50309,-0.6013 -5.16976,-2.81504 -5.16976,-2.81504c0,0 -3.00812,2.15419 -5.16976,2.41289c-2.16164,0.25869 -8.27161,-0.8043 -8.27161,-0.8043z" fill="#ffffff" stroke="#000000" stroke-width="1.25" stroke-linecap="round"/></g><g><path d="M301.93454,173.62825c0,5.40059 -7.60836,7.61232 -17.31372,7.61232c-9.70537,0 -17.83252,-2.21174 -17.83252,-7.61232c0,-2.20296 0.40793,-5.281 2.61688,-6.91592c3.20635,-2.37312 9.20977,-2.86269 14.95623,-2.86269c9.70537,0 17.57312,4.37804 17.57312,9.77862z" fill="#000000" stroke="none" stroke-width="1.25" stroke-linecap="butt"/><path d="M293.99282,168.36239c0,1.1257 -4.16082,2.03823 -9.29347,2.03823c-5.13266,0 -9.63142,-1.38291 -9.63142,-2.5086c0,-1.1257 4.49877,-1.56788 9.63142,-1.56788c5.13266,0 9.29348,0.91254 9.29348,2.03824z" fill="#ffffff" stroke="#ffffff" stroke-width="1.25" stroke-linecap="butt"/><path d="M292.12728,174.58641c0,1.1257 -2.80904,3.13576 -7.9417,3.13576c-5.13266,0 -7.94171,-2.6372 -7.94171,-3.7629c0,-1.1257 3.147,1.09751 8.27964,1.09751c5.13266,0 7.60375,-1.59605 7.60375,-0.47037z" fill="#ffffff" stroke="#ffffff" stroke-width="1.25" stroke-linecap="butt"/><path d="M268.39583,164.92725c2.63191,-1.2758 5.08862,-2.16832 8.04919,-2.46331c4.83699,-0.48196 7.73615,2.6172 7.73615,2.6172c0,0 4.81493,-2.59876 7.21534,-2.17737c0.9826,0.17249 3.26734,1.1236 5.25015,1.97528c2.86097,1.22887 5.94152,3.1695 5.94152,3.1695c0,0 -2.61975,1.34485 -17.82492,0.50564c-16.50811,-0.91112 -19.86102,-2.13189 -19.86102,-2.13189c0,0 1.82545,-0.68645 3.4936,-1.49506z" fill="#ffffff" stroke="#000000" stroke-width="1.25" stroke-linecap="round"/><path d="M263.64538,167.1108c0,0 6.23442,0.68701 7.50247,3.39396c1.57891,3.37056 3.43222,3.36408 5.52192,4.65127c1.79526,1.10584 7.79011,1.59801 8.32277,1.57889c2.40288,-0.08625 5.32106,-0.01459 6.68937,-0.86449c1.67469,-1.04021 2.84864,-1.3893 4.53044,-4.52514c1.35522,-2.5269 3.93106,-2.2276 3.93106,-2.2276l2.97391,-0.25087c0,0 -0.76788,8.49893 -9.74376,14.89218c-3.19378,1.98762 -5.55649,1.26109 -8.88139,1.25715c-4.70853,0.08193 -7.43408,0.21473 -10.78699,-1.50802c-6.33785,-3.25644 -10.05979,-16.39734 -10.05979,-16.39734z" fill="#ffffff" stroke="#000000" stroke-width="1.9" stroke-linecap="round"/><path d="M284.12997,173.99218c-3.87277,0.20929 -4.14193,-2.43577 -4.14193,-2.43577h8.28383c0,0 -0.38602,2.23279 -4.14193,2.43577z" fill="#ffffff" stroke="none" stroke-width="1.25" stroke-linecap="butt"/><path d="M284.07367,172.82009v-1.26367" fill="none" stroke="#000000" stroke-width="1.25" stroke-linecap="round"/></g><g stroke="#000000"><path d="M99.58341,107.40036c0,2.8995 -6.7717,5.25 -15.125,5.25c-8.3533,0 -15.125,-2.3505 -15.125,-5.25c0,-2.8995 6.7717,-5.25 15.125,-5.25c8.3533,0 15.125,2.3505 15.125,5.25z" fill="#ffffff" stroke-width="1.4" stroke-linecap="butt"/><g><path d="M106.57454,105.89444c-0.01403,0.12047 -0.76747,0.70394 -5.82875,0.61964c-2.24534,-0.0374 -11.40569,-4.1794 -14.48394,-3.9352c-3.31795,0.26322 -15.64435,2.19941 -16.20272,2.08323c-4.94371,-1.02869 -7.52429,-1.53608 -7.53495,-1.62961c-0.01439,-0.12613 8.79861,-6.49761 15.28765,-6.45005c6.48904,0.04756 7.91995,3.84481 8.16759,3.86831c0,0 3.94733,-3.33005 7.42397,-2.88611c3.47663,0.44394 13.19064,8.16223 13.17114,8.32979z" fill="#ffffff" stroke-width="1.4" stroke-linecap="butt"/><path d="M86.25422,109.10379c6.31471,0.29111 12.31429,-2.1208 13.44369,-2.2392c2.05992,-0.21596 6.591,-1.20654 6.63526,-0.83377c0.04328,0.36447 -9.03119,13.77533 -21.14808,13.32214c-13.76954,-0.43578 -22.86459,-16.01059 -22.82675,-16.17972c0.03784,-0.16913 3.0091,1.31665 8.10024,2.3434c0,0 9.48093,3.29604 15.79564,3.58715z" fill="#ffffff" stroke-width="1.9" stroke-linecap="butt"/><path d="M73.49586,104.96427l24.24457,0.67975" fill="none" stroke-width="0.5" stroke-linecap="round"/></g></g><g><path d="M404.57409,78.63396c0,3.4978 -5.8203,6.33333 -13,6.33333c-7.1797,0 -13,-2.83553 -13,-6.33333c0,-2.33763 1.06404,-5.35508 5.12921,-5.66229c2.01754,-0.15246 6.15606,1.99562 8.53745,1.99562c7.1797,0 12.33334,0.16886 12.33334,3.66667z" fill="#ffffff" stroke="none" stroke-width="0" stroke-linecap="butt"/><path d="M415.52719,77.50829c-0.02476,0.16544 -11.83471,0.39254 -11.83471,0.39254c0,0 -10.94724,-2.63143 -16.30163,-3.16233c-4.36399,-0.4327 -7.41427,1.2129 -8.31102,1.22727c-4.11169,0.06589 -8.16725,-1.34936 -8.17442,-1.39835c-0.01439,-0.09813 8.89702,-4.4278 13.02579,-4.79969c4.12877,-0.37191 10.93895,2.7849 11.18659,2.80319c0,0 4.17448,-0.22039 7.3581,0.09588c3.18361,0.31627 13.0689,4.7238 13.0513,4.84151z" fill="#ffffff" stroke="#000000" stroke-width="1.4" stroke-linecap="butt"/><path d="M404.02557,77.86646c2.05992,-0.21596 11.216,-0.70654 11.26026,-0.33377c0.02934,0.24711 -3.56245,6.27632 -10.17024,9.47706c-3.13819,1.52011 -7.57621,3.03268 -11.47784,2.88676c-3.17536,-0.1005 -7.27553,-2.13864 -9.85812,-3.29401c-8.61649,-3.85475 -12.49775,-11.79724 -12.46863,-11.92737c0.01493,-0.06673 3.48636,-0.25707 7.17832,1.10323c1.07788,0.39714 5.49701,2.66092 10.57471,3.08351c6.30494,0.52473 13.4898,-0.84112 14.96155,-0.99541z" fill="#ffffff" stroke="#000000" stroke-width="1.9" stroke-linecap="butt"/><path d="M398.14599,78.01643c0,0 -8.26545,-0.81455 -11.58404,-1.2553c-2.599,-0.34518 -6.70167,-1.17327 -6.70167,-1.17327" fill="none" stroke="#000000" stroke-width="0.5" stroke-linecap="round"/></g><g><path d="M453.57409,80.63397c0,3.4978 -5.8203,6.33333 -13,6.33333c-7.1797,0 -13,-2.83553 -13,-6.33333c0,-2.33763 1.06404,-5.35508 5.12921,-5.66229c2.01754,-0.15246 6.15606,1.99562 8.53745,1.99562c7.1797,0 12.33334,0.16886 12.33334,3.66667z" fill="#ffffff" stroke="none" stroke-width="0" stroke-linecap="butt"/><path d="M464.52719,79.5083c-0.02476,0.16544 -11.83471,0.39254 -11.83471,0.39254c0,0 -11.44724,-4.13143 -16.80163,-4.66233c-4.36399,-0.4327 -6.91427,2.7129 -7.81102,2.72727c-4.11169,0.06589 -8.16725,-1.34936 -8.17442,-1.39835c-0.01439,-0.09813 8.89702,-5.9278 13.02579,-6.29969c4.12877,-0.37191 10.93895,4.2849 11.18659,4.30319c0,0 4.17448,-0.22039 7.3581,0.09588c3.18361,0.31627 13.0689,4.7238 13.0513,4.84151z" fill="#ffffff" stroke="#000000" stroke-width="1.4" stroke-linecap="butt"/><path d="M453.02557,79.86647c2.05992,-0.21596 11.216,-0.70654 11.26026,-0.33377c0.02934,0.24711 -3.56245,6.27632 -10.17024,9.47706c-3.13819,1.52011 -7.57621,1.78268 -11.47784,1.63676c-3.17536,-0.1005 -7.27553,-0.88864 -9.85812,-2.04401c-8.61649,-3.85475 -12.49775,-11.79724 -12.46863,-11.92737c0.01493,-0.06673 3.48636,-0.25707 7.17832,1.10323c1.07788,0.39714 5.49701,2.66092 10.57471,3.08351c6.30494,0.52473 13.4898,-0.84112 14.96155,-0.99541z" fill="#ffffff" stroke="#000000" stroke-width="1.9" stroke-linecap="butt"/><path d="M428.86028,77.58787c0,0 4.10267,-0.42191 6.70168,-0.07673c3.3186,0.44075 11.58403,2.5053 11.58403,2.5053" fill="none" stroke="#000000" stroke-width="0.5" stroke-linecap="round"/></g><g><path d="M181.02032,76.30165c0,4.01748 -5.83501,7.27427 -13.03287,7.27427c-7.19786,0 -13.03287,-3.2568 -13.03287,-7.27427c0,-4.01748 5.69216,-4.84571 12.89002,-4.84571c7.19786,0 13.17573,0.82824 13.17573,4.84571z" fill="#ffffff" stroke="none" stroke-width="NaN" stroke-linecap="butt"/><path d="M172.62589,71.3933c0.24666,0.02641 0.6086,-1.62699 2.34631,-2.35288c1.67939,-0.70152 4.07183,-0.47938 5.53918,-0.28853c1.61805,0.61504 10.03261,5.09465 10.03261,5.09465c0,0 -6.35924,-0.0911 -9.57295,0.362c-2.69313,0.37971 -11.45809,1.53567 -14.65457,0.74426c-1.49167,-0.36932 -7.03796,-1.69935 -9.04236,-1.87448c-2.6745,-0.23368 -6.60846,-1.87291 -6.60846,-1.87291c0,0 8.93523,-3.45444 9.89091,-3.60241c4.65641,-0.72094 11.82403,3.76402 12.06931,3.79028z" fill="#ffffff" stroke="#000000" stroke-width="1.25" stroke-linecap="butt"/><path d="M184.68069,75.51679c0,0 -4.84153,1.66172 -11.79029,1.29699c-2.29005,-0.1202 -5.96778,-0.1002 -9.42058,-0.72327c-4.59363,-0.82893 -8.78913,-2.33408 -8.78913,-2.33408" fill="none" stroke="#000000" stroke-width="0.5" stroke-linecap="round"/><path d="M151.2024,71.79612c0,0 2.63751,0.0298 5.05334,1.46116c2.12793,1.26078 3.34938,4.36601 6.53042,4.78612c3.18105,0.4201 16.33874,-2.56583 18.97047,-2.87724c2.04031,-0.24143 9.09913,-0.5971 9.09913,-0.5971c0,0 -11.07373,14.62992 -20.89566,14.09453c-15.64589,-0.85285 -18.7577,-16.86747 -18.7577,-16.86747z" fill="#ffffff" stroke="#000000" stroke-width="1.9" stroke-linecap="butt"/></g><g><path d="M391.70339,120.24984v-16.56578h16.29949v16.56578z" fill="#000000" stroke="none" stroke-width="1.25" stroke-linecap="butt"/><path d="M400.54345,117.85939c-2.70058,0 -4.88984,-1.01137 -4.88984,-2.25897c0,-1.24759 2.18926,-2.25897 4.88984,-2.25897c2.70058,0 4.88984,1.01137 4.88984,2.25897c0,1.24759 -2.18927,2.25897 -4.88984,2.25897z" fill="#ffffff" stroke="#000000" stroke-width="1.25" stroke-linecap="butt"/><path d="M394.07256,110.00919c0,0 2.49381,5.94142 6.259,6.32511c3.76519,0.38369 7.04138,-4.96972 7.04138,-4.96972l7.82376,-0.4518c0,0 -2.40663,13.43698 -13.69157,13.55381c-13.39667,0.13869 -16.42988,-14.90919 -16.42988,-14.90919z" fill="#ffffff" stroke="#000000" stroke-width="1.9" stroke-linecap="round"/><path d="M400.54345,110.5363c-2.70058,0 -4.88984,-1.5947 -4.88984,-2.84229c0,-1.24759 2.18926,-2.25897 4.88984,-2.25897c2.70058,0 6.62155,1.01137 6.62155,2.25897c0,1.24759 -3.92098,2.84229 -6.62155,2.84229z" fill="#ffffff" stroke="#000000" stroke-width="1.25" stroke-linecap="butt"/><path d="M385.46644,108.6538c0,0 5.64525,-5.28733 10.17088,-8.13229c4.24029,-2.66558 5.08544,1.35538 5.08544,1.35538c0,0 1.1748,-3.20952 3.1295,-2.25897c1.95469,0.95055 10.17088,10.39126 10.17088,10.39126c0,0 -4.5915,0.67554 -7.43256,0c-2.84107,-0.67554 -5.86781,-3.16256 -5.86781,-3.16256c0,0 -3.41429,2.42013 -5.86781,2.71076c-2.45352,0.29063 -9.3885,-0.90359 -9.3885,-0.90359z" fill="#ffffff" stroke="#000000" stroke-width="1.25" stroke-linecap="round"/></g><g><path d="M60.63983,145.21335v-14.74541h13.68404v14.74541z" fill="#000000" stroke="none" stroke-width="1.25" stroke-linecap="butt"/><path d="M72.28587,140.10884c0,1.51878 -1.90279,2.75 -4.25,2.75c-2.34721,0 -4.25,-1.23122 -4.25,-2.75c0,-1.51878 1.90279,-2.75 4.25,-2.75c2.34721,0 4.25,1.23122 4.25,2.75z" fill="#ffffff" stroke="none" stroke-width="NaN" stroke-linecap="butt"/><path d="M72.53587,133.60884c0,1.51879 -1.90279,2.75 -4.25,2.75c-2.34721,0 -4.25,-1.23121 -4.25,-2.75c0,-1.51879 1.90279,-2.75 4.25,-2.75c2.34721,0 4.25,1.23121 4.25,2.75z" fill="#ffffff" stroke="none" stroke-width="NaN" stroke-linecap="butt"/><path d="M64.04372,136.09799c0,0 0.67876,3.50831 3.83979,3.84984c3.16103,0.34152 4.21365,-3.53349 4.21365,-3.53349l8.26621,0.48795c0,0 -3.02045,10.21043 -12.49459,10.31442c-11.24702,0.12345 -12.79351,-11.52086 -12.79351,-11.52086z" fill="#ffffff" stroke="#000000" stroke-width="1.9" stroke-linecap="round"/><path d="M55.40368,134.89155c0,0 1.73284,-1.99762 3.47044,-3.55376c1.63721,-1.46624 2.90757,-2.45638 4.75078,-3.68489c2.28936,-1.706 4.1106,2.20645 4.1106,2.20645c0,0 2.098,-3.69016 3.73905,-2.84407c0.91857,0.4736 3.87645,2.72666 6.02315,5.20571c1.68842,1.94982 2.11864,4.12701 2.11864,4.12701c0,0 -4.09296,0.3513 -6.47814,-0.25c-2.38519,-0.6013 -4.92625,-2.81504 -4.92625,-2.81504c0,0 -2.86643,2.15419 -4.92625,2.41289c-2.05982,0.25869 -7.882,-0.8043 -7.882,-0.8043z" fill="#ffffff" stroke="#000000" stroke-width="1.25" stroke-linecap="round"/></g><g stroke-linecap="butt"><path d="M190.33178,104.04147c0,3.31371 -7.59644,9.33333 -14.5,9.33333c-6.90356,0 -13.83333,-6.85296 -13.83333,-10.16667c0,-3.31371 7.09644,-1.66667 14,-1.66667c6.90356,0 14.33333,-0.81371 14.33333,2.5z" fill="#000000" stroke="none" stroke-width="0"/><path d="M174.74685,113.38874c-9.19746,-0.18114 -14.55389,-12.05889 -14.55389,-12.05889l4.96122,-1.7731c0,0 2.35919,10.67198 11.20916,10.62618c10.47488,-0.05421 8.54675,-8.64993 8.54675,-8.64993l8.45361,2.96431c0,0 -2.42286,9.21038 -18.61684,8.89143z" fill="#ffffff" stroke="none" stroke-width="0"/><path d="M177.55358,100.74323c0.24666,0.0234 0.6086,-1.44147 2.34631,-2.08459c1.67939,-0.62153 4.07183,-0.42472 5.53918,-0.25563c1.61805,0.54491 10.03261,4.51373 10.03261,4.51373c0,0 -7.35924,0.71929 -10.57295,1.12073c-2.69313,0.33641 -7.62499,1.1275 -7.62499,1.1275l-20.10897,-4.41101c0,0 1.85053,-0.41485 4.59385,-1.34455c3.16904,-1.07398 4.04458,-1.54001 5.02564,-1.667c2.33124,-0.30176 5.0884,-0.29325 7.71556,0.55526c2.81497,0.90917 2.80847,2.42228 3.05375,2.44555z" fill="#ffffff" stroke="#000000" stroke-width="1.4"/><path d="M176.35449,120.42625c-16.123,-0.06035 -20.42436,-19.50333 -20.42436,-19.50333c0,0 4.26333,0.42773 6.08376,1.09985c3.79964,1.40285 4.03151,10.24639 14.28542,10.71689c9.77022,0.44831 8.85938,-7.96578 14.18505,-9.16431c3.02688,-0.68119 5.09913,-0.19568 5.09913,-0.19568c0,0 -1.9434,17.1113 -19.22899,17.04659z" fill="#ffffff" stroke="#000000" stroke-width="1.9"/></g><g fill="#ffffff" stroke="#000000" stroke-linecap="butt"><path d="M244.23407,135.04522c0.24666,0.02241 0.6086,0.28574 2.34631,-0.33037c1.67939,-0.59543 4.7385,-0.07355 6.20585,0.08844c1.61805,0.52203 9.96594,3.72415 9.96594,3.72415c0,0 -7.95924,-0.71092 -11.17295,-0.32634c-2.69313,0.32228 -7.62499,1.73281 -7.62499,1.73281l-21.10897,-3.47842c0,0 10.13843,-3.24675 11.11949,-3.3684c2.33124,-0.28909 4.5884,0.46907 7.21556,1.28194c2.81497,0.87098 2.80847,0.65387 3.05375,0.67617z" stroke-width="1.25"/><path d="M222.2106,136.4252c0,0 7.40776,-0.06157 10.78376,0.73318c3.48786,0.82108 6.46932,2.33304 10.81875,2.51689c4.34943,0.18384 6.71999,-1.38841 9.35172,-1.66431c2.04031,-0.2139 9.69913,0.87099 9.69913,0.87099c0,0 0.03353,5.79593 -7.05479,11.00102c-2.69148,1.9764 -7.81258,2.28981 -12.58621,2.2046c-4.77363,-0.08521 -10.22244,-1.88062 -13.10467,-3.64237c-5.5651,-3.40164 -7.90769,-12.02 -7.90769,-12.02z" stroke-width="1.9"/></g><g><path d="M124.73309,290.41335v-14.74541h16.74141v14.74541z" fill="#000000" stroke="none" stroke-width="1.25" stroke-linecap="butt"/><path d="M139.36703,287.73672c0,1.60163 -2.32812,2.9 -5.2,2.9c-2.87188,0 -5.2,-1.29837 -5.2,-2.9c0,-1.60163 2.32812,-2.9 5.2,-2.9c2.87188,0 5.2,1.29837 5.2,2.9z" fill="#ffffff" stroke="none" stroke-width="0" stroke-linecap="butt"/><path d="M128.8975,281.29799c0,0 0.63041,6.10831 4.49769,6.44984c6.06729,0.34152 5.35508,-6.13349 5.35508,-6.13349l10.11309,0.48795c0,0 -3.07187,13.16043 -14.66277,13.26442c-13.75988,0.12345 -16.27533,-14.47086 -16.27533,-14.47086z" fill="#ffffff" stroke="#000000" stroke-width="1.9" stroke-linecap="round"/><path d="M118.32705,280.09155c0,0 2.12,-1.99762 4.24583,-3.55376c2.003,-1.46624 3.55719,-2.45638 5.81222,-3.68489c2.80086,-1.706 5.02902,2.20645 5.02902,2.20645c0,0 2.56675,-3.69016 4.57444,-2.84407c1.12381,0.4736 4.74254,2.72666 7.36888,5.20571c2.06565,1.94982 2.592,4.12701 2.592,4.12701c0,0 -5.00743,0.3513 -7.92552,-0.25c-2.9181,-0.6013 -6.0269,-2.81504 -6.0269,-2.81504c0,0 -3.50687,2.15419 -6.02691,2.41289c-2.52004,0.25869 -9.64303,-0.8043 -9.64303,-0.8043z" fill="#ffffff" stroke="#000000" stroke-width="1.25" stroke-linecap="round"/></g><g stroke-linecap="butt"><path d="M375.31824,248.71754c-0.08368,3.61231 -11.60306,12.47334 -19.81383,12.31291c-8.21079,-0.16043 -19.22557,-10.63658 -19.14189,-14.24889c0.08369,-3.61231 12.34082,-1.5335 20.55158,-1.37307c8.21079,0.16043 18.48783,-0.30326 18.40414,3.30905z" fill="#000000" stroke="none" stroke-width="0"/><path d="M366.84962,246.35653c0,0 3.8428,3.75768 -10.3747,3.39092c-15.41723,0.24003 -13.63935,-4.28331 -13.63935,-4.28331z" fill="#ffffff" stroke="none" stroke-width="0"/><path d="M369.49628,253.10699c0,0 -2.2297,11.82493 -14.44124,11.45819c-10.73663,-0.32246 -12.63758,-11.55057 -12.63758,-11.55057c0,0 10.07658,2.79755 13.68256,2.80387c3.21746,0.00563 13.39626,-2.71149 13.39626,-2.71149z" fill="#ffffff" stroke="none" stroke-width="0"/><path d="M373.82403,247.27645c0,0 -5.42078,1.76153 -8.66823,1.49713c-4.59627,-0.37422 -1.1393,-1.05034 -8.549,-1.20417c-6.37849,-0.13243 -4.37412,1.43203 -9.52197,1.41669c-5.14785,-0.01534 -8.79495,-2.78073 -8.79495,-2.78073c0,0 9.1884,-5.89968 10.82237,-5.46883c4.733,1.248 7.3549,2.51493 7.62632,2.53337c0,0 4.38278,-1.68025 7.52724,-1.96579c3.07401,-0.27914 9.55822,5.97233 9.55822,5.97233z" fill="#ffffff" stroke="#000000" stroke-width="1.25"/><path d="M361.86028,258.20072c2.39313,-1.53194 3.06991,-3.43814 5.02352,-6.10608c3.34643,-4.57005 7.09096,-3.33236 7.09096,-3.33236c0,0 -1.91808,8.58513 -5.24683,13.14406c-4.08074,5.58882 -6.92275,3.78586 -12.24986,3.88811c-6.0516,0.11616 -9.11806,1.15743 -12.98401,-3.02619c-3.86595,-4.18363 -6.21766,-15.39499 -6.21766,-15.39499c0,0 6.18325,0.14885 8.87535,4.7561c2.6921,4.60725 2.44723,4.84433 5.32174,6.32731c0,0 7.91563,1.32593 10.38679,-0.25596z" fill="#ffffff" stroke="#000000" stroke-width="1.9"/></g><g stroke-linecap="butt"><path d="M461.58027,253.89001c0,5.40233 -7.7007,9.78179 -17.2,9.78179c-9.4993,0 -17.2,-4.37946 -17.2,-9.78179c0,-2.75883 0.00824,-7.90014 3.2387,-9.67843c3.09543,-1.70397 9.91303,1.89664 14.5613,1.89664c6.11824,0 14.29036,-5.68553 17.33945,-2.94889c1.68499,1.51232 -0.73945,8.80784 -0.73945,10.73068z" fill="#000000" stroke="none" stroke-width="0"/><path d="M462.58027,245.2718c0,1.98823 -7.54548,6.4 -17.1,6.4c-9.55453,0 -16.9,-4.41177 -16.9,-6.4c0,-1.98822 8.54547,1.4 18.1,1.4c9.55453,0 15.9,-3.38822 15.9,-1.4z" fill="#ffffff" stroke="none" stroke-width="0"/><path d="M466.78027,244.4718c0,1.11473 -9.71516,4.04757 -19.60002,4.04289c-10.68404,-0.00505 -23.39998,-3.63804 -23.39998,-4.84289c0,-1.61639 6.33085,-3.66564 13.39408,-3.42568c3.07286,0.1044 9.50592,4.42568 9.50592,4.42568c0,0 5.09976,-4.03695 7.70139,-4.04716c7.15503,-0.02807 12.39861,2.14608 12.39861,3.84716z" fill="#ffffff" stroke="#000000" stroke-width="1.4"/><path d="M457.78027,260.9718c0,2.70619 -5.90984,4.9 -13.2,4.9c-7.29016,0 -13.2,-2.1938 -13.2,-4.9c0,-1.59594 -2.92728,-3.2312 0.5969,-3.15561c2.45168,0.05259 11.01221,3.05561 14.0031,3.05561c4.16427,0 10.0866,-2.99357 12.1701,-2.82669c1.56398,0.12527 -0.3701,1.76632 -0.3701,2.92669z" fill="#ffffff" stroke="none" stroke-width="0"/><path d="M457.6534,269.3046c-4.38615,4.53209 -20.84962,3.73717 -25.9381,-1.46428c-6.38687,-6.52867 -7.33503,-23.16853 -7.33503,-23.16853c0,0 -0.36056,0.69028 2.56095,1.26731c2.61779,0.51704 1.81713,16.78651 18.95174,17.27812c15.32757,0.43977 15.50668,-16.25952 17.39255,-16.48777c3.93849,-0.47668 3.49475,-0.57719 3.49475,-0.57719c0,0 -2.6767,16.51046 -9.12686,23.15234z" fill="#ffffff" stroke="#000000" stroke-width="1.9"/></g><g stroke-linecap="butt"><path d="M56.58027,281.89001c0,5.40233 -7.7007,9.78179 -17.2,9.78179c-9.4993,0 -17.2,-4.37946 -17.2,-9.78179c0,-2.75883 0.00824,-7.90013 3.2387,-9.67843c3.09543,-1.70397 11.31304,2.29664 15.9613,2.29664c6.11824,0 11.09036,-4.88553 14.13945,-2.14889c1.68499,1.51233 1.06055,7.60784 1.06055,9.53068z" fill="#000000" stroke="none" stroke-width="0"/><path d="M57.58027,273.2718c0,1.98823 -7.54548,6.4 -17.1,6.4c-9.55453,0 -16.9,-4.41177 -16.9,-6.4c0,-1.98822 8.14547,0 17.7,0c9.55453,0 16.3,-1.98822 16.3,0z" fill="#ffffff" stroke="none" stroke-width="0"/><path d="M61.78027,272.4718c0,1.11473 -9.71516,4.04757 -19.60002,4.04289c-10.68404,-0.00505 -23.39998,-3.63804 -23.39998,-4.84289c0,-1.61639 6.33085,-2.3323 13.39408,-2.09234c3.07286,0.10439 9.50592,3.09234 9.50592,3.09234c0,0 5.76643,-3.37028 8.36805,-3.38049c7.15503,-0.02808 11.73195,1.47941 11.73195,3.18049z" fill="#ffffff" stroke="#000000" stroke-width="1.4"/><path d="M52.78027,288.9718c0,2.70619 -5.90984,4.9 -13.2,4.9c-7.29016,0 -13.2,-2.1938 -13.2,-4.9c0,-1.59594 -4.32728,-5.6312 -0.8031,-5.55561c2.45168,0.05259 11.74554,0.85561 14.73643,0.85561c4.16427,0 11.95327,-0.59357 14.03677,-0.4267c1.56398,0.12527 -1.5701,3.96633 -1.5701,5.1267z" fill="#ffffff" stroke="none" stroke-width="0"/><path d="M61.78027,274.15228c0,0 -2.67671,11.71046 -9.12687,18.35234c-4.38615,4.5321 -20.84962,5.13718 -25.9381,-0.06428c-6.38687,-6.52867 -7.33503,-19.76854 -7.33503,-19.76854c0,0 -0.36057,0.69029 2.56095,1.26731c2.61779,0.51704 1.41714,12.78651 18.55175,13.27812c15.32756,0.43977 15.90668,-12.25952 17.79255,-12.48777c3.93849,-0.47668 3.49475,-0.57719 3.49475,-0.57719z" fill="#ffffff" stroke="#000000" stroke-width="1.9"/></g><g stroke-linecap="butt"><path d="M107.58026,284.89001c0,5.40233 -7.7007,9.78179 -17.2,9.78179c-9.4993,0 -17.2,-4.37946 -17.2,-9.78179c0,-2.75883 0.00824,-7.90013 3.2387,-9.67843c3.09543,-1.70397 11.11304,2.69664 15.7613,2.69664c6.11824,0 13.09036,-6.48553 16.13945,-3.74889c1.68499,1.51233 -0.73945,8.80784 -0.73945,10.73068z" fill="#000000" stroke="none" stroke-width="0"/><path d="M108.58026,276.2718c0,1.98823 -7.54548,6.4 -17.1,6.4c-9.55453,0 -16.9,-4.41177 -16.9,-6.4c0,-1.98822 8.34547,0.6 17.9,0.6c9.55453,0 16.1,-2.58822 16.1,-0.6z" fill="#ffffff" stroke="none" stroke-width="0"/><path d="M112.78027,275.4718c0,1.11473 -9.71516,4.04757 -19.60002,4.04289c-10.68404,-0.00505 -23.39998,-3.63804 -23.39998,-4.84289c0,-1.61639 6.33085,-2.3323 13.39408,-2.09234c3.07286,0.10439 9.50592,3.09234 9.50592,3.09234c0,0 5.76643,-3.37028 8.36805,-3.38049c7.15503,-0.02808 11.73195,1.47941 11.73195,3.18049z" fill="#ffffff" stroke="#000000" stroke-width="1.4"/><path d="M102.03026,290.2218c0,2.70619 -2.90984,3.65 -10.2,3.65c-7.29016,0 -13.7,-1.4438 -13.7,-4.15c0,-1.59594 -5.74395,-5.3812 -2.21977,-5.30561c2.45168,0.05259 12.41221,0.18894 15.4031,0.18894c4.16427,0 11.95327,0.73976 14.03677,0.90663c1.56398,0.12527 -3.3201,3.54967 -3.3201,4.71004z" fill="#ffffff" stroke="none" stroke-width="0"/><path d="M103.6534,292.50462c-4.38615,4.5321 -20.84962,4.47051 -25.9381,-0.73095c-6.38687,-6.52867 -7.33503,-16.10188 -7.33503,-16.10188c0,0 -0.36057,0.69029 2.56095,1.26731c2.61779,0.51704 1.75047,10.45317 18.88509,10.94478c15.32756,0.43977 15.57335,-9.92618 17.45922,-10.15443c3.93849,-0.47668 3.49475,-0.57719 3.49475,-0.57719c0,0 -2.67672,8.71048 -9.12688,15.35236z" fill="#ffffff" stroke="#000000" stroke-width="1.9"/></g><g stroke-linecap="butt"><path d="M334.31824,247.71754c-0.08368,3.61231 -11.60306,12.47334 -19.81383,12.31291c-8.21079,-0.16043 -19.22557,-10.63658 -19.14189,-14.24889c0.08369,-3.61231 12.34082,-1.5335 20.55158,-1.37307c8.21079,0.16043 18.48783,-0.30326 18.40414,3.30905z" fill="#000000" stroke="none" stroke-width="0"/><path d="M325.94962,245.25653c0,0 3.7428,3.85768 -10.4747,3.49092c-15.41723,0.24003 -13.23935,-4.68331 -13.23935,-4.68331z" fill="#ffffff" stroke="none" stroke-width="0"/><path d="M328.49628,252.10699c0,0 -1.80113,6.96779 -14.01267,6.60105c-10.73663,-0.32246 -13.06615,-6.69343 -13.06615,-6.69343c0,0 10.07658,0.36898 13.68256,0.3753c3.21746,0.00563 13.39626,-0.28292 13.39626,-0.28292z" fill="#ffffff" stroke="none" stroke-width="0"/><path d="M332.82403,246.27645c0,0 -5.42078,1.76153 -8.66823,1.49713c-4.59627,-0.37422 -1.1393,-1.05034 -8.549,-1.20417c-6.37849,-0.13243 -4.37412,1.43203 -9.52197,1.41669c-5.14785,-0.01534 -8.79495,-2.78073 -8.79495,-2.78073c0,0 9.1884,-5.89968 10.82237,-5.46883c4.733,1.248 7.3549,2.51493 7.62632,2.53337c0,0 4.38278,-1.68025 7.52724,-1.96579c3.07401,-0.27914 9.55822,5.97233 9.55822,5.97233z" fill="#ffffff" stroke="#000000" stroke-width="1.25"/><path d="M325.8838,251.09464c3.34643,-4.57005 7.09096,-3.33236 7.09096,-3.33236c0,0 -1.91808,6.87084 -5.24683,11.42977c-4.08074,5.58882 -7.01799,3.78586 -12.3451,3.88811c-6.0516,0.11616 -9.45139,0.586 -13.31734,-3.59762c-3.86595,-4.18363 -5.78909,-13.10928 -5.78909,-13.10928c0,0 6.18325,0.14885 8.87535,4.7561c0.70225,1.20184 2.03023,2.25106 4.06673,2.84751c3.18072,0.93157 7.67857,0.96429 11.0605,0.32882c2.75356,-0.5174 4.95676,-2.32605 5.60482,-3.21107z" fill="#ffffff" stroke="#000000" stroke-width="1.9"/></g><g><path d="M435.72775,122.37852v-14.74541h15.71175v14.74541z" fill="#000000" stroke="none" stroke-width="1.25" stroke-linecap="butt"/><path d="M440.88604,113.26316c0,0 -0.47066,2.75831 3.15877,3.09984c3.62943,0.34152 4.58803,-2.53349 4.58803,-2.53349l14.8469,-0.09538c0,0 -7.42564,12.29376 -18.30366,12.39775c-12.91361,0.12345 -19.48444,-13.27086 -19.48444,-13.27086z" fill="#ffffff" stroke="#000000" stroke-width="1.9" stroke-linecap="round"/><path d="M439.85318,103.6514c1.92526,-1.11759 4.19159,3.23006 4.19159,3.23006c0,0 3.3971,-3.31524 4.3938,-2.86768c1.05469,0.4736 14.54815,9.49939 14.54815,9.49939c0,0 -10.16996,0.3513 -12.90857,-0.25c-2.73863,-0.6013 -5.65623,-2.81504 -5.65623,-2.81504c0,0 -3.29118,2.15419 -5.65623,2.41289c-2.36505,0.25869 -12.69696,-0.8043 -12.69696,-0.8043c0,0 11.66811,-7.17681 13.78445,-8.40532z" fill="#ffffff" stroke="#000000" stroke-width="1.25" stroke-linecap="round"/></g><g><path d="M164.47775,290.62852v-14.74541h15.71175v14.74541z" fill="#000000" stroke="none" stroke-width="1.25" stroke-linecap="butt"/><path d="M177.84998,286.31952c0,2.14011 -2.18261,3.875 -4.875,3.875c-2.69239,0 -4.875,-1.73489 -4.875,-3.875c0,-2.14011 2.18261,-2.54167 4.875,-2.54167c2.69239,0 4.875,0.40156 4.875,2.54167z" fill="#ffffff" stroke="none" stroke-width="0" stroke-linecap="butt"/><path d="M169.63604,281.51316c0,0 -0.13733,4.59165 3.4921,4.93318c3.62943,0.34152 4.2547,-4.36683 4.2547,-4.36683l14.8469,-0.09538c0,0 -8.50897,14.54376 -19.38699,14.64775c-12.91361,0.12345 -18.4011,-15.52086 -18.4011,-15.52086z" fill="#ffffff" stroke="#000000" stroke-width="1.9" stroke-linecap="round"/><path d="M168.60318,271.90139c1.92526,-1.11759 4.19159,3.23006 4.19159,3.23006c0,0 3.3971,-3.31524 4.3938,-2.86768c1.05469,0.4736 14.54815,9.49939 14.54815,9.49939c0,0 -10.16996,0.3513 -12.90857,-0.25c-2.73863,-0.6013 -5.65623,-2.81504 -5.65623,-2.81504c0,0 -3.29118,2.15419 -5.65623,2.41289c-2.36505,0.25869 -12.69696,-0.8043 -12.69696,-0.8043c0,0 11.66811,-7.17681 13.78445,-8.40532z" fill="#ffffff" stroke="#000000" stroke-width="1.25" stroke-linecap="round"/></g></g></g></svg>