<svg version="1.1" xmlns="http://www.w3.org/2000/svg" xmlns:xlink="http://www.w3.org/1999/xlink" width="184.85395" height="267.22502" viewBox="0,0,184.85395,267.22502"><defs><linearGradient x1="232.2795" y1="53.4741" x2="221.21563" y2="87.03055" gradientUnits="userSpaceOnUse" id="color-1"><stop offset="0" stop-color="#332f00"/><stop offset="1" stop-color="#998c00"/></linearGradient><linearGradient x1="240.16675" y1="175.50002" x2="240.16675" y2="307.50002" gradientUnits="userSpaceOnUse" id="color-2"><stop offset="0" stop-color="#000000"/><stop offset="1" stop-color="#665e00"/></linearGradient><linearGradient x1="270.55911" y1="172.55677" x2="343.21199" y2="196.51108" gradientUnits="userSpaceOnUse" id="color-3"><stop offset="0" stop-color="#000000"/><stop offset="1" stop-color="#4d4600"/></linearGradient><linearGradient x1="340.07168" y1="89.01416" x2="329.00781" y2="122.57063" gradientUnits="userSpaceOnUse" id="color-4"><stop offset="0" stop-color="#332f00"/><stop offset="1" stop-color="#998c00"/></linearGradient><linearGradient x1="167.3572" y1="138.53015" x2="240.01008" y2="162.48447" gradientUnits="userSpaceOnUse" id="color-5"><stop offset="0" stop-color="#4d4600"/><stop offset="1" stop-color="#000000"/></linearGradient><linearGradient x1="274.67325" y1="107.36437" x2="236.91102" y2="221.89632" gradientUnits="userSpaceOnUse" id="color-6"><stop offset="0" stop-color="#1a1700"/><stop offset="1" stop-color="#807500"/></linearGradient><linearGradient x1="281.62653" y1="100.15651" x2="274.3463" y2="122.23729" gradientUnits="userSpaceOnUse" id="color-7"><stop offset="0" stop-color="#4d4600"/><stop offset="1" stop-color="#1a1700"/></linearGradient><radialGradient cx="235.26642" cy="137.87023" r="23.48065" gradientUnits="userSpaceOnUse" id="color-8"><stop offset="0" stop-color="#403a00"/><stop offset="1" stop-color="#403a00" stop-opacity="0"/></radialGradient><radialGradient cx="287.61861" cy="154.92063" r="23.48065" gradientUnits="userSpaceOnUse" id="color-9"><stop offset="0" stop-color="#403a00"/><stop offset="1" stop-color="#403a00" stop-opacity="0"/></radialGradient><linearGradient x1="283.36434" y1="180.47827" x2="277.14264" y2="199.63407" gradientUnits="userSpaceOnUse" id="color-10"><stop offset="0" stop-color="#1a1a1a"/><stop offset="1" stop-color="#333333"/></linearGradient><linearGradient x1="279.15552" y1="178.54994" x2="270.457" y2="201.19556" gradientUnits="userSpaceOnUse" id="color-11"><stop offset="0" stop-color="#333333"/><stop offset="1" stop-color="#4d4d4d"/></linearGradient><linearGradient x1="273.61972" y1="173.70745" x2="261.4828" y2="201.41352" gradientUnits="userSpaceOnUse" id="color-12"><stop offset="0" stop-color="#4d4d4d"/><stop offset="1" stop-color="#666666"/></linearGradient><linearGradient x1="261.71928" y1="169.05087" x2="251.67326" y2="199.5202" gradientUnits="userSpaceOnUse" id="color-13"><stop offset="0" stop-color="#666666"/><stop offset="1" stop-color="#808080"/></linearGradient><linearGradient x1="224.13824" y1="160.95369" x2="217.27694" y2="179.88982" gradientUnits="userSpaceOnUse" id="color-14"><stop offset="0" stop-color="#1a1a1a"/><stop offset="1" stop-color="#333333"/></linearGradient><linearGradient x1="227.67016" y1="161.16207" x2="221.4577" y2="184.6119" gradientUnits="userSpaceOnUse" id="color-15"><stop offset="0" stop-color="#333333"/><stop offset="1" stop-color="#4d4d4d"/></linearGradient><linearGradient x1="236.18646" y1="161.29481" x2="227.48345" y2="190.26355" gradientUnits="userSpaceOnUse" id="color-16"><stop offset="0" stop-color="#4d4d4d"/><stop offset="1" stop-color="#666666"/></linearGradient><linearGradient x1="247.72269" y1="164.43608" x2="237.67667" y2="194.90541" gradientUnits="userSpaceOnUse" id="color-17"><stop offset="0" stop-color="#666666"/><stop offset="1" stop-color="#808080"/></linearGradient><linearGradient x1="247.19415" y1="236.15487" x2="241.10448" y2="250.26218" gradientUnits="userSpaceOnUse" id="color-18"><stop offset="0" stop-color="#333333"/><stop offset="1" stop-color="#4d4d4d"/></linearGradient><linearGradient x1="243.64153" y1="234.82803" x2="235.77807" y2="252.29897" gradientUnits="userSpaceOnUse" id="color-19"><stop offset="0" stop-color="#4d4d4d"/><stop offset="1" stop-color="#666666"/></linearGradient><linearGradient x1="237.71236" y1="235.4716" x2="231.3492" y2="254.77092" gradientUnits="userSpaceOnUse" id="color-20"><stop offset="0" stop-color="#666666"/><stop offset="1" stop-color="#808080"/></linearGradient><linearGradient x1="221.21512" y1="228.15149" x2="218.30527" y2="243.23902" gradientUnits="userSpaceOnUse" id="color-21"><stop offset="0" stop-color="#333333"/><stop offset="1" stop-color="#4d4d4d"/></linearGradient><linearGradient x1="224.4276" y1="228.40006" x2="220.52349" y2="247.15708" gradientUnits="userSpaceOnUse" id="color-22"><stop offset="0" stop-color="#4d4d4d"/><stop offset="1" stop-color="#666666"/></linearGradient><linearGradient x1="228.84691" y1="232.54858" x2="222.48375" y2="251.8479" gradientUnits="userSpaceOnUse" id="color-23"><stop offset="0" stop-color="#666666"/><stop offset="1" stop-color="#808080"/></linearGradient></defs><g transform="translate(-167.35721,-46.3875)"><g data-paper-data="{&quot;isPaintingLayer&quot;:true}" fill-rule="nonzero" stroke-linejoin="miter" stroke-miterlimit="10" stroke-dasharray="" stroke-dashoffset="0" style="mix-blend-mode: normal"><path d="M178.40902,313.61252v-267.22501h123.18203v267.22501z" fill-opacity="0.01" fill="#000000" stroke="none" stroke-width="0" stroke-linecap="butt"/><path d="M178.40899,313.61251v-267.22501h123.18203v267.22501z" fill-opacity="0.01" fill="#000000" stroke="none" stroke-width="0" stroke-linecap="butt"/><g stroke="#000000" stroke-width="0" stroke-linecap="butt"><path d="M201.3463,135.58395l21.91899,-66.47976l6.96454,2.29627l-21.91899,66.47976z" fill="#4d4926"/><path d="M209.96933,64.72039c3.0552,-9.26635 13.04381,-14.3015 22.31015,-11.2463c9.26635,3.0552 14.3015,13.04381 11.24629,22.31016c-3.0552,9.26635 -13.04381,14.3015 -22.31016,11.24629c-9.26635,-3.0552 -14.30148,-13.0438 -11.24629,-22.31016z" fill="url(#color-1)"/></g><path d="M206.91676,307.50001l15.14285,-131.8421l37.78325,-0.15789l13.57389,132z" fill="url(#color-2)" stroke="#000000" stroke-width="0" stroke-linecap="butt"/><path d="M270.55911,172.55677c3.76136,-11.40811 16.05864,-17.60703 27.46675,-13.84567c11.4081,3.76136 45.18613,37.79999 45.18613,37.79999c0,0 -47.39911,7.27378 -58.8072,3.51243c-11.40811,-3.76136 -17.60703,-16.05864 -13.84567,-27.46675z" data-paper-data="{&quot;index&quot;:null}" fill="url(#color-3)" stroke="#000000" stroke-width="0" stroke-linecap="butt"/><g stroke="#000000" stroke-width="0" stroke-linecap="butt"><path d="M309.13846,171.12401l21.91899,-66.47976l6.96454,2.29628l-21.91899,66.47976z" fill="#4d4926"/><path d="M317.76149,100.26045c3.0552,-9.26635 13.04381,-14.3015 22.31015,-11.2463c9.26635,3.0552 14.3015,13.04381 11.24629,22.31016c-3.0552,9.26635 -13.04381,14.30149 -22.31016,11.24629c-9.26635,-3.0552 -14.30148,-13.0438 -11.24629,-22.31016z" fill="url(#color-4)"/></g><path d="M212.54334,176.33014c-11.4081,-3.76136 -45.18613,-37.79999 -45.18613,-37.79999c0,0 47.39911,-7.27378 58.8072,-3.51243c11.40811,3.76136 17.60703,16.05864 13.84567,27.46675c-3.76136,11.40811 -16.05864,17.60703 -27.46675,13.84567z" data-paper-data="{&quot;index&quot;:null}" fill="url(#color-5)" stroke="#000000" stroke-width="0" stroke-linecap="butt"/><path d="M194.78554,144.51593c10.42775,-31.62712 46.1947,-48.26043 79.88771,-37.15154c33.693,11.10888 52.55323,45.75329 42.12548,77.38041c-10.42775,31.62712 -46.1947,48.26043 -79.88771,37.15154c-33.693,-11.10888 -52.55323,-45.75329 -42.12548,-77.38041z" fill="url(#color-6)" stroke="#000000" stroke-width="0" stroke-linecap="butt"/><path d="M250.59061,110.45625l37.68389,-8.10785l-7.39207,12.04086l23.24726,1.34712l-18.6243,10.18017" fill="url(#color-7)" stroke="#000000" stroke-width="0" stroke-linecap="round"/><path d="M211.99462,134.74544c0.95406,-7.10525 12.14662,-11.46618 24.99925,-9.7404c12.85265,1.72577 22.4984,8.88473 21.54434,15.98998c-0.95406,7.10525 -12.14662,11.46618 -24.99925,9.7404c-12.85265,-1.72577 -22.4984,-8.88473 -21.54434,-15.98998z" fill="url(#color-8)" stroke="#000000" stroke-width="0" stroke-linecap="butt"/><path d="M281.48868,166.3627c-11.43093,-6.12397 -17.95306,-16.21123 -14.56758,-22.53051c3.38547,-6.31929 15.39655,-6.47761 26.82748,-0.35365c11.43093,6.12397 17.95306,16.21123 14.56758,22.53051c-3.38547,6.31929 -15.39655,6.47761 -26.82748,0.35365z" data-paper-data="{&quot;index&quot;:null}" fill="url(#color-9)" stroke="#000000" stroke-width="0" stroke-linecap="butt"/><path d="M219.2974,127.71441c4.65473,-2.30908 11.3877,-3.2776 18.6508,-2.30235c7.40371,0.99413 13.74327,3.79113 17.60555,7.34221" fill="none" stroke="#1a1700" stroke-width="0.5" stroke-linecap="butt"/><path d="M276.77978,139.37815c5.02253,-0.27836 11.26543,1.20168 17.34426,4.45832c5.99239,3.21034 10.63578,7.50984 13.21002,11.78473" data-paper-data="{&quot;index&quot;:null}" fill="none" stroke="#1a1700" stroke-width="0.5" stroke-linecap="butt"/><path d="M202.73951,158.76681c11.40127,0.22134 22.21958,36.66736 40.90644,43.21583c19.08983,6.68968 52.49841,-16.07992 58.84032,-6.92649c3.6858,5.31979 -12.03725,16.11977 -29.413,29.07012c-21.36614,15.92444 -34.10061,42.3386 -48.84471,36.68374c-11.39554,-4.37057 -12.63026,-32.51547 -18.47755,-58.53136c-5.70976,-25.404 -8.94762,-43.62707 -3.01149,-43.51184z" fill="#4d4600" stroke="none" stroke-width="0" stroke-linecap="butt"/><path d="M201.46471,159.3071c10.2215,0.19843 34.77536,-2.94798 55.14602,4.19053c20.37065,7.13851 40.35686,23.21938 45.91009,31.23451c3.30439,4.76932 -13.49517,17.88698 -29.0729,29.49724c-19.15521,14.2766 -34.51729,37.99396 -47.73568,32.92428c-10.21635,-3.9183 -12.48665,-29.2015 -19.14332,-51.57566c-6.38362,-21.45647 -10.42608,-46.3742 -5.10422,-46.27089z" fill="#000000" stroke="none" stroke-width="0" stroke-linecap="butt"/><path d="M245.95212,248.92063c-7.33526,6.37198 -13.70845,10.45782 -19.92418,8.07388c-6.21573,-2.38393 -8.85462,-8.33337 -10.78126,-17.5746c0,0 9.48498,6.28765 14.2435,7.92605c5.03955,1.73516 16.46193,1.57469 16.46193,1.57469z" fill="#330000" stroke="none" stroke-width="0" stroke-linecap="butt"/><path d="M256.51421,162.99198c21.59746,7.33664 42.55391,28.18015 42.81236,28.12648c1.29573,-0.26905 -10.05055,-9.79298 -45.95823,-20.55968c-37.05833,-13.09634 -45.09472,-11.52953 -45.09472,-11.52953c0,0 31.94198,-1.5739 48.24058,3.96272z" fill="#330000" stroke="none" stroke-width="0" stroke-linecap="butt"/><path d="M273.14049,197.48977l5.37233,-15.91175c0,0 0.5325,-1.13538 4.69906,-0.76276c3.90355,0.3491 3.66252,1.27834 3.66252,1.27834l-4.86415,16.0768c0,0 -0.91239,1.57113 -3.67532,1.48394c-3.41981,-0.10794 -5.1944,-2.16457 -5.1944,-2.16457z" fill="url(#color-10)" stroke="none" stroke-width="0" stroke-linecap="butt"/><path d="M265.7793,198.36254l7.47111,-18.79761c0,0 0.71252,-1.33184 5.70034,-0.61934c4.67299,0.66752 4.32412,1.7699 4.32412,1.7699l-6.87035,19.02837c0,0 -1.19709,1.83186 -4.51478,1.55171c-4.10645,-0.34675 -6.11043,-2.93302 -6.11043,-2.93302z" fill="url(#color-11)" stroke="none" stroke-width="0" stroke-linecap="butt"/><path d="M255.81941,197.61579l10.38681,-22.98372c0,0 0.96407,-1.61789 7.13569,-0.44357c5.78206,1.1002 5.28412,2.45321 5.28412,2.45321l-9.65181,23.30569c0,0 -1.5964,2.21284 -5.71264,1.67307c-5.09486,-0.66808 -7.44217,-4.00468 -7.44217,-4.00468z" fill="url(#color-12)" stroke="none" stroke-width="0" stroke-linecap="butt"/><path d="M244.79275,195.90456l8.69275,-25.30039c0,0 0.87439,-1.79881 7.98375,-1.01915c6.66062,0.73045 6.27683,2.21113 6.27683,2.21113l-7.82218,25.58742c0,0 -1.50903,2.48153 -6.21881,2.22111c-5.82949,-0.32234 -8.91234,-3.70015 -8.91234,-3.70015z" fill="url(#color-13)" stroke="none" stroke-width="0" stroke-linecap="butt"/><path d="M216.32385,179.17324c-2.23345,-1.62886 -1.98793,-3.42904 -1.98793,-3.42904l6.0405,-15.67276c0,0 0.38078,-0.88124 3.67506,1.24181c3.51622,2.26609 3.23874,3.48905 3.23874,3.48905l-5.53816,15.85479c0,0 -2.66377,0.53225 -5.42821,-1.48386z" data-paper-data="{&quot;index&quot;:null}" fill="url(#color-14)" stroke="none" stroke-width="0" stroke-linecap="butt"/><path d="M220.23785,183.85384c-2.85322,-1.71602 -2.75063,-3.90192 -2.75063,-3.90192l5.5757,-19.44717c0,0 0.36286,-1.09785 4.54148,1.09796c4.46015,2.34374 4.25765,3.84054 4.25765,3.84054l-4.95362,19.61197c0,0 -3.13903,0.9226 -6.67059,-1.20138z" data-paper-data="{&quot;index&quot;:null}" fill="url(#color-15)" stroke="none" stroke-width="0" stroke-linecap="butt"/><path d="M225.99434,189.26886c-3.48539,-2.25545 -3.26797,-4.97533 -3.26797,-4.97533l7.74545,-24.00668c0,0 0.49719,-1.35328 5.61463,1.55437c5.46222,3.10356 5.14852,4.9606 5.14852,4.9606l-6.97694,24.23756c0,0 -3.94969,1.02112 -8.26368,-1.77053z" data-paper-data="{&quot;index&quot;:null}" fill="url(#color-16)" stroke="none" stroke-width="0" stroke-linecap="butt"/><path d="M235.99305,193.76488c-3.94108,-2.59185 -3.67828,-5.48426 -3.67828,-5.48426l8.93017,-25.22211c0,0 0.57213,-1.4186 6.36104,1.95568c6.17894,3.6016 5.812,5.56773 5.812,5.56773l-8.05961,25.50914c0,0 -4.4873,0.88186 -9.36535,-2.32618z" data-paper-data="{&quot;index&quot;:null}" fill="url(#color-17)" stroke="none" stroke-width="0" stroke-linecap="butt"/><path d="M238.21721,248.34847l5.21354,-11.70369c0,0 0.4853,-0.82449 3.62359,-0.24481c2.94019,0.54309 2.69094,1.23176 2.69094,1.23176l-4.8393,11.86522c0,0 -0.80489,1.12843 -2.89735,0.86549c-2.58991,-0.32547 -3.79143,-2.01398 -3.79143,-2.01398z" data-paper-data="{&quot;index&quot;:null}" fill="url(#color-18)" stroke="none" stroke-width="0" stroke-linecap="butt"/><path d="M232.2152,249.85757l6.72494,-14.49108c0,0 0.62091,-1.01859 4.52235,-0.23554c3.65518,0.73362 3.3312,1.58741 3.3312,1.58741l-6.26147,14.69969c0,0 -1.02519,1.39139 -3.62886,1.02332c-3.22267,-0.45557 -4.68816,-2.5838 -4.68816,-2.5838z" data-paper-data="{&quot;index&quot;:null}" fill="url(#color-19)" stroke="none" stroke-width="0" stroke-linecap="butt"/><path d="M226.99107,252.48076l5.506,-16.02531c0,0 0.55385,-1.13937 5.05693,-0.64553c4.21885,0.46267 3.97574,1.40054 3.97574,1.40054l-4.95459,16.20711c0,0 -0.95583,1.57181 -3.939,1.40686c-3.69241,-0.20417 -5.64509,-2.34368 -5.64509,-2.34368z" data-paper-data="{&quot;index&quot;:null}" fill="url(#color-20)" stroke="none" stroke-width="0" stroke-linecap="butt"/><path d="M217.50158,242.81283c-1.87734,-0.96077 -1.90722,-2.34654 -1.90722,-2.34654l2.68088,-12.53057c0,0 0.18174,-0.70947 2.91741,0.49706c2.91999,1.28783 2.85687,2.24245 2.85687,2.24245l-2.28062,12.60777c0,0 -1.94364,0.719 -4.26732,-0.47019z" data-paper-data="{&quot;index&quot;:null}" fill="url(#color-21)" stroke="none" stroke-width="0" stroke-linecap="butt"/><path d="M219.5293,246.61101c-2.32297,-1.23222 -2.33484,-2.96045 -2.33484,-2.96045l3.57184,-15.57334c0,0 0.23957,-0.88121 3.62817,0.67313c3.6169,1.65905 3.52072,2.84809 3.52072,2.84809l-3.07424,15.6769c0,0 -2.43639,0.86082 -5.31164,-0.66435z" data-paper-data="{&quot;index&quot;:null}" fill="url(#color-22)" stroke="none" stroke-width="0" stroke-linecap="butt"/><path d="M221.41734,251.12549c-2.4963,-1.64168 -2.32983,-3.47375 -2.32983,-3.47375l5.65638,-15.97573c0,0 0.36238,-0.89854 4.0291,1.23873c3.91374,2.28126 3.68133,3.5266 3.68133,3.5266l-5.10498,16.15753c0,0 -2.84226,0.55857 -5.93203,-1.47341z" data-paper-data="{&quot;index&quot;:null}" fill="url(#color-23)" stroke="none" stroke-width="0" stroke-linecap="butt"/><path d="M251.29524,151.77985l3.05841,-1.82444l-5.69299,6.62143" fill="none" stroke="#1a1700" stroke-width="0.5" stroke-linecap="round"/><path d="M266.85078,162.7234l-1.27466,-9.44056l1.98454,3.56168" fill="none" stroke="#1a1700" stroke-width="0.5" stroke-linecap="round"/></g></g></svg>