<svg version="1.1" xmlns="http://www.w3.org/2000/svg" xmlns:xlink="http://www.w3.org/1999/xlink" width="162.86098" height="301.25949" viewBox="0,0,162.86098,301.25949"><g transform="translate(-160.08536,-12.35305)"><g data-paper-data="{&quot;isPaintingLayer&quot;:true}" fill-rule="nonzero" stroke-linejoin="miter" stroke-miterlimit="10" stroke-dasharray="" stroke-dashoffset="0" style="mix-blend-mode: normal"><path d="M179.28375,313.61253v-267.22501h123.18203v267.22501z" fill-opacity="0.01" fill="#000000" stroke="none" stroke-width="0" stroke-linecap="butt"/><g stroke="#000000" stroke-width="2" stroke-linecap="butt"><path d="M272.52372,224.85812c-12.92088,-1.20561 -9.80557,-122.43002 -9.80557,-122.43002l12.67283,-1.75189c0,0 9.66941,125.35168 -2.86725,124.18191z" data-paper-data="{&quot;index&quot;:null}" fill="#006609"/><path d="M281.85706,213.52478c-12.92088,-1.20561 -8.80557,-109.76335 -8.80557,-109.76335l12.67282,-1.75189c0,0 8.66941,112.68501 -3.86725,111.51525z" data-paper-data="{&quot;index&quot;:null}" fill="#00800b"/><path d="M208.61424,81.00954l12.67282,1.75189c0,0 3.11531,139.22441 -9.80557,140.43003c-12.53666,1.16977 -2.86725,-142.18191 -2.86725,-142.18191z" fill="#006609"/><path d="M202.82646,213.96238c-12.8665,-1.68988 -4.5262,-105.69916 -4.5262,-105.69916l12.72966,-1.27485c0,0 4.28044,108.61365 -8.20346,106.97402z" data-paper-data="{&quot;index&quot;:null}" fill="#00800b"/><path d="M187.13927,203.2121c-11.85707,-2.01666 0.80492,-97.76965 0.80492,-97.76965l12.76881,-0.7919c0,0 -1.16086,100.67273 -13.57373,98.56155z" data-paper-data="{&quot;index&quot;:null}" fill="#006609"/><path d="M295.51405,200.58356c-12.97213,-0.35584 -18.99203,-79.15159 -18.99203,-79.15159l12.53069,-2.57904c0,0 19.04773,82.07589 6.46134,81.73063z" data-paper-data="{&quot;index&quot;:null}" fill="#006609"/><path d="M299.45695,178.1228c-6.96196,-1.98495 2.87949,-14.59911 -0.90901,-27.03845c-3.24984,-10.67066 3.1711,-15.32245 6.4215,-4.65196c3.03726,9.97082 2.34727,33.93133 -5.51249,31.69041z" data-paper-data="{&quot;index&quot;:null}" fill="#006609"/></g><path d="M206.75006,307.50001l15.14285,-131.8421l37.78325,-0.15789l13.57389,132z" fill="#4dff5b" stroke="#000000" stroke-width="2" stroke-linecap="butt"/><path d="M219.70028,204.11264l3.12142,-26.32765l35.83075,-0.14203l2.76735,26.1059c0,0 -7.51543,4.19603 -21.55904,4.50964c-12.48458,0.27879 -20.16049,-4.14586 -20.16049,-4.14586z" fill="#45e652" stroke="#000000" stroke-width="0" stroke-linecap="butt"/><g><path d="M180.56566,130.92935c2.93382,-33.17237 33.96022,-57.53019 69.29941,-54.40474c35.33918,3.12546 61.60891,32.55066 58.6751,65.72302c-2.93382,33.17237 -33.96022,57.53019 -69.29941,54.40474c-35.33918,-3.12546 -61.60891,-32.55066 -58.6751,-65.72302z" fill="#4dff5b" stroke="#000000" stroke-width="2" stroke-linecap="butt"/><path d="M181.28117,131.04668c0.06413,-0.72516 0.26004,56.16067 58.09832,62.29484c55.26205,5.86095 68.37217,-52.1324 68.28242,-51.11751c-2.89003,32.67725 -33.52417,56.66524 -68.42323,53.57872c-34.89907,-3.08653 -60.84753,-32.0788 -57.95751,-64.75605z" fill="#45e652" stroke="#000000" stroke-width="0" stroke-linecap="butt"/><path d="M193.9771,132.7962c1.14245,-12.91757 12.54037,-22.46322 25.45794,-21.32075c12.91757,1.14245 22.46322,12.54037 21.32075,25.45794c-1.14245,12.91757 -12.54037,22.46322 -25.45794,21.32075c-12.91757,-1.14245 -22.46322,-12.54037 -21.32075,-25.45794z" fill="#ffffff" stroke="#000000" stroke-width="2" stroke-linecap="butt"/><path d="M201.08755,132.89879c0.80417,-9.09258 8.82705,-15.81168 17.91964,-15.00751c9.09258,0.80417 15.81167,8.82706 15.0075,17.91965c-0.80417,9.09258 -8.82706,15.81167 -17.91965,15.0075c-9.09258,-0.80417 -15.81166,-8.82706 -15.00749,-17.91964z" fill="#000000" stroke="none" stroke-width="0" stroke-linecap="butt"/><path d="M269.64261,162.81092c-12.91757,-1.14245 -22.46322,-12.54037 -21.32075,-25.45794c1.14245,-12.91757 12.54037,-22.46322 25.45794,-21.32075c12.91757,1.14245 22.46322,12.54037 21.32075,25.45794c-1.14245,12.91757 -12.54037,22.46322 -25.45794,21.32075z" data-paper-data="{&quot;index&quot;:null}" fill="#ffffff" stroke="#000000" stroke-width="2" stroke-linecap="butt"/><path d="M269.91828,155.57865c-9.09257,-0.80417 -15.81166,-8.82706 -15.00749,-17.91964c0.80417,-9.09258 8.82706,-15.81167 17.91964,-15.00751c9.09257,0.80417 15.81166,8.82706 15.00749,17.91964c-0.80417,9.09258 -8.82706,15.81167 -17.91964,15.00751z" data-paper-data="{&quot;index&quot;:null}" fill="#000000" stroke="none" stroke-width="0" stroke-linecap="butt"/><path d="M193.87544,132.92004c1.14245,-12.91757 12.54037,-22.46322 25.45794,-21.32075c12.91757,1.14245 22.46322,12.54037 21.32075,25.45794c0,0 -46.88721,-2.91043 -46.77872,-4.13719z" fill="#00cc11" stroke="#000000" stroke-width="2" stroke-linecap="butt"/><path d="M248.07284,137.33095c1.14245,-12.91757 12.54037,-22.46322 25.45794,-21.32075c12.91757,1.14245 22.46322,12.54037 21.32075,25.45794c-0.10693,1.20908 -46.77872,-4.13719 -46.77872,-4.13719z" data-paper-data="{&quot;index&quot;:null}" fill="#00cc11" stroke="#000000" stroke-width="2" stroke-linecap="butt"/><path d="M209.15187,104.9678c0,0 7.13826,-4.55808 12.31195,-5.2995c5.1737,-0.74141 12.22456,1.78326 12.22456,1.78326c0,0 -8.00155,-0.76819 -11.99704,-0.19561c-4.17543,0.59836 -12.53947,3.71184 -12.53947,3.71184z" fill="#000000" stroke="none" stroke-width="0" stroke-linecap="butt"/><path d="M273.26084,105.81686c-3.83296,-1.26494 -11.84514,-1.91304 -11.84514,-1.91304c0,0 7.38452,-1.248 12.34779,0.38997c4.96327,1.63794 11.19072,7.37812 11.19072,7.37812c0,0 -7.68778,-4.53312 -11.69337,-5.85504z" data-paper-data="{&quot;index&quot;:null}" fill="#000000" stroke="none" stroke-width="0" stroke-linecap="butt"/><path d="M190.64378,129.34058l3.35695,2.90704" fill="none" stroke="#000000" stroke-width="2" stroke-linecap="round"/><path d="M317.44219,159.1694c-13.31338,1.9903 -6.85615,-28.48991 -23.96965,-51.87549c-20.09596,-27.46114 -45.21808,-25.77768 -40.32616,-32.62217c6.18983,-8.66045 32.97228,3.19229 48.29744,21.95815c10.34106,12.66278 29.14574,60.57404 15.99838,62.53951z" data-paper-data="{&quot;index&quot;:null}" fill="#00b30f" stroke="#000000" stroke-width="2" stroke-linecap="butt"/><path d="M298.90962,137.91188l-4.4832,3.01677" fill="none" stroke="#000000" stroke-width="2" stroke-linecap="round"/><path d="M257.47025,175.43783c0,0 -6.96326,1.59392 -16.32823,0.81469c-9.36498,-0.77923 -15.63449,-3.89251 -15.63449,-3.89251" fill="none" stroke="#000000" stroke-width="2" stroke-linecap="round"/><path d="M312.00387,168.76835c-13.45904,0.24813 -3.10613,-29.13819 -17.04458,-54.54442c-16.3676,-29.83393 -41.49602,-31.42041 -35.75833,-37.57322c7.26,-7.78523 32.2805,7.43848 45.04439,28.0322c8.61279,13.89618 21.04972,63.84041 7.75852,64.08545z" data-paper-data="{&quot;index&quot;:null}" fill="#00e613" stroke="#000000" stroke-width="2" stroke-linecap="butt"/><path d="M263.95761,85.17776c0,0 21.62473,-10.75927 22.42331,-20.89265c0.4564,-5.79149 -8.01397,-15.54316 -8.37002,-25.79802c-0.46928,-13.51598 13.49127,-23.4936 13.49127,-23.4936c0,0 -3.54697,10.22236 -3.41022,22.76213c0.10897,9.9932 7.89131,13.7435 9.77777,26.86638c1.84751,12.852 -11.80082,32.99448 -11.80082,32.99448c0,0 -4.07571,3.88019 -14.11684,-1.80225c-9.13117,-5.1675 -7.99445,-10.63645 -7.99445,-10.63645z" fill="#004d05" stroke="#000000" stroke-width="2" stroke-linecap="butt"/></g><g stroke="#000000" stroke-width="2" stroke-linecap="butt"><path d="M179.46666,136.18025c9.39949,-6.00616 11.26357,1.70051 1.86438,7.70717c-10.9571,7.00226 -11.66037,22.98591 -18.24444,19.9761c-7.43313,-3.39794 7.5969,-22.07094 16.38006,-27.68326z" data-paper-data="{&quot;index&quot;:null}" fill="#006609"/><g><path d="M195.42051,88.13163c18.51217,-15.63067 47.01643,-22.36079 51.50966,-12.71048c3.55109,7.6268 -20.83405,1.35621 -45.63344,24.65755c-21.11888,19.84315 -20.37182,50.99085 -33.09287,46.58834c-12.56242,-4.34762 14.72506,-47.98818 27.21664,-58.5354z" fill="#00cc11"/><path d="M196.40562,96.86094c16.48587,-17.75485 43.96693,-27.88295 49.5943,-18.84691c4.44743,7.14134 -20.51709,3.86599 -42.3163,29.9956c-18.56397,22.25167 -14.05528,53.08039 -27.21541,50.2487c-12.99603,-2.79637 8.81312,-49.41682 19.93741,-61.39738z" fill="#00e613"/><path d="M265.84934,76.90961c-0.3985,2.89785 -7.54757,4.15107 -15.96794,2.79913c-8.42037,-1.35194 -14.92338,-4.79707 -14.52489,-7.69492c0.3985,-2.89785 7.54757,-4.15107 15.96794,-2.79913c8.42037,1.35194 14.92338,4.79707 14.52489,7.69492z" fill="#00ff15"/><g><path d="M180.60626,106.85532c0.23662,-3.08519 2.29552,-3.76256 4.75673,-3.5738c2.46122,0.18876 4.39274,1.17218 4.15612,4.25736c-0.23662,3.08519 -2.55178,7.10386 -5.013,6.91509c-2.46122,-0.18876 -4.13648,-4.51347 -3.89987,-7.59867z" fill="#ff80ee"/><path d="M187.89569,128.7059c-0.23662,3.08519 -2.29551,3.76256 -4.75673,3.5738c-2.46122,-0.18876 -4.39274,-1.17218 -4.15612,-4.25736c0.23662,-3.08519 2.55179,-7.10386 5.013,-6.91509c2.46122,0.18876 4.13648,4.51347 3.89987,7.59867z" fill="#ff80ee"/><path d="M173.32568,121.42533c-3.08519,-0.23662 -3.76256,-2.29552 -3.5738,-4.75673c0.18876,-2.46122 1.17218,-4.39274 4.25736,-4.15612c3.08519,0.23662 7.10386,2.55179 6.91509,5.013c-0.18876,2.46122 -4.51347,4.13648 -7.59867,3.89987z" fill="#ff80ee"/><path d="M195.17627,114.13588c3.08519,0.23662 3.76256,2.29552 3.5738,4.75673c-0.18876,2.46122 -1.17218,4.39274 -4.25736,4.15612c-3.08519,-0.23662 -7.10386,-2.55179 -6.91509,-5.013c0.18876,-2.46122 4.51347,-4.13648 7.59867,-3.89987z" fill="#ff80ee"/><path d="M173.94842,112.63247c-2.01424,-2.34888 -1.03735,-4.2837 0.83647,-5.89058c1.87382,-1.60688 3.93499,-2.27729 5.94924,0.07159c2.01424,2.34888 3.21879,6.82756 1.34498,8.43444c-1.87382,1.60688 -6.11645,-0.26658 -8.13069,-2.61544z" fill="#ff80ee"/><path d="M194.55353,122.92875c2.01424,2.34888 1.03734,4.2837 -0.83648,5.89058c-1.87382,1.60687 -3.93499,2.27729 -5.94924,-0.07159c-2.01424,-2.34888 -3.21879,-6.82756 -1.34498,-8.43444c1.87382,-1.60688 6.11645,0.26658 8.1307,2.61544z" fill="#ff80ee"/><path d="M179.10283,128.08317c-2.34887,2.01424 -4.28371,1.03734 -5.89058,-0.83648c-1.60687,-1.87383 -2.27728,-3.93498 0.0716,-5.94924c2.34887,-2.01425 6.82756,-3.2188 8.43443,-1.34498c1.60687,1.87383 -0.26659,6.11645 -2.61544,8.1307z" fill="#ff80ee"/><path d="M189.39913,107.47806c2.34887,-2.01425 4.28371,-1.03734 5.89058,0.83648c1.60687,1.87383 2.27729,3.93498 -0.07159,5.94924c-2.34887,2.01425 -6.82756,3.2188 -8.43444,1.34498c-1.60687,-1.87383 0.26659,-6.11645 2.61544,-8.1307z" fill="#ff80ee"/><path d="M178.36055,117.20256c0.24991,-3.25851 3.09405,-5.69747 6.35257,-5.44756c3.25852,0.24991 5.69747,3.09405 5.44756,6.35257c-0.24991,3.25851 -3.09405,5.69747 -6.35257,5.44756c-3.25852,-0.24991 -5.69747,-3.09405 -5.44756,-6.35257z" fill="#ffe900"/></g><path d="M197.82723,126.00969c7.55351,-8.20787 11.32427,-1.23299 3.7712,6.97527c-8.805,9.56879 -5.40218,25.20183 -12.53664,23.97367c-8.0545,-1.38655 1.70722,-23.27927 8.76543,-30.94894z" data-paper-data="{&quot;index&quot;:null}" fill="#00ff15"/><path d="M188.45577,123.69785c11.79152,-13.58621 22.41523,-24.48648 28.48581,-32.02372c7.60743,-9.4454 16.05731,-23.73325 22.87183,-19.9731c7.11619,3.92659 -1.96575,20.55209 -9.82347,30.30825c-6.04501,7.50549 -22.94071,20.00802 -34.67772,33.53283c-14.70969,16.95029 -8.0539,43.74942 -20.42391,41.98895c-13.96523,-1.98749 1.77596,-40.24701 13.56748,-53.83322z" fill="#00ff15"/><g><path d="M190.08366,135.82798c0.16611,-2.16582 1.61147,-2.64133 3.33927,-2.50882c1.7278,0.13252 3.08373,0.82287 2.91762,2.98869c-0.16611,2.16582 -1.79136,4.98694 -3.51914,4.85442c-1.7278,-0.13252 -2.90384,-3.16849 -2.73772,-5.3343z" fill="#ff80ee"/><path d="M195.2009,151.16721c-0.16611,2.16582 -1.61147,2.64133 -3.33926,2.50882c-1.7278,-0.13252 -3.08374,-0.82287 -2.91763,-2.98869c0.16611,-2.16582 1.79136,-4.98694 3.51915,-4.85442c1.7278,0.13252 2.90383,3.16849 2.73771,5.3343z" fill="#ff80ee"/><path d="M184.97266,146.05622c-2.16582,-0.16611 -2.64133,-1.61147 -2.50882,-3.33927c0.13252,-1.7278 0.82287,-3.08374 2.98869,-2.91763c2.16582,0.16611 4.98694,1.79136 4.85442,3.51915c-0.13252,1.7278 -3.16849,2.90384 -5.3343,2.73772z" fill="#ff80ee"/><path d="M200.31189,140.93898c2.16582,0.16611 2.64133,1.61147 2.50882,3.33927c-0.13252,1.7278 -0.82287,3.08374 -2.98869,2.91763c-2.16582,-0.16611 -4.98694,-1.79136 -4.85442,-3.51915c0.13252,-1.7278 3.16849,-2.90384 5.3343,-2.73772z" fill="#ff80ee"/><path d="M185.40984,139.88358c-1.41402,-1.64892 -0.72822,-3.00718 0.58721,-4.13522c1.31544,-1.12803 2.7624,-1.59867 4.1764,0.05026c1.41402,1.64892 2.25963,4.793 0.94418,5.92102c-1.31544,1.12803 -4.29377,-0.18714 -5.70779,-1.83605z" fill="#ff80ee"/><path d="M199.87473,147.11162c1.41402,1.64892 0.72822,3.00718 -0.58721,4.13522c-1.31544,1.12803 -2.7624,1.59867 -4.1764,-0.05026c-1.41402,-1.64892 -2.25963,-4.793 -0.94418,-5.92102c1.31544,-1.12803 4.29377,0.18714 5.70779,1.83605z" fill="#ff80ee"/><path d="M189.02825,150.73004c-1.64892,1.41402 -3.00718,0.72822 -4.13522,-0.58721c-1.12803,-1.31544 -1.59867,-2.7624 0.05026,-4.1764c1.64892,-1.41402 4.793,-2.25963 5.92102,-0.94418c1.12803,1.31544 -0.18714,4.29377 -1.83605,5.70779z" fill="#ff80ee"/><path d="M196.25631,136.26516c1.64892,-1.41402 3.00718,-0.72822 4.13522,0.58721c1.12803,1.31544 1.59867,2.7624 -0.05026,4.1764c-1.64892,1.41402 -4.793,2.25963 -5.92102,0.94418c-1.12803,-1.31544 0.18714,-4.29377 1.83605,-5.70779z" fill="#ff80ee"/><path d="M188.50715,143.09181c0.17545,-2.2875 2.17204,-3.99965 4.45954,-3.82421c2.2875,0.17545 3.99965,2.17205 3.82421,4.45954c-0.17545,2.2875 -2.17205,3.99965 -4.45954,3.82421c-2.2875,-0.17545 -3.99965,-2.17204 -3.82421,-4.45954z" fill="#ffe900"/></g><path d="M199.76113,136.22528c8.42895,-15.89269 22.02752,-29.09656 26.24476,-37.80729c5.28487,-10.91598 10.30001,-26.73975 17.78627,-24.61085c7.81768,2.22313 2.71318,20.46684 -2.74559,31.74198c-4.19947,8.67405 -20.47304,20.67619 -28.86272,36.49678c-10.51456,19.82756 -3.69702,44.63044 -17.45501,41.51671c-10.81348,-2.44731 -3.39665,-31.44463 5.03232,-47.33731z" fill="#00b30f"/><path d="M252.78378,120.25634c-6.92956,-2.09525 3.11097,-14.55155 -0.47951,-27.04948c-3.07998,-10.72092 3.41402,-15.27015 6.49457,-4.5494c2.87854,10.0178 1.80813,33.96432 -6.01505,31.59887z" data-paper-data="{&quot;index&quot;:null}" fill="#00cc11"/><path d="M313.54805,143.84245c-12.9487,5.58255 -8.49029,-13.58601 -20.25579,-24.97942c-9.38781,-9.09093 -26.02456,-13.54835 -30.7872,-18.63126c-6.19082,-6.6071 -14.91405,-19.79487 -7.59444,-23.28706c7.00932,-3.34415 15.44299,8.15915 21.43662,14.5558c4.78281,5.10439 18.95207,11.06777 28.3837,20.19987c9.43162,9.13209 18.99456,27.75432 8.81716,32.14209z" data-paper-data="{&quot;index&quot;:null}" fill="#00ff15"/><path d="M216.16924,121.13727c6.47474,-11.42051 18.38825,-21.1364 21.53811,-27.38206c3.94732,-7.82684 7.04817,-19.0813 14.71593,-17.84872c8.0072,1.28714 5.10339,14.23937 1.02621,22.32372c-3.13661,6.21936 -17.84205,15.18596 -24.28637,26.55464c-8.0765,14.24807 1.60477,31.38237 -12.39253,29.6765c-11.00156,-1.34076 -7.07611,-21.90356 -0.60137,-33.32408z" fill="#00ff15"/><g><path d="M219.54482,78.31627c0.29086,-3.7924 2.82172,-4.62503 5.8471,-4.393c3.0254,0.23204 5.39967,1.44088 5.10882,5.23328c-0.29086,3.7924 -3.13672,8.73224 -6.16212,8.50021c-3.0254,-0.23204 -5.08467,-5.54809 -4.79381,-9.34047z" fill="#ff80ee"/><path d="M228.50518,105.17559c-0.29086,3.7924 -2.82172,4.62503 -5.8471,4.393c-3.0254,-0.23204 -5.39967,-1.44088 -5.10882,-5.23328c0.29086,-3.7924 3.13672,-8.73224 6.16212,-8.50021c3.0254,0.23204 5.08467,5.54809 4.79381,9.34047z" fill="#ff80ee"/><path d="M210.59534,96.22611c-3.79241,-0.29086 -4.62503,-2.82172 -4.393,-5.8471c0.23204,-3.0254 1.44087,-5.39967 5.23328,-5.10882c3.79241,0.29086 8.73224,3.13672 8.50021,6.16212c-0.23204,3.0254 -5.54808,5.08468 -9.34047,4.79381z" fill="#ff80ee"/><path d="M237.45467,87.26574c3.79241,0.29086 4.62503,2.82172 4.393,5.8471c-0.23204,3.0254 -1.44087,5.39967 -5.23328,5.10882c-3.79241,-0.29086 -8.73224,-3.13672 -8.50021,-6.16212c0.23204,-3.0254 5.54808,-5.08468 9.34047,-4.79381z" fill="#ff80ee"/><path d="M211.36083,85.4177c-2.47594,-2.8873 -1.27513,-5.26564 1.02822,-7.24085c2.30335,-1.97521 4.83699,-2.7993 7.31296,0.088c2.47594,2.8873 3.95663,8.39261 1.65329,10.36783c-2.30335,1.97521 -7.51849,-0.32768 -9.99445,-3.21498z" fill="#ff80ee"/><path d="M236.68918,98.07416c2.47594,2.8873 1.27513,5.26564 -1.02822,7.24085c-2.30335,1.97521 -4.83699,2.7993 -7.31296,-0.088c-2.47594,-2.8873 -3.95663,-8.39261 -1.65329,-10.36783c2.30335,-1.97521 7.5185,0.32768 9.99445,3.21498z" fill="#ff80ee"/><path d="M217.69677,104.41011c-2.8873,2.47594 -5.26565,1.27514 -7.24085,-1.02822c-1.97521,-2.30335 -2.7993,-4.83699 0.088,-7.31296c2.8873,-2.47594 8.39261,-3.95663 10.36783,-1.65329c1.97521,2.30335 -0.32768,7.5185 -3.21498,9.99445z" fill="#ff80ee"/><path d="M230.35323,79.08175c2.8873,-2.47594 5.26565,-1.27514 7.24085,1.02822c1.97521,2.30335 2.7993,4.83699 -0.088,7.31296c-2.8873,2.47594 -8.39261,3.95663 -10.36783,1.65329c-1.97521,-2.30335 0.32768,-7.51849 3.21498,-9.99445z" fill="#ff80ee"/><path d="M216.78432,91.03538c0.30719,-4.00545 3.80329,-7.00347 7.80874,-6.69627c4.00545,0.30719 7.00347,3.80329 6.69627,7.80874c-0.30719,4.00545 -3.80329,7.00347 -7.80874,6.69627c-4.00545,-0.30719 -7.00347,-3.80329 -6.69627,-7.80874z" fill="#ffe900"/></g><g><path d="M299.52231,103.76965c0.16611,-2.16582 1.61147,-2.64133 3.33927,-2.50882c1.7278,0.13252 3.08374,0.82287 2.91763,2.98869c-0.16611,2.16582 -1.79136,4.98694 -3.51915,4.85442c-1.7278,-0.13252 -2.90384,-3.16849 -2.73772,-5.3343z" fill="#ff80ee"/><path d="M304.63955,119.1089c-0.16611,2.16582 -1.61147,2.64133 -3.33927,2.50882c-1.7278,-0.13252 -3.08374,-0.82287 -2.91763,-2.98869c0.16611,-2.16582 1.79136,-4.98693 3.51915,-4.85441c1.7278,0.13252 2.90384,3.16849 2.73772,5.33429z" fill="#ff80ee"/><path d="M294.41131,113.9979c-2.16582,-0.16611 -2.64133,-1.61147 -2.50882,-3.33927c0.13252,-1.7278 0.82287,-3.08374 2.98869,-2.91763c2.16582,0.16611 4.98694,1.79136 4.85442,3.51915c-0.13252,1.7278 -3.16849,2.90384 -5.3343,2.73772z" fill="#ff80ee"/><path d="M309.75056,108.88066c2.16582,0.16611 2.64133,1.61147 2.50882,3.33927c-0.13252,1.7278 -0.82287,3.08374 -2.98869,2.91763c-2.16582,-0.16611 -4.98694,-1.79136 -4.85442,-3.51915c0.13252,-1.7278 3.16849,-2.90384 5.3343,-2.73772z" fill="#ff80ee"/><path d="M294.84847,107.82525c-1.41401,-1.64892 -0.72822,-3.00718 0.58721,-4.13522c1.31544,-1.12803 2.7624,-1.59867 4.1764,0.05025c1.41401,1.64892 2.25963,4.793 0.94418,5.92102c-1.31544,1.12803 -4.29377,-0.18714 -5.70779,-1.83605z" fill="#ff80ee"/><path d="M309.31339,115.05331c1.41401,1.64892 0.72821,3.00718 -0.58722,4.13522c-1.31544,1.12803 -2.7624,1.59867 -4.1764,-0.05026c-1.41401,-1.64892 -2.25963,-4.793 -0.94418,-5.92102c1.31544,-1.12803 4.29378,0.18714 5.70779,1.83605z" fill="#ff80ee"/><path d="M298.4669,118.67172c-1.64891,1.41402 -3.00718,0.72822 -4.13522,-0.58721c-1.12803,-1.31544 -1.59867,-2.7624 0.05026,-4.1764c1.64891,-1.41402 4.79299,-2.25962 5.92102,-0.94418c1.12803,1.31544 -0.18714,4.29377 -1.83605,5.70779z" fill="#ff80ee"/><path d="M305.69496,104.20682c1.64891,-1.41402 3.00718,-0.72821 4.13522,0.58722c1.12803,1.31544 1.59866,2.76239 -0.05025,4.1764c-1.64891,1.41402 -4.79299,2.25962 -5.92102,0.94418c-1.12803,-1.31544 0.18714,-4.29377 1.83605,-5.70779z" fill="#ff80ee"/><path d="M297.94581,111.03348c0.17545,-2.28749 2.17205,-3.99965 4.45954,-3.82421c2.2875,0.17545 3.99965,2.17205 3.82421,4.45954c-0.17545,2.28749 -2.17205,3.99965 -4.45954,3.82421c-2.2875,-0.17545 -3.99965,-2.17205 -3.82421,-4.45954z" fill="#ffe900"/></g></g></g></g></g></svg>