<svg version="1.1" xmlns="http://www.w3.org/2000/svg" xmlns:xlink="http://www.w3.org/1999/xlink" width="157.56435" height="286.17333" viewBox="0,0,157.56435,286.17333"><defs><linearGradient x1="289.35443" y1="134.51144" x2="317.88198" y2="132.98912" gradientUnits="userSpaceOnUse" id="color-1"><stop offset="0" stop-color="#000000"/><stop offset="1" stop-color="#240033"/></linearGradient><linearGradient x1="160.87056" y1="141.36771" x2="189.39813" y2="139.84539" gradientUnits="userSpaceOnUse" id="color-2"><stop offset="0" stop-color="#240033"/><stop offset="1" stop-color="#000000"/></linearGradient><linearGradient x1="240.00004" y1="175.50001" x2="240.00004" y2="307.50001" gradientUnits="userSpaceOnUse" id="color-3"><stop offset="0" stop-color="#000000"/><stop offset="1" stop-color="#470066"/></linearGradient><linearGradient x1="236.64867" y1="83.63232" x2="243.07492" y2="204.05764" gradientUnits="userSpaceOnUse" id="color-4"><stop offset="0" stop-color="#12001a"/><stop offset="1" stop-color="#590080"/></linearGradient><linearGradient x1="207.06789" y1="30.83258" x2="210.96789" y2="103.91705" gradientUnits="userSpaceOnUse" id="color-5"><stop offset="0" stop-color="#240033"/><stop offset="1" stop-color="#09000d"/></linearGradient><linearGradient x1="260.65829" y1="27.97285" x2="264.55829" y2="101.05733" gradientUnits="userSpaceOnUse" id="color-6"><stop offset="0" stop-color="#240033"/><stop offset="1" stop-color="#09000d"/></linearGradient></defs><g transform="translate(-161.14338,-27.43919)"><g data-paper-data="{&quot;isPaintingLayer&quot;:true}" fill-rule="nonzero" stroke-linecap="butt" stroke-linejoin="miter" stroke-miterlimit="10" stroke-dasharray="" stroke-dashoffset="0" style="mix-blend-mode: normal"><path d="M179.28374,313.61252v-267.22501h123.18203v267.22501z" fill-opacity="0.01" fill="#000000" stroke="none" stroke-width="0"/><path d="M305.23006,162.49822c-4.21531,-1.29768 -12.94569,0.0636 -12.94569,0.0636l-3.50721,-38.86833l20.74654,-27.47789c0,0 4.1171,2.976 7.6615,32.9736c3.39586,28.74049 0.05069,41.05396 0.05069,41.05396c0,0 -7.90724,-6.48316 -12.00582,-7.74492z" data-paper-data="{&quot;index&quot;:null}" fill="url(#color-1)" stroke="#000000" stroke-width="0"/><path d="M165.47768,178.34141c0,0 -4.63662,-11.88753 -4.31867,-40.82621c0.33184,-30.20444 4.10884,-33.6017 4.10884,-33.6017l23.553,25.11394l0.64918,39.02085c0,0 -8.82569,-0.42443 -12.87895,1.31448c-3.94103,1.69076 -11.11339,8.97863 -11.11339,8.97863z" fill="url(#color-2)" stroke="#000000" stroke-width="0"/><path d="M206.75005,307.5l15.14285,-131.8421l37.78325,-0.15789l13.57389,132z" fill="url(#color-3)" stroke="#000000" stroke-width="0"/><path d="M175.71604,147.26799c-1.27546,-33.27741 25.50591,-61.74519 60.93263,-63.63566c35.42671,-1.89047 65.58432,23.53513 67.35887,56.78965c1.76607,33.0956 -16.4226,36.01012 -22.11136,53.1303c-12.11186,36.45031 -20.59568,63.63111 -35.49083,64.91656c-16.88651,1.45731 -26.42755,-28.00682 -43.96065,-60.81525c-10.3007,-19.27497 -25.4522,-17.082 -26.72867,-50.3856z" fill="url(#color-4)" stroke="#000000" stroke-width="0"/><path d="M189.25212,146.64194c-0.69103,-12.94958 9.24649,-24.00747 22.19607,-24.69851c12.94958,-0.69103 24.00747,9.24649 24.69851,22.19607c0.69103,12.94958 -9.24649,24.00747 -22.19607,24.69851c-12.94958,0.69103 -24.00747,-9.24649 -24.69851,-22.19607z" fill="#808080" stroke="#000000" stroke-width="0"/><path d="M266.99646,201.31532c1.36864,15.58809 -11.85525,50.85517 -21.48319,51.7005c-9.62794,0.84534 -29.67206,-47.40898 -28.22746,-62.99023c0.93048,-10.03606 13.24891,-8.74343 22.87685,-9.58877c9.62794,-0.84534 25.46515,5.2904 26.8338,20.8785z" fill="#000000" stroke="#000000" stroke-width="2"/><path d="M193.98053,146.4474c-0.55508,-10.40195 7.42738,-19.28435 17.8293,-19.83943c10.40195,-0.55508 19.28435,7.42739 19.83943,17.82931c0.55508,10.40195 -7.42739,19.28435 -17.82931,19.83943c-10.40195,0.55508 -19.28434,-7.42739 -19.83942,-17.82931z" fill="#000000" stroke="none" stroke-width="0"/><path d="M268.14974,166.27959c-12.94958,0.69103 -24.00747,-9.24649 -24.69851,-22.19607c-0.69103,-12.94958 9.24649,-24.00747 22.19607,-24.69851c12.94958,-0.69103 24.00747,9.24649 24.69851,22.19607c0.69103,12.94958 -9.24649,24.00747 -22.19607,24.69851z" data-paper-data="{&quot;index&quot;:null}" fill="#808080" stroke="#000000" stroke-width="0"/><path d="M267.81201,162.06316c-10.76959,0.57469 -19.96597,-7.68991 -20.54067,-18.45952c-0.5747,-10.76961 7.68991,-19.96598 18.45951,-20.54068c10.76959,-0.57469 19.96597,7.68991 20.54067,18.45952c0.5747,10.76961 -7.68991,19.96598 -18.45951,20.54068z" data-paper-data="{&quot;index&quot;:null}" fill="#000000" stroke="none" stroke-width="0"/><path d="M200.44577,95.77748c-1.2081,-5.57761 -3.37835,-64.41125 -3.37835,-64.41125c0,0 22.36856,54.45876 23.57666,60.03636c1.2081,5.57761 -2.33411,11.0785 -7.9117,12.28658c-5.5776,1.2081 -11.0785,-2.3341 -12.28658,-7.9117z" fill="url(#color-5)" stroke="#000000" stroke-width="0"/><path d="M262.77959,101.01852c-5.67449,-0.60766 -9.782,-5.70033 -9.17434,-11.37483c0.60765,-5.6745 17.05353,-62.2045 17.05353,-62.2045c0,0 4.1033,58.73049 3.49565,64.40499c-0.60765,5.6745 -5.70033,9.78199 -11.37484,9.17435z" data-paper-data="{&quot;index&quot;:null}" fill="url(#color-6)" stroke="#000000" stroke-width="0"/></g></g></svg>