<svg version="1.1" xmlns="http://www.w3.org/2000/svg" xmlns:xlink="http://www.w3.org/1999/xlink" width="35.125" height="35.12434" viewBox="0,0,35.125,35.12434"><g transform="translate(-222.43752,-162.43783)"><g data-paper-data="{&quot;isPaintingLayer&quot;:true}" stroke-miterlimit="10" stroke-dasharray="" stroke-dashoffset="0" style="mix-blend-mode: normal"><path d="M257.56251,169.8317v20.49804c0,4.00745 -3.22497,7.23243 -7.23242,7.23243h-20.5c-3.66107,0 -6.66147,-2.69385 -7.1543,-6.21484c0.7952,3.03475 3.54108,5.26367 6.83204,5.26367h20.0332c3.9166,0 7.07032,-3.15372 7.07032,-7.07031v-20.03321c0,-3.2976 -2.23906,-6.0451 -5.28321,-6.83398c3.52994,0.48496 6.23438,3.49081 6.23438,7.15821z" fill-opacity="0.29839" fill="#000000" fill-rule="evenodd" stroke="none" stroke-width="4.54219" stroke-linecap="round" stroke-linejoin="round"/><path d="M229.50719,162.43783h20.03378c3.9166,0 7.06966,3.15307 7.06966,7.06966v20.03379c0,3.91659 -3.15307,7.06966 -7.06966,7.06966h-20.03378c-3.91659,0 -7.06967,-3.15307 -7.06967,-7.06966v-20.03379c0,-3.91659 3.15308,-7.06966 7.06967,-7.06966z" fill="#babebf" fill-rule="evenodd" stroke="none" stroke-width="4.43922" stroke-linecap="round" stroke-linejoin="round"/><g fill-rule="nonzero" stroke="#000000" stroke-linecap="butt" stroke-linejoin="miter"><path d="M228.5018,188.36481c0,-5.56025 4.8019,-10.06771 10.72534,-10.06771c5.92344,0 10.72533,4.50747 10.72533,10.06771" fill="#babebf" stroke-width="0.5"/><path d="M255.28157,181.01253c0,1.72129 -7.05168,3.11668 -15.75036,3.11668c-8.69869,0 -15.75036,-1.39539 -15.75036,-3.11668c0,-1.72129 7.05168,-3.9515 15.75036,-3.9515c8.69869,0 15.75036,2.23021 15.75036,3.9515z" fill="#babebf" stroke-width="0.5"/><path d="M239.70484,177.28973c1.20415,0 2.32908,0.06318 3.28451,0.1727c0.11228,0.01287 -2.68107,1.71999 -2.68107,1.71999l-1.01475,0.0248z" data-paper-data="{&quot;index&quot;:null}" fill="#ffffff" stroke-width="0"/><path d="M239.44772,183.84627c-2.91523,0 -5.63872,-0.15294 -7.95182,-0.4181c-0.27182,-0.03116 6.49087,-4.16409 6.49087,-4.16409l2.4567,-0.06002z" fill="#ffffff" stroke-width="0"/><path d="M238.58577,172.41653c0,0 0.12914,-1.13394 -0.53553,-0.88577c-0.53367,0.19926 -1.8237,0.92133 -1.8237,0.92133c0,0 0.66043,-1.21828 1.49937,-1.66201c0.67266,-0.35578 1.5315,0.42945 1.5315,0.42945c0,0 0.78982,-0.695 1.29975,-0.37842c0.67018,0.41608 1.22084,1.64246 1.22084,1.64246c0,0 -0.99828,-0.56891 -1.43942,-0.79248c-0.48665,-0.24664 -0.53566,0.69072 -0.53566,0.69072l0.5175,6.72125c0,0 -0.40615,0.25045 -1.11465,0.22262c-0.61244,-0.02406 -1.09764,-0.22262 -1.09764,-0.22262z" fill="#babebf" stroke-width="0.5"/></g></g></g></svg>