<svg version="1.1" xmlns="http://www.w3.org/2000/svg" xmlns:xlink="http://www.w3.org/1999/xlink" width="35.125" height="35.12434" viewBox="0,0,35.125,35.12434"><g transform="translate(-222.43752,-162.43783)"><g data-paper-data="{&quot;isPaintingLayer&quot;:true}" stroke-miterlimit="10" stroke-dasharray="" stroke-dashoffset="0" style="mix-blend-mode: normal"><path d="M257.56251,169.8317v20.49804c0,4.00745 -3.22497,7.23243 -7.23242,7.23243h-20.5c-3.66107,0 -6.66147,-2.69385 -7.1543,-6.21484c0.7952,3.03475 3.54108,5.26367 6.83204,5.26367h20.0332c3.9166,0 7.07032,-3.15372 7.07032,-7.07031v-20.03321c0,-3.2976 -2.23906,-6.0451 -5.28321,-6.83398c3.52994,0.48496 6.23438,3.49081 6.23438,7.15821z" fill-opacity="0.29839" fill="#000000" fill-rule="evenodd" stroke="none" stroke-width="4.54219" stroke-linecap="round" stroke-linejoin="round"/><path d="M229.50719,162.43783h20.03378c3.9166,0 7.06966,3.15307 7.06966,7.06966v20.03379c0,3.91659 -3.15307,7.06966 -7.06966,7.06966h-20.03378c-3.91659,0 -7.06967,-3.15307 -7.06967,-7.06966v-20.03379c0,-3.91659 3.15308,-7.06966 7.06967,-7.06966z" fill="#ff80ee" fill-rule="evenodd" stroke="none" stroke-width="4.43922" stroke-linecap="round" stroke-linejoin="round"/><path d="M227.75416,190.7618c0,0 -6.17619,-21.6596 0.54706,-22.43425c6.86685,-0.7912 6.3328,16.09946 6.3328,16.09946c0,0 2.08738,-1.125 4.98398,-1.125c3.11766,0 4.81036,1.125 4.81036,1.125c0,0 -0.53405,-16.89066 6.3328,-16.09946c6.72325,0.77465 0.54706,22.43425 0.54706,22.43425" fill="none" fill-rule="nonzero" stroke="#000000" stroke-width="0.5" stroke-linecap="round" stroke-linejoin="miter"/><g fill="#ff00dd" fill-rule="nonzero" stroke="#000000" stroke-width="0.5" stroke-linecap="butt" stroke-linejoin="miter"><path d="M233.12682,184.99209c-0.70568,-1.57618 0.66689,-2.02862 0.66689,-2.02862c0,0 -1.07018,-0.48401 -0.77868,-1.98219c0.37461,-1.92533 5.40318,1.26657 5.40318,1.26657l-0.03726,1.68876c0,0 -4.60563,2.50395 -5.25413,1.05547z"/><path d="M240.67589,183.93661l-0.03726,-1.68876c0,0 5.02857,-3.1919 5.40318,-1.26657c0.2915,1.49817 -0.77868,1.98219 -0.77868,1.98219c0,0 1.37257,0.45244 0.66689,2.02862c-0.6485,1.44847 -5.25413,-1.05547 -5.25413,-1.05547z" data-paper-data="{&quot;index&quot;:null}"/><path d="M237.76611,183.03695c0,-0.95697 0.77578,-1.73274 1.73274,-1.73274c0.95697,0 1.73274,0.77578 1.73274,1.73274c0,0.95697 -0.77578,1.73274 -1.73274,1.73274c-0.95697,0 -1.73274,-0.77578 -1.73274,-1.73274z"/></g></g></g></svg>