<svg version="1.1" xmlns="http://www.w3.org/2000/svg" xmlns:xlink="http://www.w3.org/1999/xlink" width="34.17311" height="34.17311" viewBox="0,0,34.17311,34.17311"><g transform="translate(-222.91346,-162.91346)"><g data-paper-data="{&quot;isPaintingLayer&quot;:true}" stroke-miterlimit="10" stroke-dasharray="" stroke-dashoffset="0" style="mix-blend-mode: normal"><path d="M229.98313,162.91346h20.03378c3.9166,0 7.06966,3.15307 7.06966,7.06966v20.03379c0,3.91659 -3.15306,7.06966 -7.06966,7.06966h-20.03378c-3.91659,0 -7.06967,-3.15307 -7.06967,-7.06966v-20.03379c0,-3.91659 3.15308,-7.06966 7.06967,-7.06966z" fill-opacity="0.09677" fill="#191919" fill-rule="evenodd" stroke="none" stroke-width="4.43922" stroke-linecap="round" stroke-linejoin="round"/><g fill-rule="nonzero" stroke="#000000" stroke-width="0.5" stroke-linejoin="miter"><g stroke-linecap="butt"><path d="M229.25377,186.51397v-12.28623h1.28713v12.28623z" fill="#ffffff"/><path d="M226.79652,174.22775c0,-1.71253 1.38828,-3.10081 3.10081,-3.10081c1.71253,0 3.10081,1.38828 3.10081,3.10081c0,1.71253 -1.38828,3.10081 -3.10081,3.10081c-1.71253,0 -3.10081,-1.38828 -3.10081,-3.10081z" fill="#cccccc"/></g><path d="M243.10818,187.42249c0.57101,-1.38894 1.93742,-2.3669 3.53224,-2.3669c2.10835,0 9.60958,3.81751 9.60958,3.81751" data-paper-data="{&quot;index&quot;:null}" fill="#cccccc" stroke-linecap="butt"/><g stroke-linecap="butt"><path d="M249.175,186.51397v-12.28623h1.28713v12.28623z" fill="#ffffff"/><path d="M246.71776,174.22775c0,-1.71253 1.38828,-3.10081 3.10081,-3.10081c1.71253,0 3.10081,1.38828 3.10081,3.10081c0,1.71253 -1.38828,3.10081 -3.10081,3.10081c-1.71253,0 -3.10081,-1.38828 -3.10081,-3.10081z" fill="#cccccc"/></g><path d="M223.75001,188.87309c0,0 7.50123,-3.81751 9.60958,-3.81751c1.56942,0 2.91764,0.94705 3.50435,2.30083" data-paper-data="{&quot;index&quot;:null}" fill="#cccccc" stroke-linecap="butt"/><path d="M228.65103,188.25232c0,-5.84506 5.04787,-10.58341 11.27472,-10.58341c6.22686,0 11.27472,4.73836 11.27472,10.58341" fill="#cccccc" stroke-linecap="butt"/><path d="M236.08134,179.61896l5.83596,-3.42259l-0.57043,2.41337l3.94914,-1.05311l-2.545,2.72052" fill="#cccccc" stroke-linecap="round"/></g></g></g></svg>