<svg version="1.1" xmlns="http://www.w3.org/2000/svg" xmlns:xlink="http://www.w3.org/1999/xlink" width="35.17311" height="35.17311" viewBox="0,0,35.17311,35.17311"><g transform="translate(-222.41348,-162.41347)"><g data-paper-data="{&quot;isPaintingLayer&quot;:true}" fill="#000000" stroke="#ffffff" stroke-miterlimit="10" stroke-dasharray="" stroke-dashoffset="0" style="mix-blend-mode: normal"><path d="M229.98314,162.91348h20.03379c3.9166,0 7.06966,3.15307 7.06966,7.06966v20.03379c0,3.91659 -3.15306,7.06966 -7.06966,7.06966h-20.03379c-3.91659,0 -7.06966,-3.15307 -7.06966,-7.06966v-20.03379c0,-3.91659 3.15307,-7.06966 7.06966,-7.06966z" fill-rule="evenodd" stroke-width="1" stroke-linecap="round" stroke-linejoin="round"/><g fill-rule="nonzero" stroke-width="0.5" stroke-linecap="butt" stroke-linejoin="miter"><path d="M255.53726,184.13243c0,2.09457 -6.95627,3.79256 -15.53726,3.79256c-8.58099,0 -15.53726,-1.69799 -15.53726,-3.79256c0,-2.09457 6.95627,-3.79256 15.53726,-3.79256c8.58099,0 15.53726,1.69799 15.53726,3.79256z"/><path d="M230.33509,184.06369v-9.72467c0,0 2.22633,-2.11188 9.9334,-2.25751c7.79016,-0.14721 9.39641,2.25751 9.39641,2.25751v9.72467c0,0 -2.05075,1.09872 -9.45758,0.92616c-6.61924,-0.15421 -9.87223,-0.92616 -9.87223,-0.92616z"/></g></g></g></svg>