<svg version="1.1" xmlns="http://www.w3.org/2000/svg" xmlns:xlink="http://www.w3.org/1999/xlink" width="146.94879" height="299.06702" viewBox="0,0,146.94879,299.06702"><defs><linearGradient x1="240.00005" y1="175.50005" x2="240.00005" y2="307.50005" gradientUnits="userSpaceOnUse" id="color-1"><stop offset="0" stop-color="#000000"/><stop offset="1" stop-color="#65325d"/></linearGradient><linearGradient x1="191.67297" y1="13.27897" x2="196.98436" y2="119.87571" gradientUnits="userSpaceOnUse" id="color-2"><stop offset="0" stop-color="#000000"/><stop offset="1" stop-color="#4c2646"/></linearGradient><linearGradient x1="283.05031" y1="8.72591" x2="288.3617" y2="115.32266" gradientUnits="userSpaceOnUse" id="color-3"><stop offset="0" stop-color="#000000"/><stop offset="1" stop-color="#4c2647"/></linearGradient><linearGradient x1="239.67658" y1="78.87159" x2="245.67811" y2="199.31883" gradientUnits="userSpaceOnUse" id="color-4"><stop offset="0" stop-color="#1b0d19"/><stop offset="1" stop-color="#804076"/></linearGradient><linearGradient x1="223.76287" y1="67.79081" x2="224.89344" y2="90.48069" gradientUnits="userSpaceOnUse" id="color-5"><stop offset="0" stop-color="#33002b"/><stop offset="1" stop-color="#990085"/></linearGradient><linearGradient x1="258.22012" y1="66.0739" x2="259.35069" y2="88.76377" gradientUnits="userSpaceOnUse" id="color-6"><stop offset="0" stop-color="#33002b"/><stop offset="1" stop-color="#990085"/></linearGradient><linearGradient x1="241.06873" y1="71.13992" x2="241.84009" y2="86.62072" gradientUnits="userSpaceOnUse" id="color-7"><stop offset="0" stop-color="#1a0016"/><stop offset="1" stop-color="#80006e"/></linearGradient><linearGradient x1="280.09355" y1="66.08093" x2="284.72882" y2="159.10825" gradientUnits="userSpaceOnUse" id="color-8"><stop offset="0" stop-color="#1a0d17"/><stop offset="1" stop-color="#66335d"/></linearGradient><linearGradient x1="247.72305" y1="69.69631" x2="253.70298" y2="189.71007" gradientUnits="userSpaceOnUse" id="color-9"><stop offset="0" stop-color="#4c0000"/><stop offset="1" stop-color="#650000"/></linearGradient><radialGradient cx="248.63074" cy="130.43386" r="34.54447" gradientUnits="userSpaceOnUse" id="color-10"><stop offset="0" stop-color="#330000"/><stop offset="1" stop-color="#330000" stop-opacity="0"/></radialGradient><radialGradient cx="219.89721" cy="139.61137" r="23.48065" gradientUnits="userSpaceOnUse" id="color-11"><stop offset="0" stop-color="#808080"/><stop offset="1" stop-color="#804040"/></radialGradient><radialGradient cx="276.80358" cy="126.09599" r="23.48065" gradientUnits="userSpaceOnUse" id="color-12"><stop offset="0" stop-color="#808080"/><stop offset="1" stop-color="#804040"/></radialGradient><linearGradient x1="245.79404" y1="188.90959" x2="247.98228" y2="181.15169" gradientUnits="userSpaceOnUse" id="color-13"><stop offset="0" stop-color="#4d4d4d"/><stop offset="1" stop-color="#808080"/></linearGradient><linearGradient x1="263.28353" y1="164.93941" x2="269.36562" y2="174.42495" gradientUnits="userSpaceOnUse" id="color-14"><stop offset="0" stop-color="#4d4d4d"/><stop offset="1" stop-color="#808080"/></linearGradient><linearGradient x1="281.448" y1="152.48804" x2="284.52258" y2="161.1774" gradientUnits="userSpaceOnUse" id="color-15"><stop offset="0" stop-color="#4d4d4d"/><stop offset="1" stop-color="#808080"/></linearGradient></defs><g transform="translate(-170.64264,-8.43303)"><g data-paper-data="{&quot;isPaintingLayer&quot;:true}" fill-rule="nonzero" stroke-width="0" stroke-linejoin="miter" stroke-miterlimit="10" stroke-dasharray="" stroke-dashoffset="0" style="mix-blend-mode: normal"><path d="M206.75006,307.50004l15.14285,-131.8421l37.78325,-0.15789l13.57389,132z" fill="url(#color-1)" stroke="none" stroke-linecap="butt"/><g><path d="M186.78144,120.38409c0,0 -34.43287,-101.33197 -2.70876,-106.59816c32.40169,-5.37868 33.86133,74.90755 33.86133,74.90755" fill="url(#color-2)" stroke="none" stroke-linecap="round"/><path d="M264.41608,86.37742c0,0 -6.52862,-80.03366 26.24726,-77.90258c32.09047,2.0865 7.90128,106.33943 7.90128,106.33943" data-paper-data="{&quot;index&quot;:null}" fill="url(#color-3)" stroke="none" stroke-linecap="round"/><path d="M178.51992,142.29198c-1.65728,-33.26059 25.7235,-61.65486 61.15666,-63.42039c35.43316,-1.76553 65.50091,23.76627 67.15819,57.02685c1.65728,33.26059 -25.7235,61.65486 -61.15666,63.42039c-35.43316,1.76553 -65.50091,-23.76627 -67.15819,-57.02685z" fill="url(#color-4)" stroke="none" stroke-linecap="butt"/><g stroke="#000000" stroke-linecap="butt"><path d="M213.42491,89.03249c-3.50318,-6.88392 2.52757,-9.21056 2.52757,-9.21056c0,0 -4.88838,-1.92395 -3.91969,-8.68136c1.24489,-8.68407 24.41864,4.45528 24.41864,4.45528l0.20943,7.55223c0,0 -20.01661,12.21059 -23.23595,5.88442z" fill="url(#color-5)"/><path d="M246.91264,82.63725l-0.54235,-7.53564c0,0 21.75282,-15.37791 23.8548,-6.8606c1.63563,6.62764 -3.03728,9.02801 -3.03728,9.02801c0,0 6.23216,1.71561 3.43064,8.91368c-2.57453,6.61485 -23.70581,-3.54546 -23.70581,-3.54546z" data-paper-data="{&quot;index&quot;:null}" fill="url(#color-6)"/><path d="M233.71402,79.266c-0.21301,-4.2749 3.07982,-7.91307 7.35472,-8.12608c4.2749,-0.21301 7.91307,3.07982 8.12608,7.35472c0.21301,4.2749 -3.07982,7.91307 -7.35472,8.12608c-4.2749,0.21301 -7.91307,-3.07982 -8.12608,-7.35472z" fill="url(#color-7)"/></g><path d="M245.59399,96.74285l18.63416,-18.54132l5.98942,3.64292l15.32699,-16.03513l5.75618,12.12399l19.36602,-9.11172l-7.14981,23.57532l14.07448,3.19672l-7.70018,16.42128l5.99907,15.04747l-9.4256,12.96283l-6.54908,18.32632l-4.52674,-2.59083z" fill="url(#color-8)" stroke="none" stroke-linecap="butt"/><path d="M223.37744,173.37105c0,0 -4.85376,2.73072 -7.35624,3.78809c-2.58372,1.0917 -7.91014,2.66241 -7.91014,2.66241c0,0 2.48827,-6.71706 2.94853,-10.08695c0.36944,-2.70494 -0.39906,-8.57953 -0.39906,-8.57953c0,0 -7.07675,2.37248 -10.94464,1.94681c-3.55784,-0.39154 -11.41035,-4.40697 -11.41035,-4.40697c0,0 1.50667,-7.94049 2.78394,-11.20583c1.09596,-2.8018 4.41938,-7.20931 4.41938,-7.20931c0,0 -1.87254,-3.02271 -3.63189,-4.16446c-1.76923,-1.14816 -6.95403,-2.70537 -6.95403,-2.70537c0,0 5.995,-8.82793 8.93645,-11.94864c3.00138,-3.1843 8.89564,-6.97027 8.89564,-6.97027l-5.02633,-1.83569c0,0 7.35132,-1.22299 9.8283,-2.27218c2.46562,-1.04437 4.99967,-4.00856 4.99967,-4.00856c0,0 2.82358,-5.68212 4.32405,-7.98562c1.22546,-1.88132 4.02193,-4.827 4.02193,-4.827c0,0 0.06914,2.76785 0.64742,4.23971c0.6441,1.63941 3.04106,5.14839 3.04106,5.14839c0,0 8.45535,-7.85374 12.00351,-10.38533c2.54727,-1.81746 7.2962,-3.38485 7.2962,-3.38485c0,0 -0.43394,3.41171 -0.16323,4.51432c0.30273,1.23302 1.89431,2.53638 1.89431,2.53638l18.68585,-16.43105l6.19913,3.83272l14.93744,-15.81547l5.33677,11.7444l17.39836,-8.41294l-6.81997,22.15715l13.68493,3.41638l-7.14074,15.59241l5.95926,14.24846l-8.80644,13.33247l-5.14086,18.4564l-4.52674,-2.59083l-15.11026,19.2787l-2.93605,-5.26818l-13.99511,19.45828l-4.36586,-7.95385l-28.06781,9.10554c0,0 -1.62595,-5.97394 -2.90356,-8.85761c-1.23291,-2.78279 -4.6328,-8.15255 -4.6328,-8.15255z" fill="url(#color-9)" stroke="none" stroke-linecap="butt"/><path d="M237.20165,165.59066l-17.76772,-57.83215l40.62589,-12.48146l17.76772,57.83216z" fill="url(#color-10)" stroke="none" stroke-linecap="butt"/><path d="M227.73719,164.46147c6.01768,-6.51555 15.32795,7.45023 28.77637,5.58182c9.5828,-1.33135 23.65653,-18.68417 31.74633,-19.45852c9.64846,-0.92355 7.30378,5.3341 7.30378,5.3341l-14.79107,21.66578l-2.9261,-5.06843l-14.60432,19.28839l-5.54447,-7.49462l-26.76746,5.9226c0,0 -0.88589,-4.67674 -2.19191,-7.98748c-1.24276,-3.15035 -6.15104,-12.20766 -1.00114,-17.78364z" fill="#190000" stroke="none" stroke-linecap="butt"/><path d="M196.44566,140.77989c-0.64536,-12.95193 9.3311,-23.97472 22.28304,-24.62008c12.95193,-0.64536 23.97472,9.3311 24.62008,22.28304c0.64536,12.95193 -9.3311,23.97472 -22.28304,24.62008c-12.95193,0.64536 -23.97472,-9.3311 -24.62008,-22.28304z" fill="url(#color-11)" stroke="none" stroke-linecap="butt"/><path d="M213.19275,142.33943c-0.19774,-3.9685 2.85906,-7.34589 6.82755,-7.54363c3.9685,-0.19774 7.34589,2.85906 7.54363,6.82756c0.19774,3.9685 -2.85905,7.34589 -6.82756,7.54363c-3.9685,0.19774 -7.34588,-2.85906 -7.54362,-6.82756z" fill="#000000" stroke="none" stroke-linecap="butt"/><path d="M277.9721,149.54753c-12.95193,0.64536 -23.97472,-9.3311 -24.62008,-22.28304c-0.64536,-12.95193 9.3311,-23.97472 22.28304,-24.62008c12.95193,-0.64536 23.97472,9.3311 24.62008,22.28304c0.64536,12.95193 -9.3311,23.97472 -22.28304,24.62008z" data-paper-data="{&quot;index&quot;:null}" fill="url(#color-12)" stroke="none" stroke-linecap="butt"/><path d="M280.51455,132.5048c-3.32496,0.16567 -6.15467,-2.39543 -6.32034,-5.72038c-0.16567,-3.32496 2.39543,-6.15467 5.72038,-6.32034c3.32496,-0.16567 6.15467,2.39543 6.32034,5.72038c0.16567,3.32496 -2.39543,6.15467 -5.72038,6.32034z" data-paper-data="{&quot;index&quot;:null}" fill="#000000" stroke="none" stroke-linecap="butt"/><path d="M248.03297,165.6872c0,0 -1.24947,-3.80415 -1.62838,-5.9204c-0.36779,-2.05419 2.6084,-7.2576 2.6084,-7.2576l7.60969,11.08866c0,0 -2.51369,1.56282 -3.60637,1.80893c-1.11266,0.25061 -4.98334,0.2804 -4.98334,0.2804z" fill="#190000" stroke="none" stroke-linecap="butt"/><path d="M265.9211,159.79292c-1.18078,1.58185 -7.373,1.69169 -7.373,1.69169l-7.12911,-11.40932c0,0 5.9867,2.52335 7.93421,3.27315c2.00635,0.77244 9.68792,1.25913 9.68792,1.25913c0,0 -1.93924,3.60351 -3.12002,5.18536z" data-paper-data="{&quot;index&quot;:null}" fill="#190000" stroke="none" stroke-linecap="butt"/><path d="M250.43214,181.84272c0,0 -0.52701,2.19673 -1.40621,4.17981c-0.08146,0.18373 -4.82501,1.30358 -4.8578,1.11146c-0.43266,-2.53521 1.36429,-6.67331 1.36429,-6.67331z" fill="url(#color-13)" stroke="none" stroke-linecap="butt"/><path d="M266.37019,176.34561c0,0 -6.98516,-9.08261 -3.04186,-11.61103c3.94329,-2.52842 9.03273,7.76971 9.03273,7.76971z" fill="url(#color-14)" stroke="none" stroke-linecap="butt"/><path d="M281.77858,162.14832c0,0 -3.86899,-8.53691 -0.25669,-9.81506c3.6123,-1.27815 5.7447,7.87322 5.7447,7.87322z" fill="url(#color-15)" stroke="none" stroke-linecap="butt"/></g></g></g></svg>