<svg version="1.1" xmlns="http://www.w3.org/2000/svg" xmlns:xlink="http://www.w3.org/1999/xlink" width="34.17311" height="34.17311" viewBox="0,0,34.17311,34.17311"><g transform="translate(-222.91346,-162.91346)"><g data-paper-data="{&quot;isPaintingLayer&quot;:true}" stroke-miterlimit="10" stroke-dasharray="" stroke-dashoffset="0" style="mix-blend-mode: normal"><path d="M229.98313,162.91346h20.03378c3.9166,0 7.06966,3.15307 7.06966,7.06966v20.03379c0,3.91659 -3.15306,7.06966 -7.06966,7.06966h-20.03378c-3.91659,0 -7.06967,-3.15307 -7.06967,-7.06966v-20.03379c0,-3.91659 3.15308,-7.06966 7.06967,-7.06966z" fill-opacity="0.09677" fill="#191919" fill-rule="evenodd" stroke="none" stroke-width="4.43922" stroke-linecap="round" stroke-linejoin="round"/><g fill-rule="nonzero" stroke="#000000" stroke-width="0.5" stroke-linecap="butt" stroke-linejoin="miter"><path d="M224.26608,180.00003c0,0 7.0888,-4.29364 9.82224,-6.85949c2.48809,-2.33553 5.91168,-7.90971 5.91168,-7.90971c0,0 3.14395,6.44268 5.72336,8.86394c2.66259,2.49933 10.01056,5.90525 10.01056,5.90525c0,0 -6.41595,3.22492 -8.9812,5.63288c-2.67481,2.5108 -6.75272,9.13631 -6.75272,9.13631c0,0 -3.32032,-6.52635 -5.90851,-8.95584c-2.65476,-2.49198 -9.82541,-5.81335 -9.82541,-5.81335z" fill="#808080"/><path d="M228.87444,191.12559c0,0 1.97647,-8.0486 2.09498,-11.79576c0.10787,-3.41081 -1.41282,-9.77319 -1.41282,-9.77319c0,0 6.77877,2.33256 10.31478,2.22073c3.65003,-0.11544 11.25418,-2.90289 11.25418,-2.90289c0,0 -2.2564,6.81712 -2.36761,10.33371c-0.11597,3.66678 1.68545,11.23524 1.68545,11.23524c0,0 -6.96264,-2.267 -10.51069,-2.15479c-3.63929,0.1151 -11.05827,2.83695 -11.05827,2.83695z" fill="#808080"/><path d="M229.40576,180.00003c0,-5.44986 4.70657,-9.86785 10.51242,-9.86785c5.80585,0 10.51242,4.41799 10.51242,9.86785c0,5.44986 -4.70657,9.86785 -10.51242,9.86785c-5.80585,0 -10.51242,-4.41799 -10.51242,-9.86785z" fill="#ffffff"/></g></g></g></svg>