<svg version="1.1" xmlns="http://www.w3.org/2000/svg" xmlns:xlink="http://www.w3.org/1999/xlink" width="35.125" height="35.12434" viewBox="0,0,35.125,35.12434"><g transform="translate(-222.43752,-162.43783)"><g data-paper-data="{&quot;isPaintingLayer&quot;:true}" stroke-miterlimit="10" stroke-dasharray="" stroke-dashoffset="0" style="mix-blend-mode: normal"><path d="M257.56251,169.8317v20.49804c0,4.00745 -3.22497,7.23243 -7.23242,7.23243h-20.5c-3.66107,0 -6.66147,-2.69385 -7.1543,-6.21484c0.7952,3.03475 3.54108,5.26367 6.83204,5.26367h20.0332c3.9166,0 7.07032,-3.15372 7.07032,-7.07031v-20.03321c0,-3.2976 -2.23906,-6.0451 -5.28321,-6.83398c3.52994,0.48496 6.23438,3.49081 6.23438,7.15821z" fill-opacity="0.29839" fill="#000000" fill-rule="evenodd" stroke="none" stroke-width="4.54219" stroke-linecap="round" stroke-linejoin="round"/><path d="M229.50719,162.43783h20.03378c3.9166,0 7.06966,3.15307 7.06966,7.06966v20.03379c0,3.91659 -3.15307,7.06966 -7.06966,7.06966h-20.03378c-3.91659,0 -7.06967,-3.15307 -7.06967,-7.06966v-20.03379c0,-3.91659 3.15308,-7.06966 7.06967,-7.06966z" fill="#babebf" fill-rule="evenodd" stroke="none" stroke-width="4.43922" stroke-linecap="round" stroke-linejoin="round"/><g fill-rule="nonzero" stroke="#000000" stroke-width="0.5" stroke-linecap="butt" stroke-linejoin="miter"><path d="M228.66085,181.07068v-12.62037h1.32213v12.62037z" fill="#ffe9b3"/><path d="M226.13677,168.45031c0,-1.75911 1.42604,-3.18515 3.18514,-3.18515c1.75911,0 3.18514,1.42604 3.18514,3.18515c0,1.75911 -1.42604,3.18514 -3.18514,3.18514c-1.75911,0 -3.18514,-1.42603 -3.18514,-3.18514z" fill="#ffc633"/></g><g fill-rule="nonzero" stroke="#000000" stroke-width="0.5" stroke-linecap="butt" stroke-linejoin="miter"><path d="M249.12388,181.07068v-12.62037h1.32214v12.62037z" fill="#ffe9b3"/><path d="M246.59981,168.45031c0,-1.75911 1.42603,-3.18515 3.18514,-3.18515c1.75911,0 3.18515,1.42604 3.18515,3.18515c0,1.75911 -1.42604,3.18514 -3.18515,3.18514c-1.75911,0 -3.18514,-1.42603 -3.18514,-3.18514z" fill="#ffc633"/></g><path d="M235.97201,187.17635h7.27443c0.44072,0 0.79552,0.3548 0.79552,0.79552v3.30399c0,0.44072 -0.3548,0.79552 -0.79552,0.79552h-7.27442c-0.44072,0 -0.79552,-0.3548 -0.79552,-0.79552v-3.30399c0,-0.44072 0.3548,-0.79552 0.79552,-0.79552z" fill="#000000" fill-rule="evenodd" stroke="#000000" stroke-width="0.5" stroke-linecap="round" stroke-linejoin="round"/><path d="M230.02995,176.37189h19.15854c1.16072,0 2.09516,0.93444 2.09516,2.09516v8.70165c0,1.16072 -0.93444,2.09516 -2.09516,2.09516h-19.15853c-1.16072,0 -2.09516,-0.93444 -2.09516,-2.09516v-8.70165c0,-1.16072 0.93444,-2.09516 2.09516,-2.09516z" fill="#ffc633" fill-rule="evenodd" stroke="#000000" stroke-width="0.5" stroke-linecap="round" stroke-linejoin="round"/><path d="M231.45999,177.33418h16.29846c0.98745,0 1.78239,0.79494 1.78239,1.78238v7.40264c0,0.98744 -0.79495,1.78238 -1.78239,1.78238h-16.29846c-0.98744,0 -1.78239,-0.79494 -1.78239,-1.78238v-7.40264c0,-0.98744 0.79495,-1.78238 1.78239,-1.78238z" fill="#000000" fill-rule="evenodd" stroke="#000000" stroke-width="0.5" stroke-linecap="round" stroke-linejoin="round"/></g></g></svg>