<svg version="1.1" xmlns="http://www.w3.org/2000/svg" xmlns:xlink="http://www.w3.org/1999/xlink" width="34.17311" height="34.17311" viewBox="0,0,34.17311,34.17311"><g transform="translate(-222.91346,-162.91346)"><g data-paper-data="{&quot;isPaintingLayer&quot;:true}" stroke-miterlimit="10" stroke-dasharray="" stroke-dashoffset="0" style="mix-blend-mode: normal"><path d="M229.98314,162.91347h20.03378c3.9166,0 7.06966,3.15307 7.06966,7.06966v20.03379c0,3.91659 -3.15306,7.06966 -7.06966,7.06966h-20.03378c-3.91659,0 -7.06967,-3.15307 -7.06967,-7.06966v-20.03379c0,-3.91659 3.15308,-7.06966 7.06967,-7.06966z" fill-opacity="0.09677" fill="#191919" fill-rule="evenodd" stroke="none" stroke-width="4.43922" stroke-linecap="round" stroke-linejoin="round"/><path d="M228.97059,188.83363c0,-5.56024 4.8019,-10.06771 10.72533,-10.06771c5.92344,0 10.72533,4.50747 10.72533,10.06771" fill="#bfbfbf" fill-rule="nonzero" stroke="#000000" stroke-width="0.5" stroke-linecap="butt" stroke-linejoin="miter"/><path d="M255.75038,181.48136c0,1.72129 -7.05168,3.11668 -15.75036,3.11668c-8.69869,0 -15.75036,-1.39538 -15.75036,-3.11668c0,-1.72129 7.05168,-3.9515 15.75036,-3.9515c8.69869,0 15.75036,2.23021 15.75036,3.9515z" fill="#bfbfbf" fill-rule="nonzero" stroke="#000000" stroke-width="0.5" stroke-linecap="butt" stroke-linejoin="miter"/><path d="M238.57695,179.57189l0.47763,-6.68654c0,0 0.12913,-1.13394 -0.53553,-0.88577c-0.53367,0.19926 -1.8237,0.92134 -1.8237,0.92134c0,0 0.66043,-1.21828 1.49937,-1.66201c0.67266,-0.35578 1.53151,0.42945 1.53151,0.42945c0,0 0.78982,-0.695 1.29974,-0.37841c0.67017,0.41608 1.22084,1.64246 1.22084,1.64246c0,0 -0.99828,-0.56891 -1.43942,-0.79249c-0.48665,-0.24664 -0.53565,0.69072 -0.53565,0.69072l0.5175,6.72125c0,0 -0.40615,0.25045 -1.11465,0.22262c-0.61244,-0.02405 -1.09764,-0.22262 -1.09764,-0.22262z" fill="#bfbfbf" fill-rule="nonzero" stroke="#000000" stroke-width="0.5" stroke-linecap="butt" stroke-linejoin="miter"/></g></g></svg>