<svg version="1.1" xmlns="http://www.w3.org/2000/svg" xmlns:xlink="http://www.w3.org/1999/xlink" width="148" height="281.83823" viewBox="0,0,148,281.83823"><defs><linearGradient x1="240.00007" y1="234.25217" x2="240.00007" y2="307.83338" gradientUnits="userSpaceOnUse" id="color-1"><stop offset="0" stop-color="#1a0000"/><stop offset="1" stop-color="#330000"/></linearGradient><linearGradient x1="240.00007" y1="175.50005" x2="240.00007" y2="307.50005" gradientUnits="userSpaceOnUse" id="color-2"><stop offset="0" stop-color="#000000"/><stop offset="1" stop-color="#426600"/></linearGradient><linearGradient x1="239.07699" y1="85.04784" x2="239.07699" y2="200.64453" gradientUnits="userSpaceOnUse" id="color-3"><stop offset="0" stop-color="#000000"/><stop offset="1" stop-color="#1a0000"/></linearGradient><linearGradient x1="270.15353" y1="172.84627" x2="270.15353" y2="179.5909" gradientUnits="userSpaceOnUse" id="color-4"><stop offset="0" stop-color="#4d4d4d"/><stop offset="1" stop-color="#808080"/></linearGradient><linearGradient x1="267.42704" y1="172.19691" x2="267.42704" y2="180.25757" gradientUnits="userSpaceOnUse" id="color-5"><stop offset="0" stop-color="#4d4d4d"/><stop offset="1" stop-color="#808080"/></linearGradient><linearGradient x1="263.42382" y1="171.70994" x2="263.42382" y2="180.75757" gradientUnits="userSpaceOnUse" id="color-6"><stop offset="0" stop-color="#4d4d4d"/><stop offset="1" stop-color="#808080"/></linearGradient><linearGradient x1="257.91846" y1="170.89824" x2="257.91846" y2="181.5909" gradientUnits="userSpaceOnUse" id="color-7"><stop offset="0" stop-color="#4d4d4d"/><stop offset="1" stop-color="#808080"/></linearGradient><linearGradient x1="244.41204" y1="170.09089" x2="244.41204" y2="182.75757" gradientUnits="userSpaceOnUse" id="color-8"><stop offset="0" stop-color="#4d4d4d"/><stop offset="1" stop-color="#808080"/></linearGradient><linearGradient x1="251.5253" y1="170.24889" x2="251.5253" y2="182.25757" gradientUnits="userSpaceOnUse" id="color-9"><stop offset="0" stop-color="#4d4d4d"/><stop offset="1" stop-color="#808080"/></linearGradient><linearGradient x1="211.04129" y1="172.67962" x2="211.04129" y2="179.42421" gradientUnits="userSpaceOnUse" id="color-10"><stop offset="0" stop-color="#4d4d4d"/><stop offset="1" stop-color="#808080"/></linearGradient><linearGradient x1="213.76778" y1="172.03027" x2="213.76778" y2="180.0909" gradientUnits="userSpaceOnUse" id="color-11"><stop offset="0" stop-color="#4d4d4d"/><stop offset="1" stop-color="#808080"/></linearGradient><linearGradient x1="217.771" y1="171.54326" x2="217.771" y2="180.5909" gradientUnits="userSpaceOnUse" id="color-12"><stop offset="0" stop-color="#4d4d4d"/><stop offset="1" stop-color="#808080"/></linearGradient><linearGradient x1="223.27636" y1="170.73156" x2="223.27636" y2="181.42421" gradientUnits="userSpaceOnUse" id="color-13"><stop offset="0" stop-color="#4d4d4d"/><stop offset="1" stop-color="#808080"/></linearGradient><linearGradient x1="236.78278" y1="169.92421" x2="236.78278" y2="182.5909" gradientUnits="userSpaceOnUse" id="color-14"><stop offset="0" stop-color="#4d4d4d"/><stop offset="1" stop-color="#808080"/></linearGradient><linearGradient x1="229.66952" y1="170.08221" x2="229.66952" y2="182.0909" gradientUnits="userSpaceOnUse" id="color-15"><stop offset="0" stop-color="#4d4d4d"/><stop offset="1" stop-color="#808080"/></linearGradient><linearGradient x1="267.32433" y1="199.12044" x2="267.32433" y2="193.06588" gradientUnits="userSpaceOnUse" id="color-16"><stop offset="0" stop-color="#4d4d4d"/><stop offset="1" stop-color="#808080"/></linearGradient><linearGradient x1="264.87679" y1="201.16209" x2="264.87679" y2="193.92618" gradientUnits="userSpaceOnUse" id="color-17"><stop offset="0" stop-color="#4d4d4d"/><stop offset="1" stop-color="#808080"/></linearGradient><linearGradient x1="261.28315" y1="202.60918" x2="261.28315" y2="194.48724" gradientUnits="userSpaceOnUse" id="color-18"><stop offset="0" stop-color="#4d4d4d"/><stop offset="1" stop-color="#808080"/></linearGradient><linearGradient x1="256.34106" y1="204.34772" x2="256.34106" y2="194.74906" gradientUnits="userSpaceOnUse" id="color-19"><stop offset="0" stop-color="#4d4d4d"/><stop offset="1" stop-color="#808080"/></linearGradient><linearGradient x1="244.21651" y1="207.09227" x2="244.21651" y2="195.72156" gradientUnits="userSpaceOnUse" id="color-20"><stop offset="0" stop-color="#4d4d4d"/><stop offset="1" stop-color="#808080"/></linearGradient><linearGradient x1="250.60199" y1="206.05272" x2="250.60199" y2="195.2727" gradientUnits="userSpaceOnUse" id="color-21"><stop offset="0" stop-color="#4d4d4d"/><stop offset="1" stop-color="#808080"/></linearGradient><linearGradient x1="214.03716" y1="199.12044" x2="214.03716" y2="193.06588" gradientUnits="userSpaceOnUse" id="color-22"><stop offset="0" stop-color="#4d4d4d"/><stop offset="1" stop-color="#808080"/></linearGradient><linearGradient x1="216.4847" y1="201.16209" x2="216.4847" y2="193.92618" gradientUnits="userSpaceOnUse" id="color-23"><stop offset="0" stop-color="#4d4d4d"/><stop offset="1" stop-color="#808080"/></linearGradient><linearGradient x1="220.07834" y1="202.60918" x2="220.07834" y2="194.48724" gradientUnits="userSpaceOnUse" id="color-24"><stop offset="0" stop-color="#4d4d4d"/><stop offset="1" stop-color="#808080"/></linearGradient><linearGradient x1="225.02043" y1="204.34772" x2="225.02043" y2="194.74906" gradientUnits="userSpaceOnUse" id="color-25"><stop offset="0" stop-color="#4d4d4d"/><stop offset="1" stop-color="#808080"/></linearGradient><linearGradient x1="237.14498" y1="207.09227" x2="237.14498" y2="195.72156" gradientUnits="userSpaceOnUse" id="color-26"><stop offset="0" stop-color="#4d4d4d"/><stop offset="1" stop-color="#808080"/></linearGradient><linearGradient x1="230.7595" y1="206.05272" x2="230.7595" y2="195.2727" gradientUnits="userSpaceOnUse" id="color-27"><stop offset="0" stop-color="#4d4d4d"/><stop offset="1" stop-color="#808080"/></linearGradient><linearGradient x1="239.07699" y1="82.54784" x2="239.07699" y2="203.14454" gradientUnits="userSpaceOnUse" id="color-28"><stop offset="0" stop-color="#111a00"/><stop offset="1" stop-color="#538000"/></linearGradient><linearGradient x1="241.89814" y1="31.77432" x2="241.89814" y2="152.77434" gradientUnits="userSpaceOnUse" id="color-29"><stop offset="0" stop-color="#000000"/><stop offset="1" stop-color="#324d00"/></linearGradient></defs><g transform="translate(-167.89814,-31.77428)"><g data-paper-data="{&quot;isPaintingLayer&quot;:true}" fill-rule="nonzero" stroke-linejoin="miter" stroke-miterlimit="10" stroke-dasharray="" stroke-dashoffset="0" style="mix-blend-mode: normal"><path d="M179.28375,313.61251v-267.22501h123.18203v267.22501z" fill-opacity="0.01" fill="#000000" stroke="none" stroke-width="0" stroke-linecap="butt"/><path d="M208.08341,307.83333l8.11234,-73.5812l48.55552,0.98938l7.16546,72.59183z" data-paper-data="{&quot;index&quot;:null}" fill="url(#color-1)" stroke="#000000" stroke-width="0" stroke-linecap="butt"/><path d="M211.71054,233.38741l10.18238,-57.72947l37.78325,-0.15789l8.66729,58.11186l0.65332,5.16028c0,0 -3.39972,-2.76518 -8.52575,-1.43368c-3.6132,0.93854 -6.50085,7.05588 -6.50085,7.05588c0,0 -3.22409,-6.32102 -11.05472,-5.60092c-7.61174,0.69998 -10.58945,6.29819 -10.58945,6.29819c0,0 -0.4742,-7.12314 -5.41843,-8.80255c-5.67753,-1.92849 -15.01279,3.47861 -15.01279,3.47861z" fill="url(#color-2)" stroke="#000000" stroke-width="0" stroke-linecap="butt"/><path d="M292.16794,172.13978c-10.7049,17.05821 -17.67426,39.21856 -53.09095,39.08688c-34.35272,-0.12772 -44.01621,-22.99495 -54.37207,-41.2315c-4.5965,-8.09439 107.46302,2.14463 107.46302,2.14463z" fill="url(#color-3)" stroke="#000000" stroke-width="0" stroke-linecap="butt"/><path d="M213.44603,196.59913c0,0 -0.02249,-2.67745 -0.46503,-7.61355c-0.42326,-4.72098 -2.24211,-13.6543 -2.24211,-13.6543h60.4c0,0 -2.27411,8.9994 -2.74584,13.74812c-0.52297,5.26464 -0.2363,8.04117 -0.2363,8.04117z" fill="#000000" stroke="none" stroke-width="0" stroke-linecap="butt"/><g stroke="none" stroke-width="0" stroke-linecap="butt"><g><path d="M268.02368,179.5909c0,0 -0.58522,-6.83333 2.21862,-6.83333c2.80383,0 2.04112,6.83333 2.04112,6.83333z" fill="url(#color-4)"/><path d="M264.88158,180.25757c0,0 -0.69941,-8.16667 2.65152,-8.16667c3.35092,0 2.43939,8.16667 2.43939,8.16667z" fill="url(#color-5)"/><path d="M260.56667,180.75757c0,0 -0.78505,-9.16667 2.97619,-9.16667c3.76124,0 2.73809,9.16667 2.73809,9.16667z" fill="url(#color-6)"/><path d="M254.54185,181.5909c0,0 -0.92778,-10.83333 3.51732,-10.83333c4.4451,0 3.23593,10.83333 3.23593,10.83333z" fill="url(#color-7)"/><path d="M240.41204,182.75757c0,0 -1.09907,-12.83333 4.16667,-12.83333c5.26574,0 3.83333,12.83333 3.83333,12.83333z" fill="url(#color-8)"/><path d="M247.73309,182.25757c0,0 -1.04197,-12.16667 3.95022,-12.16667c4.99219,0 3.6342,12.16667 3.6342,12.16667z" fill="url(#color-9)"/></g><g data-paper-data="{&quot;index&quot;:null}"><path d="M208.9114,179.42421c0,0 -0.76271,-6.83333 2.04112,-6.83333c2.80384,0 2.21862,6.83333 2.21862,6.83333z" fill="url(#color-10)"/><path d="M211.22233,180.0909c0,0 -0.91153,-8.16667 2.43939,-8.16667c3.35093,0 2.65152,8.16667 2.65152,8.16667z" fill="url(#color-11)"/><path d="M214.91387,180.5909c0,0 -1.02315,-9.16667 2.73809,-9.16667c3.76124,0 2.97619,9.16667 2.97619,9.16667z" fill="url(#color-12)"/><path d="M219.89972,181.42421c0,0 -1.20917,-10.83333 3.23593,-10.83333c4.4451,0 3.51732,10.83333 3.51732,10.83333z" fill="url(#color-13)"/><path d="M232.78278,182.5909c0,0 -1.43241,-12.83333 3.83333,-12.83333c5.26574,0 4.16667,12.83333 4.16667,12.83333z" fill="url(#color-14)"/><path d="M225.87731,182.0909c0,0 -1.35799,-12.16667 3.6342,-12.16667c4.99219,0 3.95022,12.16667 3.95022,12.16667z" fill="url(#color-15)"/></g></g><g stroke="none" stroke-width="0" stroke-linecap="butt"><g><path d="M269.2363,193.06588c0,0 0.68468,6.1342 -1.83229,6.1342c-2.51697,0 -1.99162,-6.1342 -1.99162,-6.1342z" fill="url(#color-16)"/><path d="M267.16182,193.92618c0,0 0.81827,7.33112 -2.18981,7.33112c-3.00808,0 -2.38024,-7.33112 -2.38024,-7.33112z" fill="url(#color-17)"/><path d="M263.84797,194.48724c0,0 0.91846,8.22881 -2.45795,8.22881c-3.37642,0 -2.67169,-8.22881 -2.67169,-8.22881z" fill="url(#color-18)"/><path d="M259.37222,194.74906c0,0 1.08546,9.72495 -2.90485,9.72495c-3.99031,0 -3.15746,-9.72495 -3.15746,-9.72495z" fill="url(#color-19)"/><path d="M247.80726,195.72156c0,0 1.28585,11.52033 -3.44114,11.52033c-4.72699,0 -3.74036,-11.52033 -3.74036,-11.52033z" fill="url(#color-20)"/><path d="M254.0062,195.2727c0,0 1.21906,10.92187 -3.26237,10.92187c-4.48143,0 -3.54606,-10.92187 -3.54606,-10.92187z" fill="url(#color-21)"/></g><g data-paper-data="{&quot;index&quot;:null}"><path d="M215.9491,193.06588c0,0 0.52535,6.1342 -1.99162,6.1342c-2.51697,0 -1.83229,-6.1342 -1.83229,-6.1342z" fill="url(#color-22)"/><path d="M218.76972,193.92618c0,0 0.62784,7.33112 -2.38024,7.33112c-3.00808,0 -2.18981,-7.33112 -2.18981,-7.33112z" fill="url(#color-23)"/><path d="M222.64316,194.48724c0,0 0.70473,8.22881 -2.67169,8.22881c-3.37641,0 -2.45795,-8.22881 -2.45795,-8.22881z" fill="url(#color-24)"/><path d="M228.05158,194.74906c0,0 0.83285,9.72495 -3.15746,9.72495c-3.99031,0 -2.90485,-9.72495 -2.90485,-9.72495z" fill="url(#color-25)"/><path d="M240.73573,195.72156c0,0 0.98663,11.52033 -3.74036,11.52033c-4.72699,0 -3.44114,-11.52033 -3.44114,-11.52033z" fill="url(#color-26)"/><path d="M234.16372,195.2727c0,0 0.93537,10.92187 -3.54606,10.92187c-4.48143,0 -3.26237,-10.92187 -3.26237,-10.92187z" fill="url(#color-27)"/></g></g><path d="M174.83997,142.84617c0,-33.30185 28.7599,-60.29833 64.23702,-60.29833c35.47712,0 64.23702,26.99649 64.23702,60.29833c0,11.81143 -3.61789,22.82967 -9.87019,32.13153c-0.08301,0.12349 0.60375,5.4363 0.60375,5.4363c0,0 -14.9648,-8.14841 -19.85399,-8.24479c-6.94902,-0.13698 -12.2168,3.76487 -12.2168,3.76487c0,0 -19.59432,-7.01071 -23.79762,-7.08469c-5.98583,-0.10535 -23.59598,9.05635 -23.59598,9.05635c0,0 -6.30551,-6.1738 -11.62653,-4.71168c-7.52336,2.06728 -18.93728,6.47032 -18.93728,6.47032c0,0 -0.54383,-6.60024 -0.68035,-6.8233c-5.40701,-8.83413 -8.49903,-19.07557 -8.49903,-29.9949z" fill="url(#color-28)" stroke="#000000" stroke-width="0" stroke-linecap="butt"/><path d="M175.56481,138.47797l-7.66667,-49.33333l21.66667,9.62963l24.66667,-43.33333l14.33333,22.66667l39,-46.33333l2.33333,55.66667l37.33333,-26l-8.33333,58.66667l17,-6l-17.33333,38.66667" fill="url(#color-29)" stroke="#000000" stroke-width="0" stroke-linecap="round"/><path d="M188.39012,144.52567c0,-12.96801 10.51265,-23.48065 23.48066,-23.48065c12.96801,0 23.48065,10.51264 23.48065,23.48065c0,12.96801 -10.51264,23.48066 -23.48065,23.48066c-12.96801,0 -23.48066,-10.51265 -23.48066,-23.48066z" fill="#000000" stroke="#000000" stroke-width="2" stroke-linecap="butt"/><path d="M266.12922,168.00633c-12.96801,0 -23.48065,-10.51265 -23.48065,-23.48066c0,-12.96801 10.51264,-23.48065 23.48065,-23.48065c12.96801,0 23.48066,10.51264 23.48066,23.48065c0,12.96801 -10.51265,23.48066 -23.48066,23.48066z" data-paper-data="{&quot;index&quot;:null}" fill="#000000" stroke="#000000" stroke-width="2" stroke-linecap="butt"/><path d="M188.39019,143.27567c0,-12.968 10.51265,-23.48065 23.48065,-23.48065c12.968,0 23.48065,10.51265 23.48065,23.48065c0,12.968 -10.51265,23.48065 -23.48065,23.48065c-12.968,0 -23.48065,-10.51265 -23.48065,-23.48065z" fill="#808080" stroke="#000000" stroke-width="2" stroke-linecap="butt"/><path d="M192.70558,143c0,-10.64686 8.63098,-19.27784 19.27783,-19.27784c10.64686,0 19.27784,8.63099 19.27784,19.27784c0,10.64686 -8.63099,19.27784 -19.27784,19.27784c-10.64686,0 -19.27783,-8.63099 -19.27783,-19.27784z" fill="#000000" stroke="none" stroke-width="0" stroke-linecap="butt"/><path d="M266.12927,166.75627c-12.968,0 -23.48065,-10.51265 -23.48065,-23.48065c0,-12.968 10.51265,-23.48065 23.48065,-23.48065c12.968,0 23.48065,10.51265 23.48065,23.48065c0,12.968 -10.51265,23.48065 -23.48065,23.48065z" data-paper-data="{&quot;index&quot;:null}" fill="#808080" stroke="#000000" stroke-width="2" stroke-linecap="butt"/><path d="M266.01671,157.02785c-7.74736,0 -14.02783,-6.28048 -14.02783,-14.02784c0,-7.74737 6.28048,-14.02784 14.02783,-14.02784c7.74736,0 14.02783,6.28048 14.02783,14.02784c0,7.74737 -6.28048,14.02784 -14.02783,14.02784z" data-paper-data="{&quot;index&quot;:null}" fill="#000000" stroke="none" stroke-width="0" stroke-linecap="butt"/><path d="M229.53889,164.70905l5.6,-17.6" fill="none" stroke="#000000" stroke-width="2" stroke-linecap="round"/><path d="M246.33889,165.709l-3.6,-20.4" fill="none" stroke="#000000" stroke-width="2" stroke-linecap="round"/></g></g></svg>