<svg version="1.1" xmlns="http://www.w3.org/2000/svg" xmlns:xlink="http://www.w3.org/1999/xlink" width="162.5" height="268.04916" viewBox="0,0,162.5,268.04916"><defs><linearGradient x1="282.27871" y1="94.51565" x2="282.27871" y2="179.75472" gradientUnits="userSpaceOnUse" id="color-1"><stop offset="0" stop-color="#000000"/><stop offset="1" stop-color="#4d3f2e"/></linearGradient><linearGradient x1="198.94539" y1="94.51565" x2="198.94539" y2="179.75472" gradientUnits="userSpaceOnUse" id="color-2"><stop offset="0" stop-color="#000000"/><stop offset="1" stop-color="#4d3f2e"/></linearGradient><linearGradient x1="282.30994" y1="137.03356" x2="282.30994" y2="219.36689" gradientUnits="userSpaceOnUse" id="color-3"><stop offset="0" stop-color="#000000"/><stop offset="1" stop-color="#4d3f2e"/></linearGradient><linearGradient x1="197.64328" y1="137.03356" x2="197.64328" y2="219.36689" gradientUnits="userSpaceOnUse" id="color-4"><stop offset="0" stop-color="#000000"/><stop offset="1" stop-color="#4d3f2e"/></linearGradient><linearGradient x1="240.00008" y1="175.50001" x2="240.00008" y2="307.50001" gradientUnits="userSpaceOnUse" id="color-5"><stop offset="0" stop-color="#000000"/><stop offset="1" stop-color="#66543d"/></linearGradient><linearGradient x1="240.07702" y1="76.54783" x2="240.07702" y2="197.14449" gradientUnits="userSpaceOnUse" id="color-6"><stop offset="0" stop-color="#1a150f"/><stop offset="1" stop-color="#80694d"/></linearGradient><linearGradient x1="240.2118" y1="95.00332" x2="240.2118" y2="114.00332" gradientUnits="userSpaceOnUse" id="color-7"><stop offset="0" stop-color="#1a0000"/><stop offset="1" stop-color="#800000"/></linearGradient><linearGradient x1="212.39245" y1="113.37009" x2="212.39245" y2="142.262" gradientUnits="userSpaceOnUse" id="color-8"><stop offset="0" stop-color="#1a150f"/><stop offset="1" stop-color="#80694d"/></linearGradient><linearGradient x1="267.13014" y1="113.53466" x2="267.13014" y2="140.05384" gradientUnits="userSpaceOnUse" id="color-9"><stop offset="0" stop-color="#1a150f"/><stop offset="1" stop-color="#80694d"/></linearGradient><linearGradient x1="239.44089" y1="45.56335" x2="239.44089" y2="99.30208" gradientUnits="userSpaceOnUse" id="color-10"><stop offset="0" stop-color="#0d0700"/><stop offset="1" stop-color="#402200"/></linearGradient><linearGradient x1="240.09723" y1="96.18922" x2="240.09723" y2="103.85589" gradientUnits="userSpaceOnUse" id="color-11"><stop offset="0" stop-color="#0d0700"/><stop offset="1" stop-color="#663600"/></linearGradient></defs><g transform="translate(-158.84722,-45.56336)"><g data-paper-data="{&quot;isPaintingLayer&quot;:true}" fill-rule="nonzero" stroke-linejoin="miter" stroke-miterlimit="10" stroke-dasharray="" stroke-dashoffset="0" style="mix-blend-mode: normal"><path d="M230.44908,86.22048c0,-5.33875 4.32791,-9.66666 9.66666,-9.66666c5.33875,0 9.66667,4.32791 9.66667,9.66666c0,5.33875 -4.32792,9.66667 -9.66667,9.66667c-5.33875,0 -9.66666,-4.32792 -9.66666,-9.66667z" fill="none" stroke="#000000" stroke-width="7.5" stroke-linecap="butt"/><path d="M307.15507,144.29865c3.16787,25.2547 -3.79332,35.45607 -3.79332,35.45607c0,0 -12.10918,-21.47411 -19.77288,-32.6764c-7.92295,-11.58124 -27.01293,-35.71203 -27.01293,-35.71203l31.81283,-16.85064c0,0 15.26168,21.8436 18.7663,49.783z" data-paper-data="{&quot;index&quot;:null}" fill="url(#color-1)" stroke="#000000" stroke-width="0" stroke-linecap="butt"/><path d="M192.83531,94.51565l31.81283,16.85064c0,0 -19.08998,24.13078 -27.01292,35.71203c-7.6637,11.20229 -19.77288,32.6764 -19.77288,32.6764c0,0 -6.96119,-10.20136 -3.79332,-35.45607c3.50463,-27.9394 18.7663,-49.783 18.7663,-49.783z" data-paper-data="{&quot;index&quot;:null}" fill="url(#color-2)" stroke="#000000" stroke-width="0" stroke-linecap="butt"/><path d="M178.40901,313.61251v-267.22501h123.18203v267.22501zM240.17362,94.33073c4.14213,0 7.5,-3.35787 7.5,-7.5c0,-4.14213 -3.35787,-7.5 -7.5,-7.5c-4.14213,0 -7.5,3.35787 -7.5,7.5c0,4.14213 3.35787,7.5 7.5,7.5z" fill-opacity="0.01" fill="#000000" stroke="none" stroke-width="0" stroke-linecap="butt"/><path d="M293.33655,189.81029c-9.02164,23.80012 -19.94816,29.5566 -19.94816,29.5566c0,0 -0.6493,-24.64443 -2.17813,-38.13095c-1.58056,-13.94275 -7.1552,-44.20238 -7.1552,-44.20238h36c0,0 3.26217,26.44655 -6.71851,52.77673z" data-paper-data="{&quot;index&quot;:null}" fill="url(#color-3)" stroke="#000000" stroke-width="0" stroke-linecap="butt"/><path d="M179.89816,137.03356h36c0,0 -5.57464,30.25964 -7.1552,44.20238c-1.52884,13.48652 -2.17814,38.13095 -2.17814,38.13095c0,0 -10.92652,-5.75649 -19.94816,-29.5566c-9.98068,-26.33018 -6.71851,-52.77673 -6.71851,-52.77673z" fill="url(#color-4)" stroke="#000000" stroke-width="0" stroke-linecap="butt"/><path d="M206.75009,307.5l15.14285,-131.8421l37.78325,-0.15789l13.57389,132z" fill="url(#color-5)" stroke="#000000" stroke-width="0" stroke-linecap="butt"/><path d="M175.84,136.84616c0,-33.30185 28.7599,-60.29833 64.23702,-60.29833c35.47712,0 64.23702,26.99649 64.23702,60.29833c0,33.30185 -28.7599,60.29833 -64.23702,60.29833c-35.47712,0 -64.23702,-26.99649 -64.23702,-60.29833zM240.17362,94.33073c4.14213,0 7.5,-3.35787 7.5,-7.5c0,-4.14213 -3.35787,-7.5 -7.5,-7.5c-4.14213,0 -7.5,3.35787 -7.5,7.5c0,4.14213 3.35787,7.5 7.5,7.5z" fill="url(#color-6)" stroke="#000000" stroke-width="0" stroke-linecap="butt"/><path d="M189.39021,137.27563c0,-12.968 10.51265,-23.48065 23.48065,-23.48065c12.968,0 23.48065,10.51265 23.48065,23.48065c0,12.968 -10.51265,23.48065 -23.48065,23.48065c-12.968,0 -23.48065,-10.51265 -23.48065,-23.48065z" fill="#808080" stroke="#000000" stroke-width="0" stroke-linecap="butt"/><path d="M196.4556,137c0,-9.12808 7.39976,-16.52784 16.52783,-16.52784c9.12808,0 16.52784,7.39977 16.52784,16.52784c0,9.12808 -7.39977,16.52784 -16.52784,16.52784c-9.12808,0 -16.52783,-7.39977 -16.52783,-16.52784z" fill="#000000" stroke="none" stroke-width="0" stroke-linecap="butt"/><path d="M227.50709,178.05643c0,0 6.04058,-3.65347 12.43181,-2.8c7.50845,1.00266 12.67778,2.8 12.67778,2.8" fill="none" stroke="#000000" stroke-width="2" stroke-linecap="round"/><path d="M267.1293,160.75627c-12.968,0 -23.48065,-10.51265 -23.48065,-23.48065c0,-12.968 10.51265,-23.48065 23.48065,-23.48065c12.968,0 23.48065,10.51265 23.48065,23.48065c0,12.968 -10.51265,23.48065 -23.48065,23.48065z" data-paper-data="{&quot;index&quot;:null}" fill="#808080" stroke="#000000" stroke-width="0" stroke-linecap="butt"/><path d="M267.01671,153.52784c-9.12807,0 -16.52783,-7.39977 -16.52783,-16.52784c0,-9.12808 7.39977,-16.52784 16.52783,-16.52784c9.12807,0 16.52783,7.39977 16.52783,16.52784c0,9.12808 -7.39977,16.52784 -16.52783,16.52784z" data-paper-data="{&quot;index&quot;:null}" fill="#000000" stroke="none" stroke-width="0" stroke-linecap="butt"/><path d="M203.20857,111.29406c0,0 5.25403,-6.64274 9.90039,-9.03611c4.64636,-2.39338 12.13518,-2.31459 12.13518,-2.31459c0,0 -7.81249,1.89209 -11.40072,3.74042c-3.74983,1.93157 -10.63485,7.61028 -10.63485,7.61028z" fill="#000000" stroke="none" stroke-width="0" stroke-linecap="butt"/><path d="M237.9618,111.62832c-2.33977,-0.32876 -3.625,-16.625 -3.625,-16.625h11.75c0,0 0.91252,28.84897 -2.125,28.375c-2.74218,-0.42788 -1.47667,-17.43548 -3.16693,-17.34105c-1.61874,0.09043 -0.2791,5.94991 -2.83307,5.59105z" fill="url(#color-7)" stroke="none" stroke-width="0" stroke-linecap="butt"/><path d="M266.33659,103.68868c-3.55329,-1.91464 -11.32929,-3.95149 -11.32929,-3.95149c0,0 7.48899,0.06029 12.09011,2.53954c4.60111,2.47925 9.73087,9.21841 9.73087,9.21841c0,0 -6.77837,-5.80558 -10.49169,-7.80646z" data-paper-data="{&quot;index&quot;:null}" fill="#000000" stroke="none" stroke-width="0" stroke-linecap="butt"/><path d="M189.68518,142.23725c-2.97196,-12.62287 4.85164,-25.26496 17.47451,-28.23692c12.62287,-2.97196 25.59829,4.85164 28.57025,17.4745c0,0 -14.49338,-8.80485 -25.87044,-5.96784c-11.40786,2.84468 -20.033,17.33046 -20.17431,16.73026z" fill="url(#color-8)" stroke="#000000" stroke-width="0" stroke-linecap="butt"/><path d="M243.56808,134.33753c1.57081,-12.87252 13.61277,-22.20103 26.48529,-20.63022c12.87252,1.57081 22.03437,13.4461 20.46356,26.31863c-0.07341,0.6016 -12.02787,-5.44091 -23.47726,-6.98577c-11.81649,-1.59439 -23.47159,1.29736 -23.47159,1.29736z" data-paper-data="{&quot;index&quot;:null}" fill="url(#color-9)" stroke="#000000" stroke-width="0" stroke-linecap="butt"/><path d="M183.59627,98.76232c0,-29.37751 4.22233,-52.79352 55.83225,-53.19268c58.79142,-0.45471 55.83225,23.81518 55.83225,53.19268c0,0 -111.6645,1.21448 -111.6645,0zM240.17362,94.33073c4.14213,0 7.5,-3.35787 7.5,-7.5c0,-4.14213 -3.35787,-7.5 -7.5,-7.5c-4.14213,0 -7.5,3.35787 -7.5,7.5c0,4.14213 3.35787,7.5 7.5,7.5z" fill="url(#color-10)" stroke="#000000" stroke-width="0" stroke-linecap="butt"/><path d="M158.84723,103.85589l4.33333,-7.66667l155.5,0.33333l2.66667,7.33333z" fill="url(#color-11)" stroke="#000000" stroke-width="0" stroke-linecap="butt"/></g></g></svg>