<svg version="1.1" xmlns="http://www.w3.org/2000/svg" xmlns:xlink="http://www.w3.org/1999/xlink" width="185.16666" height="275.88684" viewBox="0,0,185.16666,275.88684"><defs><linearGradient x1="183.60731" y1="37.97568" x2="183.60731" y2="73.30902" gradientUnits="userSpaceOnUse" id="color-1"><stop offset="0" stop-color="#332f00"/><stop offset="1" stop-color="#998c00"/></linearGradient><linearGradient x1="240.16675" y1="175.50002" x2="240.16675" y2="307.50002" gradientUnits="userSpaceOnUse" id="color-2"><stop offset="0" stop-color="#000000"/><stop offset="1" stop-color="#665e00"/></linearGradient><linearGradient x1="257.25002" y1="139.08334" x2="333.75002" y2="139.08334" gradientUnits="userSpaceOnUse" id="color-3"><stop offset="0" stop-color="#000000"/><stop offset="1" stop-color="#4d4600"/></linearGradient><linearGradient x1="297.10731" y1="37.97568" x2="297.10731" y2="73.30902" gradientUnits="userSpaceOnUse" id="color-4"><stop offset="0" stop-color="#332f00"/><stop offset="1" stop-color="#998c00"/></linearGradient><linearGradient x1="148.58336" y1="139.08334" x2="225.08336" y2="139.08334" gradientUnits="userSpaceOnUse" id="color-5"><stop offset="0" stop-color="#4d4600"/><stop offset="1" stop-color="#000000"/></linearGradient><linearGradient x1="240.74368" y1="75.88117" x2="240.74368" y2="196.47783" gradientUnits="userSpaceOnUse" id="color-6"><stop offset="0" stop-color="#1a1700"/><stop offset="1" stop-color="#807500"/></linearGradient><linearGradient x1="245.0903" y1="66.85851" x2="245.0903" y2="90.10851" gradientUnits="userSpaceOnUse" id="color-7"><stop offset="0" stop-color="#4d4600"/><stop offset="1" stop-color="#1a1700"/></linearGradient><radialGradient cx="212.87084" cy="137.02564" r="23.48065" gradientUnits="userSpaceOnUse" id="color-8"><stop offset="0" stop-color="#403a00"/><stop offset="1" stop-color="#403a00" stop-opacity="0"/></radialGradient><radialGradient cx="267.12926" cy="137.02563" r="23.48065" gradientUnits="userSpaceOnUse" id="color-9"><stop offset="0" stop-color="#403a00"/><stop offset="1" stop-color="#403a00" stop-opacity="0"/></radialGradient><linearGradient x1="270.44921" y1="222.05975" x2="273.85906" y2="202.20963" gradientUnits="userSpaceOnUse" id="color-10"><stop offset="0" stop-color="#1a1a1a"/><stop offset="1" stop-color="#333333"/></linearGradient><linearGradient x1="265.82426" y1="218.89695" x2="267.60468" y2="194.70357" gradientUnits="userSpaceOnUse" id="color-11"><stop offset="0" stop-color="#333333"/><stop offset="1" stop-color="#4d4d4d"/></linearGradient><linearGradient x1="259.06901" y1="215.24647" x2="259.52123" y2="185.00203" gradientUnits="userSpaceOnUse" id="color-12"><stop offset="0" stop-color="#4d4d4d"/><stop offset="1" stop-color="#666666"/></linearGradient><linearGradient x1="247.75694" y1="210.66865" x2="247.75694" y2="178.5859" gradientUnits="userSpaceOnUse" id="color-13"><stop offset="0" stop-color="#666666"/><stop offset="1" stop-color="#808080"/></linearGradient><linearGradient x1="210.32695" y1="222.05975" x2="206.9171" y2="202.20963" gradientUnits="userSpaceOnUse" id="color-14"><stop offset="0" stop-color="#1a1a1a"/><stop offset="1" stop-color="#333333"/></linearGradient><linearGradient x1="214.55189" y1="218.89695" x2="212.77147" y2="194.70357" gradientUnits="userSpaceOnUse" id="color-15"><stop offset="0" stop-color="#333333"/><stop offset="1" stop-color="#4d4d4d"/></linearGradient><linearGradient x1="221.70715" y1="215.24647" x2="221.25492" y2="185.00203" gradientUnits="userSpaceOnUse" id="color-16"><stop offset="0" stop-color="#4d4d4d"/><stop offset="1" stop-color="#666666"/></linearGradient><linearGradient x1="233.01921" y1="210.66865" x2="233.01921" y2="178.5859" gradientUnits="userSpaceOnUse" id="color-17"><stop offset="0" stop-color="#666666"/><stop offset="1" stop-color="#808080"/></linearGradient><linearGradient x1="254.97443" y1="177.59103" x2="253.6084" y2="162.28631" gradientUnits="userSpaceOnUse" id="color-18"><stop offset="0" stop-color="#333333"/><stop offset="1" stop-color="#4d4d4d"/></linearGradient><linearGradient x1="251.18499" y1="177.73872" x2="249.18763" y2="158.68411" gradientUnits="userSpaceOnUse" id="color-19"><stop offset="0" stop-color="#4d4d4d"/><stop offset="1" stop-color="#666666"/></linearGradient><linearGradient x1="245.75553" y1="175.27092" x2="245.75553" y2="154.94966" gradientUnits="userSpaceOnUse" id="color-20"><stop offset="0" stop-color="#666666"/><stop offset="1" stop-color="#808080"/></linearGradient><linearGradient x1="227.79579" y1="177.05715" x2="229.7566" y2="161.81721" gradientUnits="userSpaceOnUse" id="color-21"><stop offset="0" stop-color="#333333"/><stop offset="1" stop-color="#4d4d4d"/></linearGradient><linearGradient x1="230.92455" y1="177.827" x2="233.09012" y2="158.79077" gradientUnits="userSpaceOnUse" id="color-22"><stop offset="0" stop-color="#4d4d4d"/><stop offset="1" stop-color="#666666"/></linearGradient><linearGradient x1="236.42063" y1="175.27092" x2="236.42063" y2="154.94966" gradientUnits="userSpaceOnUse" id="color-23"><stop offset="0" stop-color="#666666"/><stop offset="1" stop-color="#808080"/></linearGradient></defs><g transform="translate(-148.58336,-37.97568)"><g data-paper-data="{&quot;isPaintingLayer&quot;:true}" fill-rule="nonzero" stroke-linejoin="miter" stroke-miterlimit="10" stroke-dasharray="" stroke-dashoffset="0" style="mix-blend-mode: normal"><path d="M178.40902,313.61252v-267.22501h123.18203v267.22501z" fill-opacity="0.01" fill="#000000" stroke="none" stroke-width="0" stroke-linecap="butt"/><path d="M178.40902,313.86252v-267.22501h123.18203v267.22501z" fill-opacity="0.01" fill="#000000" stroke="none" stroke-width="0" stroke-linecap="butt"/><g stroke="#000000" stroke-width="0" stroke-linecap="butt"><path d="M179.94064,125.64235v-70l7.33332,0.00001v70z" fill="#4d4926"/><path d="M165.94063,55.64235c0,-9.75702 7.90964,-17.66667 17.66666,-17.66667c9.75702,0 17.66667,7.90964 17.66667,17.66667c0,9.75702 -7.90964,17.66667 -17.66667,17.66667c-9.75702,0 -17.66666,-7.90964 -17.66666,-17.66667z" fill="url(#color-1)"/></g><path d="M206.91676,307.50001l15.14285,-131.8421l37.78325,-0.15789l13.57389,132z" fill="url(#color-2)" stroke="#000000" stroke-width="0" stroke-linecap="butt"/><path d="M257.25002,139.08334c0,-12.0122 9.7378,-21.75 21.75,-21.75c12.01219,0 54.75,21.75 54.75,21.75c0,0 -42.73781,21.75 -54.75,21.75c-12.0122,0 -21.75,-9.73781 -21.75,-21.75z" data-paper-data="{&quot;index&quot;:null}" fill="url(#color-3)" stroke="#000000" stroke-width="0" stroke-linecap="butt"/><g stroke="#000000" stroke-width="0" stroke-linecap="butt"><path d="M293.44061,125.64235v-70l7.33333,0.00001v70z" fill="#4d4926"/><path d="M279.44061,55.64235c0,-9.75702 7.90964,-17.66667 17.66666,-17.66667c9.75702,0 17.66667,7.90964 17.66667,17.66667c0,9.75702 -7.90965,17.66667 -17.66667,17.66667c-9.75702,0 -17.66666,-7.90964 -17.66666,-17.66667z" fill="url(#color-4)"/></g><path d="M203.33336,160.83334c-12.01219,0 -54.75,-21.75 -54.75,-21.75c0,0 42.73781,-21.75 54.75,-21.75c12.0122,0 21.75,9.73781 21.75,21.75c0,12.0122 -9.7378,21.75 -21.75,21.75z" data-paper-data="{&quot;index&quot;:null}" fill="url(#color-5)" stroke="#000000" stroke-width="0" stroke-linecap="butt"/><path d="M176.50666,136.1795c0,-33.30185 28.7599,-60.29833 64.23702,-60.29833c35.47712,0 64.23702,26.99649 64.23702,60.29833c0,33.30185 -28.7599,60.29833 -64.23702,60.29833c-35.47712,0 -64.23702,-26.99649 -64.23702,-60.29833z" fill="url(#color-6)" stroke="#000000" stroke-width="0" stroke-linecap="butt"/><path d="M218.8403,86.35851l33.25,-19.5l-3.25,13.75l22.5,-6l-14.5,15.5" fill="url(#color-7)" stroke="#000000" stroke-width="0" stroke-linecap="round"/><path d="M189.39019,137.02564c0,-12.968 10.51265,-23.48065 23.48065,-23.48065c12.968,0 23.48065,10.51265 23.48065,23.48065c0,12.968 -10.51265,23.48065 -23.48065,23.48065c-12.968,0 -23.48065,-10.51265 -23.48065,-23.48065z" fill="url(#color-8)" stroke="#000000" stroke-width="0" stroke-linecap="butt"/><path d="M267.12926,160.50627c-12.968,0 -23.48065,-10.51265 -23.48065,-23.48065c0,-12.968 10.51265,-23.48065 23.48065,-23.48065c12.968,0 23.48065,10.51265 23.48065,23.48065c0,12.968 -10.51265,23.48065 -23.48065,23.48065z" data-paper-data="{&quot;index&quot;:null}" fill="url(#color-9)" stroke="#000000" stroke-width="0" stroke-linecap="butt"/><path d="M195.69232,122.6624c4.30604,-5.26026 10.85023,-8.61742 18.17851,-8.61742c7.47015,0 14.12555,3.48839 18.42606,8.92503" fill="none" stroke="#1a1700" stroke-width="0.5" stroke-linecap="butt"/><path d="M250.23539,121.50215c4.29576,-4.73421 10.49763,-7.70718 17.39386,-7.70718c6.79816,0 12.92157,2.88901 17.20944,7.50627" data-paper-data="{&quot;index&quot;:null}" fill="none" stroke="#1a1700" stroke-width="0.5" stroke-linecap="butt"/><path d="M232.44907,150.90566l2.33333,-6.33333l-3.33333,19" fill="none" stroke="#1a1700" stroke-width="0.5" stroke-linecap="round"/><path d="M252.44907,163.90567l-4.16667,-20.16667l3,6.5" fill="none" stroke="#1a1700" stroke-width="0.5" stroke-linecap="round"/><g data-paper-data="{&quot;index&quot;:null}" stroke="none" stroke-width="0" stroke-linecap="butt"><path d="M188.52299,237.16729c-5.67368,-1.74932 3.10751,-18.04211 16.48484,-40.38067c13.69955,-22.87662 23.68514,-49.21952 35.87616,-49.80202c15.77332,-0.75368 19.59636,28.31966 34.90163,50.13361c12.44682,17.73992 23.99739,32.92011 18.83117,36.81824c-8.88919,6.70729 -33.48787,-25.37841 -53.71241,-25.00272c-19.79762,0.36776 -41.48417,31.59343 -52.38139,28.23357z" fill="#4d4600"/><path d="M187.48148,236.25499c-5.08658,-1.56831 6.55503,-23.96713 19.33626,-42.34569c13.32788,-19.1646 23.4009,-42.46542 34.33041,-42.98765c14.14111,-0.67568 21.30407,26.65926 35.02557,46.21594c11.15884,15.90422 23.60605,33.62263 18.97443,37.1174c-7.96936,6.01323 -35.84999,-23.64881 -53.98172,-23.312c-17.74898,0.32971 -43.91535,28.3242 -53.68495,25.31201z" fill="#000000"/><path d="M257.79218,165.07833c0,0 -10.79771,-3.72907 -16.12716,-3.6592c-5.03224,0.06597 -16.00907,3.0674 -16.00907,3.0674c4.72345,-8.17321 9.09256,-12.99714 15.74219,-13.31487c6.64963,-0.31773 11.42292,5.55826 16.39405,13.90668z" fill="#330000"/><path d="M199.06099,232.85094c0,0 2.54163,-26.59556 41.83716,-27.42928c37.47326,1.01846 42.03116,26.52633 40.88484,25.86507c-11.99672,-6.92035 -28.64593,-20.32075 -40.86656,-20.09374c-12.67136,0.23538 -29.6329,14.571 -41.85545,21.65795z" fill="#330000"/><path d="M269.31879,202.2446c0,0 2.52793,-0.99424 5.60492,0.50205c2.48597,1.20889 2.56218,3.02414 2.56218,3.02414l-3.17818,16.4931c0,0 -0.2192,0.93463 -3.83659,-0.57337c-3.86111,-1.6096 -3.80392,-2.86235 -3.80392,-2.86235l2.65158,-16.58357z" fill="url(#color-10)"/><path d="M262.16571,195.27328c0,0 2.91499,-1.48579 6.77772,-0.04966c3.12079,1.16028 3.42317,3.32761 3.42317,3.32761l-1.89291,20.14193c0,0 -0.15413,1.14595 -4.66608,-0.24141c-4.81593,-1.48083 -4.893,-2.98931 -4.893,-2.98931l1.2511,-20.18917z" fill="url(#color-11)"/><path d="M252.79262,186.10771c0,0 3.5201,-2.06196 8.43293,-0.55598c3.96919,1.21672 4.50359,3.89245 4.50359,3.89245l-0.88763,25.20961c0,0 -0.10831,1.43765 -5.82569,0.03972c-6.10258,-1.49212 -6.30849,-3.36418 -6.30849,-3.36418l0.08529,-25.22161z" fill="url(#color-12)"/><path d="M240.09027,179.86525c0,0 3.9855,-2.24261 9.62276,-0.72336c4.55448,1.22744 5.21058,4.05669 5.21058,4.05669l-0.58333,26.75c0,0 -0.09916,1.5264 -6.65354,0.13449c-6.99597,-1.48568 -7.26313,-3.46783 -7.26313,-3.46783l-0.33333,-26.75z" fill="url(#color-13)"/><path d="M211.45738,202.2446l2.65158,16.58357c0,0 0.05719,1.25275 -3.80392,2.86235c-3.6174,1.508 -3.83659,0.57337 -3.83659,0.57337l-3.17817,-16.4931c0,0 0.07621,-1.81525 2.56218,-3.02414c3.07699,-1.49629 5.60492,-0.50205 5.60492,-0.50205z" data-paper-data="{&quot;index&quot;:null}" fill="url(#color-14)"/><path d="M211.43273,195.2236c3.86273,-1.43612 6.77772,0.04966 6.77772,0.04966l1.2511,20.18917c0,0 -0.07707,1.50848 -4.893,2.98931c-4.51195,1.38736 -4.66608,0.24141 -4.66608,0.24141l-1.89291,-20.14193c0,0 0.30238,-2.16733 3.42317,-3.32761z" data-paper-data="{&quot;index&quot;:null}" fill="url(#color-15)"/><path d="M219.55061,185.55176c4.91283,-1.50597 8.43292,0.55598 8.43292,0.55598l0.08529,25.22161c0,0 -0.20591,1.87206 -6.30849,3.36418c-5.71738,1.39793 -5.82568,-0.03972 -5.82568,-0.03972l-0.88764,-25.20961c0,0 0.5344,-2.67573 4.5036,-3.89245z" data-paper-data="{&quot;index&quot;:null}" fill="url(#color-16)"/><path d="M231.06311,179.14187c5.63726,-1.51925 9.62276,0.72336 9.62276,0.72336l-0.33333,26.75c0,0 -0.26717,1.98215 -7.26314,3.46783c-6.55438,1.39191 -6.65353,-0.13449 -6.65353,-0.13449l-0.58333,-26.75c0,0 0.65611,-2.82925 5.21058,-4.05669z" data-paper-data="{&quot;index&quot;:null}" fill="url(#color-17)"/><path d="M250.26708,163.1997c0,0 1.66981,-1.22737 4.23139,-0.72549c2.06957,0.40549 2.48064,1.72921 2.48064,1.72921l0.8806,12.78385c0,0 0.02108,0.73208 -2.94131,0.3272c-3.16197,-0.43216 -3.3647,-1.36715 -3.3647,-1.36715l-1.28661,-12.74762z" data-paper-data="{&quot;index&quot;:null}" fill="url(#color-18)"/><path d="M245.03947,159.88709c0,0 2.0582,-1.56231 5.26146,-0.98586c2.58799,0.46573 3.12594,2.10816 3.12594,2.10816l1.34369,15.9211c0,0 0.04035,0.9123 -3.66074,0.46449c-3.95044,-0.47798 -4.22117,-1.63977 -4.22117,-1.63977l-1.84918,-15.86811z" data-paper-data="{&quot;index&quot;:null}" fill="url(#color-19)"/><path d="M240.89944,155.75999c0,0 2.52442,-1.42048 6.09507,-0.45818c2.88481,0.77746 3.30039,2.56952 3.30039,2.56952l-0.36948,16.94349c0,0 -0.0628,0.96683 -4.21436,0.08519c-4.43125,-0.94104 -4.60048,-2.19653 -4.60048,-2.19653l-0.21113,-16.94349z" data-paper-data="{&quot;index&quot;:null}" fill="url(#color-20)"/><path d="M228.85988,161.97032c2.57918,-0.40178 4.19994,0.88967 4.19994,0.88967l-1.78191,12.68786c0,0 -0.23898,0.92639 -3.41537,1.23512c-2.9759,0.28924 -2.92634,-0.44146 -2.92634,-0.44146l1.37761,-12.73988c0,0 0.46229,-1.30671 2.54607,-1.63132z" data-paper-data="{&quot;index&quot;:null}" fill="url(#color-21)"/><path d="M237.22749,160.03035l-1.98925,15.85116c0,0 -0.28097,1.15936 -4.23548,1.60243c-3.7049,0.41511 -3.65649,-0.4968 -3.65649,-0.4968l1.48424,-15.90861c0,0 0.55243,-1.63761 3.14443,-2.08047c3.20823,-0.54814 5.25255,1.03229 5.25255,1.03229z" data-paper-data="{&quot;index&quot;:null}" fill="url(#color-22)"/><path d="M235.18163,155.30182c3.57065,-0.96229 6.09507,0.45818 6.09507,0.45818l-0.21113,16.94349c0,0 -0.16923,1.2555 -4.60048,2.19653c-4.15156,0.88164 -4.21436,-0.08519 -4.21436,-0.08519l-0.36948,-16.94349c0,0 0.41558,-1.79206 3.30039,-2.56952z" data-paper-data="{&quot;index&quot;:null}" fill="url(#color-23)"/></g></g></g></svg>