<svg version="1.1" xmlns="http://www.w3.org/2000/svg" xmlns:xlink="http://www.w3.org/1999/xlink" width="153" height="267.22501" viewBox="0,0,153,267.22501"><g transform="translate(-164.34722,-46.38751)"><g data-paper-data="{&quot;isPaintingLayer&quot;:true}" fill-rule="nonzero" stroke-linejoin="miter" stroke-miterlimit="10" stroke-dasharray="" stroke-dashoffset="0" style="mix-blend-mode: normal"><path d="M179.28376,313.61252v-267.22501h123.18203v267.22501z" fill-opacity="0.01" fill="#000000" stroke="none" stroke-width="0" stroke-linecap="butt"/><path d="M206.75008,307.5l15.14285,-131.8421l37.78325,-0.15789l13.57389,132z" fill="#0b00ff" stroke="#000000" stroke-width="2" stroke-linecap="butt"/><path d="M210.4239,250.08801l8.20157,-86.27259l44.60128,-0.22518l7.50395,87.0552l-30.23979,-11.89646z" fill="#050066" stroke="#000000" stroke-width="2" stroke-linecap="butt"/><path d="M316.34722,130.02256c0,44.597 -33.8025,80.75 -75.5,80.75c-41.6975,0 -75.5,-36.15301 -75.5,-80.75c0,-44.59699 33.8025,-80.75 75.5,-80.75c41.6975,0 75.5,36.15301 75.5,80.75z" fill="#060080" stroke="#000000" stroke-width="2" stroke-linecap="butt"/><path d="M308.02016,135.16667c0,38.06162 -30.45365,68.91667 -68.02013,68.91667c-37.56647,0 -68.02013,-30.85504 -68.02013,-68.91667c0,-38.06162 30.45365,-68.91667 68.02013,-68.91667c37.56647,0 68.02013,30.85504 68.02013,68.91667z" fill="#000000" stroke="none" stroke-width="0" stroke-linecap="butt"/><path d="M175.83999,136.84616c0,-33.30185 28.7599,-60.29833 64.23702,-60.29833c35.47712,0 64.23702,26.99649 64.23702,60.29833c0,33.30185 -28.7599,60.29833 -64.23702,60.29833c-35.47712,0 -64.23702,-26.99649 -64.23702,-60.29833z" fill="#0b00ff" stroke="#000000" stroke-width="2" stroke-linecap="butt"/><path d="M176.56305,136.9c0,-0.72799 5.20666,55.91939 63.36046,56.93429c55.56352,0.9697 63.51358,-57.95314 63.51358,-56.93429c0,32.80479 -28.40173,59.39833 -63.43702,59.39833c-35.03529,0 -63.43702,-26.59354 -63.43702,-59.39833z" fill="#0b00e6" stroke="#000000" stroke-width="0" stroke-linecap="butt"/><path d="M175.59724,151.79108c0,0 -8.73921,-80.9842 66.75,-79.5c77.52968,1.52431 61,82.25 61,82.25c0,0 -24.63436,12.69075 -63.02896,13.02851c-34.39482,0.30257 -64.72104,-15.77851 -64.72104,-15.77851z" fill-opacity="0.20144" fill="#000000" stroke="none" stroke-width="0" stroke-linecap="butt"/><path d="M189.3902,137.27563c0,-12.968 10.51265,-23.48065 23.48065,-23.48065c12.968,0 23.48065,10.51265 23.48065,23.48065c0,12.968 -10.51265,23.48065 -23.48065,23.48065c-12.968,0 -23.48065,-10.51265 -23.48065,-23.48065z" fill="#ffffff" stroke="#000000" stroke-width="2" stroke-linecap="butt"/><path d="M196.45559,137c0,-9.12808 7.39976,-16.52784 16.52783,-16.52784c9.12808,0 16.52784,7.39977 16.52784,16.52784c0,9.12808 -7.39977,16.52784 -16.52784,16.52784c-9.12808,0 -16.52783,-7.39977 -16.52783,-16.52784z" fill="#000000" stroke="none" stroke-width="0" stroke-linecap="butt"/><path d="M227.50707,176.65643c0,0 7.87204,-0.49798 12.15094,-0.49798c4.08165,0 12.95865,0.49798 12.95865,0.49798" fill="none" stroke="#000000" stroke-width="2" stroke-linecap="round"/><path d="M267.12928,160.75627c-12.968,0 -23.48065,-10.51265 -23.48065,-23.48065c0,-12.968 10.51265,-23.48065 23.48065,-23.48065c12.968,0 23.48065,10.51265 23.48065,23.48065c0,12.968 -10.51265,23.48065 -23.48065,23.48065z" data-paper-data="{&quot;index&quot;:null}" fill="#ffffff" stroke="#000000" stroke-width="2" stroke-linecap="butt"/><path d="M267.01671,153.52784c-9.12807,0 -16.52783,-7.39977 -16.52783,-16.52784c0,-9.12808 7.39977,-16.52784 16.52783,-16.52784c9.12807,0 16.52783,7.39977 16.52783,16.52784c0,9.12808 -7.39977,16.52784 -16.52783,16.52784z" data-paper-data="{&quot;index&quot;:null}" fill="#000000" stroke="none" stroke-width="0" stroke-linecap="butt"/><path d="M189.3902,137.27563c0,-12.968 10.51265,-23.48065 23.48065,-23.48065c12.968,0 23.48065,10.51265 23.48065,23.48065c0,0 -46.96131,1.23155 -46.96131,0z" fill="#0900cc" stroke="#000000" stroke-width="2" stroke-linecap="butt"/><path d="M243.64865,137.27563c0,-12.968 10.51265,-23.48065 23.48065,-23.48065c12.968,0 23.48065,10.51265 23.48065,23.48065c0,1.2138 -46.96131,0 -46.96131,0z" data-paper-data="{&quot;index&quot;:null}" fill="#0900cc" stroke="#000000" stroke-width="2" stroke-linecap="butt"/><path d="M201.59796,106.01557c0,0 7.59834,-3.74113 12.82228,-3.90615c5.22395,-0.16501 11.95254,3.12355 11.95254,3.12355c0,0 -7.86762,-1.64791 -11.9019,-1.52047c-4.21598,0.13318 -12.87293,2.30307 -12.87293,2.30307z" fill="#000000" stroke="none" stroke-width="0" stroke-linecap="butt"/><path d="M265.62423,103.73004c-4.03603,0.04644 -11.82537,2.03168 -11.82537,2.03168c0,0 6.58071,-3.57532 11.80692,-3.63546c5.2262,-0.06014 12.97862,3.35026 12.97862,3.35026c0,0 -8.74237,-1.79502 -12.96017,-1.74649z" data-paper-data="{&quot;index&quot;:null}" fill="#000000" stroke="none" stroke-width="0" stroke-linecap="butt"/></g></g></svg>