<svg version="1.1" xmlns="http://www.w3.org/2000/svg" xmlns:xlink="http://www.w3.org/1999/xlink" width="192.28692" height="267.34631" viewBox="0,0,192.28692,267.34631"><defs><radialGradient cx="240.07697" cy="136.51464" r="96.14346" gradientUnits="userSpaceOnUse" id="color-1"><stop offset="0" stop-color="#401c00"/><stop offset="1" stop-color="#803700"/></radialGradient><radialGradient cx="240.67698" cy="136.31464" r="67.98369" gradientUnits="userSpaceOnUse" id="color-2"><stop offset="0" stop-color="#401c00"/><stop offset="1" stop-color="#803700"/></radialGradient><radialGradient cx="240.07697" cy="136.51464" r="64.23702" gradientUnits="userSpaceOnUse" id="color-3"><stop offset="0" stop-color="#403a00"/><stop offset="1" stop-color="#807500"/></radialGradient><radialGradient cx="240.00003" cy="135.80002" r="60" gradientUnits="userSpaceOnUse" id="color-4"><stop offset="0" stop-color="#808080"/><stop offset="1" stop-color="#404040"/></radialGradient></defs><g transform="translate(-143.93352,-46.26622)"><g data-paper-data="{&quot;isPaintingLayer&quot;:true}" fill-rule="nonzero" stroke-width="0" stroke-linecap="butt" stroke-linejoin="miter" stroke-miterlimit="10" stroke-dasharray="" stroke-dashoffset="0" style="mix-blend-mode: normal"><path d="M179.28373,313.61253v-267.22501h123.18203v267.22501z" fill-opacity="0.01" fill="#000000" stroke="none"/><path d="M143.93352,136.51464c0,0 43.3167,-26.23668 60.01964,-41.91549c15.20367,-14.27145 36.12382,-48.33293 36.12382,-48.33293c0,0 19.21135,39.36857 34.97307,54.16386c16.26997,15.27238 61.17039,36.08456 61.17039,36.08456c0,0 -39.2052,19.70616 -54.88037,34.42021c-16.34464,15.34247 -41.26309,55.82821 -41.26309,55.82821c0,0 -20.28908,-39.87979 -36.10446,-54.72545c-16.22212,-15.22746 -60.039,-35.52297 -60.039,-35.52297z" fill="url(#color-1)" stroke="#000000"/><path d="M172.69328,204.29833c0,0 12.07739,-49.18167 12.80157,-72.07902c0.65917,-20.84205 -8.63315,-59.71994 -8.63315,-59.71994c0,0 41.42226,14.25331 63.02933,13.56994c22.30381,-0.7054 68.76963,-17.73836 68.76963,-17.73836c0,0 -13.7879,41.65662 -14.46751,63.14504c-0.70864,22.40617 10.2991,68.65392 10.2991,68.65392c0,0 -42.54582,-13.85272 -64.22644,-13.16703c-22.23821,0.70333 -67.57252,17.33545 -67.57252,17.33545z" fill="url(#color-2)" stroke="#000000"/><path d="M175.83995,136.51464c0,-33.30185 28.7599,-60.29833 64.23702,-60.29833c35.47712,0 64.23702,26.99649 64.23702,60.29833c0,33.30185 -28.7599,60.29833 -64.23702,60.29833c-35.47712,0 -64.23702,-26.99649 -64.23702,-60.29833z" fill="url(#color-3)" stroke="#000000"/><path d="M180.00003,135.80002c0,0 26.86292,-37.5 60,-37.5c33.13708,0 60,37.5 60,37.5c0,0 -26.86292,37.5 -60,37.5c-33.13708,0 -60,-37.5 -60,-37.5z" fill="url(#color-4)" stroke="#000000"/><g stroke="none"><path d="M220.56484,136.2558c0,-17.30492 14.02841,-31.33333 31.33333,-31.33333c17.30492,0 31.33333,14.02841 31.33333,31.33333c0,17.30492 -14.02841,31.33333 -31.33333,31.33333c-17.30492,0 -31.33333,-14.02841 -31.33333,-31.33333z" fill="#000000"/><path d="M237.19586,124.51778c0,2.61108 -0.5982,4.72778 -1.33611,4.72778c-0.73791,0 -1.33611,-2.1167 -1.33611,-4.72778c0,-2.61108 0.5982,-4.72778 1.33611,-4.72778c0.73791,0 1.33611,2.1167 1.33611,4.72778z" fill="#808080"/><path d="M246.93362,124.91778c0,3.57517 -0.81907,6.47342 -1.82944,6.47342c-1.01037,0 -1.82944,-2.89825 -1.82944,-6.47342c0,-3.57517 0.81907,-6.47342 1.82944,-6.47342c1.01037,0 1.82944,2.89825 1.82944,6.47342z" fill="#808080"/><path d="M269.37363,124.11779c0,2.61108 -0.5982,4.72778 -1.33611,4.72778c-0.73791,0 -1.33611,-2.1167 -1.33611,-4.72778c0,-2.61108 0.5982,-4.72778 1.33611,-4.72778c0.73791,0 1.33611,2.1167 1.33611,4.72778z" fill="#808080"/></g></g></g></svg>