<svg version="1.1" xmlns="http://www.w3.org/2000/svg" xmlns:xlink="http://www.w3.org/1999/xlink" width="35.125" height="35.12434" viewBox="0,0,35.125,35.12434"><g transform="translate(-222.43752,-162.43783)"><g data-paper-data="{&quot;isPaintingLayer&quot;:true}" stroke-miterlimit="10" stroke-dasharray="" stroke-dashoffset="0" style="mix-blend-mode: normal"><path d="M257.56251,169.8317v20.49804c0,4.00745 -3.22497,7.23243 -7.23242,7.23243h-20.5c-3.66107,0 -6.66147,-2.69385 -7.1543,-6.21484c0.7952,3.03475 3.54108,5.26367 6.83204,5.26367h20.0332c3.9166,0 7.07032,-3.15372 7.07032,-7.07031v-20.03321c0,-3.2976 -2.23906,-6.0451 -5.28321,-6.83398c3.52994,0.48496 6.23438,3.49081 6.23438,7.15821z" fill-opacity="0.29839" fill="#000000" fill-rule="evenodd" stroke="none" stroke-width="4.54219" stroke-linecap="round" stroke-linejoin="round"/><path d="M229.50719,162.43783h20.03378c3.9166,0 7.06966,3.15307 7.06966,7.06966v20.03379c0,3.91659 -3.15307,7.06966 -7.06966,7.06966h-20.03378c-3.91659,0 -7.06967,-3.15307 -7.06967,-7.06966v-20.03379c0,-3.91659 3.15308,-7.06966 7.06967,-7.06966z" fill="#ff6f00" fill-rule="evenodd" stroke="none" stroke-width="4.43922" stroke-linecap="round" stroke-linejoin="round"/><g fill-rule="nonzero" stroke="#000000" stroke-width="0.5" stroke-linecap="butt" stroke-linejoin="miter"><path d="M234.83869,183.65993l-8.3924,-8.3924l0.8792,-0.8792l8.3924,8.3924z" fill="#ffb780"/><path d="M224.76781,176.94601c-1.16978,-1.16978 -1.16978,-3.06638 0,-4.23617c1.16978,-1.16978 3.06638,-1.16978 4.23617,0c1.16978,1.16978 1.16978,3.06638 0,4.23617c-1.16978,1.16978 -3.06638,1.16978 -4.23617,0z" fill="#ff6f00"/></g><g data-paper-data="{&quot;index&quot;:null}" fill-rule="nonzero" stroke="#000000" stroke-width="0.5" stroke-linecap="butt" stroke-linejoin="miter"><path d="M243.38897,182.78072l8.3924,-8.3924l0.8792,0.8792l-8.3924,8.3924z" fill="#ffb780"/><path d="M250.10289,176.94601c-1.16978,-1.16978 -1.16978,-3.06638 0,-4.23617c1.16978,-1.16978 3.06638,-1.16978 4.23617,0c1.16978,1.16978 1.16978,3.06638 0,4.23617c-1.16978,1.16978 -3.06638,1.16978 -4.23617,0z" fill="#ff6f00"/></g><path d="M228.60025,187.27438c0,-5.6464 4.8763,-10.22371 10.89152,-10.22371c6.01522,0 10.89153,4.57732 10.89153,10.22371" fill="#ff6f00" fill-rule="nonzero" stroke="#000000" stroke-width="0.5" stroke-linecap="butt" stroke-linejoin="miter"/></g></g></svg>