<svg version="1.1" xmlns="http://www.w3.org/2000/svg" xmlns:xlink="http://www.w3.org/1999/xlink" width="407" height="307.1125" viewBox="0,0,407,307.1125"><defs><radialGradient cx="212.87081" cy="137.27564" r="23.48065" gradientUnits="userSpaceOnUse" id="color-1"><stop offset="0" stop-color="#ffffff"/><stop offset="1" stop-color="#ff8080"/></radialGradient><radialGradient cx="267.12926" cy="137.27563" r="23.48065" gradientUnits="userSpaceOnUse" id="color-2"><stop offset="0" stop-color="#ffffff"/><stop offset="1" stop-color="#ff8080"/></radialGradient></defs><g transform="translate(-36.5,-46.3875)"><g data-paper-data="{&quot;isPaintingLayer&quot;:true}" fill-rule="nonzero" stroke-linejoin="miter" stroke-miterlimit="10" stroke-dasharray="" stroke-dashoffset="0" style="mix-blend-mode: normal"><path d="M178.40899,313.61251v-267.22501h123.18203v267.22501z" fill-opacity="0.01" fill="#000000" stroke="none" stroke-width="0" stroke-linecap="butt"/><path d="M206.75004,307.50001l15.14285,-131.8421l37.78325,-0.15789l13.57389,132z" fill="#494949" stroke="#000000" stroke-width="0" stroke-linecap="butt"/><path d="M224.5537,207.13126v-16.6h32.8v16.6l-17,2.6z" fill="#591b1a" stroke="none" stroke-width="0" stroke-linecap="butt"/><path d="M216.22917,185.69185l12.02222,9.4l13.2,13.85l12.75,-16.05l9.52778,-7.2l11.3268,9.8602l-12.74862,4.03868l4.86948,5.69507l-25.94766,7.65606l-26.11124,-6.52225l4.21232,-7.20426l-15.39702,-3.82449z" fill="#383838" stroke="none" stroke-width="0" stroke-linecap="butt"/><path d="M267.69843,194.19566c0.26477,-2.39162 -3.96926,-8.50382 -3.96926,-8.50382l11.3268,9.8602l-12.74862,4.03868z" fill="#742322" stroke="none" stroke-width="0" stroke-linecap="butt"/><path d="M250.90735,205.59072c2.4124,-0.7118 3.65351,3.41751 3.65351,3.41751l-13.33169,3.93362c0,0 5.12903,-6.00887 9.67818,-7.35113z" fill="#742322" stroke="none" stroke-width="0" stroke-linecap="butt"/><path d="M216.22917,185.69185c0,0 3.90813,6.40002 4.45518,8.82557c0.43389,1.92379 -1.43296,4.57443 -1.43296,4.57443c0,0 -0.24729,2.47957 0.92077,4.0513c0.91284,1.22832 3.23504,1.51294 3.62374,2.19163c0.96894,1.69185 1.04275,3.51292 1.04275,3.51292l-9.72072,-2.42811l4.21232,-7.20426l-15.39702,-3.82449z" fill="#742322" stroke="none" stroke-width="0" stroke-linecap="butt"/><path d="M175.83995,136.84616c0,-33.30185 28.7599,-60.29833 64.23702,-60.29833c35.47712,0 64.23702,26.99649 64.23702,60.29833c0,33.30185 -28.7599,60.29833 -64.23702,60.29833c-35.47712,0 -64.23702,-26.99649 -64.23702,-60.29833z" fill="#742322" stroke="#000000" stroke-width="2" stroke-linecap="butt"/><path d="M178.79166,128.88368v-17.05556l-8,-1l17.5,-9.5c0,0 -6.00554,-3.87949 -8.79059,-6.14235c-2.52217,-2.04927 -5.70941,-10.85765 -5.70941,-10.85765c0,0 5.26458,5.82101 9.81836,6.82438c5.19487,1.14464 15.18164,0.67562 15.18164,0.67562" fill="#742322" stroke="#000000" stroke-width="2" stroke-linecap="round"/><path d="M286.79166,95.82813c0,0 9.62593,0.16085 15.42222,0.98889c4.12139,0.58877 11.07778,0.01111 11.07778,0.01111c0,0 -6.79194,5.73618 -10.348,6.58286c-3.44009,0.81907 -10.652,1.41714 -10.652,1.41714l17,6l-8,1v17.05556" data-paper-data="{&quot;index&quot;:null}" fill="#742322" stroke="#000000" stroke-width="2" stroke-linecap="round"/><path d="M255.94998,172.7398c0,0 -5.18437,14.3273 -16.33848,14.47615c-9.19495,0.12271 -15.43778,-14.47615 -15.43778,-14.47615z" fill="#ffffff" stroke="#000000" stroke-width="2" stroke-linecap="round"/><path d="M176.56301,136.90001c0,-0.72799 5.20666,55.91939 63.36046,56.93429c55.56352,0.9697 63.51358,-57.95314 63.51358,-56.93429c0,32.80479 -28.40173,59.39833 -63.43702,59.39833c-35.03529,0 -63.43702,-26.59354 -63.43702,-59.39833z" fill="#591b1a" stroke="#000000" stroke-width="0" stroke-linecap="butt"/><path d="M189.39016,137.27564c0,-12.968 10.51265,-23.48065 23.48065,-23.48065c12.968,0 23.48065,10.51265 23.48065,23.48065c0,12.968 -10.51265,23.48065 -23.48065,23.48065c-12.968,0 -23.48065,-10.51265 -23.48065,-23.48065z" fill="url(#color-1)" stroke="#000000" stroke-width="2" stroke-linecap="butt"/><path d="M196.45555,137c0,-9.12808 7.39976,-16.52784 16.52783,-16.52784c9.12808,0 16.52784,7.39977 16.52784,16.52784c0,9.12808 -7.39977,16.52784 -16.52784,16.52784c-9.12808,0 -16.52783,-7.39977 -16.52783,-16.52784z" fill="#000000" stroke="none" stroke-width="0" stroke-linecap="butt"/><path d="M267.12926,160.75628c-12.968,0 -23.48065,-10.51265 -23.48065,-23.48065c0,-12.968 10.51265,-23.48065 23.48065,-23.48065c12.968,0 23.48065,10.51265 23.48065,23.48065c0,12.968 -10.51265,23.48065 -23.48065,23.48065z" data-paper-data="{&quot;index&quot;:null}" fill="url(#color-2)" stroke="#000000" stroke-width="2" stroke-linecap="butt"/><path d="M267.01668,153.52785c-9.12807,0 -16.52783,-7.39977 -16.52783,-16.52784c0,-9.12808 7.39977,-16.52784 16.52783,-16.52784c9.12807,0 16.52783,7.39977 16.52783,16.52784c0,9.12808 -7.39977,16.52784 -16.52783,16.52784z" data-paper-data="{&quot;index&quot;:null}" fill="#000000" stroke="none" stroke-width="0" stroke-linecap="butt"/><path d="M202.02783,108.46717c0,0 6.70895,-5.16922 11.79721,-6.36355c5.08827,-1.19433 12.33413,0.69937 12.33413,0.69937c0,0 -8.03812,-0.06028 -11.96762,0.86207c-4.10648,0.96389 -12.16372,4.80211 -12.16372,4.80211z" fill="#000000" stroke="none" stroke-width="0" stroke-linecap="butt"/><path d="M265.96236,103.66507c-3.9295,-0.92235 -11.96762,-0.86207 -11.96762,-0.86207c0,0 7.24586,-1.8937 12.33413,-0.69937c5.08826,1.19433 11.79721,6.36355 11.79721,6.36355c0,0 -8.05724,-3.83822 -12.16372,-4.80211z" data-paper-data="{&quot;index&quot;:null}" fill="#000000" stroke="none" stroke-width="0" stroke-linecap="butt"/><path d="M251.58585,179.32256c0,0 -7.52014,0.4 -11.4,0.4c-4.04646,0 -12.4,-0.4 -12.4,-0.4" fill="none" stroke="#000000" stroke-width="2" stroke-linecap="round"/><path d="M202.96139,176.58829c-2.65428,-3.35811 -1.76,-17.952 -1.76,-17.952h22c0,0 0.0136,16.81106 -3,16.962c-2.16997,0.10869 -5.09925,-14.74508 -5.09925,-14.74508c0,0 -4.33164,6.30359 -7.60432,5.74911c-3.6681,-0.62147 -1.88215,13.34407 -4.53643,9.98596z" fill="#b22626" stroke="none" stroke-width="0" stroke-linecap="butt"/><path d="M265.71139,170.83829c-4.21132,0.76609 -3.01,-12.202 -3.01,-12.202h22c0,0 0.0136,16.81106 -3,16.962c-0.10613,0.00532 -2.69199,-15.86227 -4.42669,-14.65483c-1.6195,1.12725 -0.17633,20.04133 -3.92256,19.65975c-3.30883,-0.33703 -2.08164,-18.19641 -5.35432,-18.75089c-3.6681,-0.62147 -0.13215,8.59407 -2.28643,8.98596z" fill="#b22626" stroke="none" stroke-width="0" stroke-linecap="butt"/><path d="M188.85899,186.57018c0,0 0.5298,-15.62255 1.03739,-22.67191c0.42922,-5.96089 1.81267,-16.90908 1.81267,-16.90908l6.62341,-0.75823c0,0 -0.50243,13.19571 0.28769,20.09769c0.85951,7.50806 4.67876,23.28563 4.67876,23.28563z" fill="#272727" stroke="none" stroke-width="0" stroke-linecap="butt"/><path d="M180.52777,193.55208c0,0 2.3032,-15.46092 3.60926,-22.40681c1.1044,-5.8734 3.72407,-16.59319 3.72407,-16.59319h6.66666c0,0 -2,13.05294 -2,20c0,7.55709 2,23.66667 2,23.66667z" fill="#2e2e2e" stroke="none" stroke-width="0" stroke-linecap="butt"/><path d="M178.99074,164.03357c0,0 -5.43777,-9.74151 -5.25,-28.17115c0.16638,-16.32969 5.25,-23.99552 5.25,-23.99552h121.83333c0,0 6,6.61465 6,23.73812c0,18.93107 -6,28.42854 -6,28.42854z" fill="#494949" stroke="#000000" stroke-width="0" stroke-linecap="butt"/><path d="M178.99074,164.03357c0,0 -5.43777,-9.74151 -5.25,-28.17115c0.16638,-16.32969 5.25,-23.99552 5.25,-23.99552c0,0 -0.04615,42.89383 60.30092,42.72862c65.20726,-0.17852 61.53242,-42.72862 61.53242,-42.72862c0,0 6,6.61465 6,23.73812c0,18.93107 -6,28.42854 -6,28.42854z" fill="#272727" stroke="#000000" stroke-width="0" stroke-linecap="butt"/><path d="M173.74074,135.86242c0.16638,-16.32969 5.25,-23.99552 5.25,-23.99552h12.04398c0,0 1.66864,1.91047 0.45807,3.65734c-1.26722,1.82864 -3.90638,1.82769 -3.90638,1.82769c0,0 3.01172,3.86185 1.91924,5.46561c-3.20152,4.69987 -6.42099,6.82705 -6.42099,6.82705c0,0 1.93968,4.67741 -0.89644,7.68442c-1.79929,1.9077 -8.44748,-1.46659 -8.44748,-1.46659z" fill="#b22626" stroke="#000000" stroke-width="0" stroke-linecap="butt"/><path d="M307.32407,135.10503c0,18.93107 -6,28.42854 -6,28.42854l-38.49925,0.2c0,0 4.16882,-8.93939 11.84254,-12.71057c4.76443,-2.34143 12.51866,1.12423 16.49395,-2.02055c4.27071,-3.37847 3.10442,-10.95315 5.41829,-12.43136c4.01786,-2.56683 10.74447,-1.46606 10.74447,-1.46606z" fill="#b22626" stroke="#000000" stroke-width="0" stroke-linecap="butt"/><path d="M284.78705,97.82988l4.5,24.83334c0,0 -7.3444,-2.67735 -9.79341,-4.38291c-3.43392,-2.39148 -8.87326,-8.61709 -8.87326,-8.61709l-0.66666,8.66666c0,0 -2.95676,-2.85831 -4.04209,-4.44368c-1.2495,-1.82518 -3.03199,-5.88966 -3.03199,-5.88966c0,0 -3.39718,3.86123 -6.08362,5.97939c-3.04604,2.40169 -11.24972,7.68728 -11.24972,7.68728l-2,-9.66667c0,0 -8.25494,4.70158 -12.04922,5.49379c-5.59773,1.16875 -18.28412,0.83954 -18.28412,0.83954l11,-13.66666c0,0 -7.48804,3.82049 -10.53145,5.66188c-3.50288,2.11939 -9.30188,6.33812 -9.30188,6.33812c0,0 -2.95684,-5.56001 -3.39475,-8.33342c-0.38982,-2.46886 0.89475,-7.49992 0.89475,-7.49992" fill="#742322" stroke="#000000" stroke-width="2" stroke-linecap="round"/><g stroke="none" stroke-width="0" stroke-linecap="butt"><path d="M214.45694,232.13629l1.25,-10.75h49.7l0.75,10.75z" fill="#371916"/><path d="M233.37593,234.83495v-15.2h15.2v15.2z" fill="#d3d3d3"/><path d="M235.57593,232.63496v-10.8h10.8v10.8z" fill="#371916"/></g><g stroke="none" stroke-width="0" stroke-linecap="butt"><path d="M213.25694,249.13629l1.25,-10.75h52.5l0.75,10.75z" fill="#371916"/><path d="M233.37593,251.83495v-15.2h15.2v15.2z" fill="#d3d3d3"/><path d="M235.57593,249.63496v-10.8h10.8v10.8z" fill="#371916"/></g><g stroke="none" stroke-width="0" stroke-linecap="butt"><path d="M209.25694,282.13629l1.25,-10.75h59.9l0.75,10.75z" fill="#371916"/><path d="M233.37593,284.83495v-15.2h15.2v15.2z" fill="#d3d3d3"/><path d="M235.57593,282.63496v-10.8h10.8v10.8z" fill="#371916"/></g><g stroke="none" stroke-width="0" stroke-linecap="butt"><path d="M207.05694,299.13629l1.25,-10.75h64.1l0.75,10.75z" fill="#371916"/><path d="M233.37593,301.83495v-15.2h15.2v15.2z" fill="#d3d3d3"/><path d="M235.57593,299.63496v-10.8h10.8v10.8z" fill="#371916"/></g><path d="M233.34721,79.82813c0,0 -5.35397,-2.78787 -8.87619,-3.56276c-4.5467,-1.00027 -16.12381,-1.93724 -16.12381,-1.93724c0,0 11.71434,-1.8177 17.48853,-1.73151c5.36191,0.08003 16.01147,2.23151 16.01147,2.23151c0,0 -4.78424,-4.56379 -7.89219,-6.65985c-3.88421,-2.61958 -13.60781,-7.84015 -13.60781,-7.84015c0,0 9.98007,2.59019 15.02543,4.65796c5.12021,2.09845 15.47457,7.84204 15.47457,7.84204c0,0 10.3619,-4.74285 15.81811,-6.18715c5.8497,-1.54845 18.18189,-2.81285 18.18189,-2.81285c0,0 -12.02743,3.76371 -16.9,6.2c-3.91732,1.95866 -10.1,7.3 -10.1,7.3c0,0 11.79535,0.52733 17.33175,1.47889c5.09325,0.8754 14.66825,4.02111 14.66825,4.02111c0,0 -10.096,-0.97779 -15.01156,-0.72354c-4.74509,0.24544 -13.98844,2.22354 -13.98844,2.22354" fill="#742322" stroke="#000000" stroke-width="2" stroke-linecap="round"/><path d="M36.5,353.5v-41h407v41z" fill="#666666" stroke="none" stroke-width="0" stroke-linecap="butt"/><text transform="translate(40.61257,343.01875) scale(0.78169,0.78169)" font-size="40" xml:space="preserve" fill="#ffffff" fill-rule="nonzero" stroke="none" stroke-width="1" stroke-linecap="butt" stroke-linejoin="miter" stroke-miterlimit="10" stroke-dasharray="" stroke-dashoffset="0" font-family="Sans Serif" font-weight="normal" text-anchor="start" style="mix-blend-mode: normal"><tspan x="0" dy="0">sprunki if it was peak</tspan></text></g></g></svg>