<svg version="1.1" xmlns="http://www.w3.org/2000/svg" xmlns:xlink="http://www.w3.org/1999/xlink" width="181.0349" height="282.85361" viewBox="0,0,181.0349,282.85361"><defs><linearGradient x1="151.89816" y1="159.86689" x2="202.89816" y2="159.86689" gradientUnits="userSpaceOnUse" id="color-1"><stop offset="0" stop-color="#666666"/><stop offset="1" stop-color="#000000"/></linearGradient><linearGradient x1="277.89815" y1="159.86689" x2="328.89815" y2="159.86689" gradientUnits="userSpaceOnUse" id="color-2"><stop offset="0" stop-color="#000000"/><stop offset="1" stop-color="#666666"/></linearGradient><linearGradient x1="187.22468" y1="34.46969" x2="187.22468" y2="130.62384" gradientUnits="userSpaceOnUse" id="color-3"><stop offset="0" stop-color="#666666"/><stop offset="1" stop-color="#000000"/></linearGradient><linearGradient x1="288.11433" y1="30.75891" x2="288.11433" y2="130.56798" gradientUnits="userSpaceOnUse" id="color-4"><stop offset="0" stop-color="#666666"/><stop offset="1" stop-color="#000000"/></linearGradient><linearGradient x1="240.00001" y1="175.50001" x2="240.00001" y2="307.50001" gradientUnits="userSpaceOnUse" id="color-5"><stop offset="0" stop-color="#000000"/><stop offset="1" stop-color="#666666"/></linearGradient><linearGradient x1="240.00002" y1="72.70167" x2="240.00002" y2="193.29834" gradientUnits="userSpaceOnUse" id="color-6"><stop offset="0" stop-color="#1a1a1a"/><stop offset="1" stop-color="#808080"/></linearGradient><radialGradient cx="283.00205" cy="177.42292" r="13.527" gradientUnits="userSpaceOnUse" id="color-7"><stop offset="0" stop-color="#1a0000"/><stop offset="1" stop-color="#800000"/></radialGradient><linearGradient x1="216.67361" y1="236.47888" x2="233.17361" y2="236.47888" gradientUnits="userSpaceOnUse" id="color-8"><stop offset="0" stop-color="#1a0000"/><stop offset="1" stop-color="#800000"/></linearGradient><linearGradient x1="238.53719" y1="234.8583" x2="242.37551" y2="234.8583" gradientUnits="userSpaceOnUse" id="color-9"><stop offset="0" stop-color="#1a0000"/><stop offset="1" stop-color="#800000"/></linearGradient><linearGradient x1="227.70635" y1="216.34243" x2="230.20635" y2="216.34243" gradientUnits="userSpaceOnUse" id="color-10"><stop offset="0" stop-color="#1a0000"/><stop offset="1" stop-color="#800000"/></linearGradient><linearGradient x1="240.13492" y1="248.08846" x2="242.63492" y2="248.08846" gradientUnits="userSpaceOnUse" id="color-11"><stop offset="0" stop-color="#1a0000"/><stop offset="1" stop-color="#800000"/></linearGradient><linearGradient x1="229.41362" y1="241.80377" x2="236.22085" y2="241.80377" gradientUnits="userSpaceOnUse" id="color-12"><stop offset="0" stop-color="#1a0000"/><stop offset="1" stop-color="#800000"/></linearGradient></defs><g transform="translate(-147.86326,-30.75891)"><g data-paper-data="{&quot;isPaintingLayer&quot;:true}" fill-rule="nonzero" stroke-linejoin="miter" stroke-miterlimit="10" stroke-dasharray="" stroke-dashoffset="0" style="mix-blend-mode: normal"><path d="M202.89816,180.36689l-34,-2l16,-20.33333l-33,-6.66667l25.66667,-12" fill="url(#color-1)" stroke="#000000" stroke-width="0" stroke-linecap="round"/><path d="M303.23149,139.36689l25.66667,12l-33,6.66667l16,20.33333l-34,2" data-paper-data="{&quot;index&quot;:null}" fill="url(#color-2)" stroke="#000000" stroke-width="0" stroke-linecap="round"/><path d="M177.29528,130.62384l-29.43202,-96.15415l78.72285,40.19039" fill="url(#color-3)" stroke="#000000" stroke-width="0" stroke-linecap="round"/><path d="M252.17682,75.66598l71.87502,-44.90707l-21.40426,99.80907" data-paper-data="{&quot;index&quot;:null}" fill="url(#color-4)" stroke="#000000" stroke-width="0" stroke-linecap="round"/><path d="M179.28373,313.61252v-267.22501h123.18203v267.22501z" fill-opacity="0.01" fill="#000000" stroke="none" stroke-width="0" stroke-linecap="butt"/><path d="M206.75002,307.5l15.14285,-131.8421l37.78325,-0.15789l13.57389,132z" fill="url(#color-5)" stroke="#000000" stroke-width="0" stroke-linecap="butt"/><path d="M175.763,133c0,-33.30185 28.7599,-60.29833 64.23702,-60.29833c35.47713,0 64.23702,26.99648 64.23702,60.29833c0,33.30185 -28.75989,60.29834 -64.23702,60.29834c-35.47712,0 -64.23702,-26.99649 -64.23702,-60.29834z" fill="url(#color-6)" stroke="#000000" stroke-width="0" stroke-linecap="butt"/><path d="M294.3074,165.2198c-5.73727,8.50299 -13.67842,15.56595 -23.06959,20.48125c0,0 -6.52779,-5.76002 -2.9808,-8.63654c4.29641,-3.48429 5.31451,2.22492 8.53413,0.18158c2.93046,-1.85982 4.62866,-7.14493 6.96297,-9.34754c4.18064,-3.94478 10.55328,-2.67876 10.55328,-2.67876z" fill="url(#color-7)" stroke="#000000" stroke-width="0" stroke-linecap="butt"/><path d="M189.00557,132.97569l-3.6,-2.6" fill="none" stroke="#000000" stroke-width="2" stroke-linecap="round"/><path d="M189.39014,133.27563c0,-12.96801 10.51265,-23.48065 23.48066,-23.48065c12.96801,0 23.48065,10.51264 23.48065,23.48065c0,12.96801 -10.51264,23.48066 -23.48065,23.48066c-12.96801,0 -23.48066,-10.51265 -23.48066,-23.48066z" fill="#808080" stroke="#000000" stroke-width="0" stroke-linecap="butt"/><path d="M239.70065,177.38549c-29.34362,-0.79163 -54.44364,-28.47905 -54.44364,-28.47905c0,0 14.50502,20.61017 54.91662,21.08333c41.91185,0.49072 54.69298,-19.58333 54.69298,-19.58333c0,0 -25.82234,27.77068 -55.16596,26.97905z" fill="#000000" stroke="#000000" stroke-width="2" stroke-linecap="round"/><path d="M240.51314,176.57299c-22.28485,-0.60671 -41.28046,-16.56609 -39.29967,-15.07594c8.71293,6.55472 21.51213,9.16197 39.08515,9.36772c16.60078,0.19437 28.50637,-1.11722 36.98274,-6.6977c0,0 -19.47913,12.87662 -36.76822,12.40592z" fill="#808080" stroke="#000000" stroke-width="0" stroke-linecap="round"/><path d="M290.1389,132.77569l4.2,-3.4" fill="none" stroke="#000000" stroke-width="2" stroke-linecap="round"/><path d="M267.12924,156.75629c-12.96801,0 -23.48065,-10.51265 -23.48065,-23.48066c0,-12.96801 10.51264,-23.48065 23.48065,-23.48065c12.96801,0 23.48066,10.51264 23.48066,23.48065c0,12.96801 -10.51265,23.48066 -23.48066,23.48066z" data-paper-data="{&quot;index&quot;:null}" fill="#808080" stroke="#000000" stroke-width="0" stroke-linecap="butt"/><path d="M200.45554,133c0,-11.19913 5.60889,-20.27783 12.52783,-20.27783c6.91893,0 12.52784,9.07869 12.52784,20.27785c0,11.19913 -5.6089,20.27785 -12.52784,20.27785c-6.91893,0 -12.52783,-9.07869 -12.52783,-20.27785z" fill="none" stroke="#000000" stroke-width="1.5" stroke-linecap="butt"/><path d="M278.5445,133c0,10.23266 -5.04925,18.52785 -11.27783,18.52785c-6.22857,0 -11.27784,-8.29522 -11.27784,-18.52785c0,-10.23266 5.04927,-18.52785 11.27784,-18.52785c6.22857,0 11.27783,8.2952 11.27783,18.52784z" data-paper-data="{&quot;index&quot;:null}" fill="none" stroke="#000000" stroke-width="1.5" stroke-linecap="butt"/><path d="M202.02783,96.21717c0,0 6.70895,-5.16922 11.79721,-6.36355c5.08827,-1.19433 12.33413,0.69937 12.33413,0.69937c0,0 -8.03812,-0.06028 -11.96762,0.86207c-4.10648,0.96389 -12.16372,4.80211 -12.16372,4.80211z" fill="#000000" stroke="none" stroke-width="0" stroke-linecap="butt"/><path d="M265.96236,91.41507c-3.9295,-0.92235 -11.96762,-0.86207 -11.96762,-0.86207c0,0 7.24586,-1.8937 12.33413,-0.69937c5.08826,1.19433 11.79721,6.36355 11.79721,6.36355c0,0 -8.05724,-3.83822 -12.16372,-4.80211z" data-paper-data="{&quot;index&quot;:null}" fill="#000000" stroke="none" stroke-width="0" stroke-linecap="butt"/><path d="M213.17361,252.22888l3.5,-32.5c0,0 14.76097,4.31685 15.17857,7.46429c0.26388,1.98879 -11.22333,-1.41952 -11.86672,3.14801c-0.66511,4.72171 16.21886,3.25015 16.29986,5.2733c0.07161,1.78869 -14.86287,1.56078 -15.19641,4.46468c-0.31381,2.73211 3.84057,2.20496 4.06988,4.96097c0.17582,2.11311 8.92402,0.85204 9.12197,3.58161c0.18234,2.51443 -21.10715,3.60714 -21.10715,3.60714z" fill="url(#color-8)" stroke="none" stroke-width="0" stroke-linecap="butt"/><path d="M242.1919,235.8225c-0.60706,1.09269 -1.69975,0.48564 -1.69975,0.48564l-1.28572,-0.71428c0,0 -1.09269,-0.60706 -0.48564,-1.69975c0.60706,-1.09269 1.69975,-0.48565 1.69975,-0.48565l1.28571,0.71429c0,0 1.0927,0.60706 0.48564,1.69975z" fill="url(#color-9)" stroke="none" stroke-width="0.5" stroke-linecap="butt"/><path d="M227.70635,216.34243c0,-0.69036 0.55964,-1.25 1.25,-1.25c0.69036,0 1.25,0.55964 1.25,1.25c0,0.69036 -0.55964,1.25 -1.25,1.25c-0.69036,0 -1.25,-0.55964 -1.25,-1.25z" fill="url(#color-10)" stroke="none" stroke-width="0.5" stroke-linecap="butt"/><path d="M240.13492,248.08846c0,-0.69036 0.55964,-1.25 1.25,-1.25c0.69036,0 1.25,0.55964 1.25,1.25c0,0.69036 -0.55964,1.25 -1.25,1.25c-0.69036,0 -1.25,-0.55964 -1.25,-1.25z" fill="url(#color-11)" stroke="none" stroke-width="0.5" stroke-linecap="butt"/><path d="M236.15363,242.5905c-0.35918,1.19728 -1.55647,0.8381 -1.55647,0.8381l-1.31902,-0.40104c-0.94874,-0.102 -1.89222,-0.25329 -2.83112,-0.42355c0,0 -1.22983,-0.2236 -1.00623,-1.45344c0.2236,-1.22984 1.45344,-1.00623 1.45344,-1.00623c0.95611,0.17431 1.91759,0.32317 2.88316,0.43358l1.53813,0.45611c0,0 1.19728,0.35918 0.8381,1.55647z" fill="url(#color-12)" stroke="none" stroke-width="0.5" stroke-linecap="butt"/></g></g></svg>