<svg version="1.1" xmlns="http://www.w3.org/2000/svg" xmlns:xlink="http://www.w3.org/1999/xlink" width="183.34483" height="292.36954" viewBox="0,0,183.34483,292.36954"><g transform="translate(-148.72573,-21.24298)"><g data-paper-data="{&quot;isPaintingLayer&quot;:true}" fill-rule="nonzero" stroke-linejoin="miter" stroke-miterlimit="10" stroke-dasharray="" stroke-dashoffset="0" style="mix-blend-mode: normal"><path d="M179.28372,313.61252v-267.22501h123.18203v267.22501z" fill-opacity="0.01" fill="#000000" stroke="none" stroke-width="0" stroke-linecap="butt"/><path d="M176.62463,132.65711l-11.56543,-108.98528l62.49542,54.509" fill="#ffffff" stroke="#000000" stroke-width="2" stroke-linecap="round"/><path d="M251.89253,78.18083l62.49542,-54.509l-11.56544,108.98528" data-paper-data="{&quot;index&quot;:null}" fill="#ffffff" stroke="#000000" stroke-width="2" stroke-linecap="round"/><path d="M202.89815,182.70022l-34,-2l16,-20.33333l-33,-6.66667l25.66667,-12" fill="#ffffff" stroke="#000000" stroke-width="2" stroke-linecap="round"/><path d="M202.23148,181.86689l-31.37398,-1.84553l15.63923,-20.38787l-30.99288,-6.3601l4.51761,-2.36484l26.44339,8.75181l-12.48699,16.30706z" fill="#e6e6e6" stroke="none" stroke-width="0" stroke-linecap="round"/><path d="M303.23148,141.70022l25.66667,12l-33,6.66667l16,20.33333l-34,2" data-paper-data="{&quot;index&quot;:null}" fill="#ffffff" stroke="#000000" stroke-width="2" stroke-linecap="round"/><path d="M306.92413,175.96742l-12.48699,-16.30706l26.44338,-8.75181l4.51761,2.36484l-30.99288,6.3601l15.63923,20.38787l-31.37399,1.84553z" data-paper-data="{&quot;index&quot;:null}" fill="#e6e6e6" stroke="none" stroke-width="0" stroke-linecap="round"/><path d="M206.75001,307.5l15.14285,-131.8421l37.78325,-0.15789l13.57389,132z" fill="#ffffff" stroke="#000000" stroke-width="2" stroke-linecap="butt"/><path d="M219.70025,204.11263l3.12142,-26.32765l35.83075,-0.14203l2.76735,26.1059c0,0 -7.51543,4.19603 -21.55904,4.50964c-12.48458,0.27879 -20.16049,-4.14586 -20.16049,-4.14586z" fill="#e6e6e6" stroke="#000000" stroke-width="0" stroke-linecap="butt"/><path d="M175.76299,135c0,-33.30185 28.7599,-60.29833 64.23702,-60.29833c35.47713,0 64.23702,26.99648 64.23702,60.29833c0,33.30185 -28.75989,60.29834 -64.23702,60.29834c-35.47712,0 -64.23702,-26.99649 -64.23702,-60.29834z" fill="#ffffff" stroke="#000000" stroke-width="2" stroke-linecap="butt"/><path d="M239.92346,191.83429c22.75803,0.39718 39.31767,-10.24678 38.34372,-9.55603c-10.63726,7.54427 -23.89398,12.02007 -38.26716,12.02007c-14.23449,0 -27.37396,-4.38984 -37.9585,-11.80253c-0.40164,-0.28128 15.12391,8.94132 37.88194,9.33849z" fill="#e6e6e6" stroke="#000000" stroke-width="0" stroke-linecap="butt"/><path d="M189.39013,135.27563c0,-12.96801 10.51265,-23.48065 23.48066,-23.48065c12.96801,0 23.48065,10.51264 23.48065,23.48065c0,12.96801 -10.51264,23.48066 -23.48065,23.48066c-12.96801,0 -23.48066,-10.51265 -23.48066,-23.48066z" fill="#ffffff" stroke="#000000" stroke-width="2" stroke-linecap="butt"/><path d="M197.95553,135c0,-8.29964 6.72818,-15.02784 15.02783,-15.02784c8.29964,0 15.02784,6.72819 15.02784,15.02785c0,8.29964 -6.72819,15.02785 -15.02784,15.02785c-8.29964,0 -15.02783,-6.72819 -15.02783,-15.02785z" fill="none" stroke="#000000" stroke-width="5" stroke-linecap="butt"/><path d="M261.8666,169.15644c0,0 -13.02392,5.45117 -21.73749,5.5c-8.71357,0.04883 -22.87211,-5.25 -22.87211,-5.25" fill="none" stroke="#000000" stroke-width="2" stroke-linecap="round"/><path d="M267.12923,158.75629c-12.96801,0 -23.48065,-10.51265 -23.48065,-23.48066c0,-12.96801 10.51264,-23.48065 23.48065,-23.48065c12.96801,0 23.48066,10.51264 23.48066,23.48065c0,12.96801 -10.51265,23.48066 -23.48066,23.48066z" data-paper-data="{&quot;index&quot;:null}" fill="#ffffff" stroke="#000000" stroke-width="2" stroke-linecap="butt"/><path d="M282.04449,135c0,8.29966 -6.72818,15.02785 -15.02783,15.02785c-8.29964,0 -15.02784,-6.72821 -15.02784,-15.02785c0,-8.29966 6.7282,-15.02785 15.02784,-15.02785c8.29964,0 15.02783,6.7282 15.02783,15.02784z" data-paper-data="{&quot;index&quot;:null}" fill="none" stroke="#000000" stroke-width="5" stroke-linecap="butt"/><path d="M189.3389,134.97569l-3.6,-2.6" fill="none" stroke="#000000" stroke-width="2" stroke-linecap="round"/><path d="M290.1389,134.77569l4.2,-3.4" fill="none" stroke="#000000" stroke-width="2" stroke-linecap="round"/><path d="M202.02782,105.46716c0,0 6.70895,-5.16922 11.79721,-6.36355c5.08827,-1.19433 12.33413,0.69937 12.33413,0.69937c0,0 -8.03812,-0.06028 -11.96762,0.86207c-4.10648,0.96389 -12.16372,4.80211 -12.16372,4.80211z" fill="#000000" stroke="none" stroke-width="0" stroke-linecap="butt"/><path d="M265.96236,100.66506c-3.9295,-0.92235 -11.96762,-0.86207 -11.96762,-0.86207c0,0 7.24586,-1.8937 12.33413,-0.69937c5.08826,1.19433 11.79721,6.36355 11.79721,6.36355c0,0 -8.05724,-3.83822 -12.16372,-4.80211z" data-paper-data="{&quot;index&quot;:null}" fill="#000000" stroke="none" stroke-width="0" stroke-linecap="butt"/><path d="M189.39013,134.94229c0,-12.96801 10.51265,-23.48065 23.48066,-23.48065c12.96801,0 23.48065,10.51264 23.48065,23.48065c0,0 -7.7034,-9.593 -23.92315,-9.48244c-15.92464,0.10855 -23.03816,10.09048 -23.03816,9.48244z" fill="#ffffff" stroke="#000000" stroke-width="2" stroke-linecap="butt"/><path d="M267.57173,125.79319c-16.21975,-0.11056 -23.92315,9.48244 -23.92315,9.48244c0,-12.96801 10.51264,-23.48065 23.48065,-23.48065c12.96801,0 23.48066,10.51264 23.48066,23.48065c0,0.60804 -7.11352,-9.37389 -23.03816,-9.48244z" data-paper-data="{&quot;index&quot;:null}" fill="#ffffff" stroke="#000000" stroke-width="2" stroke-linecap="butt"/></g></g></svg>