<svg version="1.1" xmlns="http://www.w3.org/2000/svg" xmlns:xlink="http://www.w3.org/1999/xlink" width="35.125" height="35.12434" viewBox="0,0,35.125,35.12434"><g transform="translate(-222.43752,-162.43783)"><g data-paper-data="{&quot;isPaintingLayer&quot;:true}" stroke-miterlimit="10" stroke-dasharray="" stroke-dashoffset="0" style="mix-blend-mode: normal"><path d="M257.56251,169.8317v20.49804c0,4.00745 -3.22497,7.23243 -7.23242,7.23243h-20.5c-3.66107,0 -6.66147,-2.69385 -7.1543,-6.21484c0.7952,3.03475 3.54108,5.26367 6.83204,5.26367h20.0332c3.9166,0 7.07032,-3.15372 7.07032,-7.07031v-20.03321c0,-3.2976 -2.23906,-6.0451 -5.28321,-6.83398c3.52994,0.48496 6.23438,3.49081 6.23438,7.15821z" fill-opacity="0.29839" fill="#000000" fill-rule="evenodd" stroke="none" stroke-width="4.54219" stroke-linecap="round" stroke-linejoin="round"/><path d="M229.50719,162.43783h20.03378c3.9166,0 7.06966,3.15307 7.06966,7.06966v20.03379c0,3.91659 -3.15307,7.06966 -7.06966,7.06966h-20.03378c-3.91659,0 -7.06967,-3.15307 -7.06967,-7.06966v-20.03379c0,-3.91659 3.15308,-7.06966 7.06967,-7.06966z" fill="#808080" fill-rule="evenodd" stroke="none" stroke-width="4.43922" stroke-linecap="round" stroke-linejoin="round"/><g fill-rule="nonzero" stroke="#000000" stroke-width="0.5" stroke-linecap="butt" stroke-linejoin="miter"><path d="M244.4214,178.60124c1.54486,-1.65264 10.68278,-5.12471 10.68278,-5.12471c0,0 -2.84889,9.35098 -4.39375,11.00361c-0.56384,0.60317 -1.72068,-1.23287 -2.48253,-1.06456c-1.32556,0.29286 -2.35637,2.14838 -3.4592,1.11747c-1.73667,-1.62341 -1.89216,-4.27918 -0.3473,-5.93181z" data-paper-data="{&quot;index&quot;:null}" fill="#666666"/><path d="M234.2937,184.53305c-1.0009,0.93562 -2.30857,-1.56474 -3.53268,-1.71984c-0.89986,-0.11401 -1.75455,2.36709 -2.40906,1.66693c-1.54486,-1.65264 -4.39375,-11.00361 -4.39375,-11.00361c0,0 9.13792,3.47207 10.68278,5.12471c1.54486,1.65264 1.38938,4.3084 -0.3473,5.93182z" data-paper-data="{&quot;index&quot;:null}" fill="#666666"/><path d="M227.76892,185.58587c0,-6.14664 5.30831,-11.12947 11.85645,-11.12947c6.54814,0 11.85645,4.98283 11.85645,11.12947" fill="#808080"/></g></g></g></svg>