<svg version="1.1" xmlns="http://www.w3.org/2000/svg" xmlns:xlink="http://www.w3.org/1999/xlink" width="157.31673" height="285.31304" viewBox="0,0,157.31673,285.31304"><defs><linearGradient x1="289.87293" y1="138.48674" x2="318.43093" y2="139.24799" gradientUnits="userSpaceOnUse" id="color-1"><stop offset="0" stop-color="#000000"/><stop offset="1" stop-color="#240033"/></linearGradient><linearGradient x1="161.25194" y1="135.05817" x2="189.80996" y2="135.81941" gradientUnits="userSpaceOnUse" id="color-2"><stop offset="0" stop-color="#240033"/><stop offset="1" stop-color="#000000"/></linearGradient><linearGradient x1="240.00004" y1="175.50001" x2="240.00004" y2="307.50001" gradientUnits="userSpaceOnUse" id="color-3"><stop offset="0" stop-color="#000000"/><stop offset="1" stop-color="#470066"/></linearGradient><linearGradient x1="241.39967" y1="83.5602" x2="238.18614" y2="204.11404" gradientUnits="userSpaceOnUse" id="color-4"><stop offset="0" stop-color="#12001a"/><stop offset="1" stop-color="#590080"/></linearGradient><linearGradient x1="216.1309" y1="28.56634" x2="214.18065" y2="101.72881" gradientUnits="userSpaceOnUse" id="color-5"><stop offset="0" stop-color="#240033"/><stop offset="1" stop-color="#09000d"/></linearGradient><linearGradient x1="269.77849" y1="29.99641" x2="267.82824" y2="103.15888" gradientUnits="userSpaceOnUse" id="color-6"><stop offset="0" stop-color="#240033"/><stop offset="1" stop-color="#09000d"/></linearGradient></defs><g transform="translate(-160.89936,-28.29948)"><g data-paper-data="{&quot;isPaintingLayer&quot;:true}" fill-rule="nonzero" stroke-linecap="butt" stroke-linejoin="miter" stroke-miterlimit="10" stroke-dasharray="" stroke-dashoffset="0" style="mix-blend-mode: normal"><path d="M179.28374,313.61252v-267.22501h123.18203v267.22501z" fill-opacity="0.01" fill="#000000" stroke="none" stroke-width="0"/><path d="M303.46233,167.6522c-4.09819,-1.63024 -12.9094,-0.97067 -12.9094,-0.97067l-0.39131,-39.02428l22.87511,-25.73291c0,0 3.86623,3.29535 5.00318,33.48022c1.0893,28.91991 -3.22875,40.92683 -3.22875,40.92683c0,0 -7.36412,-7.09405 -11.34881,-8.67916z" data-paper-data="{&quot;index&quot;:null}" fill="url(#color-1)" stroke="#000000" stroke-width="0"/><path d="M162.89099,172.28173c0,0 -3.67226,-12.21991 -1.04379,-41.04072c2.74343,-30.08142 6.77972,-33.16613 6.77972,-33.16613l21.47171,26.91504l-2.46977,38.94802c0,0 -8.76359,-1.12805 -12.9428,0.28154c-4.06349,1.37056 -11.79507,8.06223 -11.79507,8.06223z" fill="url(#color-2)" stroke="#000000" stroke-width="0"/><path d="M206.75005,307.5l15.14285,-131.8421l37.78325,-0.15789l13.57389,132z" fill="url(#color-3)" stroke="#000000" stroke-width="0"/><path d="M175.57869,142.12541c1.38672,-33.27296 30.35645,-59.51055 65.82097,-58.56519c35.46452,0.94536 63.49484,28.69862 62.60744,61.98863c-0.88316,33.13092 -19.24651,34.58326 -26.28461,51.19434c-14.98471,35.36638 -26.11255,51.78266 -41.06278,51.87422c-16.94896,0.10381 -23.606,-20.02829 -38.46243,-54.13238c-8.72815,-20.03617 -24.00641,-19.06047 -22.6186,-52.35962z" fill="url(#color-4)" stroke="#000000" stroke-width="0"/><path d="M189.12153,142.58258c0.34555,-12.9634 11.1346,-23.19217 24.098,-22.84663c12.9634,0.34555 23.19217,11.1346 22.84663,24.098c-0.34555,12.9634 -11.1346,23.19217 -24.098,22.84663c-12.9634,-0.34555 -23.19217,-11.1346 -22.84663,-24.098z" fill="#808080" stroke="#000000" stroke-width="0"/><path d="M262.25029,203.29127c0.11913,15.6476 -16.37954,39.74571 -26.04424,39.81928c-9.6647,0.07359 -25.29035,-39.62762 -22.60578,-55.04369c1.72916,-9.92967 13.90498,-7.65721 23.56968,-7.73079c9.6647,-0.07359 24.9612,7.30758 25.08034,22.9552z" fill="#000000" stroke="#000000" stroke-width="2"/><path d="M193.85037,142.76636c0.27757,-10.41305 8.94403,-18.62945 19.35705,-18.35188c10.41305,0.27757 18.62945,8.94404 18.35188,19.35706c-0.27757,10.41305 -8.94404,18.62945 -19.35706,18.35188c-10.41305,-0.27757 -18.62944,-8.94404 -18.35187,-19.35706z" fill="#000000" stroke="none" stroke-width="0"/><path d="M266.19844,168.45961c-12.9634,-0.34555 -23.19217,-11.1346 -22.84663,-24.098c0.34555,-12.9634 11.1346,-23.19217 24.098,-22.84663c12.9634,0.34555 23.19217,11.1346 22.84663,24.098c-0.34555,12.9634 -11.1346,23.19217 -24.098,22.84663z" data-paper-data="{&quot;index&quot;:null}" fill="#808080" stroke="#000000" stroke-width="0"/><path d="M266.19859,164.22968c-10.78108,-0.28739 -19.28792,-9.26017 -19.00054,-20.04127c0.28738,-10.7811 9.26017,-19.28793 20.04126,-19.00055c10.78108,0.28739 19.28792,9.26017 19.00054,20.04127c-0.28738,10.7811 -9.26017,19.28793 -20.04126,19.00055z" data-paper-data="{&quot;index&quot;:null}" fill="#000000" stroke="none" stroke-width="0"/><path d="M204.34232,92.77477c-0.75872,-5.65629 1.77744,-64.47529 1.77744,-64.47529c0,0 17.94707,56.07149 18.70579,61.72777c0.75872,5.65629 -3.21157,10.85666 -8.86784,11.61536c-5.65628,0.75872 -10.85666,-3.21156 -11.61536,-8.86784z" fill="url(#color-5)" stroke="#000000" stroke-width="0"/><path d="M266.05833,102.97812c-5.60782,-1.05898 -9.29542,-6.46348 -8.23644,-12.07131c1.05897,-5.60783 21.96776,-60.64355 21.96776,-60.64355c0,0 -0.60104,58.87059 -1.66001,64.47842c-1.05897,5.60783 -6.46347,9.29541 -12.07132,8.23644z" data-paper-data="{&quot;index&quot;:null}" fill="url(#color-6)" stroke="#000000" stroke-width="0"/></g></g></svg>