<svg version="1.1" xmlns="http://www.w3.org/2000/svg" xmlns:xlink="http://www.w3.org/1999/xlink" width="34.17311" height="34.17311" viewBox="0,0,34.17311,34.17311"><g transform="translate(-222.91348,-162.91347)"><g data-paper-data="{&quot;isPaintingLayer&quot;:true}" stroke-miterlimit="10" stroke-dasharray="" stroke-dashoffset="0" style="mix-blend-mode: normal"><path d="M229.98314,162.91348h20.03379c3.9166,0 7.06966,3.15307 7.06966,7.06966v20.03379c0,3.91659 -3.15306,7.06966 -7.06966,7.06966h-20.03379c-3.91659,0 -7.06966,-3.15307 -7.06966,-7.06966v-20.03379c0,-3.91659 3.15307,-7.06966 7.06966,-7.06966z" fill="#ffc633" fill-rule="evenodd" stroke="none" stroke-width="4.43922" stroke-linecap="round" stroke-linejoin="round"/><path d="M238.80286,181.04026h-13.25807c0,0 -0.87576,-0.1876 -0.88758,-1.22041c-0.0108,-0.94402 0.88758,-1.22041 0.88758,-1.22041h13.25807z" fill="#ffc633" fill-rule="nonzero" stroke="#000000" stroke-width="0.5" stroke-linecap="butt" stroke-linejoin="miter"/><path d="M241.19715,178.59943h13.25807c0,0 0.89837,0.27639 0.88758,1.22041c-0.01181,1.03281 -0.88758,1.22041 -0.88758,1.22041h-13.25807z" data-paper-data="{&quot;index&quot;:null}" fill="#ffc633" fill-rule="nonzero" stroke="#000000" stroke-width="0.5" stroke-linecap="butt" stroke-linejoin="miter"/><path d="M228.28953,173.76781h23.57928c1.42855,0 2.5786,1.15006 2.5786,2.5786v7.30718c0,1.42855 -1.15006,2.5786 -2.5786,2.5786h-23.57928c-1.42855,0 -2.5786,-1.15006 -2.5786,-2.5786v-7.30718c0,-1.42855 1.15006,-2.5786 2.5786,-2.5786z" fill="#ffc633" fill-rule="evenodd" stroke="#000000" stroke-width="0.5" stroke-linecap="round" stroke-linejoin="round"/><path d="M230.65075,175.05085h19.00478c1.15141,0 2.07835,0.92694 2.07835,2.07835v5.88955c0,1.1514 -0.92694,2.07835 -2.07835,2.07835h-19.00478c-1.1514,0 -2.07835,-0.92694 -2.07835,-2.07835v-5.88955c0,-1.1514 0.92694,-2.07835 2.07835,-2.07835z" fill="#000000" fill-rule="evenodd" stroke="#000000" stroke-width="0.5" stroke-linecap="round" stroke-linejoin="round"/></g></g></svg>