<svg version="1.1" xmlns="http://www.w3.org/2000/svg" xmlns:xlink="http://www.w3.org/1999/xlink" width="35.125" height="35.12434" viewBox="0,0,35.125,35.12434"><g transform="translate(-222.43752,-162.43783)"><g data-paper-data="{&quot;isPaintingLayer&quot;:true}" stroke-miterlimit="10" stroke-dasharray="" stroke-dashoffset="0" style="mix-blend-mode: normal"><path d="M257.56251,169.8317v20.49804c0,4.00745 -3.22497,7.23243 -7.23242,7.23243h-20.5c-3.66107,0 -6.66147,-2.69385 -7.1543,-6.21484c0.7952,3.03475 3.54108,5.26367 6.83204,5.26367h20.0332c3.9166,0 7.07032,-3.15372 7.07032,-7.07031v-20.03321c0,-3.2976 -2.23906,-6.0451 -5.28321,-6.83398c3.52994,0.48496 6.23438,3.49081 6.23438,7.15821z" fill-opacity="0.29839" fill="#000000" fill-rule="evenodd" stroke="none" stroke-width="4.54219" stroke-linecap="round" stroke-linejoin="round"/><path d="M229.50719,162.43783h20.03378c3.9166,0 7.06966,3.15307 7.06966,7.06966v20.03379c0,3.91659 -3.15307,7.06966 -7.06966,7.06966h-20.03378c-3.91659,0 -7.06967,-3.15307 -7.06967,-7.06966v-20.03379c0,-3.91659 3.15308,-7.06966 7.06967,-7.06966z" fill="#ffc633" fill-rule="evenodd" stroke="none" stroke-width="4.43922" stroke-linecap="round" stroke-linejoin="round"/><path d="M238.3097,180.54711h-13.25807c0,0 -0.87577,-0.18759 -0.88757,-1.22041c-0.0108,-0.94402 0.88757,-1.22042 0.88757,-1.22042h13.25807z" fill="#ffc633" fill-rule="nonzero" stroke="#000000" stroke-width="0.5" stroke-linecap="butt" stroke-linejoin="miter"/><path d="M240.70399,178.10629h13.25807c0,0 0.89836,0.2764 0.88757,1.22042c-0.01181,1.03281 -0.88757,1.22041 -0.88757,1.22041h-13.25807z" data-paper-data="{&quot;index&quot;:null}" fill="#ffc633" fill-rule="nonzero" stroke="#000000" stroke-width="0.5" stroke-linecap="butt" stroke-linejoin="miter"/><path d="M227.79637,173.27466h23.57928c1.42855,0 2.5786,1.15005 2.5786,2.5786v7.30718c0,1.42855 -1.15005,2.5786 -2.5786,2.5786h-23.57928c-1.42855,0 -2.5786,-1.15005 -2.5786,-2.5786v-7.30718c0,-1.42855 1.15006,-2.5786 2.5786,-2.5786z" fill="#ffc633" fill-rule="evenodd" stroke="#000000" stroke-width="0.5" stroke-linecap="round" stroke-linejoin="round"/><path d="M230.15759,174.5577h19.00478c1.15141,0 2.07835,0.92695 2.07835,2.07835v5.88955c0,1.1514 -0.92695,2.07835 -2.07835,2.07835h-19.00478c-1.1514,0 -2.07834,-0.92695 -2.07834,-2.07835v-5.88955c0,-1.1514 0.92694,-2.07835 2.07834,-2.07835z" fill="#000000" fill-rule="evenodd" stroke="#000000" stroke-width="0.5" stroke-linecap="round" stroke-linejoin="round"/></g></g></svg>