<svg version="1.1" xmlns="http://www.w3.org/2000/svg" xmlns:xlink="http://www.w3.org/1999/xlink" width="680.18012" height="458.19255" viewBox="0,0,680.18012,458.19255"><defs><radialGradient cx="240.00007" cy="180" r="246.997" gradientUnits="userSpaceOnUse" id="color-1"><stop offset="0" stop-color="#ffffff" stop-opacity="0"/><stop offset="1" stop-color="#ffffff" stop-opacity="0.49992"/></radialGradient><linearGradient x1="240.00007" y1="254.32432" x2="240.00007" y2="326.3964" gradientUnits="userSpaceOnUse" id="color-2"><stop offset="0" stop-color="#ffffff" stop-opacity="0"/><stop offset="1" stop-color="#ffffff"/></linearGradient></defs><g transform="translate(86.28457,8.43844)"><g data-paper-data="{&quot;isPaintingLayer&quot;:true}" fill-rule="nonzero" stroke-linejoin="miter" stroke-miterlimit="10" stroke-dasharray="" stroke-dashoffset="0" style="mix-blend-mode: normal"><path d="M493.50158,-7.76276v295.84119h-504v-295.84118z" data-paper-data="{&quot;index&quot;:null}" fill="#00eaff" stroke="none" stroke-width="NaN" stroke-linecap="butt"/><path d="M261.89556,297.34271c0,33.58488 -66.21279,29.81081 -147.89039,29.81081c-81.6776,0 -147.89039,3.77407 -147.89039,-29.81081c0,-33.58488 66.21279,-91.81081 147.89039,-91.81081c81.67761,0 147.89039,58.22593 147.89039,91.81081z" fill="#00800b" stroke="none" stroke-width="0" stroke-linecap="butt"/><path d="M515.89555,297.34271c0,33.58488 -62.85492,37.81081 -140.39039,37.81081c-77.53547,0 -140.39039,-4.22593 -140.39039,-37.81081c0,-33.58488 62.85492,-83.81081 140.39039,-83.81081c77.53547,0 140.39039,50.22593 140.39039,83.81081z" fill="#00b30f" stroke="none" stroke-width="0" stroke-linecap="butt"/><path d="M194.49622,300.34271c0,33.58488 -62.85492,60.81081 -140.39039,60.81081c-77.53547,0 -140.39039,-27.22593 -140.39039,-60.81081c0,-33.58488 62.85492,-60.81081 140.39039,-60.81081c77.53547,0 140.39039,27.22593 140.39039,60.81081z" fill="#00e613" stroke="none" stroke-width="0" stroke-linecap="butt"/><path d="M593.89555,300.34271c0,33.58488 -62.85492,60.81081 -140.39039,60.81081c-77.53547,0 -140.39039,-27.22593 -140.39039,-60.81081c0,-33.58488 62.85492,-60.81081 140.39039,-60.81081c77.53547,0 140.39039,27.22593 140.39039,60.81081z" fill="#00e613" stroke="none" stroke-width="0" stroke-linecap="butt"/><path d="M380.68242,300.34271c0,33.58489 -62.85492,60.81082 -140.39039,60.81082c-77.53547,0 -140.39039,-27.22593 -140.39039,-60.81082c0,-33.58488 62.85492,-60.81081 140.39039,-60.81081c77.53547,0 140.39039,27.22593 140.39039,60.81081z" fill="#00ff15" stroke="none" stroke-width="0" stroke-linecap="butt"/><g fill="#ffffff" stroke="none" stroke-width="0" stroke-linecap="butt"><path d="M117.06264,51.45576c0,8.65246 -15.81927,15.66667 -35.33333,15.66667c-19.51406,0 -35.33334,-7.01421 -35.33334,-15.66667c0,-8.65246 15.81928,-15.66667 35.33334,-15.66667c19.51406,0 35.33333,7.01421 35.33333,15.66667z"/><path d="M73.72925,58.62242c0,3.95804 -8.28273,7.16666 -18.5,7.16666c-10.21727,0 -18.5,-3.20862 -18.5,-7.16666c0,-3.95804 8.28273,-7.16667 18.5,-7.16667c10.21727,0 18.5,3.20863 18.5,7.16667z"/><path d="M112.89598,55.45576c9.1127,0 16.5,2.68629 16.5,6c0,3.31371 -7.3873,6 -16.5,6c-9.1127,0 -16.5,-2.68629 -16.5,-6c0,-3.31371 7.3873,-6 16.5,-6z"/><path d="M81.72925,69.78908c-27.24605,0 -49.33334,-1.64161 -49.33334,-3.66666c0,-2.02505 22.08729,-3.66667 49.33334,-3.66667c27.24605,0 49.33333,1.64162 49.33333,3.66667c0,2.02504 -22.08728,3.66666 -49.33333,3.66666z"/></g><g fill="#ffffff" stroke="none" stroke-width="0" stroke-linecap="butt"><path d="M436.85432,46.70315c0,7.13224 -16.83829,12.91406 -37.60937,12.91406c-20.77108,0 -37.60938,-5.78182 -37.60938,-12.91406c0,-7.13224 16.83829,-12.91406 37.60938,-12.91406c20.77108,0 37.60938,5.78182 37.60938,12.91406z"/><path d="M369.56528,59.16409c-12.38758,0 -22.42969,-2.33302 -22.42969,-5.21094c0,-2.87792 10.04211,-5.21094 22.42969,-5.21094c12.38758,0 22.42969,2.33302 22.42969,5.21094c0,2.87792 -10.04211,5.21094 -22.42969,5.21094z"/><path d="M419.18249,52.36721c0,-3.75381 5.57895,-6.79687 12.46094,-6.79687c6.88199,0 12.46094,3.04307 12.46094,6.79688c0,3.75381 -5.57895,6.79688 -12.46094,6.79688c-6.88199,0 -12.46094,-3.04307 -12.46094,-6.79687z"/><path d="M445.46374,58.03127c0,2.62766 -24.14165,4.75781 -53.92188,4.75781c-29.78024,0 -53.92188,-2.13014 -53.92188,-4.75781c0,-2.62766 24.14165,-4.75781 53.92188,-4.75781c29.78023,0 53.92187,2.13014 53.92187,4.75781z"/></g><g fill="#ffffff" stroke="none" stroke-width="0" stroke-linecap="butt"><path d="M300.81953,31.17462c0,6.90356 -16.11775,12.5 -36,12.5c-19.88225,0 -36,-5.59644 -36,-12.5c0,-6.90356 16.11775,-12.5 36,-12.5c19.88225,0 36,5.59644 36,12.5z"/><path d="M253.31957,36.42462c0,3.45178 -6.71573,6.25 -15,6.25c-8.28427,0 -15,-2.79822 -15,-6.25c0,-3.45178 6.71573,-6.25 15,-6.25c8.28427,0 15,2.79822 15,6.25z"/><path d="M291.06953,30.17462c7.31777,0 13.25,2.46243 13.25,5.5c0,3.03757 -5.93223,5.5 -13.25,5.5c-7.31778,0 -13.25,-2.46243 -13.25,-5.5c0,-3.03757 5.93223,-5.5 13.25,-5.5z"/><path d="M256.81953,45.17462c-24.57667,0 -44.5,-1.90279 -44.5,-4.25c0,-2.34721 19.92333,-4.25 44.5,-4.25c24.57667,0 44.5,1.90279 44.5,4.25c0,2.34721 -19.92333,4.25 -44.5,4.25z"/></g><path d="M-60.75905,449.75411v-148.64865c0,0 202.07988,-4.5045 303.3033,-4.5045c100.47269,0 301.8018,4.5045 301.8018,4.5045v148.64865z" fill="#00ff15" stroke="none" stroke-width="0" stroke-linecap="butt"/><path d="M-6.99695,368.43844v-376.87688h493.99399v376.87688z" fill="url(#color-1)" stroke="none" stroke-width="0" stroke-linecap="butt"/><g><path d="M410.88475,136.87428c10.28966,-8.43804 66.26448,-21.59563 66.26448,-21.59563c0,0 -23.86422,52.31444 -34.15388,60.75248c-10.28966,8.43804 -25.81928,6.51286 -34.68638,-4.3c-8.8671,-10.81286 -7.71388,-26.4188 2.57578,-34.85684z" data-paper-data="{&quot;index&quot;:null}" fill="#666666" stroke="#000000" stroke-width="2" stroke-linecap="butt"/><path d="M347.87879,163.69273c-11.38539,8.11887 -26.87827,5.91745 -34.6043,-4.91704c-7.72603,-10.83449 -17.08469,-67.56823 -17.08469,-67.56823c0,0 50.58881,27.33266 58.31484,38.16715c7.72603,10.83449 4.75954,26.19923 -6.62585,34.3181z" data-paper-data="{&quot;index&quot;:null}" fill="#666666" stroke="#000000" stroke-width="2" stroke-linecap="butt"/><path d="M317.3096,352.61606l35.17134,-139.72319l40.68567,5.23907l-4.28844,144.00417z" fill="#808080" stroke="#000000" stroke-width="2" stroke-linecap="butt"/><path d="M346.04777,243.20252l7.12836,-27.88747l38.58208,4.97662l-0.75901,28.49184c0,0 -8.68895,3.43995 -23.84785,1.767c-13.47606,-1.48723 -21.10359,-7.348 -21.10359,-7.348z" fill="#666666" stroke="#000000" stroke-width="0" stroke-linecap="butt"/><path d="M308.36931,164.68461c4.76744,-35.84009 39.58418,-60.77701 77.76534,-55.69816c38.18117,5.07885 65.26835,38.25021 60.50091,74.0903c-4.76744,35.84009 -39.58417,60.77702 -77.76534,55.69817c-38.18116,-5.07885 -65.26835,-38.25022 -60.5009,-74.09031z" fill="#808080" stroke="#000000" stroke-width="2" stroke-linecap="butt"/><path d="M322.81674,168.27736c1.85648,-13.95642 14.67537,-23.76535 28.63179,-21.90887c13.95642,1.85648 23.76536,14.67536 21.90888,28.63178c-1.85648,13.95642 -14.67536,23.76537 -28.63179,21.90889c-13.95642,-1.85648 -23.76537,-14.67537 -21.90888,-28.6318z" fill="#000000" stroke="#000000" stroke-width="2" stroke-linecap="butt"/><path d="M322.99566,166.93209c1.85648,-13.95642 14.67537,-23.76535 28.63179,-21.90887c13.95642,1.85648 23.76536,14.67536 21.90888,28.63178c-1.85648,13.95642 -14.67536,23.76537 -28.63179,21.90889c-13.95642,-1.85648 -23.76537,-14.67537 -21.90888,-28.6318z" fill="#ffffff" stroke="#000000" stroke-width="2" stroke-linecap="butt"/><path d="M336.75711,167.61829c1.30676,-9.82381 10.32987,-16.72824 20.15367,-15.42148c9.82381,1.30676 16.72824,10.32988 15.42148,20.15369c-1.30676,9.82381 -10.32988,16.72825 -20.15368,15.42149c-9.82381,-1.30676 -16.72823,-10.32987 -15.42147,-20.15369z" fill="#1a1a1a" stroke="none" stroke-width="0" stroke-linecap="butt"/><path d="M344.93644,168.7063c0.70587,-5.30653 5.57988,-9.03609 10.88641,-8.33022c5.30653,0.70587 9.03609,5.57988 8.33022,10.88642c-0.70587,5.30653 -5.57989,9.0361 -10.88641,8.33023c-5.30653,-0.70587 -9.03609,-5.5799 -8.33022,-10.88642z" fill="#ffffff" stroke="none" stroke-width="0" stroke-linecap="butt"/><path d="M385.40356,218.36588l-27.02344,-3.59465" fill="none" stroke="#000000" stroke-width="2" stroke-linecap="round"/><path d="M322.99566,166.93209c1.85648,-13.95642 14.67537,-23.76535 28.63179,-21.90887c13.95642,1.85648 23.76536,14.67536 21.90888,28.63178c0,0 -50.71698,-5.39749 -50.54067,-6.72291z" fill="#000000" stroke="#000000" stroke-width="2" stroke-linecap="butt"/><path d="M403.11962,204.67671c-13.95642,-1.85648 -23.76535,-14.67537 -21.90887,-28.63179c1.85648,-13.95642 14.67536,-23.76536 28.63178,-21.90888c13.95642,1.85648 23.76537,14.67536 21.90889,28.63179c-1.85648,13.95642 -14.67537,23.76537 -28.6318,21.90888z" data-paper-data="{&quot;index&quot;:null}" fill="#000000" stroke="#000000" stroke-width="2" stroke-linecap="butt"/><path d="M403.29857,203.33144c-13.95642,-1.85648 -23.76535,-14.67537 -21.90887,-28.63179c1.85648,-13.95642 14.67536,-23.76536 28.63178,-21.90888c13.95642,1.85648 23.76537,14.67536 21.90889,28.63179c-1.85648,13.95642 -14.67537,23.76537 -28.6318,21.90888z" data-paper-data="{&quot;index&quot;:null}" fill="#ffffff" stroke="#000000" stroke-width="2" stroke-linecap="butt"/><path d="M430.91448,180.14308c-1.30676,9.82382 -10.32987,16.72825 -20.15367,15.42149c-9.82381,-1.30676 -16.72824,-10.32989 -15.42148,-20.15369c1.30676,-9.82382 10.32988,-16.72825 20.15368,-15.42149c9.82381,1.30676 16.72823,10.32987 15.42147,20.15368z" data-paper-data="{&quot;index&quot;:null}" fill="#1a1a1a" stroke="none" stroke-width="0" stroke-linecap="butt"/><path d="M422.73521,179.05507c-0.70587,5.30653 -5.57988,9.0361 -10.8864,8.33023c-5.30653,-0.70587 -9.03609,-5.5799 -8.33022,-10.88642c0.70587,-5.30653 5.5799,-9.0361 10.88641,-8.33023c5.30653,0.70587 9.03608,5.57988 8.33021,10.88641z" data-paper-data="{&quot;index&quot;:null}" fill="#ffffff" stroke="none" stroke-width="0" stroke-linecap="butt"/><path d="M309.24465,164.69152c0.10422,-0.78348 -2.40183,60.92691 60.03913,70.34437c59.65971,8.998 76.65103,-53.27778 76.50517,-52.18128c-4.69628,35.30515 -39.06987,59.85968 -76.77552,54.84408c-37.70566,-5.0156 -64.46506,-37.70203 -59.76877,-73.00718z" fill="#666666" stroke="#000000" stroke-width="0" stroke-linecap="butt"/><path d="M381.3897,174.69965c1.85648,-13.95642 14.67536,-23.76536 28.63178,-21.90888c13.95642,1.85648 23.76537,14.67536 21.90889,28.63179c-0.17631,1.32542 -50.54067,-6.72291 -50.54067,-6.72291z" data-paper-data="{&quot;index&quot;:null}" fill="#000000" stroke="#000000" stroke-width="2" stroke-linecap="butt"/><path d="M340.72082,133.07039c0,0 7.96032,-4.60277 13.60738,-5.1597c5.64707,-0.55693 13.17411,2.51841 13.17411,2.51841c0,0 -8.64215,-1.2156 -13.0032,-0.78549c-4.55746,0.44948 -13.77829,3.42678 -13.77829,3.42678z" fill="#000000" stroke="none" stroke-width="0" stroke-linecap="butt"/><path d="M410.21586,141.72172c-4.09696,-1.55519 -12.75637,-2.64104 -12.75637,-2.64104c0,0 8.06923,-1.00073 13.37435,1.01306c5.30511,2.01379 11.78539,8.53745 11.78539,8.53745c0,0 -8.12188,-5.28423 -12.40337,-6.90946z" data-paper-data="{&quot;index&quot;:null}" fill="#000000" stroke="none" stroke-width="0" stroke-linecap="butt"/><path d="M323.70061,196.20452c0.0593,-0.44578 0.46875,-0.75909 0.91453,-0.6998c0.44578,0.0593 0.75909,0.46875 0.6998,0.91453c-0.0593,0.44578 -0.46875,0.75909 -0.91453,0.6998c-0.44578,-0.0593 -0.75909,-0.46875 -0.6998,-0.91453z" fill="#000000" stroke="none" stroke-width="0.5" stroke-linecap="butt"/><path d="M334.69388,202.486c0.0593,-0.44578 0.46875,-0.75909 0.91453,-0.6998c0.44578,0.0593 0.75909,0.46875 0.6998,0.91453c-0.0593,0.44578 -0.46875,0.75909 -0.91453,0.6998c-0.44578,-0.0593 -0.75909,-0.46875 -0.6998,-0.91453z" fill="#000000" stroke="none" stroke-width="0.5" stroke-linecap="butt"/><path d="M327.33412,206.76427c0.0593,-0.44578 0.46875,-0.75909 0.91453,-0.6998c0.44578,0.0593 0.75909,0.46875 0.6998,0.91453c-0.0593,0.44578 -0.46875,0.75909 -0.91453,0.6998c-0.44578,-0.0593 -0.75909,-0.46875 -0.6998,-0.91453z" fill="#000000" stroke="none" stroke-width="0.5" stroke-linecap="butt"/><path d="M422.68314,210.19261c-0.44579,-0.0593 -0.75909,-0.46874 -0.6998,-0.91453c0.0593,-0.44579 0.46874,-0.75909 0.91453,-0.6998c0.44579,0.0593 0.75909,0.46874 0.6998,0.91453c-0.0593,0.44579 -0.46874,0.75909 -0.91453,0.6998z" data-paper-data="{&quot;index&quot;:null}" fill="#000000" stroke="none" stroke-width="0.5" stroke-linecap="butt"/><path d="M410.43012,213.38186c-0.44579,-0.0593 -0.75909,-0.46874 -0.6998,-0.91453c0.0593,-0.44579 0.46874,-0.75909 0.91453,-0.6998c0.44579,0.0593 0.75909,0.46874 0.6998,0.91453c-0.0593,0.44579 -0.46874,0.75909 -0.91453,0.6998z" data-paper-data="{&quot;index&quot;:null}" fill="#000000" stroke="none" stroke-width="0.5" stroke-linecap="butt"/><path d="M416.41551,219.43529c-0.44579,-0.0593 -0.75909,-0.46874 -0.6998,-0.91453c0.0593,-0.44579 0.46874,-0.75909 0.91453,-0.6998c0.44579,0.0593 0.75909,0.46874 0.6998,0.91453c-0.0593,0.44579 -0.46874,0.75909 -0.91453,0.6998z" data-paper-data="{&quot;index&quot;:null}" fill="#000000" stroke="none" stroke-width="0.5" stroke-linecap="butt"/></g><g><path d="M33.66815,154.15093c0,0 -42.35937,-108.72472 -8.05669,-115.98047c35.03534,-7.41073 40.47106,79.96976 40.47106,79.96976" fill="#ff80ee" stroke="#000000" stroke-width="2" stroke-linecap="round"/><path d="M116.60138,113.39092c0,0 -10.94493,-86.86256 24.85773,-86.11134c35.05394,0.73551 13.70016,115.44993 13.70016,115.44993" data-paper-data="{&quot;index&quot;:null}" fill="#ff80ee" stroke="#000000" stroke-width="2" stroke-linecap="round"/><path d="M77.97271,361.42185l2.98331,-144.65983l40.99758,-4.0271l28.20481,141.90074z" fill="#ff80ee" stroke="#000000" stroke-width="2" stroke-linecap="butt"/><path d="M81.47968,247.87337l0.70161,-28.89718l38.87977,-3.81064l5.66802,28.05554c0,0 -7.7298,5.32172 -22.94213,7.09527c-13.52355,1.57665 -22.30728,-2.44299 -22.30728,-2.44299z" fill="#e673d6" stroke="#000000" stroke-width="0" stroke-linecap="butt"/><path d="M26.90287,178.24601c-3.39839,-36.14914 25.06552,-68.3887 63.57592,-72.00907c38.51039,-3.62037 72.48419,22.74941 75.88258,58.89854c3.39839,36.14914 -25.06552,68.3887 -63.57592,72.00907c-38.51039,3.62037 -72.48419,-22.74941 -75.88258,-58.89854z" fill="#ff80ee" stroke="#000000" stroke-width="2" stroke-linecap="butt"/><path d="M27.69326,178.23067c-0.07429,-0.79023 11.3583,60.16914 74.58778,55.33632c60.41313,-4.61755 63.02995,-69.38955 63.13392,-68.28358c3.34767,35.60958 -24.76857,67.3752 -62.79936,70.95049c-38.03079,3.57529 -71.57467,-22.39364 -74.92234,-58.00322z" fill="#e673d6" stroke="#000000" stroke-width="0" stroke-linecap="butt"/><path d="M41.65543,177.32943c-1.32336,-14.07676 9.01532,-26.56103 23.09208,-27.88439c14.07676,-1.32336 26.56103,9.01532 27.88439,23.09208c1.32336,14.07676 -9.01532,26.56103 -23.09208,27.88439c-14.07676,1.32336 -26.56103,-9.01532 -27.88439,-23.09208z" fill="#ffffff" stroke="#000000" stroke-width="2" stroke-linecap="butt"/><path d="M49.29678,176.3092c-0.9315,-9.90853 6.3458,-18.69609 16.25431,-19.6276c9.90853,-0.9315 18.69609,6.34581 19.6276,16.25433c0.9315,9.90853 -6.34581,18.69609 -16.25433,19.6276c-9.90853,0.9315 -18.69608,-6.34581 -19.62759,-16.25433z" fill="#000000" stroke="none" stroke-width="0" stroke-linecap="butt"/><path d="M116.50766,209.85914c0,0 -3.67669,17.48041 -15.00582,18.72349c-9.33923,1.02475 -17.3163,-15.68487 -17.3163,-15.68487z" fill="#000000" stroke="#000000" stroke-width="2" stroke-linecap="round"/><path d="M128.43732,194.8845c-14.07676,1.32336 -26.56103,-9.01532 -27.88439,-23.09208c-1.32336,-14.07676 9.01532,-26.56103 23.09208,-27.88439c14.07676,-1.32336 26.56103,9.01532 27.88439,23.09208c1.32336,14.07676 -9.01532,26.56103 -23.09208,27.88439z" data-paper-data="{&quot;index&quot;:null}" fill="#ffffff" stroke="#000000" stroke-width="2" stroke-linecap="butt"/><path d="M127.57752,187.04954c-9.90852,0.9315 -18.69608,-6.34581 -19.62759,-16.25433c-0.9315,-9.90853 6.34581,-18.69609 16.25431,-19.6276c9.90852,-0.9315 18.69608,6.34581 19.62759,16.25433c0.9315,9.90853 -6.34581,18.69609 -16.25431,19.6276z" data-paper-data="{&quot;index&quot;:null}" fill="#000000" stroke="none" stroke-width="0" stroke-linecap="butt"/><path d="M41.56918,177.00908l-4.17312,-2.45493" fill="none" stroke="#000000" stroke-width="2" stroke-linecap="round"/><path d="M155.17926,162.38621l-4.21213,4.1193" fill="none" stroke="#000000" stroke-width="2" stroke-linecap="round"/><path d="M41.62136,176.96758c-1.32336,-14.07677 9.01532,-26.56103 23.09209,-27.88439c14.07677,-1.32336 26.56103,9.01531 27.88439,23.09208c0,0 -9.83082,-14.83748 -27.42606,-13.06227c-17.27511,1.74291 -23.48836,18.51461 -23.55041,17.85458z" fill="#ff00dd" stroke="#000000" stroke-width="2" stroke-linecap="butt"/><path d="M125.06401,153.84756c-17.61781,1.53518 -24.51107,17.94489 -24.51107,17.94489c-1.32336,-14.07677 9.01531,-26.56103 23.09208,-27.88439c14.07677,-1.32336 26.56104,9.01531 27.8844,23.09207c0.06205,0.66003 -9.16814,-14.65983 -26.46541,-13.15258z" data-paper-data="{&quot;index&quot;:null}" fill="#ff00dd" stroke="#000000" stroke-width="2" stroke-linecap="butt"/><path d="M51.38022,133.56122c0,0 6.75505,-6.29582 12.15648,-8.11151c5.40144,-1.81569 13.46006,-0.49951 13.46006,-0.49951c0,0 -8.73153,0.75484 -12.90287,2.15705c-4.35922,1.46536 -12.71367,6.45397 -12.71367,6.45397z" fill="#000000" stroke="none" stroke-width="0" stroke-linecap="butt"/><path d="M120.29104,121.82415c-4.35959,-0.60021 -13.07882,0.2855 -13.07882,0.2855c0,0 7.67213,-2.79504 13.31732,-2.01784c5.64518,0.7772 13.45525,5.70375 13.45525,5.70375c0,0 -9.13781,-3.34416 -13.69376,-3.9714z" data-paper-data="{&quot;index&quot;:null}" fill="#000000" stroke="none" stroke-width="0" stroke-linecap="butt"/><path d="" fill="none" stroke="#000000" stroke-width="2" stroke-linecap="round"/><g fill="#ff00dd" stroke="#000000" stroke-width="2" stroke-linecap="butt"><path d="M61.1669,118.50837c-4.14553,-7.33039 2.31191,-10.15352 2.31191,-10.15352c0,0 -5.41675,-1.86147 -4.6853,-9.26827c0.93999,-9.51861 26.81101,3.68315 26.81101,3.68315l0.58988,8.2161c0,0 -21.21784,14.259 -25.02749,7.52255z"/><path d="M97.3365,109.93835l-0.95172,-8.18208c0,0 22.95726,-17.79212 25.6548,-8.61547c2.09906,7.1407 -2.87585,9.97909 -2.87585,9.97909c0,0 6.87045,1.57017 4.16375,9.54474c-2.4874,7.32843 -25.99099,-2.72628 -25.99099,-2.72628z" data-paper-data="{&quot;index&quot;:null}"/><path d="M82.79863,106.89851c-0.43679,-4.64615 2.97559,-8.76671 7.62175,-9.20349c4.64615,-0.43679 8.76671,2.97559 9.20349,7.62175c0.43679,4.64615 -2.97559,8.76671 -7.62175,9.20349c-4.64615,0.43679 -8.76671,-2.97559 -9.20349,-7.62175z"/></g></g><g><g stroke="#000000" stroke-width="2" stroke-linecap="butt"><path d="M165.77292,130.06225v-83.89537l8.78902,0.00001v83.89537z" fill="#fff480"/><path d="M148.99389,46.16688c0,-11.69385 9.47974,-21.17359 21.17358,-21.17359c11.69385,0 21.17359,9.47975 21.17359,21.17359c0,11.69385 -9.47975,21.17359 -21.17359,21.17359c-11.69385,0 -21.17358,-9.47975 -21.17358,-21.17359z" fill="#ffe900"/></g><path d="M258.42859,146.17132c0,-14.39668 11.67081,-26.06748 26.06749,-26.06748c14.39667,0 65.61816,26.06748 65.61816,26.06748c0,0 -51.22149,26.06749 -65.61816,26.06749c-14.39668,0 -26.06749,-11.67082 -26.06749,-26.06749z" data-paper-data="{&quot;index&quot;:null}" fill="#fce600" stroke="#000000" stroke-width="2" stroke-linecap="butt"/><g stroke="#000000" stroke-width="2" stroke-linecap="butt"><path d="M301.80325,130.06225v-83.89537l8.78903,0.00001v83.89537z" fill="#fff480"/><path d="M285.02421,46.16688c0,-11.69385 9.47975,-21.17359 21.17358,-21.17359c11.69384,0 21.1736,9.47975 21.1736,21.17359c0,11.69385 -9.47976,21.17359 -21.1736,21.17359c-11.69384,0 -21.17358,-9.47975 -21.17358,-21.17359z" fill="#ffe900"/></g><path d="M193.80924,172.23881c-14.39667,0 -65.61816,-26.06749 -65.61816,-26.06749c0,0 51.22149,-26.06748 65.61816,-26.06748c14.39668,0 26.06749,11.67081 26.06749,26.06748c0,14.39668 -11.67081,26.06749 -26.06749,26.06749z" data-paper-data="{&quot;index&quot;:null}" fill="#fce600" stroke="#000000" stroke-width="2" stroke-linecap="butt"/><path d="M198.70324,347.22058l18.14879,-158.01344l45.28342,-0.18923l16.26837,158.20269z" fill="#ffe900" stroke="#000000" stroke-width="2" stroke-linecap="butt"/><path d="M214.22411,223.31028l3.74105,-31.55383l42.94333,-0.17022l3.31669,31.28806c0,0 -9.00729,5.02896 -25.83862,5.40483c-14.96283,0.33413 -24.16245,-4.96883 -24.16245,-4.96883z" fill="#e6d200" stroke="#000000" stroke-width="0" stroke-linecap="butt"/><path d="M161.6573,142.69106c0,-39.91244 34.46889,-72.26787 76.98841,-72.26787c42.51951,0 76.98841,32.35543 76.98841,72.26787c0,39.91245 -34.46888,72.26786 -76.98841,72.26786c-42.51952,0 -76.98841,-32.35543 -76.98841,-72.26786z" fill="#ffe900" stroke="#000000" stroke-width="2" stroke-linecap="butt"/><path d="M162.52389,142.7556c0,-0.8725 6.24022,67.01968 75.93785,68.23604c66.59318,1.16218 76.12136,-69.45714 76.12136,-68.23604c0,39.31672 -34.03963,71.18921 -76.0296,71.18921c-41.98997,0 -76.0296,-31.87249 -76.0296,-71.18921z" fill="#e6d200" stroke="#000000" stroke-width="0" stroke-linecap="butt"/><path d="M177.89729,142.90616c0,-15.54222 12.59947,-28.14168 28.14168,-28.14168c15.54222,0 28.14169,12.59947 28.14169,28.14168c0,15.54222 -12.59947,28.14168 -28.14169,28.14168c-15.54222,0 -28.14168,-12.59947 -28.14168,-28.14168z" fill="#ffffff" stroke="#000000" stroke-width="2" stroke-linecap="butt"/><path d="M186.36521,142.87543c0,-10.94005 8.86865,-19.8087 19.80869,-19.8087c10.94006,0 19.80871,8.86866 19.80871,19.8087c0,10.94005 -8.86867,19.80871 -19.8087,19.80871c-10.94006,0 -19.80869,-8.86867 -19.80869,-19.8087z" fill="#000000" stroke="none" stroke-width="0" stroke-linecap="butt"/><path d="M237.89313,207.3827c-4.85044,0 -14.31256,-21.77284 -14.31256,-21.77284c0,0 8.59604,2.59676 14.42021,2.59676c5.31074,0 15.67376,-2.59676 15.67376,-2.59676c0,0 -10.61989,21.77284 -15.78141,21.77284z" fill="#000000" stroke="#000000" stroke-width="2" stroke-linecap="round"/><path d="M271.068,171.04782c-15.54222,0 -28.14169,-12.59947 -28.14169,-28.14168c0,-15.54222 12.59947,-28.14168 28.14169,-28.14168c15.54221,0 28.14168,12.59947 28.14168,28.14168c0,15.54222 -12.59947,28.14168 -28.14168,28.14168z" data-paper-data="{&quot;index&quot;:null}" fill="#ffffff" stroke="#000000" stroke-width="2" stroke-linecap="butt"/><path d="M270.93307,162.68415c-10.94004,0 -19.8087,-8.86866 -19.8087,-19.8087c0,-10.94005 8.86867,-19.8087 19.8087,-19.8087c10.94004,0 19.80869,8.86867 19.80869,19.80871c0,10.94005 -8.86866,19.8087 -19.80869,19.8087z" data-paper-data="{&quot;index&quot;:null}" fill="#000000" stroke="none" stroke-width="0" stroke-linecap="butt"/><path d="M193.04362,108.67869c0,0 8.0407,-6.19534 14.13902,-7.62675c6.09831,-1.43141 14.78252,0.8382 14.78252,0.8382c0,0 -9.63373,-0.07224 -14.34326,1.0332c-4.92163,1.15522 -14.57828,5.75535 -14.57828,5.75535z" fill="#000000" stroke="none" stroke-width="0" stroke-linecap="butt"/><path d="M269.66945,102.92334c-4.70953,-1.10545 -14.34325,-1.03321 -14.34325,-1.03321c0,0 8.68421,-2.26961 14.78252,-0.8382c6.0983,1.43141 14.13903,7.62675 14.13903,7.62675c0,0 -9.65664,-4.60013 -14.57829,-5.75534z" data-paper-data="{&quot;index&quot;:null}" fill="#000000" stroke="none" stroke-width="0" stroke-linecap="butt"/><path d="M177.7974,143.31657c0,-15.54223 12.59947,-28.14168 28.14169,-28.14168c15.54223,0 28.14169,12.59945 28.14169,28.14168c0,0 -8.33981,-17.55371 -28.08465,-17.72443c-19.44568,-0.16814 -28.19871,18.46345 -28.19871,17.72443z" fill="#ffe900" stroke="#000000" stroke-width="2" stroke-linecap="butt"/><path d="M242.92632,143.19672c0,-15.54223 12.59946,-28.14169 28.14169,-28.14169c15.54223,0 28.14169,12.59946 28.14169,28.14169c0,0.72637 -9.43554,-17.23976 -27.47568,-17.7151c-18.04015,-0.47535 -28.80769,17.7151 -28.80769,17.7151z" data-paper-data="{&quot;index&quot;:null}" fill="#ffe900" stroke="#000000" stroke-width="2" stroke-linecap="butt"/><path d="M212.39439,82.98035l39.8503,-23.37085l-3.89514,16.47946l26.96636,-7.19104l-17.37833,18.57683" fill="#ffea00" stroke="#000000" stroke-width="2" stroke-linecap="round"/></g><path d="M-28.01797,326.3964v-72.07207h536.03604v72.07207z" fill="url(#color-2)" stroke="none" stroke-width="NaN" stroke-linecap="butt"/><path d="M-31.50006,404.91034v-79h544v79z" fill="#ffffff" stroke="none" stroke-width="0" stroke-linecap="butt"/><g stroke="#000000"><g stroke-width="1" stroke-linecap="butt"><path d="M369.42578,260.27894c0.36291,-1.36086 1.28526,-2.0413 2.76708,-2.0413h2.72174c0.75603,0 1.28526,0.28728 1.58769,0.86188c0.33265,0.5746 0.40827,1.25501 0.2268,2.0413l-15.87676,62.32763c-0.36291,1.36086 -1.28526,2.0413 -2.76708,2.0413h-2.72174c-0.75603,0 -1.30038,-0.27217 -1.63303,-0.81651c-0.33265,-0.5746 -0.40827,-1.25501 -0.2268,-2.0413z" fill="#b100ff"/><path d="M327.2127,260.27894c0.36291,-1.36086 1.28526,-2.0413 2.76708,-2.0413h2.72174c0.75603,0 1.28527,0.28728 1.58769,0.86188c0.33265,0.5746 0.40827,1.25501 0.2268,2.0413l-6.57751,25.76571l22.31819,-27.17193c0.78629,-0.99798 1.79935,-1.49696 3.03925,-1.49696h3.90116c0.81651,0 1.34574,0.27217 1.58769,0.81651c0.27217,0.54434 0.15121,1.14916 -0.36291,1.8145l-25.35747,30.07511l9.48069,31.79888c0.5746,1.84472 0.04536,2.76711 -1.58769,2.76711h-3.44752c-0.87699,0 -1.4667,-0.15121 -1.76913,-0.45361c-0.30243,-0.33265 -0.5746,-0.95261 -0.81651,-1.85986l-8.7549,-29.34934l-7.53012,29.6215c-0.36291,1.36086 -1.28526,2.0413 -2.76708,2.0413h-2.72174c-0.75603,0 -1.30038,-0.27217 -1.63303,-0.81651c-0.33265,-0.5746 -0.40827,-1.25501 -0.2268,-2.0413z" fill="#0b00ff"/><path d="M279.68118,260.27894c0.36291,-1.33063 1.25501,-2.01104 2.67638,-2.0413h2.81244c1.2399,0 2.0413,0.96773 2.4042,2.90318l8.21056,47.04058l12.20243,-47.90246c0.36291,-1.36086 1.30038,-2.0413 2.81245,-2.0413h2.67638c0.75603,0 1.30038,0.28728 1.63303,0.86188c0.33268,0.5746 0.40824,1.25501 0.22668,2.0413l-15.87675,62.32763c-0.36291,1.36086 -1.30038,2.0413 -2.81245,2.0413h-3.31145c-0.78629,0 -1.28526,-0.3629 -1.49696,-1.08868c-0.12099,-0.45361 -0.21172,-0.83163 -0.2722,-1.13405c-0.03013,-0.30243 -0.06039,-0.51412 -0.09073,-0.63508l-8.21056,-46.85915l-12.15706,47.67566c-0.36291,1.36086 -1.28526,2.0413 -2.76708,2.0413h-2.72174c-0.75603,0 -1.30038,-0.27217 -1.63303,-0.81651c-0.33265,-0.5746 -0.40827,-1.25501 -0.2268,-2.0413z" fill="#4df6ff"/><path d="M157.86056,291.30667l5.17128,-0.27217c4.92933,-0.18144 8.34664,-2.0413 10.25186,-5.57955c1.20964,-2.23788 2.11689,-4.79326 2.72171,-7.66622c0.63508,-2.90318 0.95262,-5.3225 0.95262,-7.25795c0,-3.65922 -2.10178,-5.57955 -6.30534,-5.76099c-1.36086,-0.06048 -3.35682,-0.10584 -5.98783,-0.1361zM157.13475,264.58834c-1.02821,0 -2.01104,0 -2.94855,0c-0.90725,0 -1.54229,-0.25706 -1.9052,-0.77115c-0.36291,-0.54434 -0.45364,-1.16431 -0.2722,-1.85986l0.54434,-1.85986c0.12099,-0.54434 0.40827,-0.98284 0.86188,-1.31549c0.45364,-0.36291 0.87702,-0.54434 1.27015,-0.54434h14.56127c4.98985,0 8.77002,1.04331 11.34052,3.12998c2.60078,2.08667 3.90116,5.50393 3.90116,10.25186c0,3.508 -0.75604,7.37891 -2.26811,11.61272c-1.48184,4.23381 -3.26608,7.15211 -5.35275,8.75491c-1.02821,0.78629 -1.75398,1.33063 -2.17737,1.63303c-0.39313,0.27217 -1.36086,0.77115 -2.90318,1.49696c-1.54232,0.72578 -3.06951,1.2399 -4.58158,1.54232c-3.17535,0.63508 -6.83459,0.98284 -10.97767,1.04332l-6.57751,25.76571c-0.36291,1.36086 -1.28526,2.0413 -2.76708,2.0413h-2.67637c-0.75603,0 -1.30038,-0.27217 -1.63306,-0.81651c-0.33265,-0.5746 -0.40821,-1.25501 -0.22668,-2.0413z" fill="#ff6f00"/><path d="M196.88917,289.71898l5.80636,-0.27217c4.20356,-0.18144 7.42428,-1.99593 9.66216,-5.44346c2.14714,-3.29631 3.22072,-7.78718 3.22072,-13.47255c0,-1.6028 -0.54434,-2.94855 -1.63306,-4.03723c-1.05843,-1.08868 -2.54027,-1.64817 -4.44547,-1.67839c-1.90523,-0.03026 -3.97678,-0.06048 -6.21463,-0.09073zM195.7097,264.67905c-0.96773,0 -1.90519,0 -2.81244,0c-0.90725,0 -1.54232,-0.25706 -1.90523,-0.77115c-0.36291,-0.54434 -0.45364,-1.16431 -0.2722,-1.85986l0.45364,-1.95056c0.12099,-0.54434 0.40827,-0.98284 0.86188,-1.31549c0.45361,-0.36291 0.87699,-0.54434 1.27012,-0.54434h15.78605c4.26403,0 7.68133,1.07357 10.25186,3.22072c2.5705,2.11689 3.85576,5.26202 3.85576,9.43535c0,4.17333 -0.8014,8.08958 -2.40417,11.74879c-1.57255,3.65922 -3.31145,6.27511 -5.21665,7.84766c-1.87497,1.54232 -3.31145,2.57053 -4.3094,3.08462c-0.99798,0.48386 -2.08667,0.92236 -3.26608,1.31549l4.26403,27.4441c0.33265,2.11689 -0.34779,3.17535 -2.0413,3.17535h-3.17535c-0.81651,0 -1.40622,-0.24191 -1.76913,-0.72578c-0.33265,-0.48386 -0.57457,-1.33063 -0.72578,-2.54027l-3.49289,-26.21935l-5.80636,0.09073l-6.98578,27.3534c-0.36291,1.36086 -1.28526,2.0413 -2.76711,2.0413h-2.67634c-0.75607,0 -1.30041,-0.27217 -1.63306,-0.81651c-0.33265,-0.5746 -0.40821,-1.25501 -0.22668,-2.0413z" fill="#ffe900"/><path d="M131.07269,257.23966c4.02212,0 6.86479,1.64817 8.52807,4.94448c1.66328,3.29631 2.49494,8.0291 2.49494,14.19836c0,1.54232 -0.51412,2.46468 -1.54232,2.76708l-3.26608,1.04331c-0.51409,0.15121 -1.01309,0.06048 -1.49696,-0.27217c-0.48386,-0.33265 -0.72578,-0.89214 -0.72578,-1.67839c0,-8.19542 -1.33063,-12.91309 -3.99187,-14.15299c-1.2399,-0.63508 -2.72174,-0.52923 -4.4455,0.31754c-1.72376,0.81651 -3.47778,2.81244 -5.26202,5.98779c-1.78424,3.14513 -2.73685,6.74383 -2.85781,10.79621c-0.06048,1.63303 0.21169,2.88807 0.81651,3.76506c0.60482,0.84677 1.78424,1.57255 3.53826,2.1774l3.81043,1.31549c3.65922,1.2399 6.06342,2.75197 7.21258,4.53621c1.02821,1.63303 1.54232,4.27918 1.54232,7.93839c0,3.62896 -0.98284,7.53012 -2.94855,11.70345c-1.93545,4.17333 -4.56646,7.62086 -7.89303,10.34257c-3.32657,2.69149 -6.80434,4.03723 -10.4333,4.03723c-7.31843,0 -10.97764,-5.94246 -10.97764,-17.82735v-0.31754c0,-2.35884 0.46875,-3.65921 1.40622,-3.90116l3.44752,-1.08869c0.60482,-0.24192 1.10382,-0.19655 1.49696,0.1361c0.42338,0.33265 0.63508,0.87699 0.63508,1.63303c0,4.86889 0.28728,8.54322 0.86188,11.02301c0.5746,2.44957 1.52718,4.00701 2.85781,4.67231c0.93747,0.21169 2.14714,0 3.62896,-0.63508c2.51005,-1.11894 4.76304,-3.43241 6.75897,-6.94041c2.44954,-4.23381 3.62896,-9.02707 3.53826,-14.3798c-0.03035,-1.63303 -0.9376,-2.93343 -2.72174,-3.90116c-0.90725,-0.45361 -2.19248,-0.93747 -3.85576,-1.45159l-3.90116,-1.22479c-1.75402,-0.51412 -3.26608,-1.49696 -4.5362,-2.94855c-1.27015,-1.45159 -1.90523,-3.4173 -1.90523,-5.89709c0,-2.47979 0.49897,-5.29225 1.49696,-8.43737c1.02821,-3.17535 2.38909,-6.1239 4.0826,-8.84564c1.72376,-2.72174 3.87091,-4.97473 6.44144,-6.75897c2.60075,-1.78424 5.32249,-2.67638 8.16519,-2.67638z" fill="#ff0000"/><path d="M227.04593,322.83335c-4.32452,-4.59672 -5.06544,-12.33853 -2.22274,-23.22544l10.02503,-39.32903c0.36291,-1.36086 1.30038,-2.0413 2.81248,-2.0413h2.67634c0.75607,0 1.30041,0.28729 1.63306,0.86188c0.33265,0.5746 0.40821,1.25501 0.22668,2.0413l-10.47866,41.41566c-2.99388,11.70345 -0.8921,17.55518 6.30534,17.55518c2.99392,0 5.62492,-1.22479 7.89303,-3.67433c2.2681,-2.47979 4.18844,-6.75897 5.76099,-12.8375l11.06838,-43.32089c0.36291,-1.36086 1.28526,-2.0413 2.76711,-2.0413h2.31347c0.75603,0 1.28526,0.28729 1.58766,0.86188c0.30243,0.5746 0.36291,1.25501 0.18147,2.0413l-10.84157,43.09409c-2.35884,9.61678 -6.19949,16.01285 -11.52198,19.1882c-3.05439,1.81449 -6.65313,2.72174 -10.79621,2.72174c-4.11285,0 -7.24284,-1.10382 -9.38998,-3.31145z" fill="#00ff15"/></g><path d="M368.15272,331.63778h-271.5" fill="none" stroke-width="4" stroke-linecap="round"/><path d="M163.65273,338.63779h140" fill="none" stroke-width="2" stroke-linecap="round"/></g></g></g></svg>