<svg version="1.1" xmlns="http://www.w3.org/2000/svg" xmlns:xlink="http://www.w3.org/1999/xlink" width="194.62864" height="267.22501" viewBox="0,0,194.62864,267.22501"><g transform="translate(-139.40031,-46.38752)"><g data-paper-data="{&quot;isPaintingLayer&quot;:true}" fill-rule="nonzero" stroke-linecap="butt" stroke-linejoin="miter" stroke-miterlimit="10" stroke-dasharray="" stroke-dashoffset="0" style="mix-blend-mode: normal"><path d="M179.28373,313.61253v-267.22501h123.18203v267.22501z" fill-opacity="0.01" fill="#000000" stroke="none" stroke-width="0"/><g><path d="M140.40031,149.02583c0,0 40.50965,-30.39191 55.58014,-47.64571c13.71775,-15.70507 31.1668,-51.66849 31.1668,-51.66849c0,0 23.01056,37.27565 40.15821,50.43964c17.70059,13.58848 64.43914,29.85816 64.43914,29.85816c0,0 -37.06415,23.48679 -51.20732,39.67892c-14.74721,16.88368 -35.53963,59.63528 -35.53963,59.63528c0,0 -24.13357,-37.67778 -41.33959,-50.88659c-17.64853,-13.54851 -63.25775,-29.41122 -63.25775,-29.41122z" fill="#ff6f00" stroke="#000000" stroke-width="2"/><path d="M175.14535,213.89136c0,0 7.15432,-50.13498 5.61049,-72.9917c-1.40526,-20.80507 -14.49689,-58.5734 -14.49689,-58.5734c0,0 42.62879,10.08694 64.06236,7.27007c22.12471,-2.9077 66.67825,-24.45244 66.67825,-24.45244c0,0 -9.60064,42.81598 -8.1518,64.26627c1.51071,22.36641 17.0382,67.29882 17.0382,67.29882c0,0 -43.70723,-9.5772 -65.21375,-6.75075c-22.05964,2.89915 -65.52686,23.93311 -65.52686,23.93311z" fill="#ff6f00" stroke="#000000" stroke-width="2"/><path d="M171.65279,145.91986c-3.29342,-33.1386 22.65565,-62.84697 57.95886,-66.35551c35.3032,-3.50854 66.59196,20.51137 69.88538,53.64995c3.29342,33.1386 -22.65565,62.84697 -57.95886,66.35551c-35.3032,3.50854 -66.59196,-20.51137 -69.88538,-53.64995z" fill="#ffe900" stroke="#000000" stroke-width="2"/><path d="M208.73145,153.59447c-0.15143,-1.52371 55.71641,-7.63395 55.92274,-5.55778c1.44063,14.49577 -9.91024,27.49108 -25.35287,29.02582c-15.44263,1.53474 -29.12924,-8.97226 -30.56987,-23.46804z" fill="#000000" stroke="#000000" stroke-width="2"/><path d="M196.47754,133.61209c-0.613,-6.16801 3.89023,-11.6651 10.05824,-12.2781c6.16802,-0.613 11.66511,3.89023 12.27811,10.05824c0.613,6.16801 -3.89024,11.6651 -10.05825,12.2781c-6.16802,0.613 -11.66509,-3.89024 -12.27809,-10.05824z" fill="#000000" stroke="none" stroke-width="0"/><path d="M262.49128,137.99673c-5.9858,0.59489 -11.32051,-3.77532 -11.9154,-9.76112c-0.59489,-5.98581 3.77532,-11.32051 9.76112,-11.9154c5.9858,-0.59489 11.3205,3.77532 11.91539,9.76112c0.59489,5.98581 -3.77531,11.32052 -9.76111,11.91541z" data-paper-data="{&quot;index&quot;:null}" fill="#000000" stroke="none" stroke-width="0"/></g></g></g></svg>