<svg version="1.1" xmlns="http://www.w3.org/2000/svg" xmlns:xlink="http://www.w3.org/1999/xlink" width="166.036" height="307.11618" viewBox="0,0,166.036,307.11618"><g transform="translate(-149.95883,-6.49634)"><g data-paper-data="{&quot;isPaintingLayer&quot;:true}" fill-rule="nonzero" stroke-linejoin="miter" stroke-miterlimit="10" stroke-dasharray="" stroke-dashoffset="0" style="mix-blend-mode: normal"><path d="M179.28375,313.61252v-267.22501h123.18203v267.22501z" fill-opacity="0.01" fill="#000000" stroke="none" stroke-width="0" stroke-linecap="butt"/><g stroke="#000000" stroke-width="2" stroke-linecap="butt"><path d="M269.02372,226.85811c-12.92088,-1.20561 -9.80557,-122.43002 -9.80557,-122.43002l12.67283,-1.75189c0,0 9.66941,125.35168 -2.86725,124.18191z" data-paper-data="{&quot;index&quot;:null}" fill="#006609"/><path d="M278.35706,215.52477c-12.92088,-1.20561 -8.80557,-109.76335 -8.80557,-109.76335l12.67282,-1.75189c0,0 8.66941,112.68501 -3.86725,111.51525z" data-paper-data="{&quot;index&quot;:null}" fill="#00800b"/><path d="M205.11424,83.00953l12.67282,1.75189c0,0 3.11531,139.22441 -9.80557,140.43003c-12.53666,1.16977 -2.86725,-142.18191 -2.86725,-142.18191z" fill="#006609"/><path d="M199.32646,215.96237c-12.8665,-1.68988 -4.5262,-105.69916 -4.5262,-105.69916l12.72966,-1.27485c0,0 4.28044,108.61365 -8.20346,106.97402z" data-paper-data="{&quot;index&quot;:null}" fill="#00800b"/><path d="M183.63927,205.21209c-11.85707,-2.01666 0.80492,-97.76965 0.80492,-97.76965l12.76881,-0.7919c0,0 -1.16086,100.67273 -13.57373,98.56155z" data-paper-data="{&quot;index&quot;:null}" fill="#006609"/><path d="M292.01405,202.58355c-12.97213,-0.35584 -18.99203,-79.15159 -18.99203,-79.15159l12.53069,-2.57904c0,0 19.04773,82.07589 6.46134,81.73063z" data-paper-data="{&quot;index&quot;:null}" fill="#006609"/><path d="M295.95695,180.12279c-6.96196,-1.98495 2.87949,-14.59911 -0.90901,-27.03845c-3.24984,-10.67066 3.1711,-15.32245 6.4215,-4.65196c3.03726,9.97082 2.34727,33.93133 -5.51249,31.69041z" data-paper-data="{&quot;index&quot;:null}" fill="#006609"/></g><path d="M206.75006,307.5l15.14285,-131.8421l37.78325,-0.15789l13.57389,132z" fill="#4dff5b" stroke="#000000" stroke-width="2" stroke-linecap="butt"/><path d="M219.70028,204.11263l3.12142,-26.32765l35.83075,-0.14203l2.76735,26.1059c0,0 -7.51543,4.19603 -21.55904,4.50964c-12.48458,0.27879 -20.16049,-4.14586 -20.16049,-4.14586z" fill="#45e652" stroke="#000000" stroke-width="0" stroke-linecap="butt"/><g><path d="M172.06634,144.64018c-3.52551,-33.11471 22.21478,-63.00415 57.49254,-66.75995c35.27776,-3.75579 66.73402,20.04431 70.25953,53.15901c3.52551,33.11471 -22.21478,63.00415 -57.49254,66.75995c-35.27776,3.75579 -66.73402,-20.04431 -70.25953,-53.15901z" fill="#4dff5b" stroke="#000000" stroke-width="2" stroke-linecap="butt"/><path d="M172.79104,144.61716c-0.07707,-0.7239 11.09732,55.05395 69.03177,49.90668c55.35394,-4.918 57.02144,-64.35135 57.1293,-63.33823c3.47289,32.62045 -21.95391,62.07129 -56.79231,65.78032c-34.83841,3.70902 -65.89586,-19.72832 -69.36876,-52.34877z" fill="#45e652" stroke="#000000" stroke-width="0" stroke-linecap="butt"/><path d="M185.58589,143.88274c-1.37286,-12.89512 7.96779,-24.46163 20.86291,-25.83448c12.89512,-1.37286 24.46163,7.96779 25.83448,20.86291c1.37286,12.89512 -7.96779,24.46163 -20.86291,25.83448c-12.89512,1.37286 -24.46163,-7.96779 -25.83448,-20.86291z" fill="#ffffff" stroke="#000000" stroke-width="2" stroke-linecap="butt"/><path d="M192.58238,142.61068c-0.96634,-9.07678 5.60845,-17.21834 14.68523,-18.18468c9.07678,-0.96634 17.21834,5.60846 18.18468,14.68524c0.96634,9.07678 -5.60846,17.21834 -14.68524,18.18468c-9.07678,0.96634 -17.21833,-5.60846 -18.18467,-14.68524z" fill="#000000" stroke="none" stroke-width="0" stroke-linecap="butt"/><path d="M265.62249,158.7251c-12.89512,1.37286 -24.46163,-7.96779 -25.83448,-20.86291c-1.37286,-12.89512 7.96779,-24.46163 20.86291,-25.83448c12.89512,-1.37286 24.46163,7.96779 25.83448,20.86291c1.37286,12.89512 -7.96779,24.46163 -20.86291,25.83448z" data-paper-data="{&quot;index&quot;:null}" fill="#ffffff" stroke="#000000" stroke-width="2" stroke-linecap="butt"/><path d="M264.49673,151.57567c-9.07677,0.96634 -17.21833,-5.60846 -18.18467,-14.68524c-0.96634,-9.07678 5.60846,-17.21834 14.68523,-18.18468c9.07677,-0.96634 17.21833,5.60846 18.18467,14.68524c0.96634,9.07678 -5.60846,17.21834 -14.68523,18.18468z" data-paper-data="{&quot;index&quot;:null}" fill="#000000" stroke="none" stroke-width="0" stroke-linecap="butt"/><path d="M185.51005,144.02389c-1.37286,-12.89512 7.96779,-24.46163 20.86291,-25.83448c12.89512,-1.37286 24.46163,7.96779 25.83448,20.86291c0,0 -46.56703,6.1962 -46.69741,4.97157z" fill="#00cc11" stroke="#000000" stroke-width="2" stroke-linecap="butt"/><path d="M239.53942,137.88866c-1.37286,-12.89512 7.96779,-24.46163 20.86291,-25.83448c12.89512,-1.37286 24.46163,7.96779 25.83448,20.86291c0.1285,1.20698 -46.69741,4.97157 -46.69741,4.97157z" data-paper-data="{&quot;index&quot;:null}" fill="#00cc11" stroke="#000000" stroke-width="2" stroke-linecap="butt"/><path d="M195.10273,113.64827c0,0 6.12401,-5.85042 11.05723,-7.5767c4.93324,-1.72628 12.33886,-0.61032 12.33886,-0.61032c0,0 -7.99933,0.79101 -11.80911,2.12418c-3.98136,1.3932 -11.58698,6.06284 -11.58698,6.06284z" fill="#000000" stroke="none" stroke-width="0" stroke-linecap="butt"/><path d="M258.16958,102.10471c-4.00506,-0.50117 -11.99163,0.40973 -11.99163,0.40973c0,0 7.00467,-2.65015 12.19078,-2.00119c5.18611,0.64894 12.40459,5.07888 12.40459,5.07888c0,0 -8.4183,-2.96367 -12.60374,-3.48741z" data-paper-data="{&quot;index&quot;:null}" fill="#000000" stroke="none" stroke-width="0" stroke-linecap="butt"/><path d="M181.64815,141.13565l3.85502,2.20427" fill="none" stroke="#000000" stroke-width="2" stroke-linecap="round"/><path d="M311.81982,145.92407c-12.67868,4.52309 -12.22733,-26.63032 -33.53362,-46.2721c-25.01946,-23.06488 -49.34397,-16.5631 -45.86545,-24.22325c4.40143,-9.69251 32.96829,-3.23328 51.62801,12.22094c12.59115,10.42816 40.29165,53.80773 27.77107,58.27441z" data-paper-data="{&quot;index&quot;:null}" fill="#00b30f" stroke="#000000" stroke-width="2" stroke-linecap="butt"/><path d="M285.71554,132.46982l3.81645,-3.82553" fill="none" stroke="#000000" stroke-width="2" stroke-linecap="round"/><path d="M256.11682,173.46442c0,0 -6.52455,2.90824 -15.86378,3.95163c-9.33924,1.0434 -16.09184,-0.80094 -16.09184,-0.80094" fill="none" stroke="#000000" stroke-width="2" stroke-linecap="round"/><path d="M308.33695,156.39235c-13.15794,2.84182 -8.67301,-27.99037 -27.25408,-50.22775c-21.81932,-26.11281 -46.7813,-22.81825 -42.33938,-29.96301c5.62043,-9.04036 33.10928,1.06659 49.6088,18.80874c11.13351,11.97201 32.97853,58.57564 19.98467,61.38202z" data-paper-data="{&quot;index&quot;:null}" fill="#00e613" stroke="#000000" stroke-width="2" stroke-linecap="butt"/><path d="M245.05686,83.64993c0,0 19.14077,-14.73166 17.96802,-24.82857c-0.67027,-5.77065 -10.86392,-13.70361 -13.19303,-23.69681c-3.0698,-13.17112 8.70188,-25.65621 8.70188,-25.65621c0,0 -1.50675,10.71482 1.04831,22.99229c2.03617,9.78417 10.39613,11.96148 14.78055,24.4733c4.29391,12.25355 -5.20902,34.652 -5.20902,34.652c0,0 -3.24994,4.59404 -14.19921,0.957c-9.95701,-3.30746 -9.89749,-8.89297 -9.89749,-8.89297z" fill="#004d05" stroke="#000000" stroke-width="2" stroke-linecap="butt"/></g><g stroke="#000000" stroke-width="2" stroke-linecap="butt"><path d="M167.17529,141.79021c8.84087,-6.80173 11.36885,0.71339 2.52833,7.51558c-10.30584,7.92965 -9.61482,23.91384 -16.43593,21.4887c-7.70075,-2.73787 5.64644,-22.64855 13.90761,-29.00427z" data-paper-data="{&quot;index&quot;:null}" fill="#006609"/><g><path d="M178.88518,92.53503c17.08099,-17.18308 44.89104,-26.36937 50.20742,-17.14692c4.20163,7.28866 -20.63686,3.16498 -43.31333,28.53701c-19.31103,21.60652 -15.85493,52.5709 -28.91097,49.29266c-12.89324,-3.23736 10.49103,-49.08799 22.01688,-60.68274z" fill="#00cc11"/><path d="M180.62658,101.14542c14.87743,-19.12277 41.37233,-31.60507 47.76506,-23.09329c5.0523,6.72701 -20.10258,5.63764 -39.54403,33.56598c-16.55612,23.78345 -9.38045,54.10255 -22.73714,52.42741c-13.19014,-1.65425 4.47716,-49.99648 14.51611,-62.90009z" fill="#00e613"/><path d="M248.06952,75.22371c-0.14468,2.92154 -7.1575,4.79244 -15.6636,4.17876c-8.5061,-0.61368 -15.28437,-3.47954 -15.13969,-6.40108c0.14468,-2.92154 7.1575,-4.79244 15.6636,-4.17876c8.5061,0.61368 15.28437,3.47954 15.13969,6.40108z" fill="#00ff15"/><g><path d="M165.75737,112.47742c-0.03289,-3.09407 1.95922,-3.94813 4.42752,-3.97437c2.46831,-0.02624 4.47812,0.78527 4.51101,3.87934c0.03289,3.09407 -1.92359,7.29905 -4.3919,7.32529c-2.46831,0.02624 -4.51374,-4.13619 -4.54664,-7.23027z" fill="#ff80ee"/><path d="M174.92155,133.61037c0.03289,3.09407 -1.95921,3.94813 -4.42752,3.97437c-2.46831,0.02624 -4.47812,-0.78527 -4.51101,-3.87934c-0.03289,-3.09407 1.9236,-7.29905 4.3919,-7.32529c2.46831,-0.02624 4.51374,4.13619 4.54664,7.23027z" fill="#ff80ee"/><path d="M159.77298,127.62599c-3.09407,0.03289 -3.94813,-1.95922 -3.97437,-4.42752c-0.02624,-2.46831 0.78527,-4.47812 3.87934,-4.51101c3.09407,-0.03289 7.29905,1.9236 7.32529,4.3919c0.02624,2.46831 -4.13619,4.51374 -7.23027,4.54664z" fill="#ff80ee"/><path d="M180.90594,118.46179c3.09407,-0.03289 3.94813,1.95922 3.97437,4.42752c0.02624,2.46831 -0.78527,4.47812 -3.87934,4.51101c-3.09407,0.03289 -7.29905,-1.9236 -7.32529,-4.3919c-0.02624,-2.46831 4.13619,-4.51374 7.23027,-4.54664z" fill="#ff80ee"/><path d="M159.6278,118.8123c-2.21109,-2.16459 -1.40638,-4.17712 0.32043,-5.94104c1.7268,-1.76392 3.72178,-2.61124 5.93288,-0.44666c2.21109,2.16459 3.80101,6.52139 2.07422,8.28531c-1.7268,1.76392 -6.11643,0.26697 -8.32753,-1.89761z" fill="#ff80ee"/><path d="M181.05112,127.27549c2.21109,2.16459 1.40637,4.17712 -0.32044,5.94104c-1.7268,1.76391 -3.72178,2.61124 -5.93288,0.44666c-2.21109,-2.16459 -3.80101,-6.52139 -2.07422,-8.28531c1.7268,-1.76392 6.11643,-0.26697 8.32754,1.89761z" fill="#ff80ee"/><path d="M166.10786,133.75556c-2.16458,2.21109 -4.17713,1.40637 -5.94104,-0.32044c-1.76391,-1.72681 -2.61123,-3.72177 -0.44665,-5.93288c2.16458,-2.2111 6.52139,-3.80102 8.2853,-2.07422c1.76391,1.72681 0.26696,6.11643 -1.89761,8.32754z" fill="#ff80ee"/><path d="M174.57107,112.33224c2.16458,-2.2111 4.17713,-1.40637 5.94104,0.32044c1.76391,1.72681 2.61124,3.72177 0.44666,5.93288c-2.16458,2.2111 -6.52139,3.80102 -8.28531,2.07422c-1.76391,-1.72681 -0.26696,-6.11643 1.89761,-8.32754z" fill="#ff80ee"/><path d="M164.42107,122.9809c-0.03474,-3.2679 2.58625,-5.94522 5.85415,-5.97996c3.26791,-0.03474 5.94522,2.58625 5.97996,5.85415c0.03474,3.2679 -2.58625,5.94522 -5.85415,5.97996c-3.26791,0.03474 -5.94522,-2.58625 -5.97996,-5.85415z" fill="#ffe900"/></g><path d="M184.58063,130.05971c6.8102,-8.83435 11.17392,-2.21426 4.36419,6.62045c-7.93846,10.29907 -3.18746,25.57647 -10.40176,24.97414c-8.14464,-0.68002 -0.32608,-23.33951 6.03756,-31.59458z" data-paper-data="{&quot;index&quot;:null}" fill="#00ff15"/><path d="M175.04347,128.57257c10.56385,-14.56125 20.19818,-26.34509 25.58948,-34.38224c6.75618,-10.07187 13.92999,-25.04116 21.04601,-21.8886c7.43103,3.29211 -0.16891,20.64519 -7.14737,31.04845c-5.36859,8.0033 -21.11159,21.92938 -31.62649,36.42472c-13.17805,18.16663 -4.21426,44.2845 -16.69057,43.60772c-14.08524,-0.76406 -1.73491,-40.2488 8.82896,-54.81005z" fill="#00ff15"/><g><path d="M177.7213,140.51491c-0.02309,-2.17206 1.37538,-2.7716 3.10815,-2.79003c1.73277,-0.01842 3.14366,0.55126 3.16675,2.72332c0.02309,2.17206 -1.35037,5.12397 -3.08313,5.14239c-1.73277,0.01842 -3.16868,-2.90364 -3.19176,-5.07569z" fill="#ff80ee"/><path d="M184.15462,155.35036c0.02309,2.17206 -1.37538,2.7716 -3.10814,2.79003c-1.73277,0.01842 -3.14367,-0.55126 -3.16676,-2.72332c-0.02309,-2.17206 1.35037,-5.12397 3.08314,-5.14239c1.73277,-0.01842 3.16867,2.90364 3.19175,5.07569z" fill="#ff80ee"/><path d="M173.52023,151.1493c-2.17206,0.02309 -2.7716,-1.37538 -2.79003,-3.10815c-0.01842,-1.73277 0.55126,-3.14367 2.72332,-3.16676c2.17206,-0.02309 5.12397,1.35037 5.14239,3.08314c0.01842,1.73277 -2.90364,3.16868 -5.07569,3.19176z" fill="#ff80ee"/><path d="M188.35568,144.71598c2.17206,-0.02309 2.7716,1.37538 2.79003,3.10815c0.01842,1.73277 -0.55126,3.14367 -2.72332,3.16676c-2.17206,0.02309 -5.12397,-1.35037 -5.14239,-3.08314c-0.01842,-1.73277 2.90364,-3.16868 5.07569,-3.19176z" fill="#ff80ee"/><path d="M173.41832,144.96203c-1.55221,-1.51955 -0.98728,-2.93236 0.22494,-4.17064c1.21223,-1.23827 2.61272,-1.8331 4.16491,-0.31355c1.55221,1.51955 2.66835,4.57806 1.45611,5.81633c-1.21223,1.23827 -4.29376,0.18741 -5.84597,-1.33213z" fill="#ff80ee"/><path d="M188.45761,150.90324c1.55221,1.51955 0.98728,2.93236 -0.22494,4.17064c-1.21223,1.23827 -2.61272,1.8331 -4.16491,0.31355c-1.55221,-1.51955 -2.66835,-4.57806 -1.45611,-5.81633c1.21223,-1.23827 4.29376,-0.18741 5.84597,1.33213z" fill="#ff80ee"/><path d="M177.96735,155.45228c-1.51955,1.55221 -2.93236,0.98728 -4.17064,-0.22494c-1.23827,-1.21223 -1.8331,-2.61272 -0.31355,-4.16491c1.51955,-1.55221 4.57806,-2.66835 5.81633,-1.45611c1.23827,1.21223 0.18741,4.29376 -1.33213,5.84597z" fill="#ff80ee"/><path d="M183.90857,140.413c1.51955,-1.55221 2.93236,-0.98728 4.17064,0.22494c1.23827,1.21223 1.8331,2.61272 0.31355,4.16491c-1.51955,1.55221 -4.57806,2.66835 -5.81633,1.45611c-1.23827,-1.21223 -0.18741,-4.29376 1.33213,-5.84597z" fill="#ff80ee"/><path d="M176.78321,147.88842c-0.02438,-2.29409 1.81556,-4.17357 4.10965,-4.19796c2.29409,-0.02438 4.17357,1.81557 4.19796,4.10965c0.02438,2.29409 -1.81557,4.17357 -4.10965,4.19796c-2.29409,0.02438 -4.17357,-1.81556 -4.19796,-4.10965z" fill="#ffe900"/></g><path d="M187.39661,140.06813c7.01324,-16.56621 19.41057,-30.9039 22.85339,-39.94873c4.3144,-11.33466 7.93279,-27.53498 15.57597,-26.06596c7.98155,1.53404 4.48482,20.15289 0.02846,31.86049c-3.42831,9.00674 -18.59512,22.38016 -25.57551,38.87113c-8.74833,20.66772 0.20279,44.78284 -13.77406,42.87878c-10.9855,-1.49654 -6.12148,-31.02949 0.89177,-47.59569z" fill="#00b30f"/><path d="M238.82757,119.54339c-7.08567,-1.48397 1.83222,-14.76715 -2.83276,-26.90501c-4.0017,-10.41205 2.07156,-15.50941 6.07381,-5.09757c3.73981,9.72913 4.75838,33.67792 -3.24104,32.00258z" data-paper-data="{&quot;index&quot;:null}" fill="#00cc11"/><path d="M301.41463,137.74948c-12.41348,6.68874 -9.64092,-12.79521 -22.35372,-23.12099c-10.14367,-8.23905 -27.10533,-11.23107 -32.29243,-15.88001c-6.74256,-6.04301 -16.58086,-18.4212 -9.5931,-22.53741c6.69154,-3.94172 16.09472,6.78362 22.62252,12.63414c5.20906,4.66859 19.84372,9.37567 30.03462,17.65193c10.19089,8.27624 21.33887,25.99516 11.58214,31.25236z" data-paper-data="{&quot;index&quot;:null}" fill="#00ff15"/><path d="M202.42877,123.60883c5.45582,-11.94087 16.47818,-22.65712 19.0723,-29.1533c3.25088,-8.14079 5.36009,-19.62249 13.10605,-19.06219c8.08886,0.5851 6.32377,13.74097 2.96594,22.1496c-2.58321,6.46883 -16.45212,16.68172 -21.88215,28.5683c-6.80532,14.89715 4.33099,31.12348 -9.76167,30.64277c-11.07652,-0.37782 -8.95628,-21.2043 -3.50046,-33.14517z" fill="#00ff15"/><g><path d="M202.0633,80.65655c-0.04043,-3.80332 2.40832,-4.85314 5.44242,-4.8854c3.03411,-0.03225 5.50462,0.96528 5.54505,4.7686c0.04043,3.80332 -2.36453,8.97218 -5.39864,9.00443c-3.03411,0.03225 -5.54841,-5.08432 -5.58884,-8.88763z" fill="#ff80ee"/><path d="M213.32816,106.63374c0.04043,3.80332 -2.40832,4.85314 -5.44242,4.8854c-3.03411,0.03225 -5.50462,-0.96528 -5.54505,-4.7686c-0.04043,-3.80332 2.36453,-8.97218 5.39864,-9.00443c3.03411,-0.03225 5.54841,5.08432 5.58884,8.88763z" fill="#ff80ee"/><path d="M194.70714,99.27757c-3.80333,0.04043 -4.85314,-2.40832 -4.8854,-5.44242c-0.03225,-3.03411 0.96527,-5.50462 4.7686,-5.54505c3.80333,-0.04043 8.97218,2.36453 9.00443,5.39864c0.03225,3.03411 -5.08431,5.54841 -8.88763,5.58884z" fill="#ff80ee"/><path d="M220.68433,88.01271c3.80333,-0.04043 4.85314,2.40832 4.8854,5.44242c0.03225,3.03411 -0.96527,5.50462 -4.7686,5.54505c-3.80333,0.04043 -8.97218,-2.36453 -9.00443,-5.39864c-0.03225,-3.03411 5.08431,-5.54841 8.88763,-5.58884z" fill="#ff80ee"/><path d="M194.52868,88.44355c-2.71793,-2.66076 -1.72875,-5.13462 0.39389,-7.30287c2.12263,-2.16825 4.5749,-3.2098 7.29285,-0.54904c2.71793,2.66076 4.67231,8.01626 2.54969,10.18451c-2.12263,2.16825 -7.51847,0.32816 -10.23641,-2.3326z" fill="#ff80ee"/><path d="M220.86279,98.84673c2.71793,2.66076 1.72875,5.13462 -0.39389,7.30287c-2.12263,2.16825 -4.5749,3.2098 -7.29285,0.54904c-2.71793,-2.66076 -4.67231,-8.01626 -2.54969,-10.18451c2.12263,-2.16825 7.51848,-0.32816 10.23641,2.3326z" fill="#ff80ee"/><path d="M202.49414,106.8122c-2.66076,2.71793 -5.13463,1.72876 -7.30287,-0.39389c-2.16825,-2.12263 -3.2098,-4.5749 -0.54904,-7.29285c2.66076,-2.71793 8.01626,-4.67231 10.18451,-2.54969c2.16825,2.12263 0.32816,7.51848 -2.3326,10.23641z" fill="#ff80ee"/><path d="M212.89732,80.47808c2.66076,-2.71793 5.13463,-1.72876 7.30287,0.39389c2.16825,2.12263 3.2098,4.5749 0.54904,7.29285c-2.66076,2.71793 -8.01626,4.67231 -10.18451,2.54969c-2.16825,-2.12263 -0.32816,-7.51847 2.3326,-10.23641z" fill="#ff80ee"/><path d="M200.42069,93.56771c-0.04271,-4.01698 3.17909,-7.30801 7.19607,-7.35072c4.01698,-0.04271 7.30801,3.17909 7.35072,7.19607c0.04271,4.01698 -3.17909,7.30801 -7.19607,7.35072c-4.01698,0.04271 -7.30801,-3.17909 -7.35072,-7.19607z" fill="#ffe900"/></g><g><path d="M283.95319,99.05001c-0.02309,-2.17206 1.37538,-2.7716 3.10815,-2.79003c1.73277,-0.01842 3.14367,0.55126 3.16676,2.72332c0.02309,2.17206 -1.35037,5.12397 -3.08314,5.14239c-1.73277,0.01842 -3.16868,-2.90364 -3.19176,-5.07569z" fill="#ff80ee"/><path d="M290.38652,113.88547c0.02309,2.17206 -1.37538,2.7716 -3.10815,2.79003c-1.73277,0.01842 -3.14367,-0.55126 -3.16676,-2.72332c-0.02309,-2.17206 1.35037,-5.12396 3.08314,-5.14238c1.73277,-0.01842 3.16868,2.90364 3.19176,5.07568z" fill="#ff80ee"/><path d="M279.75213,109.6844c-2.17206,0.02309 -2.7716,-1.37538 -2.79003,-3.10815c-0.01842,-1.73277 0.55126,-3.14367 2.72332,-3.16676c2.17206,-0.02309 5.12397,1.35037 5.14239,3.08314c0.01842,1.73277 -2.90364,3.16868 -5.07569,3.19176z" fill="#ff80ee"/><path d="M294.58759,103.25108c2.17206,-0.02309 2.7716,1.37538 2.79003,3.10815c0.01842,1.73277 -0.55126,3.14367 -2.72332,3.16676c-2.17206,0.02309 -5.12397,-1.35037 -5.14239,-3.08314c-0.01842,-1.73277 2.90364,-3.16868 5.07569,-3.19176z" fill="#ff80ee"/><path d="M279.65021,103.49713c-1.5522,-1.51955 -0.98728,-2.93236 0.22494,-4.17064c1.21223,-1.23827 2.61272,-1.8331 4.16491,-0.31356c1.5522,1.51955 2.66835,4.57806 1.45611,5.81633c-1.21223,1.23827 -4.29376,0.18741 -5.84597,-1.33213z" fill="#ff80ee"/><path d="M294.68951,109.43835c1.5522,1.51955 0.98727,2.93236 -0.22495,4.17064c-1.21223,1.23827 -2.61272,1.8331 -4.16491,0.31355c-1.5522,-1.51955 -2.66835,-4.57806 -1.45611,-5.81633c1.21223,-1.23827 4.29377,-0.18741 5.84597,1.33213z" fill="#ff80ee"/><path d="M284.19925,113.98738c-1.51954,1.55221 -2.93236,0.98728 -4.17064,-0.22494c-1.23827,-1.21223 -1.8331,-2.61272 -0.31355,-4.16491c1.51954,-1.55221 4.57806,-2.66834 5.81633,-1.45611c1.23827,1.21223 0.18741,4.29376 -1.33213,5.84597z" fill="#ff80ee"/><path d="M290.14047,98.94809c1.51954,-1.55221 2.93236,-0.98727 4.17064,0.22495c1.23827,1.21223 1.8331,2.61271 0.31356,4.16491c-1.51954,1.55221 -4.57806,2.66834 -5.81633,1.45611c-1.23827,-1.21223 -0.18741,-4.29376 1.33213,-5.84597z" fill="#ff80ee"/><path d="M283.01511,106.42351c-0.02438,-2.29408 1.81557,-4.17357 4.10965,-4.19796c2.29409,-0.02438 4.17357,1.81557 4.19796,4.10965c0.02438,2.29408 -1.81557,4.17357 -4.10965,4.19796c-2.29409,0.02438 -4.17357,-1.81557 -4.19796,-4.10965z" fill="#ffe900"/></g></g></g></g></g></svg>