<svg version="1.1" xmlns="http://www.w3.org/2000/svg" xmlns:xlink="http://www.w3.org/1999/xlink" width="195.53717" height="267.22501" viewBox="0,0,195.53717,267.22501"><g transform="translate(-147.39509,-46.38752)"><g data-paper-data="{&quot;isPaintingLayer&quot;:true}" fill-rule="nonzero" stroke-linecap="butt" stroke-linejoin="miter" stroke-miterlimit="10" stroke-dasharray="" stroke-dashoffset="0" style="mix-blend-mode: normal"><path d="M179.28373,313.61253v-267.22501h123.18203v267.22501z" fill-opacity="0.01" fill="#000000" stroke="none" stroke-width="0"/><g><path d="M149.52001,128.95494c0,0 45.93695,-21.31891 64.26132,-35.06776c16.67955,-12.51472 41.2152,-44.07165 41.2152,-44.07165c0,0 14.76987,41.24089 28.81071,57.67827c14.4936,16.96741 56.83571,42.58655 56.83571,42.58655c0,0 -41.13287,15.27963 -58.3297,28.18248c-17.93128,13.45391 -47.14682,50.95693 -47.14682,50.95693c0,0 -15.78491,-41.86742 -29.87355,-58.36076c-14.45097,-16.91751 -55.77287,-41.90406 -55.77287,-41.90406z" fill="#ff6f00" stroke="#000000" stroke-width="2"/><path d="M170.04036,199.62084c0,0 17.40757,-47.55709 20.64296,-70.23627c2.94497,-20.64347 -2.01982,-60.30691 -2.01982,-60.30691c0,0 39.60559,18.71784 61.15694,20.41245c22.24629,1.74926 70.30215,-10.07568 70.30215,-10.07568c0,0 -18.281,39.88966 -21.3173,61.17334c-3.16598,22.19268 2.69416,69.36983 2.69416,69.36983c0,0 -40.76636,-18.44312 -62.39107,-20.1435c-22.18086,-1.74411 -69.06802,9.80673 -69.06802,9.80673z" fill="#ff6f00" stroke="#000000" stroke-width="2"/><path d="M180.73633,132.40538c3.65867,-33.10026 35.21042,-56.77365 70.47278,-52.87599c35.26236,3.89766 60.88223,33.8904 57.22356,66.99066c-3.65867,33.10026 -35.21042,56.77365 -70.47278,52.87599c-35.26236,-3.89766 -60.88223,-33.8904 -57.22356,-66.99066z" fill="#ffe900" stroke="#000000" stroke-width="2"/><path d="M215.41358,147.61112c0.16823,-1.52195 56.08727,4.10039 55.85805,6.17416c-1.60041,14.479 -15.40205,24.83443 -30.82682,23.12948c-15.42477,-1.70495 -26.63164,-14.82464 -25.03123,-29.30365z" fill="#000000" stroke="#000000" stroke-width="2"/><path d="M207.5755,125.51998c0.68098,-6.16088 6.2274,-10.60321 12.38828,-9.92223c6.16089,0.68098 10.60322,6.2274 9.92224,12.38828c-0.68098,6.16088 -6.22741,10.60321 -12.38829,9.92223c-6.16089,-0.68098 -10.6032,-6.22741 -9.92222,-12.38828z" fill="#000000" stroke="none" stroke-width="0"/><path d="M271.24038,143.51503c-5.97888,-0.66086 -10.28998,-6.04344 -9.62912,-12.02232c0.66086,-5.97889 6.04344,-10.28998 12.02232,-9.62912c5.97888,0.66086 10.28997,6.04344 9.62911,12.02232c-0.66086,5.97889 -6.04344,10.28999 -12.02231,9.62913z" data-paper-data="{&quot;index&quot;:null}" fill="#000000" stroke="none" stroke-width="0"/></g></g></g></svg>