<svg version="1.1" xmlns="http://www.w3.org/2000/svg" xmlns:xlink="http://www.w3.org/1999/xlink" width="181.24765" height="267.22501" viewBox="0,0,181.24765,267.22501"><g transform="translate(-164.03835,-46.38752)"><g data-paper-data="{&quot;isPaintingLayer&quot;:true}" fill-rule="nonzero" stroke-linecap="butt" stroke-linejoin="miter" stroke-miterlimit="10" stroke-dasharray="" stroke-dashoffset="0" style="mix-blend-mode: normal"><path d="M179.28373,313.61253v-267.22501h123.18203v267.22501z" fill-opacity="0.01" fill="#000000" stroke="none" stroke-width="0"/><g><path d="M165.03835,109.2844c0,0 50.01112,-7.9742 71.39188,-16.20076c19.4616,-7.48812 51.67749,-31.15189 51.67749,-31.15189c0,0 2.95521,43.70614 11.97761,63.35121c9.31333,20.27855 43.05728,56.47993 43.05728,56.47993c0,0 -43.74133,3.4751 -63.80649,11.19545c-20.92212,8.05008 -59.26288,36.15719 -59.26288,36.15719c0,0 -3.76075,-44.58588 -12.81387,-64.29784c-9.28594,-20.2189 -42.22102,-55.53331 -42.22102,-55.53331z" fill="#ff6f00" stroke="#000000" stroke-width="2"/><path d="M165.4961,182.86799c0,0 29.72458,-41.00182 39.02602,-61.93735c8.46652,-19.05633 14.51379,-58.56921 14.51379,-58.56921c0,0 32.99456,28.81527 53.26552,36.32663c20.92462,7.75358 70.38343,9.49125 70.38343,9.49125c0,0 -28.47252,33.38706 -37.20161,53.03438c-9.10191,20.48643 -16.33819,67.47219 -16.33819,67.47219c0,0 -34.18624,-28.86772 -54.5262,-36.40466c-20.86307,-7.73077 -69.12275,-9.41321 -69.12275,-9.41321z" fill="#ff6f00" stroke="#000000" stroke-width="2"/><path d="M194.12832,121.1224c12.55243,-30.84558 49.36682,-45.01042 82.22722,-31.63806c32.8604,13.37235 49.32328,49.21808 36.77085,80.06365c-12.55243,30.84558 -49.36682,45.01042 -82.22722,31.63806c-32.8604,-13.37235 -49.32328,-49.21808 -36.77085,-80.06365z" fill="#ffe900" stroke="#000000" stroke-width="2"/><path d="M223.33999,145.21398c0.57716,-1.41828 52.8396,19.25023 52.05318,21.18274c-5.49079,13.49274 -21.59447,19.68886 -35.96855,13.83941c-14.37408,-5.84945 -21.57542,-21.5294 -16.08463,-35.02215z" fill="#000000" stroke="#000000" stroke-width="2"/><path d="M221.82777,121.82238c2.33636,-5.74122 8.88452,-8.5014 14.62574,-6.16505c5.74123,2.33636 8.50141,8.88452 6.16506,14.62574c-2.33636,5.74122 -8.88453,8.5014 -14.62575,6.16504c-5.74123,-2.33636 -8.50139,-8.88452 -6.16504,-14.62573z" fill="#000000" stroke="none" stroke-width="0"/><path d="M278.16571,156.50774c-5.57162,-2.26734 -8.25026,-8.62207 -5.98293,-14.19368c2.26734,-5.57162 8.62207,-8.25026 14.19368,-5.98293c5.57162,2.26734 8.25026,8.62206 5.98292,14.19368c-2.26734,5.57162 -8.62207,8.25027 -14.19368,5.98294z" data-paper-data="{&quot;index&quot;:null}" fill="#000000" stroke="none" stroke-width="0"/></g></g></g></svg>