<svg version="1.1" xmlns="http://www.w3.org/2000/svg" xmlns:xlink="http://www.w3.org/1999/xlink" width="155.29286" height="300.19114" viewBox="0,0,155.29286,300.19114"><defs><linearGradient x1="240.00005" y1="175.50005" x2="240.00005" y2="307.50005" gradientUnits="userSpaceOnUse" id="color-1"><stop offset="0" stop-color="#000000"/><stop offset="1" stop-color="#65325d"/></linearGradient><linearGradient x1="184.99334" y1="24.28055" x2="203.37971" y2="129.41388" gradientUnits="userSpaceOnUse" id="color-2"><stop offset="0" stop-color="#000000"/><stop offset="1" stop-color="#4c2646"/></linearGradient><linearGradient x1="275.11622" y1="8.5193" x2="293.50258" y2="113.65264" gradientUnits="userSpaceOnUse" id="color-3"><stop offset="0" stop-color="#000000"/><stop offset="1" stop-color="#4c2647"/></linearGradient><linearGradient x1="240.70254" y1="83.46859" x2="261.47792" y2="202.26227" gradientUnits="userSpaceOnUse" id="color-4"><stop offset="0" stop-color="#1b0d19"/><stop offset="1" stop-color="#804076"/></linearGradient><linearGradient x1="223.54639" y1="74.42997" x2="227.46007" y2="96.80835" gradientUnits="userSpaceOnUse" id="color-5"><stop offset="0" stop-color="#33002b"/><stop offset="1" stop-color="#990085"/></linearGradient><linearGradient x1="257.5306" y1="68.48659" x2="261.44427" y2="90.86497" gradientUnits="userSpaceOnUse" id="color-6"><stop offset="0" stop-color="#33002b"/><stop offset="1" stop-color="#990085"/></linearGradient><linearGradient x1="241.13284" y1="75.62437" x2="243.80304" y2="90.89264" gradientUnits="userSpaceOnUse" id="color-7"><stop offset="0" stop-color="#1a0016"/><stop offset="1" stop-color="#80006e"/></linearGradient><linearGradient x1="279.2387" y1="65.80234" x2="295.28455" y2="157.55253" gradientUnits="userSpaceOnUse" id="color-8"><stop offset="0" stop-color="#1a0d17"/><stop offset="1" stop-color="#66335d"/></linearGradient><linearGradient x1="247.55898" y1="73.37301" x2="268.25958" y2="191.73916" gradientUnits="userSpaceOnUse" id="color-9"><stop offset="0" stop-color="#4c0000"/><stop offset="1" stop-color="#650000"/></linearGradient><radialGradient cx="255.93272" cy="133.5374" r="34.54447" gradientUnits="userSpaceOnUse" id="color-10"><stop offset="0" stop-color="#330000"/><stop offset="1" stop-color="#330000" stop-opacity="0"/></radialGradient><radialGradient cx="228.54669" cy="146.18047" r="23.48065" gradientUnits="userSpaceOnUse" id="color-11"><stop offset="0" stop-color="#808080"/><stop offset="1" stop-color="#804040"/></radialGradient><radialGradient cx="283.35779" cy="125.76619" r="23.48065" gradientUnits="userSpaceOnUse" id="color-12"><stop offset="0" stop-color="#808080"/><stop offset="1" stop-color="#804040"/></radialGradient><linearGradient x1="260.31225" y1="191.91786" x2="261.52935" y2="183.94967" gradientUnits="userSpaceOnUse" id="color-13"><stop offset="0" stop-color="#4d4d4d"/><stop offset="1" stop-color="#808080"/></linearGradient><linearGradient x1="274.71963" y1="165.97795" x2="281.92259" y2="174.64309" gradientUnits="userSpaceOnUse" id="color-14"><stop offset="0" stop-color="#4d4d4d"/><stop offset="1" stop-color="#808080"/></linearGradient><linearGradient x1="291.21412" y1="151.38628" x2="295.33445" y2="159.63134" gradientUnits="userSpaceOnUse" id="color-15"><stop offset="0" stop-color="#4d4d4d"/><stop offset="1" stop-color="#808080"/></linearGradient></defs><g transform="translate(-166.9736,-7.3089)"><g data-paper-data="{&quot;isPaintingLayer&quot;:true}" fill-rule="nonzero" stroke-width="0" stroke-linejoin="miter" stroke-miterlimit="10" stroke-dasharray="" stroke-dashoffset="0" style="mix-blend-mode: normal"><path d="M206.75006,307.50004l15.14285,-131.8421l37.78325,-0.15789l13.57389,132z" fill="url(#color-1)" stroke="none" stroke-linecap="butt"/><g><path d="M193.31686,131.17373c0,0 -46.63882,-96.32555 -15.80368,-105.45496c31.49373,-9.32441 42.82044,70.17221 42.82044,70.17221" fill="url(#color-2)" stroke="none" stroke-linecap="round"/><path d="M266.17756,87.87352c0,0 -16.32611,-78.62231 16.46295,-80.54006c32.10337,-1.87766 20.92491,104.55933 20.92491,104.55933" data-paper-data="{&quot;index&quot;:null}" fill="url(#color-3)" stroke="none" stroke-linecap="round"/><path d="M187.81359,153.93164c-5.73697,-32.80398 17.94224,-64.35135 52.88895,-70.46305c34.94672,-6.1117 67.92736,15.52667 73.66433,48.33064c5.73697,32.80398 -17.94224,64.35135 -52.88895,70.46305c-34.94672,6.1117 -67.92736,-15.52667 -73.66433,-48.33064z" fill="url(#color-4)" stroke="none" stroke-linecap="butt"/><g stroke="#000000" stroke-linecap="butt"><path d="M215.90049,96.78221c-4.32354,-6.4006 1.37513,-9.45156 1.37513,-9.45156c0,0 -5.08796,-1.30788 -4.95804,-8.13313c0.16697,-8.77126 24.78127,1.41704 24.78127,1.41704l1.13704,7.46908c0,0 -18.36218,14.58059 -22.33541,8.69859z" fill="url(#color-5)"/><path d="M248.34694,86.31534l-1.46539,-7.41165c0,0 19.6955,-17.93747 22.82945,-9.7435c2.43865,6.37604 -1.90343,9.33312 -1.90343,9.33312c0,0 6.3959,0.93579 4.50129,8.42386c-1.7411,6.88135 -23.96192,-0.60184 -23.96192,-0.60184z" data-paper-data="{&quot;index&quot;:null}" fill="url(#color-6)"/><path d="M234.83381,84.59362c-0.73736,-4.21621 2.08282,-8.23188 6.29904,-8.96925c4.21621,-0.73736 8.23188,2.08282 8.96925,6.29904c0.73736,4.21621 -2.08282,8.23188 -6.29904,8.96925c-4.21621,0.73736 -8.23188,-2.08282 -8.96925,-6.29904z" fill="url(#color-7)"/></g><path d="M248.77381,100.47601l16.21132,-20.69314l6.39213,2.87833l13.23762,-17.79908l7.20414,11.32366l18.0978,-11.42522l-4.19485,24.27589l14.36085,1.44075l-5.62125,17.24392l7.80488,14.19503l-7.75907,14.02403l-4.24451,18.99286l-4.81112,-2.01419z" fill="url(#color-8)" stroke="none" stroke-linecap="butt"/><path d="M236.15415,179.25544c0,0 -4.4809,3.30717 -6.83427,4.6644c-2.42977,1.4013 -7.52247,3.61542 -7.52247,3.61542c0,0 1.64292,-6.97217 1.68506,-10.37309c0.03382,-2.72984 -1.45163,-8.46525 -1.45163,-8.46525c0,0 -6.73108,3.22515 -10.62196,3.27861c-3.57898,0.04918 -11.86587,-2.96959 -11.86587,-2.96959c0,0 0.51825,-8.06553 1.38406,-11.46322c0.74291,-2.91536 3.49879,-7.69828 3.49879,-7.69828c0,0 -2.23021,-2.76935 -4.11668,-3.68596c-1.89705,-0.92176 -7.23405,-1.82921 -7.23405,-1.82921c0,0 4.86329,-9.49846 7.39843,-12.95737c2.58679,-3.52939 7.97045,-8.01181 7.97045,-8.01181l-5.21399,-1.20332c0,0 7.14499,-2.11818 9.47406,-3.46416c2.31839,-1.3398 4.46848,-4.59325 4.46848,-4.59325c0,0 2.10302,-5.98635 3.30867,-8.45696c0.98467,-2.01781 3.39748,-5.28517 3.39748,-5.28517c0,0 0.40916,2.73831 1.16414,4.12784c0.84091,1.54771 3.65139,4.73511 3.65139,4.73511c0,0 7.42481,-8.83439 10.63453,-11.7833c2.3043,-2.11706 6.8243,-4.25683 6.8243,-4.25683c0,0 -0.01087,3.43918 0.39344,4.5001c0.45214,1.1864 2.19199,2.28404 2.19199,2.28404l16.52225,-18.60525l6.62359,3.04088l12.87806,-17.53316l6.74122,10.99855l16.23107,-10.48966l-4.042,22.82791l14.00129,1.70667l-5.16805,16.35252l7.66707,13.407l-7.09915,14.31468l-2.83098,18.94869l-4.81112,-2.01419l-12.62347,20.99134l-3.56192,-4.86691l-11.49469,21.03236l-5.31131,-7.35626l-26.73423,12.48974c0,0 -2.34862,-5.72849 -3.97131,-8.43307c-1.56593,-2.60995 -5.60066,-7.5206 -5.60066,-7.5206z" fill="url(#color-9)" stroke="none" stroke-linecap="butt"/><path d="M248.91606,169.83328l-24.74821,-55.20666l38.78154,-17.38511l24.74821,55.20667z" fill="url(#color-10)" stroke="none" stroke-linecap="butt"/><path d="M239.38457,169.87715c5.17031,-7.20644 16.12814,5.50772 29.2445,1.99885c9.34618,-2.50027 21.17795,-21.45283 29.11101,-23.21665c9.46152,-2.10365 7.90458,4.39494 7.90458,4.39494l-12.013,23.32102l-3.52748,-4.66991l-12.12018,20.93871l-6.42446,-6.75551l-25.83538,9.17098c0,0 -1.45457,-4.53221 -3.15801,-7.65711c-1.62092,-2.97351 -7.60629,-11.3581 -3.18158,-17.52535z" fill="#190000" stroke="none" stroke-linecap="butt"/><path d="M205.41708,150.22551c-2.23403,-12.77412 6.31043,-24.94063 19.08456,-27.17466c12.77412,-2.23403 24.94063,6.31043 27.17466,19.08456c2.23403,12.77412 -6.31043,24.94063 -19.08456,27.17466c-12.77412,2.23403 -24.94063,-6.31043 -27.17466,-19.08456z" fill="url(#color-11)" stroke="none" stroke-linecap="butt"/><path d="M223.89548,149.7127c-0.68451,-3.91402 1.93353,-7.64185 5.84753,-8.32635c3.91402,-0.68451 7.64185,1.93353 8.32635,5.84754c0.68451,3.91402 -1.93352,7.64185 -5.84754,8.32635c-3.91402,0.68451 -7.64184,-1.93353 -8.32634,-5.84754z" fill="#000000" stroke="none" stroke-linecap="butt"/><path d="M287.40284,148.89578c-12.77412,2.23403 -24.94063,-6.31043 -27.17466,-19.08456c-2.23403,-12.77412 6.31043,-24.94063 19.08456,-27.17466c12.77412,-2.23403 24.94063,6.31043 27.17466,19.08456c2.23403,12.77412 -6.31043,24.94063 -19.08456,27.17466z" data-paper-data="{&quot;index&quot;:null}" fill="url(#color-12)" stroke="none" stroke-linecap="butt"/><path d="M289.49576,131.66973c-3.27931,0.57351 -6.40263,-1.61998 -6.97613,-4.89928c-0.57351,-3.27931 1.61998,-6.40263 4.89928,-6.97613c3.27931,-0.57351 6.40263,1.61998 6.97613,4.89928c0.57351,3.27931 -1.61998,6.40263 -4.89928,6.97613z" data-paper-data="{&quot;index&quot;:null}" fill="#000000" stroke="none" stroke-linecap="butt"/><path d="M259.67695,168.59644c0,0 -1.70803,-3.62151 -2.34443,-5.67506c-0.61774,-1.99333 1.69563,-7.52338 1.69563,-7.52338l8.91619,10.06813c0,0 -2.30231,1.86023 -3.3564,2.2389c-1.07337,0.38561 -4.91097,0.8914 -4.91097,0.8914z" fill="#190000" stroke="none" stroke-linecap="butt"/><path d="M276.70396,160.54604c-0.97719,1.71511 -7.10884,2.58599 -7.10884,2.58599l-8.47871,-10.44549c0,0 6.25168,1.7676 8.27665,2.27208c2.08615,0.51972 9.76924,0.0576 9.76924,0.0576c0,0 -1.48114,3.81473 -2.45832,5.52984z" data-paper-data="{&quot;index&quot;:null}" fill="#190000" stroke="none" stroke-linecap="butt"/><path d="M264.04562,184.33402c0,0 -0.25272,2.24488 -0.88126,4.32107c-0.05823,0.19236 -4.62796,1.88732 -4.68414,1.7007c-0.7413,-2.46272 0.53286,-6.79047 0.53286,-6.79047z" fill="url(#color-13)" stroke="none" stroke-linecap="butt"/><path d="M279.18623,176.91771c0,0 -8.04959,-8.15417 -4.44733,-11.14855c3.60225,-2.99438 9.92006,6.59931 9.92006,6.59931z" fill="url(#color-14)" stroke="none" stroke-linecap="butt"/><path d="M292.73076,160.93249c0,0 -4.88994,-7.99602 -1.46235,-9.7089c3.42759,-1.71289 6.66975,7.10659 6.66975,7.10659z" fill="url(#color-15)" stroke="none" stroke-linecap="butt"/></g></g></g></svg>