<svg version="1.1" xmlns="http://www.w3.org/2000/svg" xmlns:xlink="http://www.w3.org/1999/xlink" width="157.23625" height="284.49343" viewBox="0,0,157.23625,284.49343"><defs><linearGradient x1="290.03413" y1="137.3389" x2="318.6021" y2="137.43915" gradientUnits="userSpaceOnUse" id="color-1"><stop offset="0" stop-color="#000000"/><stop offset="1" stop-color="#240033"/></linearGradient><linearGradient x1="161.36825" y1="136.88737" x2="189.93624" y2="136.98762" gradientUnits="userSpaceOnUse" id="color-2"><stop offset="0" stop-color="#240033"/><stop offset="1" stop-color="#000000"/></linearGradient><linearGradient x1="240.00004" y1="175.50001" x2="240.00004" y2="307.50001" gradientUnits="userSpaceOnUse" id="color-3"><stop offset="0" stop-color="#000000"/><stop offset="1" stop-color="#470066"/></linearGradient><linearGradient x1="240.30292" y1="83.54868" x2="239.87971" y2="204.1446" gradientUnits="userSpaceOnUse" id="color-4"><stop offset="0" stop-color="#12001a"/><stop offset="1" stop-color="#590080"/></linearGradient><linearGradient x1="213.76843" y1="29.15423" x2="213.51159" y2="102.34223" gradientUnits="userSpaceOnUse" id="color-5"><stop offset="0" stop-color="#240033"/><stop offset="1" stop-color="#09000d"/></linearGradient><linearGradient x1="267.43475" y1="29.34257" x2="267.17791" y2="102.53058" gradientUnits="userSpaceOnUse" id="color-6"><stop offset="0" stop-color="#240033"/><stop offset="1" stop-color="#09000d"/></linearGradient></defs><g transform="translate(-161.3293,-29.11909)"><g data-paper-data="{&quot;isPaintingLayer&quot;:true}" fill-rule="nonzero" stroke-linecap="butt" stroke-linejoin="miter" stroke-miterlimit="10" stroke-dasharray="" stroke-dashoffset="0" style="mix-blend-mode: normal"><path d="M179.28374,313.61252v-267.22501h123.18203v267.22501z" fill-opacity="0.01" fill="#000000" stroke="none" stroke-width="0"/><path d="M304.29474,166.18211c-4.13481,-1.53498 -12.92841,-0.6717 -12.92841,-0.6717l-1.29418,-39.00478l22.27356,-26.25533c0,0 3.94145,3.20501 5.77653,33.35549c1.75818,28.88696 -2.28089,40.99058 -2.28089,40.99058c0,0 -7.52629,-6.92176 -11.5466,-8.41424z" data-paper-data="{&quot;index&quot;:null}" fill="url(#color-1)" stroke="#000000" stroke-width="0"/><path d="M163.86816,174.06304c0,0 -3.95403,-12.13166 -1.99314,-41.00558c2.04665,-30.13685 6.01048,-33.31412 6.01048,-33.31412l22.08874,26.41101l-1.5679,38.99474c0,0 -8.78734,-0.92497 -12.93282,0.58095c-4.03069,1.46422 -11.60536,8.333 -11.60536,8.333z" fill="url(#color-2)" stroke="#000000" stroke-width="0"/><path d="M206.75005,307.5l15.14285,-131.8421l37.78325,-0.15789l13.57389,132z" fill="url(#color-3)" stroke="#000000" stroke-width="0"/><path d="M175.85469,143.62122c0.61646,-33.29614 28.97132,-60.19703 64.44823,-60.07253c35.4769,0.1245 64.14189,27.22175 64.02502,60.52338c-0.11631,33.14248 -18.44115,35.01935 -25.093,51.78883c-14.16236,35.70364 -24.63045,70.34585 -39.57456,70.78332c-16.94202,0.49596 -24.34003,-37.44956 -39.98161,-71.20076c-9.18943,-19.82885 -24.44102,-18.49989 -23.82408,-51.82223z" fill="url(#color-4)" stroke="#000000" stroke-width="0"/><path d="M189.40448,143.76491c0.04551,-12.96792 10.59498,-23.44361 23.5629,-23.39811c12.96792,0.04551 23.44361,10.59498 23.39811,23.5629c-0.04551,12.96792 -10.59498,23.44361 -23.5629,23.39811c-12.96792,-0.04551 -23.44361,-10.59498 -23.39811,-23.5629z" fill="#808080" stroke="#000000" stroke-width="0"/><path d="M265.85837,203.8772c0.48117,15.64066 -16.23374,59.02851 -25.89415,59.32569c-9.66041,0.29719 -29.35901,-59.17181 -27.03187,-74.64587c1.49894,-9.96702 15.72085,-7.86332 25.38126,-8.16051c9.66041,-0.29719 27.06359,7.84002 27.54476,23.48069z" fill="#000000" stroke="#000000" stroke-width="2"/><path d="M194.1363,143.83921c0.03655,-10.41669 8.51057,-18.83142 18.92723,-18.79487c10.41669,0.03655 18.83142,8.51058 18.79487,18.92724c-0.03655,10.41669 -8.51058,18.83142 -18.92724,18.79487c-10.41669,-0.03655 -18.83141,-8.51058 -18.79486,-18.92724z" fill="#000000" stroke="none" stroke-width="0"/><path d="M267.05952,167.85154c-12.96792,-0.04551 -23.44361,-10.59498 -23.39811,-23.5629c0.04551,-12.96792 10.59498,-23.44361 23.5629,-23.39811c12.96792,0.04551 23.44361,10.59498 23.39811,23.5629c-0.04551,12.96792 -10.59498,23.44361 -23.5629,23.39811z" data-paper-data="{&quot;index&quot;:null}" fill="#808080" stroke="#000000" stroke-width="0"/><path d="M266.96179,163.62274c-10.78485,-0.03785 -19.49703,-8.81139 -19.45918,-19.59625c0.03785,-10.78487 8.81139,-19.49704 19.59624,-19.45919c10.78485,0.03785 19.49703,8.81139 19.45918,19.59625c-0.03785,10.78487 -8.81139,19.49704 -19.59624,19.45919z" data-paper-data="{&quot;index&quot;:null}" fill="#000000" stroke="none" stroke-width="0"/><path d="M203.46871,93.61824c-0.88939,-5.63722 0.28508,-64.49916 0.28508,-64.49916c0,0 19.23969,55.6412 20.12908,61.27841c0.88939,5.63722 -2.9595,10.92806 -8.5967,11.81744c-5.63721,0.88939 -10.92806,-2.95949 -11.81744,-8.5967z" fill="url(#color-5)" stroke="#000000" stroke-width="0"/><path d="M265.40428,102.39082c-5.63082,-0.92894 -9.44249,-6.24666 -8.51355,-11.87749c0.92893,-5.63083 20.55867,-61.13562 20.55867,-61.13562c0,0 0.76131,58.86873 -0.16762,64.49957c-0.92893,5.63083 -6.24666,9.44248 -11.8775,8.51355z" data-paper-data="{&quot;index&quot;:null}" fill="url(#color-6)" stroke="#000000" stroke-width="0"/></g></g></svg>