<svg version="1.1" xmlns="http://www.w3.org/2000/svg" xmlns:xlink="http://www.w3.org/1999/xlink" width="268.05953" height="364.913" viewBox="0,0,268.05953,364.913"><defs><radialGradient cx="252.29363" cy="167.32898" r="29.77021" gradientUnits="userSpaceOnUse" id="color-1"><stop offset="0" stop-color="#a5fffd"/><stop offset="1" stop-color="#00fffc"/></radialGradient><radialGradient cx="238.02926" cy="177.79733" r="13.53336" gradientUnits="userSpaceOnUse" id="color-2"><stop offset="0" stop-color="#b7b7b7"/><stop offset="1" stop-color="#d4d4d4"/></radialGradient><radialGradient cx="279.64518" cy="161.28712" r="13.53336" gradientUnits="userSpaceOnUse" id="color-3"><stop offset="0" stop-color="#b7b7b7"/><stop offset="1" stop-color="#d4d4d4"/></radialGradient><radialGradient cx="258.78224" cy="169.40737" r="10.06574" gradientUnits="userSpaceOnUse" id="color-4"><stop offset="0" stop-color="#b7b7b7"/><stop offset="1" stop-color="#d4d4d4"/></radialGradient><radialGradient cx="135.72824" cy="253.88344" r="10.69791" gradientUnits="userSpaceOnUse" id="color-5"><stop offset="0" stop-color="#b7b7b7"/><stop offset="1" stop-color="#d4d4d4"/></radialGradient><radialGradient cx="129.42774" cy="246.13483" r="10.29422" gradientUnits="userSpaceOnUse" id="color-6"><stop offset="0" stop-color="#b7b7b7"/><stop offset="1" stop-color="#d4d4d4"/></radialGradient><radialGradient cx="124.57911" cy="234.42946" r="9.68867" gradientUnits="userSpaceOnUse" id="color-7"><stop offset="0" stop-color="#b7b7b7"/><stop offset="1" stop-color="#d4d4d4"/></radialGradient><radialGradient cx="162.95123" cy="208.25439" r="49.48365" gradientUnits="userSpaceOnUse" id="color-8"><stop offset="0" stop-color="#ffc77c"/><stop offset="1" stop-color="#cf6b00"/></radialGradient><radialGradient cx="223.77164" cy="189.84754" r="23.59051" gradientUnits="userSpaceOnUse" id="color-9"><stop offset="0" stop-color="#a5fffd"/><stop offset="1" stop-color="#00fffc"/></radialGradient><radialGradient cx="131.1239" cy="247.91045" r="27.74281" gradientUnits="userSpaceOnUse" id="color-10"><stop offset="0" stop-color="#b7b7b7"/><stop offset="1" stop-color="#d4d4d4"/></radialGradient><radialGradient cx="312.60375" cy="123.21456" r="35.16059" gradientUnits="userSpaceOnUse" id="color-11"><stop offset="0" stop-color="#a5fffd"/><stop offset="1" stop-color="#00fffc"/></radialGradient><radialGradient cx="314.63212" cy="124.76985" r="16.92663" gradientUnits="userSpaceOnUse" id="color-12"><stop offset="0" stop-color="#a5fffd"/><stop offset="1" stop-color="#00fffc"/></radialGradient><radialGradient cx="306.281" cy="122.2282" r="18.35048" gradientUnits="userSpaceOnUse" id="color-13"><stop offset="0" stop-color="#a5fffd"/><stop offset="1" stop-color="#00fffc"/></radialGradient><radialGradient cx="289.03105" cy="219.44584" r="37.75312" gradientUnits="userSpaceOnUse" id="color-14"><stop offset="0" stop-color="#a5fffd"/><stop offset="1" stop-color="#00fffc"/></radialGradient><radialGradient cx="277.53105" cy="270.94585" r="12" gradientUnits="userSpaceOnUse" id="color-15"><stop offset="0" stop-color="#a5fffd"/><stop offset="1" stop-color="#00fffc"/></radialGradient><radialGradient cx="318.03105" cy="230.44585" r="37.5" gradientUnits="userSpaceOnUse" id="color-16"><stop offset="0" stop-color="#a5fffd"/><stop offset="1" stop-color="#00fffc"/></radialGradient><radialGradient cx="293.03105" cy="228.94585" r="31.26113" gradientUnits="userSpaceOnUse" id="color-17"><stop offset="0" stop-color="#a5fffd"/><stop offset="1" stop-color="#00fffc"/></radialGradient><radialGradient cx="326.57223" cy="161" r="37.85233" gradientUnits="userSpaceOnUse" id="color-18"><stop offset="0" stop-color="#ffc77c"/><stop offset="1" stop-color="#cf6b00"/></radialGradient><radialGradient cx="312.05911" cy="180.40152" r="21.93901" gradientUnits="userSpaceOnUse" id="color-19"><stop offset="0" stop-color="#a5fffd"/><stop offset="1" stop-color="#00fffc"/></radialGradient><radialGradient cx="370.57224" cy="284" r="31.76139" gradientUnits="userSpaceOnUse" id="color-20"><stop offset="0" stop-color="#ffc77c"/><stop offset="1" stop-color="#cf6b00"/></radialGradient><radialGradient cx="330.57223" cy="241" r="15" gradientUnits="userSpaceOnUse" id="color-21"><stop offset="0" stop-color="#ffc77c"/><stop offset="1" stop-color="#cf6b00"/></radialGradient><radialGradient cx="325.1997" cy="244.9398" r="11.91506" gradientUnits="userSpaceOnUse" id="color-22"><stop offset="0" stop-color="#a5fffd"/><stop offset="1" stop-color="#00fffc"/></radialGradient><radialGradient cx="284.57223" cy="284" r="31.76139" gradientUnits="userSpaceOnUse" id="color-23"><stop offset="0" stop-color="#ffc77c"/><stop offset="1" stop-color="#cf6b00"/></radialGradient><radialGradient cx="288.90323" cy="233.49276" r="13.53336" gradientUnits="userSpaceOnUse" id="color-24"><stop offset="0" stop-color="#b7b7b7"/><stop offset="1" stop-color="#d4d4d4"/></radialGradient><radialGradient cx="320.31313" cy="231.65348" r="13.53335" gradientUnits="userSpaceOnUse" id="color-25"><stop offset="0" stop-color="#b7b7b7"/><stop offset="1" stop-color="#d4d4d4"/></radialGradient><radialGradient cx="291.57223" cy="247" r="15" gradientUnits="userSpaceOnUse" id="color-26"><stop offset="0" stop-color="#ffc77c"/><stop offset="1" stop-color="#cf6b00"/></radialGradient><radialGradient cx="278.86636" cy="246.93981" r="11.91506" gradientUnits="userSpaceOnUse" id="color-27"><stop offset="0" stop-color="#a5fffd"/><stop offset="1" stop-color="#00fffc"/></radialGradient><radialGradient cx="329.35686" cy="275.59895" r="13.53336" gradientUnits="userSpaceOnUse" id="color-28"><stop offset="0" stop-color="#b7b7b7"/><stop offset="1" stop-color="#d4d4d4"/></radialGradient><radialGradient cx="274.95347" cy="273.50016" r="13.53336" gradientUnits="userSpaceOnUse" id="color-29"><stop offset="0" stop-color="#b7b7b7"/><stop offset="1" stop-color="#d4d4d4"/></radialGradient><radialGradient cx="311.7868" cy="153.41682" r="13.53336" gradientUnits="userSpaceOnUse" id="color-30"><stop offset="0" stop-color="#b7b7b7"/><stop offset="1" stop-color="#d4d4d4"/></radialGradient><radialGradient cx="312.60375" cy="139.52856" r="13.53335" gradientUnits="userSpaceOnUse" id="color-31"><stop offset="0" stop-color="#b7b7b7"/><stop offset="1" stop-color="#d4d4d4"/></radialGradient><radialGradient cx="313.42071" cy="125.91262" r="13.53336" gradientUnits="userSpaceOnUse" id="color-32"><stop offset="0" stop-color="#b7b7b7"/><stop offset="1" stop-color="#d4d4d4"/></radialGradient><radialGradient cx="340.98017" cy="54.51134" r="15.52218" gradientUnits="userSpaceOnUse" id="color-33"><stop offset="0" stop-color="#d2d2d2"/><stop offset="1" stop-color="#c7c7c7"/></radialGradient><radialGradient cx="300.72453" cy="52.55414" r="15.52218" gradientUnits="userSpaceOnUse" id="color-34"><stop offset="0" stop-color="#d2d2d2"/><stop offset="1" stop-color="#c7c7c7"/></radialGradient><radialGradient cx="332.33842" cy="36.85972" r="16.16667" gradientUnits="userSpaceOnUse" id="color-35"><stop offset="0" stop-color="#ffffff"/><stop offset="1" stop-color="#ececec"/></radialGradient><radialGradient cx="293.01912" cy="35.61549" r="16.16667" gradientUnits="userSpaceOnUse" id="color-36"><stop offset="0" stop-color="#ffffff"/><stop offset="1" stop-color="#ececec"/></radialGradient><radialGradient cx="334.73596" cy="49.32419" r="8.66667" gradientUnits="userSpaceOnUse" id="color-37"><stop offset="0" stop-color="#a5fffd"/><stop offset="1" stop-color="#00fffc"/></radialGradient><radialGradient cx="293.76815" cy="47.66609" r="8.66667" gradientUnits="userSpaceOnUse" id="color-38"><stop offset="0" stop-color="#a5fffd"/><stop offset="1" stop-color="#00fffc"/></radialGradient><radialGradient cx="367.57224" cy="68" r="63.00298" gradientUnits="userSpaceOnUse" id="color-39"><stop offset="0" stop-color="#ffc77c"/><stop offset="1" stop-color="#cf6b00"/></radialGradient><radialGradient cx="299.65071" cy="51.2717" r="15.52218" gradientUnits="userSpaceOnUse" id="color-40"><stop offset="0" stop-color="#d2d2d2"/><stop offset="1" stop-color="#c7c7c7"/></radialGradient><radialGradient cx="283" cy="34.66666" r="14" gradientUnits="userSpaceOnUse" id="color-41"><stop offset="0" stop-color="#ffc77c"/><stop offset="1" stop-color="#cf6b00"/></radialGradient><radialGradient cx="341.15071" cy="52.7717" r="15.52218" gradientUnits="userSpaceOnUse" id="color-42"><stop offset="0" stop-color="#d2d2d2"/><stop offset="1" stop-color="#c7c7c7"/></radialGradient><radialGradient cx="323" cy="40.66666" r="14" gradientUnits="userSpaceOnUse" id="color-43"><stop offset="0" stop-color="#ffc77c"/><stop offset="1" stop-color="#cf6b00"/></radialGradient><radialGradient cx="335.57224" cy="78" r="28.21937" gradientUnits="userSpaceOnUse" id="color-44"><stop offset="0" stop-color="#ce9d5b"/><stop offset="1" stop-color="#9c5202"/></radialGradient><radialGradient cx="303.31102" cy="168.74977" r="29.77021" gradientUnits="userSpaceOnUse" id="color-45"><stop offset="0" stop-color="#a5fffd"/><stop offset="1" stop-color="#00fffc"/></radialGradient><radialGradient cx="287.80052" cy="177.26347" r="13.53336" gradientUnits="userSpaceOnUse" id="color-46"><stop offset="0" stop-color="#b7b7b7"/><stop offset="1" stop-color="#d4d4d4"/></radialGradient><radialGradient cx="331.21769" cy="166.33551" r="13.53336" gradientUnits="userSpaceOnUse" id="color-47"><stop offset="0" stop-color="#b7b7b7"/><stop offset="1" stop-color="#d4d4d4"/></radialGradient><radialGradient cx="309.47223" cy="171.65859" r="10.06574" gradientUnits="userSpaceOnUse" id="color-48"><stop offset="0" stop-color="#b7b7b7"/><stop offset="1" stop-color="#d4d4d4"/></radialGradient><radialGradient cx="176.43056" cy="239.32253" r="10.69791" gradientUnits="userSpaceOnUse" id="color-49"><stop offset="0" stop-color="#b7b7b7"/><stop offset="1" stop-color="#d4d4d4"/></radialGradient><radialGradient cx="171.19713" cy="230.81674" r="10.29422" gradientUnits="userSpaceOnUse" id="color-50"><stop offset="0" stop-color="#b7b7b7"/><stop offset="1" stop-color="#d4d4d4"/></radialGradient><radialGradient cx="167.92038" cy="218.57796" r="9.68867" gradientUnits="userSpaceOnUse" id="color-51"><stop offset="0" stop-color="#b7b7b7"/><stop offset="1" stop-color="#d4d4d4"/></radialGradient><radialGradient cx="209.3851" cy="197.64401" r="49.48365" gradientUnits="userSpaceOnUse" id="color-52"><stop offset="0" stop-color="#ffc77c"/><stop offset="1" stop-color="#cf6b00"/></radialGradient><radialGradient cx="272.08992" cy="187.34631" r="23.59051" gradientUnits="userSpaceOnUse" id="color-53"><stop offset="0" stop-color="#a5fffd"/><stop offset="1" stop-color="#00fffc"/></radialGradient><radialGradient cx="172.64661" cy="232.79886" r="27.74281" gradientUnits="userSpaceOnUse" id="color-54"><stop offset="0" stop-color="#b7b7b7"/><stop offset="1" stop-color="#d4d4d4"/></radialGradient></defs><g transform="translate(-107.41424,-3.58704)"><g data-paper-data="{&quot;isPaintingLayer&quot;:true}" stroke-miterlimit="10" stroke-dasharray="" stroke-dashoffset="0" style="mix-blend-mode: normal"><g data-paper-data="{&quot;index&quot;:null}" fill-rule="nonzero" stroke-linejoin="miter"><path d="M243.98174,194.38747c0,0 -1.98951,1.51388 -3.5034,-0.47563c-1.51388,-1.98951 0.47563,-3.5034 0.47563,-3.5034l0.7958,-0.60555c2.45159,-1.86549 5.28419,-3.8376 7.30635,-6.13125c0.4538,-0.51474 0.89936,-1.06525 1.34642,-1.6326c-2.12783,0.08445 -3.70927,2.32603 -5.35343,3.35768c-0.23642,0.14835 -5.48337,2.89357 -5.73534,3.02569c-1.0818,0.37131 -2.16361,0.74261 -3.24542,1.11392l-2.66555,0.7387c0,0 -2.40945,0.66672 -3.07618,-1.74273c-0.66672,-2.40945 1.74273,-3.07618 1.74273,-3.07618l2.52458,-0.69746c0.91351,-0.30927 1.82701,-0.61852 2.74052,-0.92779c3.85812,-2.048 8.39075,-6.41358 12.77549,-6.7819c0.11953,-0.01003 2.28455,0.26167 4.04445,0.49404c1.39241,-1.3949 2.9782,-2.5544 4.94154,-3.12089c0.70263,-0.20274 1.4144,-0.08677 2.13172,0.13581c-0.01836,-0.90129 -0.11975,-1.92304 0.13415,-3.23848c0.57003,-2.95323 0.9243,-4.89799 2.26283,-6.45309c-2.34603,0.76953 -5.04876,2.30435 -6.96901,3.53356c-3.94131,2.52297 -8.17084,5.68524 -11.63329,8.84934c-3.22523,2.94733 -6.10319,5.05558 -10.73559,4.87708l-1.28269,1.13724c0,0 -1.98951,1.51388 -3.5034,-0.47563c-1.51388,-1.98951 0.47563,-3.5034 0.47563,-3.5034l2.69634,-1.89052c8.60907,-0.34599 14.28495,-8.76008 21.24492,-13.17777c2.64153,-1.67666 6.49501,-3.77453 9.57031,-4.50349c4.57115,-1.08353 9.9737,-0.42989 14.68951,-0.95093c0,0 2.28264,-0.25219 2.71408,1.91463c0.57569,-0.32779 2.06644,-0.93932 3.26102,0.63058c1.3717,1.80266 -0.13281,3.21483 -0.42753,3.46419c0.61693,-0.02374 1.32902,0.19761 1.95881,1.02526c1.51388,1.98951 -0.47563,3.5034 -0.47563,3.5034c-3.75883,2.8466 -7.90762,5.43766 -11.976,7.83662c-1.8417,1.08598 -5.35999,3.12617 -7.46783,3.38342c-0.51395,0.06272 -1.03059,0.0526 -1.54711,0.00031c-0.42112,0.53416 -0.89662,1.02038 -1.4212,1.43572c-2.26947,1.79686 -4.48034,1.59719 -6.73667,1.07856c-1.12642,1.23317 -1.90657,2.41876 -3.27758,3.97174c-2.2393,2.53652 -5.30263,4.71992 -8.00419,6.77562l-0.7958,0.60555zM270.70525,172.82208c2.67201,-1.57989 5.39834,-3.23621 8.00467,-5.00682c-0.53544,0.15332 -1.12912,0.26867 -1.8082,0.3404c-3.62517,0.3829 -4.26667,-2.73276 -7.84221,-1.08262c-3.2922,1.51938 -2.64329,5.04236 -2.80796,8.12563c1.53535,-0.66072 3.85557,-2.02294 4.4537,-2.37659z" fill="url(#color-1)" stroke="none" stroke-width="0.5" stroke-linecap="butt"/><path d="M227.54991,175.75693c0,0 3.03824,-3.7487 4.29452,-4.98347c0.8549,-0.84028 2.51402,-1.70857 2.51402,-1.70857l17.07771,19.07045c0,0 -0.692,2.05505 -1.53466,2.79365c-1.35874,1.19097 -5.83767,3.66834 -5.83767,3.66834c0,0 -1.26919,-0.14641 -2.31317,-1.24095c-3.61691,-3.79209 -11.29031,-13.03953 -13.19963,-15.21785c-0.81019,-0.92434 -1.00114,-2.38158 -1.00114,-2.38158z" fill="url(#color-2)" stroke="none" stroke-width="0" stroke-linecap="butt"/><path d="M270.71288,155.43954c0,0 4.22913,-2.32335 5.85876,-2.99213c1.10897,-0.45512 2.97315,-0.63239 2.97315,-0.63239l8.60913,24.10838c0,0 -1.41698,1.64141 -2.4762,2.00701c-1.70794,0.5895 -6.79083,1.19153 -6.79083,1.19153c0,0 -1.11987,-0.61497 -1.67307,-2.02275c-1.91659,-4.87737 -5.52851,-16.33819 -6.47358,-19.07633c-0.40102,-1.1619 -0.02738,-2.5833 -0.02738,-2.5833z" fill="url(#color-3)" stroke="none" stroke-width="0" stroke-linecap="butt"/><path d="M250.88059,168.62154c0,0 1.99054,-2.98633 2.83541,-3.98768c0.57495,-0.68143 1.74351,-1.43926 1.74351,-1.43926l13.96657,12.94072c0,0 -0.37025,1.56975 -0.94315,2.17503c-0.92379,0.976 -4.0692,3.12056 -4.0692,3.12056c0,0 -0.95004,-0.0206 -1.79889,-0.7589c-2.94091,-2.55792 -9.26338,-8.87506 -10.82806,-10.35606c-0.66396,-0.62845 -0.9062,-1.69438 -0.9062,-1.69438z" fill="url(#color-4)" stroke="none" stroke-width="0" stroke-linecap="butt"/><g><path d="M134.67889,254.61045l17.67687,-13.4899" fill="none" stroke="url(#color-5)" stroke-width="0.5" stroke-linecap="round"/><path d="M128.8626,246.21576l18.16181,-12.11752" fill="none" stroke="url(#color-6)" stroke-width="0.5" stroke-linecap="round"/><path d="M123.8528,235.39861l18.08159,-10.6642" fill="none" stroke="url(#color-7)" stroke-width="0.5" stroke-linecap="round"/><path d="M146.67402,213.94653l76.04253,-46.65963c0,0 14.97824,1.08839 7.98185,10.65586c-1.2836,1.7553 2.73314,1.85627 4.65136,3.47927c2.08241,1.76191 2.12161,5.05373 1.63176,7.20178c-0.26618,1.16717 -1.16186,1.29033 -0.49613,1.89323c2.23352,2.02276 5.15177,1.20674 7.72748,3.2234c2.91113,2.27932 0.88342,10.01935 0.88342,10.01935l-76.88704,45.28328z" fill="url(#color-8)" stroke="none" stroke-width="0" stroke-linecap="butt"/><path d="M206.88079,197.95084c0.07597,-2.01703 2.09301,-1.94108 2.09301,-1.94108l2.12149,0.19505c0.88766,0.43403 2.0702,0.51156 2.66294,1.30211c1.99215,2.65702 1.24657,8.93426 -0.93642,11.28792c-2.77452,2.99146 -11.00296,1.90906 -13.59542,-1.11404c-0.73161,-0.85313 -0.80768,-2.09758 -1.21152,-3.14638c0.37853,-1.82286 0.38299,-3.72917 0.94047,-5.50548c1.19438,-3.80566 5.18018,-7.48338 8.89516,-8.84213c1.99062,-0.72808 6.51684,-1.33898 8.53098,-0.65556c3.45973,1.17394 6.48169,7.47896 7.05436,10.81322c0.18593,1.0825 0.28177,2.23682 -0.01232,3.29508c-0.95681,3.44285 -4.9351,7.23756 -7.06515,10.07753c-3.55813,3.29613 -9.77824,7.62646 -14.93237,7.44864c-3.57054,-0.1232 -9.10055,-2.53943 -12.05586,-4.42081c-3.47157,-2.21004 -6.94932,-8.27606 -8.15614,-12.22169c-0.33508,-1.09549 -0.80918,-2.23558 -0.66423,-3.37196c0.29641,-2.32362 1.76802,-3.32814 3.25035,-4.73649c4.74343,-4.12364 9.62704,-7.97638 15.28875,-10.8328c1.46157,-0.73737 3.08976,-1.10785 4.55126,-1.84539c2.49504,-1.25911 2.23255,-1.98466 5.46789,-2.0622c3.17339,-0.07605 6.47834,1.96956 9.50346,2.51454c1.03979,0.18733 2.16811,-0.1705 3.16443,0.18109c2.41786,0.85322 3.03305,2.58726 4.2713,4.55483c0,0 1.05565,1.72044 -0.66477,2.77609c-1.72041,1.05564 -2.77607,-0.66478 -2.77607,-0.66478c-0.15482,-0.26096 -1.24975,-2.65389 -2.17213,-2.85866c-1.56056,-0.34644 -3.19255,-0.36989 -4.723,-0.83154c-1.76873,-0.53353 -4.7379,-1.60821 -6.61622,-1.63467c-1.94615,-0.02741 -4.31779,1.91298 -6.06196,2.62019c-6.23236,2.52701 -11.51395,6.72322 -16.53595,11.08713c-0.38877,0.34813 -1.88721,1.47658 -1.9423,2.23878c-0.0428,0.59198 1.45415,3.83064 1.50081,3.92236c1.24226,2.44133 3.09931,6.32376 5.45874,7.74478c2.04839,1.2337 4.37258,1.82506 6.59327,2.6609c0.81091,0.30522 2.51894,1.10544 3.44986,1.14551c3.83196,0.16489 9.19349,-3.69229 11.7966,-6.11042c1.83522,-2.48722 5.15674,-5.55248 6.18237,-8.47103c0.3683,-1.048 -0.54583,-2.53361 -0.87315,-3.32594c-0.52675,-1.27511 -1.86323,-5.44124 -3.53259,-5.85392c-1.35327,-0.33455 -2.78283,0.185 -4.16813,0.34065c-0.56599,0.06359 -1.15589,0.05583 -1.68965,0.2546c-2.49306,0.92842 -5.70564,3.62614 -6.46367,6.26561c-0.38068,1.32553 -0.3819,2.74113 -0.76454,4.0661c0.42547,1.44108 2.17936,1.39601 3.47541,1.70637c1.08064,0.25879 3.37955,1.24223 4.34842,0.03954c0.69516,-0.86291 1.58834,-4.94839 0.83136,-5.9003c-0.22946,-0.28855 -0.72707,-0.12254 -1.09062,-0.18378l-0.78752,0.08548c0,0 -2.01704,-0.07596 -1.94107,-2.093z" fill="url(#color-9)" stroke="none" stroke-width="0.5" stroke-linecap="butt"/><path d="M172.83601,249.95602l-27.66813,16.80043c0,0 -1.7861,-0.28433 -3.00176,-1.95732c-5.00798,-6.89208 -17.09381,-25.73997 -20.32691,-30.64014c-1.48257,-2.24701 -2.07604,-5.90639 -2.07604,-5.90639l27.66812,-16.80043c0,0 3.13556,-0.26905 4.32352,1.3044c5.29547,7.01385 17.59003,27.76839 20.49248,32.16738c1.05037,1.59198 0.58869,5.03208 0.58869,5.03208z" fill="#b7b7b7" stroke="url(#color-10)" stroke-width="2" stroke-linecap="butt"/></g></g><path d="M301.16636,186.93717v-0.54464c0,-6.93675 1.11973,-13.80447 1.08928,-20.69624c0,-5.47744 0.67363,-10.99309 5.42381,-14.68811c0.99129,-0.77109 2.84857,-0.56079 3.35786,-1.70877c0.37804,-0.85212 -1.54256,-1.04847 -2.28799,-1.60828c-2.68486,-2.0163 -6.14925,-5.43416 -6.48228,-8.97774c-0.21448,-2.28215 1.45345,-4.36417 2.47819,-6.41457c2.22408,-4.45018 4.1912,-7.90622 7.36599,-11.87471c0,0 1.70117,-2.12647 3.82762,-0.4253c2.12646,1.70117 0.42529,3.82762 0.42529,3.82762c-3.01311,3.76638 -4.68928,6.79136 -6.7946,11.00008c-0.58223,1.16392 -2.05672,1.87046 -1.87892,3.38892c0.17323,1.47932 1.5519,2.3077 2.48163,3.22512c2.86155,2.82365 7.17606,3.86224 6.17652,9.06363c-0.45356,2.36026 -3.40081,3.42957 -5.35634,4.82688c-3.42043,2.44405 -3.2904,6.73851 -3.2904,10.36523c-0.02588,6.90451 -1.08928,13.75362 -1.08928,20.69624v0.54464c0,0 0,2.72319 -2.72319,2.72319c-2.72319,0 -2.72319,-2.72319 -2.72319,-2.72319z" fill="url(#color-11)" fill-rule="nonzero" stroke="none" stroke-width="0.5" stroke-linecap="butt" stroke-linejoin="miter"/><path d="M314.33472,156.5317c-2.64188,-0.66047 -1.98141,-3.30235 -1.98141,-3.30235l0.93415,-2.13654c0.27006,-0.27007 3.9145,-2.95295 3.30455,-3.85231c-2.07953,-3.06622 -5.19273,-3.70126 -5.61149,-8.09116c-0.13216,-1.3855 0.00683,-2.88499 0.60722,-4.14249c-1.60863,-0.3521 -2.92009,-2.48204 -3.19833,-3.96948c-0.55936,-2.9902 2.29706,-5.45681 3.93722,-7.30055c0,0 1.83181,-2.01499 3.84681,-0.18318c2.015,1.83181 0.18319,3.84681 0.18319,3.84681c-0.85687,0.9157 -2.77484,1.47917 -2.59844,2.72079c0.045,0.31674 0.5979,0.24162 0.86176,0.42255c1.40622,0.96426 3.66677,1.36774 4.13857,3.00623c0.51143,1.77614 -2.67655,3.19475 -2.36292,5.01625c0.5331,3.09619 4.35505,3.78736 5.28126,6.72299c1.5485,4.90796 -1.62066,6.73714 -4.53823,9.65471l0.49845,-0.39369c0,0 -0.66047,2.64189 -3.30235,1.98142z" fill="url(#color-12)" fill-rule="nonzero" stroke="none" stroke-width="0.5" stroke-linecap="butt" stroke-linejoin="miter"/><path d="M309.49673,155.59096c-1.70117,2.12646 -3.82762,0.4253 -3.82762,0.4253l-2.56422,-2.11977c-1.90376,-3.55659 -2.68432,-6.65233 -1.62879,-10.74776c0.31972,-1.24047 2.23282,-2.5112 1.47907,-3.54698c-0.515,-0.70771 -1.72186,-0.79116 -2.09503,-1.58288c-2.63395,-5.58818 -0.04292,-13.46266 4.03487,-17.30648c0,0 2.02414,-1.82173 3.84585,0.20241c1.82172,2.02412 -0.20242,3.84585 -0.20242,3.84585c-2.07981,1.73827 -4.62411,7.76913 -2.93649,10.57898c0.50732,0.84467 1.91542,0.98047 2.26206,1.9028c0.5443,1.44829 0.4322,3.10841 0.19592,4.63744c-0.48694,3.15091 -2.65359,5.24584 -0.78136,8.51756l1.79287,1.36592c0,0 2.12646,1.70117 0.42529,3.82762z" fill="url(#color-13)" fill-rule="nonzero" stroke="none" stroke-width="0.5" stroke-linecap="butt" stroke-linejoin="miter"/><path d="M315.28754,322.21781l-0.9413,-9.6923l1.56884,9.31951" fill="none" fill-rule="nonzero" stroke="none" stroke-width="0.5" stroke-linecap="round" stroke-linejoin="miter"/><path d="M314.03246,314.01665l58.36092,-0.74556l1.88261,10.43786l-62.75367,-0.37278z" fill="#c7c10e" fill-rule="nonzero" stroke="#918d0a" stroke-width="2" stroke-linecap="round" stroke-linejoin="miter"/><path d="M318.11145,314.7622l-0.62753,8.94674" fill="none" fill-rule="nonzero" stroke="#918d0a" stroke-width="2" stroke-linecap="round" stroke-linejoin="miter"/><path d="M325.01436,323.33616v-8.94673" fill="none" fill-rule="nonzero" stroke="#918d0a" stroke-width="2" stroke-linecap="round" stroke-linejoin="miter"/><path d="M331.28974,314.01665l0.9413,9.6923" fill="none" fill-rule="nonzero" stroke="#918d0a" stroke-width="2" stroke-linecap="round" stroke-linejoin="miter"/><path d="M340.38901,321.84505l0.94131,-7.45562" fill="none" fill-rule="nonzero" stroke="#918d0a" stroke-width="2" stroke-linecap="round" stroke-linejoin="miter"/><path d="M347.60569,313.64385v9.6923" fill="none" fill-rule="nonzero" stroke="#918d0a" stroke-width="2" stroke-linecap="round" stroke-linejoin="miter"/><path d="M352.93975,324.08171l-0.31376,-9.6923" fill="none" fill-rule="nonzero" stroke="#918d0a" stroke-width="2" stroke-linecap="round" stroke-linejoin="miter"/><path d="M360.15642,324.08171l-0.31377,-10.06507" fill="none" fill-rule="nonzero" stroke="#918d0a" stroke-width="2" stroke-linecap="round" stroke-linejoin="miter"/><path d="M366.11803,313.64385l0.62753,9.6923" fill="none" fill-rule="nonzero" stroke="#918d0a" stroke-width="2" stroke-linecap="round" stroke-linejoin="miter"/><path d="M280.93363,319.84503l1.56884,-9.31951l-0.9413,9.6923" fill="none" fill-rule="nonzero" stroke="none" stroke-width="0.5" stroke-linecap="round" stroke-linejoin="miter"/><path d="M285.3264,321.33616l-62.75367,0.37278l1.88261,-10.43786l58.36092,0.74556z" fill="#c7c10e" fill-rule="nonzero" stroke="#918d0a" stroke-width="2" stroke-linecap="round" stroke-linejoin="miter"/><path d="M278.73726,312.7622l0.62754,8.94674" fill="none" fill-rule="nonzero" stroke="#918d0a" stroke-width="2" stroke-linecap="round" stroke-linejoin="miter"/><path d="M271.83437,312.38943v8.94673" fill="none" fill-rule="nonzero" stroke="#918d0a" stroke-width="2" stroke-linecap="round" stroke-linejoin="miter"/><path d="M265.559,312.01665l-0.9413,9.6923" fill="none" fill-rule="nonzero" stroke="#918d0a" stroke-width="2" stroke-linecap="round" stroke-linejoin="miter"/><path d="M256.45971,319.84505l-0.9413,-7.45562" fill="none" fill-rule="nonzero" stroke="#918d0a" stroke-width="2" stroke-linecap="round" stroke-linejoin="miter"/><path d="M249.24304,311.64385v9.6923" fill="none" fill-rule="nonzero" stroke="#918d0a" stroke-width="2" stroke-linecap="round" stroke-linejoin="miter"/><path d="M244.22275,312.38943l-0.31376,9.6923" fill="none" fill-rule="nonzero" stroke="#918d0a" stroke-width="2" stroke-linecap="round" stroke-linejoin="miter"/><path d="M237.00606,312.01665l-0.31377,10.06507" fill="none" fill-rule="nonzero" stroke="#918d0a" stroke-width="2" stroke-linecap="round" stroke-linejoin="miter"/><path d="M230.73071,311.64385l-0.62753,9.6923" fill="none" fill-rule="nonzero" stroke="#918d0a" stroke-width="2" stroke-linecap="round" stroke-linejoin="miter"/><path d="M260.02879,278.44585c0.38397,-0.43959 0.86978,-0.80528 1.29515,-1.20713c0.61641,-0.58232 1.43088,-2.68132 1.87506,-3.34759c1.8375,-2.75624 3.41896,-5.34982 4.90809,-8.34923c0.36655,-1.46523 0.84298,-3.16951 1.52565,-4.53542c0.4556,-0.91157 1.72042,-2.19221 1.92507,-3.2904c0.53881,-2.89137 2.07498,-5.20583 3.0109,-8.04208c1.5981,-4.84295 3.6975,-9.79726 5.18512,-14.81914c3.40129,-3.43317 4.57782,-9.3996 6.36552,-13.81076c1.36124,-3.35885 3.68274,-6.76892 5.52079,-9.89033c1.24508,-2.1144 1.76565,-4.8973 3.9437,-6.10237c0,0 0.89443,-0.44722 1.34164,0.44721c0.44722,0.89443 -0.44721,1.34164 -0.44721,1.34164c-1.60341,0.64971 -3.16623,5.41793 -4.10903,7.05268c-2.49741,4.33034 -4.37416,8.73479 -6.46155,13.19196c-1.39047,2.96905 -2.07261,6.44786 -4.42783,8.78033c-0.1719,0.65568 -0.36059,1.30621 -0.56296,1.9524c0.85344,-0.78767 1.69901,-1.56906 2.32363,-2.48422c1.4595,-2.1384 2.65269,-5.02415 4.5668,-7.07766c0.97183,-1.04261 2.46291,-1.96331 3.51662,-3.01702c0,0 0.7071,-0.70711 1.41421,0c0.70711,0.7071 0,1.41421 0,1.41421c-2.53469,2.53469 -5.85008,5.00413 -7.49702,8.30731c-0.24574,0.49286 -0.10819,1.14376 -0.41956,1.59801c-1.23782,1.80585 -4.0467,3.32427 -4.8961,5.33479l-0.5,1c0,0 -0.18796,0.3759 -0.56386,0.51848c-2.00246,4.91177 -4.28465,9.70339 -5.35732,14.76406c-0.58832,2.77558 -2.80151,5.18116 -3.51943,8.05475c-1.54056,3.1477 -3.20172,5.89012 -5.12177,8.7702c-0.62105,0.93158 -1.35112,2.84531 -2.12494,3.65241c-0.41658,0.4345 -1.07842,0.68562 -1.31268,1.24011l-1.39443,0.55279c0,0 -1,0 -1,-1c0,-0.97232 0.9454,-0.99923 0.99774,-0.99998z" fill="url(#color-14)" fill-rule="nonzero" stroke="none" stroke-width="0.5" stroke-linecap="butt" stroke-linejoin="miter"/><path d="M272.03105,290.94585v-0.5c0.03332,-2.15471 1.22603,-3.58196 1.51291,-5.66018c0.4344,-3.14694 1.2244,-6.03591 2.006,-9.03339c0.60218,-2.30935 2.01437,-4.38869 1.98109,-6.80643c0,0 0,-1 1,-1c1,0 1,1 1,1c-0.02812,2.63287 -1.37422,4.69953 -2.01891,7.19357c-0.7759,3.0016 -1.53394,5.84255 -1.994,8.96661c-0.28475,1.93359 -1.52816,3.38942 -1.48709,5.33982v0.5c0,0 0,1 -1,1c-1,0 -1,-1 -1,-1z" fill="url(#color-15)" fill-rule="nonzero" stroke="none" stroke-width="0.5" stroke-linecap="butt" stroke-linejoin="miter"/><path d="M329.53103,297.44588c0,-1 1,-1 1,-1h0.5c0.25675,0.00892 0.5135,0.01783 0.77025,0.02675c0.90654,-0.1255 -0.12436,-1.88135 -0.2457,-2.30826c-0.50317,-1.7703 -0.38639,-3.31352 -0.68215,-5.08131c-1.54873,-9.25683 -4.54014,-18.34429 -7.31836,-27.2948c-1.46276,-4.71255 -2.83159,-9.45954 -4.06323,-14.2419c0.18588,2.942 0.37344,5.88481 0.53679,8.83025c0.30611,3.67114 0.9196,7.3264 1.47565,10.83951c0.09629,0.60834 -0.24259,1.26225 -0.04937,1.84707c0.13982,0.42317 0.78717,0.51657 0.96529,0.9251c0.42606,0.97719 0.17804,2.15379 0.56182,3.14834c1.85178,4.79884 3.04902,9.10672 3.04902,14.30924c0,1.7887 -0.44401,4.26785 0.16127,6.01647c0.28287,0.04827 0.83873,0.23797 0.83873,0.98353c0,1 -1,1 -1,1l-1.39443,-0.55279c-1.05507,-2.21918 -0.60557,-5.0077 -0.60557,-7.44721c0,-5.02599 -1.21734,-9.02693 -2.95098,-13.69076c-0.33508,-0.90144 -0.03648,-1.97786 -0.43818,-2.85166c-0.11613,-0.25261 -0.3763,-0.41138 -0.61083,-0.58464c0,4.04235 0,8.0847 0,12.12705c0,1.40505 0.27312,3.1327 -0.14935,4.47427l0.59656,0.1313c0,0 0.89442,0.44721 0.44721,1.34164c-0.44721,0.89442 -1.34164,0.44721 -1.34164,0.44721l-1.40344,-0.8687c-0.18057,-1.84471 -0.14935,-3.67354 -0.14935,-5.52573c0,-3.83333 0,-7.66667 0,-11.5c0,-0.99794 0.56864,-4.75512 0.07612,-5.61732c-2.02746,-3.54921 -2.07612,-8.13793 -2.07612,-12.38268c0,-7.01525 0,-14.03051 0,-21.04576c-0.16894,-0.92862 -0.33118,-1.85856 -0.48639,-2.78984c0,0 -0.12358,-0.74146 0.48639,-1.04583c0,-0.87286 0,-1.74571 0,-2.61857c0,0 0,-0.62999 0.50003,-0.8899c-0.00002,-0.0367 -0.00003,-0.0734 -0.00003,-0.1101c0,0 0,-1 1,-1c1,0 1,1 1,1c0,3.78571 0.11424,7.56485 0.28804,11.34129c1.75387,8.5822 4.05157,17.0495 6.6461,25.40821c2.80425,9.03437 5.82882,18.21279 7.38105,27.55889c0.16791,1.011 0.05531,2.05187 0.17732,3.06943c0.19963,1.66486 1.81723,3.93879 0.85814,5.64791c-0.30627,0.54578 -1.0806,0.63168 -1.6209,0.94752c-0.40991,0.00892 -0.81983,0.01783 -1.22975,0.02675h-0.5c0,0 -1,0 -1,-1z" fill="url(#color-16)" fill-rule="nonzero" stroke="none" stroke-width="0.5" stroke-linecap="butt" stroke-linejoin="miter"/><path d="M266.53105,284.94585l-1.39443,-1.44721c4.90144,-9.56021 11.02203,-19.12299 14.47478,-29.44625c4.15474,-10.6496 9.98262,-21.39409 16.07165,-31.13654c0,0 0.53,-0.848 1.378,-0.318c0.848,0.53 0.318,1.378 0.318,1.378c-6.00816,9.61306 -11.8176,20.23563 -15.88658,30.75595c-3.37663,10.10534 -9.4211,19.25285 -14.08847,28.68307c0.0773,0.13465 0.12705,0.30794 0.12705,0.53098c0,1 -1,1 -1,1z" fill="url(#color-17)" fill-rule="nonzero" stroke="none" stroke-width="0.5" stroke-linecap="butt" stroke-linejoin="miter"/><path d="M271.28551,187.0032c0,-10.09638 3.72422,-17.22644 9.7941,-21.90042c6.49823,-5.00382 15.68487,-7.19269 25.86844,-7.19269c19.69588,0 33.1599,4.4339 33.1599,25.33917c0,20.90527 -13.46403,50.3655 -33.1599,50.3655c-19.69586,0 -35.66252,-25.70628 -35.66252,-46.61155z" fill="url(#color-18)" fill-rule="nonzero" stroke="none" stroke-width="0" stroke-linecap="butt" stroke-linejoin="miter"/><path d="M305.53337,173.37782c12.11657,0 21.93901,9.50987 21.93901,21.24088c0,11.73101 -9.82244,21.24087 -21.93901,21.24087c-12.11657,0 -21.93901,-9.50986 -21.93901,-21.24087c0,-11.73101 9.82244,-21.24088 21.93901,-21.24088z" fill="url(#color-19)" fill-rule="nonzero" stroke="none" stroke-width="0" stroke-linecap="butt" stroke-linejoin="miter"/><path d="M313.12929,284.97231c0,0 4.41491,-0.40573 5.61773,-0.44686c5.99408,-0.20497 52.54211,-1.4668 52.54211,-1.4668c0,0 8.12302,3.65821 1.32483,7.24383c-0.76096,0.40137 -0.37264,-0.87327 0.1676,0.79735c0.34522,1.06755 0.75248,5.10223 0.96154,5.78908c0.58212,1.91251 -0.11205,8.90113 -1.05021,10.10772c-0.50976,0.65562 -1.34938,-4.44366 -1.17567,-3.80662c0.58279,2.13727 2.42573,2.69385 3.1966,4.9543c0.87125,2.55482 -2.65212,6.80491 -2.65212,6.80491l-55.99262,0.71024c0,0 -1.70179,-0.82045 -1.92089,-2.18417c-0.95812,-5.96335 -1.99497,-22.31524 -2.3365,-25.88035c-0.12828,-1.33907 1.3176,-2.62263 1.3176,-2.62263z" fill="url(#color-20)" fill-rule="nonzero" stroke="none" stroke-width="0" stroke-linecap="butt" stroke-linejoin="miter"/><path d="M322.37911,240.03069c8.28427,0 15,6.71573 15,15c0,8.28427 -6.71573,15 -15,15c-8.28427,0 -15,-6.71573 -15,-15c0,-8.28427 6.71573,-15 15,-15z" fill="url(#color-21)" fill-rule="nonzero" stroke="none" stroke-width="0" stroke-linecap="butt" stroke-linejoin="miter"/><path d="M322.05422,254.94382c1.02917,-0.10484 1.13401,0.92432 1.13401,0.92432l-0.01796,0.4056c0.04322,0.18394 -0.02542,0.44388 0.12968,0.5518c0.51163,0.35602 2.57201,-0.23448 2.9906,-0.61826c0.58344,-0.5349 0.00521,-1.67854 -0.1625,-2.22278c-0.20115,-0.65272 -0.23548,-1.55125 -0.98646,-1.72172c-0.66516,0.23906 -1.38915,0.286 -2.05466,0.52407c-1.3252,0.47406 -2.59987,2.20545 -2.99316,3.51094c-0.0842,0.27951 -0.06094,0.58095 -0.07494,0.87253c-0.03428,0.71363 -0.25325,1.4618 -0.03786,2.143c0.2657,0.84031 2.44026,1.38758 3.10967,1.61527c0.41597,0.14148 1.20571,0.56042 1.72968,0.33777c1.45919,-0.62007 2.91828,-2.4192 4.13037,-3.43923c1.15162,-1.41053 2.94902,-4.27897 2.73931,-6.23349c-0.05095,-0.47482 -0.51613,-1.32224 -0.69877,-1.727c-0.50017,-1.10846 -0.87867,-2.27785 -1.57667,-3.28517c-0.804,-1.16028 -2.85049,-1.98307 -4.13979,-2.53857c-0.04842,-0.02086 -1.75388,-0.68054 -2.05526,-0.63928c-0.38804,0.05312 -0.91618,0.85644 -1.08151,1.06667c-2.06767,2.71136 -4.04108,5.55 -5.12965,8.82033c-0.30464,0.91522 -1.21949,2.19172 -1.14179,3.18621c0.07499,0.95983 0.7218,2.4433 1.05255,3.33049c0.28619,0.76766 0.35158,1.60161 0.57983,2.38844c0.13491,0.46506 1.39463,0.94679 1.53317,1.01744c0,0 0.91448,0.48364 0.43084,1.39811c-0.48364,0.91448 -1.39812,0.43084 -1.39812,0.43084c-1.04685,-0.56895 -1.95388,-0.82686 -2.46939,-2.0356c-0.21242,-0.49808 -0.06632,-1.08688 -0.19615,-1.61257c-0.37772,-1.52942 -1.53212,-3.15286 -1.59705,-4.77843c-0.06619,-1.65729 0.31349,-1.54679 0.87585,-2.86411c0.3294,-0.77163 0.46561,-1.61653 0.79494,-2.3882c1.27571,-2.98922 3.08647,-5.61308 5.04037,-8.1741c0.67182,-0.80425 1.13745,-1.58979 2.3162,-1.81742c0.57648,-0.11132 1.17511,0.09386 1.74638,0.2294c2.05755,0.48815 5.2739,2.06844 6.51784,3.77172c1.05896,1.44998 2.47572,4.19932 2.65555,6.02151c0.25958,2.63035 -1.75172,5.9534 -3.32117,7.88111c-1.38285,1.18236 -3.19354,3.34129 -4.92314,3.9433c-0.53164,0.18505 -1.12517,0.1738 -1.68492,0.11412c-1.7241,-0.18381 -5.04778,-1.52314 -5.7614,-3.25427c-0.41545,-1.00781 -0.25109,-3.3428 0.05617,-4.38476c0.57341,-1.94454 2.32403,-4.10347 4.23141,-4.83887c0.89029,-0.34325 1.86516,-0.4079 2.78509,-0.66115c0.54963,0.17224 1.18862,0.17044 1.6489,0.51671c1.63103,1.22704 2.45387,5.4002 1.01462,6.91715c-1.1324,1.19353 -4.31859,1.78025 -5.74274,0.84827c-0.42373,-0.2773 -0.50208,-0.8796 -0.75312,-1.3194l-0.16917,-1.07869c0,0 -0.10485,-1.02916 0.92431,-1.13401z" fill="url(#color-22)" fill-rule="nonzero" stroke="none" stroke-width="0.5" stroke-linecap="butt" stroke-linejoin="miter"/><path d="M285.03704,285.59496c-0.34153,3.56511 -1.37839,19.917 -2.3365,25.88035c-0.2191,1.36373 -1.92089,2.18417 -1.92089,2.18417l-55.99262,-0.71024c0,0 -3.52337,-4.25009 -2.65212,-6.80491c0.77086,-2.26045 2.61381,-2.81703 3.1966,-4.9543c0.17371,-0.63704 -0.66592,4.46224 -1.17568,3.80662c-0.93816,-1.20658 -1.63233,-8.19521 -1.05021,-10.10772c0.20906,-0.68685 0.61632,-4.72154 0.96154,-5.78908c0.54025,-1.67062 0.92856,-0.39599 0.1676,-0.79735c-6.79819,-3.58562 1.32483,-7.24383 1.32483,-7.24383c0,0 46.54802,1.26183 52.54211,1.4668c1.20282,0.04113 5.61774,0.44686 5.61774,0.44686c0,0 1.44588,1.28356 1.3176,2.62263z" fill="url(#color-23)" fill-rule="nonzero" stroke="none" stroke-width="0" stroke-linecap="butt" stroke-linejoin="miter"/><path d="M294.7743,242.40964c0,0 -1.42041,0.37739 -2.58336,-0.02058c-2.74062,-0.93786 -14.21092,-4.51961 -19.09331,-6.42334c-1.40923,-0.54949 -2.02715,-1.66773 -2.02715,-1.66773c0,0 0.58865,-5.08445 1.17365,-6.79394c0.3628,-1.06017 2.00048,-2.48148 2.00048,-2.48148l24.13095,8.54564c0,0 -0.17237,1.86464 -0.62456,2.9748c-0.66448,1.63138 -2.9767,5.86662 -2.9767,5.86662z" fill="url(#color-24)" fill-rule="nonzero" stroke="none" stroke-width="0" stroke-linecap="butt" stroke-linejoin="miter"/><path d="M330.44245,235.02658c0,0 -0.88245,1.17528 -2.04232,1.58212c-2.73337,0.95877 -13.96085,5.24135 -18.97445,6.76639c-1.44711,0.44018 -2.62441,-0.05606 -2.62441,-0.05606c0,0 -2.68323,-4.35873 -3.28127,-6.06369c-0.37089,-1.05738 0.03639,-3.18721 0.03639,-3.18721l24.24524,-8.21577c0,0 1.01821,1.57157 1.3498,2.72352c0.48727,1.69278 1.291,6.45068 1.291,6.45068z" fill="url(#color-25)" fill-rule="nonzero" stroke="none" stroke-width="0" stroke-linecap="butt" stroke-linejoin="miter"/><path d="M292.71245,255.36402c0,8.28427 -6.71573,15 -15,15c-8.28427,0 -15,-6.71573 -15,-15c0,-8.28427 6.71573,-15 15,-15c8.28427,0 15,6.71573 15,15z" data-paper-data="{&quot;index&quot;:null}" fill="url(#color-26)" fill-rule="nonzero" stroke="none" stroke-width="0" stroke-linecap="butt" stroke-linejoin="miter"/><path d="M275.7209,256.94383c1.02916,-0.10484 1.13401,0.92432 1.13401,0.92432l-0.01796,0.4056c0.04322,0.18394 -0.02541,0.44388 0.12968,0.5518c0.51164,0.35602 2.572,-0.23448 2.9906,-0.61826c0.58344,-0.5349 0.00521,-1.67854 -0.1625,-2.22278c-0.20115,-0.65273 -0.23547,-1.55127 -0.98646,-1.72173c-0.66516,0.23906 -1.38915,0.28601 -2.05466,0.52408c-1.3252,0.47406 -2.59988,2.20545 -2.99316,3.51094c-0.0842,0.27951 -0.06094,0.58095 -0.07494,0.87253c-0.03428,0.71363 -0.25325,1.4618 -0.03786,2.143c0.2657,0.84031 2.44026,1.38758 3.10967,1.61527c0.41596,0.14148 1.2057,0.56042 1.72967,0.33777c1.45918,-0.62007 2.91828,-2.4192 4.13037,-3.43923c1.15163,-1.41053 2.94902,-4.27897 2.73931,-6.23349c-0.05095,-0.47482 -0.51613,-1.32224 -0.69877,-1.727c-0.50017,-1.10846 -0.87867,-2.27785 -1.57667,-3.28517c-0.804,-1.16028 -2.85049,-1.98307 -4.13979,-2.53857c-0.04843,-0.02086 -1.75389,-0.68054 -2.05527,-0.63928c-0.38804,0.05312 -0.91618,0.85644 -1.08151,1.06667c-2.06768,2.71136 -4.0411,5.55 -5.12966,8.82033c-0.30465,0.91522 -1.21949,2.19172 -1.14179,3.18621c0.07498,0.95983 0.72178,2.4433 1.05254,3.33049c0.2862,0.76766 0.3516,1.60161 0.57984,2.38844c0.1349,0.46506 1.39463,0.94679 1.53317,1.01744c0,0 0.91448,0.48364 0.43084,1.39811c-0.48364,0.91448 -1.39811,0.43084 -1.39811,0.43084c-1.04685,-0.56895 -1.95389,-0.82686 -2.46939,-2.0356c-0.21242,-0.49808 -0.06632,-1.08688 -0.19615,-1.61257c-0.37772,-1.52942 -1.53212,-3.15286 -1.59705,-4.77843c-0.0662,-1.65729 0.31349,-1.54679 0.87585,-2.86411c0.32941,-0.77163 0.46561,-1.61653 0.79494,-2.3882c1.27571,-2.98922 3.08647,-5.61308 5.04037,-8.1741c0.67182,-0.80425 1.13745,-1.58979 2.3162,-1.81742c0.57648,-0.11132 1.17511,0.09386 1.74638,0.2294c2.05755,0.48815 5.2739,2.06844 6.51784,3.77172c1.05895,1.44998 2.47571,4.19932 2.65554,6.02151c0.25958,2.63034 -1.75172,5.9534 -3.32117,7.88111c-1.38285,1.18236 -3.19355,3.34129 -4.92314,3.9433c-0.53164,0.18505 -1.12517,0.1738 -1.68492,0.11412c-1.7241,-0.18381 -5.04778,-1.52314 -5.7614,-3.25427c-0.41545,-1.00781 -0.25109,-3.3428 0.05617,-4.38476c0.57341,-1.94454 2.32403,-4.10347 4.23141,-4.83887c0.89029,-0.34325 1.86515,-0.4079 2.78509,-0.66115c0.54964,0.17224 1.18863,0.17044 1.64891,0.51671c1.63103,1.22704 2.45387,5.4002 1.01462,6.91715c-1.1324,1.19353 -4.31859,1.78025 -5.74274,0.84827c-0.42373,-0.2773 -0.50208,-0.8796 -0.75312,-1.3194l-0.16917,-1.07869c0,0 -0.10485,-1.02916 0.92431,-1.13401z" fill="url(#color-27)" fill-rule="nonzero" stroke="none" stroke-width="0.5" stroke-linecap="butt" stroke-linejoin="miter"/><path d="M337.1642,282.88082c0,0 -1.29145,0.70155 -2.51543,0.58889c-2.88445,-0.26548 -14.87581,-1.0428 -20.06935,-1.74213c-1.49905,-0.20186 -2.36311,-1.14295 -2.36311,-1.14295c0,0 -0.62632,-5.07996 -0.46073,-6.87916c0.1027,-1.11581 1.35924,-2.88306 1.35924,-2.88306l25.46528,2.61727c0,0 0.27198,1.85274 0.09419,3.03821c-0.26125,1.74203 -1.51008,6.40293 -1.51008,6.40293z" fill="url(#color-28)" fill-rule="nonzero" stroke="none" stroke-width="0" stroke-linecap="butt" stroke-linejoin="miter"/><path d="M283.39536,280.03584c0,0 -1.22172,0.81696 -2.45087,0.81696c-2.89665,0 -14.90877,0.32499 -20.14454,0.1046c-1.51124,-0.06362 -2.45793,-0.92156 -2.45793,-0.92156c0,0 -1.08928,-5.00117 -1.08928,-6.80798c0,-1.12053 1.08928,-2.99551 1.08928,-2.99551l25.59798,0.27231c0,0 0.44064,1.82001 0.37225,3.01678c-0.1005,1.75865 -0.91689,6.51439 -0.91689,6.51439z" fill="url(#color-29)" fill-rule="nonzero" stroke="none" stroke-width="0" stroke-linecap="butt" stroke-linejoin="miter"/><path d="M320.22869,159.95252c0,0 -1.22172,0.81696 -2.45088,0.81696c-2.89665,0 -14.90876,0.32498 -20.14454,0.10459c-1.51123,-0.06362 -2.45793,-0.92156 -2.45793,-0.92156c0,0 -1.08928,-5.00117 -1.08928,-6.80798c0,-1.12053 1.08928,-2.99551 1.08928,-2.99551l25.59798,0.27231c0,0 0.44064,1.82001 0.37225,3.01678c-0.10049,1.75865 -0.91688,6.51439 -0.91688,6.51439z" fill="url(#color-30)" fill-rule="nonzero" stroke="none" stroke-width="0" stroke-linecap="butt" stroke-linejoin="miter"/><path d="M318.59477,146.88118c-2.89665,0 -14.90877,0.32499 -20.14455,0.1046c-1.51123,-0.06362 -2.45792,-0.92156 -2.45792,-0.92156c0,0 -1.08928,-5.00116 -1.08928,-6.80797c0,-1.12053 1.08928,-2.99551 1.08928,-2.99551l25.59798,0.27231c0,0 0.44064,1.82001 0.37225,3.01678c-0.10049,1.75865 -0.91689,6.51439 -0.91689,6.51439c0,0 -1.22171,0.81696 -2.45087,0.81696z" fill="url(#color-31)" fill-rule="nonzero" stroke="none" stroke-width="0" stroke-linecap="butt" stroke-linejoin="miter"/><path d="M321.86258,132.44828c0,0 -1.22171,0.81696 -2.45087,0.81696c-2.89664,0 -14.90876,0.32498 -20.14454,0.10459c-1.51123,-0.06362 -2.45792,-0.92155 -2.45792,-0.92155c0,0 -1.08928,-5.00117 -1.08928,-6.80798c0,-1.12053 1.08928,-2.99551 1.08928,-2.99551l25.59798,0.27232c0,0 0.44064,1.82001 0.37225,3.01678c-0.10049,1.75865 -0.91689,6.51439 -0.91689,6.51439z" fill="url(#color-32)" fill-rule="nonzero" stroke="none" stroke-width="0" stroke-linecap="butt" stroke-linejoin="miter"/><path d="M312.27321,50.9033c1.51031,0.1172 3.02011,0.22838 4.52977,0.33583c-0.16474,0.67053 -0.26781,1.36653 -0.3026,2.08203c-0.29214,6.00881 4.34213,11.11673 10.35094,11.40888c6.00881,0.29214 11.11674,-4.34214 11.40888,-10.35094c0.02668,-0.54882 0.01228,-1.09012 -0.04054,-1.62093c1.6669,0.13668 3.33525,0.28213 5.00543,0.43949c-0.0009,0.01982 -0.00185,0.03966 -0.00282,0.05949c-0.47473,9.76429 -7.80089,17.34235 -16.36344,16.92605c-8.56255,-0.41631 -15.11902,-8.6693 -14.64429,-18.43362c0.01381,-0.28398 0.0334,-0.56614 0.05866,-0.84628z" fill="url(#color-33)" fill-rule="nonzero" stroke="none" stroke-width="0" stroke-linecap="butt" stroke-linejoin="miter"/><path d="M271.95887,49.79239c0.01381,-0.28398 0.0334,-0.56614 0.05866,-0.84628c1.51031,0.1172 3.02012,0.22839 4.52977,0.33583c-0.16474,0.67053 -0.2678,1.36653 -0.30259,2.08202c-0.29214,6.00881 4.34212,11.11673 10.35093,11.40888c6.0088,0.29214 11.11674,-4.34214 11.40888,-10.35094c0.02668,-0.54882 0.01228,-1.09012 -0.04054,-1.62093c1.6669,0.13668 3.33524,0.28214 5.00543,0.43949c-0.00089,0.01982 -0.00184,0.03965 -0.00281,0.05949c-0.47473,9.76429 -7.80089,17.34235 -16.36344,16.92605c-8.56255,-0.41631 -15.11902,-8.6693 -14.64429,-18.43362z" fill="url(#color-34)" fill-rule="nonzero" stroke="none" stroke-width="0" stroke-linecap="butt" stroke-linejoin="miter"/><path d="M315.41463,48.60918c3.34029,0.16895 6.69305,0.15557 9.9875,0.29664c4.77568,0.2045 9.54642,0.56614 14.31989,0.8266c-0.00001,0.00034 -0.00003,0.0007 -0.00005,0.00104c-0.43359,8.91808 -6.22586,15.88307 -12.93739,15.55676c-6.69714,-0.32561 -11.77898,-7.78824 -11.36994,-16.68104z" fill="url(#color-35)" fill-rule="nonzero" stroke="none" stroke-width="0" stroke-linecap="butt" stroke-linejoin="miter"/><path d="M275.26761,44.80396c5.52526,-0.01346 11.19182,0.0732 17.56934,0.5162c2.2098,0.1535 4.42587,0.48834 6.64051,0.88697c0.00335,0.40811 -0.00488,0.81988 -0.02505,1.23473c-0.43359,8.91808 -6.22586,15.88307 -12.93739,15.55676c-6.71154,-0.32631 -11.80082,-7.82036 -11.36723,-16.73843c0.02391,-0.49164 0.06408,-0.97735 0.11983,-1.45624z" fill="url(#color-36)" fill-rule="nonzero" stroke="none" stroke-width="0" stroke-linecap="butt" stroke-linejoin="miter"/><path d="M327.81671,51.3559c3.43704,0.17348 6.87202,0.41099 10.30783,0.61618c0.26032,1.08949 0.37619,2.28758 0.31533,3.53927c-0.23244,4.78083 -2.95494,8.53324 -6.08085,8.38126c-3.12593,-0.15198 -5.47156,-4.1508 -5.23912,-8.93163c0.06303,-1.29643 0.30918,-2.51724 0.69681,-3.60507z" fill="url(#color-37)" fill-rule="nonzero" stroke="none" stroke-width="0" stroke-linecap="butt" stroke-linejoin="miter"/><path d="M286.81534,48.33823c2.20721,0.07937 4.48358,0.19492 6.85855,0.3599c1.00364,0.06972 2.00857,0.17683 3.01408,0.31035c0.37671,1.24855 0.55622,2.66737 0.48351,4.16271c-0.23244,4.78083 -2.95492,8.53324 -6.08084,8.38126c-3.12592,-0.15198 -5.47156,-4.1508 -5.23912,-8.93163c0.07648,-1.57301 0.42252,-3.03469 0.96381,-4.2826z" fill="url(#color-38)" fill-rule="nonzero" stroke="none" stroke-width="0" stroke-linecap="butt" stroke-linejoin="miter"/><path d="M245.97152,79.60989c0.88373,-18.17664 50.2606,-18.5497 67.3857,-17.71709c17.1251,0.83261 59.47833,-0.87789 58.5946,17.29876c-0.88373,18.17665 -44.66976,49.35727 -61.79486,48.52466c-17.1251,-0.83261 -65.06915,-29.92969 -64.18542,-48.10634z" data-paper-data="{&quot;index&quot;:null}" fill="url(#color-39)" fill-rule="nonzero" stroke="none" stroke-width="0" stroke-linecap="butt" stroke-linejoin="miter"/><g fill-rule="nonzero" stroke="none" stroke-width="0" stroke-linecap="butt" stroke-linejoin="miter"><path d="M270.71996,50.92683c1.51388,-0.05402 3.02659,-0.11396 4.53872,-0.17759c-0.08801,0.68483 -0.11186,1.38802 -0.06567,2.10287c0.38793,6.00339 5.56911,10.55561 11.5725,10.16769c6.00339,-0.38793 10.55562,-5.56912 10.16769,-11.5725c-0.03543,-0.54832 -0.11085,-1.08454 -0.22323,-1.606c1.67167,-0.05233 3.34579,-0.09611 5.02304,-0.12827c0.00134,0.0198 0.00264,0.03961 0.00392,0.05943c0.63038,9.75548 -5.79364,18.11201 -14.34846,18.66482c-8.55482,0.5528 -16.0009,-6.90744 -16.63129,-16.66295c-0.01833,-0.28373 -0.03071,-0.56629 -0.03723,-0.84749z" fill="url(#color-40)"/><path d="M298.2611,48.91829c0,7.73199 -5.4472,14 -12.16666,14c-6.71946,0 -12.16667,-6.26801 -12.16667,-14c0,-7.73199 5.44721,-14 12.16667,-14c6.71946,0 12.16666,6.26801 12.16666,14z" fill="url(#color-41)"/></g><g fill-rule="nonzero" stroke="none" stroke-width="0" stroke-linecap="butt" stroke-linejoin="miter"><path d="M312.21996,52.42683c1.51388,-0.05402 3.02659,-0.11396 4.53872,-0.17759c-0.08801,0.68483 -0.11186,1.38802 -0.06567,2.10287c0.38793,6.00339 5.56911,10.55561 11.5725,10.16769c6.00339,-0.38793 10.55562,-5.56912 10.16769,-11.5725c-0.03543,-0.54832 -0.11085,-1.08454 -0.22323,-1.606c1.67167,-0.05233 3.34579,-0.09611 5.02304,-0.12827c0.00134,0.0198 0.00264,0.03961 0.00392,0.05943c0.63038,9.75548 -5.79364,18.11201 -14.34846,18.66482c-8.55482,0.5528 -16.0009,-6.90744 -16.63129,-16.66295c-0.01833,-0.28373 -0.03071,-0.56629 -0.03723,-0.84749z" fill="url(#color-42)"/><path d="M339.7611,50.41829c0,7.73199 -5.4472,14 -12.16666,14c-6.71946,0 -12.16667,-6.26801 -12.16667,-14c0,-7.73199 5.44721,-14 12.16667,-14c6.71946,0 12.16666,6.26801 12.16666,14z" fill="url(#color-43)"/></g><path d="M282.42241,94.92241l-0.38867,-1.62959c-0.35933,-2.91488 -0.35264,-5.70833 -0.35264,-8.64342v0c0,-0.86824 0.30154,-1.43495 0.69517,-1.80484c0.73978,-0.69517 1.80483,-0.69516 1.80483,-0.69516h2.33334c0.96652,0.01264 1.93305,0.02527 2.89957,0.03791c1.93698,-0.72386 3.67731,-1.93502 5.64318,-2.57629c1.05229,-0.34325 5.32886,-0.59518 6.39433,-0.76336c2.9861,-0.47134 5.57135,-0.51188 8.57423,-0.69343c2.83321,-0.1713 5.49352,-1.15091 8.33334,-1.33334c2.80094,-0.17992 5.73516,0.35005 8.51655,0.0139c3.02536,-0.36563 8.02469,-2.09792 10.5889,0.91695c0.98638,1.15973 0.58012,3.01475 0.53116,4.53645c-0.13751,4.27417 -3.2401,9.15348 -5.84644,12.23608c-2.98467,4.1767 -6.90958,8.36484 -11.25196,11.20784c-1.86086,1.21832 -4.15511,1.59311 -6.2668,2.2916c-1.12446,0.37194 -2.10351,1.16668 -3.26375,1.40457c-7.83595,1.60662 -17.20022,-2.31735 -22.89492,-7.62116c-1.54167,-1.43585 -2.76183,-3.19543 -3.93603,-4.97455c-1.66553,-0.11872 -2.11339,-1.91016 -2.11339,-1.91016z" fill="url(#color-44)" fill-rule="nonzero" stroke="none" stroke-width="0.5" stroke-linecap="butt" stroke-linejoin="miter"/><text transform="translate(108,47.90918) scale(1.17151,1.17151)" font-size="40" xml:space="preserve" fill="#000000" fill-rule="nonzero" stroke="none" stroke-width="1" stroke-linecap="butt" stroke-linejoin="miter" stroke-miterlimit="10" stroke-dasharray="" stroke-dashoffset="0" font-family="Handwriting" font-weight="normal" text-anchor="start" style="mix-blend-mode: normal"><tspan x="0" dy="0">BFF's!</tspan></text><g><path d="M142.00003,368.50005v-316h144v316z" fill="none" fill-rule="nonzero" stroke="none" stroke-width="0" stroke-linecap="butt" stroke-linejoin="miter"/><path d="M152.40912,314.61253v-267.22501h123.18203v267.22501z" fill-opacity="0.01" fill="#000000" fill-rule="nonzero" stroke="none" stroke-width="0" stroke-linecap="butt" stroke-linejoin="miter"/><path d="M206.04361,361.79711c0,0 -4.67938,-21.11975 1.4357,-46.3743c3.6733,-15.17028 18.69854,-35.02836 20.03884,-43.72523c2.35721,-15.29534 -2.13056,-43.75197 -2.13056,-43.75197l5.92999,0.91389c0,0 4.6573,30.36412 2.66854,43.26865c-1.51969,9.86086 -16.48135,27.03455 -20.87867,44.52962c-5.81091,23.11915 -1.13385,46.05324 -1.13385,46.05324z" fill="#000000" fill-rule="nonzero" stroke="#000000" stroke-width="2" stroke-linecap="butt" stroke-linejoin="miter"/><path d="M268.00005,356.50019h-11.66667v-130.33333h11.66667z" fill="#653600" fill-rule="nonzero" stroke="#000000" stroke-width="2" stroke-linecap="butt" stroke-linejoin="miter"/><path d="M173.00009,355.83353h-11.66666v-130.33333h11.66666z" fill="#653600" fill-rule="nonzero" stroke="#000000" stroke-width="2" stroke-linecap="butt" stroke-linejoin="miter"/><path d="M148.83344,236.66683v-19.33333h130.33333v19.33333z" fill="#804400" fill-rule="nonzero" stroke="#000000" stroke-width="2" stroke-linecap="butt" stroke-linejoin="miter"/><path d="M206.90008,211.65015v-32.75h14.2v32.75z" fill="#a1a5a6" fill-rule="nonzero" stroke="#000000" stroke-width="2" stroke-linecap="butt" stroke-linejoin="miter"/><path d="M178.50009,220.2002l5.73764,-11.4h61.26981l5.94255,11.4z" fill="#babebf" fill-rule="nonzero" stroke="#000000" stroke-width="2" stroke-linecap="butt" stroke-linejoin="miter"/><path d="M187.29809,120.06246h53.404c8.92534,0 16.1107,7.18538 16.1107,16.1107v45.654c0,8.92532 -7.18535,16.1107 -16.1107,16.1107h-53.404c-8.92532,0 -16.1107,-7.18538 -16.1107,-16.1107v-45.654c0,-8.92532 7.18538,-16.1107 16.1107,-16.1107z" fill="#babebf" fill-rule="evenodd" stroke="#000000" stroke-width="2" stroke-linecap="round" stroke-linejoin="round"/><path d="M192.2877,127.33837h43.4249c7.25755,0 13.10025,5.84271 13.10025,13.10025v37.12307c0,7.25753 -5.8427,13.10025 -13.10025,13.10025h-43.4249c-7.25753,0 -13.10025,-5.84271 -13.10025,-13.10025v-37.12307c0,-7.25753 5.84271,-13.10025 13.10025,-13.10025z" fill="#000000" fill-rule="evenodd" stroke="#000000" stroke-width="2" stroke-linecap="round" stroke-linejoin="round"/><g fill-rule="nonzero" stroke="#000000" stroke-width="2" stroke-linecap="butt" stroke-linejoin="miter"><path d="M214.67371,87.66419v-17.41667h5.25v17.41667z" fill="#fc0000"/><path d="M182.92371,119.09937c0,-14.77362 5.16976,-34.19218 33.875,-33.75c32.45864,0.5 33.875,18.97638 33.875,33.75c0,1.19809 -16.68356,5.25 -33.875,5.25c-17.13342,0 -33.875,-4.0061 -33.875,-5.25z" fill="#fce600"/><path d="M231.17368,103.84937c-3.11253,-16.2123 -16.09168,-18.52644 -14.375,-18.5c32.45864,0.5 33.875,18.97638 33.875,33.75c0,0.78948 -7.2443,2.81815 -17.10457,4.11006c0,0 -1.06283,-12.41891 -2.39543,-19.36006z" fill="#0b00ff"/><path d="M182.92371,119.09937c0,-14.77362 5.16976,-34.19218 33.875,-33.75c2.07952,0.03203 -11.936,5.5649 -13.375,20.5c-0.8378,8.69544 0.125,17.25 0.125,17.25c0,0 -20.625,-2.7561 -20.625,-4z" fill="#fc0000"/><path d="M157.9237,132.84938c0,0 10.83601,-8.1292 15.77482,-10.85247c3.21888,-1.7749 10.97518,-3.89753 10.97518,-3.89753c0,0 16.66216,-4.25 24.75,-4.25c9.94299,0 29.25,7.5 29.25,7.5c0,0 -7.79685,2.09852 -11.37552,3.77502c-5.11253,2.39505 -16.37448,9.22498 -16.37448,9.22498c0,0 -14.87504,-4.75 -23.75,-4.75c-9.49924,0 -29.25,3.25 -29.25,3.25z" fill="#00ff15"/><path d="M196.14059,79.6873c0,0 -0.75862,-1.98771 -0.75862,-3c0,-0.84695 0.75862,-2.66666 0.75862,-2.66666l21.11495,3.33334l21.49425,-3.33334c0,0 0.63218,1.91828 0.63218,2.83334c0,0.97056 -0.63218,2.83333 -0.63218,2.83333l-21.49425,-2.16666z" fill="#0b00ff"/></g><text transform="translate(197.84105,179.86828) scale(0.32929,0.32929)" font-size="40" xml:space="preserve" fill="#ffffff" fill-rule="nonzero" stroke="none" stroke-width="1" stroke-linecap="butt" stroke-linejoin="miter" stroke-miterlimit="10" stroke-dasharray="" stroke-dashoffset="0" font-family="Sans Serif" font-weight="normal" text-anchor="start" style="mix-blend-mode: normal"><tspan x="0" dy="0">time</tspan></text><g fill-rule="nonzero" stroke-width="3" stroke-linecap="butt" stroke-linejoin="miter" font-family="Handwriting" font-weight="normal" font-size="40" text-anchor="start"><text transform="translate(182.76467,163.45365) scale(0.7253,0.7253)" font-size="40" xml:space="preserve" fill="#ff0000" fill-rule="nonzero" stroke="#ff0000" stroke-width="3" stroke-linecap="butt" stroke-linejoin="miter" stroke-miterlimit="10" stroke-dasharray="" stroke-dashoffset="0" font-family="Handwriting" font-weight="normal" text-anchor="start" style="mix-blend-mode: normal"><tspan x="0" dy="0">F</tspan></text><text transform="translate(201.61783,163.45365) scale(0.7253,0.7253)" font-size="40" xml:space="preserve" fill="#ff6f00" fill-rule="nonzero" stroke="#ff6f00" stroke-width="3" stroke-linecap="butt" stroke-linejoin="miter" stroke-miterlimit="10" stroke-dasharray="" stroke-dashoffset="0" font-family="Handwriting" font-weight="normal" text-anchor="start" style="mix-blend-mode: normal"><tspan x="0" dy="0">U</tspan></text><text transform="translate(222.57694,163.45365) scale(0.7253,0.7253)" font-size="40" xml:space="preserve" fill="#ffe900" fill-rule="nonzero" stroke="#ffe900" stroke-width="3" stroke-linecap="butt" stroke-linejoin="miter" stroke-miterlimit="10" stroke-dasharray="" stroke-dashoffset="0" font-family="Handwriting" font-weight="normal" text-anchor="start" style="mix-blend-mode: normal"><tspan x="0" dy="0">N</tspan></text></g></g><g data-paper-data="{&quot;index&quot;:null}" fill-rule="nonzero" stroke-linejoin="miter"><path d="M291.53305,194.4894c0,0 -2.17035,1.2408 -3.41115,-0.92955c-1.2408,-2.17035 0.92955,-3.41115 0.92955,-3.41115l0.86814,-0.49632c2.67443,-1.52898 5.74054,-3.11385 8.0452,-5.12345c0.5172,-0.45099 1.0309,-0.93853 1.5483,-1.44256c-2.12061,-0.19445 -3.98152,1.82115 -5.74644,2.629c-0.25379,0.11617 -5.81459,2.15188 -6.08168,2.24993c-1.12106,0.2267 -2.24212,0.45338 -3.36319,0.68008l-2.73924,0.38389c0,0 -2.47594,0.34601 -2.82194,-2.12993c-0.34601,-2.47594 2.12993,-2.82194 2.12993,-2.82194l2.59409,-0.36143c0.9461,-0.18719 1.89219,-0.37436 2.83829,-0.56155c4.09275,-1.52604 9.1572,-5.26159 13.55246,-5.05353c0.11982,0.00568 2.23073,0.55808 3.94516,1.01854c1.56282,-1.20089 3.28658,-2.14313 5.30714,-2.44809c0.7231,-0.10914 1.4136,0.09888 2.09567,0.41333c0.09963,-0.89596 0.13268,-1.92219 0.55637,-3.19315c0.95122,-2.85336 1.55669,-4.73511 3.08704,-6.10188c-2.4265,0.45623 -5.30668,1.62454 -7.37115,2.59216c-4.23732,1.98606 -8.84396,4.56825 -12.69035,7.25255c-3.58286,2.50039 -6.71174,4.21431 -11.28105,3.43174l-1.42035,0.9598c0,0 -2.17035,1.2408 -3.41115,-0.92955c-1.2408,-2.17035 0.92955,-3.41115 0.92955,-3.41115l2.92035,-1.5218c8.58042,0.78246 15.30758,-6.81739 22.78535,-10.28728c2.83805,-1.31694 6.93272,-2.89303 10.07693,-3.21369c4.67357,-0.47663 9.9443,0.87768 14.68776,0.97763c0,0 2.29602,0.04838 2.44048,2.25301c0.6136,-0.24972 2.1715,-0.66111 3.1506,1.05149c1.12426,1.96651 -0.55195,3.16987 -0.87674,3.37857c0.61474,0.05712 1.29178,0.36966 1.80796,1.27254c1.2408,2.17035 -0.92955,3.41115 -0.92955,3.41115c-4.09871,2.33077 -8.55063,4.35721 -12.89772,6.20371c-1.96786,0.83589 -5.72268,2.39862 -7.84606,2.37809c-0.51774,-0.005 -1.02862,-0.08258 -1.53388,-0.20195c-0.48733,0.47452 -1.02232,0.8944 -1.5967,1.2376c-2.4849,1.48474 -4.6507,0.99775 -6.81986,0.1886c-1.27796,1.07533 -2.20641,2.14875 -3.76869,3.50917c-2.55168,2.222 -5.87417,3.98619 -8.82128,5.67107l-0.86814,0.49632zM320.8465,176.60272c2.85562,-1.21702 5.77508,-2.5027 8.59052,-3.91738c-0.55089,0.08201 -1.15455,0.11875 -1.83718,0.10109c-3.64411,-0.09431 -3.8728,-3.2671 -7.63338,-2.09856c-3.46257,1.07594 -3.2798,4.65352 -3.84614,7.68881c1.60855,-0.45433 4.08695,-1.50153 4.72618,-1.77395z" fill="url(#color-45)" stroke="none" stroke-width="0.5" stroke-linecap="butt"/><path d="M277.67785,173.87058c0,0 3.50224,-3.31933 4.90917,-4.37927c0.95742,-0.72131 2.71581,-1.36525 2.71581,-1.36525l14.43802,21.13939c0,0 -0.95473,1.94694 -1.88671,2.56904c-1.50278,1.00312 -6.26714,2.87368 -6.26714,2.87368c0,0 -1.23916,-0.31108 -2.13108,-1.5327c-3.09012,-4.2324 -9.48873,-14.40363 -11.09689,-16.81287c-0.6824,-1.02233 -0.6812,-2.49202 -0.6812,-2.49202z" fill="url(#color-46)" stroke="none" stroke-width="0" stroke-linecap="butt"/><path d="M323.12653,159.37036c0,0 4.49658,-1.75053 6.19964,-2.20052c1.15895,-0.30624 3.0303,-0.23828 3.0303,-0.23828l5.3835,25.02696c0,0 -1.6194,1.44208 -2.71733,1.66607c-1.77035,0.36116 -6.88832,0.29352 -6.88832,0.29352c0,0 -1.02986,-0.7561 -1.39427,-2.22412c-1.26251,-5.08607 -3.34514,-16.92073 -3.92413,-19.75892c-0.24568,-1.20435 0.31058,-2.56471 0.31058,-2.56471z" fill="url(#color-47)" stroke="none" stroke-width="0" stroke-linecap="butt"/><path d="M301.74113,169.84651c0,0 2.36386,-2.70047 3.3324,-3.58278c0.6591,-0.60042 1.9167,-1.19897 1.9167,-1.19897l12.15493,14.65554c0,0 -0.57229,1.50787 -1.2194,2.03306c-1.04346,0.84686 -4.44224,2.56181 -4.44224,2.56181c0,0 -0.93919,-0.14462 -1.68424,-0.98756c-2.58126,-2.92044 -8.02362,-10.00991 -9.38126,-11.68276c-0.5761,-0.70986 -0.67691,-1.79831 -0.67691,-1.79831z" fill="url(#color-48)" stroke="none" stroke-width="0" stroke-linecap="butt"/><g><path d="M175.29518,239.90613l19.28873,-11.06319" fill="none" stroke="url(#color-49)" stroke-width="0.5" stroke-linecap="round"/><path d="M170.62627,230.82309l19.59009,-9.63918" fill="none" stroke="url(#color-50)" stroke-width="0.5" stroke-linecap="round"/><path d="M167.07361,219.44383l19.32057,-8.20883" fill="none" stroke="url(#color-51)" stroke-width="0.5" stroke-linecap="round"/><path d="M192.50344,201.15933l81.48983,-36.31795c0,0 14.70741,3.03719 6.52028,11.6079c-1.50205,1.57243 2.46702,2.19765 4.15659,4.0575c1.8342,2.01903 1.44271,5.28772 0.67625,7.3533c-0.41646,1.12236 -1.32058,1.12736 -0.73937,1.81212c1.94992,2.29739 4.94981,1.86988 7.23976,4.20597c2.58817,2.64033 -0.43402,10.04885 -0.43402,10.04885l-82.14717,34.84301z" fill="url(#color-52)" stroke="none" stroke-width="0" stroke-linecap="butt"/><path d="M254.28467,193.17189c0.33901,-1.98979 2.32881,-1.65079 2.32881,-1.65079l2.07779,0.47073c0.8233,0.54635 1.98556,0.77781 2.46986,1.63907c1.62771,2.89465 0.06788,9.02055 -2.40408,11.06863c-3.14179,2.60307 -11.15812,0.45423 -13.33311,-2.88184c-0.6138,-0.94145 -0.52653,-2.18518 -0.78978,-3.27776c0.6136,-1.75772 0.86722,-3.64711 1.65214,-5.33528c1.68165,-3.61685 6.11405,-6.74194 9.97477,-7.60335c2.06872,-0.46159 6.63596,-0.47553 8.54347,0.46534c3.27656,1.61616 5.44832,8.26214 5.58018,11.64265c0.04282,1.09753 -0.01307,2.25446 -0.44299,3.26518c-1.39869,3.28822 -5.83892,6.53027 -8.32197,9.06741c-3.95851,2.80269 -10.69135,6.28268 -15.778,5.43258c-3.5238,-0.58892 -8.69046,-3.70737 -11.37445,-5.95896c-3.15286,-2.64492 -5.80773,-9.11353 -6.48838,-13.18307c-0.18899,-1.1299 -0.50997,-2.32219 -0.21769,-3.42987c0.59764,-2.26492 2.18793,-3.06843 3.84167,-4.27091c5.24182,-3.46813 10.58719,-6.64936 16.57373,-8.74109c1.54542,-0.53997 3.20808,-0.69442 4.75346,-1.23455c2.63822,-0.92212 2.47286,-1.67576 5.69056,-1.32967c3.15608,0.33947 6.16525,2.79959 9.09317,3.73537c1.00638,0.32166 2.17179,0.1144 3.11361,0.59322c2.28557,1.16199 2.66878,2.96158 3.63918,5.07414c0,0 0.82167,1.84369 -1.02198,2.66535c-1.84366,0.82167 -2.66534,-1.022 -2.66534,-1.022c-0.11938,-0.27897 -0.89207,-2.7945 -1.77977,-3.11809c-1.50188,-0.54748 -3.1168,-0.78408 -4.57375,-1.44185c-1.6838,-0.76019 -4.487,-2.2138 -6.34573,-2.48559c-1.92588,-0.28159 -4.53083,1.33208 -6.35247,1.8052c-6.50924,1.69056 -12.29409,5.16027 -17.84348,8.83018c-0.43094,0.29431 -2.06405,1.21719 -2.21831,1.96565c-0.11982,0.58129 0.94089,3.98788 0.97514,4.08491c0.91243,2.58278 2.24598,6.67465 4.39941,8.39193c1.86952,1.4909 4.09646,2.38103 6.18882,3.50001c0.76405,0.40862 2.35281,1.42526 3.2705,1.58669c3.77752,0.66444 9.59729,-2.45871 12.49419,-4.51578c2.14463,-2.22595 5.83837,-4.83068 7.23675,-7.59009c0.50215,-0.99087 -0.20993,-2.58322 -0.43085,-3.41155c-0.35553,-1.33303 -1.1359,-5.63812 -2.73698,-6.26551c-1.29792,-0.50859 -2.78314,-0.18039 -4.1769,-0.20718c-0.56946,-0.01094 -1.15326,-0.09576 -1.70843,0.03154c-2.59303,0.59453 -6.13073,2.8491 -7.22731,5.36683c-0.5507,1.26438 -0.73698,2.66768 -1.28955,3.93125c0.23343,1.48434 1.97816,1.66894 3.22251,2.14608c1.03754,0.39784 3.18813,1.67339 4.30595,0.60769c0.80201,-0.76462 2.22161,-4.69828 1.59558,-5.74098c-0.18977,-0.31607 -0.70481,-0.21654 -1.05723,-0.32478l-0.79194,-0.01821c0,0 -1.9898,-0.33901 -1.65079,-2.32881z" fill="url(#color-53)" stroke="none" stroke-width="0.5" stroke-linecap="butt"/><path d="M213.73331,240.28l-29.62703,13.03912c0,0 -1.7336,-0.51538 -2.72012,-2.33294c-4.06398,-7.48763 -13.58206,-27.75379 -16.14679,-33.03456c-1.17609,-2.42155 -1.28607,-6.12711 -1.28607,-6.12711l29.62702,-13.03913c0,0 3.14383,0.14318 4.11588,1.85843c4.33308,7.64594 13.80884,29.82965 16.11129,34.57033c0.83325,1.71564 -0.07422,5.06586 -0.07422,5.06586z" fill="#b7b7b7" stroke="url(#color-54)" stroke-width="2" stroke-linecap="butt"/></g></g></g></g></svg>