<svg version="1.1" xmlns="http://www.w3.org/2000/svg" xmlns:xlink="http://www.w3.org/1999/xlink" width="680.18017" height="259.30668" viewBox="0,0,680.18017,259.30668"><g transform="translate(86.28465,-53.79878)"><g data-paper-data="{&quot;isPaintingLayer&quot;:true}" fill-rule="nonzero" stroke="none" stroke-linecap="butt" stroke-linejoin="miter" stroke-miterlimit="10" stroke-dasharray="" stroke-dashoffset="0" style="mix-blend-mode: normal"><path d="M493.50149,53.79879v186.23157h-504v-186.23157z" data-paper-data="{&quot;index&quot;:null}" fill="#00eaff" stroke-width="NaN"/><path d="M261.89553,249.29466c0,33.58488 -66.21279,29.81081 -147.89039,29.81081c-81.6776,0 -147.89039,3.77407 -147.89039,-29.81081c0,-33.58488 66.21279,-91.81081 147.89039,-91.81081c81.67761,0 147.89039,58.22593 147.89039,91.81081z" fill="#00800b" stroke-width="0"/><path d="M515.89553,249.29466c0,33.58488 -62.85492,37.81081 -140.39039,37.81081c-77.53547,0 -140.39039,-4.22593 -140.39039,-37.81081c0,-33.58488 62.85492,-83.81081 140.39039,-83.81081c77.53547,0 140.39039,50.22593 140.39039,83.81081z" fill="#00b30f" stroke-width="0"/><path d="M194.49614,252.29466c0,33.58488 -62.85492,60.81081 -140.39039,60.81081c-77.53547,0 -140.39039,-27.22593 -140.39039,-60.81081c0,-33.58488 62.85492,-60.81081 140.39039,-60.81081c77.53547,0 140.39039,27.22593 140.39039,60.81081z" fill="#00e613" stroke-width="0"/><path d="M593.89553,252.29466c0,33.58488 -62.85492,60.81081 -140.39039,60.81081c-77.53547,0 -140.39039,-27.22593 -140.39039,-60.81081c0,-33.58488 62.85492,-60.81081 140.39039,-60.81081c77.53547,0 140.39039,27.22593 140.39039,60.81081z" fill="#00e613" stroke-width="0"/><path d="M380.68232,252.29465c0,33.58489 -62.85492,60.81082 -140.39039,60.81082c-77.53547,0 -140.39039,-27.22593 -140.39039,-60.81082c0,-33.58488 62.85492,-60.81081 140.39039,-60.81081c77.53547,0 140.39039,27.22593 140.39039,60.81081z" fill="#00ff15" stroke-width="0"/><g fill="#ffffff" stroke-width="0"><path d="M117.06257,90.49479c0,8.65246 -15.81927,15.66667 -35.33333,15.66667c-19.51406,0 -35.33334,-7.01421 -35.33334,-15.66667c0,-8.65246 15.81928,-15.66667 35.33334,-15.66667c19.51406,0 35.33333,7.01421 35.33333,15.66667z"/><path d="M73.72924,97.66145c0,3.95804 -8.28273,7.16666 -18.5,7.16666c-10.21727,0 -18.5,-3.20862 -18.5,-7.16666c0,-3.95804 8.28273,-7.16667 18.5,-7.16667c10.21727,0 18.5,3.20863 18.5,7.16667z"/><path d="M96.3959,100.49479c0,3.31371 7.3873,6 16.5,6c9.1127,0 16.5,-2.68629 16.5,-6c0,-3.31371 -7.3873,-6 -16.5,-6c-9.1127,0 -16.5,2.68629 -16.5,6z"/><path d="M131.06257,105.16145c0,-2.02505 -22.08728,-3.66667 -49.33333,-3.66667c-27.24605,0 -49.33334,1.64162 -49.33334,3.66667c0,2.02505 22.08729,3.66666 49.33334,3.66666c27.24605,0 49.33333,-1.64162 49.33333,-3.66666z"/></g><g fill="#ffffff" stroke-width="0"><path d="M436.85424,85.74218c0,7.13224 -16.83829,12.91406 -37.60937,12.91406c-20.77108,0 -37.60938,-5.78182 -37.60938,-12.91406c0,-7.13224 16.83829,-12.91406 37.60938,-12.91406c20.77108,0 37.60938,5.78182 37.60938,12.91406z"/><path d="M391.99486,92.99218c0,-2.87792 -10.04211,-5.21094 -22.42969,-5.21094c-12.38758,0 -22.42969,2.33302 -22.42969,5.21094c0,2.87792 10.04211,5.21094 22.42969,5.21094c12.38758,0 22.42969,-2.33302 22.42969,-5.21094z"/><path d="M419.18236,91.40624c0,-3.75381 5.57895,-6.79687 12.46094,-6.79687c6.88199,0 12.46094,3.04307 12.46094,6.79688c0,3.75381 -5.57895,6.79688 -12.46094,6.79688c-6.88199,0 -12.46094,-3.04307 -12.46094,-6.79687z"/><path d="M445.46361,97.0703c0,-2.62767 -24.14164,-4.75781 -53.92187,-4.75781c-29.78023,0 -53.92188,2.13015 -53.92188,4.75781c0,2.62767 24.14164,4.75781 53.92188,4.75781c29.78023,0 53.92188,-2.13015 53.92188,-4.75781z"/></g><g fill="#ffffff" stroke-width="0"><path d="M300.81951,98.74218c0,6.90356 -16.11775,12.5 -36,12.5c-19.88225,0 -36,-5.59644 -36,-12.5c0,-6.90356 16.11775,-12.5 36,-12.5c19.88225,0 36,5.59644 36,12.5z"/><path d="M253.31951,103.99218c0,3.45178 -6.71573,6.25 -15,6.25c-8.28427,0 -15,-2.79822 -15,-6.25c0,-3.45178 6.71573,-6.25 15,-6.25c8.28427,0 15,2.79822 15,6.25z"/><path d="M277.81951,103.24218c0,3.03757 5.93222,5.5 13.25,5.5c7.31777,0 13.25,-2.46243 13.25,-5.5c0,-3.03757 -5.93223,-5.5 -13.25,-5.5c-7.31777,0 -13.25,2.46243 -13.25,5.5z"/><path d="M301.31951,108.49218c0,-2.34721 -19.92333,-4.25 -44.5,-4.25c-24.57667,0 -44.5,1.90279 -44.5,4.25c0,2.34721 19.92333,4.25 44.5,4.25c24.57667,0 44.5,-1.90279 44.5,-4.25z"/></g></g></g></svg>