<svg version="1.1" xmlns="http://www.w3.org/2000/svg" xmlns:xlink="http://www.w3.org/1999/xlink" width="151" height="267.22501" viewBox="0,0,151,267.22501"><defs><linearGradient x1="240.00015" y1="175.50001" x2="240.00015" y2="307.50001" gradientUnits="userSpaceOnUse" id="color-1"><stop offset="0" stop-color="#000000"/><stop offset="1" stop-color="#050066"/></linearGradient><linearGradient x1="240.57738" y1="163.59024" x2="240.57738" y2="250.64544" gradientUnits="userSpaceOnUse" id="color-2"><stop offset="0" stop-color="#000000"/><stop offset="1" stop-color="#030033"/></linearGradient><linearGradient x1="240.8473" y1="49.27256" x2="240.8473" y2="210.77256" gradientUnits="userSpaceOnUse" id="color-3"><stop offset="0" stop-color="#000000"/><stop offset="1" stop-color="#04004d"/></linearGradient><linearGradient x1="240.07709" y1="76.54783" x2="240.07709" y2="197.14449" gradientUnits="userSpaceOnUse" id="color-4"><stop offset="0" stop-color="#000000"/><stop offset="1" stop-color="#060080"/></linearGradient><linearGradient x1="212.6487" y1="113.79498" x2="212.6487" y2="137.82299" gradientUnits="userSpaceOnUse" id="color-5"><stop offset="0" stop-color="#01001a"/><stop offset="1" stop-color="#060080"/></linearGradient><linearGradient x1="212.6487" y1="113.79498" x2="212.6487" y2="137.82299" gradientUnits="userSpaceOnUse" id="color-6"><stop offset="0" stop-color="#01001a"/><stop offset="1" stop-color="#050066"/></linearGradient><linearGradient x1="266.90711" y1="113.79498" x2="266.90711" y2="137.8151" gradientUnits="userSpaceOnUse" id="color-7"><stop offset="0" stop-color="#01001a"/><stop offset="1" stop-color="#060080"/></linearGradient><linearGradient x1="266.90711" y1="113.79498" x2="266.90711" y2="137.8151" gradientUnits="userSpaceOnUse" id="color-8"><stop offset="0" stop-color="#01001a"/><stop offset="1" stop-color="#050066"/></linearGradient></defs><g transform="translate(-165.34722,-46.38751)"><g data-paper-data="{&quot;isPaintingLayer&quot;:true}" fill-rule="nonzero" stroke-width="0" stroke-linecap="butt" stroke-linejoin="miter" stroke-miterlimit="10" stroke-dasharray="" stroke-dashoffset="0" style="mix-blend-mode: normal"><path d="M179.28384,313.61252v-267.22501h123.18203v267.22501z" fill-opacity="0.01" fill="#000000" stroke="none"/><path d="M206.75016,307.5l15.14285,-131.8421l37.78325,-0.15789l13.57389,132z" fill="url(#color-1)" stroke="#000000"/><path d="M210.42398,250.08801l8.20157,-86.27259l44.60128,-0.22518l7.50395,87.0552l-30.23979,-11.89646z" fill="url(#color-2)" stroke="#000000"/><path d="M316.34722,130.02256c0,44.597 -33.8025,80.75 -75.5,80.75c-41.6975,0 -75.5,-36.15301 -75.5,-80.75c0,-44.59699 33.8025,-80.75 75.5,-80.75c41.6975,0 75.5,36.15301 75.5,80.75z" fill="url(#color-3)" stroke="none"/><path d="M308.02023,135.16667c0,38.06162 -30.45365,68.91667 -68.02013,68.91667c-37.56647,0 -68.02013,-30.85504 -68.02013,-68.91667c0,-38.06162 30.45365,-68.91667 68.02013,-68.91667c37.56647,0 68.02013,30.85504 68.02013,68.91667z" fill="#000000" stroke="none"/><path d="M175.84007,136.84616c0,-33.30185 28.7599,-60.29833 64.23702,-60.29833c35.47712,0 64.23702,26.99649 64.23702,60.29833c0,33.30185 -28.7599,60.29833 -64.23702,60.29833c-35.47712,0 -64.23702,-26.99649 -64.23702,-60.29833z" fill="url(#color-4)" stroke="#000000"/><path d="M189.14028,137.52563c0,-12.968 10.51265,-23.48065 23.48065,-23.48065c12.968,0 23.48065,10.51265 23.48065,23.48065c0,12.968 -10.51265,23.48065 -23.48065,23.48065c-12.968,0 -23.48065,-10.51265 -23.48065,-23.48065z" fill="#808080" stroke="#000000"/><path d="M196.45567,137c0,-9.12808 7.39976,-16.52784 16.52783,-16.52784c9.12808,0 16.52784,7.39977 16.52784,16.52784c0,9.12808 -7.39977,16.52784 -16.52784,16.52784c-9.12808,0 -16.52783,-7.39977 -16.52783,-16.52784z" fill="#000000" stroke="none"/><path d="M266.87933,161.00627c-12.968,0 -23.48065,-10.51265 -23.48065,-23.48065c0,-12.968 10.51265,-23.48065 23.48065,-23.48065c12.968,0 23.48065,10.51265 23.48065,23.48065c0,12.968 -10.51265,23.48065 -23.48065,23.48065z" data-paper-data="{&quot;index&quot;:null}" fill="#808080" stroke="#000000"/><path d="M267.01671,153.52784c-9.12807,0 -16.52783,-7.39977 -16.52783,-16.52784c0,-9.12808 7.39977,-16.52784 16.52783,-16.52784c9.12807,0 16.52783,7.39977 16.52783,16.52784c0,9.12808 -7.39977,16.52784 -16.52783,16.52784z" data-paper-data="{&quot;index&quot;:null}" fill="#000000" stroke="none"/><path d="M189.16805,137.27563c0,-12.968 10.51265,-23.48065 23.48065,-23.48065c12.968,0 23.48065,10.51265 23.48065,23.48065c0,0 -12.42847,-6.51882 -24.58798,-6.37168c-11.28877,0.13661 -22.37333,6.96459 -22.37333,6.37168z" fill="url(#color-5)" stroke="url(#color-6)"/><path d="M243.4265,137.27563c0,-12.968 10.51265,-23.48065 23.48065,-23.48065c12.968,0 23.48065,10.51265 23.48065,23.48065c0,0.59265 -11.59537,-6.24343 -23.05365,-6.38439c-12.00942,-0.14774 -23.90766,6.38439 -23.90766,6.38439z" data-paper-data="{&quot;index&quot;:null}" fill="url(#color-7)" stroke="url(#color-8)"/><path d="M201.59804,106.01557c0,0 7.59834,-3.74113 12.82228,-3.90615c5.22395,-0.16501 11.95254,3.12355 11.95254,3.12355c0,0 -7.86762,-1.64791 -11.9019,-1.52047c-4.21598,0.13318 -12.87293,2.30307 -12.87293,2.30307z" fill="#000000" stroke="none"/><path d="M265.62424,103.73004c-4.03603,0.04644 -11.82537,2.03168 -11.82537,2.03168c0,0 6.58071,-3.57532 11.80692,-3.63546c5.2262,-0.06014 12.97862,3.35026 12.97862,3.35026c0,0 -8.74237,-1.79502 -12.96017,-1.74649z" data-paper-data="{&quot;index&quot;:null}" fill="#000000" stroke="none"/><path d="M246.29172,180c0,4.73836 -2.81687,8.57955 -6.29167,8.57955c-3.4748,0 -6.29167,-3.84119 -6.29167,-8.57955c0,-4.73836 2.81687,-8.57955 6.29167,-8.57955c3.4748,0 6.29167,3.84119 6.29167,8.57955z" fill="#000000" stroke="none"/></g></g></svg>