<svg version="1.1" xmlns="http://www.w3.org/2000/svg" xmlns:xlink="http://www.w3.org/1999/xlink" width="190.99518" height="267.22501" viewBox="0,0,190.99518,267.22501"><g transform="translate(-154.16326,-46.38752)"><g data-paper-data="{&quot;isPaintingLayer&quot;:true}" fill-rule="nonzero" stroke-linecap="butt" stroke-linejoin="miter" stroke-miterlimit="10" stroke-dasharray="" stroke-dashoffset="0" style="mix-blend-mode: normal"><path d="M179.28373,313.61253v-267.22501h123.18203v267.22501z" fill-opacity="0.01" fill="#000000" stroke="none" stroke-width="0"/><g><path d="M156.25424,119.43921c0,0 48.34861,-15.07022 68.32713,-26.28058c18.18522,-10.20409 46.6708,-38.24708 46.6708,-38.24708c0,0 9.19819,42.82936 20.947,60.97592c12.12767,18.73172 50.71853,49.71461 50.71853,49.71461c0,0 -42.78955,9.71775 -61.53875,20.2383c-19.54995,10.96987 -53.45918,44.28936 -53.45918,44.28936c0,0 -10.12167,-43.58436 -21.91048,-61.7927c-12.092,-18.67662 -49.75505,-48.89783 -49.75505,-48.89783z" fill="#ff6f00" stroke="#000000" stroke-width="2"/><path d="M167.26943,192.19511c0,0 23.53137,-44.84389 29.7314,-66.89775c5.6435,-20.07427 5.95647,-60.04601 5.95647,-60.04601c0,0 36.78903,23.78083 57.92825,28.30472c21.82088,4.66977 71.01695,-0.70988 71.01695,-0.70988c0,0 -23.3853,37.12827 -29.20382,57.8251c-6.06703,21.58077 -6.48404,69.11866 -6.48404,69.11866c0,0 -37.9759,-23.66169 -59.18708,-28.20099c-21.7567,-4.65603 -69.75812,0.60614 -69.75812,0.60614z" fill="#ff6f00" stroke="#000000" stroke-width="2"/><path d="M186.74219,126.97905c7.99487,-32.32793 42.39481,-51.63042 76.83439,-43.11333c34.43959,8.51709 55.87727,41.62854 47.88241,73.95646c-7.99487,32.32793 -42.39481,51.63042 -76.83439,43.11333c-34.43959,-8.51709 -55.87727,-41.62854 -47.88241,-73.95646z" fill="#ffe900" stroke="#000000" stroke-width="2"/><path d="M219.10947,146.62811c0.3676,-1.48644 55.0556,11.46629 54.55471,13.49167c-3.49718,14.14116 -18.54471,22.58464 -33.60958,18.85902c-15.06486,-3.72562 -24.44233,-18.20952 -20.94514,-32.35069z" fill="#000000" stroke="#000000" stroke-width="2"/><path d="M214.25527,123.6958c1.48807,-6.01713 7.57222,-9.68865 13.58935,-8.20058c6.01714,1.48807 9.68866,7.57223 8.20059,13.58935c-1.48807,6.01713 -7.57223,9.68865 -13.58936,8.20058c-6.01714,-1.48807 -9.68864,-7.57223 -8.20057,-13.58935z" fill="#000000" stroke="none" stroke-width="0"/><path d="M274.98855,149.93523c-5.83937,-1.44411 -9.40244,-7.34854 -7.95833,-13.18791c1.44411,-5.83938 7.34854,-9.40244 13.18791,-7.95833c5.83937,1.44411 9.40243,7.34854 7.95832,13.18791c-1.44411,5.83938 -7.34854,9.40245 -13.1879,7.95834z" data-paper-data="{&quot;index&quot;:null}" fill="#000000" stroke="none" stroke-width="0"/></g></g></g></svg>