<svg version="1.1" xmlns="http://www.w3.org/2000/svg" xmlns:xlink="http://www.w3.org/1999/xlink" width="181.25595" height="274.29566" viewBox="0,0,181.25595,274.29566"><defs><linearGradient x1="187.42587" y1="39.78182" x2="179.40695" y2="74.19317" gradientUnits="userSpaceOnUse" id="color-1"><stop offset="0" stop-color="#332f00"/><stop offset="1" stop-color="#998c00"/></linearGradient><linearGradient x1="240.16675" y1="175.50002" x2="240.16675" y2="307.50002" gradientUnits="userSpaceOnUse" id="color-2"><stop offset="0" stop-color="#000000"/><stop offset="1" stop-color="#665e00"/></linearGradient><linearGradient x1="236.20054" y1="154.96446" x2="310.70437" y2="172.32617" gradientUnits="userSpaceOnUse" id="color-3"><stop offset="0" stop-color="#000000"/><stop offset="1" stop-color="#4d4600"/></linearGradient><linearGradient x1="297.96423" y1="65.54069" x2="289.94531" y2="99.95207" gradientUnits="userSpaceOnUse" id="color-4"><stop offset="0" stop-color="#332f00"/><stop offset="1" stop-color="#998c00"/></linearGradient><linearGradient x1="130.36938" y1="130.3025" x2="204.87322" y2="147.66421" gradientUnits="userSpaceOnUse" id="color-5"><stop offset="0" stop-color="#4d4600"/><stop offset="1" stop-color="#000000"/></linearGradient><linearGradient x1="234.46867" y1="89.66533" x2="207.09919" y2="207.11518" gradientUnits="userSpaceOnUse" id="color-6"><stop offset="0" stop-color="#1a1700"/><stop offset="1" stop-color="#807500"/></linearGradient><linearGradient x1="240.74957" y1="81.86459" x2="235.47297" y2="104.50791" gradientUnits="userSpaceOnUse" id="color-7"><stop offset="0" stop-color="#4d4600"/><stop offset="1" stop-color="#1a1700"/></linearGradient><radialGradient cx="197.94755" cy="123.57276" r="23.48065" gradientUnits="userSpaceOnUse" id="color-8"><stop offset="0" stop-color="#403a00"/><stop offset="1" stop-color="#403a00" stop-opacity="0"/></radialGradient><radialGradient cx="251.61466" cy="135.8735" r="23.48065" gradientUnits="userSpaceOnUse" id="color-9"><stop offset="0" stop-color="#403a00"/><stop offset="1" stop-color="#403a00" stop-opacity="0"/></radialGradient><linearGradient x1="249.66281" y1="161.70918" x2="245.17896" y2="181.34459" gradientUnits="userSpaceOnUse" id="color-10"><stop offset="0" stop-color="#1a1a1a"/><stop offset="1" stop-color="#333333"/></linearGradient><linearGradient x1="245.29842" y1="160.16493" x2="238.65972" y2="183.49765" gradientUnits="userSpaceOnUse" id="color-11"><stop offset="0" stop-color="#333333"/><stop offset="1" stop-color="#4d4d4d"/></linearGradient><linearGradient x1="239.35178" y1="155.83685" x2="229.74097" y2="184.51722" gradientUnits="userSpaceOnUse" id="color-12"><stop offset="0" stop-color="#4d4d4d"/><stop offset="1" stop-color="#666666"/></linearGradient><linearGradient x1="227.08262" y1="152.26306" x2="219.80142" y2="183.50865" gradientUnits="userSpaceOnUse" id="color-13"><stop offset="0" stop-color="#666666"/><stop offset="1" stop-color="#808080"/></linearGradient><linearGradient x1="188.92808" y1="147.55883" x2="183.78754" y2="167.03264" gradientUnits="userSpaceOnUse" id="color-14"><stop offset="0" stop-color="#1a1a1a"/><stop offset="1" stop-color="#333333"/></linearGradient><linearGradient x1="192.46448" y1="147.45056" x2="188.3738" y2="171.36197" gradientUnits="userSpaceOnUse" id="color-15"><stop offset="0" stop-color="#333333"/><stop offset="1" stop-color="#4d4d4d"/></linearGradient><linearGradient x1="200.95854" y1="146.82123" x2="194.88078" y2="176.45215" gradientUnits="userSpaceOnUse" id="color-16"><stop offset="0" stop-color="#4d4d4d"/><stop offset="1" stop-color="#666666"/></linearGradient><linearGradient x1="212.72945" y1="148.91834" x2="205.44824" y2="180.16393" gradientUnits="userSpaceOnUse" id="color-17"><stop offset="0" stop-color="#666666"/><stop offset="1" stop-color="#808080"/></linearGradient><linearGradient x1="218.61614" y1="220.39709" x2="213.81234" y2="234.99242" gradientUnits="userSpaceOnUse" id="color-18"><stop offset="0" stop-color="#333333"/><stop offset="1" stop-color="#4d4d4d"/></linearGradient><linearGradient x1="214.95911" y1="219.39325" x2="208.6894" y2="237.49734" gradientUnits="userSpaceOnUse" id="color-19"><stop offset="0" stop-color="#4d4d4d"/><stop offset="1" stop-color="#666666"/></linearGradient><linearGradient x1="209.11124" y1="220.56442" x2="204.49932" y2="240.35542" gradientUnits="userSpaceOnUse" id="color-20"><stop offset="0" stop-color="#666666"/><stop offset="1" stop-color="#808080"/></linearGradient><linearGradient x1="192.02551" y1="214.74882" x2="190.47645" y2="230.03612" gradientUnits="userSpaceOnUse" id="color-21"><stop offset="0" stop-color="#333333"/><stop offset="1" stop-color="#4d4d4d"/></linearGradient><linearGradient x1="195.24735" y1="214.70914" x2="193.03614" y2="233.74012" gradientUnits="userSpaceOnUse" id="color-22"><stop offset="0" stop-color="#4d4d4d"/><stop offset="1" stop-color="#666666"/></linearGradient><linearGradient x1="200.01993" y1="218.44586" x2="195.408" y2="238.23687" gradientUnits="userSpaceOnUse" id="color-23"><stop offset="0" stop-color="#666666"/><stop offset="1" stop-color="#808080"/></linearGradient></defs><g transform="translate(-130.36939,-39.31686)"><g data-paper-data="{&quot;isPaintingLayer&quot;:true}" fill-rule="nonzero" stroke-linejoin="miter" stroke-miterlimit="10" stroke-dasharray="" stroke-dashoffset="0" style="mix-blend-mode: normal"><path d="M178.40902,313.61252v-267.22501h123.18203v267.22501z" fill-opacity="0.01" fill="#000000" stroke="none" stroke-width="0" stroke-linecap="butt"/><path d="M178.40899,313.61251v-267.22501h123.18203v267.22501z" fill-opacity="0.01" fill="#000000" stroke="none" stroke-width="0" stroke-linecap="butt"/><g stroke="#000000" stroke-width="0" stroke-linecap="butt"><path d="M163.95887,124.32878l15.88654,-68.17344l7.14197,1.6643l-15.88654,68.17344z" fill="#4d4926"/><path d="M166.21072,52.97803c2.21437,-9.50243 11.71272,-15.41059 21.21512,-13.19623c9.50243,2.21437 15.41059,11.71272 13.19622,21.21514c-2.21437,9.50243 -11.71272,15.41059 -21.21514,13.19622c-9.50243,-2.21437 -15.41056,-11.7127 -13.19622,-21.21514z" fill="url(#color-1)"/></g><path d="M206.91676,307.50001l15.14285,-131.8421l37.78325,-0.15789l13.57389,132z" fill="url(#color-2)" stroke="#000000" stroke-width="0" stroke-linecap="butt"/><path d="M236.20054,154.96446c2.72618,-11.69875 14.41988,-18.97247 26.11864,-16.24629c11.69874,2.72617 48.3852,33.60801 48.3852,33.60801c0,0 -46.5588,11.48308 -58.25753,8.75692c-11.69875,-2.72618 -18.97247,-14.41988 -16.24629,-26.11864z" data-paper-data="{&quot;index&quot;:null}" fill="url(#color-3)" stroke="#000000" stroke-width="0" stroke-linecap="butt"/><g stroke="#000000" stroke-width="0" stroke-linecap="butt"><path d="M274.49722,150.08766l15.88654,-68.17344l7.14198,1.66431l-15.88654,68.17344z" fill="#4d4926"/><path d="M276.74906,78.73691c2.21437,-9.50243 11.71272,-15.41059 21.21512,-13.19623c9.50243,2.21437 15.41059,11.71272 13.19622,21.21514c-2.21437,9.50243 -11.71271,15.41058 -21.21514,13.19622c-9.50243,-2.21437 -15.41056,-11.7127 -13.19622,-21.21514z" fill="url(#color-4)"/></g><path d="M178.75459,163.9105c-11.69874,-2.72617 -48.3852,-33.60801 -48.3852,-33.60801c0,0 46.5588,-11.48308 58.25753,-8.75692c11.69875,2.72618 18.97247,14.41988 16.24629,26.11864c-2.72618,11.69875 -14.41988,18.97247 -26.11864,16.24629z" data-paper-data="{&quot;index&quot;:null}" fill="url(#color-5)" stroke="#000000" stroke-width="0" stroke-linecap="butt"/><path d="M158.22309,133.81165c7.55787,-32.43287 41.69419,-52.19784 76.24558,-44.1463c34.55139,8.05153 56.43397,40.87068 48.8761,73.30355c-7.55787,32.43287 -41.69419,52.19784 -76.24558,44.1463c-34.55139,-8.05153 -56.43397,-40.87068 -48.8761,-73.30355z" fill="url(#color-6)" stroke="#000000" stroke-width="0" stroke-linecap="butt"/><path d="M210.75898,94.89831l36.80792,-11.44507l-6.28576,12.65362l23.2746,-0.73706l-17.63938,11.80478" fill="url(#color-7)" stroke="#000000" stroke-width="0" stroke-linecap="round"/><path d="M174.48955,122.54146c0.31488,-7.1621 11.07265,-12.5064 24.02811,-11.93682c12.95548,0.56957 23.20275,6.83732 22.88786,13.99942c-0.31488,7.1621 -11.07265,12.5064 -24.02811,11.93682c-12.95548,-0.56957 -23.20275,-6.83732 -22.88786,-13.99942z" fill="url(#color-8)" stroke="#000000" stroke-width="0" stroke-linecap="butt"/><path d="M246.53245,147.81788c-11.93275,-5.07728 -19.33076,-14.54092 -16.52391,-21.13762c2.80684,-6.5967 14.75565,-7.82843 26.68839,-2.75116c11.93275,5.07728 19.33076,14.54092 16.52391,21.13762c-2.80684,6.5967 -14.75565,7.82843 -26.68839,2.75116z" data-paper-data="{&quot;index&quot;:null}" fill="url(#color-9)" stroke="#000000" stroke-width="0" stroke-linecap="butt"/><path d="M181.13436,114.88558c4.4296,-2.71606 11.049,-4.28276 18.37021,-3.96089c7.46295,0.3281 14.02722,2.54701 18.19157,5.7385" fill="none" stroke="#1a1700" stroke-width="0.5" stroke-linecap="butt"/><path d="M239.42944,121.3625c4.97752,-0.72636 11.32775,0.18951 17.67344,2.88953c6.25545,2.66163 11.2647,6.5287 14.2109,10.55627" data-paper-data="{&quot;index&quot;:null}" fill="none" stroke="#1a1700" stroke-width="0.5" stroke-linecap="butt"/><path d="M167.41952,147.2942c11.37539,-0.79905 25.40938,34.53359 44.60694,39.38484c19.61155,4.95587 50.85023,-20.70993 57.98524,-12.16026c4.14673,4.96889 -10.5476,17.13157 -26.69572,31.58378c-19.85658,17.77122 -30.17807,45.21828 -45.36877,40.90449c-11.74071,-3.33407 -15.4872,-31.25581 -23.63743,-56.64461c-7.95852,-24.79166 -12.81292,-42.6522 -6.89027,-43.06824z" fill="#4d4600" stroke="none" stroke-width="0" stroke-linecap="butt"/><path d="M166.19814,147.94631c10.1983,-0.71638 34.37244,-6.04579 55.29982,-0.75743c20.92737,5.28836 42.27147,19.51764 48.51917,27.00409c3.71763,4.45473 -11.84165,19.02206 -26.31878,31.97879c-17.80186,15.93227 -30.98159,40.9283 -44.60035,37.06092c-10.5258,-2.98905 -15.04784,-27.96796 -23.67855,-49.65724c-8.27669,-20.79969 -14.53111,-45.25612 -9.22133,-45.6291z" fill="#000000" stroke="none" stroke-width="0" stroke-linecap="butt"/><path d="M218.5206,233.22277c-6.73609,7.00237 -12.71839,11.64174 -19.12239,9.82316c-6.404,-1.81857 -9.56432,-7.50821 -12.3096,-16.54014c0,0 10.00923,5.41431 14.89518,6.62064c5.17452,1.27757 16.53679,0.09635 16.53679,0.09635z" fill="#330000" stroke="none" stroke-width="0" stroke-linecap="butt"/><path d="M221.35661,146.69389c22.16699,5.376 44.90331,24.26208 45.15593,24.18551c1.26648,-0.38383 -10.88597,-8.85503 -47.61257,-16.36772c-38.08095,-9.73011 -45.94504,-7.45096 -45.94504,-7.45096c0,0 31.67328,-4.42386 48.40167,-0.36685z" fill="#330000" stroke="none" stroke-width="0" stroke-linecap="butt"/><path d="M241.00109,179.56675l3.92798,-16.32841c0,0 0.42884,-1.17844 4.61203,-1.1799c3.91913,-0.00135 3.76216,0.94571 3.76216,0.94571l-3.40707,16.44735c0,0 -0.76824,1.64642 -3.5279,1.80665c-3.41576,0.1983 -5.36715,-1.69141 -5.36715,-1.69141z" fill="url(#color-10)" stroke="none" stroke-width="0" stroke-linecap="butt"/><path d="M233.74743,181.09426l5.76029,-19.39038c0,0 0.59057,-1.39022 5.62212,-1.12659c4.71396,0.24698 4.46506,1.37615 4.46506,1.37615l-5.1413,19.56649c0,0 -1.02849,1.93157 -4.35794,1.94921c-4.12101,0.02184 -6.34823,-2.37488 -6.34823,-2.37488z" fill="url(#color-11)" stroke="none" stroke-width="0" stroke-linecap="butt"/><path d="M223.76067,181.24113l8.28999,-23.82044c0,0 0.81554,-1.69762 7.06744,-1.07987c5.85728,0.57876 5.48232,1.97088 5.48232,1.97088l-7.52914,24.0754c0,0 -1.39213,2.34672 -5.54015,2.1772c-5.13419,-0.20982 -7.77045,-3.32316 -7.77045,-3.32316z" fill="url(#color-12)" stroke="none" stroke-width="0" stroke-linecap="butt"/><path d="M212.62516,180.52275l6.39556,-25.97635c0,0 0.71004,-1.86979 7.86064,-1.72897c6.69926,0.13193 6.4494,1.641 6.4494,1.641l-5.50281,26.18438c0,0 -1.28108,2.60653 -5.99529,2.7683c-5.83496,0.20022 -9.20751,-2.88838 -9.20751,-2.88838z" fill="url(#color-13)" stroke="none" stroke-width="0" stroke-linecap="butt"/><path d="M182.77419,166.40416c-2.37016,-1.42262 -2.28659,-3.23755 -2.28659,-3.23755l4.61484,-16.15012c0,0 0.30046,-0.91176 3.77138,0.90821c3.70477,1.94259 3.53775,3.18547 3.53775,3.18547l-4.09824,16.2865c0,0 -2.6055,0.76832 -5.53915,-0.99252z" data-paper-data="{&quot;index&quot;:null}" fill="url(#color-14)" stroke="none" stroke-width="0" stroke-linecap="butt"/><path d="M187.09105,170.71602c-2.99524,-1.45401 -3.08853,-3.64033 -3.08853,-3.64033l3.81439,-19.86784c0,0 0.26323,-1.1259 4.62147,0.68746c4.65186,1.93552 4.58401,3.44444 4.58401,3.44444l-3.18007,19.97636c0,0 -3.04395,1.1996 -6.75129,-0.60008z" data-paper-data="{&quot;index&quot;:null}" fill="url(#color-15)" stroke="none" stroke-width="0" stroke-linecap="butt"/><path d="M193.30869,175.59459c-3.67311,-1.93475 -3.69977,-4.66317 -3.69977,-4.66317l5.56774,-24.6031c0,0 0.37419,-1.39232 5.73113,1.04609c5.71785,2.60269 5.57147,4.48035 5.57147,4.48035l-4.78166,24.76435c0,0 -3.84256,1.37021 -8.3889,-1.0245z" data-paper-data="{&quot;index&quot;:null}" fill="url(#color-16)" stroke="none" stroke-width="0" stroke-linecap="butt"/><path d="M203.66939,179.17852c-4.15705,-2.22906 -4.15394,-5.13338 -4.15394,-5.13338l6.63903,-25.9196c0,0 0.44299,-1.46408 6.51044,1.37903c6.47624,3.03465 6.28659,5.02571 6.28659,5.02571l-5.74629,26.12765c0,0 -4.39047,1.27958 -9.53584,-1.47941z" data-paper-data="{&quot;index&quot;:null}" fill="url(#color-17)" stroke="none" stroke-width="0" stroke-linecap="butt"/><path d="M210.76551,233.34456l4.14611,-12.123c0,0 0.40963,-0.86459 3.58719,-0.56785c2.97697,0.278 2.7903,0.9862 2.7903,0.9862l-3.75892,12.25042c0,0 -0.70076,1.19588 -2.80835,1.12111c-2.60864,-0.09258 -3.95633,-1.66688 -3.95633,-1.66688z" data-paper-data="{&quot;index&quot;:null}" fill="url(#color-18)" stroke="none" stroke-width="0" stroke-linecap="butt"/><path d="M204.92249,235.38432l5.4022,-15.03437c0,0 0.52735,-1.07003 4.48317,-0.63899c3.70614,0.40383 3.4598,1.28317 3.4598,1.28317l-4.92194,15.2007c0,0 -0.89667,1.47748 -3.52282,1.34371c-3.2505,-0.16557 -4.90043,-2.15423 -4.90043,-2.15423z" data-paper-data="{&quot;index&quot;:null}" fill="url(#color-19)" stroke="none" stroke-width="0" stroke-linecap="butt"/><path d="M199.95386,238.46414l4.05095,-16.45346c0,0 0.44975,-1.18433 4.97895,-1.09514c4.24332,0.08356 4.08505,1.03941 4.08505,1.03941l-3.48549,16.58523c0,0 -0.81145,1.65098 -3.79742,1.75345c-3.69588,0.12682 -5.83205,-1.82951 -5.83205,-1.82951z" data-paper-data="{&quot;index&quot;:null}" fill="url(#color-20)" stroke="none" stroke-width="0" stroke-linecap="butt"/><path d="M189.63787,229.6835c-1.95573,-0.78905 -2.1094,-2.1666 -2.1094,-2.1666l1.54965,-12.7201c0,0 0.11757,-0.72288 2.95017,0.23419c3.02345,1.02157 3.04595,1.97801 3.04595,1.97801l-1.1441,12.7612c0,0 -1.87156,0.88992 -4.29227,-0.08672z" data-paper-data="{&quot;index&quot;:null}" fill="url(#color-21)" stroke="none" stroke-width="0" stroke-linecap="butt"/><path d="M191.99711,233.28514c-2.42385,-1.01956 -2.59021,-2.7398 -2.59021,-2.7398l2.16496,-15.83034c0,0 0.15981,-0.89911 3.67382,0.346c3.75076,1.32898 3.76129,2.52186 3.76129,2.52186l-1.6601,15.889c0,0 -2.34966,1.07523 -5.34977,-0.18672z" data-paper-data="{&quot;index&quot;:null}" fill="url(#color-22)" stroke="none" stroke-width="0" stroke-linecap="butt"/><path d="M194.28127,237.61271c-2.6331,-1.41188 -2.63112,-3.2515 -2.63112,-3.2515l4.20517,-16.41753c0,0 0.28058,-0.92734 4.12372,0.87349c4.10205,1.92216 3.98193,3.18328 3.98193,3.18328l-3.63972,16.54929c0,0 -2.78093,0.81049 -6.04002,-0.93706z" data-paper-data="{&quot;index&quot;:null}" fill="url(#color-23)" stroke="none" stroke-width="0" stroke-linecap="butt"/><path d="M215.15596,135.99335l2.88302,-2.09061l-5.07809,7.10397" fill="none" stroke="#1a1700" stroke-width="0.5" stroke-linecap="round"/><path d="M231.62776,145.50208l-2.11373,-9.28876l2.29508,3.36995" fill="none" stroke="#1a1700" stroke-width="0.5" stroke-linecap="round"/></g></g></svg>