<svg version="1.1" xmlns="http://www.w3.org/2000/svg" xmlns:xlink="http://www.w3.org/1999/xlink" width="157.59276" height="291.33377" viewBox="0,0,157.59276,291.33377"><defs><linearGradient x1="290.23213" y1="129.30893" x2="318.75622" y2="127.72285" gradientUnits="userSpaceOnUse" id="color-1"><stop offset="0" stop-color="#000000"/><stop offset="1" stop-color="#240033"/></linearGradient><linearGradient x1="161.76391" y1="136.45236" x2="190.28801" y2="134.8663" gradientUnits="userSpaceOnUse" id="color-2"><stop offset="0" stop-color="#240033"/><stop offset="1" stop-color="#000000"/></linearGradient><linearGradient x1="240.00004" y1="175.50004" x2="240.00004" y2="307.50004" gradientUnits="userSpaceOnUse" id="color-3"><stop offset="0" stop-color="#000000"/><stop offset="1" stop-color="#470066"/></linearGradient><linearGradient x1="238.90853" y1="78.43483" x2="245.60394" y2="198.84552" gradientUnits="userSpaceOnUse" id="color-4"><stop offset="0" stop-color="#12001a"/><stop offset="1" stop-color="#590080"/></linearGradient><linearGradient x1="207.71405" y1="25.81426" x2="211.77741" y2="98.88983" gradientUnits="userSpaceOnUse" id="color-5"><stop offset="0" stop-color="#240033"/><stop offset="1" stop-color="#09000d"/></linearGradient><linearGradient x1="261.29793" y1="22.83474" x2="265.36128" y2="95.91033" gradientUnits="userSpaceOnUse" id="color-6"><stop offset="0" stop-color="#240033"/><stop offset="1" stop-color="#09000d"/></linearGradient></defs><g transform="translate(-162.03381,-22.27876)"><g data-paper-data="{&quot;isPaintingLayer&quot;:true}" fill-rule="nonzero" stroke-linecap="butt" stroke-linejoin="miter" stroke-miterlimit="10" stroke-dasharray="" stroke-dashoffset="0" style="mix-blend-mode: normal"><path d="M179.28374,313.61253v-267.22501h123.18203v267.22501z" fill-opacity="0.01" fill="#000000" stroke="none" stroke-width="0"/><path d="M306.17026,157.26015c-4.2182,-1.28826 -12.94552,0.09254 -12.94552,0.09254l-3.59409,-38.8604l20.68508,-27.5242c0,0 4.12374,2.96678 7.73519,32.95639c3.4601,28.73283 0.14245,41.05374 0.14245,41.05374c0,0 -7.9217,-6.46548 -12.0231,-7.71806z" data-paper-data="{&quot;index&quot;:null}" fill="url(#color-1)" stroke="#000000" stroke-width="0"/><path d="M166.45368,173.41569c0,0 -4.66318,-11.87714 -4.40992,-40.81645c0.26432,-30.20511 4.03372,-33.61079 4.03372,-33.61079l23.60907,25.06123l0.7364,39.0193c0,0 -8.82661,-0.40471 -12.87597,1.34326c-3.93724,1.69957 -11.0933,9.00346 -11.0933,9.00346z" fill="url(#color-2)" stroke="#000000" stroke-width="0"/><path d="M206.75005,307.50001l15.14285,-131.8421l37.78325,-0.15789l13.57389,132z" fill="url(#color-3)" stroke="#000000" stroke-width="0"/><path d="M178.11829,142.20656c-1.84888,-33.25049 25.36784,-61.80205 60.79024,-63.77171c35.4224,-1.96965 65.63676,23.38848 67.48565,56.63896c0.86335,15.52665 -10.15334,35.58566 -21.54953,50.43641c-11.78958,15.36338 -20.12443,40.37185 -39.00599,41.42175c-19.44813,1.08141 -30.14535,-23.2726 -42.67127,-36.83911c-15.16021,-16.41965 -24.21531,-32.89149 -25.04909,-47.8863z" fill="url(#color-4)" stroke="#000000" stroke-width="0"/><path d="M218.49228,183.41478c0.67246,-2.48843 16.78766,-7.55412 25.1401,-8.225c8.35244,-0.67088 19.83365,9.28349 21.23364,13.01262c1.39999,3.72914 -12.02954,34.04548 -20.38197,34.71638c-8.35243,0.6709 -27.03576,-35.64065 -25.99177,-39.504z" fill="#000000" stroke="#000000" stroke-width="2"/><path d="M190.15719,141.66313c-0.71997,-12.948 9.19282,-24.02809 22.1408,-24.74805c12.948,-0.71997 24.02809,9.19282 24.74805,22.1408c0.71997,12.948 -9.19282,24.02809 -22.1408,24.74805c-12.948,0.71997 -24.02809,-9.19282 -24.74805,-22.1408z" fill="#808080" stroke="#000000" stroke-width="0"/><path d="M194.88515,141.45804c-0.57832,-10.40068 7.38426,-19.30091 17.78492,-19.87924c10.40068,-0.57832 19.30091,7.38427 19.87924,17.78493c0.57832,10.40068 -7.38427,19.30091 -17.78493,19.87924c-10.40068,0.57832 -19.3009,-7.38427 -19.87923,-17.78493z" fill="#000000" stroke="none" stroke-width="0"/><path d="M269.09851,161.1244c-12.948,0.71997 -24.02809,-9.19282 -24.74805,-22.1408c-0.71997,-12.948 9.19282,-24.02809 22.1408,-24.74805c12.948,-0.71997 24.02809,9.19282 24.74805,22.1408c0.71997,12.948 -9.19282,24.02809 -22.1408,24.74805z" data-paper-data="{&quot;index&quot;:null}" fill="#808080" stroke="#000000" stroke-width="0"/><path d="M268.75136,156.90872c-10.76829,0.59876 -19.98311,-7.64527 -20.58188,-18.41356c-0.59876,-10.76831 7.64527,-19.98312 18.41355,-20.58189c10.76829,-0.59876 19.98311,7.64527 20.58188,18.41356c0.59876,10.76831 -7.64527,19.98312 -18.41355,20.58189z" data-paper-data="{&quot;index&quot;:null}" fill="#000000" stroke="none" stroke-width="0"/><path d="M201.23714,90.77381c-1.22057,-5.57489 -3.52232,-64.40354 -3.52232,-64.40354c0,0 22.49024,54.40862 23.7108,59.98351c1.22057,5.57489 -2.30933,11.08368 -7.88421,12.30424c-5.57488,1.22057 -11.08368,-2.30932 -12.30424,-7.88421z" fill="url(#color-5)" stroke="#000000" stroke-width="0"/><path d="M263.5825,95.87551c-5.67584,-0.59497 -9.79472,-5.67846 -9.19974,-11.35429c0.59496,-5.67585 16.91444,-62.24246 16.91444,-62.24246c0,0 4.23456,58.72117 3.6396,64.39702c-0.59496,5.67585 -5.67846,9.79471 -11.3543,9.19974z" data-paper-data="{&quot;index&quot;:null}" fill="url(#color-6)" stroke="#000000" stroke-width="0"/></g></g></svg>