<svg version="1.1" xmlns="http://www.w3.org/2000/svg" xmlns:xlink="http://www.w3.org/1999/xlink" width="84.31513" height="30.05294" viewBox="0,0,84.31513,30.05294"><g transform="translate(-197.84243,-164.97353)"><g data-paper-data="{&quot;isPaintingLayer&quot;:true}" fill-rule="evenodd" stroke="none" stroke-linecap="round" stroke-linejoin="round" stroke-miterlimit="10" stroke-dasharray="" stroke-dashoffset="0" style="mix-blend-mode: normal"><path d="M282.15756,179.99999c0,8.32468 -6.70181,15.02648 -15.02647,15.02648h-54.2622c-8.32466,0 -15.02646,-6.70181 -15.02646,-15.02648c0,-8.32466 6.70179,-15.02646 15.02646,-15.02646h54.2622c8.32466,0 15.02647,6.70179 15.02647,15.02646z" fill="#666666" stroke-width="0.314"/><g fill="#ffffff" stroke-width="2.58387"><path d="M217.77224,186.21513c-0.79415,0 -1.54803,-0.16113 -2.26162,-0.48339c-0.70207,-0.32227 -1.32359,-0.76539 -1.86454,-1.32935c-0.52944,-0.57547 -0.94378,-1.24303 -1.24303,-2.00266c-0.29924,-0.75963 -0.44886,-1.58256 -0.44886,-2.4688c0,-0.84019 0.14962,-1.62859 0.44886,-2.36519c0.29926,-0.74813 0.71936,-1.40417 1.26031,-1.96813c0.54094,-0.56397 1.17396,-1.00709 1.89906,-1.32935c0.7251,-0.32227 1.51351,-0.48341 2.36521,-0.48341c1.15095,0 2.13501,0.24745 2.95219,0.74237c0.82869,0.4834 1.4502,1.12793 1.86454,1.9336l-1.77821,1.31208c-0.31075,-0.61 -0.74812,-1.07614 -1.31209,-1.39841c-0.55246,-0.32226 -1.1567,-0.48339 -1.81274,-0.48339c-0.51793,0 -0.98982,0.10934 -1.41568,0.32802c-0.42584,0.21868 -0.79415,0.51793 -1.1049,0.89774c-0.31075,0.37981 -0.55246,0.81718 -0.72511,1.31209c-0.16112,0.4949 -0.24169,1.01858 -0.24169,1.57104c0,0.58699 0.08632,1.12794 0.25896,1.62284c0.18415,0.49492 0.43736,0.92652 0.75963,1.29482c0.33378,0.36831 0.71935,0.6618 1.1567,0.88049c0.43736,0.20717 0.92076,0.31075 1.45021,0.31075c0.6215,0 1.21424,-0.16113 1.77821,-0.48339c0.57547,-0.32226 1.11067,-0.79415 1.60558,-1.41566v2.34794c-1.02435,1.10491 -2.22134,1.65737 -3.59097,1.65737zM221.19057,181.57105h-2.4688v-1.7437h4.43693v6.30147h-1.96813z"/><path d="M225.19589,186.12882v-12.25763h5.42097c0.56397,0 1.0819,0.11509 1.55378,0.34528c0.48341,0.2302 0.89775,0.54095 1.24303,0.93227c0.3568,0.39133 0.62727,0.82869 0.81143,1.31209c0.19566,0.4834 0.29349,0.97831 0.29349,1.48472c0,0.51793 -0.09208,1.01859 -0.27623,1.502c-0.17264,0.47189 -0.42585,0.88624 -0.75963,1.24302c-0.33378,0.3568 -0.7251,0.63302 -1.17398,0.82868l2.79682,4.60957h-2.62417l-2.52058,-4.10891h-2.38246v4.10891zM227.57835,179.93094h2.98672c0.29924,0 0.56396,-0.08632 0.79415,-0.25896c0.2302,-0.18415 0.41434,-0.42586 0.55245,-0.7251c0.13812,-0.29926 0.20718,-0.63303 0.20718,-1.00133c0,-0.39132 -0.08057,-0.73085 -0.2417,-1.01859c-0.16112,-0.29926 -0.3683,-0.5352 -0.62151,-0.70784c-0.2417,-0.17264 -0.50641,-0.25896 -0.79415,-0.25896h-2.88313z"/><path d="M245.18791,184.03983v2.08899h-8.51127v-12.25763h8.3559v2.08897h-5.97344v2.95219h5.16201v1.9336h-5.16201v3.19388z"/><path d="M255.56375,184.03983v2.08899h-8.51129v-12.25763h8.3559v2.08897h-5.97344v2.95219h5.16202v1.9336h-5.16202v3.19388z"/><path d="M259.81076,178.25631v7.87251h-2.38248v-12.25763h1.89907l6.33598,8.07967v-8.06241h2.38248v12.24038h-1.9854z"/></g></g></g></svg>