<svg version="1.1" xmlns="http://www.w3.org/2000/svg" xmlns:xlink="http://www.w3.org/1999/xlink" width="158.74151" height="298.99038" viewBox="0,0,158.74151,298.99038"><g transform="translate(-160.32998,-14.62214)"><g data-paper-data="{&quot;isPaintingLayer&quot;:true}" fill-rule="nonzero" stroke-linejoin="miter" stroke-miterlimit="10" stroke-dasharray="" stroke-dashoffset="0" style="mix-blend-mode: normal"><path d="M179.28374,313.61252v-267.22501h123.18203v267.22501z" fill-opacity="0.01" fill="#000000" stroke="none" stroke-width="0" stroke-linecap="butt"/><path d="M304.3584,156.95619c-4.14017,-1.52046 -12.9307,-0.62633 -12.9307,-0.62633l-1.43105,-39l22.18129,-26.33333c0,0 3.95267,3.19116 5.89355,33.33501c1.85954,28.88061 -2.13703,40.99833 -2.13703,40.99833c0,0 -7.55053,-6.89531 -11.57606,-8.37367z" data-paper-data="{&quot;index&quot;:null}" fill="#7d00b3" stroke="#000000" stroke-width="2" stroke-linecap="butt"/><path d="M163.96034,165.32985c0,0 -3.99658,-12.11771 -2.13704,-40.99833c1.94088,-30.14385 5.89354,-33.33501 5.89354,-33.33501l22.18129,26.33333l-1.43105,39c0,0 -8.79053,-0.89413 -12.9307,0.62633c-4.02553,1.47836 -11.57605,8.37367 -11.57605,8.37367z" fill="#7d00b3" stroke="#000000" stroke-width="2" stroke-linecap="butt"/><path d="M206.75005,307.5l15.14285,-131.8421l37.78325,-0.15789l13.57389,132z" fill="#b100ff" stroke="#000000" stroke-width="2" stroke-linecap="butt"/><path d="M219.70028,204.11263l3.12142,-26.32765l35.83075,-0.14203l2.76735,26.1059c0,0 -7.51543,4.19603 -21.55904,4.50964c-12.48458,0.27879 -20.16049,-4.14586 -20.16049,-4.14586z" fill="#a100e6" stroke="#000000" stroke-width="0" stroke-linecap="butt"/><path d="M175.83996,134.84616c0,-33.30185 28.7599,-60.29833 64.23702,-60.29833c35.47712,0 64.23702,26.99649 64.23702,60.29833c0,33.30185 -28.7599,60.29833 -64.23702,60.29833c-35.47712,0 -64.23702,-26.99649 -64.23702,-60.29833z" fill="#b100ff" stroke="#000000" stroke-width="2" stroke-linecap="butt"/><path d="M176.56302,134.9c0,-0.72799 5.20666,55.91939 63.36046,56.93429c55.56352,0.9697 63.51358,-57.95314 63.51358,-56.93429c0,32.80479 -28.40173,59.39833 -63.43702,59.39833c-35.03529,0 -63.43702,-26.59354 -63.43702,-59.39833z" fill="#a100e6" stroke="#000000" stroke-width="0" stroke-linecap="butt"/><path d="M189.39017,135.27563c0,-12.968 10.51265,-23.48065 23.48065,-23.48065c12.968,0 23.48065,10.51265 23.48065,23.48065c0,12.968 -10.51265,23.48065 -23.48065,23.48065c-12.968,0 -23.48065,-10.51265 -23.48065,-23.48065z" fill="#ffffff" stroke="#000000" stroke-width="2" stroke-linecap="butt"/><path d="M196.45556,135c0,-9.12808 7.39976,-16.52784 16.52783,-16.52784c9.12808,0 16.52784,7.39977 16.52784,16.52784c0,9.12808 -7.39977,16.52784 -16.52784,16.52784c-9.12808,0 -16.52783,-7.39977 -16.52783,-16.52784z" fill="#000000" stroke="none" stroke-width="0" stroke-linecap="butt"/><path d="M219.25705,174.65643h40.10959" fill="none" stroke="#000000" stroke-width="1" stroke-linecap="round"/><path d="M267.12926,158.75627c-12.968,0 -23.48065,-10.51265 -23.48065,-23.48065c0,-12.968 10.51265,-23.48065 23.48065,-23.48065c12.968,0 23.48065,10.51265 23.48065,23.48065c0,12.968 -10.51265,23.48065 -23.48065,23.48065z" data-paper-data="{&quot;index&quot;:null}" fill="#ffffff" stroke="#000000" stroke-width="2" stroke-linecap="butt"/><path d="M267.01669,151.52784c-9.12807,0 -16.52783,-7.39977 -16.52783,-16.52784c0,-9.12808 7.39977,-16.52784 16.52783,-16.52784c9.12807,0 16.52783,7.39977 16.52783,16.52784c0,9.12808 -7.39977,16.52784 -16.52783,16.52784z" data-paper-data="{&quot;index&quot;:null}" fill="#000000" stroke="none" stroke-width="0" stroke-linecap="butt"/><path d="M189.52875,135.28512c0,-12.96801 10.51265,-23.48065 23.48066,-23.48065c12.96801,0 23.48065,10.51264 23.48065,23.48065c0,0 -4.90806,22.46511 -23.43307,22.26121c-19.92475,-0.21931 -23.52823,-21.6446 -23.52823,-22.26121z" fill="#b100ff" stroke="#000000" stroke-width="2" stroke-linecap="butt"/><path d="M243.70875,135.17981c0,-12.96801 10.51264,-23.48065 23.48065,-23.48065c12.96801,0 23.48066,10.51264 23.48066,23.48065c0,0.60606 -3.97259,22.59312 -22.72496,22.469c-22.15221,-0.14662 -24.23635,-22.469 -24.23635,-22.469z" data-paper-data="{&quot;index&quot;:null}" fill="#b100ff" stroke="#000000" stroke-width="2" stroke-linecap="butt"/><path d="M202.02784,103.46716c0,0 6.70895,-5.16922 11.79721,-6.36355c5.08827,-1.19433 12.33413,0.69937 12.33413,0.69937c0,0 -8.03812,-0.06028 -11.96762,0.86207c-4.10648,0.96389 -12.16372,4.80211 -12.16372,4.80211z" fill="#000000" stroke="none" stroke-width="0" stroke-linecap="butt"/><path d="M265.96236,98.66506c-3.9295,-0.92235 -11.96762,-0.86207 -11.96762,-0.86207c0,0 7.24586,-1.8937 12.33413,-0.69937c5.08826,1.19433 11.79721,6.36355 11.79721,6.36355c0,0 -8.05724,-3.83822 -12.16372,-4.80211z" data-paper-data="{&quot;index&quot;:null}" fill="#000000" stroke="none" stroke-width="0" stroke-linecap="butt"/><path d="M203.27833,84.74659c-0.90916,-5.63406 0.05873,-64.49976 0.05873,-64.49976c0,0 19.43483,55.57333 20.344,61.20739c0.90916,5.63406 -2.92113,10.93839 -8.55518,11.84755c-5.63406,0.90916 -10.93838,-2.92112 -11.84755,-8.55518z" fill="#7d00b3" stroke="#000000" stroke-width="2" stroke-linecap="butt"/><path d="M265.24431,93.30177c-5.63405,-0.90917 -9.46435,-6.21349 -8.55518,-11.84754c0.90917,-5.63405 20.344,-61.20739 20.344,-61.20739c0,0 0.96789,58.86571 0.05873,64.49976c-0.90916,5.63405 -6.21349,9.46434 -11.84754,8.55517z" data-paper-data="{&quot;index&quot;:null}" fill="#7d00b3" stroke="#000000" stroke-width="2" stroke-linecap="butt"/></g></g></svg>