<svg version="1.1" xmlns="http://www.w3.org/2000/svg" xmlns:xlink="http://www.w3.org/1999/xlink" width="157.23483" height="296.36569" viewBox="0,0,157.23483,296.36569"><defs><linearGradient x1="289.99665" y1="125.1632" x2="318.5648" y2="125.1632" gradientUnits="userSpaceOnUse" id="color-1"><stop offset="0" stop-color="#000000"/><stop offset="1" stop-color="#240033"/></linearGradient><linearGradient x1="161.32998" y1="125.16319" x2="189.89814" y2="125.16319" gradientUnits="userSpaceOnUse" id="color-2"><stop offset="0" stop-color="#240033"/><stop offset="1" stop-color="#000000"/></linearGradient><linearGradient x1="240.00004" y1="175.50001" x2="240.00004" y2="307.50001" gradientUnits="userSpaceOnUse" id="color-3"><stop offset="0" stop-color="#000000"/><stop offset="1" stop-color="#470066"/></linearGradient><linearGradient x1="240.07698" y1="71.54783" x2="240.07698" y2="192.14449" gradientUnits="userSpaceOnUse" id="color-4"><stop offset="0" stop-color="#12001a"/><stop offset="1" stop-color="#590080"/></linearGradient><linearGradient x1="213.35177" y1="17.24683" x2="213.35177" y2="90.43528" gradientUnits="userSpaceOnUse" id="color-5"><stop offset="0" stop-color="#240033"/><stop offset="1" stop-color="#09000d"/></linearGradient><linearGradient x1="267.01842" y1="17.24684" x2="267.01842" y2="90.4353" gradientUnits="userSpaceOnUse" id="color-6"><stop offset="0" stop-color="#240033"/><stop offset="1" stop-color="#09000d"/></linearGradient></defs><g transform="translate(-161.32998,-17.24683)"><g data-paper-data="{&quot;isPaintingLayer&quot;:true}" fill-rule="nonzero" stroke-linejoin="miter" stroke-miterlimit="10" stroke-dasharray="" stroke-dashoffset="0" style="mix-blend-mode: normal"><path d="M179.28374,313.61252v-267.22501h123.18203v267.22501z" fill-opacity="0.01" fill="#000000" stroke="none" stroke-width="0" stroke-linecap="butt"/><path d="M304.35839,153.95619c-4.14017,-1.52046 -12.93069,-0.62633 -12.93069,-0.62633l-1.43105,-39l22.18129,-26.33333c0,0 3.95267,3.19116 5.89355,33.33501c1.85954,28.88061 -2.13703,40.99833 -2.13703,40.99833c0,0 -7.55053,-6.89531 -11.57606,-8.37367z" data-paper-data="{&quot;index&quot;:null}" fill="url(#color-1)" stroke="#000000" stroke-width="0" stroke-linecap="butt"/><path d="M163.96033,162.32986c0,0 -3.99658,-12.11771 -2.13703,-40.99833c1.94088,-30.14385 5.89354,-33.33501 5.89354,-33.33501l22.18129,26.33333l-1.43105,39c0,0 -8.79053,-0.89413 -12.9307,0.62633c-4.02553,1.47836 -11.57605,8.37367 -11.57605,8.37367z" fill="url(#color-2)" stroke="#000000" stroke-width="0" stroke-linecap="butt"/><path d="M206.75005,307.5l15.14285,-131.8421l37.78325,-0.15789l13.57389,132z" fill="url(#color-3)" stroke="#000000" stroke-width="0" stroke-linecap="butt"/><path d="M175.83996,131.84616c0,-33.30185 28.7599,-60.29833 64.23702,-60.29833c35.47712,0 64.23702,26.99649 64.23702,60.29833c0,33.30185 -28.7599,60.29833 -64.23702,60.29833c-35.47712,0 -64.23702,-26.99649 -64.23702,-60.29833z" fill="url(#color-4)" stroke="#000000" stroke-width="0" stroke-linecap="butt"/><path d="M189.39017,131.9423c0,-12.968 10.51265,-23.48065 23.48065,-23.48065c12.968,0 23.48065,10.51265 23.48065,23.48065c0,12.968 -10.51265,23.48065 -23.48065,23.48065c-12.968,0 -23.48065,-10.51265 -23.48065,-23.48065z" fill="#808080" stroke="#000000" stroke-width="0" stroke-linecap="butt"/><path d="M194.12222,132c0,-10.41675 8.44443,-18.86117 18.86116,-18.86117c10.41675,0 18.86117,8.44444 18.86117,18.86117c0,10.41675 -8.44444,18.86117 -18.86117,18.86117c-10.41675,0 -18.86116,-8.44444 -18.86116,-18.86117z" fill="#000000" stroke="none" stroke-width="0" stroke-linecap="butt"/><path d="M227.50705,171.65643h25.10959" fill="none" stroke="#000000" stroke-width="2" stroke-linecap="round"/><path d="M267.12926,155.75627c-12.968,0 -23.48065,-10.51265 -23.48065,-23.48065c0,-12.968 10.51265,-23.48065 23.48065,-23.48065c12.968,0 23.48065,10.51265 23.48065,23.48065c0,12.968 -10.51265,23.48065 -23.48065,23.48065z" data-paper-data="{&quot;index&quot;:null}" fill="#808080" stroke="#000000" stroke-width="0" stroke-linecap="butt"/><path d="M267.01669,151.52784c-10.78492,0 -19.52783,-8.74292 -19.52783,-19.52784c0,-10.78494 8.74292,-19.52784 19.52783,-19.52784c10.78492,0 19.52783,8.74292 19.52783,19.52784c0,10.78494 -8.74292,19.52784 -19.52783,19.52784z" data-paper-data="{&quot;index&quot;:null}" fill="#000000" stroke="none" stroke-width="0" stroke-linecap="butt"/><path d="M203.27834,81.74659c-0.90917,-5.63406 0.05873,-64.49976 0.05873,-64.49976c0,0 19.43483,55.57334 20.344,61.20739c0.90917,5.63406 -2.92113,10.93838 -8.55518,11.84754c-5.63405,0.90917 -10.93838,-2.92112 -11.84754,-8.55518z" fill="url(#color-5)" stroke="#000000" stroke-width="0" stroke-linecap="butt"/><path d="M265.24431,90.30177c-5.63405,-0.90917 -9.46435,-6.21349 -8.55518,-11.84754c0.90916,-5.63406 20.344,-61.20739 20.344,-61.20739c0,0 0.96789,58.8657 0.05873,64.49976c-0.90916,5.63406 -6.21349,9.46434 -11.84755,8.55518z" data-paper-data="{&quot;index&quot;:null}" fill="url(#color-6)" stroke="#000000" stroke-width="0" stroke-linecap="butt"/></g></g></svg>