<svg version="1.1" xmlns="http://www.w3.org/2000/svg" xmlns:xlink="http://www.w3.org/1999/xlink" width="161.84382" height="306.36012" viewBox="0,0,161.84382,306.36012"><g transform="translate(-151.00312,-7.2524)"><g data-paper-data="{&quot;isPaintingLayer&quot;:true}" fill-rule="nonzero" stroke-linejoin="miter" stroke-miterlimit="10" stroke-dasharray="" stroke-dashoffset="0" style="mix-blend-mode: normal"><path d="M179.28375,313.61252v-267.22501h123.18203v267.22501z" fill-opacity="0.01" fill="#000000" stroke="none" stroke-width="0" stroke-linecap="butt"/><g stroke="#000000" stroke-width="2" stroke-linecap="butt"><path d="M269.52372,231.85811c-12.92088,-1.20561 -9.80557,-122.43002 -9.80557,-122.43002l12.67283,-1.75189c0,0 9.66941,125.35168 -2.86725,124.18191z" data-paper-data="{&quot;index&quot;:null}" fill="#006609"/><path d="M278.85706,220.52477c-12.92088,-1.20561 -8.80557,-109.76335 -8.80557,-109.76335l12.67282,-1.75189c0,0 8.66941,112.68501 -3.86725,111.51525z" data-paper-data="{&quot;index&quot;:null}" fill="#00800b"/><path d="M205.61424,88.00953l12.67282,1.75189c0,0 3.11531,139.22441 -9.80557,140.43003c-12.53666,1.16977 -2.86725,-142.18191 -2.86725,-142.18191z" fill="#006609"/><path d="M199.82646,220.96237c-12.8665,-1.68988 -4.5262,-105.69916 -4.5262,-105.69916l12.72966,-1.27485c0,0 4.28044,108.61365 -8.20346,106.97402z" data-paper-data="{&quot;index&quot;:null}" fill="#00800b"/><path d="M184.13927,210.21209c-11.85707,-2.01666 0.80492,-97.76965 0.80492,-97.76965l12.76881,-0.7919c0,0 -1.16086,100.67273 -13.57373,98.56155z" data-paper-data="{&quot;index&quot;:null}" fill="#006609"/><path d="M292.51405,207.58355c-12.97213,-0.35584 -18.99203,-79.15159 -18.99203,-79.15159l12.53069,-2.57904c0,0 19.04773,82.07589 6.46134,81.73063z" data-paper-data="{&quot;index&quot;:null}" fill="#006609"/><path d="M296.45695,185.12279c-6.96196,-1.98495 2.87949,-14.59911 -0.90901,-27.03845c-3.24984,-10.67066 3.1711,-15.32245 6.4215,-4.65196c3.03726,9.97082 2.34727,33.93133 -5.51249,31.69041z" data-paper-data="{&quot;index&quot;:null}" fill="#006609"/></g><path d="M206.75006,307.5l15.14285,-131.8421l37.78325,-0.15789l13.57389,132z" fill="#4dff5b" stroke="#000000" stroke-width="2" stroke-linecap="butt"/><path d="M219.70028,204.11263l3.12142,-26.32765l35.83075,-0.14203l2.76735,26.1059c0,0 -7.51543,4.19603 -21.55904,4.50964c-12.48458,0.27879 -20.16049,-4.14586 -20.16049,-4.14586z" fill="#45e652" stroke="#000000" stroke-width="0" stroke-linecap="butt"/><path d="M169.33487,149.8701c-5.27955,-32.88069 18.8367,-64.09523 53.86515,-69.71964c35.02845,-5.62441 67.70454,16.47117 72.98409,49.35184c5.27955,32.88069 -18.8367,64.09523 -53.86515,69.71964c-35.02845,5.62441 -67.70454,-16.47117 -72.98409,-49.35184z" fill="#4dff5b" stroke="#000000" stroke-width="2" stroke-linecap="butt"/><path d="M170.05732,149.80861c-0.11541,-0.71878 14.00606,54.38675 71.5853,46.16932c55.01455,-7.8514 53.52266,-67.28942 53.68418,-66.28346c5.20075,32.38992 -18.62575,63.14983 -53.21794,68.7042c-34.59221,5.55437 -66.85078,-16.20014 -72.05154,-48.59006z" fill="#45e652" stroke="#000000" stroke-width="0" stroke-linecap="butt"/><path d="M182.7951,148.39558c-2.0559,-12.80399 6.65716,-24.85034 19.46115,-26.90622c12.80399,-2.0559 24.85034,6.65716 26.90622,19.46115c2.0559,12.80399 -6.65716,24.85034 -19.46115,26.90622c-12.80399,2.0559 -24.85034,-6.65716 -26.90622,-19.46115z" fill="#ffffff" stroke="#000000" stroke-width="2" stroke-linecap="butt"/><path d="M183.91414,147.55367c-1.44713,-9.01263 4.68591,-17.49195 13.69854,-18.93907c9.01263,-1.44713 17.49195,4.68592 18.93907,13.69855c1.44713,9.01263 -4.68592,17.49195 -13.69855,18.93907c-9.01263,1.44713 -17.49194,-4.68592 -18.93906,-13.69856z" fill="#000000" stroke="none" stroke-width="0" stroke-linecap="butt"/><path d="M263.50711,158.96552c-12.80399,2.0559 -24.85034,-6.65716 -26.90622,-19.46115c-2.0559,-12.80399 6.65716,-24.85034 19.46115,-26.90622c12.80399,-2.0559 24.85034,6.65716 26.90622,19.46115c2.0559,12.80399 -6.65716,24.85034 -19.46115,26.90622z" data-paper-data="{&quot;index&quot;:null}" fill="#ffffff" stroke="#000000" stroke-width="2" stroke-linecap="butt"/><path d="M256.20317,152.68598c-9.01262,1.44712 -17.49194,-4.68592 -18.93906,-13.69856c-1.44713,-9.01263 4.68592,-17.49195 13.69854,-18.93907c9.01262,-1.44712 17.49194,4.68592 18.93906,13.69856c1.44713,9.01263 -4.68592,17.49195 -13.69854,18.93907z" data-paper-data="{&quot;index&quot;:null}" fill="#000000" stroke="none" stroke-width="0" stroke-linecap="butt"/><path d="M182.72686,148.54056c-2.0559,-12.80399 6.65716,-24.85034 19.46115,-26.90622c12.80399,-2.0559 24.85034,6.65716 26.90622,19.46115c0,0 -46.17215,8.66105 -46.3674,7.44507z" fill="#00cc11" stroke="#000000" stroke-width="2" stroke-linecap="butt"/><path d="M236.35406,139.54401c-2.0559,-12.80399 6.65716,-24.85034 19.46115,-26.90622c12.80399,-2.0559 24.85034,6.65716 26.90622,19.46115c0.19243,1.19845 -46.3674,7.44507 -46.3674,7.44507z" data-paper-data="{&quot;index&quot;:null}" fill="#00cc11" stroke="#000000" stroke-width="2" stroke-linecap="butt"/><path d="M190.69248,117.69827c0,0 5.8046,-6.16746 10.63915,-8.15335c4.83458,-1.98589 12.28902,-1.26489 12.28902,-1.26489c0,0 -7.94602,1.21481 -11.6796,2.74847c-3.90173,1.60272 -11.24857,6.66977 -11.24857,6.66977z" fill="#000000" stroke="none" stroke-width="0" stroke-linecap="butt"/><path d="M253.0571,102.82096c-4.02603,-0.28772 -11.95294,1.04614 -11.95294,1.04614c0,0 6.85401,-3.01849 12.06727,-2.64593c5.21326,0.37254 12.65686,4.41279 12.65686,4.41279c0,0 -8.56384,-2.51231 -12.77119,-2.81299z" data-paper-data="{&quot;index&quot;:null}" fill="#000000" stroke="none" stroke-width="0" stroke-linecap="butt"/><path d="M182.68366,147.85792l-3.96667,-1.99638" fill="none" stroke="#000000" stroke-width="2" stroke-linecap="round"/><path d="M308.95924,143.72861c-12.42052,5.19018 -13.62464,-25.94322 -35.94421,-44.4255c-26.20932,-21.70331 -50.15412,-13.91861 -47.08741,-21.75272c3.88036,-9.91263 32.75,-4.97996 52.20429,9.46126c13.12731,9.74461 43.09298,51.59151 30.82734,56.71697z" data-paper-data="{&quot;index&quot;:null}" fill="#00b30f" stroke="#000000" stroke-width="2" stroke-linecap="butt"/><path d="M282.17714,131.67999l3.60785,-4.02286" fill="none" stroke="#000000" stroke-width="2" stroke-linecap="round"/><path d="M254.7978,174.18896c0,0 -6.16086,4.65071 -15.43148,6.18872c-9.27063,1.53802 -16.31167,-1.34503 -16.31167,-1.34503z" fill="#000000" stroke="#000000" stroke-width="2" stroke-linecap="round"/><path d="M306.03735,154.36711c-12.98841,3.53674 -10.14759,-27.49015 -29.88365,-48.70913c-23.1756,-24.91692 -47.92734,-20.30106 -43.87121,-27.67168c5.13228,-9.32615 33.11919,-0.69365 50.53786,16.14701c11.75373,11.36371 36.04345,56.74116 23.21701,60.23379z" data-paper-data="{&quot;index&quot;:null}" fill="#00e613" stroke="#000000" stroke-width="2" stroke-linecap="butt"/><path d="M238.9826,85.08877c0,0 18.33122,-15.7276 16.62378,-25.74796c-0.97585,-5.7269 -11.5765,-13.10718 -14.43316,-22.96255c-3.7651,-12.98946 7.32676,-26.08222 7.32676,-26.08222c0,0 -0.93546,10.77973 2.26816,22.90414c2.55302,9.6622 11.01683,11.39236 16.05968,23.65362c4.93874,12.00816 -3.36099,34.87978 -3.36099,34.87978c0,0 -3.00132,4.76019 -14.12833,1.7099c-10.11864,-2.77388 -10.3559,-8.35467 -10.3559,-8.35467z" fill="#004d05" stroke="#000000" stroke-width="2" stroke-linecap="butt"/><g stroke="#000000" stroke-width="2" stroke-linecap="butt"><path d="M166.35087,149.17341c8.32068,-7.42905 11.3906,-0.11856 3.07029,7.31093c-9.69939,8.66092 -7.84321,24.552 -14.82317,22.63134c-7.88009,-2.16833 3.97779,-23.00035 11.75289,-29.94226z" data-paper-data="{&quot;index&quot;:null}" fill="#006609"/><g><path d="M174.43338,99.19475c15.78086,-18.3843 42.846,-29.5765 48.82152,-20.76681c4.72256,6.96245 -20.35071,4.66324 -41.11425,31.62316c-17.682,22.95876 -11.97441,53.58817 -25.23495,51.2719c-13.09519,-2.28739 6.87911,-49.72293 17.52767,-62.12825z" fill="#00cc11"/><path d="M176.79878,107.65502c13.44157,-20.15794 38.95443,-34.54132 45.95154,-26.51899c5.52995,6.34019 -19.63733,7.09029 -36.98784,36.36351c-14.7755,24.92874 -5.40538,54.64303 -18.84873,53.94754c-13.27571,-0.68682 0.81497,-50.18993 9.88503,-63.79204z" fill="#00e613"/><path d="M242.16918,76.87847c0.06901,2.92431 -6.7885,5.30222 -15.31671,5.31121c-8.52821,0.00899 -15.49762,-2.35434 -15.56662,-5.27865c-0.06901,-2.92431 6.7885,-5.30222 15.31671,-5.31121c8.52821,-0.00899 15.49762,2.35434 15.56662,5.27865z" fill="#00ff15"/><g><path d="M162.7966,120.04238c-0.2587,-3.08341 1.66574,-4.08064 4.12553,-4.28701c2.4598,-0.20638 4.5235,0.45623 4.7822,3.53963c0.2587,3.08341 -1.38555,7.42001 -3.84536,7.6264c-2.4598,0.20638 -4.80367,-3.7956 -5.06239,-6.87902z" fill="#ff80ee"/><path d="M173.47925,140.44986c0.2587,3.08341 -1.66573,4.08064 -4.12553,4.28701c-2.4598,0.20638 -4.5235,-0.45623 -4.7822,-3.53963c-0.2587,-3.08341 1.38556,-7.42001 3.84536,-7.6264c2.4598,-0.20638 4.80367,3.7956 5.06239,6.87902z" fill="#ff80ee"/><path d="M157.93419,135.58745c-3.08341,0.2587 -4.08064,-1.66574 -4.28701,-4.12553c-0.20638,-2.4598 0.45623,-4.5235 3.53963,-4.7822c3.08341,-0.2587 7.42001,1.38556 7.6264,3.84536c0.20638,2.4598 -3.7956,4.80367 -6.87902,5.06239z" fill="#ff80ee"/><path d="M178.34167,124.90478c3.08341,-0.2587 4.08064,1.66574 4.28701,4.12553c0.20638,2.4598 -0.45623,4.5235 -3.53963,4.7822c-3.08341,0.2587 -7.42001,-1.38556 -7.6264,-3.84536c-0.20638,-2.4598 3.7956,-4.80367 6.87902,-5.06239z" fill="#ff80ee"/><path d="M157.14591,126.80788c-2.36323,-1.99738 -1.70759,-4.06329 -0.11418,-5.94858c1.59341,-1.88529 3.5212,-2.876 5.88443,-0.87863c2.36323,1.99738 4.267,6.22647 2.6736,8.11176c-1.59341,1.88529 -6.08062,0.71282 -8.44385,-1.28455z" fill="#ff80ee"/><path d="M179.12995,133.68436c2.36323,1.99738 1.70758,4.06329 0.11417,5.94858c-1.59341,1.88528 -3.5212,2.876 -5.88443,0.87863c-2.36323,-1.99738 -4.267,-6.22647 -2.6736,-8.11176c1.59341,-1.88529 6.08062,-0.71282 8.44386,1.28455z" fill="#ff80ee"/><path d="M164.69968,141.23814c-1.99737,2.36323 -4.0633,1.70759 -5.94858,0.11417c-1.88528,-1.59342 -2.87599,-3.52119 -0.87862,-5.88443c1.99737,-2.36324 6.22648,-4.26701 8.11175,-2.6736c1.88528,1.59342 0.71281,6.08062 -1.28455,8.44386z" fill="#ff80ee"/><path d="M171.57619,119.2541c1.99737,-2.36324 4.0633,-1.70759 5.94858,-0.11417c1.88528,1.59342 2.876,3.52119 0.87863,5.88443c-1.99737,2.36324 -6.22648,4.26701 -8.11176,2.6736c-1.88528,-1.59342 -0.71281,-6.08062 1.28455,-8.44386z" fill="#ff80ee"/><path d="M162.23073,130.61539c-0.27323,-3.25665 2.14529,-6.11818 5.40193,-6.39141c3.25666,-0.27323 6.11818,2.14529 6.39141,5.40193c0.27323,3.25665 -2.14529,6.11818 -5.40193,6.39141c-3.25666,0.27323 -6.11818,-2.14529 -6.39141,-5.40193z" fill="#ffe900"/></g><path d="M182.85331,136.20346c6.14703,-9.30799 10.98244,-3.02416 4.8359,6.28415c-7.16534,10.85117 -1.31161,25.74092 -8.55063,25.66692c-8.17255,-0.08357 -2.02923,-23.25342 3.71472,-31.95106z" data-paper-data="{&quot;index&quot;:null}" fill="#00ff15"/><path d="M173.23302,135.4166c9.47254,-15.29366 18.22081,-27.74945 23.01094,-36.15878c6.0028,-10.53826 12.06456,-25.99136 19.39175,-23.36675c7.65155,2.74078 1.33885,20.60243 -4.86145,31.48742c-4.76994,8.37391 -19.45418,23.41221 -28.88272,38.63656c-11.81653,19.08028 -0.9698,44.474 -13.46222,44.70992c-14.10344,0.26635 -4.66884,-40.01472 4.80371,-55.30837z" fill="#00ff15"/><g><path d="M176.77562,147.13155c-0.18161,-2.16458 1.16935,-2.86462 2.89616,-3.00951c1.7268,-0.14488 3.17552,0.32027 3.35713,2.48484c0.18161,2.16458 -0.97266,5.20889 -2.69946,5.35377c-1.7268,0.14488 -3.37222,-2.66454 -3.55382,-4.82911z" fill="#ff80ee"/><path d="M184.27491,161.45771c0.18161,2.16458 -1.16935,2.86462 -2.89615,3.00951c-1.7268,0.14488 -3.17553,-0.32027 -3.35714,-2.48484c-0.18161,-2.16458 0.97266,-5.20889 2.69947,-5.35377c1.7268,-0.14488 3.37221,2.66454 3.55381,4.82911z" fill="#ff80ee"/><path d="M173.36218,158.04428c-2.16458,0.18161 -2.86462,-1.16935 -3.00951,-2.89616c-0.14488,-1.7268 0.32027,-3.17553 2.48484,-3.35714c2.16458,-0.18161 5.20889,0.97266 5.35377,2.69947c0.14488,1.7268 -2.66454,3.37222 -4.82911,3.55382z" fill="#ff80ee"/><path d="M187.68835,150.54499c2.16458,-0.18161 2.86462,1.16935 3.00951,2.89616c0.14488,1.7268 -0.32027,3.17553 -2.48484,3.35714c-2.16458,0.18161 -5.20889,-0.97266 -5.35377,-2.69947c-0.14488,-1.7268 2.66454,-3.37222 4.82911,-3.55382z" fill="#ff80ee"/><path d="M172.80881,151.88097c-1.65901,-1.40217 -1.19873,-2.85246 -0.08016,-4.17593c1.11858,-1.32347 2.47191,-2.01896 4.1309,-0.61679c1.65901,1.40217 2.99548,4.37103 1.87687,5.69449c-1.11858,1.32347 -4.26862,0.5004 -5.92762,-0.90176z" fill="#ff80ee"/><path d="M188.24173,156.7083c1.65901,1.40217 1.19873,2.85246 0.08016,4.17593c-1.11858,1.32347 -2.47191,2.01896 -4.1309,0.61679c-1.65901,-1.40217 -2.99548,-4.37103 -1.87687,-5.69449c1.11858,-1.32347 4.26862,-0.5004 5.92762,0.90176z" fill="#ff80ee"/><path d="M178.11159,162.0111c-1.40217,1.65901 -2.85246,1.19873 -4.17593,0.08016c-1.32347,-1.11858 -2.01896,-2.47191 -0.61679,-4.1309c1.40217,-1.65901 4.37103,-2.99548 5.69449,-1.87687c1.32347,1.11858 0.5004,4.26862 -0.90176,5.92762z" fill="#ff80ee"/><path d="M182.93894,146.57819c1.40217,-1.65901 2.85246,-1.19873 4.17593,-0.08016c1.32347,1.11858 2.01896,2.47191 0.61679,4.1309c-1.40217,1.65901 -4.37103,2.99548 -5.69449,1.87687c-1.32347,-1.11858 -0.5004,-4.26862 0.90176,-5.92762z" fill="#ff80ee"/><path d="M176.37838,154.55388c-0.19181,-2.28619 1.506,-4.29499 3.79219,-4.4868c2.28619,-0.19181 4.29499,1.50601 4.4868,3.79219c0.19181,2.28619 -1.50601,4.29499 -3.79219,4.4868c-2.28619,0.19181 -4.29499,-1.506 -4.4868,-3.79219z" fill="#ffe900"/></g><path d="M186.39249,145.97958c5.78503,-17.03403 17.10247,-32.23859 19.87573,-41.51064c3.47534,-11.6194 5.90129,-28.04067 13.63132,-27.1336c8.07225,0.94721 5.94421,19.77167 2.35453,31.77338c-2.76158,9.23301 -16.91151,23.67806 -22.66927,40.63466c-7.21603,21.25128 3.47185,44.64851 -10.60672,43.76999c-11.06545,-0.69049 -8.37061,-30.49975 -2.58558,-47.53377z" fill="#00b30f"/><path d="M236.18768,121.75464c-7.1751,-0.96268 0.74917,-14.86151 -4.78954,-26.62639c-4.7512,-10.09209 0.93369,-15.61926 5.68543,-5.52742c4.44015,9.43012 7.2045,33.24063 -0.89588,32.1538z" data-paper-data="{&quot;index&quot;:null}" fill="#00cc11"/><path d="M299.93694,135.34265c-11.892,7.5772 -10.54937,-12.05718 -23.98213,-21.42724c-10.71814,-7.47648 -27.85297,-9.22214 -33.36565,-13.47995c-7.16577,-5.53461 -17.88155,-17.16147 -11.21296,-21.77687c6.3859,-4.41975 16.54704,5.59044 23.48457,10.94875c5.53601,4.27582 20.47528,7.90185 31.24324,15.41199c10.76794,7.51011 23.17983,24.36783 13.83297,30.32334z" data-paper-data="{&quot;index&quot;:null}" fill="#00ff15"/><path d="M200.18284,128.46671c4.56946,-12.30733 14.78,-23.79973 16.89291,-30.46796c2.64784,-8.35641 3.91315,-19.96146 11.67934,-19.96819c8.11,-0.00703 7.31012,13.2426 4.57516,21.87394c-2.10402,6.64017 -15.19028,17.83837 -19.73798,30.08968c-5.69951,15.35425 6.59176,30.72421 -7.49838,31.27369c-11.07454,0.43189 -10.4805,-20.49381 -5.91105,-32.80115z" fill="#00ff15"/><g><path d="M196.6824,85.65573c-0.318,-3.79022 2.04757,-5.01602 5.07121,-5.26971c3.02366,-0.25368 5.5604,0.56081 5.87841,4.35103c0.318,3.79022 -1.70316,9.12087 -4.72682,9.37456c-3.02366,0.25368 -5.90481,-4.66566 -6.22281,-8.45587z" fill="#ff80ee"/><path d="M209.81379,110.74115c0.318,3.79022 -2.04757,5.01602 -5.07121,5.26971c-3.02366,0.25368 -5.5604,-0.56081 -5.87841,-4.35103c-0.318,-3.79022 1.70316,-9.12087 4.72682,-9.37456c3.02366,-0.25368 5.90481,4.66566 6.22281,8.45587z" fill="#ff80ee"/><path d="M190.70539,104.76413c-3.79023,0.318 -5.01602,-2.04757 -5.26971,-5.07121c-0.25368,-3.02366 0.5608,-5.5604 4.35103,-5.87841c3.79023,-0.318 9.12087,1.70316 9.37456,4.72682c0.25368,3.02366 -4.66565,5.90481 -8.45587,6.22281z" fill="#ff80ee"/><path d="M215.79081,91.63274c3.79023,-0.318 5.01602,2.04757 5.26971,5.07121c0.25368,3.02366 -0.5608,5.5604 -4.35103,5.87841c-3.79023,0.318 -9.12087,-1.70316 -9.37456,-4.72682c-0.25368,-3.02366 4.66565,-5.90481 8.45587,-6.22281z" fill="#ff80ee"/><path d="M189.73642,93.97206c-2.90493,-2.45522 -2.09902,-4.9947 -0.14035,-7.31213c1.95866,-2.31743 4.32834,-3.53525 7.23331,-1.08003c2.90493,2.45522 5.24511,7.65374 3.28646,9.97118c-1.95866,2.31743 -7.47445,0.87621 -10.3794,-1.57901z" fill="#ff80ee"/><path d="M216.75978,102.42481c2.90493,2.45522 2.09902,4.9947 0.14035,7.31213c-1.95866,2.31743 -4.32834,3.53525 -7.23331,1.08003c-2.90493,-2.45522 -5.24511,-7.65374 -3.28646,-9.97118c1.95866,-2.31743 7.47446,-0.87621 10.3794,1.57901z" fill="#ff80ee"/><path d="M199.02171,111.71012c-2.45522,2.90493 -4.99471,2.09903 -7.31213,0.14035c-2.31743,-1.95866 -3.53525,-4.32834 -1.08003,-7.23331c2.45522,-2.90493 7.65374,-5.24511 9.97118,-3.28646c2.31743,1.95866 0.87621,7.47446 -1.57901,10.3794z" fill="#ff80ee"/><path d="M207.47447,84.68675c2.45522,-2.90493 4.99471,-2.09903 7.31213,-0.14035c2.31743,1.95866 3.53525,4.32834 1.08003,7.23331c-2.45522,2.90493 -7.65374,5.24511 -9.97118,3.28646c-2.31743,-1.95866 -0.87621,-7.47445 1.57901,-10.3794z" fill="#ff80ee"/><path d="M195.98682,98.65237c-0.33587,-4.00314 2.63705,-7.52061 6.64019,-7.85648c4.00314,-0.33587 7.52061,2.63705 7.85648,6.64019c0.33587,4.00314 -2.63705,7.52061 -6.64019,7.85648c-4.00314,0.33587 -7.52061,-2.63705 -7.85648,-6.64019z" fill="#ffe900"/></g><g><path d="M279.69665,98.02132c-0.18161,-2.16458 1.16935,-2.86462 2.89616,-3.00951c1.7268,-0.14488 3.17553,0.32027 3.35714,2.48484c0.18161,2.16458 -0.97266,5.20889 -2.69947,5.35377c-1.7268,0.14488 -3.37222,-2.66454 -3.55382,-4.82911z" fill="#ff80ee"/><path d="M287.19594,112.34749c0.18161,2.16458 -1.16935,2.86462 -2.89616,3.00951c-1.7268,0.14488 -3.17553,-0.32027 -3.35714,-2.48484c-0.18161,-2.16458 0.97266,-5.20888 2.69947,-5.35376c1.7268,-0.14488 3.37222,2.66454 3.55382,4.8291z" fill="#ff80ee"/><path d="M276.28322,108.93405c-2.16458,0.18161 -2.86462,-1.16935 -3.00951,-2.89616c-0.14488,-1.7268 0.32027,-3.17553 2.48484,-3.35714c2.16458,-0.18161 5.20889,0.97266 5.35377,2.69947c0.14488,1.7268 -2.66454,3.37222 -4.82911,3.55382z" fill="#ff80ee"/><path d="M290.60939,101.43476c2.16458,-0.18161 2.86462,1.16935 3.00951,2.89616c0.14488,1.7268 -0.32027,3.17553 -2.48484,3.35714c-2.16458,0.18161 -5.20889,-0.97266 -5.35377,-2.69947c-0.14488,-1.7268 2.66454,-3.37222 4.82911,-3.55382z" fill="#ff80ee"/><path d="M275.72983,102.77073c-1.659,-1.40217 -1.19873,-2.85246 -0.08016,-4.17593c1.11858,-1.32347 2.47191,-2.01896 4.1309,-0.6168c1.659,1.40217 2.99548,4.37103 1.87687,5.69449c-1.11858,1.32347 -4.26862,0.5004 -5.92762,-0.90176z" fill="#ff80ee"/><path d="M291.16277,107.59807c1.659,1.40217 1.19872,2.85246 0.08015,4.17593c-1.11858,1.32347 -2.47191,2.01896 -4.1309,0.61679c-1.659,-1.40217 -2.99548,-4.37103 -1.87687,-5.69449c1.11858,-1.32347 4.26863,-0.5004 5.92762,0.90176z" fill="#ff80ee"/><path d="M281.03263,112.90086c-1.40216,1.65901 -2.85246,1.19873 -4.17593,0.08016c-1.32347,-1.11858 -2.01896,-2.47191 -0.61679,-4.1309c1.40216,-1.65901 4.37103,-2.99547 5.69449,-1.87687c1.32347,1.11858 0.5004,4.26862 -0.90176,5.92762z" fill="#ff80ee"/><path d="M285.85997,97.46793c1.40216,-1.65901 2.85246,-1.19872 4.17593,-0.08015c1.32347,1.11858 2.01896,2.4719 0.6168,4.1309c-1.40216,1.65901 -4.37103,2.99547 -5.69449,1.87687c-1.32347,-1.11858 -0.5004,-4.26862 0.90176,-5.92762z" fill="#ff80ee"/><path d="M279.29941,105.44363c-0.19181,-2.28618 1.50601,-4.29499 3.79219,-4.4868c2.28619,-0.19181 4.29499,1.50601 4.4868,3.79219c0.19181,2.28618 -1.50601,4.29499 -3.79219,4.4868c-2.28619,0.19181 -4.29499,-1.50601 -4.4868,-3.79219z" fill="#ffe900"/></g></g></g></g></g></svg>