<svg version="1.1" xmlns="http://www.w3.org/2000/svg" xmlns:xlink="http://www.w3.org/1999/xlink" width="194.6802" height="267.22501" viewBox="0,0,194.6802,267.22501"><defs><linearGradient x1="262.77621" y1="112.05702" x2="337.50263" y2="112.05702" gradientUnits="userSpaceOnUse" id="color-1"><stop offset="0" stop-color="#000000"/><stop offset="1" stop-color="#333333"/></linearGradient><linearGradient x1="142.82237" y1="115.0285" x2="218.84498" y2="115.0285" gradientUnits="userSpaceOnUse" id="color-2"><stop offset="0" stop-color="#333333"/><stop offset="1" stop-color="#000000"/></linearGradient><linearGradient x1="240.00006" y1="175.50001" x2="240.00006" y2="307.50001" gradientUnits="userSpaceOnUse" id="color-3"><stop offset="0" stop-color="#000000"/><stop offset="1" stop-color="#595959"/></linearGradient><linearGradient x1="240.50004" y1="78.70167" x2="240.50004" y2="198.04834" gradientUnits="userSpaceOnUse" id="color-4"><stop offset="0" stop-color="#1a1a1a"/><stop offset="1" stop-color="#404040"/></linearGradient></defs><g transform="translate(-142.82243,-46.38751)"><g data-paper-data="{&quot;isPaintingLayer&quot;:true}" fill-rule="nonzero" stroke-linejoin="miter" stroke-miterlimit="10" stroke-dasharray="" stroke-dashoffset="0" style="mix-blend-mode: normal"><path d="M179.28379,313.61252v-267.22501h123.18203v267.22501z" fill-opacity="0.01" fill="#000000" stroke="none" stroke-width="0" stroke-linecap="butt"/><path d="M273.90272,94.69087c10.70956,-5.96082 63.5999,-8.70888 63.5999,-8.70888c0,0 -30.20672,43.50281 -40.91628,49.46362c-10.70956,5.96082 -24.46927,1.66975 -30.73318,-9.58436c-6.26391,-11.2541 -2.66,-25.20956 8.04956,-31.17038z" data-paper-data="{&quot;index&quot;:null}" fill="url(#color-1)" stroke="#000000" stroke-width="0" stroke-linecap="butt"/><path d="M216.30988,126.58788c-5.71447,11.5428 -19.25149,16.49176 -30.23577,11.0538c-10.98428,-5.43796 -43.25168,-47.43505 -43.25168,-47.43505c0,0 52.96132,0.19688 63.94561,5.63484c10.98428,5.43796 15.25631,19.2036 9.54184,30.7464z" data-paper-data="{&quot;index&quot;:null}" fill="url(#color-2)" stroke="#000000" stroke-width="0" stroke-linecap="butt"/><path d="M206.75007,307.5l15.14285,-131.8421l37.78325,-0.15789l13.57389,132z" fill="url(#color-3)" stroke="#000000" stroke-width="0" stroke-linecap="butt"/><path d="M176.26302,139c0,-33.30185 28.7599,-60.29833 64.23702,-60.29833c35.47713,0 64.23702,26.99648 64.23702,60.29833c0,13.26154 -3.22743,25.52317 -10.95697,35.47823c-11.68057,15.0437 -31.9307,23.57011 -53.28005,23.57011c-21.82155,0 -42.43509,-8.96367 -54.04443,-24.57601c-7.26494,-9.76995 -10.19259,-21.65405 -10.19259,-34.47233z" fill="url(#color-4)" stroke="#000000" stroke-width="0" stroke-linecap="butt"/><path d="M189.89019,140.52563c0,-12.96801 10.51265,-23.48065 23.48066,-23.48065c12.96801,0 23.48065,10.51264 23.48065,23.48065c0,12.96801 -10.51264,23.48066 -23.48065,23.48066c-12.96801,0 -23.48066,-10.51265 -23.48066,-23.48066z" fill="#000000" stroke="#000000" stroke-width="2" stroke-linecap="butt"/><path d="M189.89019,139.27563c0,-12.96801 10.51265,-23.48065 23.48066,-23.48065c12.96801,0 23.48065,10.51264 23.48065,23.48065c0,12.96801 -10.51264,23.48066 -23.48065,23.48066c-12.96801,0 -23.48066,-10.51265 -23.48066,-23.48066z" fill="#808080" stroke="#000000" stroke-width="2" stroke-linecap="butt"/><path d="M202.00559,139c0,-6.22858 5.04926,-11.27784 11.27784,-11.27784c6.22858,0 11.27784,5.04927 11.27784,11.27785c0,6.22858 -5.04927,11.27785 -11.27784,11.27785c-6.22858,0 -11.27784,-5.04927 -11.27784,-11.27785z" fill="#1a1a1a" stroke="none" stroke-width="0" stroke-linecap="butt"/><path d="M207.19148,139c0,-3.36449 2.72746,-6.09195 6.09195,-6.09195c3.36449,0 6.09195,2.72746 6.09195,6.09196c0,3.36449 -2.72746,6.09196 -6.09195,6.09196c-3.36449,0 -6.09195,-2.72747 -6.09195,-6.09196z" fill="#808080" stroke="none" stroke-width="0" stroke-linecap="butt"/><path d="M267.62926,164.00629c-12.96801,0 -23.48065,-10.51265 -23.48065,-23.48066c0,-12.96801 10.51264,-23.48065 23.48065,-23.48065c12.96801,0 23.48066,10.51264 23.48066,23.48065c0,12.96801 -10.51265,23.48066 -23.48066,23.48066z" data-paper-data="{&quot;index&quot;:null}" fill="#000000" stroke="#000000" stroke-width="2" stroke-linecap="butt"/><path d="M267.62926,162.75629c-12.96801,0 -23.48065,-10.51265 -23.48065,-23.48066c0,-12.96801 10.51264,-23.48065 23.48065,-23.48065c12.96801,0 23.48066,10.51264 23.48066,23.48065c0,12.96801 -10.51265,23.48066 -23.48066,23.48066z" data-paper-data="{&quot;index&quot;:null}" fill="#808080" stroke="#000000" stroke-width="2" stroke-linecap="butt"/><path d="M279.49451,139c0,6.50473 -5.27312,11.77785 -11.77784,11.77785c-6.50472,0 -11.77784,-5.27313 -11.77784,-11.77785c0,-6.50473 5.27312,-11.77785 11.77784,-11.77785c6.50472,0 11.77784,5.27312 11.77784,11.77784z" data-paper-data="{&quot;index&quot;:null}" fill="#1a1a1a" stroke="none" stroke-width="0" stroke-linecap="butt"/><path d="M274.07867,139c0,3.51365 -2.84837,6.36204 -6.36203,6.36204c-3.51365,0 -6.36204,-2.84839 -6.36204,-6.36204c0,-3.51365 2.84839,-6.36204 6.36204,-6.36204c3.51365,0 6.36203,2.84838 6.36203,6.36204z" data-paper-data="{&quot;index&quot;:null}" fill="#808080" stroke="none" stroke-width="0" stroke-linecap="butt"/><path d="M203.37319,114.41488c0,0 5.62337,-6.33313 10.39834,-8.45834c4.77498,-2.12521 12.24719,-1.62059 12.24719,-1.62059c0,0 -7.90747,1.44465 -11.59502,3.08589c-3.85363,1.71515 -11.0505,6.99304 -11.0505,6.99304z" fill="#000000" stroke="none" stroke-width="0" stroke-linecap="butt"/><path d="M266.7605,107.6758c-3.65166,-1.71961 -11.52647,-3.33279 -11.52647,-3.33279c0,0 7.48128,-0.34495 12.20978,1.88175c4.7285,2.2267 10.21534,8.67847 10.21534,8.67847c0,0 -7.08252,-5.43037 -10.89865,-7.22743z" data-paper-data="{&quot;index&quot;:null}" fill="#000000" stroke="none" stroke-width="0" stroke-linecap="butt"/><path d="M194.08896,165.91643c0,-0.41421 0.33579,-0.75 0.75,-0.75c0.41421,0 0.75,0.33579 0.75,0.75c0,0.41421 -0.33579,0.75 -0.75,0.75c-0.41421,0 -0.75,-0.33579 -0.75,-0.75z" fill="#000000" stroke="none" stroke-width="0.5" stroke-linecap="butt"/><path d="M204.88896,170.31643c0,-0.41421 0.33579,-0.75 0.75,-0.75c0.41421,0 0.75,0.33579 0.75,0.75c0,0.41421 -0.33579,0.75 -0.75,0.75c-0.41421,0 -0.75,-0.33579 -0.75,-0.75z" fill="#000000" stroke="none" stroke-width="0.5" stroke-linecap="butt"/><path d="M198.68894,175.11643c0,-0.41421 0.33579,-0.75 0.75,-0.75c0.41421,0 0.75,0.33579 0.75,0.75c0,0.41421 -0.33579,0.75 -0.75,0.75c-0.41421,0 -0.75,-0.33579 -0.75,-0.75z" fill="#000000" stroke="none" stroke-width="0.5" stroke-linecap="butt"/><path d="M286.16116,166.66643c-0.41422,0 -0.75,-0.33578 -0.75,-0.75c0,-0.41422 0.33578,-0.75 0.75,-0.75c0.41422,0 0.75,0.33578 0.75,0.75c0,0.41422 -0.33578,0.75 -0.75,0.75z" data-paper-data="{&quot;index&quot;:null}" fill="#000000" stroke="none" stroke-width="0.5" stroke-linecap="butt"/><path d="M275.36117,171.06643c-0.41422,0 -0.75,-0.33578 -0.75,-0.75c0,-0.41422 0.33578,-0.75 0.75,-0.75c0.41422,0 0.75,0.33578 0.75,0.75c0,0.41422 -0.33578,0.75 -0.75,0.75z" data-paper-data="{&quot;index&quot;:null}" fill="#000000" stroke="none" stroke-width="0.5" stroke-linecap="butt"/><path d="M281.56111,175.86643c-0.41422,0 -0.75,-0.33578 -0.75,-0.75c0,-0.41422 0.33578,-0.75 0.75,-0.75c0.41422,0 0.75,0.33578 0.75,0.75c0,0.41422 -0.33578,0.75 -0.75,0.75z" data-paper-data="{&quot;index&quot;:null}" fill="#000000" stroke="none" stroke-width="0.5" stroke-linecap="butt"/><path d="M189.8069,139.36806c0,-12.96801 10.51265,-23.48065 23.48066,-23.48065c12.96801,0 23.48065,10.51264 23.48065,23.48065c0,0 -6.95852,-9.89634 -23.43307,-10.03879c-16.22494,-0.14029 -23.52823,10.6554 -23.52823,10.03879z" fill="#000000" stroke="#000000" stroke-width="2" stroke-linecap="butt"/><path d="M244.14869,139.26806c0,-12.96801 10.51264,-23.48065 23.48065,-23.48065c12.96801,0 23.48066,10.51264 23.48066,23.48065c0,0.60606 -7.87275,-9.63438 -22.92496,-10.031c-15.05221,-0.39662 -24.03635,10.031 -24.03635,10.031z" data-paper-data="{&quot;index&quot;:null}" fill="#000000" stroke="#000000" stroke-width="2" stroke-linecap="butt"/><path d="M257.61662,178.65644h-36.3596" fill="none" stroke="#000000" stroke-width="1" stroke-linecap="round"/></g></g></svg>