<svg version="1.1" xmlns="http://www.w3.org/2000/svg" xmlns:xlink="http://www.w3.org/1999/xlink" width="35.12501" height="35.12434" viewBox="0,0,35.12501,35.12434"><g transform="translate(-222.43752,-162.43783)"><g data-paper-data="{&quot;isPaintingLayer&quot;:true}" stroke-miterlimit="10" stroke-dasharray="" stroke-dashoffset="0" style="mix-blend-mode: normal"><path d="M257.56251,169.8317v20.49804c0,4.00745 -3.22497,7.23243 -7.23242,7.23243h-20.5c-3.66107,0 -6.66147,-2.69385 -7.1543,-6.21484c0.7952,3.03475 3.54108,5.26367 6.83204,5.26367h20.0332c3.9166,0 7.07032,-3.15372 7.07032,-7.07031v-20.03321c0,-3.2976 -2.23906,-6.0451 -5.28321,-6.83398c3.52994,0.48496 6.23438,3.49081 6.23438,7.15821z" fill-opacity="0.29839" fill="#000000" fill-rule="evenodd" stroke="none" stroke-width="4.54219" stroke-linecap="round" stroke-linejoin="round"/><path d="M229.50719,162.43783h20.03378c3.9166,0 7.06966,3.15307 7.06966,7.06966v20.03379c0,3.91659 -3.15307,7.06966 -7.06966,7.06966h-20.03378c-3.91659,0 -7.06967,-3.15307 -7.06967,-7.06966v-20.03379c0,-3.91659 3.15308,-7.06966 7.06967,-7.06966z" fill="#4df6ff" fill-rule="evenodd" stroke="none" stroke-width="4.43922" stroke-linecap="round" stroke-linejoin="round"/><path d="M245.86528,177.84592c0,-2.41923 1.96118,-4.38041 4.38041,-4.38041c2.41923,0 4.38041,1.96118 4.38041,4.38041c0,2.41923 -1.96118,4.38041 -4.38041,4.38041c-2.41923,0 -4.38041,-1.96117 -4.38041,-4.38041z" fill="#4df6ff" fill-rule="nonzero" stroke="#000000" stroke-width="0.5" stroke-linecap="butt" stroke-linejoin="miter"/><path d="M247.3026,177.91436c0,-1.66322 1.34831,-3.01153 3.01153,-3.01153c1.66322,0 3.01153,1.34831 3.01153,3.01153c0,1.66322 -1.34831,3.01153 -3.01153,3.01153c-1.66322,0 -3.01153,-1.34831 -3.01153,-3.01153z" fill="#ccfcff" fill-rule="nonzero" stroke="#000000" stroke-width="0.5" stroke-linecap="butt" stroke-linejoin="miter"/><path d="M224.37391,177.84592c0,-2.41923 1.96118,-4.38041 4.38041,-4.38041c2.41923,0 4.38041,1.96118 4.38041,4.38041c0,2.41923 -1.96118,4.38041 -4.38041,4.38041c-2.41923,0 -4.38041,-1.96117 -4.38041,-4.38041z" fill="#4df6ff" fill-rule="nonzero" stroke="#000000" stroke-width="0.5" stroke-linecap="butt" stroke-linejoin="miter"/><path d="M225.81123,177.91436c0,-1.66322 1.34831,-3.01153 3.01153,-3.01153c1.66322,0 3.01153,1.34831 3.01153,3.01153c0,1.66322 -1.34831,3.01153 -3.01153,3.01153c-1.66322,0 -3.01153,-1.34831 -3.01153,-3.01153z" fill="#ccfcff" fill-rule="nonzero" stroke="#000000" stroke-width="0.5" stroke-linecap="butt" stroke-linejoin="miter"/><path d="M226.41528,187.63621c0,-6.83792 5.90532,-12.38115 13.18989,-12.38115c7.28457,0 13.18989,5.54323 13.18989,12.38115" fill="#4df6ff" fill-rule="nonzero" stroke="#000000" stroke-width="0.5" stroke-linecap="butt" stroke-linejoin="miter"/><path d="M238.78285,176.88823c0,0 -0.06505,-2.29754 0.88006,-3.87856c1.3632,-2.28041 2.94351,-1.52641 2.94351,-1.52641c0,0 -1.36613,1.39602 -1.8443,2.27236c-0.45288,0.82999 -0.45133,3.39509 -0.45133,3.39509" fill="#4df6ff" fill-rule="nonzero" stroke="#000000" stroke-width="0.5" stroke-linecap="round" stroke-linejoin="miter"/></g></g></svg>