<svg version="1.1" xmlns="http://www.w3.org/2000/svg" xmlns:xlink="http://www.w3.org/1999/xlink" width="153" height="267.22501" viewBox="0,0,153,267.22501"><g transform="translate(-164.34722,-46.38751)"><g data-paper-data="{&quot;isPaintingLayer&quot;:true}" fill-rule="nonzero" stroke-linecap="butt" stroke-linejoin="miter" stroke-miterlimit="10" stroke-dasharray="" stroke-dashoffset="0" style="mix-blend-mode: normal"><path d="M179.28384,313.61252v-267.22501h123.18203v267.22501z" fill-opacity="0.01" fill="#000000" stroke="none" stroke-width="0"/><path d="M206.75016,307.5l15.14285,-131.8421l37.78325,-0.15789l13.57389,132z" fill="#0b00ff" stroke="#000000" stroke-width="2"/><path d="M210.42398,250.08801l8.20157,-86.27259l44.60128,-0.22518l7.50395,87.0552l-30.23979,-11.89646z" fill="#050066" stroke="#000000" stroke-width="2"/><path d="M316.34722,133.02256c0,44.597 -33.8025,80.75 -75.5,80.75c-41.6975,0 -75.5,-36.15301 -75.5,-80.75c0,-44.59699 33.8025,-80.75 75.5,-80.75c41.6975,0 75.5,36.15301 75.5,80.75z" fill="#060080" stroke="#000000" stroke-width="2"/><path d="M308.02021,138.16667c0,38.06162 -30.45365,68.91667 -68.02013,68.91667c-37.56647,0 -68.02013,-30.85504 -68.02013,-68.91667c0,-38.06162 30.45365,-68.91667 68.02013,-68.91667c37.56647,0 68.02013,30.85504 68.02013,68.91667z" fill="#000000" stroke="none" stroke-width="0"/><path d="M175.84007,139.84616c0,-33.30185 28.7599,-60.29833 64.23702,-60.29833c35.47712,0 64.23702,26.99649 64.23702,60.29833c0,33.30185 -28.7599,60.29833 -64.23702,60.29833c-35.47712,0 -64.23702,-26.99649 -64.23702,-60.29833z" fill="#0b00ff" stroke="#000000" stroke-width="2"/><path d="M176.56313,139.9c0,-0.72799 5.20666,55.91939 63.36046,56.93429c55.56352,0.9697 63.51358,-57.95314 63.51358,-56.93429c0,32.80479 -28.40173,59.39833 -63.43702,59.39833c-35.03529,0 -63.43702,-26.59354 -63.43702,-59.39833z" fill="#0b00e6" stroke="#000000" stroke-width="0"/><path d="M175.59732,154.79108c0,0 -8.73921,-80.9842 66.75,-79.5c77.52968,1.52431 61,82.25 61,82.25c0,0 -24.63436,12.69075 -63.02896,13.02851c-34.39482,0.30257 -64.72104,-15.77851 -64.72104,-15.77851z" fill-opacity="0.20144" fill="#000000" stroke="none" stroke-width="0"/><path d="M189.39028,140.27563c0,-12.968 10.51265,-23.48065 23.48065,-23.48065c12.968,0 23.48065,10.51265 23.48065,23.48065c0,12.968 -10.51265,23.48065 -23.48065,23.48065c-12.968,0 -23.48065,-10.51265 -23.48065,-23.48065z" fill="#ffffff" stroke="#000000" stroke-width="2"/><path d="M196.45567,140c0,-9.12808 7.39976,-16.52784 16.52783,-16.52784c9.12808,0 16.52784,7.39977 16.52784,16.52784c0,9.12808 -7.39977,16.52784 -16.52784,16.52784c-9.12808,0 -16.52783,-7.39977 -16.52783,-16.52784z" fill="#000000" stroke="none" stroke-width="0"/><path d="M267.12936,163.75627c-12.968,0 -23.48065,-10.51265 -23.48065,-23.48065c0,-12.968 10.51265,-23.48065 23.48065,-23.48065c12.968,0 23.48065,10.51265 23.48065,23.48065c0,12.968 -10.51265,23.48065 -23.48065,23.48065z" data-paper-data="{&quot;index&quot;:null}" fill="#ffffff" stroke="#000000" stroke-width="2"/><path d="M267.01671,156.52784c-9.12807,0 -16.52783,-7.39977 -16.52783,-16.52784c0,-9.12808 7.39977,-16.52784 16.52783,-16.52784c9.12807,0 16.52783,7.39977 16.52783,16.52784c0,9.12808 -7.39977,16.52784 -16.52783,16.52784z" data-paper-data="{&quot;index&quot;:null}" fill="#000000" stroke="none" stroke-width="0"/><path d="M189.64017,140.38277c0,-12.96801 10.51265,-23.48065 23.48066,-23.48065c12.96801,0 23.48065,10.51264 23.48065,23.48065c0,0 -5.87479,7.43483 -24.09973,8.04454c-16.46595,0.55086 -22.86157,-7.42793 -22.86157,-8.04454z" fill="#0900cc" stroke="#000000" stroke-width="2"/><path d="M243.64862,139.88277c0,-12.96801 10.51264,-23.48065 23.48065,-23.48065c12.96801,0 23.48066,10.51264 23.48066,23.48065c0,0.60606 -6.03889,8.15023 -23.59162,8.05233c-17.30256,-0.0965 -23.36969,-8.05233 -23.36969,-8.05233z" data-paper-data="{&quot;index&quot;:null}" fill="#0900cc" stroke="#000000" stroke-width="2"/><path d="M201.44555,109.55152c0,0 8.05646,-2.61235 13.25003,-2.02621c5.19358,0.58614 11.38078,4.80599 11.38078,4.80599c0,0 -7.54982,-2.75958 -11.56065,-3.21223c-4.19147,-0.47304 -13.07017,0.43245 -13.07017,0.43245z" fill="#000000" stroke="none" stroke-width="0"/><path d="M265.60492,109.12428c-4.00872,0.47103 -11.54581,3.26519 -11.54581,3.26519c0,0 6.16779,-4.24817 11.35864,-4.85811c5.19083,-0.60994 13.25918,1.96546 13.25918,1.96546c0,0 -8.88275,-0.86478 -13.07201,-0.37254z" data-paper-data="{&quot;index&quot;:null}" fill="#000000" stroke="none" stroke-width="0"/><path d="M244.87507,183c0,3.67144 -2.18261,6.64773 -4.875,6.64773c-2.69239,0 -4.875,-2.97629 -4.875,-6.64773c0,-3.67144 2.18261,-6.64773 4.875,-6.64773c2.69239,0 4.875,2.97629 4.875,6.64773z" fill="#000000" stroke="none" stroke-width="0"/></g></g></svg>