<svg version="1.1" xmlns="http://www.w3.org/2000/svg" xmlns:xlink="http://www.w3.org/1999/xlink" width="35.625" height="35.62434" viewBox="0,0,35.625,35.62434"><g transform="translate(-221.93752,-161.93783)"><g data-paper-data="{&quot;isPaintingLayer&quot;:true}" stroke-miterlimit="10" stroke-dasharray="" stroke-dashoffset="0" style="mix-blend-mode: normal"><path d="M257.56251,169.8317v20.49804c0,4.00745 -3.22497,7.23243 -7.23242,7.23243h-20.5c-3.66107,0 -6.66147,-2.69385 -7.1543,-6.21484c0.7952,3.03475 3.54108,5.26367 6.83204,5.26367h20.0332c3.9166,0 7.07032,-3.15372 7.07032,-7.07031v-20.03321c0,-3.2976 -2.23906,-6.0451 -5.28321,-6.83398c3.52994,0.48496 6.23438,3.49081 6.23438,7.15821z" fill-opacity="0.29839" fill="#000000" fill-rule="evenodd" stroke="none" stroke-width="4.54219" stroke-linecap="round" stroke-linejoin="round"/><path d="M229.50719,162.43783h20.03378c3.9166,0 7.06966,3.15307 7.06966,7.06966v20.03379c0,3.91659 -3.15307,7.06966 -7.06966,7.06966h-20.03378c-3.91659,0 -7.06967,-3.15307 -7.06967,-7.06966v-20.03379c0,-3.91659 3.15308,-7.06966 7.06967,-7.06966z" fill="#000000" fill-rule="evenodd" stroke="#ffffff" stroke-width="1" stroke-linecap="round" stroke-linejoin="round"/><g fill="#000000" fill-rule="nonzero" stroke="#ffffff" stroke-width="0.5" stroke-linecap="butt" stroke-linejoin="miter"><path d="M255.1574,183.75257c0,2.09457 -6.95627,3.79256 -15.53725,3.79256c-8.58099,0 -15.53725,-1.69799 -15.53725,-3.79256c0,-2.09457 6.95627,-3.79256 15.53725,-3.79256c8.58099,0 15.53725,1.69799 15.53725,3.79256z"/><path d="M229.95524,183.68384v-9.72467c0,0 2.22633,-2.11187 9.9334,-2.25751c7.79015,-0.14721 9.39641,2.25751 9.39641,2.25751v9.72467c0,0 -2.05075,1.09871 -9.45758,0.92616c-6.61925,-0.15421 -9.87223,-0.92616 -9.87223,-0.92616z"/></g></g></g></svg>