<svg version="1.1" xmlns="http://www.w3.org/2000/svg" xmlns:xlink="http://www.w3.org/1999/xlink" width="167.78985" height="323.13404" viewBox="0,0,167.78985,323.13404"><g transform="translate(-171.83997,9.52152)"><g data-paper-data="{&quot;isPaintingLayer&quot;:true}" fill-rule="nonzero" stroke-linejoin="miter" stroke-miterlimit="10" stroke-dasharray="" stroke-dashoffset="0" style="mix-blend-mode: normal"><path d="M179.48376,313.61252v-267.22501h123.18203v267.22501z" fill-opacity="0.01" fill="#000000" stroke="none" stroke-width="0" stroke-linecap="butt"/><path d="M206.75008,307.5l15.14285,-131.8421l37.78325,-0.15789l13.57389,132z" fill="#804400" stroke="#000000" stroke-width="2" stroke-linecap="butt"/><path d="M219.7003,204.11263l3.12142,-26.32765l35.83075,-0.14203l2.76735,26.1059c0,0 -7.51543,4.19603 -21.55904,4.50964c-12.48458,0.27879 -20.16049,-4.14586 -20.16049,-4.14586z" fill="#663600" stroke="#000000" stroke-width="0" stroke-linecap="butt"/><path d="M172.83998,138.84616c0,-33.30185 28.7599,-60.29833 64.23702,-60.29833c35.47712,0 64.23702,26.99649 64.23702,60.29833c0,33.30185 -28.7599,60.29833 -64.23702,60.29833c-35.47712,0 -64.23702,-26.99649 -64.23702,-60.29833z" fill="#804400" stroke="#000000" stroke-width="2" stroke-linecap="butt"/><path d="M173.56304,138.9c0,-0.72799 5.20666,55.91939 63.36046,56.93429c55.56352,0.9697 63.51358,-57.95314 63.51358,-56.93429c0,32.80479 -28.40173,59.39833 -63.43702,59.39833c-35.03529,0 -63.43702,-26.59354 -63.43702,-59.39833z" fill="#663600" stroke="#000000" stroke-width="0" stroke-linecap="butt"/><path d="M186.39021,139.27563c0,-12.968 10.51265,-23.48065 23.48065,-23.48065c12.968,0 23.48065,10.51265 23.48065,23.48065c0,12.968 -10.51265,23.48065 -23.48065,23.48065c-12.968,0 -23.48065,-10.51265 -23.48065,-23.48065z" fill="#ffffff" stroke="#000000" stroke-width="2" stroke-linecap="butt"/><path d="M186.95558,141.25c0,-9.12808 7.39976,-16.52784 16.52783,-16.52784c9.12808,0 16.52784,7.39977 16.52784,16.52784c0,9.12808 -7.39977,16.52784 -16.52784,16.52784c-9.12808,0 -16.52783,-7.39977 -16.52783,-16.52784z" fill="#000000" stroke="none" stroke-width="0" stroke-linecap="butt"/><path d="M264.12928,162.75627c-12.968,0 -23.48065,-10.51265 -23.48065,-23.48065c0,-12.968 10.51265,-23.48065 23.48065,-23.48065c12.968,0 23.48065,10.51265 23.48065,23.48065c0,12.968 -10.51265,23.48065 -23.48065,23.48065z" data-paper-data="{&quot;index&quot;:null}" fill="#ffffff" stroke="#000000" stroke-width="2" stroke-linecap="butt"/><path d="M270.51671,153.02784c-9.12807,0 -16.52783,-7.39977 -16.52783,-16.52784c0,-9.12808 7.39977,-16.52784 16.52783,-16.52784c9.12807,0 16.52783,7.39977 16.52783,16.52784c0,9.12808 -7.39977,16.52784 -16.52783,16.52784z" data-paper-data="{&quot;index&quot;:null}" fill="#000000" stroke="none" stroke-width="0" stroke-linecap="butt"/><path d="M199.02789,110.46716c0,0 6.70895,-5.16922 11.79721,-6.36355c5.08827,-1.19433 12.33413,0.69937 12.33413,0.69937c0,0 -8.03812,-0.06028 -11.96762,0.86207c-4.10648,0.96389 -12.16372,4.80211 -12.16372,4.80211z" fill="#000000" stroke="none" stroke-width="0" stroke-linecap="butt"/><path d="M262.96236,105.66506c-3.9295,-0.92235 -11.96762,-0.86207 -11.96762,-0.86207c0,0 7.24586,-1.8937 12.33413,-0.69937c5.08826,1.19433 11.79721,6.36355 11.79721,6.36355c0,0 -8.05724,-3.83822 -12.16372,-4.80211z" data-paper-data="{&quot;index&quot;:null}" fill="#000000" stroke="none" stroke-width="0" stroke-linecap="butt"/><path d="M231.73891,81.46235c0,-5.37706 5.3,-38.04221 5.3,-38.04221c0,0 5.3,32.66517 5.3,38.04221" fill="#804400" stroke="#000000" stroke-width="2" stroke-linecap="butt"/><g stroke="#000000"><path d="M331.76054,22.53394l-30.3937,102.83695c0,0 -24.51919,-1.22149 -53.83555,-15.17761c-28.52067,-13.57734 -41.70175,-26.09867 -41.70175,-26.09867l54.96044,-92.22305c0,0 15.96719,-1.46767 39.38468,9.1655c22.72661,10.31947 31.58589,21.49689 31.58589,21.49689z" fill="#333333" stroke-width="2" stroke-linecap="butt"/><path d="M331.76054,22.53394l-30.3937,102.83695c0,0 -24.51919,-1.22149 -53.83555,-15.17761c-28.52067,-13.57734 -41.70175,-26.09867 -41.70175,-26.09867l54.96044,-92.22305c0,0 22.06049,13.91889 33.7677,18.97692c11.94487,5.1607 37.20287,11.68546 37.20287,11.68546z" fill="#808080" stroke-width="2" stroke-linecap="butt"/><path d="M300.83565,124.53508c0,0 14.14261,23.71286 -18.71488,25.03815c-37.64455,1.51838 -76.66231,-65.43546 -76.66231,-65.43546" fill="none" stroke-width="2" stroke-linecap="round"/><path d="M330.50784,23.21878l-29.6844,101.33188c0,0 -26.74658,-2.79185 -54.43766,-15.97425c-26.9395,-12.82462 -39.2617,-24.81449 -39.2617,-24.81449l7.22623,-12.12554c0,0 15.47114,32.63708 52.75758,29.88875c34.73023,-2.55992 63.39995,-78.30635 63.39995,-78.30635z" fill="#666666" stroke-width="0" stroke-linecap="butt"/></g><path d="M244.31954,183.56667c0,6.2856 -3.27702,11.38106 -7.31944,11.38106c-4.04241,0 -7.31944,-5.09548 -7.31944,-11.38106c0,-6.2856 3.27702,-11.38106 7.31944,-11.38106c4.04241,0 7.31944,5.09548 7.31944,11.38106z" fill="#000000" stroke="none" stroke-width="0" stroke-linecap="butt"/></g></g></svg>