<svg version="1.1" xmlns="http://www.w3.org/2000/svg" xmlns:xlink="http://www.w3.org/1999/xlink" width="161.08558" height="289.66822" viewBox="0,0,161.08558,289.66822"><defs><linearGradient x1="240.00007" y1="175.50001" x2="240.00007" y2="307.50001" gradientUnits="userSpaceOnUse" id="color-1"><stop offset="0" stop-color="#000000"/><stop offset="1" stop-color="#1f6625"/></linearGradient><linearGradient x1="227.85345" y1="76.54058" x2="236.88391" y2="206.22436" gradientUnits="userSpaceOnUse" id="color-2"><stop offset="0" stop-color="#071a09"/><stop offset="1" stop-color="#26802e"/></linearGradient><linearGradient x1="262.16637" y1="140.344" x2="266.18846" y2="198.10414" gradientUnits="userSpaceOnUse" id="color-3"><stop offset="0" stop-color="#1a0000"/><stop offset="1" stop-color="#800000"/></linearGradient><linearGradient x1="204.32941" y1="140.69591" x2="208.59464" y2="201.94759" gradientUnits="userSpaceOnUse" id="color-4"><stop offset="0" stop-color="#1a0000"/><stop offset="1" stop-color="#800000"/></linearGradient><linearGradient x1="184.03871" y1="70.66832" x2="189.66962" y2="151.5321" gradientUnits="userSpaceOnUse" id="color-5"><stop offset="0" stop-color="#000000"/><stop offset="1" stop-color="#1a0e00"/></linearGradient><linearGradient x1="188.11367" y1="73.99675" x2="194.24054" y2="161.98291" gradientUnits="userSpaceOnUse" id="color-6"><stop offset="0" stop-color="#000000"/><stop offset="1" stop-color="#331b00"/></linearGradient><linearGradient x1="269.11314" y1="70.27723" x2="275.34834" y2="159.81904" gradientUnits="userSpaceOnUse" id="color-7"><stop offset="0" stop-color="#000000"/><stop offset="1" stop-color="#331b00"/></linearGradient><linearGradient x1="184.90326" y1="71.07043" x2="192.61072" y2="181.75485" gradientUnits="userSpaceOnUse" id="color-8"><stop offset="0" stop-color="#000000"/><stop offset="1" stop-color="#4d2900"/></linearGradient><linearGradient x1="233.25748" y1="77.53565" x2="235.88473" y2="115.26479" gradientUnits="userSpaceOnUse" id="color-9"><stop offset="0" stop-color="#000000"/><stop offset="1" stop-color="#1a0e00"/></linearGradient><linearGradient x1="262.82015" y1="69.02604" x2="267.29063" y2="133.22527" gradientUnits="userSpaceOnUse" id="color-10"><stop offset="0" stop-color="#000000"/><stop offset="1" stop-color="#4d2900"/></linearGradient><linearGradient x1="206.20802" y1="74.46653" x2="211.21423" y2="146.35917" gradientUnits="userSpaceOnUse" id="color-11"><stop offset="0" stop-color="#000000"/><stop offset="1" stop-color="#4d2900"/></linearGradient><linearGradient x1="255.71565" y1="104.11532" x2="259.51417" y2="158.66472" gradientUnits="userSpaceOnUse" id="color-12"><stop offset="0" stop-color="#000000" stop-opacity="0"/><stop offset="1" stop-color="#000000" stop-opacity="0.49989"/></linearGradient><radialGradient cx="266.56006" cy="47.42589" r="23.48065" gradientUnits="userSpaceOnUse" id="color-13"><stop offset="0" stop-color="#808080"/><stop offset="1" stop-color="#1a0000"/></radialGradient><linearGradient x1="204.96977" y1="116.14342" x2="208.17964" y2="162.23937" gradientUnits="userSpaceOnUse" id="color-14"><stop offset="0" stop-color="#010401" stop-opacity="0"/><stop offset="1" stop-color="#010401" stop-opacity="0.49989"/></linearGradient><radialGradient cx="174.64052" cy="73.37388" r="23.48065" gradientUnits="userSpaceOnUse" id="color-15"><stop offset="0" stop-color="#808080"/><stop offset="1" stop-color="#1a0000"/></radialGradient></defs><g transform="translate(-149.70377,-23.94428)"><g data-paper-data="{&quot;isPaintingLayer&quot;:true}" fill-rule="nonzero" stroke-linejoin="miter" stroke-miterlimit="10" stroke-dasharray="" stroke-dashoffset="0" style="mix-blend-mode: normal"><path d="M179.28376,313.61251v-267.22501h123.18203v267.22501z" fill-opacity="0.01" fill="#000000" stroke="none" stroke-width="0" stroke-linecap="butt"/><path d="M269.28526,221.23895c-12.97342,-0.30513 -18.28664,-121.45311 -18.28664,-121.45311l12.52052,-2.62799c0,0 18.35377,124.37717 5.76613,124.0811z" data-paper-data="{&quot;index&quot;:null}" fill="#000000" stroke="#000000" stroke-width="0" stroke-linecap="butt"/><path d="M195.53754,82.17742l12.7639,0.86732c0,0 12.77919,138.67168 -0.02673,140.77195c-12.42512,2.03782 -12.73717,-141.63926 -12.73717,-141.63926z" fill="#000000" stroke="#000000" stroke-width="0" stroke-linecap="butt"/><path d="M198.99949,215.21114c-12.95281,-0.79201 -11.85779,-105.1294 -11.85779,-105.1294l12.61035,-2.15605c0,0 11.81509,108.05393 -0.75256,107.28547z" data-paper-data="{&quot;index&quot;:null}" fill="#000000" stroke="#000000" stroke-width="0" stroke-linecap="butt"/><path d="M206.75007,307.5l15.14285,-131.8421l37.78325,-0.15789l13.57389,132z" fill="url(#color-1)" stroke="#000000" stroke-width="0" stroke-linecap="butt"/><path d="M182.60341,205.57656c-11.96852,-1.18812 -5.98872,-97.58938 -5.98872,-97.58938l12.68295,-1.67699c0,0 5.8353,100.51018 -6.69424,99.26637z" data-paper-data="{&quot;index&quot;:null}" fill="#000000" stroke="#000000" stroke-width="0" stroke-linecap="butt"/><path d="M277.80876,209.28464c-12.97342,-0.30513 -16.40915,-108.8865 -16.40915,-108.8865l12.52051,-2.62799c0,0 16.47628,111.81057 3.88864,111.51451z" data-paper-data="{&quot;index&quot;:null}" fill="#000000" stroke="#000000" stroke-width="0" stroke-linecap="butt"/><path d="M290.53379,195.42598c-12.96551,0.54615 -24.44452,-77.64108 -24.44452,-77.64108l12.32126,-3.44327c0,0 24.70322,80.55444 12.12325,81.08435z" data-paper-data="{&quot;index&quot;:null}" fill="#000000" stroke="#000000" stroke-width="0" stroke-linecap="butt"/><path d="M292.9069,172.74558c-7.08303,-1.49653 1.85839,-14.76387 -2.78507,-26.90999c-3.98324,-10.41913 2.09905,-15.50572 6.08283,-5.0868c3.72256,9.73575 4.69868,33.68631 -3.29776,31.99679z" data-paper-data="{&quot;index&quot;:null}" fill="#000000" stroke="#000000" stroke-width="0" stroke-linecap="butt"/><path d="M167.96031,141.15555c-2.31336,-33.2214 24.50172,-62.15051 59.89314,-64.61497c35.39142,-2.46446 65.95719,22.46897 68.27054,55.69036c2.31336,33.2214 -25.665,71.3729 -55.24982,73.7144c-25.19911,1.99439 -70.60051,-31.56839 -72.91386,-64.78979z" fill="url(#color-2)" stroke="#000000" stroke-width="0" stroke-linecap="butt"/><path d="M258.98801,198.60554c0,0 -2.43976,-18.84227 -5.87457,-27.93828c-3.27664,-8.67716 -14.28215,-25.44046 -14.28215,-25.44046l43.66794,-6.29867c0,0 3.20068,9.48782 3.98404,13.9718c0.87356,5.00026 1.01629,14.64999 1.01629,14.64999l-4.95302,-13.22609c0,0 0.37156,2.31137 0.46065,4.6461c0.07079,1.85511 -0.03675,3.72497 -0.65069,4.46184c-1.12571,1.35106 -1.3336,-1.13875 -2.02581,-3.32966c-0.51247,-1.622 -1.67231,-2.98886 -1.67231,-2.98886c0,0 1.54563,4.11667 1.92458,7.76316c0.30284,2.91413 -0.40411,5.44292 -1.29273,5.9564c-1.56414,0.90384 -1.72848,-2.02965 -2.36909,-4.19956c-0.43111,-1.46023 -1.3898,-2.55296 -1.96028,-1.97964c-1.41822,1.42527 -4.14928,-2.08358 -4.14928,-2.08358c0,0 2.48767,4.64063 3.78558,8.98656c1.7862,5.98093 2.52774,12.21566 2.39191,12.39161c-0.37202,0.48189 -1.79246,-4.59477 -3.67338,-7.54705c-0.89148,-1.39926 -2.32069,-2.18003 -2.98554,-1.92752c-0.87864,0.3337 -3.5318,-4.89944 -3.5318,-4.89944c0,0 -0.25667,2.73436 0.38772,5.60527c0.69867,3.11268 0.59582,6.83104 -0.73673,7.02995c-2.65458,0.39624 -0.71346,-2.50536 -2.481,-6.52422c-2.00708,-4.56351 -3.17087,-10.49378 -3.17087,-10.49378c0,0 -2.35904,10.88481 -2.26856,17.94816c0.05896,4.60264 0.45911,15.46597 0.45911,15.46597z" fill="url(#color-3)" stroke="#000000" stroke-width="0" stroke-linecap="butt"/><path d="M192.2024,183.14087c0,0 -4.0923,-9.80824 -4.44599,-17.02063c-0.34066,-6.94666 -0.033,-24.26797 -0.033,-24.26797l35.67138,9.14413c0,0 -7.05857,11.7321 -7.8476,22.81643c-0.79913,11.22622 5.122,27.29396 5.122,27.29396c0,0 -4.57378,-10.64608 -5.90477,-14.62006c-0.67067,-2.00248 -1.56665,-7.68789 -1.56665,-7.68789c0,0 1.18967,11.82748 -0.76716,6.31572c-0.74027,-2.08509 -1.874,-4.03621 -2.4778,-7.6063c-0.65124,-3.85065 -0.74478,-9.25317 -0.74478,-9.25317c0,0 -0.21976,7.62503 -1.90742,6.75129c-6.59867,-3.41625 4.51297,22.6956 -1.8693,18.89036c-0.23371,-0.13935 -2.03482,-5.5005 -2.97297,-11.05302c-0.99912,-5.91339 -1.13103,-12.03609 -1.13103,-12.03609c0,0 -0.85372,1.34549 -1.1742,2.90724c-0.49877,2.4305 -0.65175,5.45063 -1.57485,5.24572c-1.01498,-0.22531 -1.44292,-2.73865 -1.66013,-6.06236c-0.24783,-3.7923 -0.20735,-8.43881 -0.20735,-8.43881c0,0 -0.80497,3.81133 -1.18621,7.50153c-0.36059,3.49024 -0.27202,6.86725 -1.15018,6.97471c-0.51314,0.06279 -1.98411,-3.687 -2.64435,-7.293c-0.64614,-3.52897 -0.48719,-6.91517 -0.48719,-6.91517c0,0 -0.28341,4.11163 -0.1553,6.56997c0.17618,3.38064 1.11489,11.84342 1.11489,11.84342z" fill="url(#color-4)" stroke="none" stroke-width="0" stroke-linecap="butt"/><path d="M181.33558,140.57114c-0.90084,-12.93667 8.85614,-24.1542 21.79281,-25.05504c12.93667,-0.90084 24.1542,8.85614 25.05504,21.79281c0.90084,12.93667 -8.85614,24.1542 -21.79281,25.05504c-12.93667,0.90084 -24.1542,-8.85614 -25.05504,-21.79281z" fill="#000000" stroke="#000000" stroke-width="0" stroke-linecap="butt"/><path d="M260.76736,158.57745c-12.93667,0.90084 -24.1542,-8.85614 -25.05504,-21.79281c-0.90084,-12.93667 8.85614,-24.1542 21.79281,-25.05504c12.93667,-0.90084 24.1542,8.85614 25.05504,21.79281c0.90084,12.93667 -8.85614,24.1542 -21.79281,25.05504z" data-paper-data="{&quot;index&quot;:null}" fill="#000000" stroke="#000000" stroke-width="0" stroke-linecap="butt"/><path d="M164.41716,141.18387c8.4252,-7.3103 11.39112,0.043 2.9663,7.35374c-9.82125,8.52249 -8.19063,24.43829 -15.14266,22.41883c-7.84854,-2.27988 4.3036,-22.94162 12.17635,-29.77257z" data-paper-data="{&quot;index&quot;:null}" fill="#000000" stroke="#000000" stroke-width="0" stroke-linecap="butt"/><path d="M181.26361,140.27548l-3.77192,-2.34364" fill="none" stroke="#000000" stroke-width="2" stroke-linecap="round"/><path d="M173.24241,91.82365c16.04,-18.15865 43.26116,-28.96587 49.11114,-20.07232c4.62334,7.02872 -20.41479,4.37415 -41.55861,31.03688c-18.00583,22.70568 -12.73321,53.41296 -25.95957,50.90886c-13.06143,-2.47287 7.58361,-49.62037 18.40704,-61.87342z" fill="url(#color-5)" stroke="#000000" stroke-width="0" stroke-linecap="butt"/><path d="M175.48757,100.31662c13.7261,-19.96527 39.44038,-33.98537 46.32302,-25.86462c5.43947,6.41797 -19.73591,6.81107 -37.49984,35.83528c-15.12757,24.71668 -6.17981,54.56087 -19.61194,53.67479c-13.26464,-0.87504 1.52669,-50.17332 10.78876,-63.64544z" fill="url(#color-6)" stroke="#000000" stroke-width="0" stroke-linecap="butt"/><path d="M241.28789,70.47027c0.02753,2.92499 -6.86302,5.20541 -15.39049,5.09345c-8.52747,-0.11196 -15.46267,-2.57389 -15.49021,-5.49889c-0.02753,-2.92499 6.86302,-5.20541 15.39049,-5.09345c8.52747,0.11196 15.46267,2.57389 15.49021,5.49889z" fill="#000000" stroke="#000000" stroke-width="0" stroke-linecap="butt"/><path d="M307.40153,147.47272c-12.83546,4.05687 -11.24627,-27.05925 -31.82075,-47.46632c-24.16012,-23.96352 -48.70592,-18.35475 -44.94987,-25.88271c4.75259,-9.52524 33.06441,-2.02668 51.14707,14.09894c12.20176,10.8812 38.29897,55.24381 25.62356,59.25009z" data-paper-data="{&quot;index&quot;:null}" fill="#000000" stroke="#000000" stroke-width="0" stroke-linecap="butt"/><path d="M281.80619,133.07377l3.95367,-3.68355" fill="none" stroke="#000000" stroke-width="2" stroke-linecap="round"/><path d="M303.53853,157.80676c-13.25298,2.35921 -7.64463,-28.28854 -25.40089,-51.1899c-20.85076,-26.89252 -45.91644,-24.51211 -41.21646,-31.48982c5.94696,-8.82899 33.04821,2.27547 48.88853,20.60857c10.68869,12.37076 30.81653,59.74137 17.72882,62.07116z" data-paper-data="{&quot;index&quot;:null}" fill="url(#color-7)" stroke="#000000" stroke-width="0" stroke-linecap="butt"/><path d="M181.13662,128.94805c6.27842,-9.21987 11.02422,-2.8681 4.74629,6.3521c-7.31851,10.74846 -1.67654,25.71974 -8.91379,25.54307c-8.17054,-0.19946 -1.69924,-23.27985 4.1675,-31.89516z" data-paper-data="{&quot;index&quot;:null}" fill="#4d2900" stroke="#000000" stroke-width="2" stroke-linecap="butt"/><path d="M171.55162,128.35736c9.68849,-15.15777 18.61255,-27.48825 23.52144,-35.82879c6.15165,-10.45206 12.43196,-25.81764 19.7212,-23.08939c7.61192,2.84903 1.04653,20.61934 -5.30753,31.4153c-4.88822,8.30541 -19.78426,23.13395 -29.42777,38.22305c-12.08595,18.91078 -1.60044,44.45577 -14.09496,44.5145c-14.10579,0.0663 -4.10087,-40.07691 5.58763,-55.23468z" fill="url(#color-8)" stroke="#000000" stroke-width="0" stroke-linecap="butt"/><path d="M242.95823,82.80106c0,0 19.66619,-14.02254 18.8631,-24.15555c-0.08566,-1.08085 2.22029,-2.55736 5.30996,-2.91922c2.41619,-0.28298 5.70818,0.21791 6.08913,1.44724c3.84338,12.40224 -6.4715,34.43856 -6.4715,34.43856c0,0 -3.4156,4.47224 -14.22469,0.4376c-9.82953,-3.66901 -9.566,-9.24863 -9.566,-9.24863z" fill="#000000" stroke="#000000" stroke-width="0" stroke-linecap="butt"/><path d="M178.23948,134.80976c8.15359,-16.03571 21.52239,-29.47215 25.58876,-38.25434c5.09581,-11.00551 9.83727,-26.91342 17.35914,-24.91396c7.85486,2.08797 3.06577,20.41699 -2.19771,31.78461c-4.04923,8.74519 -20.11338,21.02622 -28.22894,36.98916c-10.17101,20.00596 -2.92669,44.68756 -16.73634,41.81159c-10.85408,-2.26044 -3.93848,-31.38137 4.2151,-47.41707z" fill="#000000" stroke="#000000" stroke-width="0" stroke-linecap="butt"/><path d="M234.67054,115.25708c-7.16073,-1.06435 0.95988,-14.84939 -4.41144,-26.69163c-4.6076,-10.15847 1.15512,-15.60446 5.76324,-5.44623c4.30597,9.49214 6.73235,33.33947 -1.35181,32.13786z" data-paper-data="{&quot;index&quot;:null}" fill="url(#color-9)" stroke="#000000" stroke-width="0" stroke-linecap="butt"/><path d="M298.22067,129.74786c-11.99827,7.40778 -10.3773,-12.20558 -23.67583,-21.76521c-10.61102,-7.62773 -27.71939,-9.61623 -33.17112,-13.9518c-7.08656,-5.63568 -17.63635,-17.41334 -10.90298,-21.93371c6.44793,-4.32874 16.46609,5.82455 23.32692,11.28072c5.4748,4.3539 20.36115,8.19145 31.02151,15.85354c10.66035,7.66207 22.8319,24.69413 13.40152,30.51647z" data-paper-data="{&quot;index&quot;:null}" fill="url(#color-10)" stroke="#000000" stroke-width="0" stroke-linecap="butt"/><path d="M190.41618,114.22472c7.65449,-10.66579 20.53523,-19.05728 24.3325,-24.93186c4.75863,-7.3618 9.04074,-18.2219 16.53357,-16.17951c7.82452,2.1328 3.55748,14.70199 -1.35771,22.30602c-3.78129,5.84983 -19.35824,13.19888 -26.97696,23.81637c-9.54835,13.30663 -1.74744,31.37475 -15.48336,28.1875c-10.79613,-2.5051 -4.70252,-22.53273 2.95197,-33.19852z" fill="url(#color-11)" stroke="#000000" stroke-width="0" stroke-linecap="butt"/><path d="M250.02507,172.09604c4.40822,11.26938 -0.51842,27.01001 -6.86519,30.66521c-6.34677,3.6552 -18.61892,-7.48248 -23.02713,-18.75186c-4.40821,-11.26938 0.71679,-18.403 7.06356,-22.05819c6.34677,-3.6552 18.42054,-1.12453 22.82875,10.14485z" fill="#000000" stroke="#000000" stroke-width="2" stroke-linecap="butt"/><path d="M260.76736,158.57745c-5.87918,0.40939 -11.4033,-1.3824 -15.76539,-4.67348c-18.75056,-14.14677 4.36442,-26.84228 11.57588,-52.30224c7.03015,-24.81986 -2.89981,-54.42889 -2.89981,-54.42889l14.89637,15.55802c0,0 7.67241,18.54589 7.36145,36.87649c-0.29098,17.15303 2.37752,49.27291 0.93504,50.93523c-3.94445,4.54561 -9.62533,7.58378 -16.10355,8.03488z" data-paper-data="{&quot;index&quot;:null}" fill="#0f3312" stroke="#000000" stroke-width="0" stroke-linecap="butt"/><path d="M261.26615,158.54271c-5.87918,0.40939 -11.4033,-1.3824 -15.76539,-4.67348c-15.95729,-12.03933 -1.59337,-23.02758 7.4852,-41.72676c7.27049,-14.97507 23.19863,-9.06885 23.86918,7.56434c0.59792,14.83139 1.48329,29.68464 0.51456,30.80102c-3.94445,4.54561 -9.62533,7.58378 -16.10355,8.03488z" data-paper-data="{&quot;index&quot;:null}" fill="url(#color-12)" stroke="#000000" stroke-width="0" stroke-linecap="butt"/><path d="M268.19118,70.84982c-12.93667,0.90084 -24.1542,-8.85614 -25.05504,-21.79281c-0.90084,-12.93667 8.85614,-24.1542 21.79281,-25.05504c12.93667,-0.90084 24.1542,8.85614 25.05504,21.79281c0.90084,12.93667 -8.85614,24.1542 -21.79281,25.05504z" data-paper-data="{&quot;index&quot;:null}" fill="url(#color-13)" stroke="#000000" stroke-width="0" stroke-linecap="butt"/><path d="M270.50632,58.93177c-9.10602,0.63409 -17.00194,-6.23377 -17.63603,-15.33979c-0.63409,-9.10603 6.23377,-17.00195 15.33978,-17.63604c9.10602,-0.63409 17.00194,6.23377 17.63603,15.33979c0.63409,9.10603 -6.23377,17.00195 -15.33978,17.63604z" data-paper-data="{&quot;index&quot;:null}" fill="#000000" stroke="none" stroke-width="0" stroke-linecap="butt"/><path d="M182.42701,84.546l3.62847,-17.38443c0,0 20.99322,17.92047 30.66204,36.80436c11.13839,21.75407 10.88302,45.18933 6.02875,50.60819c-3.93284,4.39025 -9.51247,7.31331 -15.85687,7.7551c-6.58043,0.45822 -12.71604,-1.84115 -17.27531,-5.91391c-2.37718,-2.12352 8.94956,-24.81855 7.69967,-43.48736c-1.06565,-15.91702 -14.88678,-28.38194 -14.88678,-28.38194z" fill="#0f3312" stroke="#000000" stroke-width="0" stroke-linecap="butt"/><path d="M223.78524,125.46268c2.89772,13.84466 1.70804,25.52287 -1.53776,29.14618c-3.93284,4.39025 -9.51247,7.31331 -15.85687,7.7551c-6.58043,0.45822 -12.71604,-1.84115 -17.27531,-5.91391c-2.22027,-1.98335 7.514,-21.91218 7.79036,-39.74508c0,0 9.46583,-1.55257 13.85231,-0.1234c4.56616,1.48772 13.02728,8.88111 13.02728,8.88111z" fill="url(#color-14)" stroke="#000000" stroke-width="0" stroke-linecap="butt"/><path d="M173.00941,49.94995c12.93667,-0.90084 24.1542,8.85614 25.05504,21.79281c0.90084,12.93667 -8.85614,24.1542 -21.79281,25.05504c-12.93667,0.90084 -24.1542,-8.85614 -25.05504,-21.79281c-0.90084,-12.93667 8.85614,-24.1542 21.79281,-25.05504z" data-paper-data="{&quot;index&quot;:null}" fill="url(#color-15)" stroke="#000000" stroke-width="0" stroke-linecap="butt"/><path d="M169.69669,61.93746c9.10602,-0.63409 17.00194,6.23377 17.63603,15.33979c0.63409,9.10603 -6.23377,17.00195 -15.33978,17.63604c-9.10602,0.63409 -17.00194,-6.23377 -17.63603,-15.33979c-0.63409,-9.10603 6.23377,-17.00195 15.33978,-17.63604z" data-paper-data="{&quot;index&quot;:null}" fill="#000000" stroke="none" stroke-width="0" stroke-linecap="butt"/></g></g></svg>