<svg version="1.1" xmlns="http://www.w3.org/2000/svg" xmlns:xlink="http://www.w3.org/1999/xlink" width="138.53363" height="298.9173" viewBox="0,0,138.53363,298.9173"><g transform="translate(-170.78038,-15.52855)"><g data-paper-data="{&quot;isPaintingLayer&quot;:true}" fill-rule="nonzero" stroke-linejoin="miter" stroke-miterlimit="10" stroke-dasharray="" stroke-dashoffset="0" style="mix-blend-mode: normal"><path d="M184.08627,123.25751c0,0 -29.34739,-102.91997 2.59948,-106.60088c32.62921,-3.75954 30.09158,76.49985 30.09158,76.49985" fill="#ff80ee" stroke="#000000" stroke-width="2" stroke-linecap="round"/><path d="M263.31707,93.15648c0,0 -2.53764,-80.25939 30.09158,-76.49985c31.94687,3.68091 2.59948,106.60088 2.59948,106.60088" data-paper-data="{&quot;index&quot;:null}" fill="#ff80ee" stroke="#000000" stroke-width="2" stroke-linecap="round"/><path d="M179.28375,314.44586v-267.22501h123.18203v267.22501z" fill-opacity="0.01" fill="#000000" stroke="none" stroke-width="0" stroke-linecap="butt"/><path d="M206.75006,307.50002l15.14285,-131.8421l37.78325,-0.15789l13.57389,132z" fill="#ff80ee" stroke="#000000" stroke-width="2" stroke-linecap="butt"/><path d="M219.70029,204.11265l3.12142,-26.32765l35.83075,-0.14203l2.76735,26.1059c0,0 -7.51543,4.19603 -21.55904,4.50964c-12.48458,0.27879 -20.16049,-4.14586 -20.16049,-4.14586z" fill="#e673d6" stroke="#000000" stroke-width="0" stroke-linecap="butt"/><path d="" fill="none" stroke="#000000" stroke-width="2" stroke-linecap="round"/><path d="M175.83997,144.6795c0,-33.30185 28.7599,-60.29833 64.23702,-60.29833c35.47712,0 64.23702,26.99649 64.23702,60.29833c0,33.30185 -28.7599,60.29833 -64.23702,60.29833c-35.47712,0 -64.23702,-26.99649 -64.23702,-60.29833z" fill="#ff80ee" stroke="#000000" stroke-width="2" stroke-linecap="butt"/><path d="M176.56304,144.73335c0,-0.72799 5.20666,55.91939 63.36046,56.93429c55.56352,0.9697 63.51358,-57.95314 63.51358,-56.93429c0,32.80479 -28.40173,59.39833 -63.43702,59.39833c-35.03529,0 -63.43702,-26.59354 -63.43702,-59.39833z" fill="#e673d6" stroke="#000000" stroke-width="0" stroke-linecap="butt"/><path d="M189.39018,145.10898c0,-12.968 10.51265,-23.48065 23.48065,-23.48065c12.968,0 23.48065,10.51265 23.48065,23.48065c0,12.968 -10.51265,23.48065 -23.48065,23.48065c-12.968,0 -23.48065,-10.51265 -23.48065,-23.48065z" fill="#ffffff" stroke="#000000" stroke-width="2" stroke-linecap="butt"/><path d="M196.45557,144.83333c0,-9.12808 7.39976,-16.52784 16.52783,-16.52784c9.12808,0 16.52784,7.39977 16.52784,16.52784c0,9.12808 -7.39977,16.52784 -16.52784,16.52784c-9.12808,0 -16.52783,-7.39977 -16.52783,-16.52784z" fill="#000000" stroke="none" stroke-width="0" stroke-linecap="butt"/><path d="M259.36663,181.23978c0,0 -6.29924,11.52325 -19.85198,11.64296c-11.17228,0.0987 -18.75762,-11.64296 -18.75762,-11.64296z" fill="#000000" stroke="#000000" stroke-width="2" stroke-linecap="round"/><path d="M267.12926,168.5896c-12.968,0 -23.48065,-10.51265 -23.48065,-23.48065c0,-12.968 10.51265,-23.48065 23.48065,-23.48065c12.968,0 23.48065,10.51265 23.48065,23.48065c0,12.968 -10.51265,23.48065 -23.48065,23.48065z" data-paper-data="{&quot;index&quot;:null}" fill="#ffffff" stroke="#000000" stroke-width="2" stroke-linecap="butt"/><path d="M267.01671,161.36118c-9.12807,0 -16.52783,-7.39977 -16.52783,-16.52784c0,-9.12808 7.39977,-16.52784 16.52783,-16.52784c9.12807,0 16.52783,7.39977 16.52783,16.52784c0,9.12808 -7.39977,16.52784 -16.52783,16.52784z" data-paper-data="{&quot;index&quot;:null}" fill="#000000" stroke="none" stroke-width="0" stroke-linecap="butt"/><path d="M185.73892,142.20904l3.6,2.6" fill="none" stroke="#000000" stroke-width="2" stroke-linecap="round"/><path d="M290.13892,144.60903l4.2,-3.4" fill="none" stroke="#000000" stroke-width="2" stroke-linecap="round"/><path d="M189.39015,144.77563c0,-12.96801 10.51265,-23.48065 23.48066,-23.48065c12.96801,0 23.48065,10.51264 23.48065,23.48065c0,0 -1.22903,21.04933 -23.92315,21.96756c-19.23501,0.77827 -23.03816,-21.35952 -23.03816,-21.96756z" fill="#ff00dd" stroke="#000000" stroke-width="2" stroke-linecap="butt"/><path d="M267.82175,167.07653c-22.42474,-0.08463 -23.92315,-21.96756 -23.92315,-21.96756c0,-12.96801 10.51264,-23.48065 23.48065,-23.48065c12.96801,0 23.48066,10.51264 23.48066,23.48065c0,0.60804 -2.61334,22.04465 -23.03816,21.96756z" data-paper-data="{&quot;index&quot;:null}" fill="#ff00dd" stroke="#000000" stroke-width="2" stroke-linecap="butt"/><path d="M202.02786,112.64292c0,0 6.70895,-5.16922 11.79721,-6.36355c5.08827,-1.19433 12.33413,0.69937 12.33413,0.69937c0,0 -8.03812,-0.06028 -11.96762,0.86207c-4.10648,0.96389 -12.16372,4.80211 -12.16372,4.80211z" fill="#000000" stroke="none" stroke-width="0" stroke-linecap="butt"/><path d="M265.96236,107.84082c-3.9295,-0.92235 -11.96762,-0.86207 -11.96762,-0.86207c0,0 7.24586,-1.8937 12.33413,-0.69937c5.08826,1.19433 11.79721,6.36355 11.79721,6.36355c0,0 -8.05724,-3.83822 -12.16372,-4.80211z" data-paper-data="{&quot;index&quot;:null}" fill="#000000" stroke="none" stroke-width="0" stroke-linecap="butt"/><g fill="#ff00dd" stroke="#000000" stroke-width="2" stroke-linecap="butt"><path d="M212.25694,93.23736c-3.15626,-7.04973 2.9828,-9.07336 2.9828,-9.07336c0,0 -4.78658,-2.16484 -3.4828,-8.86567c1.67551,-8.61136 24.16667,5.66496 24.16667,5.66496l-0.16667,7.55329c0,0 -20.59947,11.19933 -23.5,4.72079z"/><path d="M246.02144,88.51657l-0.16667,-7.55329c0,0 22.49115,-14.27632 24.16666,-5.66496c1.30378,6.70083 -3.4828,8.86567 -3.4828,8.86567c0,0 6.13906,2.02363 2.9828,9.07336c-2.90053,6.47853 -23.5,-4.72079 -23.5,-4.72079z" data-paper-data="{&quot;index&quot;:null}"/><path d="M233.00694,84.49266c0,-4.2802 3.4698,-7.75 7.75,-7.75c4.2802,0 7.75,3.4698 7.75,7.75c0,4.2802 -3.4698,7.75 -7.75,7.75c-4.2802,0 -7.75,-3.4698 -7.75,-7.75z"/></g></g></g></svg>