<svg version="1.1" xmlns="http://www.w3.org/2000/svg" xmlns:xlink="http://www.w3.org/1999/xlink" width="35.12501" height="35.12434" viewBox="0,0,35.12501,35.12434"><g transform="translate(-222.4375,-162.43783)"><g data-paper-data="{&quot;isPaintingLayer&quot;:true}" stroke-miterlimit="10" stroke-dasharray="" stroke-dashoffset="0" style="mix-blend-mode: normal"><path d="M257.56251,169.8317v20.49804c0,4.00745 -3.22497,7.23243 -7.23242,7.23243h-20.5c-3.66107,0 -6.66147,-2.69385 -7.1543,-6.21484c0.7952,3.03475 3.54108,5.26367 6.83204,5.26367h20.0332c3.9166,0 7.07032,-3.15372 7.07032,-7.07031v-20.03321c0,-3.2976 -2.23906,-6.0451 -5.28321,-6.83398c3.52994,0.48496 6.23438,3.49081 6.23438,7.15821z" fill-opacity="0.29839" fill="#000000" fill-rule="evenodd" stroke="none" stroke-width="4.54219" stroke-linecap="round" stroke-linejoin="round"/><path d="M229.50718,162.43783h20.03378c3.9166,0 7.06966,3.15307 7.06966,7.06966v20.03379c0,3.91659 -3.15307,7.06966 -7.06966,7.06966h-20.03378c-3.91659,0 -7.06967,-3.15307 -7.06967,-7.06966v-20.03379c0,-3.91659 3.15308,-7.06966 7.06967,-7.06966z" fill="#babebf" fill-rule="evenodd" stroke="none" stroke-width="4.43922" stroke-linecap="round" stroke-linejoin="round"/><g stroke="#000000" stroke-width="0.5"><path d="M241.57278,191.58785v-9.52947h-4.13187v9.52947z" fill="#a1a5a6" fill-rule="nonzero" stroke-linecap="butt" stroke-linejoin="miter"/><path d="M249.83651,194.0757l-1.66952,-3.31713h-17.82806l-1.72914,3.31713z" fill="#babebf" fill-rule="nonzero" stroke-linecap="butt" stroke-linejoin="miter"/><path d="M247.2765,164.938h-15.5393c-2.59706,0 -4.68783,2.09077 -4.68783,4.68783v13.28423c0,2.59706 2.09077,4.68784 4.68783,4.68784h15.5393c2.59706,0 4.68783,-2.09078 4.68783,-4.68784v-13.28423c0,-2.59706 -2.09077,-4.68783 -4.68783,-4.68783z" fill="#babebf" fill-rule="evenodd" stroke-linecap="round" stroke-linejoin="round"/><path d="M245.82464,167.05512h-12.63562c-2.11177,0 -3.81186,1.7001 -3.81186,3.81187v10.80193c0,2.11177 1.70009,3.81186 3.81186,3.81186h12.63562c2.11177,0 3.81187,-1.70009 3.81187,-3.81186v-10.80193c0,-2.11177 -1.7001,-3.81187 -3.81187,-3.81187z" fill="#000000" fill-rule="evenodd" stroke-linecap="round" stroke-linejoin="round"/></g></g></g></svg>