<svg version="1.1" xmlns="http://www.w3.org/2000/svg" xmlns:xlink="http://www.w3.org/1999/xlink" width="162.57377" height="283.67762" viewBox="0,0,162.57377,283.67762"><defs><linearGradient x1="240.00008" y1="175.50001" x2="240.00008" y2="307.50001" gradientUnits="userSpaceOnUse" id="color-1"><stop offset="0" stop-color="#000000"/><stop offset="1" stop-color="#1f6625"/></linearGradient><linearGradient x1="231.69447" y1="77.45252" x2="224.40756" y2="207.24594" gradientUnits="userSpaceOnUse" id="color-2"><stop offset="0" stop-color="#071a09"/><stop offset="1" stop-color="#26802e"/></linearGradient><linearGradient x1="257.74405" y1="145.05187" x2="254.49851" y2="202.86084" gradientUnits="userSpaceOnUse" id="color-3"><stop offset="0" stop-color="#1a0000"/><stop offset="1" stop-color="#800000"/></linearGradient><linearGradient x1="200.31864" y1="138.15544" x2="196.87692" y2="199.45891" gradientUnits="userSpaceOnUse" id="color-4"><stop offset="0" stop-color="#1a0000"/><stop offset="1" stop-color="#800000"/></linearGradient><linearGradient x1="273.41375" y1="76.40735" x2="268.38242" y2="166.02487" gradientUnits="userSpaceOnUse" id="color-5"><stop offset="0" stop-color="#000000"/><stop offset="1" stop-color="#331b00"/></linearGradient><linearGradient x1="180.73991" y1="71.89001" x2="183.83295" y2="152.89058" gradientUnits="userSpaceOnUse" id="color-6"><stop offset="0" stop-color="#000000"/><stop offset="1" stop-color="#1a0e00"/></linearGradient><linearGradient x1="184.70852" y1="75.34456" x2="188.07398" y2="163.47954" gradientUnits="userSpaceOnUse" id="color-7"><stop offset="0" stop-color="#000000"/><stop offset="1" stop-color="#331b00"/></linearGradient><linearGradient x1="181.59143" y1="72.31903" x2="185.82511" y2="183.19068" gradientUnits="userSpaceOnUse" id="color-8"><stop offset="0" stop-color="#000000"/><stop offset="1" stop-color="#4d2900"/></linearGradient><linearGradient x1="229.7192" y1="80.297" x2="231.16233" y2="118.08995" gradientUnits="userSpaceOnUse" id="color-9"><stop offset="0" stop-color="#000000"/><stop offset="1" stop-color="#1a0e00"/></linearGradient><linearGradient x1="259.53412" y1="72.71836" x2="261.98973" y2="137.02619" gradientUnits="userSpaceOnUse" id="color-10"><stop offset="0" stop-color="#000000"/><stop offset="1" stop-color="#4d2900"/></linearGradient><linearGradient x1="202.77925" y1="76.38137" x2="205.52914" y2="148.39561" gradientUnits="userSpaceOnUse" id="color-11"><stop offset="0" stop-color="#000000"/><stop offset="1" stop-color="#4d2900"/></linearGradient><linearGradient x1="255.88272" y1="108.30048" x2="252.8176" y2="162.896" gradientUnits="userSpaceOnUse" id="color-12"><stop offset="0" stop-color="#000000" stop-opacity="0"/><stop offset="1" stop-color="#000000" stop-opacity="0.49989"/></linearGradient><radialGradient cx="273.74351" cy="53.41619" r="23.48065" gradientUnits="userSpaceOnUse" id="color-13"><stop offset="0" stop-color="#808080"/><stop offset="1" stop-color="#1a0000"/></radialGradient><linearGradient x1="204.02979" y1="113.8766" x2="201.43967" y2="160.01152" gradientUnits="userSpaceOnUse" id="color-14"><stop offset="0" stop-color="#010401" stop-opacity="0"/><stop offset="1" stop-color="#010401" stop-opacity="0.49989"/></linearGradient><radialGradient cx="179.29746" cy="67.64448" r="23.48065" gradientUnits="userSpaceOnUse" id="color-15"><stop offset="0" stop-color="#808080"/><stop offset="1" stop-color="#1a0000"/></radialGradient></defs><g transform="translate(-143.40029,-29.9349)"><g data-paper-data="{&quot;isPaintingLayer&quot;:true}" fill-rule="nonzero" stroke-linejoin="miter" stroke-miterlimit="10" stroke-dasharray="" stroke-dashoffset="0" style="mix-blend-mode: normal"><path d="M179.28377,313.61251v-267.22501h123.18203v267.22501z" fill-opacity="0.01" fill="#000000" stroke="none" stroke-width="0" stroke-linecap="butt"/><g fill="#000000" stroke="#000000" stroke-width="0" stroke-linecap="butt"><path d="M265.78526,224.73895c-12.97342,-0.30513 -18.28664,-121.45311 -18.28664,-121.45311l12.52052,-2.62799c0,0 18.35377,124.37717 5.76613,124.0811z" data-paper-data="{&quot;index&quot;:null}"/><path d="M192.53755,86.17742l12.7639,0.86732c0,0 12.77919,138.67168 -0.02673,140.77195c-12.42512,2.03782 -12.73717,-141.63926 -12.73717,-141.63926z"/><path d="M195.9995,219.21114c-12.95281,-0.79201 -11.85779,-105.1294 -11.85779,-105.1294l12.61035,-2.15605c0,0 11.81509,108.05393 -0.75256,107.28547z" data-paper-data="{&quot;index&quot;:null}"/><path d="M179.60342,209.57656c-11.96852,-1.18812 -5.98872,-97.58938 -5.98872,-97.58938l12.68295,-1.67699c0,0 5.8353,100.51018 -6.69424,99.26637z" data-paper-data="{&quot;index&quot;:null}"/><path d="M274.30877,212.78464c-12.97342,-0.30513 -16.40915,-108.8865 -16.40915,-108.8865l12.52051,-2.62799c0,0 16.47628,111.81057 3.88864,111.51451z" data-paper-data="{&quot;index&quot;:null}"/><path d="M287.0338,198.92598c-12.96551,0.54615 -24.44452,-77.64108 -24.44452,-77.64108l12.32126,-3.44327c0,0 24.70322,80.55444 12.12325,81.08435z" data-paper-data="{&quot;index&quot;:null}"/><path d="M289.40691,176.24558c-7.08303,-1.49653 1.85839,-14.76387 -2.78507,-26.90999c-3.98324,-10.41913 2.09905,-15.50572 6.08283,-5.0868c3.72256,9.73575 4.69868,33.68631 -3.29776,31.99679z" data-paper-data="{&quot;index&quot;:null}"/></g><path d="M206.75008,307.5l15.14285,-131.8421l37.78325,-0.15789l13.57389,132z" fill="url(#color-1)" stroke="#000000" stroke-width="0" stroke-linecap="butt"/><path d="M164.17848,134.05528c1.8667,-33.24949 32.09464,-58.59142 67.51599,-56.60277c35.42134,1.98864 62.62276,30.55479 60.75605,63.80427c-1.8667,33.24949 -34.4041,67.59542 -64.04918,66.21221c-25.25044,-1.17816 -66.08956,-40.16422 -64.22285,-73.41371z" fill="url(#color-2)" stroke="#000000" stroke-width="0" stroke-linecap="butt"/><path d="M247.29197,202.45625c0,0 -0.06006,-18.99947 -2.3283,-28.45412c-2.16379,-9.01928 -10.98256,-27.02925 -10.98256,-27.02925l44.11299,-0.77852c0,0 1.98687,9.81404 2.20233,14.36083c0.24027,5.0703 -0.827,14.66189 -0.827,14.66189l-3.25709,-13.74239c0,0 0.07907,2.33971 -0.12502,4.66721c-0.16217,1.84936 -0.50311,3.69102 -1.20452,4.34517c-1.2861,1.19939 -1.18044,-1.29685 -1.59273,-3.55721c-0.30524,-1.67342 -1.2847,-3.17481 -1.2847,-3.17481c0,0 1.01773,4.27787 0.93688,7.9431c-0.06462,2.92911 -1.08279,5.34942 -2.02874,5.74753c-1.66505,0.70077 -1.4606,-2.2302 -1.82432,-4.46327c-0.24478,-1.50273 -1.05903,-2.70696 -1.69684,-2.20962c-1.5856,1.23637 -3.85557,-2.58697 -3.85557,-2.58697c0,0 1.88671,4.91572 2.62996,9.39c1.02286,6.15758 0.9775,12.43609 0.8207,12.59364c-0.42946,0.43149 -1.20273,-4.78312 -2.69898,-7.94778c-0.70916,-1.49992 -2.0293,-2.45358 -2.72055,-2.28635c-0.91352,0.221 -2.8902,-5.30329 -2.8902,-5.30329c0,0 -0.5972,2.68066 -0.31754,5.60968c0.30322,3.17568 -0.26464,6.85187 -1.61161,6.88227c-2.68331,0.06056 -0.39398,-2.575 -1.64413,-6.78363c-1.41957,-4.779 -1.83127,-10.80834 -1.83127,-10.80834c0,0 -3.70406,10.50353 -4.49916,17.52257c-0.5181,4.57377 -1.48202,15.40164 -1.48202,15.40164z" fill="url(#color-3)" stroke="#000000" stroke-width="0" stroke-linecap="butt"/><path d="M182.96985,178.7468c0,0 -2.83133,-10.24364 -2.27869,-17.44352c0.53227,-6.93461 3.00745,-24.08092 3.00745,-24.08092l34.24482,13.54085c0,0 -8.47271,10.75541 -10.64412,21.65357c-2.19921,11.03767 1.66238,27.7206 1.66238,27.7206c0,0 -3.20405,-11.13519 -4.02671,-15.24461c-0.41452,-2.07072 -0.5912,-7.82359 -0.5912,-7.82359c0,0 -0.3014,11.88334 -1.55232,6.16986c-0.47323,-2.1614 -1.3536,-4.23918 -1.5054,-7.85679c-0.16372,-3.9019 0.42028,-9.27358 0.42028,-9.27358c0,0 -1.17326,7.53743 -2.73817,6.45915c-6.11871,-4.21599 1.63421,23.08217 -4.22108,18.50736c-0.21441,-0.16753 -1.32971,-5.71208 -1.56487,-11.33838c-0.25044,-5.99197 0.38571,-12.08296 0.38571,-12.08296c0,0 -1.01555,1.22794 -1.52916,2.73724c-0.79932,2.34887 -1.32945,5.32604 -2.2196,5.0071c-0.97876,-0.35069 -1.08847,-2.89784 -0.88758,-6.22257c0.22921,-3.79347 0.85146,-8.3983 0.85146,-8.3983c0,0 -1.2761,3.68046 -2.11662,7.29383c-0.79499,3.41757 -1.13018,6.77907 -2.01488,6.77567c-0.51696,-0.00199 -1.50659,-3.90651 -1.70988,-7.56682c-0.19896,-3.58211 0.38295,-6.92173 0.38295,-6.92173c0,0 -0.79626,4.04373 -0.97713,6.49876c-0.24872,3.37608 -0.37759,11.88979 -0.37759,11.88979z" fill="url(#color-4)" stroke="none" stroke-width="0" stroke-linecap="butt"/><path d="M177.52159,135.15108c0.72691,-12.94761 11.81231,-22.85445 24.75991,-22.12755c12.94761,0.72691 22.85445,11.81231 22.12755,24.75991c-0.72691,12.94761 -11.81231,22.85445 -24.75991,22.12755c-12.94761,-0.72691 -22.85445,-11.81231 -22.12755,-24.75991z" fill="#000000" stroke="#000000" stroke-width="0" stroke-linecap="butt"/><path d="M254.07185,162.96641c-12.94761,-0.72691 -22.85445,-11.81231 -22.12755,-24.75991c0.72691,-12.94761 11.81231,-22.85445 24.75991,-22.12755c12.94761,0.72691 22.85445,11.81231 22.12755,24.75991c-0.72691,12.94761 -11.81231,22.85445 -24.75991,22.12755z" data-paper-data="{&quot;index&quot;:null}" fill="#000000" stroke="#000000" stroke-width="0" stroke-linecap="butt"/><path d="M174.03862,132.05103l3.4486,2.79771" fill="none" stroke="#000000" stroke-width="2" stroke-linecap="round"/><path d="M301.72979,157.7913c-13.24257,2.41694 -7.7678,-28.25496 -25.62369,-51.07875c-20.96774,-26.80141 -46.02281,-24.31182 -41.35328,-31.30993c5.90843,-8.85482 33.05782,2.13145 48.97788,20.39535c10.74248,12.32406 31.07654,59.60653 17.9991,61.99333z" data-paper-data="{&quot;index&quot;:null}" fill="#000000" stroke="#000000" stroke-width="0" stroke-linecap="butt"/><path d="M282.52391,137.14008l-4.38398,3.15923" fill="none" stroke="#000000" stroke-width="2" stroke-linecap="round"/><path d="M296.60262,167.55998c-13.44412,0.68035 -4.04054,-29.02337 -18.78793,-53.96874c-17.31752,-29.29275 -42.48394,-30.07122 -36.94685,-36.40516c7.00617,-8.01443 32.50279,6.39768 45.92163,26.57076c9.05473,13.61234 23.08961,63.13129 9.81314,63.80315z" data-paper-data="{&quot;index&quot;:null}" fill="url(#color-5)" stroke="#000000" stroke-width="0" stroke-linecap="butt"/><path d="M178.78029,123.59464c7.38398,-8.3607 11.29667,-1.46444 3.91313,6.89665c-8.60738,9.74695 -4.88539,25.30709 -12.04349,24.22516c-8.08118,-1.22146 1.23055,-23.30932 8.13036,-31.1218z" data-paper-data="{&quot;index&quot;:null}" fill="#4d2900" stroke="#000000" stroke-width="2" stroke-linecap="butt"/><path d="M245.89597,85.55594c0,0 21.26794,-11.44837 21.7406,-21.60216c0.05042,-1.08307 2.52317,-2.25906 5.63384,-2.23101c2.43261,0.02194 5.63591,0.93129 5.85986,2.19866c2.2594,12.78602 -10.73483,33.35653 -10.73483,33.35653c0,0 -3.94895,4.00912 -14.16745,-1.34786c-9.29245,-4.87151 -8.33201,-10.37416 -8.33201,-10.37416z" fill="#000000" stroke="#000000" stroke-width="0" stroke-linecap="butt"/><path d="M241.72064,175.03276c2.96171,11.73284 -3.89803,26.73228 -10.65271,29.56359c-6.75468,2.83131 -17.53487,-9.75603 -20.49657,-21.48887c-2.9617,-11.73284 3.01659,-18.16822 9.77127,-20.99952c6.75468,-2.83131 18.4163,1.19198 21.378,12.92482z" fill="#000000" stroke="#000000" stroke-width="2" stroke-linecap="butt"/><g stroke="#000000" stroke-width="0" stroke-linecap="butt"><path d="M158.91732,141.75576c8.65024,-7.04257 11.38417,0.40009 2.7343,7.44312c-10.08361,8.2104 -8.95275,24.1695 -15.83806,21.93308c-7.77321,-2.52481 5.02071,-22.79542 13.10375,-29.3762z" data-paper-data="{&quot;index&quot;:null}" fill="#000000"/><path d="M169.28569,92.69648c16.6014,-17.64686 44.14799,-27.59538 49.71627,-18.5228c4.40071,7.17021 -20.54189,3.73199 -42.5112,29.71875c-18.70881,22.13003 -14.40147,52.98751 -27.54282,50.06999c-12.97748,-2.88114 9.1355,-49.35823 20.33775,-61.26594z" fill="url(#color-6)"/><path d="M171.26349,101.25566c14.34527,-19.52514 40.48645,-32.73219 47.11112,-24.39966c5.23559,6.58534 -19.93974,6.18899 -38.60486,34.64203c-15.89501,24.23028 -7.88728,54.34031 -21.28503,53.03356c-13.23069,-1.29046 3.09889,-50.1008 12.77877,-63.27592z" fill="url(#color-7)"/><path d="M237.96716,73.48684c-0.06418,2.92442 -7.02284,4.98769 -15.54261,4.60845c-8.51977,-0.37924 -15.37438,-3.05739 -15.3102,-5.98181c0.06418,-2.92442 7.02284,-4.98769 15.54261,-4.60845c8.51977,0.37924 15.37438,3.05739 15.3102,5.98181z" fill="#000000"/><path d="M166.45039,129.15922c10.15893,-14.84658 19.46517,-26.89123 24.63312,-35.07377c6.4763,-10.25407 13.23524,-25.4152 20.43537,-22.45977c7.51886,3.08627 0.39959,20.64201 -6.2898,31.23346c-5.1462,8.14808 -20.49979,22.50233 -30.61161,37.28169c-12.67287,18.52259 -2.99336,44.38374 -15.48358,44.05074c-14.10093,-0.37595 -2.84243,-40.18577 7.31651,-55.03236z" fill="url(#color-8)"/><path d="M172.93268,135.81812c8.65231,-15.77221 22.43577,-28.78293 26.77547,-37.43332c5.43833,-10.84034 10.67618,-26.59179 18.13167,-24.3575c7.78554,2.3332 2.42418,20.50307 -3.19309,31.70009c-4.3214,8.61395 -20.76267,20.38532 -29.37469,36.08599c-10.79321,19.67726 -4.32622,44.57384 -18.03892,41.26635c-10.77788,-2.59961 -2.95273,-31.48942 5.69957,-47.26162z" fill="#000000"/><path d="M229.94898,118.04418c-7.12384,-1.28832 1.42494,-14.812 -3.57248,-26.81681c-4.28686,-10.29793 1.64376,-15.56058 5.93115,-5.26287c4.00627,9.62247 5.68384,33.53414 -2.35868,32.07968z" data-paper-data="{&quot;index&quot;:null}" fill="url(#color-9)"/><path d="M293.01358,134.52015c-12.22461,7.02799 -9.98955,-12.52491 -22.98184,-22.49676c-10.36667,-7.95664 -27.40429,-10.48052 -32.71742,-14.98487c-6.9064,-5.85508 -17.08177,-17.95769 -10.20999,-22.26474c6.58047,-4.12447 16.27539,6.33791 22.9618,12.00648c5.33561,4.5234 20.09434,8.82575 30.50925,16.81828c10.4149,7.99251 22.04651,25.39778 12.43823,30.92161z" data-paper-data="{&quot;index&quot;:null}" fill="url(#color-10)"/><path d="M185.74874,115.62494c7.9851,-10.42058 21.12259,-18.40413 25.10216,-24.15677c4.98709,-7.209 9.60756,-17.92951 17.03268,-15.65322c7.75381,2.37705 3.09482,14.80629 -2.05634,22.25249c-3.96283,5.72841 -19.76251,12.5855 -27.71035,22.95893c-9.96082,13.00074 -2.73019,31.30455 -16.35944,27.68824c-10.71229,-2.84233 -3.9938,-22.66908 3.99131,-33.08966z" fill="url(#color-11)"/></g><path d="M254.07185,162.96641c-5.88415,-0.33035 -11.14028,-2.80007 -15.05572,-6.61168c-16.8306,-16.38431 7.69272,-26.08406 18.03689,-50.44002c10.08409,-23.74362 3.94165,-54.36337 3.94165,-54.36337l12.82997,17.30161c0,0 5.28862,19.36095 2.68373,37.50819c-2.43755,16.98145 -3.81391,49.18258 -5.45327,50.6511c-4.48283,4.01566 -10.49956,6.31821 -16.98326,5.9542z" data-paper-data="{&quot;index&quot;:null}" fill="#0f3312" stroke="#000000" stroke-width="0" stroke-linecap="butt"/><path d="M254.57106,162.99443c-5.88415,-0.33035 -11.14028,-2.80007 -15.05572,-6.61168c-14.32334,-13.94354 1.30398,-23.04578 12.65358,-40.46032c9.08923,-13.94628 24.15198,-6.09118 22.73351,10.49498c-1.2648,14.78945 -2.24716,29.6366 -3.34811,30.62283c-4.48283,4.01566 -10.49956,6.31821 -16.98326,5.9542z" data-paper-data="{&quot;index&quot;:null}" fill="url(#color-12)" stroke="#000000" stroke-width="0" stroke-linecap="butt"/><path d="M272.42733,76.85993c-12.94761,-0.72691 -22.85445,-11.81231 -22.12755,-24.75991c0.72691,-12.94761 11.81231,-22.85445 24.75991,-22.12755c12.94761,0.72691 22.85445,11.81231 22.12755,24.75991c-0.72691,12.94761 -11.81231,22.85445 -24.75991,22.12755z" data-paper-data="{&quot;index&quot;:null}" fill="url(#color-13)" stroke="#000000" stroke-width="0" stroke-linecap="butt"/><path d="M276.21727,65.3258c-9.11372,-0.51167 -16.08706,-8.31459 -15.57539,-17.42831c0.51167,-9.11373 8.31459,-16.08707 17.4283,-15.5754c9.11372,0.51167 16.08706,8.31459 15.57539,17.42831c-0.51167,9.11373 -8.31459,16.08707 -17.4283,15.5754z" data-paper-data="{&quot;index&quot;:null}" fill="#000000" stroke="none" stroke-width="0" stroke-linecap="butt"/><path d="M185.62301,79.70404l5.77773,-16.79292c0,0 18.58283,20.40923 25.80979,40.35562c8.32538,22.97806 5.13616,46.19671 -0.35872,50.96475c-4.45185,3.86297 -10.35371,6.06401 -16.70347,5.70752c-6.58599,-0.36976 -12.38521,-3.41966 -16.39835,-8.0315c-2.09243,-2.40459 11.98822,-23.50187 13.08692,-42.18018c0.93676,-15.92513 -11.21393,-30.0233 -11.21393,-30.0233z" fill="#0f3312" stroke="#000000" stroke-width="0" stroke-linecap="butt"/><path d="M221.52956,125.47956c1.14049,14.09861 -1.50281,25.53578 -5.17695,28.72392c-4.45185,3.86297 -10.35371,6.06401 -16.70347,5.70752c-6.58599,-0.36976 -12.38521,-3.41966 -16.39835,-8.0315c-1.95431,-2.24587 10.19987,-20.79823 12.70808,-38.45602c0,0 9.58576,-0.3545 13.75864,1.61293c4.34381,2.04803 11.81206,10.44315 11.81206,10.44315z" fill="url(#color-14)" stroke="#000000" stroke-width="0" stroke-linecap="butt"/><path d="M180.61365,44.20074c12.94761,0.72691 22.85445,11.81231 22.12755,24.75991c-0.72691,12.94761 -11.81231,22.85445 -24.75991,22.12755c-12.94761,-0.72691 -22.85445,-11.81231 -22.12755,-24.75991c0.72691,-12.94761 11.81231,-22.85445 24.75991,-22.12755z" data-paper-data="{&quot;index&quot;:null}" fill="url(#color-15)" stroke="#000000" stroke-width="0" stroke-linecap="butt"/><path d="M175.82528,55.67881c9.11372,0.51167 16.08706,8.31459 15.57539,17.42831c-0.51167,9.11373 -8.31459,16.08707 -17.4283,15.5754c-9.11372,-0.51167 -16.08706,-8.31459 -15.57539,-17.42831c0.51167,-9.11373 8.31459,-16.08707 17.4283,-15.5754z" data-paper-data="{&quot;index&quot;:null}" fill="#000000" stroke="none" stroke-width="0" stroke-linecap="butt"/></g></g></svg>