<svg version="1.1" xmlns="http://www.w3.org/2000/svg" xmlns:xlink="http://www.w3.org/1999/xlink" width="207.99109" height="268.43552" viewBox="0,0,207.99109,268.43552"><defs><linearGradient x1="240.00006" y1="175.50003" x2="240.00006" y2="307.50003" gradientUnits="userSpaceOnUse" id="color-1"><stop offset="0" stop-color="#000000"/><stop offset="1" stop-color="#1f6266"/></linearGradient><linearGradient x1="240.68848" y1="191.31125" x2="240.68848" y2="227.70023" gradientUnits="userSpaceOnUse" id="color-2"><stop offset="0" stop-color="#1a0000"/><stop offset="1" stop-color="#800000"/></linearGradient><linearGradient x1="232.44907" y1="234.31309" x2="232.44907" y2="246.14642" gradientUnits="userSpaceOnUse" id="color-3"><stop offset="0" stop-color="#1a0000"/><stop offset="1" stop-color="#800000"/></linearGradient><linearGradient x1="226.58132" y1="233.77548" x2="235.73549" y2="233.77548" gradientUnits="userSpaceOnUse" id="color-4"><stop offset="0" stop-color="#1a0000" stop-opacity="0"/><stop offset="1" stop-color="#1a0000"/></linearGradient><linearGradient x1="180.44462" y1="168.25699" x2="195.41812" y2="168.93071" gradientUnits="userSpaceOnUse" id="color-5"><stop offset="0" stop-color="#1a0000" stop-opacity="0"/><stop offset="1" stop-color="#1a0000"/></linearGradient><linearGradient x1="295.89815" y1="68.44097" x2="295.89815" y2="111.10765" gradientUnits="userSpaceOnUse" id="color-6"><stop offset="0" stop-color="#000000"/><stop offset="1" stop-color="#1f6266"/></linearGradient><linearGradient x1="296.23148" y1="75.44097" x2="296.23148" y2="104.77432" gradientUnits="userSpaceOnUse" id="color-7"><stop offset="0" stop-color="#14191a"/><stop offset="1" stop-color="#657e80"/></linearGradient><linearGradient x1="191.23149" y1="68.44097" x2="191.23149" y2="111.10765" gradientUnits="userSpaceOnUse" id="color-8"><stop offset="0" stop-color="#000000"/><stop offset="1" stop-color="#1f6266"/></linearGradient><linearGradient x1="191.56482" y1="75.44097" x2="191.56482" y2="104.77432" gradientUnits="userSpaceOnUse" id="color-9"><stop offset="0" stop-color="#14191a"/><stop offset="1" stop-color="#657e80"/></linearGradient><radialGradient cx="245.23148" cy="179.88467" r="22.7341" gradientUnits="userSpaceOnUse" id="color-10"><stop offset="0" stop-color="#1a0000"/><stop offset="1" stop-color="#330000"/></radialGradient><linearGradient x1="248.55686" y1="200.97409" x2="248.55686" y2="214.39441" gradientUnits="userSpaceOnUse" id="color-11"><stop offset="0" stop-color="#1a0000"/><stop offset="1" stop-color="#1a0000" stop-opacity="0"/></linearGradient><linearGradient x1="234.44715" y1="65.47112" x2="234.40208" y2="81.88633" gradientUnits="userSpaceOnUse" id="color-12"><stop offset="0" stop-color="#1a0000" stop-opacity="0"/><stop offset="1" stop-color="#1a0000"/></linearGradient><linearGradient x1="186.93317" y1="95.43512" x2="205.60042" y2="95.43512" gradientUnits="userSpaceOnUse" id="color-13"><stop offset="0" stop-color="#1a0101" stop-opacity="0"/><stop offset="1" stop-color="#1a0101"/></linearGradient><linearGradient x1="244.077" y1="79.04784" x2="244.077" y2="199.64451" gradientUnits="userSpaceOnUse" id="color-14"><stop offset="0" stop-color="#08191a"/><stop offset="1" stop-color="#267b80"/></linearGradient><linearGradient x1="215.51667" y1="145.35348" x2="215.51667" y2="181.15348" gradientUnits="userSpaceOnUse" id="color-15"><stop offset="0" stop-color="#1a0000"/><stop offset="1" stop-color="#800000"/></linearGradient><radialGradient cx="216.87084" cy="139.27565" r="23.48065" gradientUnits="userSpaceOnUse" id="color-16"><stop offset="0" stop-color="#808080"/><stop offset="1" stop-color="#804040"/></radialGradient><radialGradient cx="270.4626" cy="139.27561" r="23.48065" gradientUnits="userSpaceOnUse" id="color-17"><stop offset="0" stop-color="#1a0000"/><stop offset="1" stop-color="#4d0000"/></radialGradient><linearGradient x1="249.38056" y1="58.20522" x2="249.38056" y2="86.38853" gradientUnits="userSpaceOnUse" id="color-18"><stop offset="0" stop-color="#0f3133"/><stop offset="1" stop-color="#08191a"/></linearGradient><linearGradient x1="266.34676" y1="138.54067" x2="279.94481" y2="139.1525" gradientUnits="userSpaceOnUse" id="color-19"><stop offset="0" stop-color="#1a0000"/><stop offset="1" stop-color="#1a0000" stop-opacity="0"/></linearGradient><radialGradient cx="317.79226" cy="125.61069" r="23.48065" gradientUnits="userSpaceOnUse" id="color-20"><stop offset="0" stop-color="#808080"/><stop offset="1" stop-color="#804040"/></radialGradient><linearGradient x1="318.99856" y1="120.23534" x2="333.35199" y2="120.88116" gradientUnits="userSpaceOnUse" id="color-21"><stop offset="0" stop-color="#1a0000"/><stop offset="1" stop-color="#1a0000" stop-opacity="0"/></linearGradient><linearGradient x1="197.80555" y1="92.87947" x2="197.80555" y2="117.02233" gradientUnits="userSpaceOnUse" id="color-22"><stop offset="0" stop-color="#1a0000"/><stop offset="1" stop-color="#800000"/></linearGradient></defs><g transform="translate(-147.67944,-45.01034)"><g data-paper-data="{&quot;isPaintingLayer&quot;:true}" fill-rule="nonzero" stroke-width="0" stroke-linejoin="miter" stroke-miterlimit="10" stroke-dasharray="" stroke-dashoffset="0" style="mix-blend-mode: normal"><path d="M179.11709,313.44586v-267.22501h123.18203v267.22501z" fill-opacity="0.01" fill="#000000" stroke="none" stroke-linecap="butt"/><g stroke-linecap="butt"><path d="M227.81487,230.99779l40.80732,-7.97155c0,0 0.9434,-0.29407 1.695,1.92102c0.8429,2.48416 -0.52432,2.69797 -0.52432,2.69797l-40.32375,9.76912z" fill="#332626" stroke="none"/><path d="M206.75007,307.50002l15.14285,-131.8421l37.78325,-0.15789l13.57389,132z" fill="url(#color-1)" stroke="#000000"/><path d="M223.10515,191.31125c0,0 12.08001,9.33334 18.01059,9.33334c5.78818,0 17.15608,-9.33334 17.15608,-9.33334c0,0 1.76242,17.00746 -0.66666,16.90857c-4.09294,-0.16663 -2.10574,35.6755 -4.269,35.74718c-2.79963,0.09278 -2.27579,-35.28034 -4.07553,-35.65772c-2.82686,-0.59276 -1.52244,27.45279 -3.86422,27.67023c-2.47839,0.23011 0.69545,-18.34439 -1.32923,-17.88259c-2.14049,0.48821 -1.90442,-8.39463 -3.86613,-8.72342c-2.04007,-0.34191 -1.1244,19.22985 -3.31191,18.97269c-1.98094,-0.23288 -0.78364,-11.77588 -2.72968,-12.39717c-1.7978,-0.57396 -0.9038,22.91934 -2.63549,22.95414c-2.25727,0.04536 -2.68934,-26.96426 -3.54055,-27.38845c-1.46383,-0.72949 -1.32353,11.06781 -4.04494,11.39754c-2.72141,0.32972 -0.83333,-31.60099 -0.83333,-31.60099z" fill="url(#color-2)" stroke="none"/><path d="M231.44907,239.14642c-3.07182,-0.51466 -1.83333,-4.83333 -1.83333,-4.83333h5.66667c0,0 2.03301,11.5574 -0.83334,11.83333c-2.12502,0.20457 -1.15477,-6.69084 -3,-7z" fill="url(#color-3)" stroke="none"/><path d="M211.69146,234.06411l20.56617,-4.01752c0,0 2.31455,-0.91035 3.30956,2.56735c0.89803,3.13872 -2.09033,3.74614 -2.09033,3.74614l-20.43393,4.95047c0,0 -1.07442,0.84401 -1.88463,-3.15959c-0.75032,-3.70763 0.53316,-4.08686 0.53316,-4.08686z" fill="#5d5f60" stroke="none"/><path d="M226.58132,231.15543l5.67631,-1.10884c0,0 2.31455,-0.91035 3.30956,2.56735c0.89803,3.13872 -2.09033,3.74614 -2.09033,3.74614l-5.16694,1.25178c0,0 -0.02081,-2.23445 -0.32712,-3.37853c-0.26339,-0.98378 -1.40148,-3.0779 -1.40148,-3.0779z" fill="url(#color-4)" stroke="none"/></g><path d="M161.37751,173.77694l123.44962,-42.91461c0,0 3.68713,-0.00651 4.35261,1.90464c0.66548,1.91114 -2.24002,5.1037 -2.24002,5.1037l-125.76066,43.81907c0,0 -1.60549,0.10272 -1.68886,-3.68282c-0.08865,-4.02601 1.88731,-4.22997 1.88731,-4.22997z" fill="#5d5f60" stroke="none" stroke-linecap="butt"/><path d="M180.49528,167.13106l12.36651,-4.29895l2.51843,6.94085l-13.06376,4.55184z" fill="url(#color-5)" stroke="none" stroke-linecap="butt"/><path d="M274.5648,89.77432c0,-11.78208 9.55126,-21.33333 21.33334,-21.33333c11.78208,0 21.33333,9.55126 21.33333,21.33333c0,11.78208 -9.55126,21.33333 -21.33333,21.33333c-11.78208,0 -21.33334,-9.55125 -21.33334,-21.33333z" fill="url(#color-6)" stroke="#000000" stroke-linecap="butt"/><path d="M281.5648,90.10765c0,-8.10018 6.5665,-14.66666 14.66667,-14.66666c8.10017,0 14.66667,6.56649 14.66667,14.66666c0,8.10018 -6.56649,14.66667 -14.66667,14.66667c-8.10017,0 -14.66667,-6.56649 -14.66667,-14.66667z" fill="url(#color-7)" stroke="#000000" stroke-linecap="butt"/><path d="M169.89815,89.77432c0,-11.78208 9.55126,-21.33333 21.33333,-21.33333c11.78207,0 21.33334,9.55126 21.33334,21.33333c0,11.78208 -9.55126,21.33333 -21.33334,21.33333c-11.78207,0 -21.33333,-9.55125 -21.33333,-21.33333z" fill="url(#color-8)" stroke="#000000" stroke-linecap="butt"/><path d="M176.89815,90.10765c0,-8.10018 6.56649,-14.66666 14.66667,-14.66666c8.10018,0 14.66666,6.56649 14.66666,14.66666c0,8.10018 -6.56649,14.66667 -14.66666,14.66667c-8.10018,0 -14.66667,-6.56649 -14.66667,-14.66667z" fill="url(#color-9)" stroke="#000000" stroke-linecap="butt"/><path d="M227.89814,191.21876l2.6,-26.73334c0,0 5.82767,-6.20201 9.48657,-7.1833c5.90937,-1.58484 10.1801,9.7833 10.1801,9.7833c0,0 8.33496,5.32289 10.02583,8.61372c2.26963,4.41723 2.37417,15.51962 2.37417,15.51962c0,0 -9.96966,11.4 -15.93334,11.4c-5.56415,0 -18.73333,-11.4 -18.73333,-11.4z" fill="url(#color-10)" stroke="none" stroke-linecap="butt"/><path d="M246.51911,223.42758l-18.50701,-174.71829c0,0 -0.3616,-2.99239 3.36559,-3.62367c3.71935,-0.62995 3.9079,2.90052 3.9079,2.90052l18.61888,175.18924c0,0 0.8843,2.704 -3.19481,2.98434c-3.77755,0.2596 -4.19056,-2.73213 -4.19056,-2.73213z" fill="#5d5f60" stroke="none" stroke-linecap="butt"/><path d="M245.56228,214.39441l-1.29359,-12.21231l7.27626,-1.20801l1.30009,12.23284z" fill="url(#color-11)" stroke="none" stroke-linecap="butt"/><path d="M244.29775,202.45648l-5.04245,-47.60402l8.43891,9.88914l3.91542,36.84112z" fill="#332626" stroke="none" stroke-linecap="butt"/><path d="M231.57244,81.87856l-1.5943,-15.4562l7.25974,-0.94358l1.63235,15.77103z" fill="url(#color-12)" stroke="none" stroke-linecap="butt"/><path d="M252.47273,143.224l-103.62612,-79.64356c0,0 -2.41449,-1.80427 -0.29802,-4.93653c2.11201,-3.12566 4.7963,-0.82472 4.7963,-0.82472l104.04406,79.88776c0,0 2.56671,1.22704 -0.0466,4.3716c-2.42012,2.9121 -4.86962,1.14546 -4.86962,1.14546z" fill="#5d5f60" stroke="none" stroke-linecap="butt"/><path d="M201.75162,104.24146l-14.81844,-11.38896l3.9327,-6.2237l14.73455,11.57827z" fill="url(#color-13)" stroke="none" stroke-linecap="butt"/><path d="M179.83998,139.34617c0,-33.30185 28.7599,-60.29833 64.23702,-60.29833c35.47712,0 64.23702,26.99649 64.23702,60.29833c0,33.30185 -32.02588,63.73352 -63.98702,64.79833c-24.97452,0.83204 -64.48702,-31.49649 -64.48702,-64.79833zM246.8649,201.62722c5.52285,0 12.58334,-17.47715 12.58334,-23c0,-2.64974 -5.7836,-5.87385 -10.41387,-9.89851c-5.02059,-4.36394 -8.91947,-9.43482 -8.91947,-9.43482c0,0 -8.66666,15.06049 -8.66666,20.58334c0,5.52285 4.89381,21.75 15.41666,21.75z" fill="url(#color-14)" stroke="#000000" stroke-linecap="butt"/><path d="M200.98333,172.48681c-1.97987,0.2087 -2.06558,-6.31866 -2.59492,-10.23577c-0.66268,-4.9038 -1.07174,-16.89756 -1.07174,-16.89756h36.4c0,0 -5.18578,15.84705 -6.20614,22.92893c-1.03499,7.18335 -0.02168,10.67525 -2.12719,10.7044c-0.86837,0.01202 -1.82876,-5.19987 -2.41587,-10.47788c-0.61767,-5.55265 -0.85781,-11.19626 -1.62156,-11.64665c-0.89622,-0.52851 -3.43604,6.38832 -4.28614,13.51807c-0.86811,7.28079 -0.05264,14.78361 -1.57521,14.80662c-1.95124,0.02948 -2.85822,-7.51725 -3.00706,-14.66068c-0.11241,-5.39515 0.63723,-10.56027 -0.73598,-12.05765c-1.85188,-2.01933 -2.70466,7.06293 -5.84064,7.09728c-4.38003,0.04799 -2.38928,6.65439 -4.91754,6.92089z" fill="url(#color-15)" stroke="none" stroke-linecap="butt"/><path d="M193.39019,139.27565c0,-12.968 10.51265,-23.48065 23.48065,-23.48065c12.968,0 23.48065,10.51265 23.48065,23.48065c0,12.968 -10.51265,23.48065 -23.48065,23.48065c-12.968,0 -23.48065,-10.51265 -23.48065,-23.48065z" fill="url(#color-16)" stroke="#000000" stroke-linecap="butt"/><path d="M205.45558,138.75c0,-9.12808 7.39976,-16.52784 16.52783,-16.52784c9.12808,0 16.52784,7.39977 16.52784,16.52784c0,9.12808 -7.39977,16.52784 -16.52784,16.52784c-9.12808,0 -16.52783,-7.39977 -16.52783,-16.52784z" fill="#000000" stroke="none" stroke-linecap="butt"/><path d="M270.4626,162.75627c-12.968,0 -23.48065,-10.51265 -23.48065,-23.48065c0,-12.968 10.51265,-23.48065 23.48065,-23.48065c12.968,0 23.48065,10.51265 23.48065,23.48065c0,12.968 -10.51265,23.48065 -23.48065,23.48065z" data-paper-data="{&quot;index&quot;:null}" fill="url(#color-17)" stroke="#000000" stroke-linecap="butt"/><path d="M206.02786,110.46718c0,0 6.70895,-5.16922 11.79721,-6.36355c5.08827,-1.19433 12.33413,0.69937 12.33413,0.69937c0,0 -8.03812,-0.06028 -11.96762,0.86207c-4.10648,0.96389 -12.16372,4.80211 -12.16372,4.80211z" fill="#000000" stroke="none" stroke-linecap="butt"/><path d="M269.96236,105.66508c-3.9295,-0.92235 -11.96762,-0.86207 -11.96762,-0.86207c0,0 7.24586,-1.8937 12.33413,-0.69937c5.08826,1.19433 11.79721,6.36355 11.79721,6.36355c0,0 -8.05724,-3.83822 -12.16372,-4.80211z" data-paper-data="{&quot;index&quot;:null}" fill="#000000" stroke="none" stroke-linecap="butt"/><path d="M240.07216,85.1102c0,0 -0.31681,-11.18942 4.28605,-18.88927c6.639,-11.106 14.33538,-7.43386 14.33538,-7.43386c0,0 -6.65329,6.79884 -8.98204,11.06679c-2.20558,4.04221 -2.19806,16.53467 -2.19806,16.53467" fill="url(#color-18)" stroke="#000000" stroke-linecap="round"/><path d="M268.15923,136.53902l53.59379,-18.0294c0,0 4.00514,0.34147 4.67062,2.25262c0.66548,1.91114 -2.22504,4.7707 -2.22504,4.7707l-56.23782,18.91888c0,0 -1.60549,0.10272 -1.68886,-3.68282c-0.08866,-4.02601 1.88731,-4.22997 1.88731,-4.22997z" fill="#5d5f60" stroke="none" stroke-linecap="butt"/><path d="M268.15923,136.53902l9.84942,-3.31343c0,0 -0.60923,2.62373 -0.34626,3.63376c0.34207,1.31386 2.2245,3.58042 2.2245,3.58042l-11.92611,4.01205c0,0 -1.60549,0.10272 -1.68886,-3.68282c-0.08866,-4.02601 1.88731,-4.22997 1.88731,-4.22997z" fill="url(#color-19)" stroke="none" stroke-linecap="butt"/><path d="M316.73684,149.06759c-12.95489,-0.5829 -22.98439,-11.55745 -22.40149,-24.51235c0.5829,-12.95489 11.55745,-22.98439 24.51235,-22.40149c12.95489,0.5829 22.98439,11.55745 22.40149,24.51235c-0.5829,12.95489 -11.55745,22.98439 -24.51235,22.40149z" data-paper-data="{&quot;index&quot;:null}" fill="url(#color-20)" stroke="#000000" stroke-linecap="butt"/><path d="M322.24559,139.07667c-9.11884,-0.4103 -16.17851,-8.1352 -15.76822,-17.25404c0.4103,-9.11885 8.1352,-16.17852 17.25403,-15.76823c9.11884,0.4103 16.17851,8.1352 15.76822,17.25404c-0.4103,9.11885 -8.1352,16.17852 -17.25403,15.76823z" data-paper-data="{&quot;index&quot;:null}" fill="#000000" stroke="none" stroke-linecap="butt"/><path d="M320.52041,118.92429l33.10421,-11.13654c0,0 1.8068,-0.30036 2.02934,3.53132c0.24103,4.14977 -2.22779,4.38148 -2.22779,4.38148l-30.32835,10.20272c0,0 -3.36897,-0.74627 -4.06154,-2.62158c-0.69257,-1.87533 1.48414,-4.35739 1.48414,-4.35739z" fill="#5d5f60" stroke="none" stroke-linecap="butt"/><path d="M320.52041,118.92429l10.76018,-3.61982c0,0 -0.31314,2.69103 -0.02733,3.71639c0.36236,1.29998 2.02689,3.45698 2.02689,3.45698l-10.18233,3.42543c0,0 -3.36897,-0.74627 -4.06154,-2.62158c-0.69257,-1.87533 1.48414,-4.35739 1.48414,-4.35739z" fill="url(#color-21)" stroke="none" stroke-linecap="butt"/><path d="M196.59127,109.16519c-3.59844,-0.21645 -3.85714,-6.85714 -3.85714,-6.85714c0,0 2.65723,-4.31518 4.31681,-5.80641c1.62542,-1.46052 5.54033,-3.62217 5.54033,-3.62217c0,0 4.38738,7.42606 1.31484,8.29516c-1.88292,0.5326 0.12064,17.22971 -2.45769,17.27627c-2.42902,0.04386 -2.56506,-9.14784 -4.85715,-9.28571z" fill="url(#color-22)" stroke="none" stroke-linecap="butt"/></g></g></svg>