<svg version="1.1" xmlns="http://www.w3.org/2000/svg" xmlns:xlink="http://www.w3.org/1999/xlink" width="146.09927" height="301.2758" viewBox="0,0,146.09927,301.2758"><defs><linearGradient x1="240.00004" y1="175.50005" x2="240.00004" y2="307.50005" gradientUnits="userSpaceOnUse" id="color-1"><stop offset="0" stop-color="#000000"/><stop offset="1" stop-color="#65325d"/></linearGradient><linearGradient x1="202.71492" y1="7.07805" x2="188.99047" y2="112.92094" gradientUnits="userSpaceOnUse" id="color-2"><stop offset="0" stop-color="#000000"/><stop offset="1" stop-color="#4c2646"/></linearGradient><linearGradient x1="293.44603" y1="18.84299" x2="279.72158" y2="124.68587" gradientUnits="userSpaceOnUse" id="color-3"><stop offset="0" stop-color="#000000"/><stop offset="1" stop-color="#4c2647"/></linearGradient><linearGradient x1="238.29247" y1="80.16004" x2="222.78475" y2="199.75547" gradientUnits="userSpaceOnUse" id="color-4"><stop offset="0" stop-color="#1b0d19"/><stop offset="1" stop-color="#804076"/></linearGradient><linearGradient x1="224.60227" y1="66.42657" x2="221.68092" y2="88.956" gradientUnits="userSpaceOnUse" id="color-5"><stop offset="0" stop-color="#33002b"/><stop offset="1" stop-color="#990085"/></linearGradient><linearGradient x1="258.81582" y1="70.86297" x2="255.89448" y2="93.39238" gradientUnits="userSpaceOnUse" id="color-6"><stop offset="0" stop-color="#33002b"/><stop offset="1" stop-color="#990085"/></linearGradient><linearGradient x1="241.03702" y1="72.79904" x2="239.04384" y2="88.17036" gradientUnits="userSpaceOnUse" id="color-7"><stop offset="0" stop-color="#1a0016"/><stop offset="1" stop-color="#80006e"/></linearGradient><linearGradient x1="280.33955" y1="74.75864" x2="268.36218" y2="167.12807" gradientUnits="userSpaceOnUse" id="color-8"><stop offset="0" stop-color="#1a0d17"/><stop offset="1" stop-color="#66335d"/></linearGradient><linearGradient x1="247.84197" y1="72.56146" x2="232.39006" y2="191.72648" gradientUnits="userSpaceOnUse" id="color-9"><stop offset="0" stop-color="#4c0000"/><stop offset="1" stop-color="#650000"/></linearGradient><radialGradient cx="237.93701" cy="132.4928" r="34.54447" gradientUnits="userSpaceOnUse" id="color-10"><stop offset="0" stop-color="#330000"/><stop offset="1" stop-color="#330000" stop-opacity="0"/></radialGradient><radialGradient cx="208.02961" cy="136.41574" r="23.48065" gradientUnits="userSpaceOnUse" id="color-11"><stop offset="0" stop-color="#808080"/><stop offset="1" stop-color="#804040"/></radialGradient><radialGradient cx="266.43225" cy="133.23273" r="23.48065" gradientUnits="userSpaceOnUse" id="color-12"><stop offset="0" stop-color="#808080"/><stop offset="1" stop-color="#804040"/></radialGradient><linearGradient x1="224.74943" y1="189.53267" x2="228.28205" y2="182.28739" gradientUnits="userSpaceOnUse" id="color-13"><stop offset="0" stop-color="#4d4d4d"/><stop offset="1" stop-color="#808080"/></linearGradient><linearGradient x1="246.22183" y1="169.0537" x2="250.52064" y2="179.46943" gradientUnits="userSpaceOnUse" id="color-14"><stop offset="0" stop-color="#4d4d4d"/><stop offset="1" stop-color="#808080"/></linearGradient><linearGradient x1="266.31059" y1="160.03004" x2="267.79136" y2="169.12759" gradientUnits="userSpaceOnUse" id="color-15"><stop offset="0" stop-color="#4d4d4d"/><stop offset="1" stop-color="#808080"/></linearGradient></defs><g transform="translate(-166.35825,-6.22425)"><g data-paper-data="{&quot;isPaintingLayer&quot;:true}" fill-rule="nonzero" stroke-width="0" stroke-linejoin="miter" stroke-miterlimit="10" stroke-dasharray="" stroke-dashoffset="0" style="mix-blend-mode: normal"><path d="M206.75005,307.50004l15.14285,-131.8421l37.78325,-0.15789l13.57389,132z" fill="url(#color-1)" stroke="none" stroke-linecap="butt"/><g><path d="M178.8597,111.6073c0,0 -15.86909,-105.83932 16.28587,-105.38157c32.84176,0.46751 20.00451,79.73424 20.00451,79.73424" fill="url(#color-2)" stroke="none" stroke-linecap="round"/><path d="M261.30344,91.94459c0,0 7.80411,-79.91937 39.67899,-71.9952c31.2083,7.75845 -11.13008,106.05011 -11.13008,106.05011" data-paper-data="{&quot;index&quot;:null}" fill="url(#color-3)" stroke="none" stroke-linecap="round"/><path d="M166.8349,131.69741c4.28233,-33.02536 36.27499,-56.09943 71.45756,-51.53737c35.18258,4.56206 60.23218,35.0327 55.94984,68.05806c-4.28233,33.02536 -36.27499,56.09943 -71.45756,51.53737c-35.18258,-4.56206 -60.23218,-35.0327 -55.94984,-68.05806z" fill="url(#color-4)" stroke="none" stroke-linecap="butt"/><g stroke="#000000" stroke-linecap="butt"><path d="M210.65255,85.49194c-2.22352,-7.39707 4.12479,-8.61447 4.12479,-8.61447c0,0 -4.46846,-2.76238 -2.31384,-9.23993c2.76894,-8.32441 23.23756,8.72556 23.23756,8.72556l-1.13658,7.46915c0,0 -21.86858,8.45743 -23.91195,1.65969z" fill="url(#color-5)"/><path d="M244.74378,85.15218l0.806,-7.51202c0,0 24.14023,-11.26562 24.69448,-2.5103c0.43128,6.81285 -4.59393,8.3442 -4.59393,8.3442c0,0 5.82787,2.79626 1.79128,9.38159c-3.70953,6.05176 -22.69784,-7.7035 -22.69784,-7.7035z" data-paper-data="{&quot;index&quot;:null}" fill="url(#color-6)"/><path d="M232.35477,79.48812c0.5504,-4.24466 4.43757,-7.23947 8.68225,-6.68907c4.24466,0.5504 7.23947,4.43757 6.68907,8.68225c-0.5504,4.24466 -4.43757,7.23947 -8.68225,6.68907c-4.24466,-0.5504 -7.23947,-4.43757 -6.68907,-8.68225z" fill="url(#color-7)"/></g><path d="M240.93838,98.79862l21.63366,-14.93308l5.24635,4.64971l17.93362,-13.05478l3.50902,12.95421l20.67743,-5.52359l-11.22723,21.92863l13.28194,5.64802l-10.49696,14.7907l3.2283,15.8743l-11.58003,11.0806l-9.70289,16.87005l-3.99403,-3.35433z" fill="url(#color-8)" stroke="none" stroke-linecap="butt"/><path d="M205.45245,170.25634c0,0 -5.26192,1.82429 -7.91251,2.41991c-2.73664,0.61496 -8.25746,1.21369 -8.25746,1.21369c0,0 3.64283,-6.16768 4.69486,-9.40205c0.84446,-2.59616 1.1326,-8.5138 1.1326,-8.5138c0,0 -7.3858,1.07654 -11.1164,-0.02998c-3.43154,-1.01783 -10.44509,-6.36535 -10.44509,-6.36535c0,0 2.89436,-7.54613 4.73182,-10.53237c1.57663,-2.56232 5.63067,-6.30877 5.63067,-6.30877c0,0 -1.30532,-3.30746 -2.83365,-4.74381c-1.53693,-1.4444 -6.36227,-3.8986 -6.36227,-3.8986c0,0 7.46897,-7.62147 10.91838,-10.16953c3.51967,-2.59998 9.99313,-5.27772 9.99313,-5.27772l-4.6199,-2.70004c0,0 7.45163,0.10345 10.07569,-0.48866c2.61202,-0.58938 5.63268,-3.05584 5.63268,-3.05584c0,0 3.7888,-5.0896 5.67488,-7.08966c1.54042,-1.63347 4.81602,-4.03507 4.81602,-4.03507c0,0 -0.42404,2.73605 -0.11664,4.28727c0.34238,1.7278 2.07731,5.60701 2.07731,5.60701c0,0 9.71693,-6.2254 13.65864,-8.08585c2.82981,-1.33564 7.78173,-2.03378 7.78173,-2.03378c0,0 -1.03358,3.28021 -0.9632,4.41338c0.07869,1.2672 1.4132,2.83276 1.4132,2.83276l21.30935,-12.84724l5.41897,4.87377l17.51122,-12.90788l3.16378,12.50609l18.61688,-5.18576l-10.65052,20.59169l12.85954,5.79492l-9.79907,14.0745l3.33117,15.08094l-11.03645,11.55444l-8.34023,17.24842l-3.99403,-3.35433l-18.297,16.28522l-1.95268,-5.70625l-17.23154,16.66018l-2.88225,-8.60332l-29.23949,3.97047c0,0 -0.53797,-6.16784 -1.28255,-9.23271c-0.71853,-2.95764 -3.1096,-8.84632 -3.1096,-8.84632z" fill="url(#color-9)" stroke="none" stroke-linecap="butt"/><path d="M220.43967,165.05762l-7.20302,-60.06968l42.19771,-5.05996l7.20302,60.06968z" fill="url(#color-10)" stroke="none" stroke-linecap="butt"/><path d="M211.32674,162.26378c7.08018,-5.3419 13.75924,10.05662 27.32559,10.60889c9.66683,0.39353 26.60142,-14.18077 34.70001,-13.50454c9.65895,0.80651 6.23911,6.54763 6.23911,6.54763l-18.40728,18.69101l-1.9784,-5.5079l-17.80084,16.3847l-4.12372,-8.36095l-27.39399,1.06942c0,0 -0.04032,-4.75973 -0.73695,-8.24992c-0.66288,-3.3211 -3.88272,-13.10674 2.17647,-17.67833z" fill="#190000" stroke="none" stroke-linecap="butt"/><path d="M184.74391,133.39632c1.66758,-12.86033 13.44478,-21.93387 26.30512,-20.26629c12.86033,1.66758 21.93387,13.44478 20.26629,26.30512c-1.66758,12.86033 -13.44478,21.93387 -26.30512,20.26629c-12.86033,-1.66758 -21.93387,-13.44478 -20.26629,-26.30512z" fill="url(#color-11)" stroke="none" stroke-linecap="butt"/><path d="M198.94695,136.9084c0.51095,-3.94044 4.1195,-6.72058 8.05992,-6.20963c3.94044,0.51095 6.72058,4.1195 6.20962,8.05993c-0.51095,3.94044 -4.11949,6.72058 -8.05993,6.20962c-3.94044,-0.51095 -6.72057,-4.1195 -6.20961,-8.05993z" fill="#000000" stroke="none" stroke-linecap="butt"/><path d="M263.41284,156.51842c-12.86033,-1.66758 -21.93387,-13.44478 -20.26629,-26.30512c1.66758,-12.86033 13.44478,-21.93387 26.30512,-20.26629c12.86033,1.66758 21.93387,13.44478 20.26629,26.30512c-1.66758,12.86033 -13.44478,21.93387 -26.30512,20.26629z" data-paper-data="{&quot;index&quot;:null}" fill="url(#color-12)" stroke="none" stroke-linecap="butt"/><path d="M268.27806,140.1992c-3.30144,-0.42809 -5.63075,-3.45147 -5.20265,-6.75291c0.42809,-3.30144 3.45147,-5.63075 6.75291,-5.20265c3.30144,0.42809 5.63075,3.45147 5.20265,6.75291c-0.42809,3.30144 -3.45147,5.63075 -6.75291,5.20265z" data-paper-data="{&quot;index&quot;:null}" fill="#000000" stroke="none" stroke-linecap="butt"/><path d="M231.08128,167.07827c0,0 -0.55325,-3.96569 -0.54988,-6.11558c0.00327,-2.08685 3.85713,-6.67825 3.85713,-6.67825l5.51707,12.26489c0,0 -2.75149,1.09102 -3.87051,1.13896c-1.13948,0.04881 -4.95381,-0.61002 -4.95381,-0.61002z" fill="#190000" stroke="none" stroke-linecap="butt"/><path d="M249.73236,164.45812c-1.4432,1.34673 -7.5563,0.35393 -7.5563,0.35393l-4.98714,-12.49501c0,0 5.44272,3.54749 7.2259,4.63159c1.83706,1.11683 9.30974,2.96143 9.30974,2.96143c0,0 -2.549,3.20134 -3.9922,4.54807z" data-paper-data="{&quot;index&quot;:null}" fill="#190000" stroke="none" stroke-linecap="butt"/><path d="M230.57003,183.40295c0,0 -0.90916,2.06804 -2.12692,3.86322c-0.11282,0.16633 -4.97989,0.425 -4.97801,0.23011c0.02495,-2.57174 2.52897,-6.32446 2.52897,-6.32446z" fill="url(#color-13)" stroke="none" stroke-linecap="butt"/><path d="M247.23147,180.82695c0,0 -5.25914,-10.17977 -0.92915,-11.96685c4.32998,-1.78709 7.5075,9.25182 7.5075,9.25182z" fill="url(#color-14)" stroke="none" stroke-linecap="butt"/><path d="M264.91845,169.5952c0,0 -2.28962,-9.08876 1.49237,-9.70433c3.78199,-0.61558 4.25345,8.76911 4.25345,8.76911z" fill="url(#color-15)" stroke="none" stroke-linecap="butt"/></g></g></g></svg>