<svg version="1.1" xmlns="http://www.w3.org/2000/svg" xmlns:xlink="http://www.w3.org/1999/xlink" width="34.17311" height="34.17311" viewBox="0,0,34.17311,34.17311"><g transform="translate(-222.91346,-162.91346)"><g data-paper-data="{&quot;isPaintingLayer&quot;:true}" stroke-miterlimit="10" stroke-dasharray="" stroke-dashoffset="0" style="mix-blend-mode: normal"><path d="M229.98314,162.91347h20.03378c3.9166,0 7.06966,3.15307 7.06966,7.06966v20.03379c0,3.91659 -3.15306,7.06966 -7.06966,7.06966h-20.03378c-3.91659,0 -7.06967,-3.15307 -7.06967,-7.06966v-20.03379c0,-3.91659 3.15308,-7.06966 7.06967,-7.06966z" fill-opacity="0.09677" fill="#191919" fill-rule="evenodd" stroke="none" stroke-width="4.43922" stroke-linecap="round" stroke-linejoin="round"/><g fill-rule="nonzero" stroke="#000000" stroke-width="0.5" stroke-linecap="butt" stroke-linejoin="miter"><path d="M229.10745,181.51728v-12.62037h1.32213v12.62037z" fill="#ffffff"/><path d="M226.58337,168.89691c0,-1.75911 1.42604,-3.18515 3.18514,-3.18515c1.75911,0 3.18514,1.42604 3.18514,3.18515c0,1.75911 -1.42604,3.18514 -3.18514,3.18514c-1.75911,0 -3.18514,-1.42603 -3.18514,-3.18514z" fill="#cccccc"/></g><g fill-rule="nonzero" stroke="#000000" stroke-width="0.5" stroke-linecap="butt" stroke-linejoin="miter"><path d="M249.57048,181.51728v-12.62037h1.32214v12.62037z" fill="#ffffff"/><path d="M247.04641,168.89691c0,-1.75911 1.42603,-3.18515 3.18514,-3.18515c1.75911,0 3.18515,1.42604 3.18515,3.18515c0,1.75911 -1.42604,3.18514 -3.18515,3.18514c-1.75911,0 -3.18514,-1.42603 -3.18514,-3.18514z" fill="#cccccc"/></g><path d="M236.41861,187.62295h7.27443c0.44072,0 0.79552,0.3548 0.79552,0.79552v3.30399c0,0.44072 -0.3548,0.79552 -0.79552,0.79552h-7.27442c-0.44072,0 -0.79552,-0.3548 -0.79552,-0.79552v-3.30399c0,-0.44072 0.3548,-0.79552 0.79552,-0.79552z" fill="#000000" fill-rule="evenodd" stroke="#000000" stroke-width="0.5" stroke-linecap="round" stroke-linejoin="round"/><path d="M230.47655,176.81849h19.15854c1.16072,0 2.09516,0.93444 2.09516,2.09516v8.70165c0,1.16072 -0.93444,2.09516 -2.09516,2.09516h-19.15853c-1.16072,0 -2.09516,-0.93444 -2.09516,-2.09516v-8.70165c0,-1.16072 0.93444,-2.09516 2.09516,-2.09516z" fill="#cccccc" fill-rule="evenodd" stroke="#000000" stroke-width="0.5" stroke-linecap="round" stroke-linejoin="round"/><path d="M231.90659,177.78078h16.29846c0.98745,0 1.78239,0.79494 1.78239,1.78238v7.40264c0,0.98744 -0.79495,1.78238 -1.78239,1.78238h-16.29846c-0.98744,0 -1.78239,-0.79494 -1.78239,-1.78238v-7.40264c0,-0.98744 0.79495,-1.78238 1.78239,-1.78238z" fill="#000000" fill-rule="evenodd" stroke="#000000" stroke-width="0.5" stroke-linecap="round" stroke-linejoin="round"/></g></g></svg>