<svg version="1.1" xmlns="http://www.w3.org/2000/svg" xmlns:xlink="http://www.w3.org/1999/xlink" width="206" height="333" viewBox="0,0,206,333"><defs><linearGradient x1="165.72887" y1="45.77169" x2="165.72887" y2="81.10501" gradientUnits="userSpaceOnUse" id="color-1"><stop offset="0" stop-color="#331600"/><stop offset="1" stop-color="#994200"/></linearGradient><linearGradient x1="315.15243" y1="45.77169" x2="315.15243" y2="81.10501" gradientUnits="userSpaceOnUse" id="color-2"><stop offset="0" stop-color="#331600"/><stop offset="1" stop-color="#994200"/></linearGradient><linearGradient x1="240.00011" y1="175.25003" x2="240.00011" y2="307.25003" gradientUnits="userSpaceOnUse" id="color-3"><stop offset="0" stop-color="#000000"/><stop offset="1" stop-color="#662c00"/></linearGradient><linearGradient x1="240.07703" y1="76.54784" x2="240.07703" y2="197.14451" gradientUnits="userSpaceOnUse" id="color-4"><stop offset="0" stop-color="#1a0b00"/><stop offset="1" stop-color="#803700"/></linearGradient><linearGradient x1="213.11029" y1="136.29421" x2="213.11029" y2="178.52526" gradientUnits="userSpaceOnUse" id="color-5"><stop offset="0" stop-color="#1a0000"/><stop offset="1" stop-color="#800000"/></linearGradient><linearGradient x1="212.87088" y1="113.79501" x2="212.87088" y2="160.75631" gradientUnits="userSpaceOnUse" id="color-6"><stop offset="0" stop-color="#808080"/><stop offset="1" stop-color="#804040"/></linearGradient><linearGradient x1="266.48128" y1="136.71642" x2="266.48128" y2="179.91643" gradientUnits="userSpaceOnUse" id="color-7"><stop offset="0" stop-color="#1a0000"/><stop offset="1" stop-color="#800000"/></linearGradient><linearGradient x1="267.12929" y1="113.795" x2="267.12929" y2="160.7563" gradientUnits="userSpaceOnUse" id="color-8"><stop offset="0" stop-color="#808080"/><stop offset="1" stop-color="#804040"/></linearGradient><linearGradient x1="240.23205" y1="47.47793" x2="240.23205" y2="124.81136" gradientUnits="userSpaceOnUse" id="color-9"><stop offset="0" stop-color="#33251a"/><stop offset="1" stop-color="#996e4d"/></linearGradient><linearGradient x1="168.7024" y1="114.66321" x2="168.7024" y2="159.99654" gradientUnits="userSpaceOnUse" id="color-10"><stop offset="0" stop-color="#331600"/><stop offset="1" stop-color="#994200"/></linearGradient><linearGradient x1="178.2893" y1="112.99654" x2="178.2893" y2="161.32987" gradientUnits="userSpaceOnUse" id="color-11"><stop offset="0" stop-color="#33251a"/><stop offset="1" stop-color="#996e4d"/></linearGradient><linearGradient x1="312.18429" y1="114.66322" x2="312.18429" y2="159.99655" gradientUnits="userSpaceOnUse" id="color-12"><stop offset="0" stop-color="#331600"/><stop offset="1" stop-color="#994200"/></linearGradient><linearGradient x1="302.2349" y1="112.99654" x2="302.2349" y2="161.32987" gradientUnits="userSpaceOnUse" id="color-13"><stop offset="0" stop-color="#33251a"/><stop offset="1" stop-color="#996e4d"/></linearGradient><linearGradient x1="239.6991" y1="83.94273" x2="239.6991" y2="105.27606" gradientUnits="userSpaceOnUse" id="color-14"><stop offset="0" stop-color="#321500" stop-opacity="0"/><stop offset="1" stop-color="#321500"/></linearGradient><linearGradient x1="224.28463" y1="207.8165" x2="197.83874" y2="198.17739" gradientUnits="userSpaceOnUse" id="color-15"><stop offset="0" stop-color="#000000"/><stop offset="1" stop-color="#808080"/></linearGradient><linearGradient x1="222.01309" y1="218.13551" x2="194.11029" y2="214.42981" gradientUnits="userSpaceOnUse" id="color-16"><stop offset="0" stop-color="#000000"/><stop offset="1" stop-color="#808080"/></linearGradient><linearGradient x1="222.44942" y1="228.74596" x2="194.81651" y2="234.10512" gradientUnits="userSpaceOnUse" id="color-17"><stop offset="0" stop-color="#000000"/><stop offset="1" stop-color="#808080"/></linearGradient><linearGradient x1="256.28567" y1="207.8165" x2="282.73157" y2="198.17739" gradientUnits="userSpaceOnUse" id="color-18"><stop offset="0" stop-color="#000000"/><stop offset="1" stop-color="#808080"/></linearGradient><linearGradient x1="258.55722" y1="218.13551" x2="286.46002" y2="214.42981" gradientUnits="userSpaceOnUse" id="color-19"><stop offset="0" stop-color="#000000"/><stop offset="1" stop-color="#808080"/></linearGradient><linearGradient x1="258.12089" y1="228.74596" x2="285.75379" y2="234.10512" gradientUnits="userSpaceOnUse" id="color-20"><stop offset="0" stop-color="#000000"/><stop offset="1" stop-color="#808080"/></linearGradient></defs><g transform="translate(-137,-13.5)"><g data-paper-data="{&quot;isPaintingLayer&quot;:true}" fill-rule="nonzero" stroke-linejoin="miter" stroke-miterlimit="10" stroke-dasharray="" stroke-dashoffset="0" style="mix-blend-mode: normal"><path d="M137,346.5v-333h206v333z" fill="none" stroke="#000000" stroke-width="0" stroke-linecap="butt"/><path d="M178.40902,313.61251v-267.22501h123.18203v267.22501z" fill-opacity="0.01" fill="#000000" stroke="none" stroke-width="0" stroke-linecap="butt"/><path d="M206.75011,307.25002l15.14285,-131.8421l37.78325,-0.15789l13.57389,132z" fill="#000000" stroke="#000000" stroke-width="0" stroke-linecap="butt"/><path d="M237.67935,212.51575v-20.60672h4.74451v20.60672z" fill="#1a0000" stroke="none" stroke-width="0" stroke-linecap="butt"/><path d="M256.21441,239.67113c0,5.25378 -4.3798,9.18988 -13.52948,9.18988c-9.14968,0 -10.18823,-3.45172 -10.18823,-8.7055c0,-3.84145 8.35772,-2.26282 11.76492,-6.86995c2.96035,-4.00292 1.50042,-11.8462 5.40954,-11.8462c9.14968,0 6.54326,12.97798 6.54326,18.23176z" fill="#4d2637" stroke="none" stroke-width="0" stroke-linecap="butt"/><path d="M226.00863,255.29059v-12.15005c0,0 10.52381,1.67063 15.57143,1.67063c5.04762,0 14.71428,-1.67063 14.71428,-1.67063v12.15005z" fill="#4d363f" stroke="none" stroke-width="0" stroke-linecap="butt"/><path d="M226.11699,247.96845c-3.4667,-0.18308 -3.9511,-17.44286 0.35486,-20.74978c4.95451,-3.80499 29.67413,-3.61191 29.80876,2.64088c0.09041,4.19871 -16.89879,10.69688 -16.89879,10.69688c0,0 -11.56823,7.50162 -13.26484,7.41202z" fill="#1a000b" stroke="none" stroke-width="0" stroke-linecap="butt"/><path d="M230.83598,233.77871c-9.68197,0.6546 -7.73771,-8.29223 -6.37233,-17.50873c1.41607,-9.55868 5.70506,-16.83207 9.86427,-16.83207c4.15921,0 5.86427,7.61171 5.86427,17.00122c0,9.38952 -1.84991,16.83208 -9.35621,17.33958z" fill="#330017" stroke="none" stroke-width="0" stroke-linecap="butt"/><path d="M256.54008,215.98767c1.36538,9.21649 3.30965,18.16332 -6.37233,17.50873c-7.50629,-0.5075 -9.02287,-7.95003 -9.02287,-17.33957c0,-9.38952 1.87172,-17.00122 6.03094,-17.00122c4.15922,0 7.94819,7.27336 9.36426,16.83206z" data-paper-data="{&quot;index&quot;:null}" fill="#330017" stroke="none" stroke-width="0" stroke-linecap="butt"/><path d="M233.13437,217.18539c0,-5.37618 1.8034,-9.82829 7.93555,-9.73444c6.88195,0.10534 8.24077,5.00722 8.24077,10.3834c0,5.37618 0.47873,11.35685 -4.42561,13.14149c-4.78443,1.74103 -11.75071,-8.41428 -11.75071,-13.79045z" fill="#660000" stroke="none" stroke-width="0" stroke-linecap="butt"/><g stroke="#000000" stroke-width="0" stroke-linecap="butt"><path d="M212.63364,115.52856l-49.49748,-49.49748l5.18545,-5.18544l49.49747,49.49748z" fill="#4d3626"/><path d="M153.23666,75.93058c-6.89926,-6.89926 -6.89926,-18.08518 0,-24.98444c6.89926,-6.89926 18.08518,-6.89926 24.98444,0c6.89926,6.89926 6.89926,18.08518 0,24.98444c-6.89926,6.89926 -18.08518,6.89926 -24.98444,0z" fill="url(#color-1)"/></g><g data-paper-data="{&quot;index&quot;:null}" stroke="#000000" stroke-width="0" stroke-linecap="butt"><path d="M263.06219,110.34312l49.49748,-49.49747l5.18544,5.18544l-49.49747,49.49748z" fill="#4d3626"/><path d="M302.66017,75.93058c-6.89926,-6.89926 -6.89926,-18.08518 0,-24.98444c6.89926,-6.89926 18.08518,-6.89926 24.98444,0c6.89926,6.89926 6.89926,18.08518 0,24.98444c-6.89926,6.89926 -18.08518,6.89926 -24.98444,0z" fill="url(#color-2)"/></g><path d="M206.75011,307.25002l15.14285,-131.8421l37.78325,-0.15789l13.57389,132h-8.82641l-47.5,-0.00001zM240.17364,247.21962c14.8011,0.25666 21.82815,-14.94816 21.75,-30.5c-0.07815,-15.55184 -9.63846,-19.03564 -22,-19.25c-12.36154,-0.21436 -21.30792,6.97536 -21.25,18.5c0.05792,11.52464 6.6989,30.99334 21.5,31.25z" fill="url(#color-3)" stroke="#000000" stroke-width="0" stroke-linecap="butt"/><path d="M175.84001,136.84617c0,-33.30185 28.7599,-60.29833 64.23702,-60.29833c35.47712,0 64.23702,26.99649 64.23702,60.29833c0,33.30185 -28.7599,60.29833 -64.23702,60.29833c-35.47712,0 -64.23702,-26.99649 -64.23702,-60.29833z" fill="url(#color-4)" stroke="#000000" stroke-width="0" stroke-linecap="butt"/><path d="M202.0817,172.76648c-0.78123,0.02856 -1.22881,-2.73934 -1.30702,-6.45921c-0.03934,-1.87109 0.16416,-3.98303 0.16416,-6.10109c0,-7.53623 0.34286,-23.91197 0.34286,-23.91197h23.6572c0,0 -1.14286,16.09763 -1.14286,23.48539c0,1.13864 -0.19927,3.37804 -0.16045,5.53509c0.04939,2.74367 0.23684,5.3541 -0.98388,5.39657c-2.21906,0.07721 -0.68264,-4.24952 -2.44196,-3.92345c-0.41422,0.07677 -1.32583,-1.38649 -1.6009,-2.97988c-0.47183,-2.73312 -0.23614,-6.23755 -0.82637,-5.81667c-0.64979,0.46336 -1.33864,6.42609 -1.46123,11.52474c-0.09875,4.10703 0.45083,7.58318 -0.47113,7.71158c-1.08287,0.15081 -2.11519,-3.77941 -2.55192,-7.33075c-0.35105,-2.85464 -0.10496,-5.46447 -0.80187,-5.5131c-2.29594,-0.16019 -1.15643,5.05038 -3.16217,5.26721c-0.41296,0.04464 -0.96436,1.07665 -1.02745,2.50813c-0.14667,3.32756 0.58381,8.81371 -0.7849,9.07413c-0.8279,0.15752 -1.84605,-4.57219 -2.15911,-9.3576c-0.31978,-4.88829 0.0701,-9.8347 -0.35509,-9.68935c-0.68231,0.23324 -1.30011,2.09844 -1.6401,4.19951c-0.4767,2.94596 -0.60042,6.35564 -1.28579,6.3807z" fill="url(#color-5)" stroke="none" stroke-width="0" stroke-linecap="butt"/><path d="M189.39023,137.27566c0,-12.968 10.51265,-23.48065 23.48065,-23.48065c12.968,0 23.48065,10.51265 23.48065,23.48065c0,12.968 -10.51265,23.48065 -23.48065,23.48065c-12.968,0 -23.48065,-10.51265 -23.48065,-23.48065z" fill="url(#color-6)" stroke="#000000" stroke-width="0" stroke-linecap="butt"/><path d="M196.45561,137c0,-9.12808 7.39976,-16.52784 16.52783,-16.52784c9.12808,0 16.52784,7.39977 16.52784,16.52784c0,9.12808 -7.39977,16.52784 -16.52784,16.52784c-9.12808,0 -16.52783,-7.39977 -16.52783,-16.52784z" fill="#000000" stroke="none" stroke-width="0" stroke-linecap="butt"/><path d="M258.42425,175.71643c-1.25418,-0.2896 -1.0134,-4.02256 -0.97775,-8.19668c0.01893,-2.21677 -0.2922,-5.41951 -0.31616,-6.39906c-0.13549,-5.53893 -0.79144,-24.40426 -0.79144,-24.40426h20.28476c0,0 1.51662,20.68394 1.51662,28.4c0,6.45935 0.46867,15.09959 -2.65408,15.4c-1.54836,0.14895 -0.81468,-4.50613 -0.89931,-7.99619c-0.05471,-2.256 -0.78243,-3.67591 -1.57588,-4.17165c-0.46482,-0.29041 -0.40543,1.98256 -0.56753,3.74749c-0.21702,2.36296 -0.68081,4.44925 -1.89183,4.3277c-1.593,-0.15989 -1.20208,-3.75685 -1.20656,-7.10781c-0.00363,-2.71362 -0.39706,-5.26593 -1.28284,-5.70099c0,0 -0.39585,3.10348 -1.75537,3.35784c-1.82027,0.34056 -0.31943,3.99436 -2.42165,3.94814c-2.36645,-0.05203 -2.09875,-8.75854 -2.88249,-8.46538c-0.62459,0.23362 -0.08766,2.71264 -0.13144,5.46725c-0.06089,3.83046 -0.71367,8.19384 -2.44704,7.7936z" fill="url(#color-7)" stroke="none" stroke-width="0" stroke-linecap="butt"/><path d="M267.12926,160.7563c-12.968,0 -23.48065,-10.51265 -23.48065,-23.48065c0,-12.968 10.51265,-23.48065 23.48065,-23.48065c12.968,0 23.48065,10.51265 23.48065,23.48065c0,12.968 -10.51265,23.48065 -23.48065,23.48065z" data-paper-data="{&quot;index&quot;:null}" fill="url(#color-8)" stroke="#000000" stroke-width="0" stroke-linecap="butt"/><path d="M267.01671,153.52785c-9.12807,0 -16.52783,-7.39977 -16.52783,-16.52784c0,-9.12808 7.39977,-16.52784 16.52783,-16.52784c9.12807,0 16.52783,7.39977 16.52783,16.52784c0,9.12808 -7.39977,16.52784 -16.52783,16.52784z" data-paper-data="{&quot;index&quot;:null}" fill="#000000" stroke="none" stroke-width="0" stroke-linecap="butt"/><path d="M174.61174,121.14469l-7.38022,3c0,0 -0.61983,-76.56595 73.48132,-76.66666c73.73495,-0.10021 72.51868,77.33333 72.51868,77.33333l-8.66374,-4c0,0 0.0045,-64.86172 -63.85494,-66.33334c-61.84366,-1.42516 -66.1011,66.66667 -66.1011,66.66667z" fill="url(#color-9)" stroke="#000000" stroke-width="0" stroke-linecap="butt"/><path d="M158.14817,137.32987c0,-12.51846 9.08054,-22.66667 20.28196,-22.66667c1.01424,0 1.18635,45.33333 0,45.33333c-11.20142,0 -20.28196,-10.14821 -20.28196,-22.66666z" fill="url(#color-10)" stroke="#000000" stroke-width="0" stroke-linecap="butt"/><path d="M173.2188,161.32987v-48.33334h10.14098v48.33334z" fill="url(#color-11)" stroke="#000000" stroke-width="0" stroke-linecap="butt"/><path d="M302.45653,159.99655c-1.18635,0 -1.01423,-45.33333 0,-45.33333c11.20142,0 20.28197,10.14821 20.28197,22.66667c0,12.51845 -9.08055,22.66666 -20.28197,22.66666z" data-paper-data="{&quot;index&quot;:null}" fill="url(#color-12)" stroke="#000000" stroke-width="0" stroke-linecap="butt"/><path d="M297.16436,161.32987v-48.33334h10.14098v48.33334z" fill="url(#color-13)" stroke="#000000" stroke-width="0" stroke-linecap="butt"/><path d="M257.61575,83.94273l4.83333,21.33333l-23.83333,-11.5l1.33333,11.33334l-23,-18" fill="url(#color-14)" stroke="#000000" stroke-width="0.5" stroke-linecap="round"/><path d="M252.61668,176.65645h-25.10959" fill="none" stroke="#000000" stroke-width="0" stroke-linecap="round"/><path d="M252.61668,176.65644h-25.10959" fill="none" stroke="#000000" stroke-width="2" stroke-linecap="round"/><path d="M202.0279,105.46718c0,0 6.70895,-5.16922 11.79721,-6.36355c5.08827,-1.19433 12.33413,0.69937 12.33413,0.69937c0,0 -8.03812,-0.06028 -11.96762,0.86207c-4.10648,0.96389 -12.16372,4.80211 -12.16372,4.80211z" fill="#000000" stroke="none" stroke-width="0" stroke-linecap="butt"/><path d="M265.96236,100.66508c-3.9295,-0.92235 -11.96762,-0.86207 -11.96762,-0.86207c0,0 7.24586,-1.8937 12.33413,-0.69937c5.08826,1.19433 11.79721,6.36355 11.79721,6.36355c0,0 -8.05724,-3.83822 -12.16372,-4.80211z" data-paper-data="{&quot;index&quot;:null}" fill="#000000" stroke="none" stroke-width="0" stroke-linecap="butt"/><g stroke="none" stroke-width="0" stroke-linecap="butt"><path d="M208.95138,206.05132c-4.26928,-1.55608 -11.86718,-5.81939 -11.86718,-5.81939l1.50909,-4.10908c0,0 7.46317,4.69484 11.73431,6.2516c4.52903,1.65076 14.71159,3.38751 14.71159,3.38751l-1.5091,4.10909c0,0 -10.04821,-2.16843 -14.57871,-3.81973z" data-paper-data="{&quot;index&quot;:null}" fill="url(#color-15)"/><path d="M206.66015,219.72043c-4.50448,-0.59823 -12.8433,-3.12167 -12.8433,-3.12167l0.58691,-4.33792c0,0 8.30039,2.97388 12.80682,3.57237c4.77854,0.63462 15.09597,0.13333 15.09597,0.13333l-0.58691,4.33792c0,0 -10.27941,0.05079 -15.05949,-0.58404z" data-paper-data="{&quot;index&quot;:null}" fill="url(#color-16)"/><path d="M208.39731,235.13055c-4.4609,0.86515 -13.16933,1.12426 -13.16933,1.12426l-0.82292,-4.29939c0,0 8.81521,0.18018 13.27805,-0.68535c4.73232,-0.91779 14.35485,-4.6738 14.35485,-4.6738l0.82292,4.2994c0,0 -9.72973,3.3168 -14.46357,4.23489z" data-paper-data="{&quot;index&quot;:null}" fill="url(#color-17)"/></g><g stroke="none" stroke-width="0" stroke-linecap="butt"><path d="M257.04022,209.87104l-1.50909,-4.10909c0,0 10.18255,-1.73675 14.71159,-3.38751c4.27114,-1.55676 11.73431,-6.2516 11.73431,-6.2516l1.5091,4.10908c0,0 -7.59791,4.26331 -11.86719,5.81939c-4.53049,1.6513 -14.57871,3.81973 -14.57871,3.81973z" fill="url(#color-18)"/><path d="M258.85069,220.30447l-0.58691,-4.33792c0,0 10.31744,0.50129 15.09597,-0.13333c4.50643,-0.59849 12.80682,-3.57237 12.80682,-3.57237l0.58691,4.33792c0,0 -8.33882,2.52344 -12.8433,3.12167c-4.78008,0.63483 -15.05948,0.58404 -15.05948,0.58404z" fill="url(#color-19)"/><path d="M257.70941,230.89566l0.82292,-4.2994c0,0 9.62253,3.75601 14.35485,4.6738c4.46284,0.86553 13.27805,0.68535 13.27805,0.68535l-0.82292,4.29939c0,0 -8.70842,-0.25911 -13.16933,-1.12426c-4.73384,-0.91808 -14.46357,-4.23489 -14.46357,-4.23489z" fill="url(#color-20)"/></g></g></g></svg>