<svg version="1.1" xmlns="http://www.w3.org/2000/svg" xmlns:xlink="http://www.w3.org/1999/xlink" width="151.13634" height="292.45012" viewBox="0,0,151.13634,292.45012"><g transform="translate(-169.62838,-21.16239)"><g data-paper-data="{&quot;isPaintingLayer&quot;:true}" fill-rule="nonzero" stroke-linejoin="miter" stroke-miterlimit="10" stroke-dasharray="" stroke-dashoffset="0" style="mix-blend-mode: normal"><path d="M179.28376,313.61251v-267.22501h123.18203v267.22501z" fill-opacity="0.01" fill="#000000" stroke="none" stroke-width="0" stroke-linecap="butt"/><path d="M206.75008,307.5l15.14285,-131.8421l37.78325,-0.15789l13.57389,132z" fill="#a5ff00" stroke="#000000" stroke-width="2" stroke-linecap="butt"/><path d="M219.7003,204.11263l3.12142,-26.32765l35.83075,-0.14203l2.76735,26.1059c0,0 -7.51543,4.19603 -21.55904,4.50964c-12.48458,0.27879 -20.16049,-4.14586 -20.16049,-4.14586z" fill="#95e600" stroke="#000000" stroke-width="0" stroke-linecap="butt"/><path d="M175.83998,134.84616c0,-33.30185 28.7599,-60.29833 64.23702,-60.29833c35.47712,0 64.23702,26.99649 64.23702,60.29833c0,33.30185 -28.7599,60.29833 -64.23702,60.29833c-35.47712,0 -64.23702,-26.99649 -64.23702,-60.29833z" fill="#a5ff00" stroke="#000000" stroke-width="2" stroke-linecap="butt"/><path d="M176.56304,134.89999c0,-0.72799 5.20666,55.91939 63.36046,56.93429c55.56352,0.9697 63.51358,-57.95314 63.51358,-56.93429c0,32.80479 -28.40173,59.39833 -63.43702,59.39833c-35.03529,0 -63.43702,-26.59354 -63.43702,-59.39833z" fill="#95e600" stroke="#000000" stroke-width="0" stroke-linecap="butt"/><path d="M178.56482,130.47797l-7.66667,-49.33333l21.66667,9.62963l24.66667,-43.33333l14.33333,22.66667l39,-46.33333l2.33333,55.66667l37.33333,-26l-8.33333,58.66667l17,-6l-17.33333,38.66667" fill="#a5ff00" stroke="#000000" stroke-width="2" stroke-linecap="round"/><path d="M189.39013,136.52563c0,-12.96801 10.51265,-23.48065 23.48066,-23.48065c12.96801,0 23.48065,10.51264 23.48065,23.48065c0,12.96801 -10.51264,23.48066 -23.48065,23.48066c-12.96801,0 -23.48066,-10.51265 -23.48066,-23.48066z" fill="#000000" stroke="#000000" stroke-width="2" stroke-linecap="butt"/><path d="M267.12923,160.00629c-12.96801,0 -23.48065,-10.51265 -23.48065,-23.48066c0,-12.96801 10.51264,-23.48065 23.48065,-23.48065c12.96801,0 23.48066,10.51264 23.48066,23.48065c0,12.96801 -10.51265,23.48066 -23.48066,23.48066z" data-paper-data="{&quot;index&quot;:null}" fill="#000000" stroke="#000000" stroke-width="2" stroke-linecap="butt"/><path d="M189.3902,135.27563c0,-12.968 10.51265,-23.48065 23.48065,-23.48065c12.968,0 23.48065,10.51265 23.48065,23.48065c0,12.968 -10.51265,23.48065 -23.48065,23.48065c-12.968,0 -23.48065,-10.51265 -23.48065,-23.48065z" fill="#ffffff" stroke="#000000" stroke-width="2" stroke-linecap="butt"/><path d="M193.70559,135c0,-10.64686 8.63098,-19.27784 19.27783,-19.27784c10.64686,0 19.27784,8.63099 19.27784,19.27784c0,10.64686 -8.63099,19.27784 -19.27784,19.27784c-10.64686,0 -19.27783,-8.63099 -19.27783,-19.27784z" fill="#000000" stroke="none" stroke-width="0" stroke-linecap="butt"/><path d="M267.12928,158.75627c-12.968,0 -23.48065,-10.51265 -23.48065,-23.48065c0,-12.968 10.51265,-23.48065 23.48065,-23.48065c12.968,0 23.48065,10.51265 23.48065,23.48065c0,12.968 -10.51265,23.48065 -23.48065,23.48065z" data-paper-data="{&quot;index&quot;:null}" fill="#ffffff" stroke="#000000" stroke-width="2" stroke-linecap="butt"/><path d="M267.01671,149.02784c-7.74736,0 -14.02783,-6.28048 -14.02783,-14.02784c0,-7.74737 6.28048,-14.02784 14.02783,-14.02784c7.74736,0 14.02783,6.28048 14.02783,14.02784c0,7.74737 -6.28048,14.02784 -14.02783,14.02784z" data-paper-data="{&quot;index&quot;:null}" fill="#000000" stroke="none" stroke-width="0" stroke-linecap="butt"/><path d="M230.5389,156.70902l5.6,-17.6" fill="none" stroke="#000000" stroke-width="2" stroke-linecap="round"/><path d="M243.7389,137.30901l3.6,20.4" fill="none" stroke="#000000" stroke-width="2" stroke-linecap="round"/><path d="M223.1799,191.08538c0,0 -11.00038,4.30009 -17.85965,-1.14109c-6.47635,-5.13742 -4.79268,-8.74311 -4.79268,-8.74311" fill="#95e600" stroke="#000000" stroke-width="2" stroke-linecap="round"/><path d="M279.34238,181.47961c0,0 2.74787,3.60569 -4.03253,8.46469c-6.74778,4.83562 -15.42719,1.00187 -15.42719,1.00187" data-paper-data="{&quot;index&quot;:null}" fill="#95e600" stroke="#000000" stroke-width="2" stroke-linecap="round"/><path d="M206.1962,186.96412c-6.74799,-5.72475 0.61029,-9.94192 1.22383,-11.9376c0.42427,-1.38005 -5.9708,-3.26532 -1.86236,-9.50136c3.81606,-5.79222 23.17558,3.41074 34.85266,3.41074c11.27811,0 25.3272,-12.69731 34.0545,-3.41074c5.16007,5.49073 -1.87326,8.68175 -1.86236,10.23223c0.01601,2.27494 6.38231,4.01031 1.86236,10.23223c-5.22261,7.18916 -22.32618,-0.73087 -33.78845,-0.73087c-11.50661,0 -25.69366,9.15956 -34.48019,1.70537z" fill="#ffffff" stroke="#000000" stroke-width="2" stroke-linecap="butt"/><path d="M276.3471,170.20759c0,0 -0.86612,1.56977 -2.0212,2.83221c-0.8147,0.89042 -2.02441,1.37669 -2.07575,2.15103c-0.07971,1.2024 1.68912,3.18161 2.61261,4.81765c0.74179,1.31415 0.57206,3.75123 0.57206,3.75123c0,0 -22.63423,-2.45428 -34.33443,-2.63741c-12.23429,-0.19149 -37.34057,1.61241 -37.34057,1.61241c0,0 0.12694,-2.44173 1.25885,-4.22783c0.62807,-0.99108 2.41722,-2.69581 2.49762,-3.42422c0.08969,-0.81261 -1.08452,-1.62774 -1.6995,-2.67068c-0.71153,-1.20666 -0.8861,-2.5913 -0.8861,-2.5913c0,0 24.76787,2.84333 35.61693,3.03334c10.7894,0.18897 35.79947,-2.64642 35.79947,-2.64642z" fill="#000000" stroke="#000000" stroke-width="1" stroke-linecap="round"/></g></g></svg>