<svg version="1.1" xmlns="http://www.w3.org/2000/svg" xmlns:xlink="http://www.w3.org/1999/xlink" width="84.31513" height="30.05294" viewBox="0,0,84.31513,30.05294"><g transform="translate(-197.84243,-164.97353)"><g data-paper-data="{&quot;isPaintingLayer&quot;:true}" fill-rule="evenodd" stroke="none" stroke-linecap="round" stroke-linejoin="round" stroke-miterlimit="10" stroke-dasharray="" stroke-dashoffset="0" style="mix-blend-mode: normal"><path d="M282.15756,179.99999c0,8.32468 -6.70181,15.02648 -15.02647,15.02648h-54.2622c-8.32466,0 -15.02646,-6.70181 -15.02646,-15.02648c0,-8.32466 6.70179,-15.02646 15.02646,-15.02646h54.2622c8.32466,0 15.02647,6.70179 15.02647,15.02646z" fill="#666666" stroke-width="0.314"/><g fill="#ffffff" stroke-width="2.58387"><path d="M223.82338,186.12882v-12.25763h5.42097c0.56397,0 1.0819,0.11509 1.5538,0.34528c0.4834,0.2302 0.89773,0.54095 1.24302,0.93227c0.3568,0.39133 0.62727,0.82869 0.81143,1.31209c0.19566,0.4834 0.29349,0.97831 0.29349,1.48472c0,0.51793 -0.09208,1.01859 -0.27623,1.502c-0.17264,0.47189 -0.42585,0.88624 -0.75963,1.24302c-0.33378,0.3568 -0.7251,0.63302 -1.17398,0.82868l2.79682,4.60957h-2.62417l-2.52058,-4.10891h-2.38246v4.10891zM226.20585,179.93093h2.98672c0.29924,0 0.56396,-0.08632 0.79415,-0.25896c0.2302,-0.18415 0.41434,-0.42586 0.55245,-0.7251c0.13812,-0.29926 0.20718,-0.63303 0.20718,-1.00133c0,-0.39132 -0.08057,-0.73085 -0.2417,-1.01859c-0.16112,-0.29926 -0.3683,-0.5352 -0.62151,-0.70784c-0.2417,-0.17264 -0.50641,-0.25896 -0.79415,-0.25896h-2.88313z"/><path d="M243.81542,184.03984v2.08897h-8.51129v-12.25763h8.3559v2.08897h-5.97344v2.95219h5.16202v1.9336h-5.16202v3.19389z"/><path d="M245.67995,186.12882v-12.25763h4.45418c1.33511,0 2.45153,0.27623 3.34927,0.82868c0.89775,0.54094 1.57105,1.27755 2.01992,2.20982c0.44887,0.92076 0.67331,1.94512 0.67331,3.07305c0,1.24303 -0.24745,2.32492 -0.74237,3.24568c-0.4949,0.92076 -1.19698,1.63435 -2.10623,2.14078c-0.89775,0.50641 -1.96238,0.75963 -3.19389,0.75963zM253.77689,179.98274c0,-0.79415 -0.14387,-1.49048 -0.43161,-2.08897c-0.28774,-0.61001 -0.70207,-1.0819 -1.24302,-1.41568c-0.54095,-0.34528 -1.197,-0.51792 -1.96813,-0.51792h-2.07172v8.07968h2.07172c0.78265,0 1.44444,-0.17265 1.98539,-0.51794c0.54095,-0.3568 0.94954,-0.84019 1.22576,-1.45019c0.28774,-0.62152 0.43161,-1.31784 0.43161,-2.08897z"/></g></g></g></svg>