<svg version="1.1" xmlns="http://www.w3.org/2000/svg" xmlns:xlink="http://www.w3.org/1999/xlink" width="153" height="267.22501" viewBox="0,0,153,267.22501"><g transform="translate(-164.34722,-46.38751)"><g data-paper-data="{&quot;isPaintingLayer&quot;:true}" fill-rule="nonzero" stroke-linecap="butt" stroke-linejoin="miter" stroke-miterlimit="10" stroke-dasharray="" stroke-dashoffset="0" style="mix-blend-mode: normal"><path d="M179.28389,313.61252v-267.22501h123.18203v267.22501z" fill-opacity="0.01" fill="#000000" stroke="none" stroke-width="0"/><path d="M206.75021,307.5l15.14285,-131.8421l37.78325,-0.15789l13.57389,132z" fill="#0b00ff" stroke="#000000" stroke-width="2"/><path d="M210.42403,250.08801l8.20157,-86.27259l44.60128,-0.22518l7.50395,87.0552l-30.23979,-11.89646z" fill="#050066" stroke="#000000" stroke-width="2"/><path d="M316.34722,132.02256c0,44.597 -33.8025,80.75 -75.5,80.75c-41.6975,0 -75.5,-36.15301 -75.5,-80.75c0,-44.59699 33.8025,-80.75 75.5,-80.75c41.6975,0 75.5,36.15301 75.5,80.75z" fill="#060080" stroke="#000000" stroke-width="2"/><path d="M308.02018,137.16667c0,38.06162 -30.45365,68.91667 -68.02013,68.91667c-37.56647,0 -68.02013,-30.85504 -68.02013,-68.91667c0,-38.06162 30.45365,-68.91667 68.02013,-68.91667c37.56647,0 68.02013,30.85504 68.02013,68.91667z" fill="#000000" stroke="none" stroke-width="0"/><path d="M175.84012,138.84616c0,-33.30185 28.7599,-60.29833 64.23702,-60.29833c35.47712,0 64.23702,26.99649 64.23702,60.29833c0,33.30185 -28.7599,60.29833 -64.23702,60.29833c-35.47712,0 -64.23702,-26.99649 -64.23702,-60.29833z" fill="#0b00ff" stroke="#000000" stroke-width="2"/><path d="M176.56318,138.9c0,-0.72799 5.20666,55.91939 63.36046,56.93429c55.56352,0.9697 63.51358,-57.95314 63.51358,-56.93429c0,32.80479 -28.40173,59.39833 -63.43702,59.39833c-35.03529,0 -63.43702,-26.59354 -63.43702,-59.39833z" fill="#0b00e6" stroke="#000000" stroke-width="0"/><path d="M175.59737,153.79108c0,0 -8.73921,-80.9842 66.75,-79.5c77.52968,1.52431 61,82.25 61,82.25c0,0 -24.63436,12.69075 -63.02896,13.02851c-34.39482,0.30257 -64.72104,-15.77851 -64.72104,-15.77851z" fill-opacity="0.20144" fill="#000000" stroke="none" stroke-width="0"/><path d="M189.39033,139.27563c0,-12.968 10.51265,-23.48065 23.48065,-23.48065c12.968,0 23.48065,10.51265 23.48065,23.48065c0,12.968 -10.51265,23.48065 -23.48065,23.48065c-12.968,0 -23.48065,-10.51265 -23.48065,-23.48065z" fill="#ffffff" stroke="#000000" stroke-width="2"/><path d="M196.45572,139c0,-9.12808 7.39976,-16.52784 16.52783,-16.52784c9.12808,0 16.52784,7.39977 16.52784,16.52784c0,9.12808 -7.39977,16.52784 -16.52784,16.52784c-9.12808,0 -16.52783,-7.39977 -16.52783,-16.52784z" fill="#000000" stroke="none" stroke-width="0"/><path d="M267.12933,162.75627c-12.968,0 -23.48065,-10.51265 -23.48065,-23.48065c0,-12.968 10.51265,-23.48065 23.48065,-23.48065c12.968,0 23.48065,10.51265 23.48065,23.48065c0,12.968 -10.51265,23.48065 -23.48065,23.48065z" data-paper-data="{&quot;index&quot;:null}" fill="#ffffff" stroke="#000000" stroke-width="2"/><path d="M267.01671,155.52784c-9.12807,0 -16.52783,-7.39977 -16.52783,-16.52784c0,-9.12808 7.39977,-16.52784 16.52783,-16.52784c9.12807,0 16.52783,7.39977 16.52783,16.52784c0,9.12808 -7.39977,16.52784 -16.52783,16.52784z" data-paper-data="{&quot;index&quot;:null}" fill="#000000" stroke="none" stroke-width="0"/><path d="M189.64022,139.38277c0,-12.96801 10.51265,-23.48065 23.48066,-23.48065c12.96801,0 23.48065,10.51264 23.48065,23.48065c0,0 -5.87479,0.43483 -24.09973,1.04454c-16.46595,0.55086 -22.86157,-0.42793 -22.86157,-1.04454z" fill="#0900cc" stroke="#000000" stroke-width="2"/><path d="M243.64867,138.88277c0,-12.96801 10.51264,-23.48065 23.48065,-23.48065c12.96801,0 23.48066,10.51264 23.48066,23.48065c0,0.60606 -6.03889,1.15023 -23.59162,1.05233c-17.30256,-0.0965 -23.36969,-1.05233 -23.36969,-1.05233z" data-paper-data="{&quot;index&quot;:null}" fill="#0900cc" stroke="#000000" stroke-width="2"/><path d="M201.51602,106.74236c0,0 7.62246,-3.69175 12.84735,-3.82286c5.22491,-0.13111 11.93202,3.20104 11.93202,3.20104c0,0 -7.85676,-1.69893 -11.89178,-1.59767c-4.21675,0.10582 -12.8876,2.21949 -12.8876,2.21949z" fill="#000000" stroke="none" stroke-width="0"/><path d="M265.71065,104.5343c-4.03611,-0.03859 -11.86555,1.78213 -11.86555,1.78213c0,0 6.65456,-3.4359 11.88088,-3.38593c5.2263,0.04996 12.90517,3.62292 12.90517,3.62292c0,0 -8.70262,-1.97878 -12.9205,-2.01911z" data-paper-data="{&quot;index&quot;:null}" fill="#000000" stroke="none" stroke-width="0"/><path d="M246.43955,182c0,4.84966 -2.88303,8.78106 -6.43944,8.78106c-3.5564,0 -6.43944,-3.93142 -6.43944,-8.78106c0,-4.84966 2.88303,-8.78106 6.43944,-8.78106c3.5564,0 6.43944,3.93142 6.43944,8.78106z" fill="#000000" stroke="none" stroke-width="0"/></g></g></svg>