<svg version="1.1" xmlns="http://www.w3.org/2000/svg" xmlns:xlink="http://www.w3.org/1999/xlink" width="88.36761" height="22.52932" viewBox="0,0,88.36761,22.52932"><g transform="translate(-283.47879,-147.2241)"><g data-paper-data="{&quot;isPaintingLayer&quot;:true}" fill="#ffffff" fill-rule="nonzero" stroke="none" stroke-width="1" stroke-linecap="butt" stroke-linejoin="miter" stroke-miterlimit="10" stroke-dasharray="" stroke-dashoffset="0" style="mix-blend-mode: normal"><g><path d="M369.45698,148.20558c0.11719,-0.43945 0.41504,-0.65918 0.89355,-0.65918h0.87891c0.24414,0 0.41504,0.09277 0.5127,0.27832c0.10742,0.18555 0.13184,0.40527 0.07324,0.65918l-5.12695,20.12695c-0.11719,0.43945 -0.41504,0.65918 -0.89355,0.65918h-0.87891c-0.24414,0 -0.41992,-0.08789 -0.52734,-0.26367c-0.10742,-0.18555 -0.13184,-0.40527 -0.07324,-0.65918z"/><path d="M355.82547,148.20558c0.11719,-0.43945 0.41504,-0.65918 0.89355,-0.65918h0.87891c0.24414,0 0.41504,0.09277 0.5127,0.27832c0.10742,0.18555 0.13184,0.40527 0.07324,0.65918l-2.12402,8.32031l7.20703,-8.77441c0.25391,-0.32227 0.58105,-0.4834 0.98144,-0.4834h1.25977c0.26367,0 0.43457,0.08789 0.5127,0.26367c0.08789,0.17578 0.04883,0.37109 -0.11719,0.58594l-8.18848,9.71191l3.06152,10.26855c0.18555,0.5957 0.01465,0.89356 -0.5127,0.89356h-1.11328c-0.2832,0 -0.47363,-0.04883 -0.57129,-0.14648c-0.09766,-0.10742 -0.18555,-0.30762 -0.26367,-0.60059l-2.82715,-9.47754l-2.43164,9.56543c-0.11719,0.43945 -0.41504,0.65918 -0.89355,0.65918h-0.87891c-0.24414,0 -0.41992,-0.08789 -0.52734,-0.26367c-0.10742,-0.18555 -0.13184,-0.40527 -0.07324,-0.65918z"/><path d="M340.47651,148.20558c0.11719,-0.42969 0.40527,-0.64941 0.86426,-0.65918h0.9082c0.40039,0 0.65918,0.3125 0.77637,0.9375l2.65137,15.19043l3.94043,-15.46875c0.11719,-0.43945 0.41992,-0.65918 0.9082,-0.65918h0.86426c0.24414,0 0.41992,0.09277 0.52734,0.27832c0.10743,0.18555 0.13183,0.40527 0.0732,0.65918l-5.12695,20.12695c-0.11719,0.43945 -0.41992,0.65918 -0.9082,0.65918h-1.06934c-0.25391,0 -0.41504,-0.11719 -0.4834,-0.35156c-0.03907,-0.14648 -0.06837,-0.26855 -0.0879,-0.36621c-0.00973,-0.09766 -0.0195,-0.16602 -0.0293,-0.20508l-2.65137,-15.13184l-3.92578,15.39551c-0.11719,0.43945 -0.41504,0.65918 -0.89355,0.65918h-0.87891c-0.24414,0 -0.41992,-0.08789 -0.52734,-0.26367c-0.10742,-0.18555 -0.13184,-0.40527 -0.07324,-0.65918z"/><path d="M301.13797,158.22511l1.66992,-0.08789c1.59179,-0.05859 2.69531,-0.65918 3.31055,-1.80176c0.39062,-0.72266 0.68359,-1.54785 0.8789,-2.47559c0.20508,-0.9375 0.30762,-1.71875 0.30762,-2.34375c0,-1.18164 -0.67871,-1.80176 -2.03613,-1.86035c-0.43945,-0.01953 -1.08399,-0.03418 -1.9336,-0.04395zM300.90359,149.59718c-0.33203,0 -0.64941,0 -0.95215,0c-0.29297,0 -0.49804,-0.08301 -0.61523,-0.24902c-0.11719,-0.17578 -0.14649,-0.37598 -0.0879,-0.60059l0.17578,-0.60059c0.03907,-0.17578 0.13184,-0.31738 0.27832,-0.4248c0.14649,-0.11719 0.28321,-0.17578 0.41016,-0.17578h4.70215c1.61133,0 2.83203,0.33691 3.6621,1.01074c0.83985,0.67383 1.25977,1.77734 1.25977,3.31055c0,1.13281 -0.24414,2.38281 -0.73242,3.75c-0.47852,1.36719 -1.05469,2.30957 -1.72852,2.82715c-0.33203,0.25391 -0.5664,0.42969 -0.70312,0.52734c-0.12695,0.08789 -0.43945,0.24902 -0.9375,0.4834c-0.49805,0.23437 -0.99121,0.40039 -1.47949,0.49805c-1.02539,0.20508 -2.20704,0.31738 -3.54493,0.33691l-2.12402,8.32031c-0.11719,0.43945 -0.41504,0.65918 -0.89355,0.65918h-0.86426c-0.24414,0 -0.41992,-0.08789 -0.52735,-0.26367c-0.10742,-0.18555 -0.13182,-0.40527 -0.0732,-0.65918z"/><path d="M313.74116,157.71241l1.875,-0.08789c1.35742,-0.05859 2.39746,-0.64453 3.12012,-1.75781c0.69336,-1.06445 1.04004,-2.51465 1.04004,-4.35058c0,-0.51758 -0.17578,-0.95215 -0.52735,-1.30371c-0.34179,-0.35156 -0.82031,-0.53223 -1.43554,-0.54199c-0.61524,-0.00977 -1.28419,-0.01953 -2.00684,-0.0293zM313.36029,149.62647c-0.3125,0 -0.61523,0 -0.9082,0c-0.29297,0 -0.49805,-0.08301 -0.61524,-0.24902c-0.11719,-0.17578 -0.14649,-0.37598 -0.0879,-0.60059l0.14649,-0.62988c0.03907,-0.17578 0.13184,-0.31738 0.27832,-0.4248c0.14648,-0.11719 0.2832,-0.17578 0.41015,-0.17578h5.09766c1.37695,0 2.48047,0.34668 3.31055,1.04004c0.83007,0.68359 1.24511,1.69922 1.24511,3.04688c0,1.34766 -0.25879,2.6123 -0.77636,3.79394c-0.50781,1.18164 -1.06934,2.02637 -1.68457,2.53418c-0.60547,0.49805 -1.06934,0.83008 -1.3916,0.99609c-0.32227,0.15625 -0.67383,0.29785 -1.05469,0.4248l1.37695,8.8623c0.10742,0.68359 -0.11231,1.02539 -0.65918,1.02539h-1.02539c-0.26367,0 -0.4541,-0.07812 -0.57129,-0.23437c-0.10742,-0.15625 -0.18554,-0.42969 -0.23437,-0.82031l-1.12793,-8.4668l-1.875,0.0293l-2.25586,8.83301c-0.11719,0.43945 -0.41504,0.65918 -0.89356,0.65918h-0.86425c-0.24415,0 -0.41993,-0.08789 -0.52735,-0.26367c-0.10742,-0.18555 -0.13182,-0.40527 -0.0732,-0.65918z"/><path d="M292.48758,147.22413c1.29883,0 2.21679,0.53223 2.7539,1.59668c0.53711,1.06445 0.80567,2.59277 0.80567,4.58496c0,0.49805 -0.16602,0.7959 -0.49805,0.89355l-1.05469,0.33691c-0.16601,0.04883 -0.32715,0.01953 -0.4834,-0.08789c-0.15625,-0.10742 -0.23437,-0.28809 -0.23437,-0.54199c0,-2.64648 -0.42969,-4.16992 -1.28906,-4.57031c-0.40039,-0.20508 -0.87891,-0.1709 -1.43555,0.10254c-0.55664,0.26367 -1.12305,0.9082 -1.69922,1.93359c-0.57617,1.01563 -0.88379,2.17773 -0.92285,3.48633c-0.01953,0.52734 0.06836,0.93262 0.26367,1.21582c0.19531,0.27344 0.57617,0.50781 1.14258,0.70313l1.23047,0.4248c1.18164,0.40039 1.95801,0.88867 2.3291,1.46484c0.33203,0.52734 0.49805,1.38184 0.49805,2.56348c0,1.17187 -0.31738,2.43164 -0.95215,3.7793c-0.625,1.34766 -1.47461,2.46094 -2.54883,3.33984c-1.07422,0.86914 -2.19727,1.30371 -3.36914,1.30371c-2.36328,0 -3.54492,-1.91895 -3.54492,-5.75684v-0.10254c0,-0.76172 0.15137,-1.18164 0.4541,-1.25977l1.11328,-0.35156c0.19531,-0.07812 0.35645,-0.06347 0.4834,0.04395c0.13672,0.10742 0.20508,0.2832 0.20508,0.52734c0,1.57227 0.09277,2.75879 0.27832,3.55957c0.18555,0.79102 0.49316,1.29395 0.92285,1.50879c0.30273,0.06836 0.69336,0 1.17187,-0.20508c0.81055,-0.36133 1.53809,-1.1084 2.18262,-2.24121c0.79101,-1.36719 1.17187,-2.91504 1.14258,-4.64355c-0.0098,-0.52734 -0.30277,-0.94727 -0.87891,-1.25977c-0.29297,-0.14648 -0.708,-0.30273 -1.24511,-0.46875l-1.25977,-0.39551c-0.56641,-0.16602 -1.05469,-0.4834 -1.46484,-0.95215c-0.41016,-0.46875 -0.61524,-1.10352 -0.61524,-1.9043c0,-0.80078 0.16113,-1.70898 0.4834,-2.72461c0.33203,-1.02539 0.77149,-1.97754 1.31836,-2.85645c0.55664,-0.87891 1.25,-1.60645 2.08008,-2.18262c0.83984,-0.57617 1.71875,-0.86426 2.63672,-0.86426z"/><path d="M323.47944,168.40576c-1.39648,-1.48438 -1.63574,-3.98438 -0.71777,-7.5l3.2373,-12.7002c0.11719,-0.43945 0.41992,-0.65918 0.90821,-0.65918h0.86425c0.24415,0 0.41993,0.09277 0.52735,0.27832c0.10742,0.18555 0.13182,0.40527 0.0732,0.65918l-3.38379,13.37402c-0.96679,3.7793 -0.28808,5.66895 2.03613,5.66895c0.9668,0 1.81641,-0.39551 2.54883,-1.18652c0.73242,-0.80078 1.35254,-2.18262 1.86035,-4.14551l3.57422,-13.98926c0.11719,-0.43945 0.41504,-0.65918 0.89356,-0.65918h0.74707c0.24414,0 0.41504,0.09277 0.51269,0.27832c0.09766,0.18555 0.11719,0.40527 0.0586,0.65918l-3.50098,13.91602c-0.76172,3.10547 -2.00195,5.1709 -3.7207,6.19629c-0.98633,0.58594 -2.14844,0.87891 -3.48633,0.87891c-1.32813,0 -2.33887,-0.35645 -3.03223,-1.06934z"/></g></g></g></svg>