<svg version="1.1" xmlns="http://www.w3.org/2000/svg" xmlns:xlink="http://www.w3.org/1999/xlink" width="35.125" height="35.12434" viewBox="0,0,35.125,35.12434"><g transform="translate(-222.43752,-162.43783)"><g data-paper-data="{&quot;isPaintingLayer&quot;:true}" stroke-miterlimit="10" stroke-dasharray="" stroke-dashoffset="0" style="mix-blend-mode: normal"><path d="M257.56251,169.8317v20.49804c0,4.00745 -3.22497,7.23243 -7.23242,7.23243h-20.5c-3.66107,0 -6.66147,-2.69385 -7.1543,-6.21484c0.7952,3.03475 3.54108,5.26367 6.83204,5.26367h20.0332c3.9166,0 7.07032,-3.15372 7.07032,-7.07031v-20.03321c0,-3.2976 -2.23906,-6.0451 -5.28321,-6.83398c3.52994,0.48496 6.23438,3.49081 6.23438,7.15821z" fill-opacity="0.29839" fill="#000000" fill-rule="evenodd" stroke="none" stroke-width="4.54219" stroke-linecap="round" stroke-linejoin="round"/><path d="M229.50719,162.43783h20.03378c3.9166,0 7.06966,3.15307 7.06966,7.06966v20.03379c0,3.91659 -3.15307,7.06966 -7.06966,7.06966h-20.03378c-3.91659,0 -7.06967,-3.15307 -7.06967,-7.06966v-20.03379c0,-3.91659 3.15308,-7.06966 7.06967,-7.06966z" fill="#ff0000" fill-rule="evenodd" stroke="none" stroke-width="4.43922" stroke-linecap="round" stroke-linejoin="round"/><g fill-rule="nonzero" stroke="#000000" stroke-width="0.5" stroke-linecap="butt" stroke-linejoin="miter"><path d="M246.53076,184.85444c-1.09626,-0.92278 -1.19428,-2.61014 -0.21895,-3.76881c0.97532,-1.15867 8.88529,-6.5267 8.88529,-6.5267c0,0 -3.94008,8.70971 -4.91541,9.86838c-0.97532,1.15867 -2.65467,1.34991 -3.75093,0.42713z" data-paper-data="{&quot;index&quot;:null}" fill="#b30000"/><path d="M228.78071,184.42731c-0.97532,-1.15867 -4.91541,-9.86838 -4.91541,-9.86838c0,0 7.90997,5.36803 8.88529,6.5267c0.97532,1.15867 0.8773,2.84603 -0.21896,3.76881c-1.09626,0.92278 -2.7756,0.73154 -3.75093,-0.42713z" fill="#b30000"/><path d="M227.67117,187.13324c0,-6.1279 5.29213,-11.09554 11.8203,-11.09554c6.52817,0 11.8203,4.96765 11.8203,11.09554" fill="#ff0000"/><path d="M237.80996,176.50039c0,-0.64612 1.6745,-4.57124 1.6745,-4.57124c0,0 1.6745,3.92512 1.6745,4.57124c0,0.64612 -0.7497,1.16991 -1.6745,1.16991c-0.9248,0 -1.6745,-0.52379 -1.6745,-1.1699z" fill="#b30000"/><path d="M244.07135,177.64112c0.25269,-0.59466 3.32887,-3.55229 3.32887,-3.55229c0,0 0.00609,4.26737 -0.2466,4.86203c-0.25269,0.59466 -1.14751,0.78353 -1.99866,0.42185c-0.85115,-0.36167 -1.33629,-1.13693 -1.08361,-1.73159z" fill="#b30000"/><path d="M234.22769,179.31137c-0.85115,0.36167 -1.74597,0.1728 -1.99866,-0.42186c-0.25269,-0.59466 -0.2466,-4.86203 -0.2466,-4.86203c0,0 3.07618,2.95763 3.32886,3.55229c0.25269,0.59466 -0.23246,1.36992 -1.0836,1.73159z" data-paper-data="{&quot;index&quot;:null}" fill="#b30000"/></g></g></g></svg>