<svg version="1.1" xmlns="http://www.w3.org/2000/svg" xmlns:xlink="http://www.w3.org/1999/xlink" width="181.69942" height="301.87851" viewBox="0,0,181.69942,301.87851"><defs><linearGradient x1="165.47741" y1="33.9296" x2="172.28303" y2="68.60132" gradientUnits="userSpaceOnUse" id="color-1"><stop offset="0" stop-color="#332f00"/><stop offset="1" stop-color="#998c00"/></linearGradient><linearGradient x1="240.16675" y1="175.50002" x2="240.16675" y2="307.50002" gradientUnits="userSpaceOnUse" id="color-2"><stop offset="0" stop-color="#000000"/><stop offset="1" stop-color="#665e00"/></linearGradient><linearGradient x1="257.2157" y1="118.95956" x2="332.28324" y2="104.22474" gradientUnits="userSpaceOnUse" id="color-3"><stop offset="0" stop-color="#000000"/><stop offset="1" stop-color="#4d4600"/></linearGradient><linearGradient x1="276.85212" y1="12.06815" x2="283.65775" y2="46.73987" gradientUnits="userSpaceOnUse" id="color-4"><stop offset="0" stop-color="#332f00"/><stop offset="1" stop-color="#998c00"/></linearGradient><linearGradient x1="150.58382" y1="139.89005" x2="225.65136" y2="125.15524" gradientUnits="userSpaceOnUse" id="color-5"><stop offset="0" stop-color="#4d4600"/><stop offset="1" stop-color="#000000"/></linearGradient><linearGradient x1="228.84495" y1="60.12016" x2="252.07331" y2="178.45865" gradientUnits="userSpaceOnUse" id="color-6"><stop offset="0" stop-color="#1a1700"/><stop offset="1" stop-color="#807500"/></linearGradient><linearGradient x1="231.37231" y1="50.42924" x2="235.85054" y2="73.24389" gradientUnits="userSpaceOnUse" id="color-7"><stop offset="0" stop-color="#4d4600"/><stop offset="1" stop-color="#1a1700"/></linearGradient><radialGradient cx="209.45105" cy="106.02639" r="23.48065" gradientUnits="userSpaceOnUse" id="color-8"><stop offset="0" stop-color="#403a00"/><stop offset="1" stop-color="#403a00" stop-opacity="0"/></radialGradient><radialGradient cx="263.43996" cy="95.22523" r="23.48065" gradientUnits="userSpaceOnUse" id="color-9"><stop offset="0" stop-color="#403a00"/><stop offset="1" stop-color="#403a00" stop-opacity="0"/></radialGradient><linearGradient x1="272.25998" y1="119.58706" x2="276.22706" y2="139.33337" gradientUnits="userSpaceOnUse" id="color-10"><stop offset="0" stop-color="#1a1a1a"/><stop offset="1" stop-color="#333333"/></linearGradient><linearGradient x1="267.64626" y1="119.96942" x2="271.16517" y2="143.97163" gradientUnits="userSpaceOnUse" id="color-11"><stop offset="0" stop-color="#333333"/><stop offset="1" stop-color="#4d4d4d"/></linearGradient><linearGradient x1="260.44744" y1="118.46223" x2="263.44996" y2="148.56067" gradientUnits="userSpaceOnUse" id="color-12"><stop offset="0" stop-color="#4d4d4d"/><stop offset="1" stop-color="#666666"/></linearGradient><linearGradient x1="247.79221" y1="120.23697" x2="253.97173" y2="151.71897" gradientUnits="userSpaceOnUse" id="color-13"><stop offset="0" stop-color="#666666"/><stop offset="1" stop-color="#808080"/></linearGradient><linearGradient x1="211.06685" y1="131.60122" x2="214.36874" y2="151.46958" gradientUnits="userSpaceOnUse" id="color-14"><stop offset="0" stop-color="#1a1a1a"/><stop offset="1" stop-color="#333333"/></linearGradient><linearGradient x1="214.24746" y1="130.05153" x2="220.32748" y2="153.53605" gradientUnits="userSpaceOnUse" id="color-15"><stop offset="0" stop-color="#333333"/><stop offset="1" stop-color="#4d4d4d"/></linearGradient><linearGradient x1="221.73547" y1="125.99262" x2="228.35001" y2="155.50835" gradientUnits="userSpaceOnUse" id="color-16"><stop offset="0" stop-color="#4d4d4d"/><stop offset="1" stop-color="#666666"/></linearGradient><linearGradient x1="233.33045" y1="123.07564" x2="239.50997" y2="154.55764" gradientUnits="userSpaceOnUse" id="color-17"><stop offset="0" stop-color="#666666"/><stop offset="1" stop-color="#808080"/></linearGradient><linearGradient x1="268.02564" y1="185.84592" x2="269.63306" y2="201.12717" gradientUnits="userSpaceOnUse" id="color-18"><stop offset="0" stop-color="#333333"/><stop offset="1" stop-color="#4d4d4d"/></linearGradient><linearGradient x1="264.27871" y1="186.43089" x2="265.9889" y2="205.51342" gradientUnits="userSpaceOnUse" id="color-19"><stop offset="0" stop-color="#4d4d4d"/><stop offset="1" stop-color="#666666"/></linearGradient><linearGradient x1="259.42624" y1="189.89826" x2="263.34036" y2="209.839" gradientUnits="userSpaceOnUse" id="color-20"><stop offset="0" stop-color="#666666"/><stop offset="1" stop-color="#808080"/></linearGradient><linearGradient x1="241.45875" y1="191.60473" x2="246.31824" y2="206.18163" gradientUnits="userSpaceOnUse" id="color-21"><stop offset="0" stop-color="#333333"/><stop offset="1" stop-color="#4d4d4d"/></linearGradient><linearGradient x1="244.38064" y1="190.24666" x2="250.17227" y2="208.50932" gradientUnits="userSpaceOnUse" id="color-22"><stop offset="0" stop-color="#4d4d4d"/><stop offset="1" stop-color="#666666"/></linearGradient><linearGradient x1="250.26614" y1="191.69627" x2="254.18026" y2="211.63701" gradientUnits="userSpaceOnUse" id="color-23"><stop offset="0" stop-color="#666666"/><stop offset="1" stop-color="#808080"/></linearGradient></defs><g transform="translate(-150.58382,-11.73401)"><g data-paper-data="{&quot;isPaintingLayer&quot;:true}" fill-rule="nonzero" stroke-linejoin="miter" stroke-miterlimit="10" stroke-dasharray="" stroke-dashoffset="0" style="mix-blend-mode: normal"><path d="M178.40902,313.61252v-267.22501h123.18203v267.22501z" fill-opacity="0.01" fill="#000000" stroke="none" stroke-width="0" stroke-linecap="butt"/><path d="M178.40899,313.61251v-267.22501h123.18203v267.22501z" fill-opacity="0.01" fill="#000000" stroke="none" stroke-width="0" stroke-linecap="butt"/><g stroke="#000000" stroke-width="0" stroke-linecap="butt"><path d="M178.76504,120.66096l-13.48283,-68.68925l7.19601,-1.41248l13.48283,68.68925z" fill="#4d4926"/><path d="M151.54435,54.66828c-1.87932,-9.57432 4.35872,-18.85935 13.93304,-20.73867c9.57432,-1.87932 18.85935,4.35872 20.73867,13.93305c1.87932,9.57432 -4.35872,18.85935 -13.93305,20.73867c-9.57432,1.87932 -18.85934,-4.35872 -20.73866,-13.93305z" fill="url(#color-1)"/></g><path d="M206.91676,307.50001l15.14285,-131.8421l37.78325,-0.15789l13.57389,132z" fill="url(#color-2)" stroke="#000000" stroke-width="0" stroke-linecap="butt"/><path d="M257.2157,118.95956c-2.31369,-11.78727 5.36615,-23.21835 17.15342,-25.53204c11.78726,-2.31369 57.91412,10.79723 57.91412,10.79723c0,0 -37.74824,29.57454 -49.5355,31.88823c-11.78727,2.31369 -23.21835,-5.36616 -25.53204,-17.15342z" data-paper-data="{&quot;index&quot;:null}" fill="url(#color-3)" stroke="#000000" stroke-width="0" stroke-linecap="butt"/><g stroke="#000000" stroke-width="0" stroke-linecap="butt"><path d="M290.13973,98.79951l-13.48283,-68.68925l7.19602,-1.41248l13.48283,68.68925z" fill="#4d4926"/><path d="M262.91904,32.80683c-1.87932,-9.57432 4.35872,-18.85935 13.93304,-20.73867c9.57432,-1.87932 18.85935,4.35872 20.73867,13.93305c1.87932,9.57432 -4.35873,18.85935 -13.93305,20.73867c-9.57432,1.87932 -18.85934,-4.35872 -20.73866,-13.93305z" fill="url(#color-4)"/></g><path d="M208.49794,150.68728c-11.78726,2.31369 -57.91412,-10.79723 -57.91412,-10.79723c0,0 37.74824,-29.57454 49.5355,-31.88823c11.78727,-2.31369 23.21835,5.36616 25.53204,17.15342c2.31369,11.78727 -5.36615,23.21835 -17.15342,25.53204z" data-paper-data="{&quot;index&quot;:null}" fill="url(#color-5)" stroke="#000000" stroke-width="0" stroke-linecap="butt"/><path d="M177.42495,131.66223c-6.41433,-32.67827 16.60719,-64.70874 51.42001,-71.54206c34.81281,-6.83332 68.23403,14.11816 74.64836,46.79643c6.41433,32.67827 -16.60719,64.70874 -51.42001,71.54206c-34.81281,6.83332 -68.23403,-14.11816 -74.64836,-46.79643z" fill="url(#color-6)" stroke="#000000" stroke-width="0" stroke-linecap="butt"/><path d="M209.36977,74.62017l28.87146,-25.53921l-0.54073,14.11852l20.92302,-10.22142l-11.243,18.00264" fill="url(#color-7)" stroke="#000000" stroke-width="0" stroke-linecap="round"/><path d="M187.63524,114.71039c-2.65136,-6.66071 4.96656,-15.94825 17.01508,-20.74428c12.04852,-4.79604 23.96516,-3.28443 26.61652,3.37628c2.65136,6.66071 -4.96656,15.94825 -17.01508,20.74428c-12.04852,4.79604 -23.96516,3.28443 -26.61652,-3.37628z" fill="url(#color-8)" stroke="#000000" stroke-width="0" stroke-linecap="butt"/><path d="M263.70581,108.20315c-12.96528,0.26559 -23.59475,-5.32953 -23.74157,-12.49705c-0.14683,-7.16751 10.2446,-13.19323 23.20988,-13.45882c12.96528,-0.26559 23.59475,5.32953 23.74157,12.49705c0.14683,7.16751 -10.2446,13.19323 -23.20988,13.45882z" data-paper-data="{&quot;index&quot;:null}" fill="url(#color-9)" stroke="#000000" stroke-width="0" stroke-linecap="butt"/><path d="M190.55391,105.00229c2.92524,-4.29434 8.31904,-8.43895 15.12773,-11.14921c6.9405,-2.76273 13.83722,-3.43242 18.94435,-2.23049" fill="none" stroke="#1a1700" stroke-width="0.5" stroke-linecap="butt"/><path d="M246.37389,86.99126c4.24126,-2.70461 10.40817,-4.47481 17.30295,-4.61605c6.79673,-0.13923 12.95156,1.33214 17.29082,3.79632" data-paper-data="{&quot;index&quot;:null}" fill="none" stroke="#1a1700" stroke-width="0.5" stroke-linecap="butt"/><path d="M191.3434,140.18456c10.04602,-5.39588 37.34093,21.068 56.83867,17.61562c19.9182,-3.52683 37.87618,-39.74973 47.89082,-34.8802c5.82031,2.83006 -2.59009,19.95078 -11.38692,39.75593c-10.81705,24.35346 -8.96863,53.61877 -24.59177,55.91733c-12.07494,1.77654 -26.94751,-22.14974 -44.79684,-41.9593c-17.42951,-19.34364 -29.18446,-33.63998 -23.95396,-36.44937z" fill="#4d4600" stroke="none" stroke-width="0" stroke-linecap="butt"/><path d="M190.49711,141.28038c9.00648,-4.83753 28.86567,-19.61606 50.12027,-23.37953c21.2546,-3.76347 46.55757,0.45582 55.3268,4.71978c5.21803,2.53723 -2.99457,22.20577 -10.88112,39.96151c-9.69772,21.83341 -11.46151,50.03617 -25.46798,52.09689c-10.82544,1.5927 -25.19786,-19.33163 -41.96751,-35.57026c-16.08183,-15.5726 -31.81973,-35.30969 -27.13047,-37.82837z" fill="#000000" stroke="none" stroke-width="0" stroke-linecap="butt"/><path d="M273.20073,197.58158c-3.27004,9.14959 -6.82216,15.83495 -13.40848,16.80397c-6.58631,0.96902 -11.80276,-2.92304 -18.01202,-10.03342c0,0 11.3494,0.83096 16.30012,-0.07357c5.24311,-0.95795 15.12037,-6.69696 15.12037,-6.69696z" fill="#330000" stroke="none" stroke-width="0" stroke-linecap="butt"/><path d="M240.28539,117.50742c22.42102,-4.19215 50.90428,3.70272 51.10324,3.52925c0.99749,-0.86967 -13.56064,-3.60903 -50.13605,4.60816c-38.72031,6.75068 -44.95691,12.0557 -44.95691,12.0557c0,0 27.06961,-17.02949 43.98971,-20.19311z" fill="#330000" stroke="none" stroke-width="0" stroke-linecap="butt"/><path d="M271.6876,139.42619l-3.11719,-16.50239c0,0 -0.09242,-1.25064 3.72187,-2.96826c3.57352,-1.6092 3.81894,-0.68111 3.81894,-0.68111l3.64103,16.39714c0,0 -0.0251,1.81667 -2.47606,3.09503c-3.03367,1.58228 -5.58857,0.65958 -5.58857,0.65958z" fill="url(#color-10)" stroke="none" stroke-width="0" stroke-linecap="butt"/><path d="M265.6993,143.79529l-2.70247,-20.04655c0,0 -0.03181,-1.51012 4.66491,-3.33408c4.40026,-1.70884 4.63656,-0.57697 4.63656,-0.57697l3.33922,19.9532c0,0 -0.14544,2.18348 -3.17452,3.5656c-3.74921,1.71071 -6.76368,0.43881 -6.76368,0.43881z" fill="url(#color-11)" stroke="none" stroke-width="0" stroke-linecap="butt"/><path d="M256.65205,148.02665l-2.2131,-25.12448c0,0 0.04722,-1.88276 6.00214,-3.88447c5.57904,-1.87536 5.80826,-0.45197 5.80826,-0.45197l3.01156,25.04482c0,0 -0.30673,2.71128 -4.1591,4.25856c-4.76824,1.91514 -8.44977,0.15755 -8.44977,0.15755z" fill="url(#color-12)" stroke="none" stroke-width="0" stroke-linecap="butt"/><path d="M246.20222,151.94028l-4.82528,-26.31331c0,0 -0.11963,-1.99649 6.45918,-4.80186c6.16355,-2.6283 6.55486,-1.14958 6.55486,-1.14958l5.72478,26.13675c0,0 -0.09887,2.90265 -4.33165,4.98435c-5.23908,2.57661 -9.5819,1.14364 -9.5819,1.14364z" fill="url(#color-13)" stroke="none" stroke-width="0" stroke-linecap="butt"/><path d="M213.18676,151.3122c-2.74516,-0.32492 -3.4136,-2.01434 -3.4136,-2.01434l-2.41764,-16.62161c0,0 -0.10008,-0.95476 3.81196,-0.7191c4.17561,0.25154 4.53323,1.45351 4.53323,1.45351l2.94472,16.53403c0,0 -2.06088,1.76967 -5.45868,1.3675z" data-paper-data="{&quot;index&quot;:null}" fill="url(#color-14)" stroke="none" stroke-width="0" stroke-linecap="butt"/><path d="M218.89265,153.47327c-3.32809,-0.09709 -4.31018,-2.05264 -4.31018,-2.05264l-4.67295,-19.6836c0,0 -0.22189,-1.13477 4.49663,-1.2692c5.03641,-0.14348 5.59363,1.26042 5.59363,1.26042l5.29595,19.52231c0,0 -2.28378,2.34288 -6.40309,2.22272z" data-paper-data="{&quot;index&quot;:null}" fill="url(#color-15)" stroke="none" stroke-width="0" stroke-linecap="butt"/><path d="M226.56448,155.37131c-4.14352,-0.25738 -5.28727,-2.73465 -5.28727,-2.73465l-5.0168,-24.72133c0,0 -0.23,-1.42326 5.65573,-1.39743c6.28229,0.02758 6.91916,1.79998 6.91916,1.79998l5.79982,24.54586c0,0 -2.94207,2.82612 -8.07065,2.50756z" data-paper-data="{&quot;index&quot;:null}" fill="url(#color-16)" stroke="none" stroke-width="0" stroke-linecap="butt"/><path d="M237.48342,154.38883c-4.70561,-0.32721 -5.89438,-2.97711 -5.89438,-2.97711l-4.57996,-26.36146c0,0 -0.19671,-1.51692 6.50304,-1.41352c7.15113,0.11035 7.79508,2.00393 7.79508,2.00393l5.47946,26.1849c0,0 -3.47892,2.96827 -9.30325,2.56327z" data-paper-data="{&quot;index&quot;:null}" fill="url(#color-17)" stroke="none" stroke-width="0" stroke-linecap="butt"/><path d="M266.17839,200.87446l-1.19283,-12.75674c0,0 0.01884,-0.95653 3.03837,-1.98963c2.82893,-0.96789 2.94926,-0.24546 2.94926,-0.24546l1.59821,12.71409c0,0 -0.14841,1.37811 -2.10112,2.17463c-2.41695,0.98587 -4.2919,0.10311 -4.2919,0.10311z" data-paper-data="{&quot;index&quot;:null}" fill="url(#color-18)" stroke="none" stroke-width="0" stroke-linecap="butt"/><path d="M261.6867,205.13194l-1.24183,-15.92715c0,0 0.04189,-1.19218 3.82629,-2.42211c3.54553,-1.1523 3.68166,-0.24931 3.68166,-0.24931l1.74806,15.88179c0,0 -0.21153,1.71529 -2.66135,2.67078c-3.03225,1.18264 -5.35283,0.04602 -5.35283,0.04602z" data-paper-data="{&quot;index&quot;:null}" fill="url(#color-19)" stroke="none" stroke-width="0" stroke-linecap="butt"/><path d="M258.41913,209.97918l-3.05634,-16.66689c0,0 -0.07576,-1.26458 4.09126,-3.04151c3.90401,-1.66477 4.15185,-0.72814 4.15185,-0.72814l3.62608,16.55506c0,0 -0.06263,1.83855 -2.74367,3.1571c-3.31844,1.63203 -6.06919,0.72438 -6.06919,0.72438z" data-paper-data="{&quot;index&quot;:null}" fill="url(#color-20)" stroke="none" stroke-width="0" stroke-linecap="butt"/><path d="M245.40882,206.20412c-2.10728,0.08283 -2.81261,-1.11037 -2.81261,-1.11037l-3.80567,-12.23598c0,0 -0.18937,-0.70747 2.78651,-0.99684c3.17638,-0.30886 3.58932,0.55415 3.58932,0.55415l4.19238,12.10706c0,0 -1.34166,1.57945 -3.94994,1.68197z" data-paper-data="{&quot;index&quot;:null}" fill="url(#color-21)" stroke="none" stroke-width="0" stroke-linecap="butt"/><path d="M249.03804,208.52071c-2.62876,0.06468 -3.48627,-1.43586 -3.48627,-1.43586l-4.52064,-15.32484c0,0 -0.22315,-0.88551 3.49233,-1.19178c3.9658,-0.32691 4.46482,0.75662 4.46482,0.75662l5.00512,15.17119c0,0 -1.70163,1.9446 -4.95536,2.02466z" data-paper-data="{&quot;index&quot;:null}" fill="url(#color-22)" stroke="none" stroke-width="0" stroke-linecap="butt"/><path d="M252.89664,211.53009c-2.98054,-0.20725 -3.73351,-1.88571 -3.73351,-1.88571l-2.90096,-16.69739c0,0 -0.1246,-0.96082 4.11904,-0.89533c4.52953,0.0699 4.93741,1.26929 4.93741,1.26929l3.47069,16.58556c0,0 -2.20355,1.88011 -5.89269,1.62358z" data-paper-data="{&quot;index&quot;:null}" fill="url(#color-23)" stroke="none" stroke-width="0" stroke-linecap="butt"/><path d="M230.24037,110.29306l1.77144,-3.08941l-1.71633,8.56199" fill="none" stroke="#1a1700" stroke-width="0.5" stroke-linecap="round"/><path d="M249.16324,112.20644l-5.73869,-7.60371l3.47566,2.13162" fill="none" stroke="#1a1700" stroke-width="0.5" stroke-linecap="round"/></g></g></svg>